#Black_Box_743_26.obj

v 34 0 -43
v 34 0 59
v -39 0 -43
v -39 0 59
v 34 13 -43
v 34 0 59
v 34 0 -43
v 34 13 59
v -39 0 -43
v 34 13 -43
v 34 0 -43
v -39 13 -43
v -39 0 59
v -39 13 -43
v -39 0 -43
v -39 13 59
v 34 0 59
v -39 13 59
v -39 0 59
v 34 13 59

vn 0 1 0
vn 0 1 0
vn 0 1 0
vn 0 1 0
vn -1 0 0
vn -1 0 0
vn -1 0 0
vn -1 0 0
vn 0 0 0.9999999
vn 0 0 0.9999999
vn 0 0 0.9999999
vn 0 0 0.9999999
vn 1 0 0
vn 1 0 0
vn 1 0 0
vn 1 0 0
vn 0 0 -0.9999999
vn 0 0 -0.9999999
vn 0 0 -0.9999999
vn 0 0 -0.9999999

vt 0 0
vt 0 102
vt 73 0
vt 73 102
vt 0 13
vt 102 0
vt 0 0
vt 102 13
vt 0 0
vt 73 13
vt 73 0
vt 0 13
vt 0 0
vt 102 13
vt 102 0
vt 0 13
vt 0 0
vt 73 13
vt 73 0
vt 0 13

g Black_Box_743_26
usemtl Black_Box_743_26
usemap Black_Box_743_26
f 1/1/1 3/3/3 2/2/2
f 2/2/2 3/3/3 4/4/4
f 5/5/5 7/7/7 6/6/6
f 5/5/5 6/6/6 8/8/8
f 9/9/9 11/11/11 10/10/10
f 9/9/9 10/10/10 12/12/12
f 13/13/13 15/15/15 14/14/14
f 13/13/13 14/14/14 16/16/16
f 17/17/17 19/19/19 18/18/18
f 17/17/17 18/18/18 20/20/20
