#Box_1157_24.obj

v 0 4 1
v -1 4 1
v 0 4 -1
v -1 4 -1
v 2 0 3
v 2 1 3
v 2 0 -1
v 2 1 -1
v 2 1 3
v 2 0 3
v -1 1 3
v -1 0 3
v 0 2 2
v -1 2 2
v 0 3 2
v -1 3 2
v 1 1 -1
v 1 1 2
v 1 2 -1
v 1 2 2
v 0 2 2
v -1 1 2
v -1 2 2
v 1 1 2
v 1 2 2
v 0 3 2
v -1 3 2
v 0 3 1
v -1 3 1
v 0 3 1
v -1 4 1
v 0 4 1
v -1 3 1
v 1 2 -1
v 0 2 2
v 0 2 -1
v 1 2 2
v 0 4 -1
v 0 2 -1
v 0 4 1
v 0 3 2
v 0 3 1
v 0 2 2
v 2 1 -1
v 1 1 2
v 1 1 -1
v 2 1 3
v -1 1 2
v -1 1 3

vn 0 1 0
vn 0 1 0
vn 0 1 0
vn 0 1 0
vn 1 0 0
vn 1 0 0
vn 1 0 0
vn 1 0 0
vn 0 0 1
vn 0 0 1
vn 0 0 1
vn 0 0 1
vn 0 0 1
vn 0 0 1
vn 0 0 1
vn 0 0 1
vn 1 0 0
vn 1 0 0
vn 1 0 0
vn 1 0 0
vn 0 0 1
vn 0 0 1
vn 0 0 1
vn 0 0 1
vn 0 0 1
vn 0 1 0
vn 0 1 0
vn 0 1 0
vn 0 1 0
vn 0 0 1
vn 0 0 1
vn 0 0 1
vn 0 0 1
vn 0 1 0
vn 0 1 0
vn 0 1 0
vn 0 1 0
vn 1 0 0
vn 1 0 0
vn 1 0 0
vn 1 0 0
vn 1 0 0
vn 1 0 0
vn 0 1 0
vn 0 1 0
vn 0 1 0
vn 0 1 0
vn 0 1 0
vn 0 1 0

vt 0 2
vt 1 2
vt 0 0
vt 1 0
vt 0 0
vt 0 1
vt 4 0
vt 4 1
vt 3 1
vt 3 0
vt 0 1
vt 0 0
vt 1 0
vt 0 0
vt 1 1
vt 0 1
vt 3 0
vt 0 0
vt 3 1
vt 0 1
vt 1 1
vt 0 0
vt 0 1
vt 2 0
vt 2 1
vt 0 1
vt 1 1
vt 0 0
vt 1 0
vt 1 0
vt 0 1
vt 1 1
vt 0 0
vt 0 0
vt 1 3
vt 1 0
vt 0 3
vt 3 2
vt 3 0
vt 1 2
vt 0 1
vt 1 1
vt 0 0
vt 0 0
vt 1 3
vt 1 0
vt 0 4
vt 3 3
vt 3 4

g Box_1157_24
usemtl Box_1157_24
usemap Box_1157_24
f 1/1/1 3/3/3 2/2/2
f 2/2/2 3/3/3 4/4/4
f 5/5/5 7/7/7 6/6/6
f 6/6/6 7/7/7 8/8/8
f 9/9/9 11/11/11 10/10/10
f 11/11/11 12/12/12 10/10/10
f 13/13/13 15/15/15 14/14/14
f 14/14/14 15/15/15 16/16/16
f 17/17/17 19/19/19 18/18/18
f 18/18/18 19/19/19 20/20/20
f 21/21/21 23/23/23 22/22/22
f 24/24/24 25/25/25 22/22/22
f 22/22/22 25/25/25 21/21/21
f 26/26/26 28/28/28 27/27/27
f 27/27/27 28/28/28 29/29/29
f 30/30/30 32/32/32 31/31/31
f 30/30/30 31/31/31 33/33/33
f 34/34/34 36/36/36 35/35/35
f 34/34/34 35/35/35 37/37/37
f 38/38/38 40/40/40 39/39/39
f 39/39/39 42/42/42 41/41/41
f 40/40/40 42/42/42 39/39/39
f 43/43/43 39/39/39 41/41/41
f 44/44/44 46/46/46 45/45/45
f 44/44/44 45/45/45 47/47/47
f 47/47/47 45/45/45 48/48/48
f 47/47/47 48/48/48 49/49/49
