#Box_1300_33.obj

v -2 0 0
v -2 0 -1
v -2 2 0
v -2 2 -1
v -2 0 -1
v 0 0 -1
v -2 2 -1
v 0 2 -1
v 0 0 -1
v 0 0 0
v 0 2 -1
v 0 2 0
v -2 2 0
v 0 2 -1
v 0 2 0
v -2 2 -1

vn -1 0 0
vn -1 0 0
vn -1 0 0
vn -1 0 0
vn 0 0 -1
vn 0 0 -1
vn 0 0 -1
vn 0 0 -1
vn 1 0 0
vn 1 0 0
vn 1 0 0
vn 1 0 0
vn 0 1 0
vn 0 1 0
vn 0 1 0
vn 0 1 0

vt 1 0
vt 0 0
vt 1 2
vt 0 2
vt 2 0
vt 0 0
vt 2 2
vt 0 2
vt 1 0
vt 0 0
vt 1 2
vt 0 2
vt 2 1
vt 0 0
vt 0 1
vt 2 0

g Box_1300_33
usemtl Box_1300_33
usemap Box_1300_33
f 1/1/1 3/3/3 2/2/2
f 2/2/2 3/3/3 4/4/4
f 5/5/5 7/7/7 6/6/6
f 6/6/6 7/7/7 8/8/8
f 9/9/9 11/11/11 10/10/10
f 10/10/10 11/11/11 12/12/12
f 13/13/13 15/15/15 14/14/14
f 13/13/13 14/14/14 16/16/16
