#Box_1237_30.obj

v 1 -1 -1
v 1 -1 3
v 1 1 -1
v 1 1 3
v 0 3 1
v -1 3 1
v 0 3 -1
v -1 3 -1
v -1 2 2
v 0 2 2
v -1 1 2
v 0 1 2
v 0 2 2
v -1 2 2
v -1 2 1
v 0 2 1
v -1 -1 3
v 1 1 3
v 1 -1 3
v -1 1 3
v 0 1 2
v 1 1 -1
v 1 1 3
v 0 1 -1
v -1 1 2
v -1 1 3
v 0 1 -1
v 0 3 1
v 0 3 -1
v 0 2 1
v 0 2 2
v 0 1 2
v 0 2 1
v -1 3 1
v 0 3 1
v -1 2 1

vn 1 0 0
vn 1 0 0
vn 1 0 0
vn 1 0 0
vn 0 1 0
vn 0 1 0
vn 0 1 0
vn 0 1 0
vn 0 0 1
vn 0 0 1
vn 0 0 1
vn 0 0 1
vn 0 1 0
vn 0 1 0
vn 0 1 0
vn 0 1 0
vn 0 0 1
vn 0 0 1
vn 0 0 1
vn 0 0 1
vn 0 1 0
vn 0 1 0
vn 0 1 0
vn 0 1 0
vn 0 1 0
vn 0 1 0
vn 1 0 0
vn 1 0 0
vn 1 0 0
vn 1 0 0
vn 1 0 0
vn 1 0 0
vn 0 0 1
vn 0 0 1
vn 0 0 1
vn 0 0 1

vt 4 0
vt 0 0
vt 4 2
vt 0 2
vt 0 2
vt 1 2
vt 0 0
vt 1 0
vt 0 1
vt 1 1
vt 0 0
vt 1 0
vt 0 1
vt 1 1
vt 1 0
vt 0 0
vt 0 0
vt 2 2
vt 2 0
vt 0 2
vt 1 3
vt 0 0
vt 0 4
vt 1 0
vt 2 3
vt 2 4
vt 3 0
vt 1 2
vt 3 2
vt 1 1
vt 0 1
vt 0 0
vt 1 0
vt 0 1
vt 1 1
vt 0 0

g Box_1237_30
usemtl Box_1237_30
usemap Box_1237_30
f 1/1/1 3/3/3 2/2/2
f 2/2/2 3/3/3 4/4/4
f 5/5/5 7/7/7 6/6/6
f 6/6/6 7/7/7 8/8/8
f 9/9/9 11/11/11 10/10/10
f 10/10/10 11/11/11 12/12/12
f 13/13/13 15/15/15 14/14/14
f 16/16/16 15/15/15 13/13/13
f 17/17/17 19/19/19 18/18/18
f 17/17/17 18/18/18 20/20/20
f 21/21/21 23/23/23 22/22/22
f 21/21/21 22/22/22 24/24/24
f 23/23/23 21/21/21 25/25/25
f 23/23/23 25/25/25 26/26/26
f 27/27/27 29/29/29 28/28/28
f 27/27/27 28/28/28 30/30/30
f 31/31/31 32/32/32 27/27/27
f 31/31/31 27/27/27 30/30/30
f 33/33/33 35/35/35 34/34/34
f 33/33/33 34/34/34 36/36/36
