#Box_755_12.obj

v 1 0 -1
v 1 0 1
v 1 2 -1
v 1 2 1
v -1 0 2
v -1 2 2
v 0 0 2
v 0 2 2
v -1 2 1
v -1 2 -1
v 0 2 1
v 1 2 -1
v 1 2 1
v -1 2 1
v 0 2 1
v -1 2 2
v 0 2 2
v 0 2 1
v 0 0 2
v 0 2 2
v 0 0 1
v 1 2 1
v 0 0 1
v 0 2 1
v 1 0 1

vn 1 0 0
vn 1 0 0
vn 1 0 0
vn 1 0 0
vn 0 0 1
vn 0 0 1
vn 0 0 1
vn 0 0 1
vn 0 1 0
vn 0 1 0
vn 0 1 0
vn 0 1 0
vn 0 1 0
vn 0 1 0
vn 0 1 0
vn 0 1 0
vn 0 1 0
vn 1 0 0
vn 1 0 0
vn 1 0 0
vn 1 0 0
vn 0 0 1
vn 0 0 1
vn 0 0 1
vn 0 0 1

vt 2 0
vt 0 0
vt 2 2
vt 0 2
vt 0 0
vt 0 2
vt 1 0
vt 1 2
vt 2 2
vt 2 0
vt 1 2
vt 0 0
vt 0 2
vt 1 0
vt 0 0
vt 1 1
vt 0 1
vt 1 2
vt 0 0
vt 0 2
vt 1 0
vt 1 2
vt 0 0
vt 0 2
vt 1 0

g Box_755_12
usemtl Box_755_12
usemap Box_755_12
f 1/1/1 3/3/3 2/2/2
f 2/2/2 3/3/3 4/4/4
f 5/5/5 7/7/7 6/6/6
f 6/6/6 7/7/7 8/8/8
f 9/9/9 11/11/11 10/10/10
f 12/12/12 11/11/11 13/13/13
f 10/10/10 11/11/11 12/12/12
f 14/14/14 16/16/16 15/15/15
f 15/15/15 16/16/16 17/17/17
f 18/18/18 20/20/20 19/19/19
f 18/18/18 19/19/19 21/21/21
f 22/22/22 24/24/24 23/23/23
f 22/22/22 23/23/23 25/25/25
