#Box_1264_31.obj

v -1 0 -0.9999999
v 2.79632E-06 0 -1
v -0.9999972 2 -1.000003
v 2.79632E-06 2 -1
v 2.79632E-06 0 -1
v 0 0 0
v 2.79632E-06 2 -1
v 0 2 0
v 0 2 0
v -1 2 -2.796319E-06
v 2.79632E-06 2 -1
v -0.9999972 2 -1.000003

vn 1 -1.490116E-06 -2.980232E-06
vn 1 -7.45059E-07 -1.490118E-06
vn 1 -7.45059E-07 -1.490118E-06
vn 1 0 -2.273737E-13
vn 2.273737E-13 0 1
vn 2.273737E-13 0 1
vn 2.273737E-13 0 1
vn 2.273737E-13 0 1
vn 0 1 0
vn 0 1 0
vn 0 1 0
vn 0 1 0

vt 1.000003 5.960464E-08
vt 0 5.960464E-08
vt 1 2
vt 0 2
vt 1 0
vt 0 0
vt 1 2
vt 0 2
vt 2.741814E-06 1.000003
vt 1.000003 1
vt 0 2.741814E-06
vt 1 0

g Box_1264_31
usemtl Box_1264_31
usemap Box_1264_31
f 1/1/1 3/3/3 2/2/2
f 2/2/2 3/3/3 4/4/4
f 5/5/5 7/7/7 6/6/6
f 6/6/6 7/7/7 8/8/8
f 9/9/9 11/11/11 10/10/10
f 10/10/10 11/11/11 12/12/12
