#Box_1267_32.obj

v 0 0 0
v -1 0 -1.555991E-08
v 0 1 0
v -1 1 -1.555991E-08
v -0.9999999 0 -2
v 3.111982E-08 0 -2
v -0.9999999 1 -2
v 3.111982E-08 1 -2
v 3.111982E-08 0 -2
v 0 0 0
v 3.111982E-08 1 -2
v 0 1 0
v 0 1 0
v -1 1 -1.555991E-08
v 3.111982E-08 1 -2
v -0.9999999 1 -2

vn 1.089194E-07 0 1
vn 1.089194E-07 0 1
vn 1.089194E-07 0 1
vn 1.089194E-07 0 1
vn -1.555991E-08 0 -1
vn -1.555991E-08 0 -1
vn -1.555991E-08 0 -1
vn -1.555991E-08 0 -1
vn 1 0 1.776357E-15
vn 1 0 1.776357E-15
vn 1 0 1.776357E-15
vn 1 0 1.776357E-15
vn 0 1 0
vn 0 1 0
vn 0 1 0
vn 0 1 0

vt 0.9999999 0
vt 0 0
vt 0.9999999 1
vt 0 1
vt 1 0
vt 0 0
vt 1 1
vt 0 1
vt 2 0
vt 5.960464E-08 0
vt 2 1
vt 5.960464E-08 1
vt 2.980232E-08 2
vt 1 2
vt 0 0
vt 1 0

g Box_1267_32
usemtl Box_1267_32
usemap Box_1267_32
f 1/1/1 3/3/3 2/2/2
f 2/2/2 3/3/3 4/4/4
f 5/5/5 7/7/7 6/6/6
f 6/6/6 7/7/7 8/8/8
f 9/9/9 11/11/11 10/10/10
f 10/10/10 11/11/11 12/12/12
f 13/13/13 15/15/15 14/14/14
f 14/14/14 15/15/15 16/16/16
