#Building_661_13.obj

v 1 0 0
v 3 0 0
v 1 1 0
v 3 1 0
v 3 2 2
v 1 1 2
v 3 1 2
v 1 2 2
v 1 3 4
v 1 2 2
v 1 2 4
v 1 3 3
v -1 4 1
v 1 3 1
v -1 3 1
v 1 4 1
v -1 3 -1
v 1 4 -1
v -1 4 -1
v 1 3 -1
v -1 4 -1
v -1 3 -3
v -1 3 -1
v -1 4 -3
v -3 5 -1
v -3 4 -3
v -3 4 -1
v -3 5 -3
v -1 3 -1
v -3 4 -1
v -1 4 -1
v -3 3 -1
v -1 3 1
v -1 4 -1
v -1 4 1
v -1 3 -1
v -5 6 -3
v -3 5 -3
v -5 5 -3
v -3 6 -3
v -5 0 -5
v -3 6 -5
v -5 6 -5
v -3 0 -5
v 1 4 -1
v 1 3 1
v 1 4 1
v 1 3 -1
v 1 0 -3
v 1 3 -1
v 1 3 -3
v 1 1 0
v 1 0 0
v 1 3 1
v 1 1 0
v 1 1 2
v 1 3 -1
v 1 2 2
v 1 3 1
v 1 1 2
v 1 3 3
v -3 4 -1
v -5 5 -1
v -3 5 -1
v -5 4 -1
v -3 3 -1
v -3 4 1
v -3 4 -1
v -3 3 1
v -3 3 1
v -5 4 1
v -3 4 1
v -5 3 1
v -1 2 1
v -3 3 1
v -1 3 1
v -3 2 1
v -1 3 1
v -1 2 3
v -1 2 1
v -1 3 3
v -1 3 3
v -3 2 3
v -1 2 3
v -3 3 3
v -3 3 3
v -3 2 1
v -3 2 3
v -3 3 1
v 3 1 2
v 3 2 4
v 3 2 2
v 3 0 4
v 3 1 0
v 3 0 0
v -3 4 -3
v -3 6 -3
v -3 6 -5
v -3 0 -5
v -3 4 -3
v -3 6 -5
v -3 0 -3
v -3 4 -3
v -1 3 -3
v -1 4 -3
v -3 0 -3
v -1 3 -3
v -3 4 -3
v -1 0 -3
v 1 0 -3
v -1 3 -3
v -1 0 -3
v 1 3 -3
v -5 4 -1
v -5 5 -3
v -5 5 -1
v -5 4 -3
v -3 4 -1
v -5 4 -3
v -5 4 -1
v -3 4 -3
v -3 2 -1
v -3 4 -3
v -3 4 -1
v -3 2 -3
v -3 4 -1
v -5 2 -1
v -3 2 -1
v -5 4 -1
v -5 4 -3
v -3 2 -3
v -5 2 -3
v -3 4 -3
v -5 4 1
v -5 2 -1
v -5 4 -1
v -5 3 1
v -5 6 -3
v -5 0 -5
v -5 6 -5
v -5 5 -3
v -5 4 -3
v -5 2 -3
v -5 2 -1
v -5 0 4
v -5 0 4
v -5 3 1
v -5 3 4
v -5 2 -1
v 1 2 4
v -5 3 4
v 1 3 4
v -5 0 4
v 3 2 4
v 3 0 4

vn 0 0 -1
vn 0 0 -1
vn 0 0 -1
vn 0 0 -1
vn 0 0 -1
vn 0 0 -1
vn 0 0 -1
vn 0 0 -1
vn 1 0 0
vn 1 0 0
vn 1 0 0
vn 1 0 0
vn 0 0 1
vn 0 0 1
vn 0 0 1
vn 0 0 1
vn 0 0 -1
vn 0 0 -1
vn 0 0 -1
vn 0 0 -1
vn 1 0 0
vn 1 0 0
vn 1 0 0
vn 1 0 0
vn 1 0 0
vn 1 0 0
vn 1 0 0
vn 1 0 0
vn 0 0 1
vn 0 0 1
vn 0 0 1
vn 0 0 1
vn -1 0 0
vn -1 0 0
vn -1 0 0
vn -1 0 0
vn 0 0 1
vn 0 0 1
vn 0 0 1
vn 0 0 1
vn 0 0 -1
vn 0 0 -1
vn 0 0 -1
vn 0 0 -1
vn 1 0 0
vn 1 0 0
vn 1 0 0
vn 1 0 0
vn 1 0 0
vn 1 0 0
vn 1 0 0
vn 1 0 0
vn 1 0 0
vn 1 0 0
vn 1 0 0
vn 1 0 0
vn 1 0 0
vn 1 0 0
vn 1 0 0
vn 1 0 0
vn 1 0 0
vn 0 0 1
vn 0 0 1
vn 0 0 1
vn 0 0 1
vn 1 0 0
vn 1 0 0
vn 1 0 0
vn 1 0 0
vn 0 0 1
vn 0 0 1
vn 0 0 1
vn 0 0 1
vn 0 0 1
vn 0 0 1
vn 0 0 1
vn 0 0 1
vn -1 0 0
vn -1 0 0
vn -1 0 0
vn -1 0 0
vn 0 0 -1
vn 0 0 -1
vn 0 0 -1
vn 0 0 -1
vn 1 0 0
vn 1 0 0
vn 1 0 0
vn 1 0 0
vn 1 0 0
vn 1 0 0
vn 1 0 0
vn 1 0 0
vn 1 0 0
vn 1 0 0
vn 1 0 0
vn 1 0 0
vn 1 0 0
vn 1 0 0
vn 1 0 0
vn 1 0 0
vn 1 0 0
vn 0 0 -1
vn 0 0 -1
vn 0 0 -1
vn 0 0 -1
vn 0 0 -1
vn 0 0 -1
vn 0 0 -1
vn 0 0 -1
vn 0 0 -1
vn 0 0 -1
vn 0 0 -1
vn -1 0 0
vn -1 0 0
vn -1 0 0
vn -1 0 0
vn 0 -1 0
vn 0 -1 0
vn 0 -1 0
vn 0 -1 0
vn -1 0 0
vn -1 0 0
vn -1 0 0
vn -1 0 0
vn 0 0 -1
vn 0 0 -1
vn 0 0 -1
vn 0 0 -1
vn 0 0 1
vn 0 0 1
vn 0 0 1
vn 0 0 1
vn -1 0 0
vn -1 0 0
vn -1 0 0
vn -1 0 0
vn -1 0 0
vn -1 0 0
vn -1 0 0
vn -1 0 0
vn -1 0 0
vn -1 0 0
vn -1 0 0
vn -1 0 0
vn -1 0 0
vn -1 0 0
vn -1 0 0
vn -1 0 0
vn 0 0 1
vn 0 0 1
vn 0 0 1
vn 0 0 1
vn 0 0 1
vn 0 0 1

vt 2 0
vt 0 0
vt 2 1
vt 0 1
vt 0 1
vt 2 0
vt 0 0
vt 2 1
vt 0 1
vt 2 0
vt 0 0
vt 1 1
vt 0 1
vt 2 0
vt 0 0
vt 2 1
vt 2 0
vt 0 1
vt 2 1
vt 0 0
vt 0 1
vt 2 0
vt 0 0
vt 2 1
vt 0 1
vt 2 0
vt 0 0
vt 2 1
vt 2 0
vt 0 1
vt 2 1
vt 0 0
vt 2 0
vt 0 1
vt 2 1
vt 0 0
vt 0 1
vt 2 0
vt 0 0
vt 2 1
vt 2 0
vt 0 6
vt 2 6
vt 0 0
vt 2 1
vt 0 0
vt 0 1
vt 2 0
vt 3 0
vt 1 3
vt 3 3
vt 0 1
vt 0 0
vt 1 2
vt 2 0
vt 0 0
vt 3 2
vt 1 1
vt 2 2
vt 1 0
vt 0 2
vt 2 0
vt 0 1
vt 2 1
vt 0 0
vt 2 0
vt 0 1
vt 2 1
vt 0 0
vt 2 0
vt 0 1
vt 2 1
vt 0 0
vt 2 0
vt 0 1
vt 2 1
vt 0 0
vt 0 1
vt 2 0
vt 0 0
vt 2 1
vt 0 1
vt 2 0
vt 0 0
vt 2 1
vt 0 1
vt 2 0
vt 0 0
vt 2 1
vt 2 1
vt 0 2
vt 2 2
vt 0 0
vt 4 1
vt 4 0
vt 0 0
vt 0 2
vt 2 2
vt 2 0
vt 0 4
vt 2 6
vt 0 0
vt 2 1
vt 0 0
vt 0 1
vt 2 0
vt 0 3
vt 2 4
vt 0 0
vt 0 0
vt 2 3
vt 2 0
vt 0 3
vt 2 0
vt 0 1
vt 2 1
vt 0 0
vt 2 2
vt 0 0
vt 0 2
vt 2 0
vt 2 0
vt 0 2
vt 2 2
vt 0 0
vt 0 2
vt 2 0
vt 0 0
vt 2 2
vt 0 2
vt 2 0
vt 0 0
vt 2 2
vt 2 2
vt 0 0
vt 0 2
vt 2 1
vt 2 6
vt 0 0
vt 0 6
vt 2 5
vt 2 4
vt 2 2
vt 4 2
vt 9 0
vt 5 0
vt 2 3
vt 5 3
vt 0 2
vt 6 2
vt 0 3
vt 6 3
vt 0 0
vt 8 2
vt 8 0

g Building_661_13
usemtl Building_661_13
usemap Building_661_13
f 1/1/1 3/3/3 2/2/2
f 2/2/2 3/3/3 4/4/4
f 5/5/5 7/7/7 6/6/6
f 5/5/5 6/6/6 8/8/8
f 9/9/9 11/11/11 10/10/10
f 9/9/9 10/10/10 12/12/12
f 13/13/13 15/15/15 14/14/14
f 13/13/13 14/14/14 16/16/16
f 17/17/17 19/19/19 18/18/18
f 17/17/17 18/18/18 20/20/20
f 21/21/21 23/23/23 22/22/22
f 21/21/21 22/22/22 24/24/24
f 25/25/25 27/27/27 26/26/26
f 25/25/25 26/26/26 28/28/28
f 29/29/29 31/31/31 30/30/30
f 29/29/29 30/30/30 32/32/32
f 33/33/33 35/35/35 34/34/34
f 33/33/33 34/34/34 36/36/36
f 37/37/37 39/39/39 38/38/38
f 37/37/37 38/38/38 40/40/40
f 41/41/41 43/43/43 42/42/42
f 41/41/41 42/42/42 44/44/44
f 45/45/45 47/47/47 46/46/46
f 45/45/45 46/46/46 48/48/48
f 49/49/49 51/51/51 50/50/50
f 49/49/49 50/50/50 52/52/52
f 52/52/52 53/53/53 49/49/49
f 54/54/54 56/56/56 55/55/55
f 54/54/54 55/55/55 57/57/57
f 58/58/58 60/60/60 59/59/59
f 58/58/58 59/59/59 61/61/61
f 62/62/62 64/64/64 63/63/63
f 62/62/62 63/63/63 65/65/65
f 66/66/66 68/68/68 67/67/67
f 66/66/66 67/67/67 69/69/69
f 70/70/70 72/72/72 71/71/71
f 70/70/70 71/71/71 73/73/73
f 74/74/74 76/76/76 75/75/75
f 74/74/74 75/75/75 77/77/77
f 78/78/78 80/80/80 79/79/79
f 78/78/78 79/79/79 81/81/81
f 82/82/82 84/84/84 83/83/83
f 82/82/82 83/83/83 85/85/85
f 86/86/86 88/88/88 87/87/87
f 86/86/86 87/87/87 89/89/89
f 90/90/90 92/92/92 91/91/91
f 90/90/90 91/91/91 93/93/93
f 93/93/93 95/95/95 94/94/94
f 93/93/93 94/94/94 90/90/90
f 96/96/96 98/98/98 97/97/97
f 99/99/99 101/101/101 100/100/100
f 100/100/100 102/102/102 99/99/99
f 103/103/103 105/105/105 104/104/104
f 106/106/106 108/108/108 107/107/107
f 106/106/106 107/107/107 109/109/109
f 110/110/110 112/112/112 111/111/111
f 110/110/110 111/111/111 113/113/113
f 114/114/114 116/116/116 115/115/115
f 114/114/114 115/115/115 117/117/117
f 118/118/118 120/120/120 119/119/119
f 118/118/118 119/119/119 121/121/121
f 122/122/122 124/124/124 123/123/123
f 122/122/122 123/123/123 125/125/125
f 126/126/126 128/128/128 127/127/127
f 126/126/126 127/127/127 129/129/129
f 130/130/130 132/132/132 131/131/131
f 130/130/130 131/131/131 133/133/133
f 134/134/134 136/136/136 135/135/135
f 134/134/134 135/135/135 137/137/137
f 138/138/138 140/140/140 139/139/139
f 138/138/138 139/139/139 141/141/141
f 142/142/142 141/141/141 139/139/139
f 142/142/142 139/139/139 143/143/143
f 139/139/139 145/145/145 144/144/144
f 139/139/139 144/144/144 143/143/143
f 146/146/146 148/148/148 147/147/147
f 146/146/146 147/147/147 149/149/149
f 150/150/150 152/152/152 151/151/151
f 150/150/150 151/151/151 153/153/153
f 153/153/153 155/155/155 154/154/154
f 153/153/153 154/154/154 150/150/150
