#Building_661_14.obj

v 3 1 2
v 1 1 0
v 3 1 0
v 1 1 2
v 3 2 4
v 1 2 2
v 3 2 2
v 1 2 4
v 1 3 4
v -1 3 3
v 1 3 3
v -5 3 4
v -3 3 3
v -1 3 1
v 1 3 3
v -1 3 3
v 1 3 1
v -1 4 -1
v 1 4 1
v -1 4 1
v 1 4 -1
v -1 3 -3
v 1 3 -1
v -1 3 -1
v 1 3 -3
v -3 4 -1
v -1 4 -3
v -1 4 -1
v -3 4 -3
v -5 5 -1
v -3 5 -3
v -3 5 -1
v -5 5 -3
v -1 3 1
v -3 3 -1
v -1 3 -1
v -3 3 1
v -5 6 -5
v -3 6 -3
v -5 6 -3
v -3 6 -5
v -3 4 1
v -5 4 -1
v -3 4 -1
v -5 4 1
v -3 3 3
v -5 3 1
v -3 3 1
v -5 3 4
v -1 2 3
v -3 2 1
v -1 2 1
v -3 2 3
v -5 2 -1
v -3 2 -3
v -3 2 -1
v -5 2 -3

vn 0 1 0
vn 0 1 0
vn 0 1 0
vn 0 1 0
vn 0 1 0
vn 0 1 0
vn 0 1 0
vn 0 1 0
vn 0 1 0
vn 0 1 0
vn 0 1 0
vn 0 1 0
vn 0 1 0
vn 0 1 0
vn 0 1 0
vn 0 1 0
vn 0 1 0
vn 0 1 0
vn 0 1 0
vn 0 1 0
vn 0 1 0
vn 0 1 0
vn 0 1 0
vn 0 1 0
vn 0 1 0
vn 0 1 0
vn 0 1 0
vn 0 1 0
vn 0 1 0
vn 0 1 0
vn 0 1 0
vn 0 1 0
vn 0 1 0
vn 0 1 0
vn 0 1 0
vn 0 1 0
vn 0 1 0
vn 0 1 0
vn 0 1 0
vn 0 1 0
vn 0 1 0
vn 0 1 0
vn 0 1 0
vn 0 1 0
vn 0 1 0
vn 0 1 0
vn 0 1 0
vn 0 1 0
vn 0 1 0
vn 0 1 0
vn 0 1 0
vn 0 1 0
vn 0 1 0
vn 0 1 0
vn 0 1 0
vn 0 1 0
vn 0 1 0

vt 0 2
vt 2 0
vt 0 0
vt 2 2
vt 0 2
vt 2 0
vt 0 0
vt 2 2
vt 0 1
vt 2 0
vt 0 0
vt 6 1
vt 4 0
vt 2 0
vt 0 2
vt 2 2
vt 0 0
vt 2 0
vt 0 2
vt 2 2
vt 0 0
vt 2 0
vt 0 2
vt 2 2
vt 0 0
vt 2 2
vt 0 0
vt 0 2
vt 2 0
vt 2 2
vt 0 0
vt 0 2
vt 2 0
vt 0 2
vt 2 0
vt 0 0
vt 2 2
vt 2 0
vt 0 2
vt 2 2
vt 0 0
vt 0 2
vt 2 0
vt 0 0
vt 2 2
vt 0 2
vt 2 0
vt 0 0
vt 2 3
vt 0 2
vt 2 0
vt 0 0
vt 2 2
vt 2 2
vt 0 0
vt 0 2
vt 2 0

g Building_661_14
usemtl Building_661_14
usemap Building_661_14
f 1/1/1 3/3/3 2/2/2
f 1/1/1 2/2/2 4/4/4
f 5/5/5 7/7/7 6/6/6
f 5/5/5 6/6/6 8/8/8
f 9/9/9 11/11/11 10/10/10
f 10/10/10 13/13/13 12/12/12
f 10/10/10 12/12/12 9/9/9
f 14/14/14 16/16/16 15/15/15
f 14/14/14 15/15/15 17/17/17
f 18/18/18 20/20/20 19/19/19
f 18/18/18 19/19/19 21/21/21
f 22/22/22 24/24/24 23/23/23
f 22/22/22 23/23/23 25/25/25
f 26/26/26 28/28/28 27/27/27
f 26/26/26 27/27/27 29/29/29
f 30/30/30 32/32/32 31/31/31
f 30/30/30 31/31/31 33/33/33
f 34/34/34 36/36/36 35/35/35
f 34/34/34 35/35/35 37/37/37
f 38/38/38 40/40/40 39/39/39
f 38/38/38 39/39/39 41/41/41
f 42/42/42 44/44/44 43/43/43
f 42/42/42 43/43/43 45/45/45
f 46/46/46 48/48/48 47/47/47
f 49/49/49 46/46/46 47/47/47
f 50/50/50 52/52/52 51/51/51
f 50/50/50 51/51/51 53/53/53
f 54/54/54 56/56/56 55/55/55
f 54/54/54 55/55/55 57/57/57
