#Building_666_1.obj

v 6 4 8
v 6 4 7
v 6 3 8
v 6 3 7
v 0 0 7
v 0 0 8
v 0 3 8
v 0 3 7
v 0 4 7
v 0 0 -1
v 0 3 7
v 0 0 7
v 0 4 7
v 0 3 7
v 5 4 7
v 5 3 7
v 0 3 7
v 0 3 8
v 5 3 7
v 5 3 8
v 5 4 1
v 5 3 1
v 6 4 1
v 6 3 1
v 5 3 7
v 5 3 8
v 6 3 7
v 6 3 8
v 5 4 7
v 5 3 7
v 5 4 1
v 5 3 1
v 5 3 7
v 6 3 7
v 5 3 1
v 6 3 1
v 6 3 7
v 6 4 7
v 6 3 1
v 6 4 1

vn 1 0 0
vn 1 0 0
vn 1 0 0
vn 1 0 0
vn 1 0 0
vn 1 0 0
vn 1 0 0
vn 1 0 0
vn 1 0 0
vn 1 0 0
vn 1 0 0
vn 1 0 0
vn 0 0 -1
vn 0 0 -1
vn 0 0 -1
vn 0 0 -1
vn 0 -1 0
vn 0 -1 0
vn 0 -1 0
vn 0 -1 0
vn 0 0 -1
vn 0 0 -1
vn 0 0 -1
vn 0 0 -1
vn 0 -1 0
vn 0 -1 0
vn 0 -1 0
vn 0 -1 0
vn -1 0 0
vn -1 0 0
vn -1 0 0
vn -1 0 0
vn 0 -1 0
vn 0 -1 0
vn 0 -1 0
vn 0 -1 0
vn 1 0 0
vn 1 0 0
vn 1 0 0
vn 1 0 0

vt 0 1
vt 1 1
vt 0 0
vt 1 0
vt 1 0
vt 0 0
vt 0 3
vt 1 3
vt 0 4
vt 8 0
vt 0 3
vt 0 0
vt 5 1
vt 5 0
vt 0 1
vt 0 0
vt 0 0
vt 0 1
vt 5 0
vt 5 1
vt 1 1
vt 1 0
vt 0 1
vt 0 0
vt 0 0
vt 0 1
vt 1 0
vt 1 1
vt 6 1
vt 6 0
vt 0 1
vt 0 0
vt 0 6
vt 1 6
vt 0 0
vt 1 0
vt 0 0
vt 0 1
vt 6 0
vt 6 1

g Building_666_1
usemtl Building_666_1
usemap Building_666_1
f 1/1/1 3/3/3 2/2/2
f 2/2/2 3/3/3 4/4/4
f 5/5/5 7/7/7 6/6/6
f 8/8/8 7/7/7 5/5/5
f 9/9/9 11/11/11 10/10/10
f 10/10/10 11/11/11 12/12/12
f 13/13/13 15/15/15 14/14/14
f 14/14/14 15/15/15 16/16/16
f 17/17/17 19/19/19 18/18/18
f 18/18/18 19/19/19 20/20/20
f 21/21/21 23/23/23 22/22/22
f 22/22/22 23/23/23 24/24/24
f 25/25/25 27/27/27 26/26/26
f 26/26/26 27/27/27 28/28/28
f 29/29/29 31/31/31 30/30/30
f 30/30/30 31/31/31 32/32/32
f 33/33/33 35/35/35 34/34/34
f 34/34/34 35/35/35 36/36/36
f 37/37/37 39/39/39 38/38/38
f 38/38/38 39/39/39 40/40/40
