#Building_521_4.obj

v 26 4 -1
v 16 -1 4
v 16 -1 -1
v 26 4 4
v 61 4 4
v 71 -1 -1
v 71 -1 4
v 61 4 -1
v 35 5 -10
v 35 4 13
v 35 4 -10
v 35 5 13
v 36 5 -9
v 35 5 13
v 35 5 -10
v 36 5 12
v 52 5 13
v 35 4 13
v 35 5 13
v 52 4 13
v 52 5 -10
v 52 4 13
v 52 5 13
v 52 4 -10
v 35 5 -10
v 52 4 -10
v 52 5 -10
v 35 4 -10
v 51 5 -9
v 35 5 -10
v 52 5 -10
v 36 5 -9
v 51 5 12
v 52 5 13
v 36 5 12
v 52 5 13
v 35 5 13
v 51 5 12
v 67 1 -2
v 69 1 -1
v 67 1 -1
v 69 1 -2
v 69 0 -2
v 69 1 -1
v 69 1 -2
v 69 0 -1
v 67 2 -1
v 67 1 -2
v 67 1 -1
v 67 2 -2
v 65 2 -1
v 67 2 -2
v 67 2 -1
v 65 2 -2
v 65 3 -1
v 65 2 -2
v 65 2 -1
v 65 3 -2
v 63 3 -1
v 65 3 -2
v 65 3 -1
v 63 3 -2
v 63 4 -1
v 63 3 -2
v 63 3 -1
v 63 4 -2
v 61 4 -1
v 63 4 -2
v 63 4 -1
v 61 4 -2
v 61 5 -1
v 61 4 -2
v 61 4 -1
v 61 5 -2
v 26 4 -1
v 26 5 -2
v 26 5 -1
v 26 4 -2
v 24 4 -1
v 26 4 -2
v 26 4 -1
v 24 4 -2
v 24 3 -1
v 24 4 -2
v 24 4 -1
v 24 3 -2
v 22 3 -1
v 24 3 -2
v 24 3 -1
v 22 3 -2
v 22 2 -1
v 22 3 -2
v 22 3 -1
v 22 2 -2
v 20 2 -1
v 22 2 -2
v 22 2 -1
v 20 2 -2
v 20 1 -1
v 20 2 -2
v 20 2 -1
v 20 1 -2
v 18 1 -1
v 20 1 -2
v 20 1 -1
v 18 1 -2
v 18 0 -1
v 18 1 -2
v 18 1 -1
v 18 0 -2
v 18 0 -1
v 18 1 -1
v 20 1 -1
v 20 1 -1
v 20 2 -1
v 22 2 -1
v 22 2 -1
v 22 3 -1
v 24 3 -1
v 24 3 -1
v 24 4 -1
v 26 4 -1
v 28 4 -1
v 26 5 -1
v 28 5 -1
v 26 4 -1
v 59 4 -1
v 59 5 -16
v 59 5 -1
v 59 4 -16
v 28 4 -16
v 28 5 -1
v 28 5 -16
v 28 4 -1
v 67 1 -1
v 65 2 -1
v 67 2 -1
v 65 2 -1
v 63 3 -1
v 65 3 -1
v 63 3 -1
v 61 4 -1
v 63 4 -1
v 61 4 -1
v 59 5 -1
v 61 5 -1
v 59 4 -1
v 19.99999 1 4.999698
v 17.99999 1 3.999689
v 19.99999 1 3.999698
v 17.99999 1 4.999689
v 18 0 5
v 17.99999 1 3.999689
v 17.99999 1 4.999689
v 18 0 4
v 19.99999 2 3.999698
v 19.99999 1 4.999698
v 19.99999 1 3.999698
v 19.99999 2 4.999698
v 21.99999 2 3.999707
v 19.99999 2 4.999698
v 19.99999 2 3.999698
v 21.99999 2 4.999707
v 21.99999 3 3.999707
v 21.99999 2 4.999707
v 21.99999 2 3.999707
v 21.99999 3 4.999707
v 24 3 3.999716
v 21.99999 3 4.999707
v 21.99999 3 3.999707
v 23.99999 3 4.999716
v 23.99999 4 3.999716
v 23.99999 3 4.999716
v 24 3 3.999716
v 23.99999 4 4.999716
v 26 4 3.999725
v 23.99999 4 4.999716
v 23.99999 4 3.999716
v 25.99999 4 4.999725
v 25.99999 5 3.999725
v 25.99999 4 4.999725
v 26 4 3.999725
v 25.99999 5 4.999725
v 61 4 3.999883
v 60.99999 5 4.999883
v 61 5 3.999883
v 60.99999 4 4.999883
v 63 4 3.999892
v 60.99999 4 4.999883
v 61 4 3.999883
v 62.99999 4 4.999892
v 63 3 3.999892
v 62.99999 4 4.999892
v 63 4 3.999892
v 62.99999 3 4.999892
v 65 3 3.999901
v 62.99999 3 4.999892
v 63 3 3.999892
v 64.99999 3 4.999901
v 65 2 3.999901
v 64.99999 3 4.999901
v 65 3 3.999901
v 64.99999 2 4.999901
v 67 2 3.99991
v 64.99999 2 4.999901
v 65 2 3.999901
v 66.99999 2 4.99991
v 67 1 3.99991
v 66.99999 2 4.99991
v 67 2 3.99991
v 66.99999 1 4.99991
v 69 1 3.999919
v 66.99999 1 4.99991
v 67 1 3.99991
v 68.99999 1 4.999919
v 69 0 4
v 68.99999 1 4.999919
v 69 1 3.999919
v 69 0 5
v 67 1 4
v 67 2 3.99991
v 65 2 3.999901
v 67 1 4
v 67 1 3.99991
v 67 2 3.99991
v 65 2 4
v 65 3 3.999901
v 63 3 3.999892
v 65 2 4
v 65 2 3.999901
v 65 3 3.999901
v 63 3 4
v 63 4 3.999892
v 61 4 3.999883
v 63 3 4
v 63 3 3.999892
v 63 4 3.999892
v 59 4 3.999916
v 61 5 3.999883
v 59 5 3.999873
v 61 4 3.999883
v 28 4 3.999823
v 27.99993 5 18.99973
v 27.99999 5 3.999734
v 28 4 19
v 28 4 19
v 58.99993 5 18.99987
v 27.99993 5 18.99973
v 59 4 19
v 59 4 19
v 59 5 3.999873
v 58.99993 5 18.99987
v 59 4 3.999916
v 19.99999 1 3.999698
v 21.99999 2 3.999707
v 19.99999 2 3.999698
v 19.99999 1 3.999698
v 20 1 4
v 21.99999 2 3.999707
v 21.99999 2 3.999707
v 24 3 3.999716
v 21.99999 3 3.999707
v 21.99999 2 3.999707
v 22 2 4
v 24 3 3.999716
v 24 3 3.999716
v 26 4 3.999725
v 23.99999 4 3.999716
v 24 3 3.999716
v 24 3 4
v 26 4 3.999725
v 26 4 3.999725
v 27.99999 5 3.999734
v 25.99999 5 3.999725
v 28 4 3.999823
v 26.99999 -1 4.999729
v 26.99992 5 19.99973
v 27 -1 20
v 26.99999 5 4.999729
v 59.99999 5 4.999878
v 60 -1 20
v 59.99993 5 19.99988
v 59.99999 -1 4.999878
v 51 3 12
v 51 5 12
v 36 3 12
v 36 5 12
v 51 3 12
v 36 3 20
v 51 3 20
v 36 3 12
v 60 -1 -2
v 60 5 -17
v 60 -1 -17
v 60 5 -2
v 27 5 -2
v 27 -1 -17
v 27 5 -17
v 27 -1 -2
v 36 5 -9
v 51 5 -9
v 51 3 -9
v 36 3 -9
v 36 3 -9
v 51 3 -17
v 36 3 -17
v 51 3 -9
v 59 5 -16
v 59 4 -16
v 51 5 -16
v 36 5 -16
v 28 4 -16
v 28 5 -16
v 59 5 -1
v 61 5 -2
v 61 5 -1
v 60 5 -2
v 59 5 -16
v 60 5 -17
v 28 5 -16
v 27 5 -17
v 28 5 -1
v 27 5 -2
v 26 5 -1
v 26 5 -2
v 27.99999 5 3.999734
v 25.99999 5 4.999725
v 25.99999 5 3.999725
v 26.99999 5 4.999729
v 27.99993 5 18.99973
v 26.99992 5 19.99973
v 36 5 20
v 51 5 20
v 58.99993 5 18.99987
v 59.99993 5 19.99988
v 59 5 3.999873
v 59.99999 5 4.999878
v 61 5 3.999883
v 60.99999 5 4.999883
v 27 5 -17
v 27 -1 -17
v 36 3 -17
v 36 -1 -17
v 36 5 -17
v 51 5 -17
v 51 3 -17
v 60 -1 -17
v 60 5 -17
v 51 5 -17
v 51 -1 -17
v 59.99993 5 19.99988
v 60 -1 20
v 51 5 20
v 51 -1 20
v 36 3 20
v 36 5 20
v 51 3 20
v 51 5 20
v 26.99992 5 19.99973
v 36 -1 20
v 27 -1 20
v 36 5 20
v 36 -1 20
v 36 3 12
v 36 -1 12
v 36 3 20
v 36 5 12
v 36 5 -9
v 36 -1 -9
v 36 -1 12
v 36 -1 -17
v 36 3 -9
v 36 3 -17
v 36 -1 -9
v 51 5 -9
v 51 5 12
v 51 -1 -9
v 51 -1 12
v 51 -1 12
v 51 3 20
v 51 -1 20
v 51 3 12
v 51 3 -9
v 51 -1 -9
v 51 3 -17
v 51 -1 -17
v 61 4 -1
v 59 4 3.999916
v 59 4 -1
v 61 4 4
v 26 4 4
v 28 4 -1
v 28 4 3.999823
v 26 4 -1
v 35 4 13
v 52 4 13
v 28 4 19
v 59 4 19
v 28 4 -1
v 35 4 -10
v 28 4 -16
v 28 4 3.999823
v 52 4 -10
v 59 4 3.999916
v 59 4 -1
v 59 4 -16
v 71 -1 4
v 71 0 5
v 71 0 4
v 71 -1 5
v 69 1 3.999919
v 67 1 3.99991
v 69 0 4
v 71 0 4
v 69 0 4
v 71 -1 4
v 69 0 4
v 71 0 4
v 69 0 5
v 71 0 5
v 60 -1 5
v 66.99999 1 4.99991
v 68.99999 1 4.999919
v 71 0 5
v 71 -1 5
v 69 0 5
v 60 -1 5
v 59.99999 -1 4.999878
v 66.99999 1 4.99991
v 66.99999 1 4.99991
v 59.99999 -1 4.999878
v 64.99999 2 4.999901
v 66.99999 2 4.99991
v 62.99999 3 4.999892
v 64.99999 3 4.999901
v 60.99999 4 4.999883
v 62.99999 4 4.999892
v 59.99999 5 4.999878
v 60.99999 5 4.999883
v 71 -1 -2
v 71 0 -1
v 71 0 -2
v 71 -1 -1
v 71 0 -1
v 69 0 -1
v 69 0 -2
v 71 0 -2
v 61 4 -2
v 60 5 -2
v 60 -1 -2
v 61 5 -2
v 63 3 -2
v 63 4 -2
v 65 2 -2
v 65 3 -2
v 67 1 -2
v 67 2 -2
v 69 1 -2
v 69 0 -2
v 71 -1 -2
v 71 0 -2
v 69 0 -1
v 67 1 -1
v 69 1 -1
v 71 -1 -1
v 69 0 -1
v 71 0 -1
v 16 -1 5
v 16 0 4
v 16 0 5
v 16 -1 4
v 16 0 5
v 16 0 4
v 18 0 5
v 18 0 4
v 18 0 4
v 19.99999 1 3.999698
v 17.99999 1 3.999689
v 16 -1 4
v 18 0 4
v 16 0 4
v 25.99999 4 4.999725
v 26.99999 5 4.999729
v 26.99999 -1 4.999729
v 25.99999 5 4.999725
v 23.99999 3 4.999716
v 23.99999 4 4.999716
v 21.99999 2 4.999707
v 21.99999 3 4.999707
v 19.99999 1 4.999698
v 19.99999 2 4.999698
v 18 0 5
v 17.99999 1 4.999689
v 16 -1 5
v 16 0 5
v 27 -1 5
v 18 0 5
v 16 -1 -1
v 16 0 -2
v 16 0 -1
v 16 -1 -2
v 18 0 -1
v 16 0 -1
v 18 0 -2
v 16 0 -2
v 18 0 -2
v 20 1 -2
v 18 1 -2
v 27 -1 -2
v 22 2 -2
v 20 2 -2
v 24 3 -2
v 22 3 -2
v 26 4 -2
v 24 4 -2
v 27 5 -2
v 26 5 -2
v 16 0 -2
v 16 -1 -2
v 16 0 -1
v 18 0 -1
v 16 -1 -1

vn -0.4472136 0.8944272 0
vn -0.4472136 0.8944272 0
vn -0.4472136 0.8944272 0
vn -0.4472136 0.8944272 0
vn 0.4472136 0.8944272 0
vn 0.4472136 0.8944272 0
vn 0.4472136 0.8944272 0
vn 0.4472136 0.8944272 0
vn -1 0 0
vn -1 0 0
vn -1 0 0
vn -1 0 0
vn 0 1 0
vn 0 1 0
vn 0 1 0
vn 0 1 0
vn 0 0 1
vn 0 0 1
vn 0 0 1
vn 0 0 1
vn 1 0 0
vn 1 0 0
vn 1 0 0
vn 1 0 0
vn 0 0 -1
vn 0 0 -1
vn 0 0 -1
vn 0 0 -1
vn 0 1 0
vn 0 1 0
vn 0 0.9999999 0
vn 0 1 0
vn 0 1 0
vn 0 1 0
vn 0 1 0
vn 0 1 0
vn 0 1 0
vn 0 1 0
vn 0 1 0
vn 0 1 0
vn 0 1 0
vn 0 1 0
vn 1 0 0
vn 1 0 0
vn 1 0 0
vn 1 0 0
vn 1 0 0
vn 1 0 0
vn 1 0 0
vn 1 0 0
vn 0 1 0
vn 0 1 0
vn 0 1 0
vn 0 1 0
vn 1 0 0
vn 1 0 0
vn 1 0 0
vn 1 0 0
vn 0 1 0
vn 0 1 0
vn 0 1 0
vn 0 1 0
vn 1 0 0
vn 1 0 0
vn 1 0 0
vn 1 0 0
vn 0 1 0
vn 0 1 0
vn 0 1 0
vn 0 1 0
vn 1 0 0
vn 1 0 0
vn 1 0 0
vn 1 0 0
vn -1 0 0
vn -1 0 0
vn -1 0 0
vn -1 0 0
vn 0 1 0
vn 0 1 0
vn 0 1 0
vn 0 1 0
vn -1 0 0
vn -1 0 0
vn -1 0 0
vn -1 0 0
vn 0 1 0
vn 0 1 0
vn 0 1 0
vn 0 1 0
vn -1 0 0
vn -1 0 0
vn -1 0 0
vn -1 0 0
vn 0 1 0
vn 0 1 0
vn 0 1 0
vn 0 1 0
vn -1 0 0
vn -1 0 0
vn -1 0 0
vn -1 0 0
vn 0 1 0
vn 0 1 0
vn 0 1 0
vn 0 1 0
vn -1 0 0
vn -1 0 0
vn -1 0 0
vn -1 0 0
vn 0 0 1
vn 0 0 1
vn 0 0 1
vn 0 0 1
vn 0 0 1
vn 0 0 1
vn 0 0 1
vn 0 0 1
vn 0 0 1
vn 0 0 1
vn 0 0 1
vn 0 0 1
vn 0 0 1
vn 0 0 1
vn 0 0 1
vn 0 0 1
vn -1 0 0
vn -1 0 0
vn -1 0 0
vn -1 0 0
vn 1 0 0
vn 1 0 0
vn 1 0 0
vn 1 0 0
vn 0 0 1
vn 0 0 1
vn 0 0 1
vn 0 0 1
vn 0 0 1
vn 0 0 1
vn 0 0 1
vn 0 0 1
vn 0 0 1
vn 0 0 1
vn 0 0 1
vn 0 0 1
vn 0 0 1
vn 0 1 0
vn 0 1 0
vn 0 1 0
vn 0 1 0
vn -1 -7.629395E-06 0
vn -1 -7.629395E-06 0
vn -1 -7.629395E-06 0
vn -1 -7.629395E-06 0
vn -1 0 0
vn -1 0 0
vn -1 0 0
vn -1 0 0
vn 0 1 0
vn 0 1 0
vn 0 1 0
vn 0 1 0
vn -1 0 0
vn -1 0 0
vn -1 0 0
vn -1 0 0
vn 0 1 0
vn 0 1 0
vn 0 1 0
vn 0 1 0
vn -1 -9.536743E-07 -2.861023E-06
vn -1 -9.536743E-07 -2.861023E-06
vn -1 -1.907349E-06 -3.814697E-06
vn -1 0 -1.907349E-06
vn 0 1 0
vn 0 1 0
vn 0 1 0
vn 0 1 0
vn -1 -9.536747E-07 -2.861022E-06
vn -1 -9.536747E-07 -2.861022E-06
vn -1 -1.90735E-06 -3.814697E-06
vn -1 0 -1.907348E-06
vn 1 0 7.629395E-06
vn 1 0 7.629395E-06
vn 1 0 7.629395E-06
vn 1 0 7.629395E-06
vn 0 1 0
vn 0 1 0
vn 0 1 0
vn 0 1 0
vn 1 -9.094948E-13 7.629395E-06
vn 1 -9.094948E-13 7.629395E-06
vn 1 -1.81899E-12 7.629396E-06
vn 1 0 7.629395E-06
vn 0 1 0
vn 0 1 0
vn 0 1 0
vn 0 1 0
vn 1 0 7.629395E-06
vn 1 0 7.629395E-06
vn 1 0 7.629395E-06
vn 1 0 7.629395E-06
vn 0 1 0
vn 0 1 0
vn 0 1 0
vn 0 1 0
vn 1 9.094946E-13 7.629394E-06
vn 1 9.094946E-13 7.629394E-06
vn 1 1.818989E-12 7.629393E-06
vn 1 0 7.629395E-06
vn 0 1 0
vn 0 1 0
vn 0 1 0
vn 0 1 0
vn 1 3.815006E-06 3.814697E-06
vn 1 3.815006E-06 3.814697E-06
vn 1 6.184564E-10 7.629395E-06
vn 1 7.629395E-06 0
vn 4.410744E-06 -9.036064E-05 -1
vn 4.410744E-06 -9.036064E-05 -1
vn 4.410744E-06 -9.036064E-05 -1
vn -0.9999999 0 0
vn -0.9999999 0 0
vn -0.9999999 0 0
vn 4.529944E-06 -9.918213E-05 -1
vn 4.529944E-06 -9.918213E-05 -1
vn 4.529944E-06 -9.918213E-05 -1
vn -1 0 0
vn -1 0 0
vn -1 0 0
vn 4.649162E-06 -0.0001080036 -1
vn 4.649162E-06 -0.0001080036 -1
vn 4.649162E-06 -0.0001080036 -1
vn -0.9993796 -8.397204E-09 0.03522043
vn -0.9993796 -8.397204E-09 0.03522043
vn -0.9993796 -8.397204E-09 0.03522043
vn -5.96047E-06 -2.121926E-05 -1
vn -5.96047E-06 -2.121926E-05 -1
vn 4.649162E-06 -4.243849E-05 -1
vn -1.657012E-05 0 -1
vn 1 3.719367E-05 2.098071E-06
vn 1 3.719367E-05 2.098071E-06
vn 1 3.815081E-06 4.323324E-06
vn 1 7.057188E-05 -1.271551E-07
vn 2.276513E-06 -0.0001964567 -1
vn 2.276513E-06 -0.0001964567 -1
vn 4.553026E-06 -0.0002670285 -1
vn 0 -0.000125885 -1
vn -1 -3.814717E-05 -2.288812E-06
vn -1 -3.814717E-05 -2.288812E-06
vn -1 -7.247982E-05 -4.577636E-06
vn -0.9999999 -3.814697E-06 0
vn 4.410744E-06 0 -1
vn 4.410744E-06 0 -1
vn 4.410744E-06 0 -1
vn 0.4471851 -0.8943701 -0.01129434
vn 0.4471851 -0.8943701 -0.01129434
vn 0.4471851 -0.8943701 -0.01129434
vn 4.410736E-06 2.384186E-07 -1
vn 4.410736E-06 2.384186E-07 -1
vn 4.410736E-06 2.384186E-07 -1
vn 0.4471827 -0.894367 -0.01163402
vn 0.4471827 -0.894367 -0.01163402
vn 0.4471827 -0.894367 -0.01163402
vn 4.529948E-06 8.640191E-12 -1
vn 4.529948E-06 8.640191E-12 -1
vn 4.529948E-06 8.640191E-12 -1
vn 0.4472055 -0.894411 -0.006002759
vn 0.4472055 -0.894411 -0.006002759
vn 0.4472055 -0.894411 -0.006002759
vn 2.676247E-05 -4.446499E-05 -1
vn 2.676247E-05 -4.446499E-05 -1
vn 4.649162E-06 -2.384097E-07 -1
vn 4.887576E-05 -8.869152E-05 -1
vn -1 -6.357875E-06 -2.034487E-06
vn -1 -6.357875E-06 -2.034487E-06
vn -1 -1.271563E-05 5.086171E-07
vn -1 0 -4.577637E-06
vn 1 6.357847E-06 1.780185E-06
vn 1 6.357847E-06 1.780185E-06
vn 1 1.207996E-05 4.069011E-06
vn 1 6.357829E-07 -5.086222E-07
vn 0 0 -1
vn 0 0 -1
vn 0 0 -1
vn 0 0 -1
vn 0 -1 0
vn 0 -1 0
vn 0 -1 0
vn 0 -1 0
vn 1 0 0
vn 1 0 0
vn 1 0 0
vn 1 0 0
vn -1 0 0
vn -1 0 0
vn -1 0 0
vn -1 0 0
vn 0 0 1
vn 0 0 1
vn 0 0 1
vn 0 0 1
vn 0 -1 0
vn 0 -1 0
vn 0 -1 0
vn 0 -1 0
vn 0 0 1
vn 0 0 1
vn 0 0 1
vn 0 0 1
vn 0 0 1
vn 0 0 1
vn 0 1 0
vn 0 1 0
vn 0 1 0
vn 0 1 0
vn 0 0.9999999 0
vn 0 1 0
vn 0 1 0
vn 0 1 0
vn 0 1 0
vn 0 1 0
vn 0 1 0
vn 0 1 0
vn 0 0.9999999 0
vn 0 1 0
vn 0 1 0
vn 0 1 0
vn 0 1 0
vn 0 1 0
vn 0 1 0
vn 0 0.9999999 0
vn 0 1 0
vn 0 1 0
vn 0 1 0
vn 0 1 0
vn 0 1 0
vn 0 1 0
vn 0 0 -1
vn 0 0 -1
vn 0 0 -1
vn 0 0 -1
vn 0 0 -1
vn 0 0 -1
vn 0 0 -1
vn 0 0 -1
vn 0 0 -1
vn 0 0 -1
vn 0 0 -1
vn 1.356348E-05 2.034522E-05 1
vn 6.781711E-06 1.017257E-05 1
vn 6.781711E-06 1.017257E-05 1
vn 0 0 1
vn 0 0 1
vn 0 0 1
vn 0 0 1
vn 6.781711E-06 1.017257E-05 1
vn -1.50468E-05 2.25702E-05 1
vn -1.50468E-05 2.25702E-05 1
vn 0 4.514058E-05 1
vn 0 0 1
vn 1 0 0
vn 1 0 0
vn 1 0 0
vn 1 0 0
vn 1 0 0
vn 1 0 0
vn 1 0 0
vn 1 0 0
vn 1 0 0
vn 1 0 0
vn 1 0 0
vn 1 0 0
vn -1 0 0
vn -1 0 0
vn -1 0 0
vn -1 0 0
vn -1 0 0
vn -1 0 0
vn -1 0 0
vn -1 0 0
vn -1 0 0
vn -1 0 0
vn -1 0 0
vn -1 0 0
vn 0 0.9999999 0
vn 0 0.9999999 0
vn 0 1 0
vn 0 1 0
vn 0 1 0
vn 0 1 0
vn 0 1 0
vn 0 1 0
vn 0 1 0
vn 0 1 0
vn 0 1 0
vn 0 1 0
vn 0 1 0
vn 0 1 0
vn 0 1 0
vn 0 1 0
vn 0 1 0
vn 0 1 0
vn 0 1 0
vn 0 1 0
vn 1 0 0
vn 1 0 0
vn 1 0 0
vn 1 0 0
vn 4.529953E-06 -8.106232E-05 -1
vn 4.529953E-06 -8.106232E-05 -1
vn 4.529953E-06 -8.106232E-05 -1
vn 0 0 -1
vn 0 0 -1
vn 0 0 -1
vn 0 1 0
vn 0 1 0
vn 0 1 0
vn 0 1 0
vn -3.814696E-06 3.743171E-05 1
vn -4.529953E-06 6.091593E-05 1
vn -7.62939E-06 7.486339E-05 1
vn 0 0 1
vn 0 0 1
vn -7.369296E-06 6.632366E-05 1
vn -0.2746804 0.961381 0.01723485
vn -0.2746804 0.961381 0.01723485
vn -0.2746804 0.961381 0.01723485
vn -4.529953E-06 6.091593E-05 1
vn -4.474933E-06 3.667623E-08 0.9999999
vn -4.511611E-06 3.66764E-08 1
vn -4.529953E-06 0 1
vn -4.511611E-06 3.667508E-08 1
vn -4.529944E-06 0 1
vn -4.434587E-06 2.383932E-08 1
vn -4.529953E-06 0 1
vn -4.291537E-06 -2.338702E-12 1
vn -4.291534E-06 0 1
vn 1 0 0
vn 1 0 0
vn 1 0 0
vn 1 0 0
vn 0 1 0
vn 0 1 0
vn 0 1 0
vn 0 1 0
vn 0 0 -1
vn 0 0 -1
vn 0 0 -1
vn 0 0 -1
vn 0 0 -1
vn 0 0 -1
vn 0 0 -1
vn 0 0 -1
vn 0 0 -1
vn 0 0 -1
vn 0 0 -1
vn 0 0 -1
vn 0 0 -1
vn 0 0 -1
vn 0 0 1
vn 0 0 1
vn 0 0 1
vn 0 0 1
vn 0 0 1
vn 0 0 1
vn -1 0 0
vn -1 0 0
vn -1 0 0
vn -1 0 0
vn 0 1 0
vn 0 1 0
vn 0 1 0
vn 0 1 0
vn 4.529953E-06 -0.0003111362 -1
vn 4.529953E-06 -0.0003111362 -1
vn 4.529953E-06 -0.0003111362 -1
vn 0 0 -1
vn 0 0 -1
vn 0 0 -1
vn -4.434586E-06 -2.384186E-08 1
vn -4.291534E-06 0 1
vn 7.97272E-06 4.355432E-05 1
vn -4.291534E-06 0 1
vn -4.511613E-06 -3.667978E-08 1
vn -4.529953E-06 0 1
vn -4.511613E-06 -3.667978E-08 1
vn -4.529953E-06 0 1
vn 1.945864E-05 0.0001077102 1
vn -4.529953E-06 0 1
vn 4.342891E-05 0.0002154573 0.9999999
vn -4.291534E-06 0.0003108978 1
vn 0 0 1
vn 0 0 1
vn 0 0 1
vn 4.342891E-05 0.0002154573 0.9999999
vn -1 0 0
vn -1 0 0
vn -1 0 0
vn -1 0 0
vn 0 1 0
vn 0 1 0
vn 0 1 0
vn 0 1 0
vn 0 0 -1
vn 0 0 -1
vn 0 0 -1
vn 0 0 -1
vn 0 0 -1
vn 0 0 -1
vn 0 0 -1
vn 0 0 -1
vn 0 0 -1
vn 0 0 -1
vn 0 0 -1
vn 0 0 -1
vn 0 0 -1
vn 0 0 -1
vn 0 0 1
vn 0 0 1
vn 0 0 1

vt 0 0
vt 11 5
vt 11 0
vt 0 5
vt 11 5
vt 3.814697E-06 0
vt 3.814697E-06 5
vt 11 0
vt 0 1
vt 23 0
vt 0 0
vt 23 1
vt 0 1
vt 1 23
vt 1 0
vt 0 22
vt 17 1
vt 0 0
vt 0 1
vt 17 0
vt 23 1
vt 0 0
vt 0 1
vt 23 0
vt 17 1
vt 0 0
vt 0 1
vt 17 0
vt 1 1
vt 17 0
vt 0 0
vt 16 1
vt 1 22
vt 0 23
vt 16 0
vt 0 1
vt 17 1
vt 1 0
vt 2 0
vt 0 1
vt 2 1
vt 0 0
vt 1 0
vt 0 1
vt 1 1
vt 0 0
vt 0 1
vt 1 0
vt 0 0
vt 1 1
vt 2 1
vt 0 0
vt 0 1
vt 2 0
vt 0 1
vt 1 0
vt 0 0
vt 1 1
vt 2 1
vt 0 0
vt 0 1
vt 2 0
vt 0 1
vt 1 0
vt 0 0
vt 1 1
vt 2 1
vt 0 0
vt 0 1
vt 2 0
vt 0 1
vt 1 0
vt 0 0
vt 1 1
vt 1 0
vt 0 1
vt 1 1
vt 0 0
vt 2 1
vt 0 0
vt 0 1
vt 2 0
vt 1 0
vt 0 1
vt 1 1
vt 0 0
vt 2 1
vt 0 0
vt 0 1
vt 2 0
vt 1 0
vt 0 1
vt 1 1
vt 0 0
vt 2 1
vt 0 0
vt 0 1
vt 2 0
vt 1 0
vt 0 1
vt 1 1
vt 0 0
vt 2 1
vt 0 0
vt 0 1
vt 2 0
vt 1 0
vt 0 1
vt 1 1
vt 0 0
vt 0 0
vt 0 1
vt 2 1
vt 0 0
vt 0 1
vt 2 1
vt 0 0
vt 0 1
vt 2 1
vt 0 0
vt 0 1
vt 2 1
vt 2 0
vt 0 1
vt 2 1
vt 0 0
vt 15 0
vt 0 1
vt 15 1
vt 0 0
vt 15 0
vt 0 1
vt 15 1
vt 0 0
vt 2 0
vt 0 1
vt 2 1
vt 2 0
vt 0 1
vt 2 1
vt 2 0
vt 0 1
vt 2 1
vt 2 0
vt 0 1
vt 2 1
vt 0 0
vt 0 1
vt 2 -2.384186E-07
vt 0 8.821487E-06
vt 2 1
vt 1 0
vt -2.384186E-07 1
vt 1 1
vt 0.0003108978 0
vt 2.384186E-07 1
vt 1 0
vt 2.384186E-07 0
vt 1 1
vt 0 8.583069E-06
vt 2 0.9995117
vt 2 -2.384186E-07
vt 0 1
vt 2.384186E-07 1
vt 1 0
vt 0 0
vt 1 1
vt 0 8.583069E-06
vt 2 0.9995117
vt 2 -2.384186E-07
vt 3.814697E-06 1
vt 0 1
vt 1 0
vt 0 0
vt 1 1
vt 0 8.821487E-06
vt 2 0.9995117
vt 2 -2.384186E-07
vt 3.814697E-06 1
vt -2.384186E-07 1
vt 1 0
vt 0 0
vt 1 1
vt 1 0
vt 0 1
vt 1 1
vt 0 0
vt 0 9.059906E-06
vt 2 0.9995117
vt 2 -2.384186E-07
vt 7.629395E-06 1
vt 1 0
vt 0 1
vt 0.9995117 1
vt 0 0
vt 0 9.298325E-06
vt 2 1
vt 2 2.384186E-07
vt 7.629395E-06 1
vt 1 0
vt 0 1
vt 1 1
vt 0 0
vt 0 8.583069E-06
vt 2 0.9995117
vt 2 -2.384186E-07
vt 7.629395E-06 1
vt 1 0
vt 0 1
vt 1 1
vt 0 0
vt 0 9.298325E-06
vt 2 1
vt 2 2.384186E-07
vt 7.629395E-06 1
vt 1 0
vt 8.106232E-05 1
vt 1 1
vt 0 0
vt 0 0
vt 0 1
vt 2 1
vt 0 0
vt 0 5.960464E-08
vt 0 1
vt 0 0
vt 0 1
vt 2 1
vt 0 0
vt 0 0
vt 0 1
vt -3.814697E-06 0
vt 0 1
vt 2 1
vt -3.814697E-06 0
vt 0 0
vt 0 1
vt 1.999023 0
vt 0 1
vt 2 1
vt 0 0
vt 15 0
vt 0.0002670288 1
vt 15 1
vt 0 0
vt 31 0
vt 7.629395E-05 1
vt 31 1
vt 3.814697E-06 0
vt 15 0
vt 0 1
vt 15 1
vt 4.243851E-05 0
vt 2 0
vt 0 1
vt 2 1
vt 2 0
vt 1.999023 0
vt 0 1
vt 2 0
vt 0 1
vt 2 1
vt 2 0
vt 1.999023 0
vt 0 1
vt 1.999023 0
vt -1.907349E-06 1
vt 2 1
vt 1.999023 0
vt 1.999023 0
vt -1.907349E-06 1
vt 2 0
vt 3.814697E-06 1
vt 2 1
vt 0 0
vt 4.768372E-07 0
vt 15 6
vt 15 0
vt 4.768372E-07 6
vt 15 6
vt 0 0
vt 0.0001220703 6
vt 15 0
vt 0 0
vt 0 2
vt 15 0
vt 15 2
vt 15 0
vt 0 8
vt 15 8
vt 0 0
vt 0 0
vt 15 6
vt 15 0
vt 0 6
vt 15 6
vt 0 0
vt 0 6
vt 15 0
vt 0 2
vt 15 2
vt 15 0
vt 0 0
vt 0 8
vt 15 0
vt 0 0
vt 15 8
vt 31 1
vt 31 0
vt 23 1
vt 8 1
vt 0 0
vt 0 1
vt 2 16
vt 0 15
vt 0 16
vt 1 15
vt 2 1
vt 1 0
vt 33 1
vt 34 0
vt 33 16
vt 34 15
vt 35 16
vt 35 15
vt 33 20.98438
vt 35 21.98438
vt 35 20.98438
vt 34 21.98438
vt 33 35.96875
vt 34 36.96875
vt 25 37
vt 10 37
vt 2 35.96875
vt 1 36.96875
vt 2 20.98438
vt 1 21.98438
vt 3.814697E-06 20.98438
vt 1.144409E-05 21.98438
vt 33 6
vt 33 0
vt 24 4
vt 24 0
vt 24 6
vt 9 6
vt 9 4
vt 0 0
vt 0 6
vt 9 6
vt 9 0
vt 33 6
vt 33 0
vt 24 6
vt 24 0
vt 9 3.998047
vt 9 6
vt 24 3.998047
vt 24 6
vt 0 6
vt 9 0
vt 7.629395E-05 0
vt 9 6
vt 0 0
vt 8 4
vt 8 0
vt 0 4
vt 8 6
vt 29 6
vt 29 0
vt 8 0
vt 37 0
vt 29 4
vt 37 4
vt 29 0
vt 8 6
vt 29 6
vt 8 0
vt 29 0
vt 29 0
vt 37 4
vt 37 0
vt 29 4
vt 8 4
vt 8 0
vt 0 4
vt 0 0
vt 0 0
vt 2 4.996094
vt 2 0
vt 0 5
vt 2 5
vt 0 0
vt 1.907349E-06 4.996094
vt 2 0
vt 24 29
vt 7 29
vt 31 35
vt 0 35
vt 31 15
vt 24 6
vt 31 0
vt 31 19.98438
vt 7 6
vt 0 19.98438
vt 0 15
vt 0 0
vt 1 0
vt 0 1
vt 1 1
vt 0 0
vt 0 1
vt 2 1
vt 0 0
vt 0 1
vt 2 1
vt 0 0
vt 2 0
vt 0 0
vt 2 1
vt 0 1
vt 1.525879E-05 0
vt 7 2
vt 9 2
vt 11 1
vt 11 0
vt 9 1
vt 1.525879E-05 0
vt 7.629395E-06 0
vt 7 2
vt 7 2
vt 7.629395E-06 0
vt 5 3
vt 7 3
vt 3 4
vt 5 4
vt 1 5
vt 3 5
vt 3.814697E-06 6
vt 1 6
vt 1 0
vt 0 1
vt 1 1
vt 0 0
vt 0 1
vt 2 1
vt 2 0
vt 0 0
vt 10 5
vt 11 6
vt 11 0
vt 10 6
vt 8 4
vt 8 5
vt 6 3
vt 6 4
vt 4 2
vt 4 3
vt 2 2
vt 2 1
vt 0 0
vt 0 1
vt 2 0
vt 0 1
vt 2 1
vt 2 0
vt 0 1
vt 2 1
vt 1 0
vt 0 1
vt 1 1
vt 0 0
vt 2 1
vt 2 0
vt 0 1
vt 0 0
vt 1.999023 0
vt 0 1
vt 2 1
vt 2 0
vt 0 1
vt 2 1
vt 9.992188 5
vt 10.99219 6
vt 10.99219 0
vt 9.992188 6
vt 7.996094 4
vt 7.996094 5
vt 5.996094 3
vt 5.996094 4
vt 3.998047 2
vt 3.998047 3
vt 2 1
vt 1.999023 2
vt 0 0
vt 0 1
vt 11 0
vt 2 1
vt 1 0
vt 0 1
vt 1 1
vt 0 0
vt 0 1
vt 2 1
vt 0 0
vt 2 0
vt 9 1
vt 7 2
vt 9 2
vt 0 0
vt 5 3
vt 7 3
vt 3 4
vt 5 4
vt 1 5
vt 3 5
vt 0 6
vt 1 6
vt 11 1
vt 11 0
vt 0 1
vt 2 1
vt 0 0

g Building_521_4
usemtl Building_521_4
usemap Building_521_4
f 1/1/1 3/3/3 2/2/2
f 1/1/1 2/2/2 4/4/4
f 5/5/5 7/7/7 6/6/6
f 5/5/5 6/6/6 8/8/8
f 9/9/9 11/11/11 10/10/10
f 9/9/9 10/10/10 12/12/12
f 13/13/13 15/15/15 14/14/14
f 13/13/13 14/14/14 16/16/16
f 17/17/17 19/19/19 18/18/18
f 17/17/17 18/18/18 20/20/20
f 21/21/21 23/23/23 22/22/22
f 21/21/21 22/22/22 24/24/24
f 25/25/25 27/27/27 26/26/26
f 25/25/25 26/26/26 28/28/28
f 29/29/29 31/31/31 30/30/30
f 29/29/29 30/30/30 32/32/32
f 33/33/33 34/34/34 31/31/31
f 33/33/33 31/31/31 29/29/29
f 35/35/35 37/37/37 36/36/36
f 35/35/35 36/36/36 38/38/38
f 39/39/39 41/41/41 40/40/40
f 39/39/39 40/40/40 42/42/42
f 43/43/43 45/45/45 44/44/44
f 43/43/43 44/44/44 46/46/46
f 47/47/47 49/49/49 48/48/48
f 47/47/47 48/48/48 50/50/50
f 51/51/51 53/53/53 52/52/52
f 51/51/51 52/52/52 54/54/54
f 55/55/55 57/57/57 56/56/56
f 55/55/55 56/56/56 58/58/58
f 59/59/59 61/61/61 60/60/60
f 59/59/59 60/60/60 62/62/62
f 63/63/63 65/65/65 64/64/64
f 63/63/63 64/64/64 66/66/66
f 67/67/67 69/69/69 68/68/68
f 67/67/67 68/68/68 70/70/70
f 71/71/71 73/73/73 72/72/72
f 71/71/71 72/72/72 74/74/74
f 75/75/75 77/77/77 76/76/76
f 75/75/75 76/76/76 78/78/78
f 79/79/79 81/81/81 80/80/80
f 79/79/79 80/80/80 82/82/82
f 83/83/83 85/85/85 84/84/84
f 83/83/83 84/84/84 86/86/86
f 87/87/87 89/89/89 88/88/88
f 87/87/87 88/88/88 90/90/90
f 91/91/91 93/93/93 92/92/92
f 91/91/91 92/92/92 94/94/94
f 95/95/95 97/97/97 96/96/96
f 95/95/95 96/96/96 98/98/98
f 99/99/99 101/101/101 100/100/100
f 99/99/99 100/100/100 102/102/102
f 103/103/103 105/105/105 104/104/104
f 103/103/103 104/104/104 106/106/106
f 107/107/107 109/109/109 108/108/108
f 107/107/107 108/108/108 110/110/110
f 111/111/111 113/113/113 112/112/112
f 114/114/114 116/116/116 115/115/115
f 117/117/117 119/119/119 118/118/118
f 120/120/120 122/122/122 121/121/121
f 123/123/123 125/125/125 124/124/124
f 123/123/123 124/124/124 126/126/126
f 127/127/127 129/129/129 128/128/128
f 127/127/127 128/128/128 130/130/130
f 131/131/131 133/133/133 132/132/132
f 131/131/131 132/132/132 134/134/134
f 135/135/135 137/137/137 136/136/136
f 138/138/138 140/140/140 139/139/139
f 141/141/141 143/143/143 142/142/142
f 144/144/144 146/146/146 145/145/145
f 144/144/144 145/145/145 147/147/147
f 148/148/148 150/150/150 149/149/149
f 148/148/148 149/149/149 151/151/151
f 152/152/152 154/154/154 153/153/153
f 152/152/152 153/153/153 155/155/155
f 156/156/156 158/158/158 157/157/157
f 156/156/156 157/157/157 159/159/159
f 160/160/160 162/162/162 161/161/161
f 160/160/160 161/161/161 163/163/163
f 164/164/164 166/166/166 165/165/165
f 164/164/164 165/165/165 167/167/167
f 168/168/168 170/170/170 169/169/169
f 168/168/168 169/169/169 171/171/171
f 172/172/172 174/174/174 173/173/173
f 172/172/172 173/173/173 175/175/175
f 176/176/176 178/178/178 177/177/177
f 176/176/176 177/177/177 179/179/179
f 180/180/180 182/182/182 181/181/181
f 180/180/180 181/181/181 183/183/183
f 184/184/184 186/186/186 185/185/185
f 184/184/184 185/185/185 187/187/187
f 188/188/188 190/190/190 189/189/189
f 188/188/188 189/189/189 191/191/191
f 192/192/192 194/194/194 193/193/193
f 192/192/192 193/193/193 195/195/195
f 196/196/196 198/198/198 197/197/197
f 196/196/196 197/197/197 199/199/199
f 200/200/200 202/202/202 201/201/201
f 200/200/200 201/201/201 203/203/203
f 204/204/204 206/206/206 205/205/205
f 204/204/204 205/205/205 207/207/207
f 208/208/208 210/210/210 209/209/209
f 208/208/208 209/209/209 211/211/211
f 212/212/212 214/214/214 213/213/213
f 212/212/212 213/213/213 215/215/215
f 216/216/216 218/218/218 217/217/217
f 216/216/216 217/217/217 219/219/219
f 220/220/220 222/222/222 221/221/221
f 223/223/223 225/225/225 224/224/224
f 226/226/226 228/228/228 227/227/227
f 229/229/229 231/231/231 230/230/230
f 232/232/232 234/234/234 233/233/233
f 235/235/235 237/237/237 236/236/236
f 238/238/238 240/240/240 239/239/239
f 238/238/238 239/239/239 241/241/241
f 242/242/242 244/244/244 243/243/243
f 242/242/242 243/243/243 245/245/245
f 246/246/246 248/248/248 247/247/247
f 246/246/246 247/247/247 249/249/249
f 250/250/250 252/252/252 251/251/251
f 250/250/250 251/251/251 253/253/253
f 254/254/254 256/256/256 255/255/255
f 257/257/257 259/259/259 258/258/258
f 260/260/260 262/262/262 261/261/261
f 263/263/263 265/265/265 264/264/264
f 266/266/266 268/268/268 267/267/267
f 269/269/269 271/271/271 270/270/270
f 272/272/272 274/274/274 273/273/273
f 272/272/272 273/273/273 275/275/275
f 276/276/276 278/278/278 277/277/277
f 276/276/276 277/277/277 279/279/279
f 280/280/280 282/282/282 281/281/281
f 280/280/280 281/281/281 283/283/283
f 284/284/284 286/286/286 285/285/285
f 285/285/285 286/286/286 287/287/287
f 288/288/288 290/290/290 289/289/289
f 288/288/288 289/289/289 291/291/291
f 292/292/292 294/294/294 293/293/293
f 292/292/292 293/293/293 295/295/295
f 296/296/296 298/298/298 297/297/297
f 296/296/296 297/297/297 299/299/299
f 300/300/300 302/302/302 301/301/301
f 303/303/303 302/302/302 300/300/300
f 304/304/304 306/306/306 305/305/305
f 304/304/304 305/305/305 307/307/307
f 308/308/308 310/310/310 309/309/309
f 310/310/310 311/311/311 309/309/309
f 309/309/309 311/311/311 312/312/312
f 312/312/312 311/311/311 313/313/313
f 314/314/314 316/316/316 315/315/315
f 314/314/314 315/315/315 317/317/317
f 318/318/318 314/314/314 317/317/317
f 318/318/318 317/317/317 319/319/319
f 319/319/319 321/321/321 320/320/320
f 319/319/319 320/320/320 318/318/318
f 322/322/322 320/320/320 321/321/321
f 322/322/322 321/321/321 323/323/323
f 324/324/324 322/322/322 323/323/323
f 324/324/324 323/323/323 325/325/325
f 326/326/326 328/328/328 327/327/327
f 326/326/326 327/327/327 329/329/329
f 330/330/330 326/326/326 329/329/329
f 330/330/330 329/329/329 331/331/331
f 331/331/331 332/332/332 330/330/330
f 332/332/332 333/333/333 330/330/330
f 330/330/330 333/333/333 334/334/334
f 334/334/334 333/333/333 335/335/335
f 336/336/336 334/334/334 335/335/335
f 336/336/336 335/335/335 337/337/337
f 338/338/338 336/336/336 337/337/337
f 338/338/338 337/337/337 339/339/339
f 340/340/340 342/342/342 341/341/341
f 341/341/341 342/342/342 343/343/343
f 344/344/344 342/342/342 340/340/340
f 342/342/342 344/344/344 345/345/345
f 342/342/342 345/345/345 346/346/346
f 347/347/347 349/349/349 348/348/348
f 350/350/350 349/349/349 347/347/347
f 351/351/351 353/353/353 352/352/352
f 352/352/352 353/353/353 354/354/354
f 355/355/355 357/357/357 356/356/356
f 357/357/357 358/358/358 356/356/356
f 359/359/359 361/361/361 360/360/360
f 360/360/360 362/362/362 359/359/359
f 363/363/363 365/365/365 364/364/364
f 363/363/363 364/364/364 366/366/366
f 367/367/367 369/369/369 368/368/368
f 370/370/370 369/369/369 367/367/367
f 371/371/371 373/373/373 372/372/372
f 371/371/371 372/372/372 374/374/374
f 375/375/375 377/377/377 376/376/376
f 376/376/376 377/377/377 378/378/378
f 379/379/379 381/381/381 380/380/380
f 379/379/379 380/380/380 382/382/382
f 383/383/383 385/385/385 384/384/384
f 384/384/384 385/385/385 386/386/386
f 387/387/387 389/389/389 388/388/388
f 387/387/387 388/388/388 390/390/390
f 391/391/391 393/393/393 392/392/392
f 391/391/391 392/392/392 394/394/394
f 395/395/395 397/397/397 396/396/396
f 396/396/396 397/397/397 398/398/398
f 395/395/395 400/400/400 399/399/399
f 400/400/400 401/401/401 399/399/399
f 399/399/399 402/402/402 395/395/395
f 402/402/402 397/397/397 395/395/395
f 403/403/403 396/396/396 404/404/404
f 396/396/396 398/398/398 404/404/404
f 404/404/404 405/405/405 403/403/403
f 403/403/403 405/405/405 406/406/406
f 403/403/403 401/401/401 400/400/400
f 406/406/406 401/401/401 403/403/403
f 407/407/407 409/409/409 408/408/408
f 407/407/407 408/408/408 410/410/410
f 411/411/411 413/413/413 412/412/412
f 414/414/414 416/416/416 415/415/415
f 417/417/417 419/419/419 418/418/418
f 418/418/418 419/419/419 420/420/420
f 421/421/421 423/423/423 422/422/422
f 424/424/424 421/421/421 425/425/425
f 424/424/424 426/426/426 421/421/421
f 421/421/421 426/426/426 423/423/423
f 427/427/427 429/429/429 428/428/428
f 430/430/430 432/432/432 431/431/431
f 433/433/433 432/432/432 430/430/430
f 432/432/432 434/434/434 431/431/431
f 434/434/434 432/432/432 435/435/435
f 434/434/434 436/436/436 431/431/431
f 437/437/437 436/436/436 434/434/434
f 438/438/438 436/436/436 439/439/439
f 431/431/431 436/436/436 438/438/438
f 440/440/440 442/442/442 441/441/441
f 440/440/440 441/441/441 443/443/443
f 444/444/444 446/446/446 445/445/445
f 447/447/447 446/446/446 444/444/444
f 448/448/448 450/450/450 449/449/449
f 448/448/448 449/449/449 451/451/451
f 448/448/448 453/453/453 452/452/452
f 448/448/448 452/452/452 450/450/450
f 454/454/454 452/452/452 455/455/455
f 452/452/452 454/454/454 450/450/450
f 454/454/454 457/457/457 456/456/456
f 454/454/454 456/456/456 450/450/450
f 458/458/458 450/450/450 456/456/456
f 459/459/459 450/450/450 458/458/458
f 460/460/460 450/450/450 461/461/461
f 450/450/450 459/459/459 461/461/461
f 462/462/462 464/464/464 463/463/463
f 465/465/465 467/467/467 466/466/466
f 468/468/468 470/470/470 469/469/469
f 468/468/468 469/469/469 471/471/471
f 472/472/472 474/474/474 473/473/473
f 473/473/473 474/474/474 475/475/475
f 476/476/476 478/478/478 477/477/477
f 479/479/479 481/481/481 480/480/480
f 482/482/482 484/484/484 483/483/483
f 482/482/482 483/483/483 485/485/485
f 482/482/482 487/487/487 486/486/486
f 482/482/482 486/486/486 484/484/484
f 488/488/488 486/486/486 489/489/489
f 486/486/486 488/488/488 484/484/484
f 488/488/488 491/491/491 490/490/490
f 488/488/488 490/490/490 484/484/484
f 490/490/490 492/492/492 484/484/484
f 493/493/493 492/492/492 490/490/490
f 494/494/494 496/496/496 495/495/495
f 495/495/495 496/496/496 497/497/497
f 498/498/498 500/500/500 499/499/499
f 498/498/498 499/499/499 501/501/501
f 502/502/502 504/504/504 503/503/503
f 503/503/503 504/504/504 505/505/505
f 506/506/506 508/508/508 507/507/507
f 506/506/506 507/507/507 509/509/509
f 507/507/507 510/510/510 509/509/509
f 511/511/511 510/510/510 507/507/507
f 510/510/510 512/512/512 509/509/509
f 512/512/512 510/510/510 513/513/513
f 512/512/512 514/514/514 509/509/509
f 515/515/515 514/514/514 512/512/512
f 516/516/516 514/514/514 517/517/517
f 509/509/509 514/514/514 516/516/516
f 518/518/518 509/509/509 519/519/519
f 518/518/518 506/506/506 509/509/509
f 520/520/520 522/522/522 521/521/521
