#Building_668_9.obj

v -2 -2.449213E-16 1.748456E-07
v 2 1.224607E-16 0.9999998
v -2 -3.673819E-16 0.9999999
v 1 1.224606E-16 -8.742278E-08
v 0.9999995 8.572244E-16 -6
v 2 1.224607E-16 0.9999998
v 1 1.224606E-16 -8.742278E-08
v 2 9.796851E-16 -6
v -1 2 8.742278E-08
v -2 2 -5
v -1 2 -5
v -2 2 1.748456E-07
v -3.496911E-07 3 -4
v -1 3 -5
v -4.371139E-07 3 -5
v -1 3 -4
v -2.622683E-07 4 -3
v -1 4 -4
v -3.496911E-07 4 -4
v -1 4 -3
v -8.742278E-08 5 -1
v -1 5 -3
v -2.622683E-07 5 -3
v -1 5 -0.9999999
v -7.347638E-16 6 7.347639E-16
v -1 6 -0.9999999
v -8.742278E-08 6 -1
v -1 6 8.742278E-08
v 1.748456E-07 7 2
v -1 7 8.742278E-08
v -8.572244E-16 7 8.572245E-16
v -0.9999998 7 2
v 0.9999995 1 -6
v -1.224606E-16 1 1.224606E-16
v -4.371139E-07 1 -5
v 1 1 -8.742278E-08
v -2 1 -6
v -2 1 -5

vn 0 1 0
vn 0 1 0
vn 0 1 0
vn 0 1 0
vn 0 1 0
vn 0 1 0
vn 0 1 0
vn 0 1 0
vn 0 1 0
vn 0 1 0
vn 0 1 0
vn 0 1 0
vn 0 1 0
vn 0 1 0
vn 0 1 0
vn 0 1 0
vn 0 1 0
vn 0 1 0
vn 0 1 0
vn 0 1 0
vn 0 1 0
vn 0 1 0
vn 0 1 0
vn 0 1 0
vn 0 1 0
vn 0 1 0
vn 0 1 0
vn 0 1 0
vn 0 1 0
vn 0 1 0
vn 0 1 0
vn 0 1 0
vn 0 1 0
vn 0 1 0
vn 0 1 0
vn 0 1 0
vn 0 1 0
vn 0 1 0

vt 4 0
vt 0 1
vt 4 1
vt 1 0
vt 1 0
vt 0 7
vt 1 6
vt 0 0
vt 0 5
vt 1 0
vt 0 0
vt 1 5
vt 0 1
vt 1 0
vt 0 0
vt 1 1
vt 0 1
vt 1 0
vt 0 0
vt 1 1
vt 0 2
vt 1 0
vt 0 0
vt 1 2
vt 0 1
vt 1 0
vt 0 0
vt 1 1
vt 0 2
vt 1 0
vt 0 0
vt 1 2
vt 0 0
vt 1 6
vt 1 1
vt 0 6
vt 3 0
vt 3.000001 1

g Building_668_9
usemtl Building_668_9
usemap Building_668_9
f 1/1/1 3/3/3 2/2/2
f 1/1/1 2/2/2 4/4/4
f 5/5/5 7/7/7 6/6/6
f 5/5/5 6/6/6 8/8/8
f 9/9/9 11/11/11 10/10/10
f 9/9/9 10/10/10 12/12/12
f 13/13/13 15/15/15 14/14/14
f 13/13/13 14/14/14 16/16/16
f 17/17/17 19/19/19 18/18/18
f 17/17/17 18/18/18 20/20/20
f 21/21/21 23/23/23 22/22/22
f 21/21/21 22/22/22 24/24/24
f 25/25/25 27/27/27 26/26/26
f 25/25/25 26/26/26 28/28/28
f 29/29/29 31/31/31 30/30/30
f 29/29/29 30/30/30 32/32/32
f 33/33/33 35/35/35 34/34/34
f 33/33/33 34/34/34 36/36/36
f 37/37/37 38/38/38 35/35/35
f 37/37/37 35/35/35 33/33/33
