#Building_683_7.obj

v -1 2 -2
v 0 2 -1
v -1 2 -1
v 0 2 -2
v -1 1 -1
v 1 1 0
v -1 1 0
v 1 1 -1
v -1 1 -4
v 0 1 -4
v 0 1 -3
v 0 1 -2
v -1 1 -2
v 0 3 -4
v -1 3 -3
v -1 3 -4
v 0 3 -3
v 1 3 -2
v 0 3 -3
v 1 3 -3
v 0 3 -2
v 1 4 -1
v 0 4 -2
v 1 4 -2
v 0 4 -1
v 1 5 1
v 0 5 -1
v 1 5 -1
v 0 5 1

vn 0 1 0
vn 0 1 0
vn 0 1 0
vn 0 1 0
vn 0 1 0
vn 0 1 0
vn 0 1 0
vn 0 1 0
vn 0 1 0
vn 0 1 0
vn 0 1 0
vn 0 1 0
vn 0 1 0
vn 0 1 0
vn 0 1 0
vn 0 1 0
vn 0 1 0
vn 0 1 0
vn 0 1 0
vn 0 1 0
vn 0 1 0
vn 0 1 0
vn 0 1 0
vn 0 1 0
vn 0 1 0
vn 0 1 0
vn 0 1 0
vn 0 1 0
vn 0 1 0

vt 1 0
vt 0 1
vt 1 1
vt 0 0
vt 2 0
vt 0 1
vt 2 1
vt 0 0
vt 1 0
vt 0 0
vt 0 1
vt 0 2
vt 1 2
vt 0 0
vt 1 1
vt 1 0
vt 0 1
vt 0 1
vt 1 0
vt 0 0
vt 1 1
vt 0 1
vt 1 0
vt 0 0
vt 1 1
vt 0 2
vt 1 0
vt 0 0
vt 1 2

g Building_683_7
usemtl Building_683_7
usemap Building_683_7
f 1/1/1 3/3/3 2/2/2
f 1/1/1 2/2/2 4/4/4
f 5/5/5 7/7/7 6/6/6
f 5/5/5 6/6/6 8/8/8
f 9/9/9 11/11/11 10/10/10
f 12/12/12 11/11/11 13/13/13
f 13/13/13 11/11/11 9/9/9
f 14/14/14 16/16/16 15/15/15
f 14/14/14 15/15/15 17/17/17
f 18/18/18 20/20/20 19/19/19
f 18/18/18 19/19/19 21/21/21
f 22/22/22 24/24/24 23/23/23
f 22/22/22 23/23/23 25/25/25
f 26/26/26 28/28/28 27/27/27
f 26/26/26 27/27/27 29/29/29
