#Building_687_10.obj

v 2 0 2
v -1 0 2
v 2 6 2
v -1 6 2
v -1 0 2
v -1 0 -1
v -1 6 2
v -1 6 -1
v -1 0 -1
v 2 0 -1
v -1 6 -1
v 2 6 -1
v 2 0 -1
v 2 0 2
v 2 6 -1
v 2 6 2

vn 0 0 1
vn 0 0 1
vn 0 0 1
vn 0 0 1
vn -1 0 0
vn -1 0 0
vn -1 0 0
vn -1 0 0
vn 0 0 -1
vn 0 0 -1
vn 0 0 -1
vn 0 0 -1
vn 1 0 0
vn 1 0 0
vn 1 0 0
vn 1 0 0

vt 3 0
vt 0 0
vt 3 6
vt 0 6
vt 3 0
vt 0 0
vt 3 6
vt 0 6
vt 3 0
vt 0 0
vt 3 6
vt 0 6
vt 3 0
vt 0 0
vt 3 6
vt 0 6

g Building_687_10
usemtl Building_687_10
usemap Building_687_10
f 1/1/1 3/3/3 2/2/2
f 2/2/2 3/3/3 4/4/4
f 5/5/5 7/7/7 6/6/6
f 6/6/6 7/7/7 8/8/8
f 9/9/9 11/11/11 10/10/10
f 10/10/10 11/11/11 12/12/12
f 13/13/13 15/15/15 14/14/14
f 14/14/14 15/15/15 16/16/16
