#Ceiling-detach_1215_12.obj

v -5 1 -23
v -5 1 -17
v 21 1 -17
v 5 1 -23
v 15 1 -23
v 21 1 -23
v 10 1 -23
v -3 1 -30
v -5 1 -30
v -5 1 -26
v 5 1 -23
v 5 1 -30
v -5 1 -23
v 5 1 -41
v -3 1 -41
v -5 1 -16
v 21 1 -17
v -5 1 -17
v 21 1 -16
v -5 0 -16
v 21 1 -16
v -5 1 -16
v 21 0 -16

vn 0 -1 0
vn 0 -1 0
vn 0 -1 0
vn 0 -1 0
vn 0 -1 0
vn 0 -1 0
vn 0 -1 0
vn 0 -1 0
vn 0 -1 0
vn 0 -1 0
vn 0 -1 0
vn 0 -1 0
vn 0 -1 0
vn 0 -1 0
vn 0 -1 0
vn 0 -1 0
vn 0 -1 0
vn 0 -1 0
vn 0 -1 0
vn 0 0 -1
vn 0 0 -1
vn 0 0 -1
vn 0 0 -1

vt 0 0
vt 0 6
vt 26 6
vt 10 0
vt 20 0
vt 26 0
vt 15 0
vt 2 11
vt 0 11
vt 0 15
vt 10 18
vt 10 11
vt 0 18
vt 10 0
vt 2 0
vt 0 1
vt 26 0
vt 0 0
vt 26 1
vt 26 0
vt 0 1
vt 26 1
vt 0 0

g Ceiling-detach_1215_12
usemtl Ceiling-detach_1215_12
usemap Ceiling-detach_1215_12
f 1/1/1 3/3/3 2/2/2
f 4/4/4 3/3/3 1/1/1
f 5/5/5 6/6/6 3/3/3
f 7/7/7 5/5/5 3/3/3
f 4/4/4 7/7/7 3/3/3
f 8/8/8 10/10/10 9/9/9
f 8/8/8 12/12/12 11/11/11
f 8/8/8 11/11/11 10/10/10
f 13/13/13 10/10/10 11/11/11
f 8/8/8 15/15/15 14/14/14
f 8/8/8 14/14/14 12/12/12
f 16/16/16 18/18/18 17/17/17
f 16/16/16 17/17/17 19/19/19
f 20/20/20 22/22/22 21/21/21
f 20/20/20 21/21/21 23/23/23
