#Ceiling-detach_1261_15.obj

v 23 1 -33
v 28 1 -33
v 23 1 -41
v 28 1 -41
v 18 1 -41
v 18 1 -33
v 10 1 -38
v 10 1 -23
v 15 1 -23
v 15 1 -33
v 18 1 -38
v 18 1 -33

vn 0 -1 0
vn 0 -1 0
vn 0 -1 0
vn 0 -1 0
vn 0 -1 0
vn 0 -1 0
vn 0 -0.9999999 0
vn 0 -1 0
vn 0 -1 0
vn 0 -1 0
vn 0 -0.9999999 0
vn 0 -1 0

vt 5 8
vt 10 8
vt 5 0
vt 10 0
vt 0 0
vt 0 8
vt 0 0
vt 0 15
vt 5 15
vt 5 5
vt 8 0
vt 8 5

g Ceiling-detach_1261_15
usemtl Ceiling-detach_1261_15
usemap Ceiling-detach_1261_15
f 1/1/1 3/3/3 2/2/2
f 3/3/3 4/4/4 2/2/2
f 1/1/1 5/5/5 3/3/3
f 1/1/1 6/6/6 5/5/5
f 7/7/7 9/9/9 8/8/8
f 10/10/10 9/9/9 7/7/7
f 11/11/11 10/10/10 7/7/7
f 12/12/12 10/10/10 11/11/11
