#Ceiling-detach_1304_57.obj

v 44 0 29
v 40 0 37
v 44 0 37
v 40 0 29
v 44 0 25
v 40 0 29
v 44 0 29
v 40 0 25
v 39 0 25
v 40 0 29
v 40 0 25
v 39 0 29
v 35 0 25
v 39 0 29
v 39 0 25
v 35 0 29
v 35 0 35
v 39 0 29
v 35 0 29
v 39 0 35

vn 0 -1 0
vn 0 -1 0
vn 0 -1 0
vn 0 -1 0
vn 0 -1 0
vn 0 -1 0
vn 0 -1 0
vn 0 -1 0
vn 0 -1 0
vn 0 -1 0
vn 0 -1 0
vn 0 -1 0
vn 0 -1 0
vn 0 -1 0
vn 0 -1 0
vn 0 -1 0
vn 0 -1 0
vn 0 -1 0
vn 0 -1 0
vn 0 -1 0

vt 4 0
vt 0 8
vt 4 8
vt 0 0
vt 4 0
vt 0 4
vt 4 4
vt 0 0
vt 0 0
vt 1 4
vt 1 0
vt 0 4
vt 0 0
vt 4 4
vt 4 0
vt 0 4
vt 0 6
vt 4 0
vt 0 0
vt 4 6

g Ceiling-detach_1304_57
usemtl Ceiling-detach_1304_57
usemap Ceiling-detach_1304_57
f 1/1/1 3/3/3 2/2/2
f 1/1/1 2/2/2 4/4/4
f 5/5/5 7/7/7 6/6/6
f 5/5/5 6/6/6 8/8/8
f 9/9/9 11/11/11 10/10/10
f 9/9/9 10/10/10 12/12/12
f 13/13/13 15/15/15 14/14/14
f 13/13/13 14/14/14 16/16/16
f 17/17/17 19/19/19 18/18/18
f 17/17/17 18/18/18 20/20/20
