#Ceiling-detach_1245_14.obj

v 3 1 -41
v 3 1 -44
v -2 1 -44
v -2 1 -41
v 26 1 -44
v 26 1 -50
v -5 1 -50
v -5 1 -44
v 18 1 -44
v 18 1 -41
v 23 1 -41
v 23 1 -44
v 20 1 -50
v 20 1 -57
v 1 1 -57
v 1 1 -50

vn 0 -1 0
vn 0 -1 0
vn 0 -1 0
vn 0 -1 0
vn 0 -1 0
vn 0 -1 0
vn 0 -1 0
vn 0 -1 0
vn 0 -1 0
vn 0 -1 0
vn 0 -1 0
vn 0 -1 0
vn 0 -1 0
vn 0 -1 0
vn 0 -1 0
vn 0 -1 0

vt 5 3
vt 5 0
vt 0 0
vt 0 3
vt 31 6
vt 31 0
vt 0 0
vt 0 6
vt 0 0
vt 0 3
vt 5 3
vt 5 0
vt 19 7
vt 19 0
vt 0 0
vt 0 7

g Ceiling-detach_1245_14
usemtl Ceiling-detach_1245_14
usemap Ceiling-detach_1245_14
f 1/1/1 3/3/3 2/2/2
f 4/4/4 3/3/3 1/1/1
f 5/5/5 7/7/7 6/6/6
f 8/8/8 7/7/7 5/5/5
f 9/9/9 11/11/11 10/10/10
f 12/12/12 11/11/11 9/9/9
f 13/13/13 15/15/15 14/14/14
f 16/16/16 15/15/15 13/13/13
