#Ceiling-detach_1205_10.obj

v 21 1 -17
v 26 1 -17
v 26 1 -23
v 21 1 -23
v 26 1 -17
v 31 1 -17
v 31 1 -23
v 26 1 -23
v 31 1 -15
v 37 1 -15
v 37 1 -27
v 31 1 -27
v 31 1 -15
v 31 1 0
v 37 1 -4
v 37 1 -15
v 47 1 0
v 47 1 -4

vn 0 -1 0
vn 0 -1 0
vn 0 -1 0
vn 0 -1 0
vn 0 -1 0
vn 0 -1 0
vn 0 -1 0
vn 0 -1 0
vn 0 -1 0
vn 0 -1 0
vn 0 -1 0
vn 0 -1 0
vn 0 -1 0
vn 0 -0.9999999 0
vn 0 -1 0
vn 0 -1 0
vn 0 -1 0
vn 0 -1 0

vt 0 6
vt 5 6
vt 5 0
vt 0 0
vt 0 6
vt 5 6
vt 5 0
vt 0 0
vt 0 12
vt 6 12
vt 6 0
vt 0 0
vt 0 0
vt 0 15
vt 6 11
vt 6 0
vt 16 15
vt 16 11

g Ceiling-detach_1205_10
usemtl Ceiling-detach_1205_10
usemap Ceiling-detach_1205_10
f 1/1/1 3/3/3 2/2/2
f 4/4/4 3/3/3 1/1/1
f 5/5/5 7/7/7 6/6/6
f 8/8/8 7/7/7 5/5/5
f 9/9/9 11/11/11 10/10/10
f 12/12/12 11/11/11 9/9/9
f 13/13/13 15/15/15 14/14/14
f 16/16/16 15/15/15 13/13/13
f 14/14/14 18/18/18 17/17/17
f 15/15/15 18/18/18 14/14/14
