#Ceiling-detach_1238_11.obj

v 21 1 -13
v 5 1 -13
v 5 1 -8
v 21 1 -8
v 21 1 6
v 5 1 6
v 5 1 11
v 21 1 11
v 5 1 6
v 0 1 6
v 0 1 11
v 5 1 11
v 0 1 6
v -3 1 6
v -3 1 11
v 0 1 11
v 5 1 -8
v 0 1 -8
v 5 1 6
v 0 1 6
v 21 1 -13
v 21 1 -8
v 26 1 -10.5
v 26 1 7
v 21 1 6
v 26 1 -17
v 21 1 -17
v 21 1 11
v 26 1 11

vn 0 -1 0
vn 0 -1 0
vn 0 -1 0
vn 0 -1 0
vn 0 -1 0
vn 0 -1 0
vn 0 -1 0
vn 0 -1 0
vn 0 -1 0
vn 0 -1 0
vn 0 -1 0
vn 0 -1 0
vn 0 -1 0
vn 0 -1 0
vn 0 -1 0
vn 0 -1 0
vn 0 -1 0
vn 0 -1 0
vn 0 -1 0
vn 0 -1 0
vn 0 -1 0
vn 0 -1 0
vn 0 -1 0
vn 0 -1 0
vn 0 -1 0
vn 0 -1 0
vn 0 -1 0
vn 0 -1 0
vn 0 -1 0

vt 16 0
vt 0 0
vt 0 5
vt 16 5
vt 16 0
vt 0 0
vt 0 5
vt 16 5
vt 5 0
vt 0 0
vt 0 5
vt 5 5
vt 3 0
vt 0 0
vt 0 5
vt 3 5
vt 5 0
vt 0 0
vt 5 14
vt 0 14
vt 0 4
vt 0 9
vt 5 6.5
vt 5 24
vt 0 23
vt 5 0
vt 0 0
vt 0 28
vt 5 28

g Ceiling-detach_1238_11
usemtl Ceiling-detach_1238_11
usemap Ceiling-detach_1238_11
f 1/1/1 3/3/3 2/2/2
f 4/4/4 3/3/3 1/1/1
f 5/5/5 7/7/7 6/6/6
f 8/8/8 7/7/7 5/5/5
f 9/9/9 11/11/11 10/10/10
f 12/12/12 11/11/11 9/9/9
f 13/13/13 15/15/15 14/14/14
f 16/16/16 15/15/15 13/13/13
f 17/17/17 19/19/19 18/18/18
f 18/18/18 19/19/19 20/20/20
f 21/21/21 23/23/23 22/22/22
f 23/23/23 24/24/24 22/22/22
f 22/22/22 24/24/24 25/25/25
f 21/21/21 26/26/26 23/23/23
f 27/27/27 26/26/26 21/21/21
f 24/24/24 28/28/28 25/25/25
f 24/24/24 29/29/29 28/28/28
