#Ceiling-detach_1216_44.obj

v 26 1 16
v 41 1 16
v 26 1 11
v 41 1 7
v 26 1 7
v 26 1 16
v 21 1 20
v 26 1 20
v 21 1 11
v 26 1 11

vn 0 -1 0
vn 0 -1 0
vn 0 -1 0
vn 0 -1 0
vn 0 -1 0
vn 0 -1 0
vn 0 -1 0
vn 0 -1 0
vn 0 -1 0
vn 0 -1 0

vt 0 9
vt 15 9
vt 0 4
vt 15 0
vt 0 0
vt 5 5
vt 0 9
vt 5 9
vt 0 0
vt 5 0

g Ceiling-detach_1216_44
usemtl Ceiling-detach_1216_44
usemap Ceiling-detach_1216_44
f 1/1/1 3/3/3 2/2/2
f 2/2/2 3/3/3 4/4/4
f 4/4/4 3/3/3 5/5/5
f 6/6/6 8/8/8 7/7/7
f 9/9/9 10/10/10 7/7/7
f 7/7/7 10/10/10 6/6/6
