#Ceiling-detach_1229_13.obj

v -14 1 -23
v -5 1 -23
v -5 1 -26
v -11 1 -26
v -14 1 -28
v -11 1 -33
v -25 1 -28
v -30 1 -33
v -25 1 -13
v -30 1 -8
v 0 1 -8
v 5 1 -13
v 5 1 -8

vn 0 -1 0
vn 0 -1 0
vn 0 -1 0
vn 0 -1 0
vn 0 -1 0
vn 0 -1 0
vn 0 -1 0
vn 0 -1 0
vn 0 -1 0
vn 0 -1 0
vn 0 -1 0
vn 0 -1 0
vn 0 -1 0

vt 16 10
vt 25 10
vt 25 7
vt 19 7
vt 16 5
vt 19 0
vt 5 5
vt 0 0
vt 5 20
vt 0 25
vt 30 25
vt 35 20
vt 35 25

g Ceiling-detach_1229_13
usemtl Ceiling-detach_1229_13
usemap Ceiling-detach_1229_13
f 1/1/1 3/3/3 2/2/2
f 4/4/4 3/3/3 1/1/1
f 5/5/5 4/4/4 1/1/1
f 6/6/6 4/4/4 5/5/5
f 7/7/7 6/6/6 5/5/5
f 8/8/8 6/6/6 7/7/7
f 9/9/9 8/8/8 7/7/7
f 10/10/10 8/8/8 9/9/9
f 11/11/11 10/10/10 9/9/9
f 9/9/9 12/12/12 11/11/11
f 13/13/13 11/11/11 12/12/12
