#Ceiling-detach_1243_16.obj

v 0 1 11
v 0 1 14
v 5 1 14
v 5 1 11
v 1 1 24
v 7 1 24
v 7 1 14
v -3 1 14
v -3 1 24
v 1 1 28
v -3 1 28
v 7 1 28
v 1 1 28
v -3 1 28
v -3 1 34
v 1 1 34
v 7 1 24
v 7 1 28
v 19 1 28
v 19 1 24

vn 0 -1 0
vn 0 -1 0
vn 0 -1 0
vn 0 -1 0
vn 0 -1 0
vn 0 -1 0
vn 0 -1 0
vn 0 -1 0
vn 0 -1 0
vn 0 -1 0
vn 0 -1 0
vn 0 -1 0
vn 0 -1 0
vn 0 -1 0
vn 0 -1 0
vn 0 -1 0
vn 0 -1 0
vn 0 -1 0
vn 0 -1 0
vn 0 -1 0

vt 0 0
vt 0 3
vt 5 3
vt 5 0
vt 4 10
vt 10 10
vt 10 0
vt 0 0
vt 0 10
vt 4 14
vt 0 14
vt 10 14
vt 4 0
vt 0 0
vt 0 6
vt 4 6
vt 0 0
vt 0 4
vt 12 4
vt 12 0

g Ceiling-detach_1243_16
usemtl Ceiling-detach_1243_16
usemap Ceiling-detach_1243_16
f 1/1/1 3/3/3 2/2/2
f 4/4/4 3/3/3 1/1/1
f 5/5/5 7/7/7 6/6/6
f 5/5/5 9/9/9 8/8/8
f 5/5/5 8/8/8 7/7/7
f 10/10/10 9/9/9 5/5/5
f 10/10/10 11/11/11 9/9/9
f 10/10/10 5/5/5 6/6/6
f 10/10/10 6/6/6 12/12/12
f 13/13/13 15/15/15 14/14/14
f 16/16/16 15/15/15 13/13/13
f 17/17/17 19/19/19 18/18/18
f 20/20/20 19/19/19 17/17/17
