#Combined_Mesh_(root:_scene).obj

v 32 0 8
v 0 0 8
v 32 0 -32
v 0 0 -32
v 26 0 -23
v 26 0 -24
v 26 3 -23
v 26 3 -24
v 32 3 -23
v 26 0 -23
v 26 3 -23
v 32 0 -23
v 32 0 -24
v 26 3 -24
v 26 0 -24
v 32 3 -24
v 32 3 -23
v 26 3 -24
v 32 3 -24
v 26 3 -23
v 6 0 -24
v 6 0 -23
v 6 3 -24
v 6 3 -23
v 0 3 -24
v 6 0 -24
v 6 3 -24
v 0 0 -24
v 0 0 -23
v 6 3 -23
v 6 0 -23
v 0 3 -23
v 0 3 -24
v 6 3 -23
v 0 3 -23
v 6 3 -24
v 26 0 -15
v 26 0 -16
v 26 3 -15
v 26 3 -16
v 32 3 -15
v 26 0 -15
v 26 3 -15
v 32 0 -15
v 32 0 -16
v 26 3 -16
v 26 0 -16
v 32 3 -16
v 32 3 -15
v 26 3 -16
v 32 3 -16
v 26 3 -15
v 6 0 -16
v 6 0 -15
v 6 3 -16
v 6 3 -15
v 0 3 -16
v 6 0 -16
v 6 3 -16
v 0 0 -16
v 0 0 -15
v 6 3 -15
v 6 0 -15
v 0 3 -15
v 0 3 -16
v 6 3 -15
v 0 3 -15
v 6 3 -16
v 26 0 -8
v 26 0 -9
v 26 3 -8
v 26 3 -9
v 32 3 -8
v 26 0 -8
v 26 3 -8
v 32 0 -8
v 32 0 -9
v 26 3 -9
v 26 0 -9
v 32 3 -9
v 32 3 -8
v 26 3 -9
v 32 3 -9
v 26 3 -8
v 6 0 -9
v 6 0 -8
v 6 3 -9
v 6 3 -8
v 0 3 -9
v 6 0 -9
v 6 3 -9
v 0 0 -9
v 0 0 -8
v 6 3 -8
v 6 0 -8
v 0 3 -8
v 0 3 -9
v 6 3 -8
v 0 3 -8
v 6 3 -9
v 26 0 0
v 26 0 -1
v 26 3 0
v 26 3 -1
v 32 3 0
v 26 0 0
v 26 3 0
v 32 0 0
v 32 0 -1
v 26 3 -1
v 26 0 -1
v 32 3 -1
v 32 3 0
v 26 3 -1
v 32 3 -1
v 26 3 0
v 6 0 -1
v 6 0 0
v 6 3 -1
v 6 3 0
v 0 3 -1
v 6 0 -1
v 6 3 -1
v 0 0 -1
v 0 0 0
v 6 3 0
v 6 0 0
v 0 3 0
v 0 3 -1
v 6 3 0
v 0 3 0
v 6 3 -1
v 2.000027 3 5.99999
v 2.670288E-05 3 6
v 2.288818E-05 3 5
v 2.000023 3 4.99999
v 7 0 5
v 7 0 6
v 2.000027 3 5.99999
v 2.000023 3 4.99999
v 2.000023 3 4.99999
v 2.288818E-05 3 5
v 2.288818E-05 0 5
v 7 0 5
v 30.00002 3 4.999865
v 32.00002 3 4.999855
v 30.00003 3 5.999865
v 32.00003 3 5.999855
v 30.00002 3 4.999865
v 30.00003 3 5.999865
v 25 0 5
v 25 0 6
v 25 0 5
v 32.00002 0 4.999855
v 30.00002 3 4.999865
v 32.00002 3 4.999855
v 32 0 -32
v 32 5 -32
v 32.00002 0 7.999903
v 32 5 8
v 13.99998 6 -10.00003
v 9.999977 -1 -10.00002
v 9.999977 6 -10.00002
v 13.99996 -1 -10.00006
v 13.99998 6 -10.00003
v 14 -1 -10
v 13.99996 -1 -10.00006
v 21.99995 6 -10.0001
v 17.99998 -1 -10.00004
v 17.99998 6 -10.00004
v 21.99995 -1 -10.0001
v 22 6 -14
v 21.99995 -1 -10.0001
v 21.99995 6 -10.0001
v 22 -1 -14
v 9.999991 -1 -2.000046
v 9.999969 -1 -7.000046
v 9.999991 6 -2.000046
v 9.999969 6 -7.000046
v 21.99999 6 -2.000099
v 9.999991 -1 -2.000046
v 9.999991 6 -2.000046
v 21.99999 -1 -2.000099
v 21.99997 6 -7.000099
v 21.99999 -1 -2.000099
v 21.99999 6 -2.000099
v 21.99997 -1 -7.000099
v 9.999969 6 -7.000046
v 21.99997 -1 -7.000099
v 21.99997 6 -7.000099
v 9.999969 -1 -7.000046
v 30 3 -30
v 32 3 -30
v 32 3 -29
v 30 3 -29
v 25 0 -29
v 25 0 -30
v 30 3 -30
v 30 3 -29
v 30 3 -29
v 32 3 -29
v 32 0 -29
v 25 0 -29
v 2 3 -29
v 0 3 -29
v 2 3 -30
v 0 3 -30
v 2 3 -29
v 2 3 -30
v 7 0 -29
v 7 0 -30
v 7 0 -29
v 0 0 -29
v 2 3 -29
v 0 3 -29
v 1.811981E-05 0 8
v 0 5 8
v 0 0 -32
v 0 5 -32
v 18 6 -14
v 22 -1 -14
v 22 6 -14
v 18 -1 -14
v 17.99998 6 -10.00004
v 18 -1 -14
v 18 6 -14
v 17.99998 -1 -10.00004
v 14 -1 -14
v 14 -1 -10
v 14 6 -14
v 13.99998 6 -10.00003
v 10 6 -14
v 14 -1 -14
v 14 6 -14
v 10 -1 -14
v 9.999977 6 -10.00002
v 10 -1 -14
v 10 6 -14
v 9.999977 -1 -10.00002
v 22 -1 -22
v 22 -1 -17
v 22 6 -22
v 22 6 -17
v 10 6 -22
v 22 -1 -22
v 22 6 -22
v 10 -1 -22
v 10 6 -17
v 10 -1 -22
v 10 6 -22
v 10 -1 -17
v 22 6 -17
v 10 -1 -17
v 10 6 -17
v 22 -1 -17
v 0 5 8
v 32.00002 0 7.999903
v 32 5 8
v 1.811981E-05 0 8
v 32 5 -32
v 0 0 -32
v 0 5 -32
v 32 0 -32
v 9.999991 6 -2.000046
v 21.99997 6 -7.000099
v 21.99999 6 -2.000099
v 9.999969 6 -7.000046
v 9.999977 6 -10.00002
v 14 6 -14
v 13.99998 6 -10.00003
v 10 6 -14
v 17.99998 6 -10.00004
v 22 6 -14
v 21.99995 6 -10.0001
v 18 6 -14
v 10 6 -17
v 22 6 -22
v 22 6 -17
v 10 6 -22
v 2 3 -30
v 0 3 -30
v 0 3 -32
v 32 3 -32
v 30 3 -30
v 32 3 -30
v 32.00003 3 5.999855
v 32 3 8
v 30 3 6
v 3.623962E-05 3 8
v 2 3 6
v 2.670288E-05 3 6
v 0 3 8
v 2 3 6
v 2 3 6
v 7 0 6
v 30 3 6
v 25 0 6
v 7 0 -30
v 2 3 -30
v 30 3 -30
v 25 0 -30
v 7 0 -30
v 0 0 -32
v 0 0 -30
v 32 0 -32
v 25 0 -30
v 32 0 -30
v 0 6 -32
v 32 5 -32
v 0 5 -32
v 32 6 -32
v 0 6 8
v 0 5 -32
v 0 5 8
v 0 6 -32
v 32 6 8
v 0 5 8
v 32 5 8
v 0 6 8
v 32 6 -32
v 32 5 8
v 32 5 -32
v 32 6 8

vn 0 1 0
vn 0 1 0
vn 0 1 0
vn 0 1 0
vn -1 0 0
vn -1 0 0
vn -1 0 0
vn -1 0 0
vn 0 0 1
vn 0 0 1
vn 0 0 1
vn 0 0 1
vn 0 0 -1
vn 0 0 -1
vn 0 0 -1
vn 0 0 -1
vn 0 1 0
vn 0 1 0
vn 0 1 0
vn 0 1 0
vn 1 0 0
vn 1 0 0
vn 1 0 0
vn 1 0 0
vn 0 0 -1
vn 0 0 -1
vn 0 0 -1
vn 0 0 -1
vn 0 0 1
vn 0 0 1
vn 0 0 1
vn 0 0 1
vn 0 1 0
vn 0 1 0
vn 0 1 0
vn 0 1 0
vn -1 0 0
vn -1 0 0
vn -1 0 0
vn -1 0 0
vn 0 0 1
vn 0 0 1
vn 0 0 1
vn 0 0 1
vn 0 0 -1
vn 0 0 -1
vn 0 0 -1
vn 0 0 -1
vn 0 1 0
vn 0 1 0
vn 0 1 0
vn 0 1 0
vn 1 0 0
vn 1 0 0
vn 1 0 0
vn 1 0 0
vn 0 0 -1
vn 0 0 -1
vn 0 0 -1
vn 0 0 -1
vn 0 0 1
vn 0 0 1
vn 0 0 1
vn 0 0 1
vn 0 1 0
vn 0 1 0
vn 0 1 0
vn 0 1 0
vn -1 0 0
vn -1 0 0
vn -1 0 0
vn -1 0 0
vn 0 0 1
vn 0 0 1
vn 0 0 1
vn 0 0 1
vn 0 0 -1
vn 0 0 -1
vn 0 0 -1
vn 0 0 -1
vn 0 1 0
vn 0 1 0
vn 0 1 0
vn 0 1 0
vn 1 0 0
vn 1 0 0
vn 1 0 0
vn 1 0 0
vn 0 0 -1
vn 0 0 -1
vn 0 0 -1
vn 0 0 -1
vn 0 0 1
vn 0 0 1
vn 0 0 1
vn 0 0 1
vn 0 1 0
vn 0 1 0
vn 0 1 0
vn 0 1 0
vn -1 0 0
vn -1 0 0
vn -1 0 0
vn -1 0 0
vn 0 0 1
vn 0 0 1
vn 0 0 1
vn 0 0 1
vn 0 0 -1
vn 0 0 -1
vn 0 0 -1
vn 0 0 -1
vn 0 1 0
vn 0 1 0
vn 0 1 0
vn 0 1 0
vn 1 0 0
vn 1 0 0
vn 1 0 0
vn 1 0 0
vn 0 0 -1
vn 0 0 -1
vn 0 0 -1
vn 0 0 -1
vn 0 0 1
vn 0 0 1
vn 0 0 1
vn 0 0 1
vn 0 1 0
vn 0 1 0
vn 0 1 0
vn 0 1 0
vn 0 1 0
vn 0 1 0
vn 0 1 0
vn 0 1 0
vn 0.5144976 0.8574918 -9.813264E-07
vn 0.5144978 0.8574917 0
vn 0.5144976 0.8574918 -9.813264E-07
vn 0.5144975 0.8574919 -1.962652E-06
vn -1.059641E-06 -2.472487E-06 -1
vn -4.768372E-06 0 -1
vn -1.059641E-06 -2.472487E-06 -1
vn 0 -3.178915E-06 -1
vn 0 1 0
vn 0 1 0
vn 0 1 0
vn 0 1 0
vn -0.514494 0.8574939 1.962639E-06
vn -0.5144939 0.8574941 9.813192E-07
vn -0.5144939 0.8574941 9.813192E-07
vn -0.5144937 0.8574941 0
vn -2.070829E-05 -1.062661E-05 -1
vn -1.716609E-05 -8.265148E-06 -1
vn -1.716609E-05 -8.265148E-06 -1
vn -4.768372E-06 0 -1
vn -1 0 4.768383E-07
vn -0.9999999 -1.907351E-06 2.384189E-07
vn -0.9999999 -1.907351E-06 2.384189E-07
vn -1 -3.814697E-06 0
vn 6.079691E-06 -2.247956E-06 1
vn 6.079691E-06 -2.247956E-06 1
vn 2.145767E-06 0 1
vn 1.001363E-05 -4.495925E-06 1
vn -0.8145666 -5.548794E-08 0.5800701
vn -0.8145666 -5.548794E-08 0.5800701
vn -0.8145666 -5.548794E-08 0.5800701
vn 1.478204E-05 0 0.9999999
vn 1.478204E-05 0 0.9999999
vn 1.478204E-05 0 0.9999999
vn 1.478204E-05 0 0.9999999
vn 0.9999999 0 1.144438E-05
vn 0.9999999 0 1.144438E-05
vn 0.9999999 0 1.144438E-05
vn 0.9999999 0 1.144438E-05
vn -1 0 4.577637E-06
vn -1 0 4.577637E-06
vn -1 0 4.577637E-06
vn -1 0 4.577637E-06
vn 4.45048E-06 0 1
vn 4.45048E-06 0 1
vn 4.45048E-06 0 1
vn 4.45048E-06 0 1
vn 1 0 -4.577637E-06
vn 1 0 -4.577637E-06
vn 1 0 -4.577637E-06
vn 1 0 -4.577637E-06
vn -4.45048E-06 0 -1
vn -4.45048E-06 0 -1
vn -4.45048E-06 0 -1
vn -4.45048E-06 0 -1
vn 0 1 0
vn 0 1 0
vn 0 1 0
vn 0 1 0
vn -0.5144958 0.857493 0
vn -0.5144958 0.857493 0
vn -0.5144958 0.857493 0
vn -0.5144958 0.857493 0
vn 0 0 1
vn 0 0 1
vn 0 0 1
vn 0 0 1
vn 0 1 0
vn 0 1 0
vn 0 1 0
vn 0 1 0
vn 0.5144958 0.857493 0
vn 0.5144958 0.857493 0
vn 0.5144958 0.857493 0
vn 0.5144958 0.857493 0
vn 0 0 1
vn 0 0 1
vn 0 0 1
vn 0 0 1
vn 1 3.623962E-06 -4.529953E-07
vn 1 1.811981E-06 -2.264976E-07
vn 1 1.811981E-06 -2.264976E-07
vn 1 0 0
vn 0 0 -1
vn 0 0 -1
vn 0 0 -1
vn 0 0 -1
vn -1 0 -5.722104E-06
vn -1 0 -5.722104E-06
vn -1 0 -5.722104E-06
vn -1 0 -5.722104E-06
vn 1 0 0
vn 0.9999999 1.634877E-06 2.861034E-06
vn 0.9999999 1.634877E-06 2.861034E-06
vn 0.9999999 3.269766E-06 5.722091E-06
vn 0 0 -1
vn 0 0 -1
vn 0 0 -1
vn 0 0 -1
vn -0.9999999 0 -5.722078E-06
vn -0.9999999 0 -5.722078E-06
vn -0.9999999 0 -5.722078E-06
vn -0.9999999 0 -5.722078E-06
vn 1 0 0
vn 1 0 0
vn 1 0 0
vn 1 0 0
vn 0 0 -1
vn 0 0 -1
vn 0 0 -1
vn 0 0 -1
vn -1 0 0
vn -1 0 0
vn -1 0 0
vn -1 0 0
vn 0 0 1
vn 0 0 1
vn 0 0 1
vn 0 0 1
vn -1.512468E-06 9.679788E-06 -1
vn -1.512468E-06 9.679788E-06 -1
vn 0 1.935959E-05 -1
vn -3.024936E-06 -1.096225E-11 -1
vn 0 0 1
vn 0 0 1
vn 0 0 1
vn 0 0 1
vn 0 1 0
vn 0 1 0
vn 0 1 0
vn 0 1 0
vn 0 1 0
vn 0 1 0
vn 0 1 0
vn 0 1 0
vn 0 1 0
vn 0 1 0
vn 0 1 0
vn 0 1 0
vn 0 1 0
vn 0 1 0
vn 0 1 0
vn 0 1 0
vn 0 1 0
vn 0 1 0
vn 0 1 0
vn 0 1 0
vn 0 1 0
vn 0 1 0
vn 0 1 0
vn 0 1 0
vn 0 0.9999999 0
vn 0 1 0
vn 0 0.9999999 0
vn 0 1 0
vn 0 -1 0
vn 0 -1 0
vn 0 0 -1
vn 0 0 -1
vn 0 0 -1
vn 0 0 -1
vn 0 0 1
vn 0 0 1
vn 0 0 1
vn 0 0 1
vn 0 -1 0
vn 0 -1 0
vn 0 -1 0
vn 0 -1 0
vn 0 -1 0
vn 0 -1 0
vn 0 0 1
vn 0 0 1
vn 0 0 1
vn 0 0 1
vn 1 0 0
vn 1 0 0
vn 1 0 0
vn 1 0 0
vn 0 0 -1
vn 0 0 -1
vn 0 0 -1
vn 0 0 -1
vn -1 0 0
vn -1 0 0
vn -1 0 0
vn -1 0 0

vt 0 40
vt 32 40
vt 0 0
vt 32 0
vt 1 0
vt 0 0
vt 1 3
vt 0 3
vt 6 3
vt 0 0
vt 0 3
vt 6 0
vt 0 0
vt 6 3
vt 6 0
vt 0 3
vt 0 1
vt 6 0
vt 0 5.066395E-07
vt 6 1
vt 1 0
vt 0 0
vt 1 3
vt 0 3
vt 6 3
vt 0 0
vt 0 3
vt 6 0
vt 0 0
vt 6 3
vt 6 0
vt 0 3
vt 6 0
vt 0 1
vt 6 1
vt 0 0
vt 1 0
vt 0 0
vt 1 3
vt 0 3
vt 6 3
vt 0 0
vt 0 3
vt 6 0
vt 0 0
vt 6 3
vt 6 0
vt 0 3
vt 0 1
vt 6 0
vt 0 5.066395E-07
vt 6 1
vt 1 0
vt 0 0
vt 1 3
vt 0 3
vt 6 3
vt 0 0
vt 0 3
vt 6 0
vt 0 0
vt 6 3
vt 6 0
vt 0 3
vt 6 0
vt 0 1
vt 6 1
vt 0 0
vt 1 0
vt 0 0
vt 1 3
vt 0 3
vt 6 3
vt 0 0
vt 0 3
vt 6 0
vt 0 0
vt 6 3
vt 6 0
vt 0 3
vt 0 1
vt 6 0
vt 0 5.066395E-07
vt 6 1
vt 1 0
vt 0 0
vt 1 3
vt 0 3
vt 6 3
vt 0 0
vt 0 3
vt 6 0
vt 0 0
vt 6 3
vt 6 0
vt 0 3
vt 6 0
vt 0 1
vt 6 1
vt 0 0
vt 1 0
vt 0 0
vt 1 3
vt 0 3
vt 6 3
vt 0 0
vt 0 3
vt 6 0
vt 0 0
vt 6 3
vt 6 0
vt 0 3
vt 0 1
vt 6 0
vt 0 5.066395E-07
vt 6 1
vt 1 0
vt 0 0
vt 1 3
vt 0 3
vt 6 3
vt 0 0
vt 0 3
vt 6 0
vt 0 0
vt 6 3
vt 6 0
vt 0 3
vt 6 0
vt 0 1
vt 6 1
vt 0 0
vt 0 1
vt 2 1.00001
vt 2.000004 9.536743E-06
vt 3.814697E-06 0
vt 0 9.536743E-06
vt 0 1.00001
vt 5.999998 1
vt 6.000001 0
vt 4.999977 3
vt 6.999977 3
vt 6.999977 0
vt 0 0
vt 2.000004 9.536743E-06
vt 3.814697E-06 0
vt 2 1.00001
vt 0 1
vt 3.814697E-06 0
vt 0 1
vt 6 0.0001353621
vt 6 1.000135
vt 7.000023 0
vt 0 0
vt 2 3
vt 0 3
vt 0 0
vt 0 5
vt 39.9999 0
vt 40 5
vt 4 7
vt 0 0
vt 0 7
vt 3.999978 0
vt 3.835745E-05 7
vt 7.726997E-05 0
vt -1.862645E-09 0
vt 3.999977 7
vt 0 0
vt 0 7
vt 3.999977 0
vt 3.999901 7
vt 0 0
vt 0 7
vt 3.999901 0
vt 5 0
vt 0 0
vt 5 7
vt 0 7
vt 12 7
vt 0 0
vt 0 7
vt 12 0
vt 5 7
vt 0 0
vt 0 7
vt 5 0
vt 12 7
vt 0 0
vt 0 7
vt 12 0
vt 2 0
vt 0 0
vt 0 1
vt 2 1
vt 6 1
vt 6 0
vt 0 0
vt 0 1
vt 5 3
vt 7 3
vt 7 0
vt 0 0
vt 0 1
vt 2 1
vt 0 0
vt 2 0
vt 6 1
vt 6 0
vt 0 1
vt 0 0
vt 7 0
vt 0 0
vt 2 3
vt 0 3
vt 0 0
vt 0 5
vt 40 0
vt 40 5
vt 4 7
vt 0 0
vt 0 7
vt 4 0
vt 3.99996 7
vt 0 0
vt 0 7
vt 3.99996 0
vt 4 0
vt 0 0
vt 4 7
vt 3.147125E-05 7
vt 4 7
vt 0 0
vt 0 7
vt 4 0
vt 3.999977 7
vt 0 0
vt 0 7
vt 3.999977 0
vt 5 0
vt 0 0
vt 5 7
vt 0 7
vt 12 7
vt 0 0
vt 0 7
vt 12 0
vt 5 7
vt 0 0
vt 0 7
vt 5 0
vt 12 7
vt 0 0
vt 0 7
vt 12 0
vt 32.00002 5
vt 0 0
vt 1.907349E-05 5
vt 32 0
vt 32 5
vt 0 0
vt 0 5
vt 32 0
vt 12 5.000053
vt 2.288818E-05 0
vt 0 5
vt 12.00002 5.340576E-05
vt 4.000023 3.999977
vt 0 0
vt 2.288818E-05 3.999969
vt 4 0
vt 4.000023 3.99996
vt 0 0
vt 4.577637E-05 3.999901
vt 4 0
vt 12 5
vt 0 0
vt 0 5
vt 12 0
vt 30 2
vt 32 2
vt 32 0
vt 0 0
vt 2 2
vt 0 2
vt 0 0
vt 2.670288E-05 2.000145
vt 2.000027 0.0001449585
vt 31.99999 2.000145
vt 30.00003 0.0001449585
vt 32 0.0001449585
vt 32.00003 2.000145
vt 30.00003 0.0001449585
vt 28 3
vt 23 0
vt 0 3
vt 5 0
vt 5 0
vt 0 3
vt 28 3
vt 23 0
vt 7 2
vt 0 0
vt 0 2
vt 32 0
vt 25 2
vt 32 2
vt 0 1
vt 32 0
vt 0 0
vt 32 1
vt 0 1
vt 40 0
vt 0 0
vt 40 1
vt 0 1
vt 32 0
vt 0 0
vt 32 1
vt 0 1
vt 40 0
vt 0 0
vt 40 1

g Combined_Mesh_(root:_scene)
usemtl Combined_Mesh_(root:_scene)
usemap Combined_Mesh_(root:_scene)
f 1/1/1 3/3/3 2/2/2
f 2/2/2 3/3/3 4/4/4
g Combined_Mesh_(root:_scene)_1
usemtl Combined_Mesh_(root:_scene)_1
usemap Combined_Mesh_(root:_scene)_1
f 5/5/5 7/7/7 6/6/6
f 6/6/6 7/7/7 8/8/8
f 9/9/9 11/11/11 10/10/10
f 9/9/9 10/10/10 12/12/12
f 13/13/13 15/15/15 14/14/14
f 13/13/13 14/14/14 16/16/16
f 17/17/17 19/19/19 18/18/18
f 17/17/17 18/18/18 20/20/20
f 21/21/21 23/23/23 22/22/22
f 22/22/22 23/23/23 24/24/24
f 25/25/25 27/27/27 26/26/26
f 25/25/25 26/26/26 28/28/28
f 29/29/29 31/31/31 30/30/30
f 29/29/29 30/30/30 32/32/32
f 33/33/33 35/35/35 34/34/34
f 33/33/33 34/34/34 36/36/36
f 37/37/37 39/39/39 38/38/38
f 38/38/38 39/39/39 40/40/40
f 41/41/41 43/43/43 42/42/42
f 41/41/41 42/42/42 44/44/44
f 45/45/45 47/47/47 46/46/46
f 45/45/45 46/46/46 48/48/48
f 49/49/49 51/51/51 50/50/50
f 49/49/49 50/50/50 52/52/52
f 53/53/53 55/55/55 54/54/54
f 54/54/54 55/55/55 56/56/56
f 57/57/57 59/59/59 58/58/58
f 57/57/57 58/58/58 60/60/60
f 61/61/61 63/63/63 62/62/62
f 61/61/61 62/62/62 64/64/64
f 65/65/65 67/67/67 66/66/66
f 65/65/65 66/66/66 68/68/68
f 69/69/69 71/71/71 70/70/70
f 70/70/70 71/71/71 72/72/72
f 73/73/73 75/75/75 74/74/74
f 73/73/73 74/74/74 76/76/76
f 77/77/77 79/79/79 78/78/78
f 77/77/77 78/78/78 80/80/80
f 81/81/81 83/83/83 82/82/82
f 81/81/81 82/82/82 84/84/84
f 85/85/85 87/87/87 86/86/86
f 86/86/86 87/87/87 88/88/88
f 89/89/89 91/91/91 90/90/90
f 89/89/89 90/90/90 92/92/92
f 93/93/93 95/95/95 94/94/94
f 93/93/93 94/94/94 96/96/96
f 97/97/97 99/99/99 98/98/98
f 97/97/97 98/98/98 100/100/100
f 101/101/101 103/103/103 102/102/102
f 102/102/102 103/103/103 104/104/104
f 105/105/105 107/107/107 106/106/106
f 105/105/105 106/106/106 108/108/108
f 109/109/109 111/111/111 110/110/110
f 109/109/109 110/110/110 112/112/112
f 113/113/113 115/115/115 114/114/114
f 113/113/113 114/114/114 116/116/116
f 117/117/117 119/119/119 118/118/118
f 118/118/118 119/119/119 120/120/120
f 121/121/121 123/123/123 122/122/122
f 121/121/121 122/122/122 124/124/124
f 125/125/125 127/127/127 126/126/126
f 125/125/125 126/126/126 128/128/128
f 129/129/129 131/131/131 130/130/130
f 129/129/129 130/130/130 132/132/132
g Combined_Mesh_(root:_scene)_2
usemtl Combined_Mesh_(root:_scene)_2
usemap Combined_Mesh_(root:_scene)_2
f 133/133/133 135/135/135 134/134/134
f 133/133/133 136/136/136 135/135/135
f 137/137/137 139/139/139 138/138/138
f 137/137/137 140/140/140 139/139/139
f 141/141/141 143/143/143 142/142/142
f 141/141/141 144/144/144 143/143/143
f 145/145/145 147/147/147 146/146/146
f 146/146/146 147/147/147 148/148/148
f 149/149/149 151/151/151 150/150/150
f 150/150/150 151/151/151 152/152/152
f 153/153/153 155/155/155 154/154/154
f 154/154/154 155/155/155 156/156/156
f 157/157/157 159/159/159 158/158/158
f 158/158/158 159/159/159 160/160/160
f 161/161/161 163/163/163 162/162/162
f 161/161/161 162/162/162 164/164/164
f 165/165/165 167/167/167 166/166/166
f 168/168/168 170/170/170 169/169/169
f 168/168/168 169/169/169 171/171/171
f 172/172/172 174/174/174 173/173/173
f 172/172/172 173/173/173 175/175/175
f 176/176/176 178/178/178 177/177/177
f 177/177/177 178/178/178 179/179/179
f 180/180/180 182/182/182 181/181/181
f 180/180/180 181/181/181 183/183/183
f 184/184/184 186/186/186 185/185/185
f 184/184/184 185/185/185 187/187/187
f 188/188/188 190/190/190 189/189/189
f 188/188/188 189/189/189 191/191/191
f 192/192/192 194/194/194 193/193/193
f 192/192/192 195/195/195 194/194/194
f 196/196/196 198/198/198 197/197/197
f 196/196/196 199/199/199 198/198/198
f 200/200/200 202/202/202 201/201/201
f 200/200/200 203/203/203 202/202/202
f 204/204/204 206/206/206 205/205/205
f 205/205/205 206/206/206 207/207/207
f 208/208/208 210/210/210 209/209/209
f 209/209/209 210/210/210 211/211/211
f 212/212/212 214/214/214 213/213/213
f 213/213/213 214/214/214 215/215/215
f 216/216/216 218/218/218 217/217/217
f 217/217/217 218/218/218 219/219/219
f 220/220/220 222/222/222 221/221/221
f 220/220/220 221/221/221 223/223/223
f 224/224/224 226/226/226 225/225/225
f 224/224/224 225/225/225 227/227/227
f 228/228/228 230/230/230 229/229/229
f 229/229/229 230/230/230 231/231/231
f 232/232/232 234/234/234 233/233/233
f 232/232/232 233/233/233 235/235/235
f 236/236/236 238/238/238 237/237/237
f 236/236/236 237/237/237 239/239/239
f 240/240/240 242/242/242 241/241/241
f 241/241/241 242/242/242 243/243/243
f 244/244/244 246/246/246 245/245/245
f 244/244/244 245/245/245 247/247/247
f 248/248/248 250/250/250 249/249/249
f 248/248/248 249/249/249 251/251/251
f 252/252/252 254/254/254 253/253/253
f 252/252/252 253/253/253 255/255/255
f 256/256/256 258/258/258 257/257/257
f 256/256/256 257/257/257 259/259/259
f 260/260/260 262/262/262 261/261/261
f 260/260/260 261/261/261 263/263/263
f 264/264/264 266/266/266 265/265/265
f 264/264/264 265/265/265 267/267/267
f 268/268/268 270/270/270 269/269/269
f 268/268/268 269/269/269 271/271/271
f 272/272/272 274/274/274 273/273/273
f 272/272/272 273/273/273 275/275/275
f 276/276/276 278/278/278 277/277/277
f 276/276/276 277/277/277 279/279/279
f 280/280/280 282/282/282 281/281/281
f 280/280/280 284/284/284 283/283/283
f 280/280/280 283/283/283 282/282/282
f 283/283/283 284/284/284 285/285/285
f 286/286/286 288/288/288 287/287/287
f 287/287/287 288/288/288 289/289/289
f 289/289/289 288/288/288 290/290/290
f 289/289/289 290/290/290 291/291/291
f 292/292/292 293/293/293 292/292/292
f 294/294/294 296/296/296 295/295/295
f 296/296/296 297/297/297 295/295/295
f 298/298/298 300/300/300 299/299/299
f 298/298/298 301/301/301 300/300/300
f 302/302/302 304/304/304 303/303/303
f 305/305/305 306/306/306 303/303/303
f 303/303/303 306/306/306 302/302/302
f 307/307/307 306/306/306 305/305/305
g Combined_Mesh_(root:_scene)_3
usemtl Combined_Mesh_(root:_scene)_3
usemap Combined_Mesh_(root:_scene)_3
f 308/308/308 310/310/310 309/309/309
f 308/308/308 309/309/309 311/311/311
f 312/312/312 314/314/314 313/313/313
f 312/312/312 313/313/313 315/315/315
f 316/316/316 318/318/318 317/317/317
f 316/316/316 317/317/317 319/319/319
f 320/320/320 322/322/322 321/321/321
f 320/320/320 321/321/321 323/323/323
