#Combined_Mesh_(root:_scene).obj

v -2 -1 30
v -5 -1 30
v -2 0 30
v -5 0 30
v -5 -1 30
v -5 -1 19
v -5 0 30
v -5 0 19
v -5 -1 19
v -2 -1 19
v -5 0 19
v -2 0 19
v -2 -1 19
v -2 -1 30
v -2 0 19
v -2 0 30
v -2 0 30
v -5 0 30
v -2 0 19
v -5 0 19
v -2 -1 19
v -5 -1 19
v -2 -1 30
v -5 -1 30
v -5 -1 46
v -5 -1 38
v -5 0 46
v -5 0 38
v -5 -1 38
v -2 -1 38
v -5 0 38
v -2 0 38
v -2 0 46
v -5 0 46
v -2 0 38
v -5 0 38
v -2 -1 38
v -5 -1 38
v -2 -1 46
v -5 -1 46
v -5 -1 58
v -5 0 58
v -5 -1 63
v -5 0 63
v -5 0 58
v -2 0 58
v -5 0 63
v -2 0 66
v -2 0 58
v -2 -1 58
v -2 0 66
v -2 -1 66
v -2 -1 58
v -5 -1 58
v -2 -1 66
v -5 -1 63
v -5 -1 63
v -5 0 63
v -23 -1 63
v -23 0 63
v -2 -1 66
v -5 -1 63
v -20 -1 66
v -23 -1 63
v -20 -1 84
v -23 -1 84
v -5 0 63
v -2 0 66
v -23 0 63
v -20 0 66
v -2 0 66
v -2 -1 66
v -20 0 66
v -20 -1 66
v -20 0 66
v -20 -1 66
v -20 0 84
v -20 -1 84
v -23 0 63
v -20 0 66
v -23 0 84
v -20 0 84
v -23 -1 63
v -23 0 63
v -23 -1 84
v -23 0 84
v -2 0 38
v -2 -1 38
v -2 0 46
v -2 -1 46
v -5 -1 58
v -6 -1 46
v -6 -1 58
v -2 -1 46
v 0 -1 58
v 0 -1 46
v -2 0 57
v -2 0 47
v -1 0 47
v -1 0 57
v -5 0 58
v -2 0 58
v -2 0 46
v -5 0 47
v -5 0 57
v 0 -1 58
v -2 -1 58
v 0 0 58
v -2 0 58
v -6 -1 46
v -5 -1 46
v -5 0 46
v -6 0 46
v -6 -1 58
v -6 0 58
v -5 0 58
v -5 -1 58
v -6 0 47
v -6 0 57
v -5 0 46
v -6 -1 46
v -6 0 46
v -6 0 47
v -6 0 57
v -6 -1 58
v -6 0 58
v 0 0 46
v -2 0 46
v -2 -1 46
v 0 -1 46
v 0 0 58
v 0 -1 46
v 0 -1 58
v 0 0 46
v -2 3 47
v -2 3 46
v -1 3 47
v 0 3 46
v 0 3 58
v -1 3 57
v -2 3 58
v -2 3 57
v 0 3 58
v -1 3 57
v -2 0 47
v -2 0 46
v -2 3 47
v -2 3 46
v -1 0 47
v -2 0 47
v -1 3 47
v -2 3 47
v -2 0 46
v 0 0 46
v -2 3 46
v 0 3 46
v 0 0 46
v 0 0 58
v 0 3 46
v 0 3 58
v -1 0 57
v -1 0 47
v -1 3 57
v -1 3 47
v -2 0 58
v -2 0 57
v -2 3 58
v -2 3 57
v 0 0 58
v -2 0 58
v 0 3 58
v -2 3 58
v -2 0 57
v -1 0 57
v -2 3 57
v -1 3 57
v -5 3 58
v -6 3 58
v -5 3 57
v -6 3 57
v -6 0 46
v -5 0 46
v -6 3 46
v -5 3 46
v -6 0 47
v -6 0 46
v -6 3 47
v -6 3 46
v -5 0 46
v -5 0 47
v -5 3 46
v -5 3 47
v -5 0 47
v -6 0 47
v -5 3 47
v -6 3 47
v -5 0 58
v -6 0 58
v -5 3 58
v -6 3 58
v -5 0 57
v -5 0 58
v -5 3 57
v -5 3 58
v -6 0 58
v -6 0 57
v -6 3 58
v -6 3 57
v -6 0 57
v -5 0 57
v -6 3 57
v -5 3 57
v -2 3 46
v -2 3 47
v -2 4 46
v -2 4 47
v -5 3 46
v -5 3 47
v -2 3 46
v -2 3 47
v -5 4 46
v -5 3 46
v -2 4 46
v -2 3 46
v -5 3 58
v -5 4 58
v -2 3 58
v -2 4 58
v -5 4 47
v -5 4 46
v -2 4 47
v -2 4 46
v -5 3 47
v -6 3 46
v -5 3 46
v -6 3 47
v -5 4 47
v -5 3 46
v -5 4 46
v -5 3 47
v -6 3 47
v -6 4 47
v -6 3 57
v -6 4 57
v -2 3 47
v -5 3 47
v -2 3 57
v -5 3 57
v -5 4 47
v -2 4 47
v -5 4 57
v -2 4 57
v -1 4 47
v -1 3 47
v -1 4 57
v -1 3 57
v -5 3 57
v -5 4 57
v -5 3 58
v -5 4 58
v -2 3 57
v -5 3 57
v -2 3 58
v -5 3 58
v -5 4 57
v -2 4 57
v -5 4 58
v -2 4 58
v -2 4 57
v -2 3 57
v -2 4 58
v -2 3 58
v -2 4 47
v -2 3 47
v -1 4 47
v -1 3 47
v -2 4 57
v -2 4 47
v -1 4 57
v -1 4 47
v -2 3 47
v -2 3 57
v -1 3 47
v -1 3 57
v -2 3 57
v -2 4 57
v -1 3 57
v -1 4 57
v -5 3 47
v -5 4 47
v -6 3 47
v -6 4 47
v -5 3 57
v -5 3 47
v -6 3 57
v -6 3 47
v -5 4 47
v -5 4 57
v -6 4 47
v -6 4 57
v -5 4 57
v -5 3 57
v -6 4 57
v -6 3 57
v -12 1 59
v -16 1 59
v -12 2 59
v -16 2 59
v -11 2 6
v -17 2 6
v -11 2 -1
v -17 2 -1
v -16 1 6
v -16 2 55
v -16 1 55
v -16 2 6
v -12 1 55
v -12 2 6
v -12 1 6
v -12 2 55
v -16 2 6
v -12 2 55
v -16 2 55
v -12 2 6
v -16 1 6
v -12 1 55
v -12 1 6
v -16 1 55
v -12 1 55
v -16 1 55
v -12 1 59
v -16 1 59
v -12 2 55
v -12 1 55
v -12 2 59
v -12 1 59
v -34 1 55
v -34 2 55
v -34 1 59
v -34 2 59
v -16 2 55
v -12 2 55
v -16 2 59
v -12 2 59
v -16 1 55
v -16 2 55
v -30 1 55
v -30 2 55
v -16 1 59
v -16 1 55
v -30 1 59
v -30 1 55
v -16 2 55
v -16 2 59
v -30 2 55
v -30 2 59
v -16 2 59
v -16 1 59
v -30 2 59
v -30 1 59
v -30 1 55
v -30 2 55
v -34 1 55
v -34 2 55
v -30 1 59
v -30 1 55
v -34 1 59
v -34 1 55
v -30 2 55
v -30 2 59
v -34 2 55
v -34 2 59
v -30 2 59
v -30 1 59
v -30 2 84
v -30 1 84
v -34 2 59
v -30 2 59
v -34 2 84
v -30 2 84
v -30 1 59
v -34 1 59
v -30 1 84
v -34 1 84
v -34 1 59
v -34 2 59
v -34 1 84
v -34 2 84
v -12 1 6
v -11 2 6
v -10 1 6
v -12 2 6
v -18 1 6
v -16 2 6
v -16 1 6
v -17 2 6
v -17 3 6
v -18 3 6
v -17 3 -1
v -17 3 6
v -18 3 -2
v -18 3 6
v -17 2 -1
v -17 2 6
v -17 3 -1
v -17 3 6
v -18 1 6
v -18 1 -2
v -18 3 6
v -18 3 -2
v -11 3 6
v -11 3 -1
v -10 3 6
v -10 3 -2
v -17 3 -1
v -18 3 -2
v -11 2 6
v -11 2 -1
v -11 3 6
v -11 3 -1
v -10 1 6
v -11 2 6
v -10 3 6
v -11 3 6
v -10 1 -2
v -10 1 6
v -10 3 -2
v -10 3 6
v -11 2 -1
v -17 2 -1
v -11 3 -1
v -17 3 -1
v -10 1 6
v -18 1 -2
v -18 1 6
v -10 1 -2
v -2 4 6
v -5 3 6
v -5 4 6
v -2 3 6
v 0 4 6
v -2 3 6
v -2 4 6
v 0 -1 6
v -2 -1 6
v -7 4 6
v -5 4 6
v -5 3 6
v -7 -1 6
v -5 -1 6
v 0 4 -2
v -7 4 6
v -7 4 -2
v 0 4 6
v 0 4 6
v 0 4 -2
v 0 -1 6
v 0 -1 -2
v 0 -1 -2
v -2 -1 6
v 0 -1 6
v -7 -1 6
v -7 -1 -2
v -7 4 -2
v -7 4 6
v -7 -1 6
v -7 -1 -2
v -2 -1 13
v -5 -1 13
v -2 0 13
v -5 0 13
v -5 -1 13
v -5 -1 6
v -5 0 13
v -5 0 6
v -2 -1 6
v -2 -1 13
v -2 0 6
v -2 0 13
v -2 -1 6
v -5 -1 6
v -2 -1 13
v -5 -1 13
v -2 0 13
v -5 0 13
v -2 0 5
v -5 0 5
v -5 0 5
v -6 0 5
v -6 0 -1
v -2 0 5
v -1 0 -1
v -1 0 5
v -6 3 5
v -6 0 -1
v -6 0 5
v -6 3 -1
v -5 0 5
v -6 3 5
v -6 0 5
v -5 3 5
v -5 0 6
v -5 3 5
v -5 0 5
v -5 3 6
v -1 3 5
v -6 3 -1
v -6 3 5
v -1 3 -1
v -2 3 6
v -5 3 5
v -5 3 6
v -2 3 5
v -2 0 6
v -2 3 5
v -2 3 6
v -2 0 5
v -1 0 5
v -2 3 5
v -2 0 5
v -1 3 5
v -1 0 -1
v -1 3 5
v -1 0 5
v -1 3 -1
v -6 0 -1
v -1 3 -1
v -1 0 -1
v -6 3 -1
v -19 6 -2
v 1 -3 -2
v -19 -3 -2
v 1 6 -2
v 1 6 69
v 1 -3 -2
v 1 6 -2
v 1 -3 69
v -17 6 69
v 1 -3 69
v 1 6 69
v -17 -3 69
v -17 6 84
v -17 -3 69
v -17 6 69
v -17 -3 84
v -37 6 84
v -17 -3 84
v -17 6 84
v -37 -3 84
v -37 6 52
v -37 -3 84
v -37 6 84
v -37 -3 52
v -19 6 52
v -37 -3 52
v -37 6 52
v -19 -3 52
v -19 6 -2
v -19 -3 52
v -19 6 52
v -19 -3 -2
v 1 -5 69
v 1 -3 -2
v 1 -3 69
v 1 -5 -2
v -19 -5 -2
v 1 -3 -2
v 1 -5 -2
v -19 -3 -2
v -19 -5 52
v -19 -3 -2
v -19 -5 -2
v -19 -3 52
v -37 -5 52
v -19 -3 52
v -19 -5 52
v -37 -3 52
v -37 -5 84
v -37 -3 52
v -37 -5 52
v -37 -3 84
v -17 -5 84
v -37 -3 84
v -37 -5 84
v -17 -3 84
v -17 -5 69
v -17 -3 84
v -17 -5 84
v -17 -3 69
v 1 -5 69
v -17 -3 69
v -17 -5 69
v 1 -3 69
v 1 -5 -2
v -19 -5 52
v -19 -5 -2
v 1 -5 69
v 1 -5 69
v -17 -5 69
v -19 -5 52
v -37 -5 84
v -19 -5 52
v -17 -5 69
v -37 -5 52
v -17 -5 84
v -37 -5 84
v -17 -5 69
v -13 7 64
v -14 7 64
v -13 7 67
v -14 7 67
v -14 7 64
v -13 7 64
v -14 8 64
v -13 8 64
v -13 8 64
v -13 7 64
v -13 8 68
v -13 7 67
v -14 7 64
v -14 8 64
v -14 7 67
v -14 8 68
v -14 8 64
v -13 8 64
v -14 8 68
v -13 8 68
v -13 7 67
v -14 7 67
v -13 3 67
v -14 3 67
v -13 8 68
v -13 7 67
v -13 4 68
v -13 3 67
v -14 7 67
v -14 8 68
v -14 3 67
v -14 4 68
v -14 3 70
v -14 4 70
v -14 8 68
v -13 8 68
v -14 4 68
v -13 4 68
v -14 4 68
v -13 4 68
v -14 4 70
v -13 4 70
v -13 4 68
v -13 3 67
v -13 4 70
v -13 3 70
v -13 3 67
v -14 3 67
v -13 3 70
v -14 3 70

vn 0 0 1
vn 0 0 1
vn 0 0 1
vn 0 0 1
vn -1 0 0
vn -1 0 0
vn -1 0 0
vn -1 0 0
vn 0 0 -1
vn 0 0 -1
vn 0 0 -1
vn 0 0 -1
vn 1 0 0
vn 1 0 0
vn 1 0 0
vn 1 0 0
vn 0 1 0
vn 0 1 0
vn 0 1 0
vn 0 1 0
vn 0 -1 0
vn 0 -1 0
vn 0 -1 0
vn 0 -1 0
vn -1 0 0
vn -1 0 0
vn -1 0 0
vn -1 0 0
vn 0 0 -1
vn 0 0 -1
vn 0 0 -1
vn 0 0 -1
vn 0 1 0
vn 0 1 0
vn 0 1 0
vn 0 1 0
vn 0 -1 0
vn 0 -1 0
vn 0 -1 0
vn 0 -1 0
vn -1 0 0
vn -1 0 0
vn -1 0 0
vn -1 0 0
vn 0 1 0
vn 0 1 0
vn 0 1 0
vn 0 1 0
vn 1 0 0
vn 1 0 0
vn 1 0 0
vn 1 0 0
vn 0 -1 0
vn 0 -1 0
vn 0 -1 0
vn 0 -1 0
vn 0 0 -1
vn 0 0 -1
vn 0 0 -1
vn 0 0 -1
vn 0 -1 0
vn 0 -1 0
vn 0 -1 0
vn 0 -1 0
vn 0 -1 0
vn 0 -1 0
vn 0 1 0
vn 0 1 0
vn 0 1 0
vn 0 1 0
vn 0 0 1
vn 0 0 1
vn 0 0 1
vn 0 0 1
vn 1 0 0
vn 1 0 0
vn 1 0 0
vn 1 0 0
vn 0 1 0
vn 0 1 0
vn 0 1 0
vn 0 1 0
vn -1 0 0
vn -1 0 0
vn -1 0 0
vn -1 0 0
vn 1 0 0
vn 1 0 0
vn 1 0 0
vn 1 0 0
vn 0 -1 0
vn 0 -1 0
vn 0 -1 0
vn 0 -1 0
vn 0 -1 0
vn 0 -1 0
vn 0 1 0
vn 0 1 0
vn 0 1 0
vn 0 1 0
vn 0 1 0
vn 0 1 0
vn 0 1 0
vn 0 1 0
vn 0 1 0
vn 0 0 1
vn 0 0 1
vn 0 0 1
vn 0 0 1
vn 0 0 -1
vn 0 0 -1
vn 0 0 -1
vn 0 0 -1
vn 0 0 1
vn 0 0 1
vn 0 0 1
vn 0 0 1
vn 0 1 0
vn 0 1 0
vn 0 1 0
vn -1 0 0
vn -1 0 0
vn -1 0 0
vn -1 0 0
vn -1 0 0
vn -1 0 0
vn 0 0 -1
vn 0 0 -1
vn 0 0 -1
vn 0 0 -1
vn 1 0 0
vn 1 0 0
vn 1 0 0
vn 1 0 0
vn 0 1 0
vn 0 1 0
vn 0 1 0
vn 0 1 0
vn 0 1 0
vn 0 1 0
vn 0 1 0
vn 0 1 0
vn 0 1 0
vn 0 1 0
vn -1 0 0
vn -1 0 0
vn -1 0 0
vn -1 0 0
vn 0 0 1
vn 0 0 1
vn 0 0 1
vn 0 0 1
vn 0 0 -1
vn 0 0 -1
vn 0 0 -1
vn 0 0 -1
vn 1 0 0
vn 1 0 0
vn 1 0 0
vn 1 0 0
vn -1 0 0
vn -1 0 0
vn -1 0 0
vn -1 0 0
vn -1 0 0
vn -1 0 0
vn -1 0 0
vn -1 0 0
vn 0 0 1
vn 0 0 1
vn 0 0 1
vn 0 0 1
vn 0 0 -1
vn 0 0 -1
vn 0 0 -1
vn 0 0 -1
vn 0 1 0
vn 0 1 0
vn 0 1 0
vn 0 1 0
vn 0 0 -1
vn 0 0 -1
vn 0 0 -1
vn 0 0 -1
vn -1 0 0
vn -1 0 0
vn -1 0 0
vn -1 0 0
vn 1 0 0
vn 1 0 0
vn 1 0 0
vn 1 0 0
vn 0 0 1
vn 0 0 1
vn 0 0 1
vn 0 0 1
vn 0 0 1
vn 0 0 1
vn 0 0 1
vn 0 0 1
vn 1 0 0
vn 1 0 0
vn 1 0 0
vn 1 0 0
vn -1 0 0
vn -1 0 0
vn -1 0 0
vn -1 0 0
vn 0 0 -1
vn 0 0 -1
vn 0 0 -1
vn 0 0 -1
vn 1 0 0
vn 1 0 0
vn 1 0 0
vn 1 0 0
vn 0 -1 0
vn 0 -1 0
vn 0 -1 0
vn 0 -1 0
vn 0 0 -1
vn 0 0 -1
vn 0 0 -1
vn 0 0 -1
vn 0 0 1
vn 0 0 1
vn 0 0 1
vn 0 0 1
vn 0 1 0
vn 0 1 0
vn 0 1 0
vn 0 1 0
vn 0 1 0
vn 0 1 0
vn 0 1 0
vn 0 1 0
vn -1 0 0
vn -1 0 0
vn -1 0 0
vn -1 0 0
vn -1 0 0
vn -1 0 0
vn -1 0 0
vn -1 0 0
vn 0 -1 0
vn 0 -1 0
vn 0 -1 0
vn 0 -1 0
vn 0 1 0
vn 0 1 0
vn 0 1 0
vn 0 1 0
vn 1 0 0
vn 1 0 0
vn 1 0 0
vn 1 0 0
vn -1 0 0
vn -1 0 0
vn -1 0 0
vn -1 0 0
vn 0 -1 0
vn 0 -1 0
vn 0 -1 0
vn 0 -1 0
vn 0 1 0
vn 0 1 0
vn 0 1 0
vn 0 1 0
vn 1 0 0
vn 1 0 0
vn 1 0 0
vn 1 0 0
vn 0 0 -1
vn 0 0 -1
vn 0 0 -1
vn 0 0 -1
vn 0 1 0
vn 0 1 0
vn 0 1 0
vn 0 1 0
vn 0 -1 0
vn 0 -1 0
vn 0 -1 0
vn 0 -1 0
vn 0 0 1
vn 0 0 1
vn 0 0 1
vn 0 0 1
vn 0 0 -1
vn 0 0 -1
vn 0 0 -1
vn 0 0 -1
vn 0 -1 0
vn 0 -1 0
vn 0 -1 0
vn 0 -1 0
vn 0 1 0
vn 0 1 0
vn 0 1 0
vn 0 1 0
vn 0 0 1
vn 0 0 1
vn 0 0 1
vn 0 0 1
vn 0 0 1
vn 0 0 1
vn 0 0 1
vn 0 0 1
vn 0 1 0
vn 0 1 0
vn 0 1 0
vn 0 1 0
vn -1 0 0
vn -1 0 0
vn -1 0 0
vn -1 0 0
vn 1 0 0
vn 1 0 0
vn 1 0 0
vn 1 0 0
vn 0 1 0
vn 0 1 0
vn 0 1 0
vn 0 1 0
vn 0 -1 0
vn 0 -1 0
vn 0 -1 0
vn 0 -1 0
vn 0 -1 0
vn 0 -1 0
vn 0 -1 0
vn 0 -1 0
vn 1 0 0
vn 1 0 0
vn 1 0 0
vn 1 0 0
vn -1 0 0
vn -1 0 0
vn -1 0 0
vn -1 0 0
vn 0 1 0
vn 0 1 0
vn 0 1 0
vn 0 1 0
vn 0 0 -1
vn 0 0 -1
vn 0 0 -1
vn 0 0 -1
vn 0 -1 0
vn 0 -1 0
vn 0 -1 0
vn 0 -1 0
vn 0 1 0
vn 0 1 0
vn 0 1 0
vn 0 1 0
vn 0 0 1
vn 0 0 1
vn 0 0 1
vn 0 0 1
vn 0 0 -1
vn 0 0 -1
vn 0 0 -1
vn 0 0 -1
vn 0 -1 0
vn 0 -1 0
vn 0 -1 0
vn 0 -1 0
vn 0 1 0
vn 0 1 0
vn 0 1 0
vn 0 1 0
vn 1 0 0
vn 1 0 0
vn 1 0 0
vn 1 0 0
vn 0 1 0
vn 0 1 0
vn 0 1 0
vn 0 1 0
vn 0 -1 0
vn 0 -1 0
vn 0 -1 0
vn 0 -1 0
vn -1 0 0
vn -1 0 0
vn -1 0 0
vn -1 0 0
vn 0 0 1
vn 0 0 1
vn 0 0 1
vn 0 0 1
vn 0 0 1
vn 0 0 1
vn 0 0 1
vn 0 0 1
vn 0 0 1
vn 0 0 1
vn 0 1 0
vn 0 1 0
vn 0 1 0
vn 0 1 0
vn 1 0 0
vn 1 0 0
vn 1 0 0
vn 1 0 0
vn -1 0 0
vn -1 0 0
vn -1 0 0
vn -1 0 0
vn 0 1 0
vn 0 1 0
vn 0 1 0
vn 0 1 0
vn 0 1 0
vn 0 1 0
vn -1 0 0
vn -1 0 0
vn -1 0 0
vn -1 0 0
vn 0 0 1
vn 0 0 1
vn 0 0 1
vn 0 0 1
vn 1 0 0
vn 1 0 0
vn 1 0 0
vn 1 0 0
vn 0 0 1
vn 0 0 1
vn 0 0 1
vn 0 0 1
vn 0 -1 0
vn 0 -1 0
vn 0 -1 0
vn 0 -1 0
vn 0 0 1
vn 0 0 1
vn 0 0 1
vn 0 0 1
vn 0 0 1
vn 0 0 1
vn 0 0 1
vn 0 0 1
vn 0 0 1
vn 0 0 1
vn 0 0 1
vn 0 0 1
vn 0 0 1
vn 0 0 1
vn 0 1 0
vn 0 1 0
vn 0 1 0
vn 0 1 0
vn 1 0 0
vn 1 0 0
vn 1 0 0
vn 1 0 0
vn 0 -1 0
vn 0 -1 0
vn 0 -1 0
vn 0 -1 0
vn 0 -1 0
vn -1 0 0
vn -1 0 0
vn -1 0 0
vn -1 0 0
vn 0 0 1
vn 0 0 1
vn 0 0 1
vn 0 0 1
vn -1 0 0
vn -1 0 0
vn -1 0 0
vn -1 0 0
vn 1 0 0
vn 1 0 0
vn 1 0 0
vn 1 0 0
vn 0 -1 0
vn 0 -1 0
vn 0 -1 0
vn 0 -1 0
vn 0 1 0
vn 0 1 0
vn 0 1 0
vn 0 1 0
vn 0 1 0
vn 0 1 0
vn 0 1 0
vn 0 1 0
vn 0 1 0
vn 0 1 0
vn 1 0 0
vn 1 0 0
vn 1 0 0
vn 1 0 0
vn 0 0 -1
vn 0 0 -1
vn 0 0 -1
vn 0 0 -1
vn 1 0 0
vn 1 0 0
vn 1 0 0
vn 1 0 0
vn 0 -1 0
vn 0 -1 0
vn 0 -1 0
vn 0 -1 0
vn 0 -1 0
vn 0 -1 0
vn 0 -1 0
vn 0 -1 0
vn -1 0 0
vn -1 0 0
vn -1 0 0
vn -1 0 0
vn 0 0 -1
vn 0 0 -1
vn 0 0 -1
vn 0 0 -1
vn -1 0 0
vn -1 0 0
vn -1 0 0
vn -1 0 0
vn 0 0 1
vn 0 0 1
vn 0 0 1
vn 0 0 1
vn 0 0 1
vn 0 0 1
vn 0 0 1
vn 0 0 1
vn -1 0 0
vn -1 0 0
vn -1 0 0
vn -1 0 0
vn 0 0 -1
vn 0 0 -1
vn 0 0 -1
vn 0 0 -1
vn -1 0 0
vn -1 0 0
vn -1 0 0
vn -1 0 0
vn 0 0 -1
vn 0 0 -1
vn 0 0 -1
vn 0 0 -1
vn 1 0 0
vn 1 0 0
vn 1 0 0
vn 1 0 0
vn 0 0 1
vn 0 0 1
vn 0 0 1
vn 0 0 1
vn 0.9999999 0 0
vn 0.9999999 0 0
vn 0.9999999 0 0
vn 0.9999999 0 0
vn -1 0 0
vn -1 0 0
vn -1 0 0
vn -1 0 0
vn 0 0 1
vn 0 0 1
vn 0 0 1
vn 0 0 1
vn 1 0 0
vn 1 0 0
vn 1 0 0
vn 1 0 0
vn 0 0 1
vn 0 0 1
vn 0 0 1
vn 0 0 1
vn 1 0 0
vn 1 0 0
vn 1 0 0
vn 1 0 0
vn 0 0 -1
vn 0 0 -1
vn 0 0 -1
vn 0 0 -1
vn -1 0 0
vn -1 0 0
vn -1 0 0
vn -1 0 0
vn 0 0 -1
vn 0 0 -1
vn 0 0 -1
vn 0 0 -1
vn 0 1 0
vn 0 1 0
vn 0 1 0
vn 0 0.9999999 0
vn 0 1 0
vn 0 1 0
vn 0 1 0
vn 0 1 0
vn 0 1 0
vn 0 1 0
vn 0 1 0
vn 0 1 0
vn 0 1 0
vn 0 1 0
vn 0 -1 0
vn 0 -1 0
vn 0 -1 0
vn 0 -1 0
vn 0 0 -1
vn 0 0 -1
vn 0 0 -1
vn 0 0 -1
vn 1 0 0
vn 1 0 0
vn 1 0 0
vn 1 0 0
vn -1 0 0
vn -1 0 0
vn -1 0 0
vn -1 0 0
vn 0 1 0
vn 0 1 0
vn 0 1 0
vn 0 1 0
vn 0 0 -1
vn 0 0 -1
vn 0 0 -1
vn 0 0 -1
vn 1 0 0
vn 1 0 0
vn 1 0 0
vn 1 0 0
vn -1 0 0
vn -1 0 0
vn -1 0 0
vn -1 0 0
vn -1 0 0
vn -1 0 0
vn 0 0 1
vn 0 0 1
vn 0 0 1
vn 0 0 1
vn 0 1 0
vn 0 1 0
vn 0 1 0
vn 0 1 0
vn 1 0 0
vn 1 0 0
vn 1 0 0
vn 1 0 0
vn 0 -1 0
vn 0 -1 0
vn 0 -1 0
vn 0 -1 0

vt 3 0
vt 0 0
vt 3 1
vt 0 1
vt 11 0
vt 0 0
vt 11 1
vt 0 1
vt 3 0
vt 0 0
vt 3 1
vt 0 1
vt 11 0
vt 0 0
vt 11 1
vt 0 1
vt 0 11
vt 3 11
vt 0 0
vt 3 0
vt 3 0
vt 0 0
vt 3 11
vt 0 11
vt 8 0
vt 0 0
vt 8 1
vt 0 1
vt 3 0
vt 0 0
vt 3 1
vt 0 1
vt 0 8
vt 3 8
vt 0 0
vt 3 0
vt 3 0
vt 0 0
vt 3 8
vt 0 8
vt 0 0
vt 0 1
vt 5 0
vt 5 1
vt 3 0
vt 0 0
vt 3 5
vt 0 8
vt 8 1
vt 8 0
vt 0 1
vt 0 0
vt 3 0
vt 0 0
vt 3 8
vt 0 5
vt 0 0
vt 0 1
vt 18 0
vt 18 1
vt 21 3
vt 18 0
vt 3 3
vt 0 0
vt 3 21
vt 0 21
vt 3 0
vt 0 3
vt 21 0
vt 18 3
vt 18 1
vt 18 0
vt 0 1
vt 0 0
vt 18 1
vt 18 0
vt 0 1
vt 0 0
vt 3 0
vt 0 3
vt 3 21
vt 0 21
vt 0 0
vt 0 1
vt 21 0
vt 21 1
vt 8 1
vt 8 0
vt 0 1
vt 0 0
vt 1 12
vt 0 0
vt 0 12
vt 4 0
vt 6 12
vt 6 0
vt 1 11
vt 1 1
vt 0 1
vt 0 11
vt 4 12
vt 1 12
vt 1 0
vt 4 1
vt 4 11
vt 2 0
vt 0 0
vt 2 1
vt 0 1
vt 1 0
vt 0 0
vt 0 1
vt 1 1
vt 0 0
vt 0 1
vt 1 1
vt 1 0
vt 5 1
vt 5 11
vt 4 0
vt 0 0
vt 0 1
vt 1 1
vt 11 1
vt 12 0
vt 12 1
vt 0 1
vt 2 1
vt 2 0
vt 0 0
vt 0 1
vt 12 0
vt 0 0
vt 12 1
vt 2 1
vt 2 0
vt 1 1
vt 0 0
vt 0 12
vt 1 11
vt 2 1
vt 2 0
vt 0 1
vt 1 0
vt 1 0
vt 0 0
vt 1 3
vt 0 3
vt 1 0
vt 0 0
vt 1 3
vt 0 3
vt 2 0
vt 0 0
vt 2 3
vt 0 3
vt 12 0
vt 0 0
vt 12 3
vt 0 3
vt 10 0
vt 0 0
vt 10 3
vt 0 3
vt 1 0
vt 0 0
vt 1 3
vt 0 3
vt 2 0
vt 0 0
vt 2 3
vt 0 3
vt 1 0
vt 0 0
vt 1 3
vt 0 3
vt 0 1
vt 1 1
vt 0 0
vt 1 0
vt 1 0
vt 0 0
vt 1 3
vt 0 3
vt 1 0
vt 0 0
vt 1 3
vt 0 3
vt 1 0
vt 0 0
vt 1 3
vt 0 3
vt 1 0
vt 0 0
vt 1 3
vt 0 3
vt 1 0
vt 0 0
vt 1 3
vt 0 3
vt 1 0
vt 0 0
vt 1 3
vt 0 3
vt 1 0
vt 0 0
vt 1 3
vt 0 3
vt 1 0
vt 0 0
vt 1 3
vt 0 3
vt 1 0
vt 0 0
vt 1 1
vt 0 1
vt 0 0
vt 0 1
vt 3 0
vt 3 1
vt 3 1
vt 3 0
vt 0 1
vt 0 0
vt 0 0
vt 0 1
vt 3 0
vt 3 1
vt 3 1
vt 3 0
vt 0 1
vt 0 0
vt 0 1
vt 1 0
vt 0 0
vt 1 1
vt 1 1
vt 0 0
vt 0 1
vt 1 0
vt 0 0
vt 0 1
vt 10 0
vt 10 1
vt 3 0
vt 0 0
vt 3 10
vt 0 10
vt 3 0
vt 0 0
vt 3 10
vt 0 10
vt 10 1
vt 10 0
vt 0 1
vt 0 0
vt 0 0
vt 0 1
vt 1 0
vt 1 1
vt 3 0
vt 0 0
vt 3 1
vt 0 1
vt 3 0
vt 0 0
vt 3 1
vt 0 1
vt 1 1
vt 1 0
vt 0 1
vt 0 0
vt 1 1
vt 1 0
vt 0 1
vt 0 0
vt 1 10
vt 1 0
vt 0 10
vt 0 0
vt 0 0
vt 0 10
vt 1 0
vt 1 10
vt 0 0
vt 0 1
vt 1 0
vt 1 1
vt 0 0
vt 0 1
vt 1 0
vt 1 1
vt 1 10
vt 1 0
vt 0 10
vt 0 0
vt 0 0
vt 0 10
vt 1 0
vt 1 10
vt 1 1
vt 1 0
vt 0 1
vt 0 0
vt 4 0
vt 0 0
vt 4 1
vt 0 1
vt 0 7
vt 6 7
vt 0 0
vt 6 0
vt 0 0
vt 49 1
vt 49 0
vt 0 1
vt 0 0
vt 49 1
vt 49 0
vt 0 1
vt 4 0
vt 0 49
vt 4 49
vt 0 0
vt 0 0
vt 4 49
vt 4 0
vt 0 49
vt 4 0
vt 0 0
vt 4 4
vt 0 4
vt 4 1
vt 4 0
vt 0 1
vt 0 0
vt 0 0
vt 0 1
vt 4 0
vt 4 1
vt 4 0
vt 0 0
vt 4 4
vt 0 4
vt 0 0
vt 0 1
vt 14 0
vt 14 1
vt 14 4
vt 14 0
vt 0 4
vt 0 0
vt 0 0
vt 0 4
vt 14 0
vt 14 4
vt 14 1
vt 14 0
vt 0 1
vt 0 0
vt 0 0
vt 0 1
vt 4 0
vt 4 1
vt 4 4
vt 4 0
vt 0 4
vt 0 0
vt 0 0
vt 0 4
vt 4 0
vt 4 4
vt 25 1
vt 25 0
vt 0 1
vt 0 0
vt 4 0
vt 0 0
vt 4 25
vt 0 25
vt 4 0
vt 0 0
vt 4 25
vt 0 25
vt 0 0
vt 0 1
vt 25 0
vt 25 1
vt 0 0
vt 1 1
vt 2 0
vt 0 1
vt 0 0
vt 2 1
vt 2 0
vt 1 1
vt 1 2
vt 0 2
vt 0 1
vt 0 8
vt 1 0
vt 1 8
vt 7 0
vt 0 0
vt 7 1
vt 0 1
vt 8 0
vt 0 0
vt 8 2
vt 0 2
vt 1 8
vt 1 1
vt 0 8
vt 0 0
vt 7 1
vt 8 0
vt 7 0
vt 0 0
vt 7 1
vt 0 1
vt 1 0
vt 0 1
vt 1 2
vt 0 2
vt 8 0
vt 0 0
vt 8 2
vt 0 2
vt 6 0
vt 0 0
vt 6 1
vt 0 1
vt 8 8
vt 0 0
vt 0 8
vt 8 0
vt 3 1
vt 0 0
vt 0 1
vt 3 0
vt 2 5
vt 0 4
vt 0 5
vt 2 0
vt 0 0
vt 0 5
vt 2 5
vt 2 4
vt 0 0
vt 2 0
vt 0 0
vt 7 8
vt 7 0
vt 0 8
vt 0 5
vt 8 5
vt 0 0
vt 8 0
vt 7 0
vt 5 8
vt 7 8
vt 0 8
vt 0 0
vt 0 5
vt 8 5
vt 8 0
vt 0 0
vt 3 0
vt 0 0
vt 3 1
vt 0 1
vt 7 0
vt 0 0
vt 7 1
vt 0 1
vt 7 0
vt 0 0
vt 7 1
vt 0 1
vt 3 0
vt 0 0
vt 3 7
vt 0 7
vt 0 8
vt 3 8
vt 0 0
vt 3 0
vt 4 6
vt 5 6
vt 5 0
vt 1 6
vt 0 0
vt 0 6
vt 0 3
vt 6 0
vt 0 0
vt 6 3
vt 0 0
vt 1 3
vt 1 0
vt 0 3
vt 0 0
vt 1 3
vt 1 0
vt 0 3
vt 5 6
vt 0 0
vt 0 6
vt 5 0
vt 3 1
vt 0 0
vt 0 1
vt 3 0
vt 1 0
vt 0 3
vt 1 3
vt 0 0
vt 0 0
vt 1 3
vt 1 0
vt 0 3
vt 0 0
vt 6 3
vt 6 0
vt 0 3
vt 0 0
vt 5 3
vt 5 0
vt 0 3
vt 0 9
vt 20 0
vt 0 0
vt 20 9
vt 71 9
vt 0 0
vt 0 9
vt 71 0
vt 18 9
vt 0 0
vt 0 9
vt 18 0
vt 15 9
vt 0 0
vt 0 9
vt 15 0
vt 20 9
vt 0 0
vt 0 9
vt 20 0
vt 32 9
vt 0 0
vt 0 9
vt 32 0
vt 18 9
vt 0 0
vt 0 9
vt 18 0
vt 54 9
vt 0 0
vt 0 9
vt 54 0
vt 71 0
vt 0 2
vt 71 2
vt 0 0
vt 0 0
vt 20 2
vt 20 0
vt 0 2
vt 0 0
vt 54 2
vt 54 0
vt 0 2
vt 0 0
vt 18 2
vt 18 0
vt 0 2
vt 0 0
vt 32 2
vt 32 0
vt 0 2
vt 0 0
vt 20 2
vt 20 0
vt 0 2
vt 0 0
vt 15 2
vt 15 0
vt 0 2
vt 0 0
vt 18 2
vt 18 0
vt 0 2
vt 0 0
vt 20 54
vt 20 0
vt 0 71
vt 0 17
vt 18 17
vt 20 0
vt 20 32
vt 2 0
vt 0 17
vt 20 0
vt 0 15
vt 20 15
vt 0 0
vt 1 0
vt 0 0
vt 1 3
vt 0 3
vt 1 0
vt 0 0
vt 1 1
vt 0 1
vt 4 1
vt 4 0
vt 0 1
vt 1 0
vt 0 0
vt 0 1
vt 3 0
vt 4 1
vt 1 0
vt 0 0
vt 1 4
vt 0 4
vt 0 4
vt 1 4
vt 0 0
vt 1 0
vt 0 5
vt 1 4
vt 0 1
vt 1 0
vt 0 4
vt 1 5
vt 0 0
vt 1 1
vt 3 0
vt 3 1
vt 0 4
vt 1 4
vt 0 0
vt 1 0
vt 1 0
vt 0 0
vt 1 2
vt 0 2
vt 2 1
vt 3 0
vt 0 1
vt 0 0
vt 1 0
vt 0 0
vt 1 3
vt 0 3

g Combined_Mesh_(root:_scene)
usemtl Combined_Mesh_(root:_scene)
usemap Combined_Mesh_(root:_scene)
f 1/1/1 3/3/3 2/2/2
f 2/2/2 3/3/3 4/4/4
f 5/5/5 7/7/7 6/6/6
f 6/6/6 7/7/7 8/8/8
f 9/9/9 11/11/11 10/10/10
f 10/10/10 11/11/11 12/12/12
f 13/13/13 15/15/15 14/14/14
f 14/14/14 15/15/15 16/16/16
f 17/17/17 19/19/19 18/18/18
f 18/18/18 19/19/19 20/20/20
f 21/21/21 23/23/23 22/22/22
f 22/22/22 23/23/23 24/24/24
g Combined_Mesh_(root:_scene)_1
usemtl Combined_Mesh_(root:_scene)_1
usemap Combined_Mesh_(root:_scene)_1
f 25/25/25 27/27/27 26/26/26
f 26/26/26 27/27/27 28/28/28
f 29/29/29 31/31/31 30/30/30
f 30/30/30 31/31/31 32/32/32
f 33/33/33 35/35/35 34/34/34
f 34/34/34 35/35/35 36/36/36
f 37/37/37 39/39/39 38/38/38
f 38/38/38 39/39/39 40/40/40
f 41/41/41 43/43/43 42/42/42
f 42/42/42 43/43/43 44/44/44
f 45/45/45 47/47/47 46/46/46
f 46/46/46 47/47/47 48/48/48
f 49/49/49 51/51/51 50/50/50
f 50/50/50 51/51/51 52/52/52
f 53/53/53 55/55/55 54/54/54
f 54/54/54 55/55/55 56/56/56
f 57/57/57 59/59/59 58/58/58
f 58/58/58 59/59/59 60/60/60
f 61/61/61 63/63/63 62/62/62
f 62/62/62 63/63/63 64/64/64
f 63/63/63 65/65/65 64/64/64
f 64/64/64 65/65/65 66/66/66
f 67/67/67 69/69/69 68/68/68
f 68/68/68 69/69/69 70/70/70
f 71/71/71 73/73/73 72/72/72
f 72/72/72 73/73/73 74/74/74
f 75/75/75 77/77/77 76/76/76
f 76/76/76 77/77/77 78/78/78
f 79/79/79 81/81/81 80/80/80
f 80/80/80 81/81/81 82/82/82
f 83/83/83 85/85/85 84/84/84
f 84/84/84 85/85/85 86/86/86
f 87/87/87 89/89/89 88/88/88
f 89/89/89 90/90/90 88/88/88
g Combined_Mesh_(root:_scene)_2
usemtl Combined_Mesh_(root:_scene)_2
usemap Combined_Mesh_(root:_scene)_2
f 91/91/91 93/93/93 92/92/92
f 94/94/94 95/95/95 92/92/92
f 92/92/92 95/95/95 91/91/91
f 96/96/96 95/95/95 94/94/94
f 97/97/97 99/99/99 98/98/98
f 100/100/100 99/99/99 97/97/97
f 101/101/101 102/102/102 97/97/97
f 103/103/103 104/104/104 98/98/98
f 98/98/98 105/105/105 97/97/97
f 104/104/104 105/105/105 98/98/98
f 97/97/97 105/105/105 101/101/101
f 106/106/106 108/108/108 107/107/107
f 107/107/107 108/108/108 109/109/109
f 110/110/110 112/112/112 111/111/111
f 113/113/113 112/112/112 110/110/110
f 114/114/114 116/116/116 115/115/115
f 117/117/117 116/116/116 114/114/114
f 118/118/118 119/119/119 104/104/104
f 104/104/104 119/119/119 105/105/105
f 120/120/120 104/104/104 103/103/103
f 121/121/121 123/123/123 122/122/122
f 121/121/121 124/124/124 123/123/123
f 125/125/125 124/124/124 121/121/121
f 126/126/126 124/124/124 125/125/125
f 127/127/127 129/129/129 128/128/128
f 130/130/130 129/129/129 127/127/127
f 131/131/131 133/133/133 132/132/132
f 131/131/131 132/132/132 134/134/134
g Combined_Mesh_(root:_scene)_3
usemtl Combined_Mesh_(root:_scene)_3
usemap Combined_Mesh_(root:_scene)_3
f 135/135/135 137/137/137 136/136/136
f 136/136/136 137/137/137 138/138/138
f 138/138/138 140/140/140 139/139/139
f 137/137/137 140/140/140 138/138/138
f 141/141/141 143/143/143 142/142/142
f 142/142/142 143/143/143 144/144/144
f 145/145/145 147/147/147 146/146/146
f 146/146/146 147/147/147 148/148/148
f 149/149/149 151/151/151 150/150/150
f 150/150/150 151/151/151 152/152/152
f 153/153/153 155/155/155 154/154/154
f 154/154/154 155/155/155 156/156/156
f 157/157/157 159/159/159 158/158/158
f 158/158/158 159/159/159 160/160/160
f 161/161/161 163/163/163 162/162/162
f 162/162/162 163/163/163 164/164/164
f 165/165/165 167/167/167 166/166/166
f 166/166/166 167/167/167 168/168/168
f 169/169/169 171/171/171 170/170/170
f 170/170/170 171/171/171 172/172/172
f 173/173/173 175/175/175 174/174/174
f 174/174/174 175/175/175 176/176/176
f 177/177/177 179/179/179 178/178/178
f 179/179/179 180/180/180 178/178/178
f 181/181/181 183/183/183 182/182/182
f 182/182/182 183/183/183 184/184/184
f 185/185/185 187/187/187 186/186/186
f 186/186/186 187/187/187 188/188/188
f 189/189/189 191/191/191 190/190/190
f 190/190/190 191/191/191 192/192/192
f 193/193/193 195/195/195 194/194/194
f 194/194/194 195/195/195 196/196/196
f 197/197/197 199/199/199 198/198/198
f 198/198/198 199/199/199 200/200/200
f 201/201/201 203/203/203 202/202/202
f 202/202/202 203/203/203 204/204/204
f 205/205/205 207/207/207 206/206/206
f 206/206/206 207/207/207 208/208/208
f 209/209/209 211/211/211 210/210/210
f 210/210/210 211/211/211 212/212/212
f 213/213/213 215/215/215 214/214/214
f 214/214/214 215/215/215 216/216/216
f 217/217/217 219/219/219 218/218/218
f 218/218/218 219/219/219 220/220/220
f 221/221/221 223/223/223 222/222/222
f 222/222/222 223/223/223 224/224/224
f 225/225/225 227/227/227 226/226/226
f 226/226/226 227/227/227 228/228/228
f 229/229/229 231/231/231 230/230/230
f 230/230/230 231/231/231 232/232/232
f 233/233/233 235/235/235 234/234/234
f 233/233/233 234/234/234 236/236/236
f 237/237/237 239/239/239 238/238/238
f 237/237/237 238/238/238 240/240/240
f 241/241/241 243/243/243 242/242/242
f 242/242/242 243/243/243 244/244/244
f 245/245/245 247/247/247 246/246/246
f 246/246/246 247/247/247 248/248/248
f 249/249/249 251/251/251 250/250/250
f 250/250/250 251/251/251 252/252/252
f 253/253/253 255/255/255 254/254/254
f 254/254/254 255/255/255 256/256/256
f 257/257/257 259/259/259 258/258/258
f 258/258/258 259/259/259 260/260/260
f 261/261/261 263/263/263 262/262/262
f 262/262/262 263/263/263 264/264/264
f 265/265/265 267/267/267 266/266/266
f 266/266/266 267/267/267 268/268/268
f 269/269/269 271/271/271 270/270/270
f 270/270/270 271/271/271 272/272/272
f 273/273/273 275/275/275 274/274/274
f 274/274/274 275/275/275 276/276/276
f 277/277/277 279/279/279 278/278/278
f 278/278/278 279/279/279 280/280/280
f 281/281/281 283/283/283 282/282/282
f 282/282/282 283/283/283 284/284/284
f 285/285/285 287/287/287 286/286/286
f 286/286/286 287/287/287 288/288/288
f 289/289/289 291/291/291 290/290/290
f 290/290/290 291/291/291 292/292/292
f 293/293/293 295/295/295 294/294/294
f 294/294/294 295/295/295 296/296/296
f 297/297/297 299/299/299 298/298/298
f 298/298/298 299/299/299 300/300/300
f 301/301/301 303/303/303 302/302/302
f 302/302/302 303/303/303 304/304/304
g Combined_Mesh_(root:_scene)_4
usemtl Combined_Mesh_(root:_scene)_4
usemap Combined_Mesh_(root:_scene)_4
f 305/305/305 307/307/307 306/306/306
f 306/306/306 307/307/307 308/308/308
f 309/309/309 311/311/311 310/310/310
f 310/310/310 311/311/311 312/312/312
f 313/313/313 315/315/315 314/314/314
f 313/313/313 314/314/314 316/316/316
f 317/317/317 319/319/319 318/318/318
f 317/317/317 318/318/318 320/320/320
f 321/321/321 323/323/323 322/322/322
f 321/321/321 322/322/322 324/324/324
f 325/325/325 327/327/327 326/326/326
f 325/325/325 326/326/326 328/328/328
f 329/329/329 331/331/331 330/330/330
f 330/330/330 331/331/331 332/332/332
f 333/333/333 335/335/335 334/334/334
f 334/334/334 335/335/335 336/336/336
f 337/337/337 339/339/339 338/338/338
f 338/338/338 339/339/339 340/340/340
f 341/341/341 343/343/343 342/342/342
f 342/342/342 343/343/343 344/344/344
f 345/345/345 347/347/347 346/346/346
f 346/346/346 347/347/347 348/348/348
f 349/349/349 351/351/351 350/350/350
f 350/350/350 351/351/351 352/352/352
f 353/353/353 355/355/355 354/354/354
f 354/354/354 355/355/355 356/356/356
f 357/357/357 359/359/359 358/358/358
f 358/358/358 359/359/359 360/360/360
f 361/361/361 363/363/363 362/362/362
f 362/362/362 363/363/363 364/364/364
f 365/365/365 367/367/367 366/366/366
f 366/366/366 367/367/367 368/368/368
f 369/369/369 371/371/371 370/370/370
f 370/370/370 371/371/371 372/372/372
f 373/373/373 375/375/375 374/374/374
f 374/374/374 375/375/375 376/376/376
f 377/377/377 379/379/379 378/378/378
f 378/378/378 379/379/379 380/380/380
f 381/381/381 383/383/383 382/382/382
f 382/382/382 383/383/383 384/384/384
f 385/385/385 387/387/387 386/386/386
f 386/386/386 387/387/387 388/388/388
g Combined_Mesh_(root:_scene)_5
usemtl Combined_Mesh_(root:_scene)_5
usemap Combined_Mesh_(root:_scene)_5
f 389/389/389 391/391/391 390/390/390
f 389/389/389 390/390/390 392/392/392
f 393/393/393 395/395/395 394/394/394
f 393/393/393 394/394/394 396/396/396
f 396/396/396 397/397/397 393/393/393
f 393/393/393 397/397/397 398/398/398
f 399/399/399 401/401/401 400/400/400
f 400/400/400 401/401/401 402/402/402
f 403/403/403 405/405/405 404/404/404
f 404/404/404 405/405/405 406/406/406
f 407/407/407 409/409/409 408/408/408
f 408/408/408 409/409/409 410/410/410
f 411/411/411 413/413/413 412/412/412
f 412/412/412 413/413/413 414/414/414
f 412/412/412 414/414/414 415/415/415
f 415/415/415 414/414/414 416/416/416
f 417/417/417 419/419/419 418/418/418
f 418/418/418 419/419/419 420/420/420
f 421/421/421 423/423/423 422/422/422
f 422/422/422 423/423/423 424/424/424
f 425/425/425 427/427/427 426/426/426
f 426/426/426 427/427/427 428/428/428
f 429/429/429 431/431/431 430/430/430
f 430/430/430 431/431/431 432/432/432
f 433/433/433 435/435/435 434/434/434
f 433/433/433 434/434/434 436/436/436
g Combined_Mesh_(root:_scene)_6
usemtl Combined_Mesh_(root:_scene)_6
usemap Combined_Mesh_(root:_scene)_6
f 437/437/437 439/439/439 438/438/438
f 437/437/437 438/438/438 440/440/440
f 441/441/441 443/443/443 442/442/442
f 442/442/442 444/444/444 441/441/441
f 445/445/445 444/444/444 442/442/442
f 446/446/446 448/448/448 447/447/447
f 446/446/446 449/449/449 448/448/448
f 448/448/448 449/449/449 450/450/450
f 451/451/451 453/453/453 452/452/452
f 451/451/451 452/452/452 454/454/454
f 455/455/455 457/457/457 456/456/456
f 456/456/456 457/457/457 458/458/458
f 459/459/459 461/461/461 460/460/460
f 460/460/460 462/462/462 459/459/459
f 459/459/459 462/462/462 463/463/463
f 464/464/464 466/466/466 465/465/465
f 467/467/467 466/466/466 464/464/464
g Combined_Mesh_(root:_scene)_7
usemtl Combined_Mesh_(root:_scene)_7
usemap Combined_Mesh_(root:_scene)_7
f 468/468/468 470/470/470 469/469/469
f 469/469/469 470/470/470 471/471/471
f 472/472/472 474/474/474 473/473/473
f 473/473/473 474/474/474 475/475/475
f 476/476/476 478/478/478 477/477/477
f 477/477/477 478/478/478 479/479/479
f 480/480/480 482/482/482 481/481/481
f 481/481/481 482/482/482 483/483/483
f 484/484/484 486/486/486 485/485/485
f 485/485/485 486/486/486 487/487/487
g Combined_Mesh_(root:_scene)_8
usemtl Combined_Mesh_(root:_scene)_8
usemap Combined_Mesh_(root:_scene)_8
f 488/488/488 490/490/490 489/489/489
f 488/488/488 491/491/491 490/490/490
f 490/490/490 491/491/491 492/492/492
f 492/492/492 491/491/491 493/493/493
g Combined_Mesh_(root:_scene)_9
usemtl Combined_Mesh_(root:_scene)_9
usemap Combined_Mesh_(root:_scene)_9
f 494/494/494 496/496/496 495/495/495
f 494/494/494 495/495/495 497/497/497
f 498/498/498 500/500/500 499/499/499
f 498/498/498 499/499/499 501/501/501
f 502/502/502 504/504/504 503/503/503
f 502/502/502 503/503/503 505/505/505
f 506/506/506 508/508/508 507/507/507
f 506/506/506 507/507/507 509/509/509
f 510/510/510 512/512/512 511/511/511
f 510/510/510 511/511/511 513/513/513
f 514/514/514 516/516/516 515/515/515
f 514/514/514 515/515/515 517/517/517
f 518/518/518 520/520/520 519/519/519
f 518/518/518 519/519/519 521/521/521
f 522/522/522 524/524/524 523/523/523
f 522/522/522 523/523/523 525/525/525
f 526/526/526 528/528/528 527/527/527
f 526/526/526 527/527/527 529/529/529
g Combined_Mesh_(root:_scene)_10
usemtl Combined_Mesh_(root:_scene)_10
usemap Combined_Mesh_(root:_scene)_10
f 530/530/530 532/532/532 531/531/531
f 530/530/530 531/531/531 533/533/533
f 534/534/534 536/536/536 535/535/535
f 534/534/534 535/535/535 537/537/537
f 538/538/538 540/540/540 539/539/539
f 538/538/538 539/539/539 541/541/541
f 542/542/542 544/544/544 543/543/543
f 542/542/542 543/543/543 545/545/545
f 546/546/546 548/548/548 547/547/547
f 546/546/546 547/547/547 549/549/549
f 550/550/550 552/552/552 551/551/551
f 550/550/550 551/551/551 553/553/553
f 554/554/554 556/556/556 555/555/555
f 554/554/554 555/555/555 557/557/557
f 558/558/558 560/560/560 559/559/559
f 558/558/558 559/559/559 561/561/561
f 562/562/562 564/564/564 563/563/563
f 562/562/562 563/563/563 565/565/565
f 566/566/566 568/568/568 567/567/567
f 566/566/566 567/567/567 569/569/569
f 570/570/570 572/572/572 571/571/571
f 570/570/570 571/571/571 573/573/573
f 574/574/574 576/576/576 575/575/575
f 574/574/574 575/575/575 577/577/577
f 578/578/578 580/580/580 579/579/579
f 578/578/578 579/579/579 581/581/581
f 582/582/582 584/584/584 583/583/583
f 582/582/582 583/583/583 585/585/585
f 586/586/586 588/588/588 587/587/587
f 586/586/586 587/587/587 589/589/589
f 590/590/590 592/592/592 591/591/591
f 590/590/590 591/591/591 593/593/593
f 594/594/594 596/596/596 595/595/595
f 594/594/594 595/595/595 597/597/597
f 598/598/598 600/600/600 599/599/599
f 601/601/601 603/603/603 602/602/602
f 601/601/601 602/602/602 604/604/604
f 605/605/605 607/607/607 606/606/606
g Combined_Mesh_(root:_scene)_11
usemtl Combined_Mesh_(root:_scene)_11
usemap Combined_Mesh_(root:_scene)_11
f 608/608/608 610/610/610 609/609/609
f 609/609/609 610/610/610 611/611/611
f 612/612/612 614/614/614 613/613/613
f 613/613/613 614/614/614 615/615/615
f 616/616/616 618/618/618 617/617/617
f 617/617/617 618/618/618 619/619/619
f 620/620/620 622/622/622 621/621/621
f 621/621/621 622/622/622 623/623/623
f 624/624/624 626/626/626 625/625/625
f 625/625/625 626/626/626 627/627/627
f 628/628/628 630/630/630 629/629/629
f 629/629/629 630/630/630 631/631/631
f 632/632/632 634/634/634 633/633/633
f 633/633/633 634/634/634 635/635/635
f 636/636/636 638/638/638 637/637/637
f 637/637/637 638/638/638 639/639/639
f 638/638/638 640/640/640 639/639/639
f 639/639/639 640/640/640 641/641/641
f 642/642/642 644/644/644 643/643/643
f 643/643/643 644/644/644 645/645/645
f 646/646/646 648/648/648 647/647/647
f 647/647/647 648/648/648 649/649/649
f 650/650/650 652/652/652 651/651/651
f 651/651/651 652/652/652 653/653/653
f 654/654/654 656/656/656 655/655/655
f 655/655/655 656/656/656 657/657/657
