#Combined_Mesh_(root:_scene).obj

v 37 3 67
v 36 3 67
v 37 6 67
v 36 6 67
v 36 3 67
v 36 3 66
v 36 6 67
v 36 6 66
v 36 3 66
v 37 3 66
v 36 6 66
v 37 6 66
v 37 3 66
v 37 3 67
v 37 6 66
v 37 6 67
v 3 3 67
v 2 3 67
v 3 6 67
v 2 6 67
v 2 3 67
v 2 3 66
v 2 6 67
v 2 6 66
v 2 3 66
v 3 3 66
v 2 6 66
v 3 6 66
v 3 3 66
v 3 3 67
v 3 6 66
v 3 6 67
v 6 6 -7
v 6 3 63
v 6 3 -7
v 6 6 63
v 6 6 63
v 33 3 63
v 6 3 63
v 33 6 63
v 33 6 63
v 33 3 10
v 33 3 63
v 33 6 10
v 2 6 67
v 33 6 63
v 6 6 63
v 37 6 67
v 2 7 67
v 37 6 67
v 2 6 67
v 37 7 67
v 6 6 -7
v 2 6 67
v 6 6 63
v 2 6 -7
v 2 7 -7
v 2 6 67
v 2 6 -7
v 2 7 67
v 2 -4 67
v 2 3 -7
v 2 3 67
v 2 -4 -7
v 37 -4 67
v 2 3 67
v 37 3 67
v 2 -4 67
v 37 -4 10
v 37 3 67
v 37 3 10
v 37 -4 67
v 37 6 10
v 33 6 63
v 37 6 67
v 33 6 10
v 37 7 67
v 37 6 10
v 37 6 67
v 37 7 10
v 33 6 10
v 37 6 10
v 50 -4 10
v 33 -4 10
v 50 7 10
v 37 7 10
v 50 7 75
v 50 -4 10
v 50 7 10
v 50 -4 75
v -10 7 75
v 50 -4 75
v 50 7 75
v -10 -4 75
v -10 7 -7
v -10 -4 75
v -10 7 75
v -10 -4 -7
v 2 6 -7
v -10 7 -7
v 2 7 -7
v -10 -4 -7
v 6 -4 -7
v 6 6 -7
v 6 3 -7
v 6 3 63
v 2 3 -7
v 2 3 67
v 33 3 63
v 2 3 67
v 6 3 63
v 37 3 67
v 33 3 10
v 37 3 67
v 33 3 63
v 37 3 10
v -7 0 72
v -7 0 68
v -7 1 72
v -7 1 68
v -7 0 68
v -1 0 68
v -7 1 68
v -1 1 68
v -7 0 72
v -7 1 72
v 7 0 72
v -7 1 72
v 7 1 72
v 7 0 72
v 7 0 72
v 7 1 72
v -7 0 72
v -7 1 72
v 7 1 70
v 7 0 70
v 7 0 72
v 7 1 72
v -7 0 72
v -7 1 72
v 7 0 72
v -7 1 72
v 7 1 72
v 7 0 72
v 7 0 70
v 7 1 70
v -1 0 70
v -1 1 70
v -1 1 68
v -1 0 68
v -1 0 70
v -1 1 70
v -1 0 70
v -7 0 68
v -7 0 72
v -1 0 68
v 7 0 72
v -1 0 70
v -7 0 72
v 7 0 70
v -1 1 68
v -7 1 72
v -7 1 68
v -1 1 70
v 7 1 70
v -7 1 72
v -1 1 70
v 7 1 72
v -5 0 67
v -6 0 67
v -5 1 67
v -6 1 67
v -6 0 67
v -6 0 66
v -6 1 67
v -6 1 66
v -6 0 66
v -5 0 66
v -6 1 66
v -5 1 66
v -5 0 66
v -5 0 67
v -5 1 66
v -5 1 67
v -5 0 66
v -6 0 66
v -5 0 67
v -6 0 67
v -2 0 64
v -3 0 64
v -2 1 64
v -3 1 64
v -3 0 64
v -3 0 63
v -3 1 64
v -3 1 63
v -3 0 63
v -2 0 63
v -3 1 63
v -2 1 63
v -2 0 63
v -2 0 64
v -2 1 63
v -2 1 64
v -2 0 63
v -3 0 63
v -2 0 64
v -3 0 64
v -1 0 63
v -2 0 63
v -1 1 63
v -2 1 63
v -2 0 63
v -2 0 62
v -2 1 63
v -2 1 62
v -1 0 62
v -1 0 63
v -1 1 62
v -1 1 63
v -1 0 62
v -2 0 62
v -1 0 63
v -2 0 63
v -4 0 66
v -5 0 66
v -4 1 66
v -5 1 66
v -5 0 66
v -5 0 65
v -5 1 66
v -5 1 65
v -5 0 65
v -4 0 65
v -5 1 65
v -4 1 65
v -4 0 65
v -4 0 66
v -4 1 65
v -4 1 66
v -4 0 65
v -5 0 65
v -4 0 66
v -5 0 66
v -7 0 68
v -7 0 67
v -7 1 68
v -7 1 67
v -7 0 67
v -6 0 67
v -7 1 67
v -6 1 67
v -6 0 67
v -6 0 68
v -6 1 67
v -6 1 68
v -6 0 67
v -7 0 67
v -6 0 68
v -7 0 68
v -3 0 65
v -4 0 65
v -3 1 65
v -4 1 65
v -4 0 65
v -4 0 64
v -4 1 65
v -4 1 64
v -4 0 64
v -3 0 64
v -4 1 64
v -3 1 64
v -3 0 64
v -3 0 65
v -3 1 64
v -3 1 65
v -3 0 64
v -4 0 64
v -3 0 65
v -4 0 65
v -5 1 67
v -6 1 67
v -5 1 66
v -6 1 66
v -2 1 64
v -3 1 64
v -2 1 63
v -3 1 63
v -1 1 63
v -2 1 63
v -1 1 62
v -2 1 62
v -4 1 66
v -5 1 66
v -4 1 65
v -5 1 65
v -6 1 68
v -7 1 68
v -6 1 67
v -7 1 67
v -3 1 65
v -4 1 65
v -3 1 64
v -4 1 64
v 45 0 69
v 42 0 69
v 45 1 69
v 42 1 69
v 42 0 69
v 42 0 65
v 42 1 69
v 42 1 65
v 45 0 65
v 45 0 69
v 45 1 65
v 45 1 69
v 42 1 65
v 42 0 65
v 43 0 65
v 43 1 65
v 45 0 65
v 45 1 65
v 44 0 65
v 44 1 65
v 43 1 53
v 43 0 53
v 44 0 53
v 44 1 53
v 42 0 65
v 42 0 69
v 43 0 65
v 44 0 65
v 45 0 69
v 45 0 65
v 43 1 65
v 43 0 65
v 43 1 53
v 43 0 53
v 43 0 65
v 44 0 65
v 43 0 53
v 44 0 53
v 44 0 65
v 44 1 65
v 44 0 53
v 44 1 53
v 43 1 65
v 42 1 69
v 42 1 65
v 45 1 69
v 44 1 65
v 45 1 65
v 44 1 65
v 43 1 65
v 44 1 53
v 43 1 53
v -7 0 14
v -7 0 12
v -7 1 14
v -7 1 12
v -7 0 12
v -1 0 12
v -7 1 12
v -1 1 12
v -1 0 12
v -1 0 14
v -1 1 12
v -1 1 14
v -1 1 14
v -1 0 14
v -3 0 14
v -3 1 14
v -7 0 14
v -7 1 14
v -5 0 14
v -5 1 14
v -3 1 18
v -3 0 18
v -6 0 18
v -6 1 18
v -1 0 12
v -3 0 14
v -1 0 14
v -7 0 12
v -5 0 14
v -7 0 14
v -3 1 14
v -3 0 14
v -3 1 18
v -3 0 18
v -5 0 14
v -5 1 14
v -5 0 17
v -5 1 17
v -3 0 14
v -5 0 14
v -5 0 17
v -3 0 18
v -6 0 18
v -5 0 17
v -5 1 17
v -7 0 17
v -7 1 17
v -5 0 17
v -7 0 17
v -6 0 18
v -6 0 22
v -7 0 22
v -7 0 17
v -7 1 17
v -7 0 22
v -7 1 22
v -6 1 18
v -6 0 18
v -6 0 22
v -6 1 22
v -2 0 23
v -2 1 23
v -2 0 27
v -2 1 27
v -1 0 23
v -2 0 23
v -1 0 28
v -2 0 27
v -1 1 23
v -1 0 23
v -1 1 28
v -1 0 28
v -5 0 27
v -5 1 27
v -5 0 28
v -5 1 28
v -1 0 28
v -2 0 27
v -3 0 28
v -1 1 28
v -1 0 28
v -3 1 28
v -3 0 28
v -2 0 27
v -2 1 27
v -5 0 27
v -5 1 27
v -3 0 28
v -2 0 27
v -5 0 28
v -5 0 27
v -3 1 31
v -3 0 31
v -5 1 31
v -5 0 31
v -3 1 28
v -3 0 28
v -3 1 31
v -3 0 31
v -3 0 28
v -5 0 28
v -3 0 31
v -5 0 31
v -5 0 28
v -5 1 28
v -5 0 31
v -5 1 31
v -6 0 22
v -7 1 22
v -6 1 22
v -7 0 22
v -2 0 23
v -1 1 23
v -2 1 23
v -1 0 23
v -3 1 14
v -1 1 12
v -1 1 14
v -7 1 12
v -5 1 14
v -7 1 14
v -5 1 14
v -3 1 14
v -5 1 17
v -3 1 18
v -6 1 18
v -7 1 17
v -5 1 17
v -6 1 18
v -7 1 17
v -6 1 18
v -6 1 22
v -7 1 22
v -2 1 23
v -1 1 23
v -2 1 27
v -1 1 28
v -1 1 28
v -3 1 28
v -2 1 27
v -2 1 27
v -3 1 28
v -5 1 27
v -5 1 28
v -5 1 28
v -3 1 28
v -5 1 31
v -3 1 31
v 23 6 -3
v 23 6 -8
v 23 -3 -8
v 23 -3 -3
v 23 6 -8
v 31 6 -8
v 31 -3 -8
v 23 -3 -8
v 31 -3 -3
v 23 -3 -3
v 23 -3 -8
v 31 -3 -8
v 47 0 18
v 40 0 18
v 47 1 18
v 40 1 18
v 40 0 18
v 40 0 10
v 40 1 18
v 40 1 10
v 40 0 10
v 47 0 10
v 40 1 10
v 47 1 10
v 47 0 10
v 47 0 18
v 47 1 10
v 47 1 18
v 47 0 10
v 40 0 10
v 47 0 18
v 40 0 18
v 47 1 18
v 40 1 18
v 47 1 10
v 40 1 10
v 35 0 72
v 25 0 72
v 35 1 72
v 25 1 72
v 25 0 72
v 25 0 70
v 25 1 72
v 25 1 70
v 25 0 70
v 35 0 70
v 25 1 70
v 35 1 70
v 35 0 70
v 35 0 72
v 35 1 70
v 35 1 72
v 35 0 70
v 25 0 70
v 35 0 72
v 25 0 72
v 35 1 72
v 25 1 72
v 35 1 70
v 25 1 70
v 40 0 72
v 37 0 72
v 40 1 72
v 37 1 72
v 37 0 72
v 37 0 70
v 37 1 72
v 37 1 70
v 37 0 70
v 40 0 70
v 37 1 70
v 40 1 70
v 40 0 70
v 40 0 72
v 40 1 70
v 40 1 72
v 40 0 70
v 37 0 70
v 40 0 72
v 37 0 72
v 40 1 72
v 37 1 72
v 40 1 70
v 37 1 70
v 23 0 72
v 9 0 72
v 23 1 72
v 9 1 72
v 9 0 72
v 9 0 70
v 9 1 72
v 9 1 70
v 9 0 70
v 23 0 70
v 9 1 70
v 23 1 70
v 23 0 70
v 23 0 72
v 23 1 70
v 23 1 72
v 23 0 70
v 9 0 70
v 23 0 72
v 9 0 72
v 23 1 72
v 9 1 72
v 23 1 70
v 9 1 70
v -5 0 41
v -3 0 41
v -5 1 41
v -3 1 41
v -1 1 57
v -1 0 57
v -1 1 62
v -1 0 62
v -7 0 57
v -7 1 57
v -7 0 62
v -7 1 62
v -5 0 41
v -5 1 41
v -5 0 57
v -5 1 57
v -7 1 57
v -7 0 57
v -5 0 57
v -5 1 57
v -1 0 57
v -1 1 57
v -3 0 57
v -3 1 57
v -3 1 41
v -3 0 41
v -3 0 57
v -3 1 57
v -3 0 41
v -5 0 41
v -3 0 57
v -5 0 57
v -7 0 62
v -7 1 62
v -2 0 62
v -2 1 62
v -1 0 57
v -7 0 57
v -2 0 62
v -7 0 62
v -1 0 62
v -5 1 57
v -5 1 41
v -3 1 57
v -3 1 41
v -7 1 57
v -1 1 57
v -2 1 62
v -1 1 62
v -7 1 62
v -7 0 0
v -7 0 -7
v -7 1 0
v -7 1 -7
v -1 0 -7
v -1 0 0
v -1 1 -7
v -1 1 0
v -1 1 0
v -1 0 0
v -3 0 0
v -3 1 0
v -7 0 0
v -7 1 0
v -5 0 0
v -5 1 0
v -3 1 1
v -3 0 1
v -5 0 1
v -5 1 1
v -1 0 -7
v -3 0 0
v -1 0 0
v -7 0 -7
v -5 0 0
v -7 0 0
v -3 1 0
v -3 0 0
v -3 1 1
v -3 0 1
v -3 0 0
v -5 0 0
v -3 0 1
v -5 0 1
v -5 0 0
v -5 1 0
v -5 0 1
v -5 1 1
v -1 1 -7
v -1 1 0
v -3 1 0
v -7 1 -7
v -7 1 0
v -5 1 0
v -5 1 0
v -3 1 0
v -5 1 1
v -3 1 1
v 44 0 52
v 43 0 52
v 44 1 52
v 43 1 52
v 43 0 52
v 43 0 50
v 43 1 52
v 43 1 50
v 44 0 50
v 44 0 52
v 44 1 50
v 44 1 52
v 44 0 50
v 43 0 50
v 44 0 52
v 43 0 52
v 43 0 50
v 44 0 50
v 40 0 49
v 40 0 50
v 46 0 49
v 47 0 50
v 47 0 49
v 41 0 49
v 40 1 50
v 40 0 50
v 40 1 49
v 40 0 49
v 47 0 50
v 47 1 50
v 47 0 49
v 47 1 49
v 43 1 50
v 43 0 50
v 40 1 50
v 40 0 50
v 44 0 50
v 44 1 50
v 47 0 50
v 47 1 50
v 46 0 49
v 46 1 49
v 41 0 49
v 41 1 49
v 47 0 49
v 47 1 49
v 47 0 40
v 47 1 40
v 46 0 49
v 47 0 49
v 46 0 41
v 47 0 40
v 46 1 49
v 46 0 49
v 46 1 41
v 46 0 41
v 40 1 49
v 40 0 49
v 40 1 40
v 40 0 40
v 40 0 49
v 41 0 49
v 40 0 40
v 41 0 41
v 41 0 49
v 41 1 49
v 41 0 41
v 41 1 41
v 41 0 41
v 41 1 41
v 46 0 41
v 46 1 41
v 40 1 40
v 40 0 40
v 43 0 40
v 43 1 40
v 47 0 40
v 47 1 40
v 44 0 40
v 44 1 40
v 40 1 20
v 40 0 20
v 47 0 20
v 47 1 20
v 43 0 40
v 46 0 41
v 44 0 40
v 47 0 40
v 40 1 36
v 40 0 36
v 40 1 20
v 40 0 20
v 40 0 36
v 47 0 36
v 40 0 20
v 47 0 20
v 47 0 36
v 47 1 36
v 47 0 20
v 47 1 20
v 44 0 40
v 44 1 40
v 44 0 36
v 44 1 36
v 47 1 36
v 47 0 36
v 44 1 36
v 44 0 36
v 40 0 36
v 40 1 36
v 43 1 36
v 43 0 36
v 43 1 40
v 43 0 40
v 43 0 36
v 43 1 36
v 43 0 40
v 44 0 40
v 44 0 36
v 43 0 36
v 44 1 52
v 43 1 52
v 44 1 50
v 43 1 50
v 41 1 49
v 44 1 50
v 43 1 50
v 46 1 49
v 41 1 49
v 40 1 50
v 40 1 49
v 43 1 50
v 47 1 49
v 44 1 50
v 46 1 49
v 47 1 50
v 47 1 49
v 46 1 49
v 47 1 40
v 46 1 41
v 41 1 49
v 40 1 49
v 41 1 41
v 40 1 40
v 41 1 41
v 40 1 40
v 43 1 40
v 44 1 40
v 47 1 36
v 40 1 36
v 47 1 20
v 40 1 20
v 44 1 40
v 43 1 40
v 44 1 36
v 43 1 36
v 50 6 28.5
v 49 6 28.5
v 50 7 28.5
v 49 7 28.5
v 48 6 28.5
v 48 6 27.5
v 48 7 28.5
v 48 7 27.5
v 49 6 27.5
v 50 6 27.5
v 49 7 27.5
v 50 7 27.5
v 50 7 28.5
v 49 7 28.5
v 50 7 27.5
v 49 7 27.5
v 50 6 27.5
v 49 6 27.5
v 50 6 28.5
v 49 6 28.5
v 49 6 28.5
v 49 6 27.5
v 48 6 28.5
v 48 6 27.5
v 49 7 28.5
v 49 6 28.5
v 48 7 28.5
v 48 6 28.5
v 49 6 27.5
v 49 7 27.5
v 48 6 27.5
v 48 7 27.5
v 49 12 27.5
v 49 12 28.5
v 48 12 27.5
v 48 12 28.5
v 49 7 27.5
v 49 7 28.5
v 49 11 27.5
v 49 11 28.5
v 48 7 27.5
v 49 7 27.5
v 48 11 27.5
v 49 11 27.5
v 49 7 28.5
v 48 7 28.5
v 49 11 28.5
v 48 11 28.5
v 48 7 28.5
v 48 7 27.5
v 48 11 28.5
v 48 11 27.5
v 49 11 27.5
v 49 11 28.5
v 49 12 27.5
v 49 12 28.5
v 48 11 27.5
v 49 11 27.5
v 48 12 27.5
v 49 12 27.5
v 49 11 28.5
v 48 11 28.5
v 49 12 28.5
v 48 12 28.5
v 43 11 28.5
v 43 11 27.5
v 43 12 28.5
v 43 12 27.5
v 48 11 28.5
v 48 11 27.5
v 43 11 28.5
v 43 11 27.5
v 48 12 28.5
v 48 11 28.5
v 43 12 28.5
v 43 11 28.5
v 48 11 27.5
v 48 12 27.5
v 43 11 27.5
v 43 12 27.5
v 48 12 27.5
v 48 12 28.5
v 43 12 27.5
v 43 12 28.5

vn 0 0 1
vn 0 0 1
vn 0 0 1
vn 0 0 1
vn -1 0 0
vn -1 0 0
vn -1 0 0
vn -1 0 0
vn 0 0 -1
vn 0 0 -1
vn 0 0 -1
vn 0 0 -1
vn 1 0 0
vn 1 0 0
vn 1 0 0
vn 1 0 0
vn 0 0 1
vn 0 0 1
vn 0 0 1
vn 0 0 1
vn -1 0 0
vn -1 0 0
vn -1 0 0
vn -1 0 0
vn 0 0 -1
vn 0 0 -1
vn 0 0 -1
vn 0 0 -1
vn 1 0 0
vn 1 0 0
vn 1 0 0
vn 1 0 0
vn -1 0 0
vn -1 0 0
vn -1 0 0
vn -1 0 0
vn 0 0 1
vn 0 0 1
vn 0 0 1
vn 0 0 1
vn 0.9999999 0 0
vn 0.9999999 0 0
vn 0.9999999 0 0
vn 0.9999999 0 0
vn 0 -1 0
vn 0 -1 0
vn 0 -1 0
vn 0 -1 0
vn 0 0 1
vn 0 0 1
vn 0 0 1
vn 0 0 1
vn 0 -1 0
vn 0 -1 0
vn 0 -1 0
vn 0 -1 0
vn -1 0 0
vn -1 0 0
vn -1 0 0
vn -1 0 0
vn -1 0 0
vn -1 0 0
vn -1 0 0
vn -1 0 0
vn 0 0 0.9999999
vn 0 0 0.9999999
vn 0 0 0.9999999
vn 0 0 0.9999999
vn 1 0 0
vn 1 0 0
vn 1 0 0
vn 1 0 0
vn 0 -0.9999999 0
vn 0 -0.9999999 0
vn 0 -1 0
vn 0 -1 0
vn 1 0 0
vn 1 0 0
vn 1 0 0
vn 1 0 0
vn 0 0 1
vn 0 0 1
vn 0 0 1
vn 0 0 1
vn 0 0 1
vn 0 0 1
vn -1 0 0
vn -1 0 0
vn -1 0 0
vn -1 0 0
vn 0 0 -0.9999999
vn 0 0 -0.9999999
vn 0 0 -0.9999999
vn 0 0 -0.9999999
vn 1 0 0
vn 1 0 0
vn 1 0 0
vn 1 0 0
vn 0 0 1
vn 0 0 1
vn 0 0 1
vn 0 0 1
vn 0 0 0.9999999
vn 0 0 1
vn 0 1 0
vn 0 1 0
vn 0 1 0
vn 0 1 0
vn 0 1 0
vn 0 1 0
vn 0 1 0
vn 0 1 0
vn 0 0.9999999 0
vn 0 0.9999999 0
vn 0 1 0
vn 0 1 0
vn -1 0 0
vn -1 0 0
vn -1 0 0
vn -1 0 0
vn 0 0 -1
vn 0 0 -1
vn 0 0 -1
vn 0 0 -1
vn 0 0 1
vn 0 0 1
vn 0 0 1
vn 0 0 1
vn 0 0 1
vn 0 0 1
vn 0 0 -1
vn 0 0 -1
vn 0 0 -1
vn 0 0 -1
vn 1 0 0
vn 1 0 0
vn 1 0 0
vn 1 0 0
vn 0 0 1
vn 0 0 1
vn 0 0 1
vn 0 0 1
vn 0 0 1
vn 0 0 1
vn 0 0 -1
vn 0 0 -1
vn 0 0 -1
vn 0 0 -1
vn 1 0 0
vn 1 0 0
vn 1 0 0
vn 1 0 0
vn 0 -1 0
vn 0 -1 0
vn 0 -1 0
vn 0 -1 0
vn 0 -1 0
vn 0 -1 0
vn 0 -1 0
vn 0 -1 0
vn 0 1 0
vn 0 1 0
vn 0 1 0
vn 0 1 0
vn 0 1 0
vn 0 1 0
vn 0 1 0
vn 0 1 0
vn 0 0 1
vn 0 0 1
vn 0 0 1
vn 0 0 1
vn -1 0 0
vn -1 0 0
vn -1 0 0
vn -1 0 0
vn 0 0 -1
vn 0 0 -1
vn 0 0 -1
vn 0 0 -1
vn 1 0 0
vn 1 0 0
vn 1 0 0
vn 1 0 0
vn 0 -1 0
vn 0 -1 0
vn 0 -1 0
vn 0 -1 0
vn 0 0 1
vn 0 0 1
vn 0 0 1
vn 0 0 1
vn -1 0 0
vn -1 0 0
vn -1 0 0
vn -1 0 0
vn 0 0 -1
vn 0 0 -1
vn 0 0 -1
vn 0 0 -1
vn 1 0 0
vn 1 0 0
vn 1 0 0
vn 1 0 0
vn 0 -1 0
vn 0 -1 0
vn 0 -1 0
vn 0 -1 0
vn 0 0 1
vn 0 0 1
vn 0 0 1
vn 0 0 1
vn -1 0 0
vn -1 0 0
vn -1 0 0
vn -1 0 0
vn 1 0 0
vn 1 0 0
vn 1 0 0
vn 1 0 0
vn 0 -1 0
vn 0 -1 0
vn 0 -1 0
vn 0 -1 0
vn 0 0 1
vn 0 0 1
vn 0 0 1
vn 0 0 1
vn -1 0 0
vn -1 0 0
vn -1 0 0
vn -1 0 0
vn 0 0 -1
vn 0 0 -1
vn 0 0 -1
vn 0 0 -1
vn 1 0 0
vn 1 0 0
vn 1 0 0
vn 1 0 0
vn 0 -1 0
vn 0 -1 0
vn 0 -1 0
vn 0 -1 0
vn -1 0 0
vn -1 0 0
vn -1 0 0
vn -1 0 0
vn 0 0 -1
vn 0 0 -1
vn 0 0 -1
vn 0 0 -1
vn 1 0 0
vn 1 0 0
vn 1 0 0
vn 1 0 0
vn 0 -1 0
vn 0 -1 0
vn 0 -1 0
vn 0 -1 0
vn 0 0 1
vn 0 0 1
vn 0 0 1
vn 0 0 1
vn -1 0 0
vn -1 0 0
vn -1 0 0
vn -1 0 0
vn 0 0 -1
vn 0 0 -1
vn 0 0 -1
vn 0 0 -1
vn 1 0 0
vn 1 0 0
vn 1 0 0
vn 1 0 0
vn 0 -1 0
vn 0 -1 0
vn 0 -1 0
vn 0 -1 0
vn 0 1 0
vn 0 1 0
vn 0 1 0
vn 0 1 0
vn 0 1 0
vn 0 1 0
vn 0 1 0
vn 0 1 0
vn 0 1 0
vn 0 1 0
vn 0 1 0
vn 0 1 0
vn 0 1 0
vn 0 1 0
vn 0 1 0
vn 0 1 0
vn 0 1 0
vn 0 1 0
vn 0 1 0
vn 0 1 0
vn 0 1 0
vn 0 1 0
vn 0 1 0
vn 0 1 0
vn 0 0 1
vn 0 0 1
vn 0 0 1
vn 0 0 1
vn -1 0 0
vn -1 0 0
vn -1 0 0
vn -1 0 0
vn 1 0 0
vn 1 0 0
vn 1 0 0
vn 1 0 0
vn 0 0 -1
vn 0 0 -1
vn 0 0 -1
vn 0 0 -1
vn 0 0 -1
vn 0 0 -1
vn 0 0 -1
vn 0 0 -1
vn 0 0 -1
vn 0 0 -1
vn 0 0 -1
vn 0 0 -1
vn 0 -1 0
vn 0 -1 0
vn 0 -1 0
vn 0 -1 0
vn 0 -1 0
vn 0 -1 0
vn -1 0 0
vn -1 0 0
vn -1 0 0
vn -1 0 0
vn 0 -1 0
vn 0 -1 0
vn 0 -1 0
vn 0 -1 0
vn 1 0 0
vn 1 0 0
vn 1 0 0
vn 1 0 0
vn 0 1 0
vn 0 1 0
vn 0 1 0
vn 0 1 0
vn 0 1 0
vn 0 1 0
vn 0 1 0
vn 0 1 0
vn 0 1 0
vn 0 1 0
vn -1 0 0
vn -1 0 0
vn -1 0 0
vn -1 0 0
vn 0 0 -1
vn 0 0 -1
vn 0 0 -1
vn 0 0 -1
vn 1 0 0
vn 1 0 0
vn 1 0 0
vn 1 0 0
vn 0 0 1
vn 0 0 1
vn 0 0 1
vn 0 0 1
vn 0 0 1
vn 0 0 1
vn 0 0 1
vn 0 0 1
vn 0 0 1
vn 0 0 1
vn 0 0 1
vn 0 0 1
vn 0 -1 0
vn 0 -1 0
vn 0 -1 0
vn 0 -1 0
vn 0 -1 0
vn 0 -1 0
vn 1 0 0
vn 1 0 0
vn 1 0 0
vn 1 0 0
vn -1 0 0
vn -1 0 0
vn -1 0 0
vn -1 0 0
vn 0 -1 0
vn 0 -1 0
vn 0 -1 0
vn 0 -1 0
vn 0 -1 0
vn 0 0 -1
vn 0 0 -1
vn 0 0 -1
vn 0 0 -1
vn 0 -1 0
vn 0 -1 0
vn 0 -1 0
vn 0 -1 0
vn 0 -1 0
vn -1 0 0
vn -1 0 0
vn -1 0 0
vn -1 0 0
vn 1 0 0
vn 1 0 0
vn 1 0 0
vn 1 0 0
vn -1 0 0
vn -1 0 0
vn -1 0 0
vn -1 0 0
vn 0 -1 0
vn 0 -1 0
vn 0 -1 0
vn 0 -1 0
vn 1 0 0
vn 1 0 0
vn 1 0 0
vn 1 0 0
vn -1 0 0
vn -1 0 0
vn -1 0 0
vn -1 0 0
vn 0 -1 0
vn 0 -1 0
vn 0 -1 0
vn 0 0 1
vn 0 0 1
vn 0 0 1
vn 0 0 1
vn 0 0 -1
vn 0 0 -1
vn 0 0 -1
vn 0 0 -1
vn 0 -1 0
vn 0 -1 0
vn 0 -1 0
vn 0 -1 0
vn 0 0 1
vn 0 0 1
vn 0 0 1
vn 0 0 1
vn 1 0 0
vn 1 0 0
vn 1 0 0
vn 1 0 0
vn 0 -1 0
vn 0 -1 0
vn 0 -1 0
vn 0 -1 0
vn -1 0 0
vn -1 0 0
vn -1 0 0
vn -1 0 0
vn 0 0 1
vn 0 0 1
vn 0 0 1
vn 0 0 1
vn 0 0 -1
vn 0 0 -1
vn 0 0 -1
vn 0 0 -1
vn 0 1 0
vn 0 1 0
vn 0 1 0
vn 0 1 0
vn 0 1 0
vn 0 1 0
vn 0 1 0
vn 0 1 0
vn 0 1 0
vn 0 1 0
vn 0 1 0
vn 0 1 0
vn 0 1 0
vn 0 1 0
vn 0 1 0
vn 0 1 0
vn 0 1 0
vn 0 1 0
vn 0 1 0
vn 0 1 0
vn 0 1 0
vn 0 1 0
vn 0 1 0
vn 0 1 0
vn 0 1 0
vn 0 1 0
vn 0 1 0
vn 0 1 0
vn 0 1 0
vn 0 1 0
vn 0 1 0
vn 0 1 0
vn 0 1 0
vn 1 0 0
vn 1 0 0
vn 1 0 0
vn 1 0 0
vn 0 0 1
vn 0 0 1
vn 0 0 1
vn 0 0 1
vn 0 1 0
vn 0 1 0
vn 0 1 0
vn 0 1 0
vn 0 0 1
vn 0 0 1
vn 0 0 1
vn 0 0 1
vn -1 0 0
vn -1 0 0
vn -1 0 0
vn -1 0 0
vn 0 0 -1
vn 0 0 -1
vn 0 0 -1
vn 0 0 -1
vn 1 0 0
vn 1 0 0
vn 1 0 0
vn 1 0 0
vn 0 -1 0
vn 0 -1 0
vn 0 -1 0
vn 0 -1 0
vn 0 1 0
vn 0 1 0
vn 0 1 0
vn 0 1 0
vn 0 0 1
vn 0 0 1
vn 0 0 1
vn 0 0 1
vn -1 0 0
vn -1 0 0
vn -1 0 0
vn -1 0 0
vn 0 0 -1
vn 0 0 -1
vn 0 0 -1
vn 0 0 -1
vn 1 0 0
vn 1 0 0
vn 1 0 0
vn 1 0 0
vn 0 -1 0
vn 0 -1 0
vn 0 -1 0
vn 0 -1 0
vn 0 1 0
vn 0 1 0
vn 0 1 0
vn 0 1 0
vn 0 0 1
vn 0 0 1
vn 0 0 1
vn 0 0 1
vn -1 0 0
vn -1 0 0
vn -1 0 0
vn -1 0 0
vn 0 0 -1
vn 0 0 -1
vn 0 0 -1
vn 0 0 -1
vn 1 0 0
vn 1 0 0
vn 1 0 0
vn 1 0 0
vn 0 -1 0
vn 0 -1 0
vn 0 -1 0
vn 0 -1 0
vn 0 1 0
vn 0 1 0
vn 0 1 0
vn 0 1 0
vn 0 0 1
vn 0 0 1
vn 0 0 1
vn 0 0 1
vn -1 0 0
vn -1 0 0
vn -1 0 0
vn -1 0 0
vn 0 0 -1
vn 0 0 -1
vn 0 0 -1
vn 0 0 -1
vn 1 0 0
vn 1 0 0
vn 1 0 0
vn 1 0 0
vn 0 -1 0
vn 0 -1 0
vn 0 -1 0
vn 0 -1 0
vn 0 1 0
vn 0 1 0
vn 0 1 0
vn 0 1 0
vn 0 0 -1
vn 0 0 -1
vn 0 0 -1
vn 0 0 -1
vn 1 0 0
vn 1 0 0
vn 1 0 0
vn 1 0 0
vn -1 0 0
vn -1 0 0
vn -1 0 0
vn -1 0 0
vn -1 0 0
vn -1 0 0
vn -1 0 0
vn -1 0 0
vn 0 0 -1
vn 0 0 -1
vn 0 0 -1
vn 0 0 -1
vn 0 0 -1
vn 0 0 -1
vn 0 0 -1
vn 0 0 -1
vn 1 0 0
vn 1 0 0
vn 1 0 0
vn 1 0 0
vn 0 -1 0
vn 0 -1 0
vn 0 -1 0
vn 0 -1 0
vn 0 0 1
vn 0 0 1
vn 0 0 1
vn 0 0 1
vn 0 -1 0
vn 0 -0.9999999 0
vn 0 -1 0
vn 0 -1 0
vn 0 -1 0
vn 0 1 0
vn 0 1 0
vn 0 1 0
vn 0 1 0
vn 0 0.9999999 0
vn 0 1 0
vn 0 1 0
vn 0 1 0
vn 0 1 0
vn -1 0 0
vn -1 0 0
vn -1 0 0
vn -1 0 0
vn 1 0 0
vn 1 0 0
vn 1 0 0
vn 1 0 0
vn 0 0 1
vn 0 0 1
vn 0 0 1
vn 0 0 1
vn 0 0 1
vn 0 0 1
vn 0 0 1
vn 0 0 1
vn 0 0 1
vn 0 0 1
vn 0 0 1
vn 0 0 1
vn 0 -1 0
vn 0 -1 0
vn 0 -1 0
vn 0 -1 0
vn 0 -1 0
vn 0 -1 0
vn 1 0 0
vn 1 0 0
vn 1 0 0
vn 1 0 0
vn 0 -1 0
vn 0 -1 0
vn 0 -1 0
vn 0 -1 0
vn -1 0 0
vn -1 0 0
vn -1 0 0
vn -1 0 0
vn 0 1 0
vn 0 1 0
vn 0 1 0
vn 0 1 0
vn 0 1 0
vn 0 1 0
vn 0 1 0
vn 0 1 0
vn 0 1 0
vn 0 1 0
vn 0 0 1
vn 0 0 1
vn 0 0 1
vn 0 0 1
vn -1 0 0
vn -1 0 0
vn -1 0 0
vn -1 0 0
vn 1 0 0
vn 1 0 0
vn 1 0 0
vn 1 0 0
vn 0 -1 0
vn 0 -1 0
vn 0 -1 0
vn 0 -1 0
vn 0 -1 0
vn 0 -1 0
vn 0 -1 0
vn 0 -1 0
vn 0 -1 0
vn 0 -1 0
vn 0 -1 0
vn 0 -1 0
vn -1 0 0
vn -1 0 0
vn -1 0 0
vn -1 0 0
vn 1 0 0
vn 1 0 0
vn 1 0 0
vn 1 0 0
vn 0 0 1
vn 0 0 1
vn 0 0 1
vn 0 0 1
vn 0 0 1
vn 0 0 1
vn 0 0 1
vn 0 0 1
vn 0 0 -1
vn 0 0 -1
vn 0 0 -1
vn 0 0 -1
vn 1 0 0
vn 1 0 0
vn 1 0 0
vn 1 0 0
vn 0 -1 0
vn 0 -1 0
vn 0 -1 0
vn 0 -1 0
vn -1 0 0
vn -1 0 0
vn -1 0 0
vn -1 0 0
vn -1 0 0
vn -1 0 0
vn -1 0 0
vn -1 0 0
vn 0 -1 0
vn 0 -1 0
vn 0 -1 0
vn 0 -1 0
vn 1 0 0
vn 1 0 0
vn 1 0 0
vn 1 0 0
vn 0 0 1
vn 0 0 1
vn 0 0 1
vn 0 0 1
vn 0 0 -1
vn 0 0 -1
vn 0 0 -1
vn 0 0 -1
vn 0 0 -1
vn 0 0 -1
vn 0 0 -1
vn 0 0 -1
vn 0 0 -1
vn 0 0 -1
vn 0 0 -1
vn 0 0 -1
vn 0 -1 0
vn 0 -1 0
vn 0 -1 0
vn 0 -1 0
vn -1 0 0
vn -1 0 0
vn -1 0 0
vn -1 0 0
vn 0 -1 0
vn 0 -1 0
vn 0 -1 0
vn 0 -1 0
vn 1 0 0
vn 1 0 0
vn 1 0 0
vn 1 0 0
vn 1 0 0
vn 1 0 0
vn 1 0 0
vn 1 0 0
vn 0 0 1
vn 0 0 1
vn 0 0 1
vn 0 0 1
vn 0 0 1
vn 0 0 1
vn 0 0 1
vn 0 0 1
vn -1 0 0
vn -1 0 0
vn -1 0 0
vn -1 0 0
vn 0 -1 0
vn 0 -1 0
vn 0 -1 0
vn 0 -1 0
vn 0 1 0
vn 0 1 0
vn 0 1 0
vn 0 1 0
vn 0 1 0
vn 0 1 0
vn 0 1 0
vn 0 1 0
vn 0 1 0
vn 0 1 0
vn 0 1 0
vn 0 1 0
vn 0 1 0
vn 0 1 0
vn 0 1 0
vn 0 1 0
vn 0 1 0
vn 0 1 0
vn 0 1 0
vn 0 1 0
vn 0 1 0
vn 0 1 0
vn 0 1 0
vn 0 1 0
vn 0 1 0
vn 0 1 0
vn 0 1 0
vn 0 1 0
vn 0 1 0
vn 0 1 0
vn 0 1 0
vn 0 1 0
vn 0 1 0
vn 0 1 0
vn 0 1 0
vn 0 1 0
vn 0 0 1
vn 0 0 1
vn 0 0 1
vn 0 0 1
vn -1 0 0
vn -1 0 0
vn -1 0 0
vn -1 0 0
vn 0 0 -1
vn 0 0 -1
vn 0 0 -1
vn 0 0 -1
vn 0 1 0
vn 0 1 0
vn 0 1 0
vn 0 1 0
vn 0 -1 0
vn 0 -1 0
vn 0 -1 0
vn 0 -1 0
vn 0 -1 0
vn 0 -1 0
vn 0 -1 0
vn 0 -1 0
vn 0 0 1
vn 0 0 1
vn 0 0 1
vn 0 0 1
vn 0 0 -1
vn 0 0 -1
vn 0 0 -1
vn 0 0 -1
vn 0 1 0
vn 0 1 0
vn 0 1 0
vn 0 1 0
vn 1 0 0
vn 1 0 0
vn 1 0 0
vn 1 0 0
vn 0 0 -1
vn 0 0 -1
vn 0 0 -1
vn 0 0 -1
vn 0 0 1
vn 0 0 1
vn 0 0 1
vn 0 0 1
vn -1 0 0
vn -1 0 0
vn -1 0 0
vn -1 0 0
vn 1 0 0
vn 1 0 0
vn 1 0 0
vn 1 0 0
vn 0 0 -1
vn 0 0 -1
vn 0 0 -1
vn 0 0 -1
vn 0 0 1
vn 0 0 1
vn 0 0 1
vn 0 0 1
vn -1 0 0
vn -1 0 0
vn -1 0 0
vn -1 0 0
vn 0 -1 0
vn 0 -1 0
vn 0 -1 0
vn 0 -1 0
vn 0 0 1
vn 0 0 1
vn 0 0 1
vn 0 0 1
vn 0 0 -1
vn 0 0 -1
vn 0 0 -1
vn 0 0 -1
vn 0 1 0
vn 0 1 0
vn 0 1 0
vn 0 1 0

vt 1 0
vt 0 0
vt 1 3
vt 0 3
vt 1 0
vt 0 0
vt 1 3
vt 0 3
vt 1 0
vt 0 0
vt 1 3
vt 0 3
vt 1 0
vt 0 0
vt 1 3
vt 0 3
vt 1 0
vt 0 0
vt 1 3
vt 0 3
vt 1 0
vt 0 0
vt 1 3
vt 0 3
vt 1 0
vt 0 0
vt 1 3
vt 0 3
vt 1 0
vt 0 0
vt 1 3
vt 0 3
vt 0 3
vt 70 0
vt 0 0
vt 70 3
vt 0 3
vt 27 0
vt 0 0
vt 27 3
vt 0 3
vt 53 0
vt 0 0
vt 53 3
vt 0 4
vt 31 0
vt 4 0
vt 35 4
vt 0 1
vt 35 0
vt 0 0
vt 35 1
vt 4 0
vt 0 74
vt 4 70
vt 0 0
vt 0 1
vt 74 0
vt 0 0
vt 74 1
vt 74 0
vt 0 7
vt 74 7
vt 0 0
vt 35 0
vt 0 7
vt 35 7
vt 0 0
vt 57 0
vt 0 7
vt 57 7
vt 0 0
vt 4 0
vt 0 53
vt 4 57
vt 0 0
vt 0 1
vt 57 0
vt 0 0
vt 57 1
vt 0 10
vt 4 10
vt 17 0
vt 0 0
vt 17 11
vt 4 11
vt 65 11
vt 0 0
vt 0 11
vt 65 0
vt 60 11
vt 0 0
vt 0 11
vt 60 0
vt 82 11
vt 0 0
vt 0 11
vt 82 0
vt 12 10
vt 0 11
vt 12 11
vt 0 0
vt 16 0
vt 16 10
vt 0 0
vt 0 70
vt 4 0
vt 4 74
vt 4 0
vt 35 4
vt 31 0
vt 0 4
vt 4 0
vt 0 57
vt 4 53
vt 0 0
vt 4 0
vt 0 0
vt 4 1
vt 0 1
vt 6 0
vt 0 0
vt 6 1
vt 0 1
vt 0 0
vt 0 1
vt 14 0
vt 0 1
vt 14 1
vt 14 0
vt 0 0
vt 0 1
vt 14 0
vt 14 1
vt 2 1
vt 2 0
vt 0 0
vt 0 1
vt 0 0
vt 0 1
vt 14 0
vt 0 1
vt 14 1
vt 14 0
vt 0 0
vt 0 1
vt 5.656854 0
vt 5.656854 1
vt 7.071068 1
vt 7.071068 0
vt 5.656854 0
vt 5.656854 1
vt 6 2
vt 0 0
vt 0 4
vt 6 0
vt 14 2
vt 6 0
vt 0 2
vt 14 0
vt 0 0
vt 6 4
vt 6 0
vt 0 2
vt 0 0
vt 14 2
vt 8 0
vt 0 2
vt 1 0
vt 0 0
vt 1 1
vt 0 1
vt 1 0
vt 0 0
vt 1 1
vt 0 1
vt 1 0
vt 0 0
vt 1 1
vt 0 1
vt 1 0
vt 0 0
vt 1 1
vt 0 1
vt 1 0
vt 0 0
vt 1 1
vt 0 1
vt 1 0
vt 0 0
vt 1 1
vt 0 1
vt 1 0
vt 0 0
vt 1 1
vt 0 1
vt 1 0
vt 0 0
vt 1 1
vt 0 1
vt 1 0
vt 0 0
vt 1 1
vt 0 1
vt 1 0
vt 0 0
vt 1 1
vt 0 1
vt 1 0
vt 0 0
vt 1 1
vt 0 1
vt 1 0
vt 0 0
vt 1 1
vt 0 1
vt 1 0
vt 0 0
vt 1 1
vt 0 1
vt 1 0
vt 0 0
vt 1 1
vt 0 1
vt 1 0
vt 0 0
vt 1 1
vt 0 1
vt 1 0
vt 0 0
vt 1 1
vt 0 1
vt 1 0
vt 0 0
vt 1 1
vt 0 1
vt 1 0
vt 0 0
vt 1 1
vt 0 1
vt 1 0
vt 0 0
vt 1 1
vt 0 1
vt 1 0
vt 0 0
vt 1 1
vt 0 1
vt 1 0
vt 0 0
vt 1 1
vt 0 1
vt 1 0
vt 0 0
vt 1 1
vt 0 1
vt 1 0
vt 0 0
vt 1 1
vt 0 1
vt 1 0
vt 0 0
vt 1 1
vt 0 1
vt 1 0
vt 0 0
vt 1 1
vt 0 1
vt 1 0
vt 0 0
vt 1 1
vt 0 1
vt 1 0
vt 0 0
vt 1 1
vt 0 1
vt 1 0
vt 0 0
vt 1 1
vt 0 1
vt 0 1
vt 1 1
vt 0 0
vt 1 0
vt 0 1
vt 1 1
vt 0 0
vt 1 0
vt 0 1
vt 1 1
vt 0 0
vt 1 0
vt 0 1
vt 1 1
vt 0 0
vt 1 0
vt 0 1
vt 1 1
vt 0 0
vt 1 0
vt 0 1
vt 1 1
vt 0 0
vt 1 0
vt 3 0
vt 0 0
vt 3 1
vt 0 1
vt 4 0
vt 0 0
vt 4 1
vt 0 1
vt 4 0
vt 0 0
vt 4 1
vt 0 1
vt 3 1
vt 3 0
vt 2 0
vt 2 1
vt 0 0
vt 0 1
vt 1 0
vt 1 1
vt 1 1
vt 1 0
vt 0 0
vt 0 1
vt 0 0
vt 0 4
vt 1 0
vt 2 0
vt 3 4
vt 3 0
vt 12 1
vt 12 0
vt 0 1
vt 0 0
vt 0 12
vt 1 12
vt 0 0
vt 1 0
vt 0 0
vt 0 1
vt 12 0
vt 12 1
vt 2 0
vt 3 4
vt 3 0
vt 0 4
vt 1 0
vt 0 0
vt 0 12
vt 1 12
vt 0 0
vt 1 0
vt 2 0
vt 0 0
vt 2 1
vt 0 1
vt 6 0
vt 0 0
vt 6 1
vt 0 1
vt 2 0
vt 0 0
vt 2 1
vt 0 1
vt 6 1
vt 6 0
vt 4 0
vt 4 1
vt 0 0
vt 0 1
vt 2 0
vt 2 1
vt 3 1
vt 3 0
vt 0 0
vt 0 1
vt 6 0
vt 4 2
vt 6 2
vt 0 0
vt 2 2
vt 0 2
vt 4 1
vt 4 0
vt 0 1
vt 0 0
vt 0 0
vt 0 1
vt 3 0
vt 3 1
vt 3 0
vt 1 0
vt 1 3
vt 3 4
vt 0 4
vt 0 0
vt 0 1
vt 2 0
vt 2 1
vt 2 0
vt 0 0
vt 1 1
vt 1 5
vt 0 5
vt 0 0
vt 0 1
vt 5 0
vt 5 1
vt 4 1
vt 4 0
vt 0 0
vt 0 1
vt 0 0
vt 0 1
vt 4 0
vt 4 1
vt 1 0
vt 0 0
vt 1 5
vt 0 4
vt 5 1
vt 5 0
vt 0 1
vt 0 0
vt 0 0
vt 0 1
vt 1 0
vt 1 1
vt 2 1
vt 1 0
vt 0 1
vt 2 1
vt 2 0
vt 0 1
vt 0 0
vt 0 0
vt 0 1
vt 3 0
vt 3 1
vt 2 1
vt 3 0
vt 0 1
vt 0 0
vt 2 1
vt 2 0
vt 0 1
vt 0 0
vt 3 1
vt 3 0
vt 0 1
vt 0 0
vt 2 0
vt 0 0
vt 2 3
vt 0 3
vt 0 0
vt 0 1
vt 3 0
vt 3 1
vt 1 0
vt 0 1
vt 1 1
vt 0 0
vt 1 0
vt 0 1
vt 1 1
vt 0 0
vt 2 2
vt 0 0
vt 0 2
vt 6 0
vt 4 2
vt 6 2
vt 2 0
vt 0 0
vt 2 3
vt 0 4
vt 3 4
vt 2 0
vt 0 0
vt 1 1
vt 1 0
vt 0 1
vt 0 5
vt 1 5
vt 1 0
vt 0 0
vt 1 4
vt 0 5
vt 0 1
vt 2 1
vt 1 0
vt 0 0
vt 1 1
vt 3 0
vt 3 1
vt 2 0
vt 0 0
vt 2 3
vt 0 3
vt 0 9
vt 5 9
vt 5 0
vt 0 0
vt 0 9
vt 8 9
vt 8 0
vt 0 0
vt 0 5
vt 8 5
vt 8 0
vt 0 0
vt 7 0
vt 0 0
vt 7 1
vt 0 1
vt 8 0
vt 0 0
vt 8 1
vt 0 1
vt 7 0
vt 0 0
vt 7 1
vt 0 1
vt 8 0
vt 0 0
vt 8 1
vt 0 1
vt 7 0
vt 0 0
vt 7 8
vt 0 8
vt 0 8
vt 7 8
vt 0 0
vt 7 0
vt 10 0
vt 0 0
vt 10 1
vt 0 1
vt 2 0
vt 0 0
vt 2 1
vt 0 1
vt 10 0
vt 0 0
vt 10 1
vt 0 1
vt 2 0
vt 0 0
vt 2 1
vt 0 1
vt 10 0
vt 0 0
vt 10 2
vt 0 2
vt 0 2
vt 10 2
vt 0 0
vt 10 0
vt 3 0
vt 0 0
vt 3 1
vt 0 1
vt 2 0
vt 0 0
vt 2 1
vt 0 1
vt 3 0
vt 0 0
vt 3 1
vt 0 1
vt 2 0
vt 0 0
vt 2 1
vt 0 1
vt 3 0
vt 0 0
vt 3 2
vt 0 2
vt 0 2
vt 3 2
vt 0 0
vt 3 0
vt 14 0
vt 0 0
vt 14 1
vt 0 1
vt 2 0
vt 0 0
vt 2 1
vt 0 1
vt 14 0
vt 0 0
vt 14 1
vt 0 1
vt 2 0
vt 0 0
vt 2 1
vt 0 1
vt 14 0
vt 0 0
vt 14 2
vt 0 2
vt 0 2
vt 14 2
vt 0 0
vt 14 0
vt 2 0
vt 0 0
vt 2 1
vt 0 1
vt 5 1
vt 5 0
vt 0 1
vt 0 0
vt 0 0
vt 0 1
vt 5 0
vt 5 1
vt -4.768372E-07 0
vt -4.768372E-07 1
vt 11.31371 0
vt 11.31371 1
vt 12.72792 1
vt 12.72792 0
vt 11.31371 0
vt 11.31371 1
vt 0 0
vt 0 1
vt 1.414213 0
vt 1.414213 1
vt 12.72792 1
vt 12.72792 0
vt 1.414213 0
vt 1.414213 1
vt 2 0
vt 0 0
vt 2 16
vt 0 16
vt 0 0
vt 0 1
vt 5 0
vt 5 1
vt 6 0
vt 0 0
vt 5 5
vt 0 5
vt 6 5
vt 2 16
vt 2 0
vt 0 16
vt 0 0
vt 6 0
vt 0 0
vt 1 5
vt 0 5
vt 6 5
vt 7 0
vt 0 0
vt 7 1
vt 0 1
vt 7 0
vt 0 0
vt 7 1
vt 0 1
vt 6 1
vt 6 0
vt 4 0
vt 4 1
vt 0 0
vt 0 1
vt 2 0
vt 2 1
vt 2 1
vt 2 0
vt 0 0
vt 0 1
vt 6 0
vt 4 7
vt 6 7
vt 0 0
vt 2 7
vt 0 7
vt 1 1
vt 1 0
vt 0 1
vt 0 0
vt 2 0
vt 0 0
vt 2 1
vt 0 1
vt 0 0
vt 0 1
vt 1 0
vt 1 1
vt 0 0
vt 0 7
vt 2 7
vt 6 0
vt 6 7
vt 4 7
vt 2 0
vt 0 0
vt 2 1
vt 0 1
vt 1 0
vt 0 0
vt 1 1
vt 0 1
vt 2 0
vt 0 0
vt 2 1
vt 0 1
vt 2 0
vt 0 0
vt 2 1
vt 0 1
vt 1 0
vt 0 0
vt 1 2
vt 0 2
vt 3 1
vt 4 1
vt 0 0
vt 0 1
vt 6 0
vt 7 1
vt 7 0
vt 1 0
vt 1 1
vt 1 0
vt 0 1
vt 0 0
vt 0 0
vt 0 1
vt 1 0
vt 1 1
vt 3 1
vt 3 0
vt 0 1
vt 0 0
vt 0 0
vt 0 1
vt 3 0
vt 3 1
vt 0 0
vt 0 1
vt 5 0
vt 5 1
vt 0 0
vt 0 1
vt 9 0
vt 9 1
vt 0 9
vt 1 9
vt 0 1
vt 1 0
vt 8 1
vt 8 0
vt 0 1
vt 0 0
vt 9 1
vt 9 0
vt 0 1
vt 0 0
vt 0 9
vt 1 9
vt 0 0
vt 1 1
vt 0 0
vt 0 1
vt 8 0
vt 8 1
vt 0 0
vt 0 1
vt 5 0
vt 5 1
vt 3 1
vt 3 0
vt 0 0
vt 0 1
vt 0 0
vt 0 1
vt 3 0
vt 3 1
vt 7 1
vt 7 0
vt 0 0
vt 0 1
vt 3 0
vt 6 1
vt 4 0
vt 7 0
vt 16 1
vt 16 0
vt 0 1
vt 0 0
vt 0 16
vt 7 16
vt 0 0
vt 7 0
vt 0 0
vt 0 1
vt 16 0
vt 16 1
vt 0 0
vt 0 1
vt 4 0
vt 4 1
vt 3 1
vt 3 0
vt 0 1
vt 0 0
vt 0 0
vt 0 1
vt 3 1
vt 3 0
vt 4 1
vt 4 0
vt 0 0
vt 0 1
vt 0 4
vt 1 4
vt 1 0
vt 0 0
vt 0 2
vt 1 2
vt 0 0
vt 1 0
vt 5 0
vt 2 1
vt 3 1
vt 0 0
vt 2 0
vt 3 1
vt 3 0
vt 0 1
vt 0 0
vt 3 1
vt 1 0
vt 0 1
vt 0 9
vt 1 9
vt 0 0
vt 1 1
vt 0 9
vt 1 9
vt 0 1
vt 1 0
vt 6 1
vt 7 0
vt 4 0
vt 3 0
vt 0 16
vt 7 16
vt 0 0
vt 7 0
vt 0 4
vt 1 4
vt 0 0
vt 1 0
vt 1 0
vt 0 0
vt 1 1
vt 0 1
vt 1 0
vt 0 0
vt 1 1
vt 0 1
vt 1 0
vt 0 0
vt 1 1
vt 0 1
vt 0 1
vt 1 1
vt 0 0
vt 1 0
vt 1 0
vt 0 0
vt 1 1
vt 0 1
vt 1 1
vt 1 0
vt 0 1
vt 0 0
vt 1 1
vt 1 0
vt 0 1
vt 0 0
vt 0 0
vt 0 1
vt 1 0
vt 1 1
vt 0 0
vt 0 1
vt 1 0
vt 1 1
vt 1 0
vt 0 0
vt 1 4
vt 0 4
vt 1 0
vt 0 0
vt 1 4
vt 0 4
vt 1 0
vt 0 0
vt 1 4
vt 0 4
vt 1 0
vt 0 0
vt 1 4
vt 0 4
vt 1 0
vt 0 0
vt 1 1
vt 0 1
vt 1 0
vt 0 0
vt 1 1
vt 0 1
vt 1 0
vt 0 0
vt 1 1
vt 0 1
vt 1 0
vt 0 0
vt 1 1
vt 0 1
vt 5 1
vt 5 0
vt 0 1
vt 0 0
vt 5 1
vt 5 0
vt 0 1
vt 0 0
vt 0 0
vt 0 1
vt 5 0
vt 5 1
vt 0 0
vt 0 1
vt 5 0
vt 5 1

g Combined_Mesh_(root:_scene)
usemtl Combined_Mesh_(root:_scene)
usemap Combined_Mesh_(root:_scene)
f 1/1/1 3/3/3 2/2/2
f 2/2/2 3/3/3 4/4/4
f 5/5/5 7/7/7 6/6/6
f 6/6/6 7/7/7 8/8/8
f 9/9/9 11/11/11 10/10/10
f 10/10/10 11/11/11 12/12/12
f 13/13/13 15/15/15 14/14/14
f 14/14/14 15/15/15 16/16/16
f 17/17/17 19/19/19 18/18/18
f 18/18/18 19/19/19 20/20/20
f 21/21/21 23/23/23 22/22/22
f 22/22/22 23/23/23 24/24/24
f 25/25/25 27/27/27 26/26/26
f 26/26/26 27/27/27 28/28/28
f 29/29/29 31/31/31 30/30/30
f 30/30/30 31/31/31 32/32/32
f 33/33/33 35/35/35 34/34/34
f 33/33/33 34/34/34 36/36/36
f 37/37/37 39/39/39 38/38/38
f 37/37/37 38/38/38 40/40/40
f 41/41/41 43/43/43 42/42/42
f 41/41/41 42/42/42 44/44/44
f 45/45/45 47/47/47 46/46/46
f 45/45/45 46/46/46 48/48/48
f 49/49/49 51/51/51 50/50/50
f 49/49/49 50/50/50 52/52/52
f 53/53/53 55/55/55 54/54/54
f 53/53/53 54/54/54 56/56/56
f 57/57/57 59/59/59 58/58/58
f 57/57/57 58/58/58 60/60/60
f 61/61/61 63/63/63 62/62/62
f 61/61/61 62/62/62 64/64/64
f 65/65/65 67/67/67 66/66/66
f 65/65/65 66/66/66 68/68/68
f 69/69/69 71/71/71 70/70/70
f 69/69/69 70/70/70 72/72/72
f 73/73/73 75/75/75 74/74/74
f 73/73/73 74/74/74 76/76/76
f 77/77/77 79/79/79 78/78/78
f 77/77/77 78/78/78 80/80/80
f 81/81/81 83/83/83 82/82/82
f 84/84/84 83/83/83 81/81/81
f 82/82/82 83/83/83 85/85/85
f 85/85/85 86/86/86 82/82/82
f 87/87/87 89/89/89 88/88/88
f 87/87/87 88/88/88 90/90/90
f 91/91/91 93/93/93 92/92/92
f 91/91/91 92/92/92 94/94/94
f 95/95/95 97/97/97 96/96/96
f 95/95/95 96/96/96 98/98/98
f 99/99/99 101/101/101 100/100/100
f 102/102/102 103/103/103 100/100/100
f 100/100/100 103/103/103 99/99/99
f 99/99/99 103/103/103 104/104/104
g Combined_Mesh_(root:_scene)_1
usemtl Combined_Mesh_(root:_scene)_1
usemap Combined_Mesh_(root:_scene)_1
f 105/105/105 107/107/107 106/106/106
f 106/106/106 107/107/107 108/108/108
f 109/109/109 111/111/111 110/110/110
f 109/109/109 110/110/110 112/112/112
f 113/113/113 115/115/115 114/114/114
f 113/113/113 114/114/114 116/116/116
g Combined_Mesh_(root:_scene)_2
usemtl Combined_Mesh_(root:_scene)_2
usemap Combined_Mesh_(root:_scene)_2
f 117/117/117 119/119/119 118/118/118
f 118/118/118 119/119/119 120/120/120
f 121/121/121 123/123/123 122/122/122
f 122/122/122 123/123/123 124/124/124
f 125/125/125 127/127/127 126/126/126
f 128/128/128 130/130/130 129/129/129
f 131/131/131 133/133/133 132/132/132
f 132/132/132 133/133/133 134/134/134
f 135/135/135 137/137/137 136/136/136
f 138/138/138 137/137/137 135/135/135
f 139/139/139 141/141/141 140/140/140
f 142/142/142 144/144/144 143/143/143
f 145/145/145 147/147/147 146/146/146
f 146/146/146 147/147/147 148/148/148
f 149/149/149 151/151/151 150/150/150
f 152/152/152 151/151/151 149/149/149
f 153/153/153 155/155/155 154/154/154
f 153/153/153 154/154/154 156/156/156
f 157/157/157 159/159/159 158/158/158
f 157/157/157 158/158/158 160/160/160
g Combined_Mesh_(root:_scene)_3
usemtl Combined_Mesh_(root:_scene)_3
usemap Combined_Mesh_(root:_scene)_3
f 161/161/161 163/163/163 162/162/162
f 161/161/161 162/162/162 164/164/164
f 165/165/165 167/167/167 166/166/166
f 165/165/165 166/166/166 168/168/168
g Combined_Mesh_(root:_scene)_4
usemtl Combined_Mesh_(root:_scene)_4
usemap Combined_Mesh_(root:_scene)_4
f 169/169/169 171/171/171 170/170/170
f 170/170/170 171/171/171 172/172/172
f 173/173/173 175/175/175 174/174/174
f 174/174/174 175/175/175 176/176/176
f 177/177/177 179/179/179 178/178/178
f 178/178/178 179/179/179 180/180/180
f 181/181/181 183/183/183 182/182/182
f 182/182/182 183/183/183 184/184/184
f 185/185/185 187/187/187 186/186/186
f 186/186/186 187/187/187 188/188/188
f 189/189/189 191/191/191 190/190/190
f 190/190/190 191/191/191 192/192/192
f 193/193/193 195/195/195 194/194/194
f 194/194/194 195/195/195 196/196/196
f 197/197/197 199/199/199 198/198/198
f 198/198/198 199/199/199 200/200/200
f 201/201/201 203/203/203 202/202/202
f 202/202/202 203/203/203 204/204/204
f 205/205/205 207/207/207 206/206/206
f 206/206/206 207/207/207 208/208/208
f 209/209/209 211/211/211 210/210/210
f 210/210/210 211/211/211 212/212/212
f 213/213/213 215/215/215 214/214/214
f 214/214/214 215/215/215 216/216/216
f 217/217/217 219/219/219 218/218/218
f 218/218/218 219/219/219 220/220/220
f 221/221/221 223/223/223 222/222/222
f 222/222/222 223/223/223 224/224/224
f 225/225/225 227/227/227 226/226/226
f 226/226/226 227/227/227 228/228/228
f 229/229/229 231/231/231 230/230/230
f 230/230/230 231/231/231 232/232/232
f 233/233/233 235/235/235 234/234/234
f 234/234/234 235/235/235 236/236/236
f 237/237/237 239/239/239 238/238/238
f 238/238/238 239/239/239 240/240/240
f 241/241/241 243/243/243 242/242/242
f 242/242/242 243/243/243 244/244/244
f 245/245/245 247/247/247 246/246/246
f 246/246/246 247/247/247 248/248/248
f 249/249/249 251/251/251 250/250/250
f 250/250/250 251/251/251 252/252/252
f 253/253/253 255/255/255 254/254/254
f 254/254/254 255/255/255 256/256/256
f 257/257/257 259/259/259 258/258/258
f 258/258/258 259/259/259 260/260/260
f 261/261/261 263/263/263 262/262/262
f 262/262/262 263/263/263 264/264/264
f 265/265/265 267/267/267 266/266/266
f 266/266/266 267/267/267 268/268/268
f 269/269/269 271/271/271 270/270/270
f 270/270/270 271/271/271 272/272/272
f 273/273/273 275/275/275 274/274/274
f 274/274/274 275/275/275 276/276/276
f 277/277/277 279/279/279 278/278/278
f 278/278/278 279/279/279 280/280/280
g Combined_Mesh_(root:_scene)_5
usemtl Combined_Mesh_(root:_scene)_5
usemap Combined_Mesh_(root:_scene)_5
f 281/281/281 283/283/283 282/282/282
f 282/282/282 283/283/283 284/284/284
f 285/285/285 287/287/287 286/286/286
f 286/286/286 287/287/287 288/288/288
f 289/289/289 291/291/291 290/290/290
f 290/290/290 291/291/291 292/292/292
f 293/293/293 295/295/295 294/294/294
f 294/294/294 295/295/295 296/296/296
f 297/297/297 299/299/299 298/298/298
f 298/298/298 299/299/299 300/300/300
f 301/301/301 303/303/303 302/302/302
f 302/302/302 303/303/303 304/304/304
g Combined_Mesh_(root:_scene)_6
usemtl Combined_Mesh_(root:_scene)_6
usemap Combined_Mesh_(root:_scene)_6
f 305/305/305 307/307/307 306/306/306
f 306/306/306 307/307/307 308/308/308
f 309/309/309 311/311/311 310/310/310
f 310/310/310 311/311/311 312/312/312
f 313/313/313 315/315/315 314/314/314
f 314/314/314 315/315/315 316/316/316
f 317/317/317 319/319/319 318/318/318
f 320/320/320 319/319/319 317/317/317
f 321/321/321 323/323/323 322/322/322
f 322/322/322 323/323/323 324/324/324
f 325/325/325 327/327/327 326/326/326
f 328/328/328 327/327/327 325/325/325
f 329/329/329 331/331/331 330/330/330
f 331/331/331 332/332/332 330/330/330
f 330/330/330 332/332/332 333/333/333
f 333/333/333 332/332/332 334/334/334
f 335/335/335 337/337/337 336/336/336
f 336/336/336 337/337/337 338/338/338
f 339/339/339 341/341/341 340/340/340
f 340/340/340 341/341/341 342/342/342
f 343/343/343 345/345/345 344/344/344
f 344/344/344 345/345/345 346/346/346
g Combined_Mesh_(root:_scene)_7
usemtl Combined_Mesh_(root:_scene)_7
usemap Combined_Mesh_(root:_scene)_7
f 347/347/347 349/349/349 348/348/348
f 350/350/350 351/351/351 348/348/348
f 348/348/348 351/351/351 347/347/347
f 352/352/352 351/351/351 350/350/350
f 353/353/353 355/355/355 354/354/354
f 354/354/354 355/355/355 356/356/356
g Combined_Mesh_(root:_scene)_8
usemtl Combined_Mesh_(root:_scene)_8
usemap Combined_Mesh_(root:_scene)_8
f 357/357/357 359/359/359 358/358/358
f 358/358/358 359/359/359 360/360/360
f 361/361/361 363/363/363 362/362/362
f 362/362/362 363/363/363 364/364/364
f 365/365/365 367/367/367 366/366/366
f 366/366/366 367/367/367 368/368/368
f 369/369/369 371/371/371 370/370/370
f 372/372/372 371/371/371 369/369/369
f 373/373/373 375/375/375 374/374/374
f 374/374/374 375/375/375 376/376/376
f 377/377/377 379/379/379 378/378/378
f 380/380/380 379/379/379 377/377/377
f 381/381/381 383/383/383 382/382/382
f 381/381/381 385/385/385 384/384/384
f 382/382/382 385/385/385 381/381/381
f 384/384/384 385/385/385 386/386/386
f 387/387/387 389/389/389 388/388/388
f 388/388/388 389/389/389 390/390/390
f 391/391/391 393/393/393 392/392/392
f 392/392/392 393/393/393 394/394/394
f 395/395/395 397/397/397 396/396/396
f 398/398/398 397/397/397 395/395/395
f 399/399/399 397/397/397 398/398/398
f 400/400/400 402/402/402 401/401/401
f 401/401/401 402/402/402 403/403/403
f 404/404/404 406/406/406 405/405/405
f 406/406/406 407/407/407 405/405/405
f 405/405/405 407/407/407 408/408/408
f 409/409/409 411/411/411 410/410/410
f 410/410/410 411/411/411 412/412/412
f 413/413/413 415/415/415 414/414/414
f 416/416/416 415/415/415 413/413/413
f 417/417/417 419/419/419 418/418/418
f 418/418/418 419/419/419 420/420/420
f 421/421/421 423/423/423 422/422/422
f 422/422/422 423/423/423 424/424/424
f 425/425/425 427/427/427 426/426/426
f 426/426/426 427/427/427 428/428/428
f 429/429/429 431/431/431 430/430/430
f 430/430/430 431/431/431 432/432/432
f 433/433/433 435/435/435 434/434/434
f 436/436/436 438/438/438 437/437/437
f 437/437/437 438/438/438 439/439/439
f 440/440/440 442/442/442 441/441/441
f 441/441/441 442/442/442 443/443/443
f 444/444/444 446/446/446 445/445/445
f 445/445/445 446/446/446 447/447/447
f 448/448/448 450/450/450 449/449/449
f 449/449/449 450/450/450 451/451/451
f 452/452/452 454/454/454 453/453/453
f 453/453/453 454/454/454 455/455/455
f 456/456/456 458/458/458 457/457/457
f 457/457/457 458/458/458 459/459/459
f 460/460/460 462/462/462 461/461/461
f 461/461/461 462/462/462 463/463/463
f 464/464/464 466/466/466 465/465/465
f 464/464/464 465/465/465 467/467/467
f 468/468/468 470/470/470 469/469/469
f 468/468/468 469/469/469 471/471/471
g Combined_Mesh_(root:_scene)_9
usemtl Combined_Mesh_(root:_scene)_9
usemap Combined_Mesh_(root:_scene)_9
f 472/472/472 474/474/474 473/473/473
f 475/475/475 476/476/476 473/473/473
f 473/473/473 476/476/476 472/472/472
f 477/477/477 476/476/476 475/475/475
f 478/478/478 480/480/480 479/479/479
f 479/479/479 480/480/480 481/481/481
f 481/481/481 480/480/480 482/482/482
f 483/483/483 485/485/485 484/484/484
f 486/486/486 488/488/488 487/487/487
f 489/489/489 488/488/488 486/486/486
f 490/490/490 492/492/492 491/491/491
f 491/491/491 492/492/492 493/493/493
f 494/494/494 496/496/496 495/495/495
f 497/497/497 499/499/499 498/498/498
f 498/498/498 499/499/499 500/500/500
f 501/501/501 503/503/503 502/502/502
f 502/502/502 503/503/503 504/504/504
g Combined_Mesh_(root:_scene)_10
usemtl Combined_Mesh_(root:_scene)_10
usemap Combined_Mesh_(root:_scene)_10
f 505/505/505 507/507/507 506/506/506
f 505/505/505 508/508/508 507/507/507
f 509/509/509 511/511/511 510/510/510
f 509/509/509 512/512/512 511/511/511
f 513/513/513 515/515/515 514/514/514
f 513/513/513 516/516/516 515/515/515
g Combined_Mesh_(root:_scene)_11
usemtl Combined_Mesh_(root:_scene)_11
usemap Combined_Mesh_(root:_scene)_11
f 517/517/517 519/519/519 518/518/518
f 518/518/518 519/519/519 520/520/520
f 521/521/521 523/523/523 522/522/522
f 522/522/522 523/523/523 524/524/524
f 525/525/525 527/527/527 526/526/526
f 526/526/526 527/527/527 528/528/528
f 529/529/529 531/531/531 530/530/530
f 530/530/530 531/531/531 532/532/532
f 533/533/533 535/535/535 534/534/534
f 534/534/534 535/535/535 536/536/536
g Combined_Mesh_(root:_scene)_12
usemtl Combined_Mesh_(root:_scene)_12
usemap Combined_Mesh_(root:_scene)_12
f 537/537/537 539/539/539 538/538/538
f 538/538/538 539/539/539 540/540/540
g Combined_Mesh_(root:_scene)_13
usemtl Combined_Mesh_(root:_scene)_13
usemap Combined_Mesh_(root:_scene)_13
f 541/541/541 543/543/543 542/542/542
f 542/542/542 543/543/543 544/544/544
f 545/545/545 547/547/547 546/546/546
f 546/546/546 547/547/547 548/548/548
f 549/549/549 551/551/551 550/550/550
f 550/550/550 551/551/551 552/552/552
f 553/553/553 555/555/555 554/554/554
f 554/554/554 555/555/555 556/556/556
f 557/557/557 559/559/559 558/558/558
f 558/558/558 559/559/559 560/560/560
g Combined_Mesh_(root:_scene)_14
usemtl Combined_Mesh_(root:_scene)_14
usemap Combined_Mesh_(root:_scene)_14
f 561/561/561 563/563/563 562/562/562
f 562/562/562 563/563/563 564/564/564
g Combined_Mesh_(root:_scene)_15
usemtl Combined_Mesh_(root:_scene)_15
usemap Combined_Mesh_(root:_scene)_15
f 565/565/565 567/567/567 566/566/566
f 566/566/566 567/567/567 568/568/568
f 569/569/569 571/571/571 570/570/570
f 570/570/570 571/571/571 572/572/572
f 573/573/573 575/575/575 574/574/574
f 574/574/574 575/575/575 576/576/576
f 577/577/577 579/579/579 578/578/578
f 578/578/578 579/579/579 580/580/580
f 581/581/581 583/583/583 582/582/582
f 582/582/582 583/583/583 584/584/584
g Combined_Mesh_(root:_scene)_16
usemtl Combined_Mesh_(root:_scene)_16
usemap Combined_Mesh_(root:_scene)_16
f 585/585/585 587/587/587 586/586/586
f 586/586/586 587/587/587 588/588/588
g Combined_Mesh_(root:_scene)_17
usemtl Combined_Mesh_(root:_scene)_17
usemap Combined_Mesh_(root:_scene)_17
f 589/589/589 591/591/591 590/590/590
f 590/590/590 591/591/591 592/592/592
f 593/593/593 595/595/595 594/594/594
f 594/594/594 595/595/595 596/596/596
f 597/597/597 599/599/599 598/598/598
f 598/598/598 599/599/599 600/600/600
f 601/601/601 603/603/603 602/602/602
f 602/602/602 603/603/603 604/604/604
f 605/605/605 607/607/607 606/606/606
f 606/606/606 607/607/607 608/608/608
g Combined_Mesh_(root:_scene)_18
usemtl Combined_Mesh_(root:_scene)_18
usemap Combined_Mesh_(root:_scene)_18
f 609/609/609 611/611/611 610/610/610
f 610/610/610 611/611/611 612/612/612
g Combined_Mesh_(root:_scene)_19
usemtl Combined_Mesh_(root:_scene)_19
usemap Combined_Mesh_(root:_scene)_19
f 613/613/613 615/615/615 614/614/614
f 614/614/614 615/615/615 616/616/616
f 617/617/617 619/619/619 618/618/618
f 618/618/618 619/619/619 620/620/620
f 621/621/621 623/623/623 622/622/622
f 622/622/622 623/623/623 624/624/624
f 625/625/625 627/627/627 626/626/626
f 626/626/626 627/627/627 628/628/628
f 629/629/629 631/631/631 630/630/630
f 632/632/632 631/631/631 629/629/629
f 633/633/633 635/635/635 634/634/634
f 634/634/634 635/635/635 636/636/636
f 637/637/637 639/639/639 638/638/638
f 640/640/640 639/639/639 637/637/637
f 641/641/641 643/643/643 642/642/642
f 642/642/642 643/643/643 644/644/644
f 645/645/645 647/647/647 646/646/646
f 646/646/646 647/647/647 648/648/648
f 649/649/649 651/651/651 650/650/650
f 650/650/650 651/651/651 652/652/652
f 653/653/653 651/651/651 649/649/649
g Combined_Mesh_(root:_scene)_20
usemtl Combined_Mesh_(root:_scene)_20
usemap Combined_Mesh_(root:_scene)_20
f 654/654/654 656/656/656 655/655/655
f 655/655/655 656/656/656 657/657/657
f 658/658/658 660/660/660 659/659/659
f 659/659/659 660/660/660 661/661/661
f 662/662/662 660/660/660 658/658/658
g Combined_Mesh_(root:_scene)_21
usemtl Combined_Mesh_(root:_scene)_21
usemap Combined_Mesh_(root:_scene)_21
f 663/663/663 665/665/665 664/664/664
f 664/664/664 665/665/665 666/666/666
f 667/667/667 669/669/669 668/668/668
f 668/668/668 669/669/669 670/670/670
f 671/671/671 673/673/673 672/672/672
f 674/674/674 673/673/673 671/671/671
f 675/675/675 677/677/677 676/676/676
f 676/676/676 677/677/677 678/678/678
f 679/679/679 681/681/681 680/680/680
f 682/682/682 681/681/681 679/679/679
f 683/683/683 685/685/685 684/684/684
f 683/683/683 687/687/687 686/686/686
f 684/684/684 687/687/687 683/683/683
f 686/686/686 687/687/687 688/688/688
f 689/689/689 691/691/691 690/690/690
f 690/690/690 691/691/691 692/692/692
f 693/693/693 695/695/695 694/694/694
f 694/694/694 695/695/695 696/696/696
f 697/697/697 699/699/699 698/698/698
f 698/698/698 699/699/699 700/700/700
g Combined_Mesh_(root:_scene)_22
usemtl Combined_Mesh_(root:_scene)_22
usemap Combined_Mesh_(root:_scene)_22
f 701/701/701 703/703/703 702/702/702
f 701/701/701 704/704/704 703/703/703
f 705/705/705 706/706/706 704/704/704
f 704/704/704 706/706/706 703/703/703
f 707/707/707 709/709/709 708/708/708
f 708/708/708 709/709/709 710/710/710
g Combined_Mesh_(root:_scene)_23
usemtl Combined_Mesh_(root:_scene)_23
usemap Combined_Mesh_(root:_scene)_23
f 711/711/711 713/713/713 712/712/712
f 712/712/712 713/713/713 714/714/714
f 715/715/715 717/717/717 716/716/716
f 716/716/716 717/717/717 718/718/718
f 719/719/719 721/721/721 720/720/720
f 720/720/720 721/721/721 722/722/722
f 723/723/723 725/725/725 724/724/724
f 724/724/724 725/725/725 726/726/726
f 727/727/727 729/729/729 728/728/728
f 727/727/727 730/730/730 729/729/729
f 731/731/731 732/732/732 728/728/728
f 731/731/731 733/733/733 732/732/732
f 729/729/729 734/734/734 728/728/728
f 728/728/728 734/734/734 731/731/731
f 735/735/735 737/737/737 736/736/736
f 736/736/736 737/737/737 738/738/738
f 739/739/739 741/741/741 740/740/740
f 740/740/740 741/741/741 742/742/742
f 743/743/743 745/745/745 744/744/744
f 744/744/744 745/745/745 746/746/746
f 747/747/747 749/749/749 748/748/748
f 748/748/748 749/749/749 750/750/750
f 751/751/751 753/753/753 752/752/752
f 752/752/752 753/753/753 754/754/754
f 755/755/755 757/757/757 756/756/756
f 756/756/756 757/757/757 758/758/758
f 759/759/759 761/761/761 760/760/760
f 760/760/760 761/761/761 762/762/762
f 763/763/763 765/765/765 764/764/764
f 764/764/764 765/765/765 766/766/766
f 767/767/767 769/769/769 768/768/768
f 768/768/768 769/769/769 770/770/770
f 771/771/771 773/773/773 772/772/772
f 772/772/772 773/773/773 774/774/774
f 775/775/775 777/777/777 776/776/776
f 776/776/776 777/777/777 778/778/778
f 779/779/779 781/781/781 780/780/780
f 780/780/780 781/781/781 782/782/782
f 783/783/783 785/785/785 784/784/784
f 786/786/786 785/785/785 783/783/783
f 787/787/787 789/789/789 788/788/788
f 788/788/788 789/789/789 790/790/790
f 791/791/791 793/793/793 792/792/792
f 794/794/794 793/793/793 791/791/791
f 773/773/773 795/795/795 774/774/774
f 795/795/795 796/796/796 774/774/774
f 795/795/795 797/797/797 796/796/796
f 796/796/796 797/797/797 798/798/798
f 799/799/799 801/801/801 800/800/800
f 800/800/800 801/801/801 802/802/802
f 803/803/803 805/805/805 804/804/804
f 804/804/804 805/805/805 806/806/806
f 807/807/807 809/809/809 808/808/808
f 808/808/808 809/809/809 810/810/810
f 811/811/811 813/813/813 812/812/812
f 812/812/812 813/813/813 814/814/814
f 815/815/815 817/817/817 816/816/816
f 817/817/817 818/818/818 816/816/816
f 819/819/819 821/821/821 820/820/820
f 819/819/819 822/822/822 821/821/821
f 823/823/823 825/825/825 824/824/824
f 826/826/826 825/825/825 823/823/823
f 827/827/827 829/829/829 828/828/828
f 827/827/827 830/830/830 829/829/829
g Combined_Mesh_(root:_scene)_24
usemtl Combined_Mesh_(root:_scene)_24
usemap Combined_Mesh_(root:_scene)_24
f 831/831/831 833/833/833 832/832/832
f 832/832/832 833/833/833 834/834/834
f 835/835/835 837/837/837 836/836/836
f 835/835/835 836/836/836 838/838/838
f 839/839/839 841/841/841 840/840/840
f 839/839/839 840/840/840 842/842/842
f 843/843/843 845/845/845 844/844/844
f 843/843/843 844/844/844 846/846/846
f 847/847/847 849/849/849 848/848/848
f 848/848/848 849/849/849 850/850/850
f 851/851/851 853/853/853 852/852/852
f 852/852/852 853/853/853 854/854/854
f 855/855/855 857/857/857 856/856/856
f 855/855/855 850/850/850 857/857/857
f 850/850/850 858/858/858 857/857/857
f 849/849/849 858/858/858 850/850/850
f 859/859/859 861/861/861 860/860/860
f 860/860/860 861/861/861 862/862/862
f 863/863/863 865/865/865 864/864/864
f 865/865/865 866/866/866 864/864/864
g Combined_Mesh_(root:_scene)_25
usemtl Combined_Mesh_(root:_scene)_25
usemap Combined_Mesh_(root:_scene)_25
f 867/867/867 869/869/869 868/868/868
f 868/868/868 869/869/869 870/870/870
f 871/871/871 873/873/873 872/872/872
f 872/872/872 873/873/873 874/874/874
f 875/875/875 877/877/877 876/876/876
f 876/876/876 877/877/877 878/878/878
f 879/879/879 881/881/881 880/880/880
f 880/880/880 881/881/881 882/882/882
f 883/883/883 885/885/885 884/884/884
f 884/884/884 885/885/885 886/886/886
f 887/887/887 889/889/889 888/888/888
f 888/888/888 889/889/889 890/890/890
f 891/891/891 893/893/893 892/892/892
f 892/892/892 893/893/893 894/894/894
f 895/895/895 897/897/897 896/896/896
f 896/896/896 897/897/897 898/898/898
f 899/899/899 901/901/901 900/900/900
f 900/900/900 901/901/901 902/902/902
f 903/903/903 905/905/905 904/904/904
f 904/904/904 905/905/905 906/906/906
f 907/907/907 909/909/909 908/908/908
f 908/908/908 909/909/909 910/910/910
f 911/911/911 913/913/913 912/912/912
f 912/912/912 913/913/913 914/914/914
f 915/915/915 917/917/917 916/916/916
f 916/916/916 917/917/917 918/918/918
f 919/919/919 921/921/921 920/920/920
f 920/920/920 921/921/921 922/922/922
f 923/923/923 925/925/925 924/924/924
f 924/924/924 925/925/925 926/926/926
f 927/927/927 929/929/929 928/928/928
f 928/928/928 929/929/929 930/930/930
f 931/931/931 933/933/933 932/932/932
f 932/932/932 933/933/933 934/934/934
f 935/935/935 937/937/937 936/936/936
f 936/936/936 937/937/937 938/938/938
f 939/939/939 941/941/941 940/940/940
f 940/940/940 941/941/941 942/942/942
f 943/943/943 945/945/945 944/944/944
f 944/944/944 945/945/945 946/946/946
f 947/947/947 949/949/949 948/948/948
f 948/948/948 949/949/949 950/950/950
