#Combined_Mesh_(root:_scene).obj

v 22 1 23
v 16 1 23
v 22 1.049836 23
v 16 1.049836 23
v 16 1 23
v 16 1 17
v 16 1.049836 23
v 16 1.049836 17
v 16 1 17
v 22 1 17
v 16 1.049836 17
v 22 1.049836 17
v 22 1 17
v 22 1 23
v 22 1.049836 17
v 22 1.049836 23
v 22 1.049836 23
v 16 1.049836 23
v 22 1.049836 17
v 16 1.049836 17
v 22 1 17
v 16 1 17
v 22 1 23
v 16 1 23
v 22 1 14
v 16 1 14
v 22 1.049836 14
v 16 1.049836 14
v 16 1 14
v 16 1 8
v 16 1.049836 14
v 16 1.049836 8
v 16 1 8
v 22 1 8
v 16 1.049836 8
v 22 1.049836 8
v 22 1 8
v 22 1 14
v 22 1.049836 8
v 22 1.049836 14
v 22 1.049836 14
v 16 1.049836 14
v 22 1.049836 8
v 16 1.049836 8
v 22 1 8
v 16 1 8
v 22 1 14
v 16 1 14
v 15 0 33
v 14 0 33
v 15 0.04983568 33
v 14 0.04983568 33
v 14 0 33
v 14 0 28
v 14 0.04983568 33
v 14 0.04983568 28
v 14 0 28
v 15 0 28
v 14 0.04983568 28
v 15 0.04983568 28
v 15 0 28
v 15 0 33
v 15 0.04983568 28
v 15 0.04983568 33
v 15 0.04983568 33
v 14 0.04983568 33
v 15 0.04983568 28
v 14 0.04983568 28
v 15 0 28
v 14 0 28
v 15 0 33
v 14 0 33
v 32 -2 25
v 29 -2 25
v 32 -1.950164 25
v 29 -1.950164 25
v 29 -2 25
v 29 -2 6
v 29 -1.950164 25
v 29 -1.950164 6
v 29 -2 6
v 32 -2 6
v 29 -1.950164 6
v 32 -1.950164 6
v 32 -2 6
v 32 -2 25
v 32 -1.950164 6
v 32 -1.950164 25
v 32 -1.950164 25
v 29 -1.950164 25
v 32 -1.950164 6
v 29 -1.950164 6
v 32 -2 6
v 29 -2 6
v 32 -2 25
v 29 -2 25
v 32 -3 33
v -3 -3 33
v 32 -3 -2
v -3 -3 -2
v 15 0 3
v 14 0 3
v 15 0.04983568 3
v 14 0.04983568 3
v 14 0 3
v 14 0 -2
v 14 0.04983568 3
v 14 0.04983568 -2
v 14 0 -2
v 15 0 -2
v 14 0.04983568 -2
v 15 0.04983568 -2
v 15 0 -2
v 15 0 3
v 15 0.04983568 -2
v 15 0.04983568 3
v 15 0.04983568 3
v 14 0.04983568 3
v 15 0.04983568 -2
v 14 0.04983568 -2
v 15 0 -2
v 14 0 -2
v 15 0 3
v 14 0 3
v 0 -2 27
v -3 -2 27
v 0 -1.950164 27
v -3 -1.950164 27
v -3 -2 27
v -3 -2 6
v -3 -1.950164 27
v -3 -1.950164 6
v -3 -2 6
v 0 -2 6
v -3 -1.950164 6
v 0 -1.950164 6
v 0 -2 6
v 0 -2 27
v 0 -1.950164 6
v 0 -1.950164 27
v 0 -1.950164 27
v -3 -1.950164 27
v 0 -1.950164 6
v -3 -1.950164 6
v 0 -2 6
v -3 -2 6
v 0 -2 27
v -3 -2 27
v 13 1 23
v 7 1 23
v 13 1.049836 23
v 7 1.049836 23
v 7 1 23
v 7 1 17
v 7 1.049836 23
v 7 1.049836 17
v 7 1 17
v 13 1 17
v 7 1.049836 17
v 13 1.049836 17
v 13 1 17
v 13 1 23
v 13 1.049836 17
v 13 1.049836 23
v 13 1.049836 23
v 7 1.049836 23
v 13 1.049836 17
v 7 1.049836 17
v 13 1 17
v 7 1 17
v 13 1 23
v 7 1 23
v 13 1 14
v 7 1 14
v 13 1.049836 14
v 7 1.049836 14
v 7 1 14
v 7 1 8
v 7 1.049836 14
v 7 1.049836 8
v 7 1 8
v 13 1 8
v 7 1.049836 8
v 13 1.049836 8
v 13 1 8
v 13 1 14
v 13 1.049836 8
v 13 1.049836 14
v 13 1.049836 14
v 7 1.049836 14
v 13 1.049836 8
v 7 1.049836 8
v 13 1 8
v 7 1 8
v 13 1 14
v 7 1 14
v 25 2 -1
v 24 2 -1
v 24 3 -1
v 25 3 -1
v 29 2 -1
v 28 2 -1
v 28 3 -1
v 29 3 -1
v 30 2 0
v 29 2 0
v 29 3 0
v 30 3 0
v 31 2 1
v 30 2 1
v 30 3 1
v 31 3 1
v 32 2 2
v 31 2 2
v 31 3 2
v 32 3 2
v 32 2 29
v 32 2 2
v 32 3 2
v 32 3 29
v 31 2 29
v 32 2 29
v 32 3 29
v 31 3 29
v 31 2 30
v 31 2 29
v 31 3 29
v 31 3 30
v 30 2 30
v 31 2 30
v 31 3 30
v 30 3 30
v 30 2 31
v 30 2 30
v 30 3 30
v 30 3 31
v 29 2 31
v 30 2 31
v 30 3 31
v 29 3 31
v 29 2 32
v 29 2 31
v 29 3 31
v 29 3 32
v 28 2 32
v 29 2 32
v 29 3 32
v 28 3 32
v 28 2 33
v 28 2 32
v 28 3 32
v 28 3 33
v 25 2 33
v 28 2 33
v 28 3 33
v 25 3 33
v 25 2 32
v 25 2 33
v 25 3 33
v 25 3 32
v 24 2 32
v 25 2 32
v 25 3 32
v 24 3 32
v 24 2 -1
v 24 2 -2
v 24 3 -2
v 24 3 -1
v 25 2 -2
v 25 2 -1
v 25 3 -1
v 25 3 -2
v 28 2 -2
v 25 2 -2
v 25 3 -2
v 28 3 -2
v 28 2 -1
v 28 2 -2
v 28 3 -2
v 28 3 -1
v 30 2 1
v 30 2 0
v 30 3 0
v 30 3 1
v 29 2 0
v 29 2 -1
v 29 3 -1
v 29 3 0
v 31 2 2
v 31 2 1
v 31 3 1
v 31 3 2
v 24 2 33
v 24 2 32
v 24 3 32
v 24 3 33
v 24 -2 -2
v 24 -2 -1
v 24 -4 -1
v 24 -4 -2
v 24 -2 -1
v 25 -2 -1
v 25 -4 -1
v 24 -4 -1
v 25 -2 -1
v 25 -2 -2
v 25 -4 -2
v 25 -4 -1
v 25 -2 -2
v 28 -2 -2
v 28 -4 -2
v 25 -4 -2
v 28 -2 -2
v 28 -2 -1
v 28 -4 -1
v 28 -4 -2
v 28 -2 -1
v 29 -2 -1
v 29 -4 -1
v 28 -4 -1
v 29 -2 -1
v 29 -2 0
v 29 -4 0
v 29 -4 -1
v 29 -2 0
v 30 -2 0
v 30 -4 0
v 29 -4 0
v 30 -2 0
v 30 -2 1
v 30 -4 1
v 30 -4 0
v 30 -2 1
v 31 -2 1
v 31 -4 1
v 30 -4 1
v 31 -2 1
v 31 -2 2
v 31 -4 2
v 31 -4 1
v 31 -2 2
v 32 -2 2
v 32 -4 2
v 31 -4 2
v 32 -2 29
v 31 -2 29
v 31 -4 29
v 32 -4 29
v 31 -2 29
v 31 -2 30
v 31 -4 30
v 31 -4 29
v 31 -2 30
v 30 -2 30
v 30 -4 30
v 31 -4 30
v 30 -2 30
v 30 -2 31
v 30 -4 31
v 30 -4 30
v 30 -2 31
v 29 -2 31
v 29 -4 31
v 30 -4 31
v 29 -2 31
v 29 -2 32
v 29 -4 32
v 29 -4 31
v 29 -2 32
v 28 -2 32
v 28 -4 32
v 29 -4 32
v 28 -2 32
v 28 -2 33
v 28 -4 33
v 28 -4 32
v 28 -2 33
v 25 -2 33
v 25 -4 33
v 28 -4 33
v 24 -2 32
v 24 -2 33
v 24 -4 33
v 24 -4 32
v 25 -2 32
v 24 -2 32
v 24 -4 32
v 25 -4 32
v 25 -2 33
v 25 -2 32
v 25 -4 32
v 25 -4 33
v 32 -2 2
v 32 -2 29
v 32 -4 29
v 32 -4 2
v 24 -2 -2
v 24 2 -2
v 24 2 -1
v 24 -2 -1
v 24 -2 -1
v 24 2 -1
v 25 2 -1
v 25 -2 -1
v 25 -2 -1
v 25 2 -1
v 25 2 -2
v 25 -2 -2
v 25 -2 -2
v 25 2 -2
v 28 2 -2
v 28 -2 -2
v 28 -2 -2
v 28 2 -2
v 28 2 -1
v 28 -2 -1
v 28 -2 -1
v 28 2 -1
v 29 2 -1
v 29 -2 -1
v 29 -2 -1
v 29 2 -1
v 29 2 0
v 29 -2 0
v 29 -2 0
v 29 2 0
v 30 2 0
v 30 -2 0
v 30 -2 0
v 30 2 0
v 30 2 1
v 30 -2 1
v 30 -2 1
v 30 2 1
v 31 2 1
v 31 -2 1
v 31 -2 1
v 31 2 1
v 31 2 2
v 31 -2 2
v 31 -2 2
v 31 2 2
v 32 2 2
v 32 -2 2
v 32 -2 2
v 32 2 29
v 32 -2 29
v 32 2 2
v 32 -2 29
v 32 2 29
v 31 2 29
v 31 -2 29
v 31 -2 29
v 31 2 29
v 31 2 30
v 31 -2 30
v 31 -2 30
v 31 2 30
v 30 2 30
v 30 -2 30
v 30 -2 30
v 30 2 30
v 30 2 31
v 30 -2 31
v 30 -2 31
v 30 2 31
v 29 2 31
v 29 -2 31
v 29 -2 31
v 29 2 31
v 29 2 32
v 29 -2 32
v 29 -2 32
v 29 2 32
v 28 2 32
v 28 -2 32
v 28 -2 32
v 28 2 32
v 28 2 33
v 28 -2 33
v 28 -2 33
v 28 2 33
v 25 2 33
v 25 -2 33
v 25 -2 33
v 25 2 33
v 25 2 32
v 25 -2 32
v 25 -2 32
v 25 2 32
v 24 2 32
v 24 -2 32
v 24 -2 32
v 24 2 32
v 24 2 33
v 24 -2 33
v -3 2 2
v -3 2 29
v -3 3 29
v -3 3 2
v -2 2 2
v -3 2 2
v -3 3 2
v -2 3 2
v -2 2 1
v -2 2 2
v -2 3 2
v -2 3 1
v -1 2 1
v -2 2 1
v -2 3 1
v -1 3 1
v -1 2 0
v -1 2 1
v -1 3 1
v -1 3 0
v 0 2 0
v -1 2 0
v -1 3 0
v 0 3 0
v 0 2 -1
v 0 2 0
v 0 3 0
v 0 3 -1
v 1 2 -1
v 0 2 -1
v 0 3 -1
v 1 3 -1
v 1 2 -2
v 1 2 -1
v 1 3 -1
v 1 3 -2
v 5 2 -1
v 4 2 -1
v 4 3 -1
v 5 3 -1
v 5 2 -2
v 5 2 -1
v 5 3 -1
v 5 3 -2
v 5 2 32
v 5 2 33
v 5 3 33
v 5 3 32
v 4 2 32
v 5 2 32
v 5 3 32
v 4 3 32
v 0 2 32
v 1 2 32
v 1 3 32
v 0 3 32
v 0 2 31
v 0 2 32
v 0 3 32
v 0 3 31
v -1 2 31
v 0 2 31
v 0 3 31
v -1 3 31
v -1 2 30
v -1 2 31
v -1 3 31
v -1 3 30
v -2 2 30
v -1 2 30
v -1 3 30
v -2 3 30
v -2 2 29
v -2 2 30
v -2 3 30
v -2 3 29
v -3 2 29
v -2 2 29
v -2 3 29
v -3 3 29
v 4 2 -2
v 1 2 -2
v 1 3 -2
v 4 3 -2
v 4 2 -1
v 4 2 -2
v 4 3 -2
v 4 3 -1
v 1 2 33
v 4 2 33
v 4 3 33
v 1 3 33
v 4 2 33
v 4 2 32
v 4 3 32
v 4 3 33
v 1 2 32
v 1 2 33
v 1 3 33
v 1 3 32
v -3 -2 2
v -2 -2 2
v -2 -4 2
v -3 -4 2
v -2 -2 2
v -2 -2 1
v -2 -4 1
v -2 -4 2
v -2 -2 1
v -1 -2 1
v -1 -4 1
v -2 -4 1
v -1 -2 1
v -1 -2 0
v -1 -4 0
v -1 -4 1
v -1 -2 0
v 0 -2 0
v 0 -4 0
v -1 -4 0
v 0 -2 0
v 0 -2 -1
v 0 -4 -1
v 0 -4 0
v 0 -2 -1
v 1 -2 -1
v 1 -4 -1
v 0 -4 -1
v 1 -2 -1
v 1 -2 -2
v 1 -4 -2
v 1 -4 -1
v 1 -2 -2
v 4 -2 -2
v 4 -4 -2
v 1 -4 -2
v 4 -2 -2
v 4 -2 -1
v 4 -4 -1
v 4 -4 -2
v 4 -2 -1
v 5 -2 -1
v 5 -4 -1
v 4 -4 -1
v 5 -2 -1
v 5 -2 -2
v 5 -4 -2
v 5 -4 -1
v 0 -2 31
v -1 -2 31
v -1 -4 31
v 0 -4 31
v 0 -2 32
v 0 -2 31
v 0 -4 31
v 0 -4 32
v 1 -2 33
v 1 -2 32
v 1 -4 32
v 1 -4 33
v 1 -2 32
v 0 -2 32
v 0 -4 32
v 1 -4 32
v 4 -2 33
v 1 -2 33
v 1 -4 33
v 4 -4 33
v 4 -2 32
v 4 -2 33
v 4 -4 33
v 4 -4 32
v 5 -2 32
v 4 -2 32
v 4 -4 32
v 5 -4 32
v 5 -2 33
v 5 -2 32
v 5 -4 32
v 5 -4 33
v -3 -2 29
v -3 -2 2
v -3 -4 2
v -3 -4 29
v -1 -2 31
v -1 -2 30
v -1 -4 30
v -1 -4 31
v -1 -2 30
v -2 -2 30
v -2 -4 30
v -1 -4 30
v -2 -2 30
v -2 -2 29
v -2 -4 29
v -2 -4 30
v -2 -2 29
v -3 -2 29
v -3 -4 29
v -2 -4 29
v -3 -2 29
v -3 2 2
v -3 -2 2
v -3 2 29
v -3 -2 2
v -3 2 2
v -2 2 2
v -2 -2 2
v -2 -2 2
v -2 2 2
v -2 2 1
v -2 -2 1
v -2 -2 1
v -2 2 1
v -1 2 1
v -1 -2 1
v -1 -2 1
v -1 2 1
v -1 2 0
v -1 -2 0
v -1 -2 0
v -1 2 0
v 0 2 0
v 0 -2 0
v 0 -2 0
v 0 2 0
v 0 2 -1
v 0 -2 -1
v 0 -2 -1
v 0 2 -1
v 1 2 -1
v 1 -2 -1
v 1 -2 -1
v 1 2 -1
v 1 2 -2
v 1 -2 -2
v 1 -2 -2
v 1 2 -2
v 4 2 -2
v 4 -2 -2
v 4 -2 -2
v 4 2 -2
v 4 2 -1
v 4 -2 -1
v 4 -2 -1
v 4 2 -1
v 5 2 -1
v 5 -2 -1
v 5 -2 -1
v 5 2 -1
v 5 2 -2
v 5 -2 -2
v 5 -2 33
v 5 2 33
v 5 2 32
v 5 -2 32
v 5 -2 32
v 5 2 32
v 4 2 32
v 4 -2 32
v 4 -2 32
v 4 2 32
v 4 2 33
v 4 -2 33
v 4 -2 33
v 4 2 33
v 1 2 33
v 1 -2 33
v 1 -2 33
v 1 2 33
v 1 2 32
v 1 -2 32
v 1 -2 32
v 1 2 32
v 0 2 32
v 0 -2 32
v 0 -2 32
v 0 2 32
v 0 2 31
v 0 -2 31
v 0 -2 31
v 0 2 31
v -1 2 31
v -1 -2 31
v -1 -2 31
v -1 2 31
v -1 2 30
v -1 -2 30
v -1 -2 30
v -1 2 30
v -2 2 30
v -2 -2 30
v -2 -2 30
v -2 2 30
v -2 2 29
v -2 -2 29
v -2 -2 29
v -2 2 29
v -3 2 29
v -3 -2 29
v 22 1 23
v 16 1 23
v 22 1 17
v 16 1 17
v 16 -4 23
v 16 -4 17
v 16 -2 23
v 16 -2 17
v 16 -4 17
v 22 -4 17
v 22 -2 17
v 16 -2 17
v 22 -4 23
v 16 -4 23
v 16 -2 23
v 22 -2 23
v 22 -4 17
v 22 -4 23
v 22 -2 17
v 22 -2 23
v 16 1 17
v 16 1 23
v 16 0 23
v 16 0 17
v 22 1 17
v 16 1 17
v 22 0 17
v 16 0 17
v 16 1 23
v 22 1 23
v 22 0 23
v 16 0 23
v 22 1 23
v 22 1 17
v 22 0 17
v 22 0 23
v 16 -2 23
v 16 -2 17
v 16 0 23
v 16 0 17
v 16 -2 17
v 22 -2 17
v 22 0 17
v 16 0 17
v 22 -2 23
v 16 -2 23
v 22 0 23
v 16 0 23
v 22 -2 17
v 22 -2 23
v 22 0 17
v 22 0 23
v 13 1 14
v 7 1 14
v 13 1 8
v 7 1 8
v 13 -4 14
v 7 -4 14
v 13 -2 14
v 7 -2 14
v 7 -4 14
v 7 -4 8
v 7 -2 8
v 7 -2 14
v 13 -4 8
v 13 -4 14
v 13 -2 14
v 13 -2 8
v 7 -4 8
v 13 -4 8
v 7 -2 8
v 13 -2 8
v 7 1 14
v 13 1 14
v 13 0 14
v 7 0 14
v 7 1 8
v 7 1 14
v 7 0 8
v 7 0 14
v 13 1 14
v 13 1 8
v 13 0 8
v 13 0 14
v 13 1 8
v 7 1 8
v 7 0 8
v 13 0 8
v 13 -2 14
v 7 -2 14
v 13 0 14
v 7 0 14
v 7 -2 14
v 7 -2 8
v 7 0 8
v 7 0 14
v 13 -2 8
v 13 -2 14
v 13 0 8
v 13 0 14
v 7 -2 8
v 13 -2 8
v 7 0 8
v 13 0 8
v 22 1 14
v 16 1 14
v 22 1 8
v 16 1 8
v 22 -4 14
v 16 -4 14
v 16 -2 14
v 22 -2 14
v 16 -4 14
v 16 -4 8
v 16 -2 8
v 16 -2 14
v 22 -4 8
v 22 -4 14
v 22 -2 14
v 22 -2 8
v 16 -4 8
v 22 -4 8
v 16 -2 8
v 22 -2 8
v 16 1 14
v 22 1 14
v 22 0 14
v 16 0 14
v 16 1 8
v 16 1 14
v 16 0 8
v 16 0 14
v 22 1 14
v 22 1 8
v 22 0 8
v 22 0 14
v 22 1 8
v 16 1 8
v 16 0 8
v 22 0 8
v 22 -2 14
v 16 -2 14
v 22 0 14
v 16 0 14
v 16 -2 14
v 16 -2 8
v 16 0 8
v 16 0 14
v 22 -2 8
v 22 -2 14
v 22 0 8
v 22 0 14
v 16 -2 8
v 22 -2 8
v 22 0 8
v 16 0 8
v 13 1 23
v 7 1 23
v 13 1 17
v 7 1 17
v 7 -4 17
v 13 -4 17
v 7 -2 17
v 13 -2 17
v 13 -4 17
v 13 -4 23
v 13 -2 23
v 13 -2 17
v 7 -4 23
v 7 -4 17
v 7 -2 23
v 7 -2 17
v 13 -4 23
v 7 -4 23
v 13 -2 23
v 7 -2 23
v 13 1 17
v 7 1 17
v 13 0 17
v 7 0 17
v 7 1 17
v 7 1 23
v 7 0 23
v 7 0 17
v 13 1 23
v 13 1 17
v 13 0 23
v 13 0 17
v 7 1 23
v 13 1 23
v 7 0 23
v 13 0 23
v 7 -2 17
v 13 -2 17
v 13 0 17
v 7 0 17
v 7 -2 23
v 7 -2 17
v 7 0 23
v 7 0 17
v 13 -2 17
v 13 -2 23
v 13 0 23
v 13 0 17
v 13 -2 23
v 7 -2 23
v 7 0 23
v 13 0 23
v -3 -3 6
v 0 -3 6
v -3.000001 -2 6
v -9.536743E-07 -2 6
v 0 -3 6
v 0 -3 27
v -9.536743E-07 -2 6
v 9.536743E-07 -2 27
v 0 -3 27
v -3 -3 27
v 9.536743E-07 -2 27
v -2.999999 -2 27
v 9.536743E-07 -2 27
v -2.999999 -2 27
v 0 -2 6
v -3 -2 6
v 10 2 -1
v 9 2 -1
v 9 3 -1
v 10 3 -1
v 10 2 -2
v 10 2 -1
v 10 3 -1
v 10 3 -2
v 14 2 -2
v 10 2 -2
v 10 3 -2
v 14 3 -2
v 15 2 -2
v 15 3 -2
v 19 2 -2
v 19 3 -2
v 20 2 -1
v 19 2 -1
v 19 3 -1
v 20 3 -1
v 20 2 -2
v 20 2 -1
v 20 3 -1
v 20 3 -2
v 9 2 -2
v 5 2 -2
v 5 3 -2
v 9 3 -2
v 9 2 -1
v 9 2 -2
v 9 3 -2
v 9 3 -1
v 19 2 -1
v 19 2 -2
v 19 3 -2
v 19 3 -1
v 24 2 -2
v 20 2 -2
v 20 3 -2
v 24 3 -2
v 9 -2 -2
v 9 -2 -1
v 9 -4 -1
v 9 -4 -2
v 9 -2 -1
v 10 -2 -1
v 10 -4 -1
v 9 -4 -1
v 10 -2 -1
v 10 -2 -2
v 10 -4 -2
v 10 -4 -1
v 10 -2 -2
v 14 -2 -2
v 14 -4 -2
v 10 -4 -2
v 14 -2 3
v 15 -2 3
v 15 -4 3
v 14 -4 3
v 15 -2 -2
v 19 -2 -2
v 19 -4 -2
v 15 -4 -2
v 19 -2 -2
v 19 -2 -1
v 19 -4 -1
v 19 -4 -2
v 19 -2 -1
v 20 -2 -1
v 20 -4 -1
v 19 -4 -1
v 20 -2 -1
v 20 -2 -2
v 20 -4 -2
v 20 -4 -1
v 20 -2 -2
v 24 -2 -2
v 24 -4 -2
v 20 -4 -2
v 14 -2 -2
v 14 -2 3
v 14 -4 3
v 14 -4 -2
v 15 -2 3
v 15 -2 -2
v 15 -4 -2
v 15 -4 3
v 5 -2 -2
v 9 -2 -2
v 9 -4 -2
v 5 -4 -2
v 5 -2 -2
v 5 2 -2
v 9 2 -2
v 9 -2 -2
v 9 -2 -2
v 9 2 -2
v 9 2 -1
v 9 -2 -1
v 9 -2 -1
v 9 2 -1
v 10 2 -1
v 10 -2 -1
v 10 -2 -1
v 10 2 -1
v 10 2 -2
v 10 -2 -2
v 10 -2 -2
v 10 2 -2
v 14 2 -2
v 14 -2 -2
v 15 2 -2
v 14 0 -2
v 15 0 -2
v 15 -2 -2
v 19 2 -2
v 19 -2 -2
v 14 -2 3
v 14 0 3
v 15 0 3
v 15 -2 3
v 19 -2 -2
v 19 2 -2
v 19 2 -1
v 19 -2 -1
v 19 -2 -1
v 19 2 -1
v 20 2 -1
v 20 -2 -1
v 20 -2 -1
v 20 2 -1
v 20 2 -2
v 20 -2 -2
v 20 -2 -2
v 20 2 -2
v 24 2 -2
v 24 -2 -2
v 14 0 -2
v 14 -2 3
v 14 -2 -2
v 14 0 3
v 15 0 -2
v 14 0 3
v 14 0 -2
v 15 0 3
v 15 -2 -2
v 15 0 3
v 15 0 -2
v 15 -2 3
v 19 2 32
v 20 2 32
v 20 3 32
v 19 3 32
v 10 2 32
v 10 2 33
v 10 3 33
v 10 3 32
v 9 2 32
v 10 2 32
v 10 3 32
v 9 3 32
v 20 2 33
v 24 2 33
v 24 3 33
v 20 3 33
v 20 2 32
v 20 2 33
v 20 3 33
v 20 3 32
v 19 2 33
v 19 2 32
v 19 3 32
v 19 3 33
v 15 2 33
v 19 2 33
v 19 3 33
v 15 3 33
v 14 2 33
v 14 3 33
v 10 2 33
v 10 3 33
v 9 2 33
v 9 2 32
v 9 3 32
v 9 3 33
v 5 2 33
v 9 2 33
v 9 3 33
v 5 3 33
v 9 -2 33
v 5 -2 33
v 5 -4 33
v 9 -4 33
v 9 -2 32
v 9 -2 33
v 9 -4 33
v 9 -4 32
v 10 -2 32
v 9 -2 32
v 9 -4 32
v 10 -4 32
v 10 -2 33
v 10 -2 32
v 10 -4 32
v 10 -4 33
v 14 -2 33
v 10 -2 33
v 10 -4 33
v 14 -4 33
v 14 -2 28
v 14 -2 33
v 14 -4 33
v 14 -4 28
v 15 -2 33
v 15 -2 28
v 15 -4 28
v 15 -4 33
v 19 -2 33
v 15 -2 33
v 15 -4 33
v 19 -4 33
v 19 -2 32
v 19 -2 33
v 19 -4 33
v 19 -4 32
v 20 -2 32
v 19 -2 32
v 19 -4 32
v 20 -4 32
v 20 -2 33
v 20 -2 32
v 20 -4 32
v 20 -4 33
v 24 -2 33
v 20 -2 33
v 20 -4 33
v 24 -4 33
v 14 -2 28
v 14 -4 28
v 15 -4 28
v 15 -2 28
v 24 -2 33
v 24 2 33
v 20 2 33
v 20 -2 33
v 20 -2 33
v 20 2 33
v 20 2 32
v 20 -2 32
v 20 -2 32
v 20 2 32
v 19 2 32
v 19 -2 32
v 19 -2 32
v 19 2 32
v 19 2 33
v 19 -2 33
v 19 -2 33
v 19 2 33
v 15 2 33
v 15 -2 33
v 14 2 33
v 15 0 33
v 14 0 33
v 14 -2 33
v 10 2 33
v 10 -2 33
v 15 -2 28
v 15 0 28
v 14 0 28
v 14 -2 28
v 10 -2 33
v 10 2 33
v 10 2 32
v 10 -2 32
v 9 -2 32
v 9 2 32
v 9 2 33
v 9 -2 33
v 9 -2 33
v 9 2 33
v 5 2 33
v 5 -2 33
v 15 0 33
v 15 -2 28
v 15 -2 33
v 15 0 28
v 14 0 33
v 15 0 28
v 15 0 33
v 14 0 28
v 14 -2 33
v 14 0 28
v 14 0 33
v 14 -2 28
v 9 -2 32
v 10 2 32
v 9 2 32
v 10 -2 32
v 32 -2 25
v 29 -2 25
v 32 -2 6
v 29 -2 6
v 32 -3 25
v 29 -3 25
v 32 -2 25
v 29 -2 25
v 29 -3 25
v 29 -3 6
v 29 -2 25
v 29 -2 6
v 29 -3 6
v 32 -3 6
v 29 -2 6
v 32 -2 6

vn 0 0 0.9999999
vn 0 0 0.9999999
vn 0 0 0.9999999
vn 0 0 0.9999999
vn -0.9999999 0 0
vn -0.9999999 0 0
vn -0.9999999 0 0
vn -0.9999999 0 0
vn 0 0 -0.9999999
vn 0 0 -0.9999999
vn 0 0 -0.9999999
vn 0 0 -0.9999999
vn 0.9999999 0 0
vn 0.9999999 0 0
vn 0.9999999 0 0
vn 0.9999999 0 0
vn 0 1 0
vn 0 1 0
vn 0 1 0
vn 0 1 0
vn 0 -1 0
vn 0 -1 0
vn 0 -1 0
vn 0 -1 0
vn 0 0 0.9999999
vn 0 0 0.9999999
vn 0 0 0.9999999
vn 0 0 0.9999999
vn -0.9999999 0 0
vn -0.9999999 0 0
vn -0.9999999 0 0
vn -0.9999999 0 0
vn 0 0 -0.9999999
vn 0 0 -0.9999999
vn 0 0 -0.9999999
vn 0 0 -0.9999999
vn 0.9999999 0 0
vn 0.9999999 0 0
vn 0.9999999 0 0
vn 0.9999999 0 0
vn 0 1 0
vn 0 1 0
vn 0 1 0
vn 0 1 0
vn 0 -1 0
vn 0 -1 0
vn 0 -1 0
vn 0 -1 0
vn 0 0 1
vn 0 0 1
vn 0 0 1
vn 0 0 1
vn -1 0 0
vn -1 0 0
vn -1 0 0
vn -1 0 0
vn 0 0 -1
vn 0 0 -1
vn 0 0 -1
vn 0 0 -1
vn 1 0 0
vn 1 0 0
vn 1 0 0
vn 1 0 0
vn 0 1 0
vn 0 1 0
vn 0 1 0
vn 0 1 0
vn 0 -1 0
vn 0 -1 0
vn 0 -1 0
vn 0 -1 0
vn 0 0 0.9999999
vn 0 0 0.9999999
vn 0 0 0.9999999
vn 0 0 0.9999999
vn -0.9999999 0 0
vn -0.9999999 0 0
vn -0.9999999 0 0
vn -0.9999999 0 0
vn 0 0 -0.9999999
vn 0 0 -0.9999999
vn 0 0 -0.9999999
vn 0 0 -0.9999999
vn 0.9999999 0 0
vn 0.9999999 0 0
vn 0.9999999 0 0
vn 0.9999999 0 0
vn 0 1 0
vn 0 1 0
vn 0 1 0
vn 0 1 0
vn 0 -1 0
vn 0 -1 0
vn 0 -1 0
vn 0 -1 0
vn 0 1 0
vn 0 1 0
vn 0 1 0
vn 0 1 0
vn 0 0 1
vn 0 0 1
vn 0 0 1
vn 0 0 1
vn -1 0 0
vn -1 0 0
vn -1 0 0
vn -1 0 0
vn 0 0 -1
vn 0 0 -1
vn 0 0 -1
vn 0 0 -1
vn 1 0 0
vn 1 0 0
vn 1 0 0
vn 1 0 0
vn 0 1 0
vn 0 1 0
vn 0 1 0
vn 0 1 0
vn 0 -1 0
vn 0 -1 0
vn 0 -1 0
vn 0 -1 0
vn 0 0 0.9999999
vn 0 0 0.9999999
vn 0 0 0.9999999
vn 0 0 0.9999999
vn -1 0 0
vn -1 0 0
vn -1 0 0
vn -1 0 0
vn 0 0 -0.9999999
vn 0 0 -0.9999999
vn 0 0 -0.9999999
vn 0 0 -0.9999999
vn 1 0 0
vn 1 0 0
vn 1 0 0
vn 1 0 0
vn 0 1 0
vn 0 1 0
vn 0 1 0
vn 0 1 0
vn 0 -1 0
vn 0 -1 0
vn 0 -1 0
vn 0 -1 0
vn 0 0 0.9999999
vn 0 0 0.9999999
vn 0 0 0.9999999
vn 0 0 0.9999999
vn -0.9999999 0 0
vn -0.9999999 0 0
vn -0.9999999 0 0
vn -0.9999999 0 0
vn 0 0 -0.9999999
vn 0 0 -0.9999999
vn 0 0 -0.9999999
vn 0 0 -0.9999999
vn 0.9999999 0 0
vn 0.9999999 0 0
vn 0.9999999 0 0
vn 0.9999999 0 0
vn 0 1 0
vn 0 1 0
vn 0 1 0
vn 0 1 0
vn 0 -1 0
vn 0 -1 0
vn 0 -1 0
vn 0 -1 0
vn 0 0 0.9999999
vn 0 0 0.9999999
vn 0 0 0.9999999
vn 0 0 0.9999999
vn -0.9999999 0 0
vn -0.9999999 0 0
vn -0.9999999 0 0
vn -0.9999999 0 0
vn 0 0 -0.9999999
vn 0 0 -0.9999999
vn 0 0 -0.9999999
vn 0 0 -0.9999999
vn 0.9999999 0 0
vn 0.9999999 0 0
vn 0.9999999 0 0
vn 0.9999999 0 0
vn 0 1 0
vn 0 1 0
vn 0 1 0
vn 0 1 0
vn 0 -1 0
vn 0 -1 0
vn 0 -1 0
vn 0 -1 0
vn 0 0 1
vn 0 0 1
vn 0 0 1
vn 0 0 1
vn 0 0 1
vn 0 0 1
vn 0 0 1
vn 0 0 1
vn 0 0 1
vn 0 0 1
vn 0 0 1
vn 0 0 1
vn 0 0 1
vn 0 0 1
vn 0 0 1
vn 0 0 1
vn 0 0 1
vn 0 0 1
vn 0 0 1
vn 0 0 1
vn -1 0 0
vn -1 0 0
vn -1 0 0
vn -1 0 0
vn 0 0 -1
vn 0 0 -1
vn 0 0 -1
vn 0 0 -1
vn -1 0 0
vn -1 0 0
vn -1 0 0
vn -1 0 0
vn 0 0 -1
vn 0 0 -1
vn 0 0 -1
vn 0 0 -1
vn -1 0 0
vn -1 0 0
vn -1 0 0
vn -1 0 0
vn 0 0 -1
vn 0 0 -1
vn 0 0 -1
vn 0 0 -1
vn -1 0 0
vn -1 0 0
vn -1 0 0
vn -1 0 0
vn 0 0 -1
vn 0 0 -1
vn 0 0 -1
vn 0 0 -1
vn -1 0 0
vn -1 0 0
vn -1 0 0
vn -1 0 0
vn 0 0 -1
vn 0 0 -1
vn 0 0 -1
vn 0 0 -1
vn 1 0 0
vn 1 0 0
vn 1 0 0
vn 1 0 0
vn 0 0 -1
vn 0 0 -1
vn 0 0 -1
vn 0 0 -1
vn -1 0 0
vn -1 0 0
vn -1 0 0
vn -1 0 0
vn 1 0 0
vn 1 0 0
vn 1 0 0
vn 1 0 0
vn 0 0 1
vn 0 0 1
vn 0 0 1
vn 0 0 1
vn -1 0 0
vn -1 0 0
vn -1 0 0
vn -1 0 0
vn -1 0 0
vn -1 0 0
vn -1 0 0
vn -1 0 0
vn -1 0 0
vn -1 0 0
vn -1 0 0
vn -1 0 0
vn -1 0 0
vn -1 0 0
vn -1 0 0
vn -1 0 0
vn -1 0 0
vn -1 0 0
vn -1 0 0
vn -1 0 0
vn -1 0 0
vn -1 0 0
vn -1 0 0
vn -1 0 0
vn 0 0 1
vn 0 0 1
vn 0 0 1
vn 0 0 1
vn 1 0 0
vn 1 0 0
vn 1 0 0
vn 1 0 0
vn 0 0 1
vn 0 0 1
vn 0 0 1
vn 0 0 1
vn -1 0 0
vn -1 0 0
vn -1 0 0
vn -1 0 0
vn 0 0 1
vn 0 0 1
vn 0 0 1
vn 0 0 1
vn -1 0 0
vn -1 0 0
vn -1 0 0
vn -1 0 0
vn 0 0 1
vn 0 0 1
vn 0 0 1
vn 0 0 1
vn -1 0 0
vn -1 0 0
vn -1 0 0
vn -1 0 0
vn 0 0 1
vn 0 0 1
vn 0 0 1
vn 0 0 1
vn -1 0 0
vn -1 0 0
vn -1 0 0
vn -1 0 0
vn 0 0 1
vn 0 0 1
vn 0 0 1
vn 0 0 1
vn 0 0 -1
vn 0 0 -1
vn 0 0 -1
vn 0 0 -1
vn -1 0 0
vn -1 0 0
vn -1 0 0
vn -1 0 0
vn 0 0 -1
vn 0 0 -1
vn 0 0 -1
vn 0 0 -1
vn -1 0 0
vn -1 0 0
vn -1 0 0
vn -1 0 0
vn 0 0 -1
vn 0 0 -1
vn 0 0 -1
vn 0 0 -1
vn -1 0 0
vn -1 0 0
vn -1 0 0
vn -1 0 0
vn 0 0 -1
vn 0 0 -1
vn 0 0 -1
vn 0 0 -1
vn -1 0 0
vn -1 0 0
vn -1 0 0
vn -1 0 0
vn 0 0 -1
vn 0 0 -1
vn 0 0 -1
vn 0 0 -1
vn -1 0 0
vn -1 0 0
vn -1 0 0
vn -1 0 0
vn 0 0 -1
vn 0 0 -1
vn 0 0 -1
vn 0 0 -1
vn 1 0 0
vn 1 0 0
vn 1 0 0
vn 1 0 0
vn -1 0 0
vn -1 0 0
vn -1 0 0
vn -1 0 0
vn -1 0 0
vn -1 0 0
vn -1 0 0
vn -1 0 0
vn 0 0 1
vn 0 0 1
vn 0 0 1
vn 0 0 1
vn 1 0 0
vn 1 0 0
vn 1 0 0
vn 1 0 0
vn 0 0 1
vn 0 0 1
vn 0 0 1
vn 0 0 1
vn -1 0 0
vn -1 0 0
vn -1 0 0
vn -1 0 0
vn 0 0 1
vn 0 0 1
vn 0 0 1
vn 0 0 1
vn -1 0 0
vn -1 0 0
vn -1 0 0
vn -1 0 0
vn 0 0 1
vn 0 0 1
vn 0 0 1
vn 0 0 1
vn -1 0 0
vn -1 0 0
vn -1 0 0
vn -1 0 0
vn 0 0 1
vn 0 0 1
vn 0 0 1
vn 0 0 1
vn -1 0 0
vn -1 0 0
vn -1 0 0
vn -1 0 0
vn 0 0 1
vn 0 0 1
vn 0 0 1
vn 0 0 1
vn -1 0 0
vn -1 0 0
vn -1 0 0
vn -1 0 0
vn 0 0 -1
vn 0 0 -1
vn 0 0 -1
vn 0 0 -1
vn -1 0 0
vn -1 0 0
vn -1 0 0
vn -1 0 0
vn 0 0 -1
vn 0 0 -1
vn 0 0 -1
vn 0 0 -1
vn -1 0 0
vn -1 0 0
vn -1 0 0
vn -1 0 0
vn 0 0 -1
vn 0 0 -1
vn 0 0 -1
vn 0 0 -1
vn -1 0 0
vn -1 0 0
vn -1 0 0
vn -1 0 0
vn 0 0 -1
vn 0 0 -1
vn 0 0 -1
vn 0 0 -1
vn -1 0 0
vn -1 0 0
vn -1 0 0
vn -1 0 0
vn 0 0 -1
vn 0 0 -1
vn 0 0 -1
vn 0 0 -1
vn 1 0 0
vn 1 0 0
vn 1 0 0
vn 1 0 0
vn 0 0 -1
vn 0 0 -1
vn 0 0 -1
vn 0 0 -1
vn -1 0 0
vn -1 0 0
vn -1 0 0
vn -1 0 0
vn 1 0 0
vn 1 0 0
vn 1 0 0
vn 1 0 0
vn 0 0 1
vn 0 0 1
vn 0 0 1
vn 0 0 1
vn 1 0 0
vn 1 0 0
vn 1 0 0
vn 1 0 0
vn 0 0 1
vn 0 0 1
vn 0 0 1
vn 0 0 1
vn 1 0 0
vn 1 0 0
vn 1 0 0
vn 1 0 0
vn 0 0 1
vn 0 0 1
vn 0 0 1
vn 0 0 1
vn 1 0 0
vn 1 0 0
vn 1 0 0
vn 1 0 0
vn 0 0 1
vn 0 0 1
vn 0 0 1
vn 0 0 1
vn 1 0 0
vn 1 0 0
vn 1 0 0
vn 1 0 0
vn 0 0 1
vn 0 0 1
vn 0 0 1
vn 0 0 1
vn 1 0 0
vn 1 0 0
vn 1 0 0
vn 1 0 0
vn 1 0 0
vn 1 0 0
vn 1 0 0
vn 1 0 0
vn 0 0 -1
vn 0 0 -1
vn 0 0 -1
vn 0 0 -1
vn 0 0 -1
vn 0 0 -1
vn 0 0 -1
vn 0 0 -1
vn 1 0 0
vn 1 0 0
vn 1 0 0
vn 1 0 0
vn 0 0 -1
vn 0 0 -1
vn 0 0 -1
vn 0 0 -1
vn 1 0 0
vn 1 0 0
vn 1 0 0
vn 1 0 0
vn 0 0 -1
vn 0 0 -1
vn 0 0 -1
vn 0 0 -1
vn 1 0 0
vn 1 0 0
vn 1 0 0
vn 1 0 0
vn 0 0 -1
vn 0 0 -1
vn 0 0 -1
vn 0 0 -1
vn 0 0 1
vn 0 0 1
vn 0 0 1
vn 0 0 1
vn -1 0 0
vn -1 0 0
vn -1 0 0
vn -1 0 0
vn 0 0 -1
vn 0 0 -1
vn 0 0 -1
vn 0 0 -1
vn -1 0 0
vn -1 0 0
vn -1 0 0
vn -1 0 0
vn 1 0 0
vn 1 0 0
vn 1 0 0
vn 1 0 0
vn 0 0 1
vn 0 0 1
vn 0 0 1
vn 0 0 1
vn 1 0 0
vn 1 0 0
vn 1 0 0
vn 1 0 0
vn 0 0 1
vn 0 0 1
vn 0 0 1
vn 0 0 1
vn 1 0 0
vn 1 0 0
vn 1 0 0
vn 1 0 0
vn 0 0 1
vn 0 0 1
vn 0 0 1
vn 0 0 1
vn 1 0 0
vn 1 0 0
vn 1 0 0
vn 1 0 0
vn 0 0 1
vn 0 0 1
vn 0 0 1
vn 0 0 1
vn 1 0 0
vn 1 0 0
vn 1 0 0
vn 1 0 0
vn 0 0 1
vn 0 0 1
vn 0 0 1
vn 0 0 1
vn -1 0 0
vn -1 0 0
vn -1 0 0
vn -1 0 0
vn 0 0 1
vn 0 0 1
vn 0 0 1
vn 0 0 1
vn 1 0 0
vn 1 0 0
vn 1 0 0
vn 1 0 0
vn 0 0 -1
vn 0 0 -1
vn 0 0 -1
vn 0 0 -1
vn 1 0 0
vn 1 0 0
vn 1 0 0
vn 1 0 0
vn 1 0 0
vn 1 0 0
vn 1 0 0
vn 1 0 0
vn 0 0 -1
vn 0 0 -1
vn 0 0 -1
vn 0 0 -1
vn 0 0 -1
vn 0 0 -1
vn 0 0 -1
vn 0 0 -1
vn -1 0 0
vn -1 0 0
vn -1 0 0
vn -1 0 0
vn 0 0 -1
vn 0 0 -1
vn 0 0 -1
vn 0 0 -1
vn 1 0 0
vn 1 0 0
vn 1 0 0
vn 1 0 0
vn 1 0 0
vn 1 0 0
vn 1 0 0
vn 1 0 0
vn 1 0 0
vn 1 0 0
vn 1 0 0
vn 1 0 0
vn 0 0 -1
vn 0 0 -1
vn 0 0 -1
vn 0 0 -1
vn 1 0 0
vn 1 0 0
vn 1 0 0
vn 1 0 0
vn 0 0 -1
vn 0 0 -1
vn 0 0 -1
vn 0 0 -1
vn 1 0 0
vn 1 0 0
vn 1 0 0
vn 1 0 0
vn 0 0 1
vn 0 0 1
vn 0 0 1
vn 0 0 1
vn 1 0 0
vn 1 0 0
vn 1 0 0
vn 1 0 0
vn 0 0 1
vn 0 0 1
vn 0 0 1
vn 0 0 1
vn 1 0 0
vn 1 0 0
vn 1 0 0
vn 1 0 0
vn 0 0 1
vn 0 0 1
vn 0 0 1
vn 0 0 1
vn 1 0 0
vn 1 0 0
vn 1 0 0
vn 1 0 0
vn 0 0 1
vn 0 0 1
vn 0 0 1
vn 0 0 1
vn 1 0 0
vn 1 0 0
vn 1 0 0
vn 1 0 0
vn 0 0 1
vn 0 0 1
vn 0 0 1
vn 0 0 1
vn -1 0 0
vn -1 0 0
vn -1 0 0
vn -1 0 0
vn 0 0 1
vn 0 0 1
vn 0 0 1
vn 0 0 1
vn 1 0 0
vn 1 0 0
vn 1 0 0
vn 1 0 0
vn 1 0 0
vn 1 0 0
vn 1 0 0
vn 1 0 0
vn 0 0 -1
vn 0 0 -1
vn 0 0 -1
vn 0 0 -1
vn -1 0 0
vn -1 0 0
vn -1 0 0
vn -1 0 0
vn 0 0 -1
vn 0 0 -1
vn 0 0 -1
vn 0 0 -1
vn 1 0 0
vn 1 0 0
vn 1 0 0
vn 1 0 0
vn 0 0 -1
vn 0 0 -1
vn 0 0 -1
vn 0 0 -1
vn 1 0 0
vn 1 0 0
vn 1 0 0
vn 1 0 0
vn 0 0 -1
vn 0 0 -1
vn 0 0 -1
vn 0 0 -1
vn 1 0 0
vn 1 0 0
vn 1 0 0
vn 1 0 0
vn 0 0 -1
vn 0 0 -1
vn 0 0 -1
vn 0 0 -1
vn 1 0 0
vn 1 0 0
vn 1 0 0
vn 1 0 0
vn 0 0 -1
vn 0 0 -1
vn 0 0 -1
vn 0 0 -1
vn 0 1 0
vn 0 1 0
vn 0 1 0
vn 0 1 0
vn -1 0 0
vn -1 0 0
vn -1 0 0
vn -1 0 0
vn 0 0 -1
vn 0 0 -1
vn 0 0 -1
vn 0 0 -1
vn 0 0 1
vn 0 0 1
vn 0 0 1
vn 0 0 1
vn 1 0 0
vn 1 0 0
vn 1 0 0
vn 1 0 0
vn -1 0 0
vn -1 0 0
vn -1 0 0
vn -1 0 0
vn 0 0 -1
vn 0 0 -1
vn 0 0 -1
vn 0 0 -1
vn 0 0 1
vn 0 0 1
vn 0 0 1
vn 0 0 1
vn 1 0 0
vn 1 0 0
vn 1 0 0
vn 1 0 0
vn -1 0 0
vn -1 0 0
vn -1 0 0
vn -1 0 0
vn 0 0 -1
vn 0 0 -1
vn 0 0 -1
vn 0 0 -1
vn 0 0 1
vn 0 0 1
vn 0 0 1
vn 0 0 1
vn 1 0 0
vn 1 0 0
vn 1 0 0
vn 1 0 0
vn 0 1 0
vn 0 1 0
vn 0 1 0
vn 0 1 0
vn 0 0 1
vn 0 0 1
vn 0 0 1
vn 0 0 1
vn -1 0 0
vn -1 0 0
vn -1 0 0
vn -1 0 0
vn 1 0 0
vn 1 0 0
vn 1 0 0
vn 1 0 0
vn 0 0 -1
vn 0 0 -1
vn 0 0 -1
vn 0 0 -1
vn 0 0 1
vn 0 0 1
vn 0 0 1
vn 0 0 1
vn -1 0 0
vn -1 0 0
vn -1 0 0
vn -1 0 0
vn 1 0 0
vn 1 0 0
vn 1 0 0
vn 1 0 0
vn 0 0 -1
vn 0 0 -1
vn 0 0 -1
vn 0 0 -1
vn 0 0 1
vn 0 0 1
vn 0 0 1
vn 0 0 1
vn -1 0 0
vn -1 0 0
vn -1 0 0
vn -1 0 0
vn 1 0 0
vn 1 0 0
vn 1 0 0
vn 1 0 0
vn 0 0 -1
vn 0 0 -1
vn 0 0 -1
vn 0 0 -1
vn 0 1 0
vn 0 1 0
vn 0 1 0
vn 0 1 0
vn 0 0 1
vn 0 0 1
vn 0 0 1
vn 0 0 1
vn -1 0 0
vn -1 0 0
vn -1 0 0
vn -1 0 0
vn 1 0 0
vn 1 0 0
vn 1 0 0
vn 1 0 0
vn 0 0 -1
vn 0 0 -1
vn 0 0 -1
vn 0 0 -1
vn 0 0 1
vn 0 0 1
vn 0 0 1
vn 0 0 1
vn -1 0 0
vn -1 0 0
vn -1 0 0
vn -1 0 0
vn 1 0 0
vn 1 0 0
vn 1 0 0
vn 1 0 0
vn 0 0 -1
vn 0 0 -1
vn 0 0 -1
vn 0 0 -1
vn 0 0 1
vn 0 0 1
vn 0 0 1
vn 0 0 1
vn -1 0 0
vn -1 0 0
vn -1 0 0
vn -1 0 0
vn 1 0 0
vn 1 0 0
vn 1 0 0
vn 1 0 0
vn 0 0 -1
vn 0 0 -1
vn 0 0 -1
vn 0 0 -1
vn 0 1 0
vn 0 1 0
vn 0 1 0
vn 0 1 0
vn 0 0 -1
vn 0 0 -1
vn 0 0 -1
vn 0 0 -1
vn 1 0 0
vn 1 0 0
vn 1 0 0
vn 1 0 0
vn -1 0 0
vn -1 0 0
vn -1 0 0
vn -1 0 0
vn 0 0 1
vn 0 0 1
vn 0 0 1
vn 0 0 1
vn 0 0 -1
vn 0 0 -1
vn 0 0 -1
vn 0 0 -1
vn -1 0 0
vn -1 0 0
vn -1 0 0
vn -1 0 0
vn 1 0 0
vn 1 0 0
vn 1 0 0
vn 1 0 0
vn 0 0 1
vn 0 0 1
vn 0 0 1
vn 0 0 1
vn 0 0 -1
vn 0 0 -1
vn 0 0 -1
vn 0 0 -1
vn -1 0 0
vn -1 0 0
vn -1 0 0
vn -1 0 0
vn 1 0 0
vn 1 0 0
vn 1 0 0
vn 1 0 0
vn 0 0 1
vn 0 0 1
vn 0 0 1
vn 0 0 1
vn 0 0 -1
vn 0 0 -1
vn 0 0 -1
vn 0 0 -1
vn 1 9.536743E-07 0
vn 1 0 -4.541306E-08
vn 1 0 -4.541306E-08
vn 1 -9.536743E-07 -9.082613E-08
vn 0 0 1
vn 0 0 1
vn 0 0 1
vn 0 0 1
vn 0 1 0
vn 0 1 0
vn 0 1 0
vn 0 1 0
vn 0 0 1
vn 0 0 1
vn 0 0 1
vn 0 0 1
vn 1 0 0
vn 1 0 0
vn 1 0 0
vn 1 0 0
vn 0 0 1
vn 0 0 1
vn 0 0 1
vn 0 0 1
vn 0 0 1
vn 0 0 1
vn 0 0 1
vn 0 0 1
vn 0 0 1
vn 0 0 1
vn 0 0 1
vn 0 0 1
vn 1 0 0
vn 1 0 0
vn 1 0 0
vn 1 0 0
vn 0 0 1
vn 0 0 1
vn 0 0 1
vn 0 0 1
vn -1 0 0
vn -1 0 0
vn -1 0 0
vn -1 0 0
vn -1 0 0
vn -1 0 0
vn -1 0 0
vn -1 0 0
vn 0 0 1
vn 0 0 1
vn 0 0 1
vn 0 0 1
vn -1 0 0
vn -1 0 0
vn -1 0 0
vn -1 0 0
vn 0 0 1
vn 0 0 1
vn 0 0 1
vn 0 0 1
vn 1 0 0
vn 1 0 0
vn 1 0 0
vn 1 0 0
vn 0 0 1
vn 0 0 1
vn 0 0 1
vn 0 0 1
vn 0 0 1
vn 0 0 1
vn 0 0 1
vn 0 0 1
vn 0 0 1
vn 0 0 1
vn 0 0 1
vn 0 0 1
vn -1 0 0
vn -1 0 0
vn -1 0 0
vn -1 0 0
vn 0 0 1
vn 0 0 1
vn 0 0 1
vn 0 0 1
vn 1 0 0
vn 1 0 0
vn 1 0 0
vn 1 0 0
vn 0 0 1
vn 0 0 1
vn 0 0 1
vn 0 0 1
vn -1 0 0
vn -1 0 0
vn -1 0 0
vn -1 0 0
vn 1 0 0
vn 1 0 0
vn 1 0 0
vn 1 0 0
vn 0 0 1
vn 0 0 1
vn 0 0 1
vn 0 0 1
vn 0 0 1
vn 0 0 1
vn 0 0 1
vn 0 0 1
vn -1 0 0
vn -1 0 0
vn -1 0 0
vn -1 0 0
vn 0 0 1
vn 0 0 1
vn 0 0 1
vn 0 0 1
vn 1 0 0
vn 1 0 0
vn 1 0 0
vn 1 0 0
vn 0 0 1
vn 0 0 1
vn 0 0 1
vn 0 0 1
vn 0 0 1
vn 0 0 1
vn 0 0 1
vn 0 0 1
vn 0 0 1
vn 0 0 1
vn 0 0 1
vn 0 0 1
vn 0 0 1
vn 0 0 1
vn -1 0 0
vn -1 0 0
vn -1 0 0
vn -1 0 0
vn 0 0 1
vn 0 0 1
vn 0 0 1
vn 0 0 1
vn 1 0 0
vn 1 0 0
vn 1 0 0
vn 1 0 0
vn 0 0 1
vn 0 0 1
vn 0 0 1
vn 0 0 1
vn -1 0 0
vn -1 0 0
vn -1 0 0
vn -1 0 0
vn 0 1 0
vn 0 1 0
vn 0 1 0
vn 0 1 0
vn 1 0 0
vn 1 0 0
vn 1 0 0
vn 1 0 0
vn 0 0 -1
vn 0 0 -1
vn 0 0 -1
vn 0 0 -1
vn 1 0 0
vn 1 0 0
vn 1 0 0
vn 1 0 0
vn 0 0 -1
vn 0 0 -1
vn 0 0 -1
vn 0 0 -1
vn 0 0 -1
vn 0 0 -1
vn 0 0 -1
vn 0 0 -1
vn 1 0 0
vn 1 0 0
vn 1 0 0
vn 1 0 0
vn -1 0 0
vn -1 0 0
vn -1 0 0
vn -1 0 0
vn 0 0 -1
vn 0 0 -1
vn 0 0 -1
vn 0 0 -1
vn 0 0 -1
vn 0 0 -1
vn 0 0 -1
vn 0 0 -1
vn -1 0 0
vn -1 0 0
vn -1 0 0
vn -1 0 0
vn 0 0 -1
vn 0 0 -1
vn 0 0 -1
vn 0 0 -1
vn 0 0 -1
vn 0 0 -1
vn 0 0 -1
vn 0 0 -1
vn -1 0 0
vn -1 0 0
vn -1 0 0
vn -1 0 0
vn 0 0 -1
vn 0 0 -1
vn 0 0 -1
vn 0 0 -1
vn 1 0 0
vn 1 0 0
vn 1 0 0
vn 1 0 0
vn 0 0 -1
vn 0 0 -1
vn 0 0 -1
vn 0 0 -1
vn -1 0 0
vn -1 0 0
vn -1 0 0
vn -1 0 0
vn 1 0 0
vn 1 0 0
vn 1 0 0
vn 1 0 0
vn 0 0 -1
vn 0 0 -1
vn 0 0 -1
vn 0 0 -1
vn -1 0 0
vn -1 0 0
vn -1 0 0
vn -1 0 0
vn 0 0 -1
vn 0 0 -1
vn 0 0 -1
vn 0 0 -1
vn 1 0 0
vn 1 0 0
vn 1 0 0
vn 1 0 0
vn 0 0 -1
vn 0 0 -1
vn 0 0 -1
vn 0 0 -1
vn 0 0 -1
vn 0 0 -1
vn 0 0 -1
vn 0 0 -1
vn 0 0 -1
vn 0 0 -1
vn 0 0 -1
vn 0 0 -1
vn 1 0 0
vn 1 0 0
vn 1 0 0
vn 1 0 0
vn 0 0 -1
vn 0 0 -1
vn 0 0 -1
vn 0 0 -1
vn -1 0 0
vn -1 0 0
vn -1 0 0
vn -1 0 0
vn 0 0 -1
vn 0 0 -1
vn 0 0 -1
vn 0 0 -1
vn 0 0 -1
vn 0 0 -1
vn 0 0 -1
vn 0 0 -1
vn 0 0 -1
vn 0 0 -1
vn 0 0 -1
vn 0 0 -1
vn 0 0 -1
vn 0 0 -1
vn 1 0 0
vn 1 0 0
vn 1 0 0
vn 1 0 0
vn -1 0 0
vn -1 0 0
vn -1 0 0
vn -1 0 0
vn 0 0 -1
vn 0 0 -1
vn 0 0 -1
vn 0 0 -1
vn 1 0 0
vn 1 0 0
vn 1 0 0
vn 1 0 0
vn 0 1 0
vn 0 1 0
vn 0 1 0
vn 0 1 0
vn -1 0 0
vn -1 0 0
vn -1 0 0
vn -1 0 0
vn 0 0 -1
vn 0 0 -1
vn 0 0 -1
vn 0 0 -1
vn 0 1 0
vn 0 1 0
vn 0 1 0
vn 0 1 0
vn 0 0 1
vn 0 0 1
vn 0 0 1
vn 0 0 1
vn -1 0 0
vn -1 0 0
vn -1 0 0
vn -1 0 0
vn 0 0 -1
vn 0 0 -1
vn 0 0 -1
vn 0 0 -1

vt 6 0
vt 0 0
vt 6 0.04983568
vt 0 0.04983568
vt 6 0
vt 0 0
vt 6 0.04983568
vt 0 0.04983568
vt 6 0
vt 0 0
vt 6 0.04983568
vt 0 0.04983568
vt 6 0
vt 0 0
vt 6 0.04983568
vt 0 0.04983568
vt 0 6
vt 6 6
vt 0 0
vt 6 0
vt 6 0
vt 0 0
vt 6 6
vt 0 6
vt 6 0
vt 0 0
vt 6 0.04983568
vt 0 0.04983568
vt 6 0
vt 0 0
vt 6 0.04983568
vt 0 0.04983568
vt 6 0
vt 0 0
vt 6 0.04983568
vt 0 0.04983568
vt 6 0
vt 0 0
vt 6 0.04983568
vt 0 0.04983568
vt 0 6
vt 6 6
vt 0 0
vt 6 0
vt 6 0
vt 0 0
vt 6 6
vt 0 6
vt 1 0
vt 0 0
vt 1 0.04983568
vt 0 0.04983568
vt 5 0
vt 0 0
vt 5 0.04983568
vt 0 0.04983568
vt 1 0
vt 0 0
vt 1 0.04983568
vt 0 0.04983568
vt 5 0
vt 0 0
vt 5 0.04983568
vt 0 0.04983568
vt 0 5
vt 1 5
vt 0 0
vt 1 0
vt 1 0
vt 0 0
vt 1 5
vt 0 5
vt 3 0
vt 0 0
vt 3 0.04983568
vt 0 0.04983568
vt 19 0
vt 0 0
vt 19 0.04983568
vt 0 0.04983568
vt 3 0
vt 0 0
vt 3 0.04983568
vt 0 0.04983568
vt 19 0
vt 0 0
vt 19 0.04983568
vt 0 0.04983568
vt 0 19
vt 3 19
vt 0 0
vt 3 0
vt 3 0
vt 0 0
vt 3 19
vt 0 19
vt 0 35
vt 35 35
vt 0 0
vt 35 0
vt 1 0
vt 0 0
vt 1 0.04983568
vt 0 0.04983568
vt 5 0
vt 0 0
vt 5 0.04983568
vt 0 0.04983568
vt 1 0
vt 0 0
vt 1 0.04983568
vt 0 0.04983568
vt 5 0
vt 0 0
vt 5 0.04983568
vt 0 0.04983568
vt 0 5
vt 1 5
vt 0 0
vt 1 0
vt 1 0
vt 0 0
vt 1 5
vt 0 5
vt 3 0
vt 0 0
vt 3 0.04983568
vt 0 0.04983568
vt 21 0
vt 0 0
vt 21 0.04983568
vt 0 0.04983568
vt 3 0
vt 0 0
vt 3 0.04983568
vt 0 0.04983568
vt 21 0
vt 0 0
vt 21 0.04983568
vt 0 0.04983568
vt 0 21
vt 3 21
vt 0 0
vt 3 0
vt 3 0
vt 0 0
vt 3 21
vt 0 21
vt 6 0
vt 0 0
vt 6 0.04983568
vt 0 0.04983568
vt 6 0
vt 0 0
vt 6 0.04983568
vt 0 0.04983568
vt 6 0
vt 0 0
vt 6 0.04983568
vt 0 0.04983568
vt 6 0
vt 0 0
vt 6 0.04983568
vt 0 0.04983568
vt 0 6
vt 6 6
vt 0 0
vt 6 0
vt 6 0
vt 0 0
vt 6 6
vt 0 6
vt 6 0
vt 0 0
vt 6 0.04983568
vt 0 0.04983568
vt 6 0
vt 0 0
vt 6 0.04983568
vt 0 0.04983568
vt 6 0
vt 0 0
vt 6 0.04983568
vt 0 0.04983568
vt 6 0
vt 0 0
vt 6 0.04983568
vt 0 0.04983568
vt 0 6
vt 6 6
vt 0 0
vt 6 0
vt 6 0
vt 0 0
vt 6 6
vt 0 6
vt 27 5
vt 26 5
vt 26 6
vt 27 6
vt 31 5
vt 30 5
vt 30 6
vt 31 6
vt 32 5
vt 31 5
vt 31 6
vt 32 6
vt 33 5
vt 32 5
vt 32 6
vt 33 6
vt 34 5
vt 33 5
vt 33 6
vt 34 6
vt -4 5
vt -31 5
vt -31 6
vt -4 6
vt -33 5
vt -34 5
vt -34 6
vt -33 6
vt -3 5
vt -4 5
vt -4 6
vt -3 6
vt -32 5
vt -33 5
vt -33 6
vt -32 6
vt -2 5
vt -3 5
vt -3 6
vt -2 6
vt -31 5
vt -32 5
vt -32 6
vt -31 6
vt -1 5
vt -2 5
vt -2 6
vt -1 6
vt -30 5
vt -31 5
vt -31 6
vt -30 6
vt 0 5
vt -1 5
vt -1 6
vt 0 6
vt -27 5
vt -30 5
vt -30 6
vt -27 6
vt 1 5
vt 0 5
vt 0 6
vt 1 6
vt -26 5
vt -27 5
vt -27 6
vt -26 6
vt -34 5
vt -35 5
vt -35 6
vt -34 6
vt 35 5
vt 34 5
vt 34 6
vt 35 6
vt 30 5
vt 27 5
vt 27 6
vt 30 6
vt -34 5
vt -35 5
vt -35 6
vt -34 6
vt -32 5
vt -33 5
vt -33 6
vt -32 6
vt -33 5
vt -34 5
vt -34 6
vt -33 6
vt -31 5
vt -32 5
vt -32 6
vt -31 6
vt 0 5
vt -1 5
vt -1 6
vt 0 6
vt -35 1
vt -34 1
vt -34 -1
vt -35 -1
vt 26 1
vt 27 1
vt 27 -1
vt 26 -1
vt 34 1
vt 35 1
vt 35 -1
vt 34 -1
vt 27 1
vt 30 1
vt 30 -1
vt 27 -1
vt -35 1
vt -34 1
vt -34 -1
vt -35 -1
vt 30 1
vt 31 1
vt 31 -1
vt 30 -1
vt -34 1
vt -33 1
vt -33 -1
vt -34 -1
vt 31 1
vt 32 1
vt 32 -1
vt 31 -1
vt -33 1
vt -32 1
vt -32 -1
vt -33 -1
vt 32 1
vt 33 1
vt 33 -1
vt 32 -1
vt -32 1
vt -31 1
vt -31 -1
vt -32 -1
vt 33 1
vt 34 1
vt 34 -1
vt 33 -1
vt -34 1
vt -33 1
vt -33 -1
vt -34 -1
vt -4 1
vt -3 1
vt -3 -1
vt -4 -1
vt -33 1
vt -32 1
vt -32 -1
vt -33 -1
vt -3 1
vt -2 1
vt -2 -1
vt -3 -1
vt -32 1
vt -31 1
vt -31 -1
vt -32 -1
vt -2 1
vt -1 1
vt -1 -1
vt -2 -1
vt -31 1
vt -30 1
vt -30 -1
vt -31 -1
vt -1 1
vt 0 1
vt 0 -1
vt -1 -1
vt -30 1
vt -27 1
vt -27 -1
vt -30 -1
vt -1 1
vt 0 1
vt 0 -1
vt -1 -1
vt -27 1
vt -26 1
vt -26 -1
vt -27 -1
vt 0 1
vt 1 1
vt 1 -1
vt 0 -1
vt -31 1
vt -4 1
vt -4 -1
vt -31 -1
vt -35 1
vt -35 5
vt -34 5
vt -34 1
vt 26 1
vt 26 5
vt 27 5
vt 27 1
vt 34 1
vt 34 5
vt 35 5
vt 35 1
vt 27 1
vt 27 5
vt 30 5
vt 30 1
vt -35 1
vt -35 5
vt -34 5
vt -34 1
vt 30 1
vt 30 5
vt 31 5
vt 31 1
vt -34 1
vt -34 5
vt -33 5
vt -33 1
vt 31 1
vt 31 5
vt 32 5
vt 32 1
vt -33 1
vt -33 5
vt -32 5
vt -32 1
vt 32 1
vt 32 5
vt 33 5
vt 33 1
vt -32 1
vt -32 5
vt -31 5
vt -31 1
vt 33 1
vt 33 5
vt 34 5
vt 34 1
vt -31 1
vt -4 5
vt -4 1
vt -31 5
vt -34 1
vt -34 5
vt -33 5
vt -33 1
vt -4 1
vt -4 5
vt -3 5
vt -3 1
vt -33 1
vt -33 5
vt -32 5
vt -32 1
vt -3 1
vt -3 5
vt -2 5
vt -2 1
vt -32 1
vt -32 5
vt -31 5
vt -31 1
vt -2 1
vt -2 5
vt -1 5
vt -1 1
vt -31 1
vt -31 5
vt -30 5
vt -30 1
vt -1 1
vt -1 5
vt 0 5
vt 0 1
vt -30 1
vt -30 5
vt -27 5
vt -27 1
vt 0 1
vt 0 5
vt 1 5
vt 1 1
vt -27 1
vt -27 5
vt -26 5
vt -26 1
vt -1 1
vt -1 5
vt 0 5
vt 0 1
vt 31 5
vt 4 5
vt 4 6
vt 31 6
vt 0 5
vt -1 5
vt -1 6
vt 0 6
vt 32 5
vt 31 5
vt 31 6
vt 32 6
vt 1 5
vt 0 5
vt 0 6
vt 1 6
vt 33 5
vt 32 5
vt 32 6
vt 33 6
vt 2 5
vt 1 5
vt 1 6
vt 2 6
vt 34 5
vt 33 5
vt 33 6
vt 34 6
vt 3 5
vt 2 5
vt 2 6
vt 3 6
vt 35 5
vt 34 5
vt 34 6
vt 35 6
vt 7 5
vt 6 5
vt 6 6
vt 7 6
vt 35 5
vt 34 5
vt 34 6
vt 35 6
vt 1 5
vt 0 5
vt 0 6
vt 1 6
vt -6 5
vt -7 5
vt -7 6
vt -6 6
vt -2 5
vt -3 5
vt -3 6
vt -2 6
vt 2 5
vt 1 5
vt 1 6
vt 2 6
vt -1 5
vt -2 5
vt -2 6
vt -1 6
vt 3 5
vt 2 5
vt 2 6
vt 3 6
vt 0 5
vt -1 5
vt -1 6
vt 0 6
vt 4 5
vt 3 5
vt 3 6
vt 4 6
vt 1 5
vt 0 5
vt 0 6
vt 1 6
vt 6 5
vt 3 5
vt 3 6
vt 6 6
vt -34 5
vt -35 5
vt -35 6
vt -34 6
vt -3 5
vt -6 5
vt -6 6
vt -3 6
vt 0 5
vt -1 5
vt -1 6
vt 0 6
vt 1 5
vt 0 5
vt 0 6
vt 1 6
vt -1 1
vt 0 1
vt 0 -1
vt -1 -1
vt 31 1
vt 32 1
vt 32 -1
vt 31 -1
vt 0 1
vt 1 1
vt 1 -1
vt 0 -1
vt 32 1
vt 33 1
vt 33 -1
vt 32 -1
vt 1 1
vt 2 1
vt 2 -1
vt 1 -1
vt 33 1
vt 34 1
vt 34 -1
vt 33 -1
vt 2 1
vt 3 1
vt 3 -1
vt 2 -1
vt 34 1
vt 35 1
vt 35 -1
vt 34 -1
vt 3 1
vt 6 1
vt 6 -1
vt 3 -1
vt -35 1
vt -34 1
vt -34 -1
vt -35 -1
vt 6 1
vt 7 1
vt 7 -1
vt 6 -1
vt 34 1
vt 35 1
vt 35 -1
vt 34 -1
vt -2 1
vt -1 1
vt -1 -1
vt -2 -1
vt 1 1
vt 2 1
vt 2 -1
vt 1 -1
vt 0 1
vt 1 1
vt 1 -1
vt 0 -1
vt -3 1
vt -2 1
vt -2 -1
vt -3 -1
vt -6 1
vt -3 1
vt -3 -1
vt -6 -1
vt -1 1
vt 0 1
vt 0 -1
vt -1 -1
vt -7 1
vt -6 1
vt -6 -1
vt -7 -1
vt 0 1
vt 1 1
vt 1 -1
vt 0 -1
vt 4 1
vt 31 1
vt 31 -1
vt 4 -1
vt 2 1
vt 3 1
vt 3 -1
vt 2 -1
vt -1 1
vt 0 1
vt 0 -1
vt -1 -1
vt 3 1
vt 4 1
vt 4 -1
vt 3 -1
vt 0 1
vt 1 1
vt 1 -1
vt 0 -1
vt 4 1
vt 31 5
vt 31 1
vt 4 5
vt -1 1
vt -1 5
vt 0 5
vt 0 1
vt 31 1
vt 31 5
vt 32 5
vt 32 1
vt 0 1
vt 0 5
vt 1 5
vt 1 1
vt 32 1
vt 32 5
vt 33 5
vt 33 1
vt 1 1
vt 1 5
vt 2 5
vt 2 1
vt 33 1
vt 33 5
vt 34 5
vt 34 1
vt 2 1
vt 2 5
vt 3 5
vt 3 1
vt 34 1
vt 34 5
vt 35 5
vt 35 1
vt 3 1
vt 3 5
vt 6 5
vt 6 1
vt -35 1
vt -35 5
vt -34 5
vt -34 1
vt 6 1
vt 6 5
vt 7 5
vt 7 1
vt 34 1
vt 34 5
vt 35 5
vt 35 1
vt 0 1
vt 0 5
vt 1 5
vt 1 1
vt -7 1
vt -7 5
vt -6 5
vt -6 1
vt -1 1
vt -1 5
vt 0 5
vt 0 1
vt -6 1
vt -6 5
vt -3 5
vt -3 1
vt 0 1
vt 0 5
vt 1 5
vt 1 1
vt -3 1
vt -3 5
vt -2 5
vt -2 1
vt 1 1
vt 1 5
vt 2 5
vt 2 1
vt -2 1
vt -2 5
vt -1 5
vt -1 1
vt 2 1
vt 2 5
vt 3 5
vt 3 1
vt -1 1
vt -1 5
vt 0 5
vt 0 1
vt 3 1
vt 3 5
vt 4 5
vt 4 1
vt 0 1
vt 0 5
vt 1 5
vt 1 1
vt 0 6
vt 6 6
vt 0 0
vt 6 0
vt 6 0
vt 0 0
vt 6 2
vt 0 2
vt 6 0
vt 0 0
vt 0 2
vt 6 2
vt 6 0
vt 0 0
vt 0 2
vt 6 2
vt 6 0
vt 0 0
vt 6 2
vt 0 2
vt 0 1
vt 6 1
vt 6 0
vt 0 0
vt 0 1
vt 6 1
vt 0 0
vt 6 0
vt 0 1
vt 6 1
vt 6 0
vt 0 0
vt 0 1
vt 6 1
vt 6 0
vt 0 0
vt 6 0
vt 0 0
vt 6 2
vt 0 2
vt 6 0
vt 0 0
vt 0 2
vt 6 2
vt 6 0
vt 0 0
vt 6 2
vt 0 2
vt 6 0
vt 0 0
vt 6 2
vt 0 2
vt -13 14
vt -7 14
vt -13 8
vt -7 8
vt 13 -3.5
vt 7 -3.5
vt 13 -1.5
vt 7 -1.5
vt 14 -3.5
vt 8 -3.5
vt 8 -1.5
vt 14 -1.5
vt -8 -3.5
vt -14 -3.5
vt -14 -1.5
vt -8 -1.5
vt -7 -3.5
vt -13 -3.5
vt -7 -1.5
vt -13 -1.5
vt 7 4
vt 13 4
vt 13 3
vt 7 3
vt 8 4
vt 14 4
vt 8 3
vt 14 3
vt -14 4
vt -8 4
vt -8 3
vt -14 3
vt -13 4
vt -7 4
vt -7 3
vt -13 3
vt 13 -1
vt 7 -1
vt 13 1
vt 7 1
vt 14 -1
vt 8 -1
vt 8 1
vt 14 1
vt -8 -1
vt -14 -1
vt -8 1
vt -14 1
vt -7 -1
vt -13 -1
vt -7 1
vt -13 1
vt -22 14
vt -16 14
vt -22 8
vt -16 8
vt 22 -3.5
vt 16 -3.5
vt 16 -1.5
vt 22 -1.5
vt 14 -3.5
vt 8 -3.5
vt 8 -1.5
vt 14 -1.5
vt -8 -3.5
vt -14 -3.5
vt -14 -1.5
vt -8 -1.5
vt -16 -3.5
vt -22 -3.5
vt -16 -1.5
vt -22 -1.5
vt 16 4
vt 22 4
vt 22 3
vt 16 3
vt 8 4
vt 14 4
vt 8 3
vt 14 3
vt -14 4
vt -8 4
vt -8 3
vt -14 3
vt -22 4
vt -16 4
vt -16 3
vt -22 3
vt 22 -1
vt 16 -1
vt 22 1
vt 16 1
vt 14 -1
vt 8 -1
vt 8 1
vt 14 1
vt -8 -1
vt -14 -1
vt -8 1
vt -14 1
vt -16 -1
vt -22 -1
vt -22 1
vt -16 1
vt -13 23
vt -7 23
vt -13 17
vt -7 17
vt -7 -3.5
vt -13 -3.5
vt -7 -1.5
vt -13 -1.5
vt -17 -3.5
vt -23 -3.5
vt -23 -1.5
vt -17 -1.5
vt 23 -3.5
vt 17 -3.5
vt 23 -1.5
vt 17 -1.5
vt 13 -3.5
vt 7 -3.5
vt 13 -1.5
vt 7 -1.5
vt -13 4
vt -7 4
vt -13 3
vt -7 3
vt 17 4
vt 23 4
vt 23 3
vt 17 3
vt -23 4
vt -17 4
vt -23 3
vt -17 3
vt 7 4
vt 13 4
vt 7 3
vt 13 3
vt -7 -1
vt -13 -1
vt -13 1
vt -7 1
vt 23 -1
vt 17 -1
vt 23 1
vt 17 1
vt -17 -1
vt -23 -1
vt -23 1
vt -17 1
vt 13 -1
vt 7 -1
vt 7 1
vt 13 1
vt 3 0
vt 0 0
vt 3.000001 1
vt 9.536743E-07 1
vt 21 0
vt 0 0
vt 21 1
vt 0 1
vt 3 0
vt 0 0
vt 3.000001 1
vt 9.536743E-07 1
vt 0 21
vt 3 21
vt 9.536743E-07 0
vt 3.000001 0
vt 12 5
vt 11 5
vt 11 6
vt 12 6
vt 35 5
vt 34 5
vt 34 6
vt 35 6
vt 16 5
vt 12 5
vt 12 6
vt 16 6
vt 17 5
vt 17 6
vt 21 5
vt 21 6
vt 22 5
vt 21 5
vt 21 6
vt 22 6
vt 35 5
vt 34 5
vt 34 6
vt 35 6
vt 11 5
vt 7 5
vt 7 6
vt 11 6
vt -34 5
vt -35 5
vt -35 6
vt -34 6
vt -34 5
vt -35 5
vt -35 6
vt -34 6
vt 26 5
vt 22 5
vt 22 6
vt 26 6
vt -35 1
vt -34 1
vt -34 -1
vt -35 -1
vt 11 1
vt 12 1
vt 12 -1
vt 11 -1
vt 34 1
vt 35 1
vt 35 -1
vt 34 -1
vt 12 1
vt 16 1
vt 16 -1
vt 12 -1
vt 16 1
vt 17 1
vt 17 -1
vt 16 -1
vt 17 1
vt 21 1
vt 21 -1
vt 17 -1
vt -35 1
vt -34 1
vt -34 -1
vt -35 -1
vt 21 1
vt 22 1
vt 22 -1
vt 21 -1
vt 34 1
vt 35 1
vt 35 -1
vt 34 -1
vt 22 1
vt 26 1
vt 26 -1
vt 22 -1
vt -35 1
vt -30 1
vt -30 -1
vt -35 -1
vt 30 1
vt 35 1
vt 35 -1
vt 30 -1
vt 7 1
vt 11 1
vt 11 -1
vt 7 -1
vt 7 1
vt 7 5
vt 11 5
vt 11 1
vt -35 1
vt -35 5
vt -34 5
vt -34 1
vt 11 1
vt 11 5
vt 12 5
vt 12 1
vt 34 1
vt 34 5
vt 35 5
vt 35 1
vt 12 1
vt 12 5
vt 16 5
vt 16 1
vt 17 5
vt 16 3
vt 17 3
vt 17 1
vt 21 5
vt 21 1
vt 16 2.5
vt 16 4.5
vt 17 4.5
vt 17 2.5
vt -35 1
vt -35 5
vt -34 5
vt -34 1
vt 21 1
vt 21 5
vt 22 5
vt 22 1
vt 34 1
vt 34 5
vt 35 5
vt 35 1
vt 22 1
vt 22 5
vt 26 5
vt 26 1
vt -35 3
vt -30 1
vt -35 1
vt -30 3
vt -14 -32
vt -19 -33
vt -14 -33
vt -19 -32
vt 35 1
vt 30 3
vt 35 3
vt 30 1
vt -21 5
vt -22 5
vt -22 6
vt -21 6
vt 1 5
vt 0 5
vt 0 6
vt 1 6
vt -11 5
vt -12 5
vt -12 6
vt -11 6
vt -22 5
vt -26 5
vt -26 6
vt -22 6
vt 1 5
vt 0 5
vt 0 6
vt 1 6
vt 0 5
vt -1 5
vt -1 6
vt 0 6
vt -17 5
vt -21 5
vt -21 6
vt -17 6
vt -16 5
vt -16 6
vt -12 5
vt -12 6
vt 0 5
vt -1 5
vt -1 6
vt 0 6
vt -7 5
vt -11 5
vt -11 6
vt -7 6
vt -11 1
vt -7 1
vt -7 -1
vt -11 -1
vt -1 1
vt 0 1
vt 0 -1
vt -1 -1
vt -12 1
vt -11 1
vt -11 -1
vt -12 -1
vt 0 1
vt 1 1
vt 1 -1
vt 0 -1
vt -16 1
vt -12 1
vt -12 -1
vt -16 -1
vt -5 1
vt 0 1
vt 0 -1
vt -5 -1
vt 0 1
vt 5 1
vt 5 -1
vt 0 -1
vt -21 1
vt -17 1
vt -17 -1
vt -21 -1
vt -1 1
vt 0 1
vt 0 -1
vt -1 -1
vt -22 1
vt -21 1
vt -21 -1
vt -22 -1
vt 0 1
vt 1 1
vt 1 -1
vt 0 -1
vt -26 1
vt -22 1
vt -22 -1
vt -26 -1
vt -16 1
vt -16 -1
vt -17 -1
vt -17 1
vt -26 1
vt -26 5
vt -22 5
vt -22 1
vt 0 1
vt 0 5
vt 1 5
vt 1 1
vt -22 1
vt -22 5
vt -21 5
vt -21 1
vt -1 1
vt -1 5
vt 0 5
vt 0 1
vt -21 1
vt -21 5
vt -17 5
vt -17 1
vt -16 5
vt -17 3
vt -16 3
vt -16 1
vt -12 5
vt -12 1
vt -17 2.5
vt -17 4.5
vt -16 4.5
vt -16 2.5
vt 0 1
vt 0 5
vt 1 5
vt 1 1
vt -1 1
vt -1 5
vt 0 5
vt 0 1
vt -11 1
vt -11 5
vt -7 5
vt -7 1
vt 0 3
vt 5 1
vt 0 1
vt 5 3
vt -19 -3
vt -14 -2
vt -19 -2
vt -14 -3
vt 0 1
vt -5 3
vt 0 3
vt -5 1
vt 1 0
vt 0 4
vt 1 4
vt 0 0
vt 0 19
vt 3 19
vt 0 0
vt 3 0
vt 3 0
vt 0 0
vt 3 1
vt 0 1
vt 19 0
vt 0 0
vt 19 1
vt 0 1
vt 3 0
vt 0 0
vt 3 1
vt 0 1

g Combined_Mesh_(root:_scene)
usemtl Combined_Mesh_(root:_scene)
usemap Combined_Mesh_(root:_scene)
f 1/1/1 3/3/3 2/2/2
f 2/2/2 3/3/3 4/4/4
f 5/5/5 7/7/7 6/6/6
f 6/6/6 7/7/7 8/8/8
f 9/9/9 11/11/11 10/10/10
f 10/10/10 11/11/11 12/12/12
f 13/13/13 15/15/15 14/14/14
f 14/14/14 15/15/15 16/16/16
f 17/17/17 19/19/19 18/18/18
f 18/18/18 19/19/19 20/20/20
f 21/21/21 23/23/23 22/22/22
f 22/22/22 23/23/23 24/24/24
g Combined_Mesh_(root:_scene)_1
usemtl Combined_Mesh_(root:_scene)_1
usemap Combined_Mesh_(root:_scene)_1
f 25/25/25 27/27/27 26/26/26
f 26/26/26 27/27/27 28/28/28
f 29/29/29 31/31/31 30/30/30
f 30/30/30 31/31/31 32/32/32
f 33/33/33 35/35/35 34/34/34
f 34/34/34 35/35/35 36/36/36
f 37/37/37 39/39/39 38/38/38
f 38/38/38 39/39/39 40/40/40
f 41/41/41 43/43/43 42/42/42
f 42/42/42 43/43/43 44/44/44
f 45/45/45 47/47/47 46/46/46
f 46/46/46 47/47/47 48/48/48
g Combined_Mesh_(root:_scene)_2
usemtl Combined_Mesh_(root:_scene)_2
usemap Combined_Mesh_(root:_scene)_2
f 49/49/49 51/51/51 50/50/50
f 50/50/50 51/51/51 52/52/52
f 53/53/53 55/55/55 54/54/54
f 54/54/54 55/55/55 56/56/56
f 57/57/57 59/59/59 58/58/58
f 58/58/58 59/59/59 60/60/60
f 61/61/61 63/63/63 62/62/62
f 62/62/62 63/63/63 64/64/64
f 65/65/65 67/67/67 66/66/66
f 66/66/66 67/67/67 68/68/68
f 69/69/69 71/71/71 70/70/70
f 70/70/70 71/71/71 72/72/72
g Combined_Mesh_(root:_scene)_3
usemtl Combined_Mesh_(root:_scene)_3
usemap Combined_Mesh_(root:_scene)_3
f 73/73/73 75/75/75 74/74/74
f 74/74/74 75/75/75 76/76/76
f 77/77/77 79/79/79 78/78/78
f 78/78/78 79/79/79 80/80/80
f 81/81/81 83/83/83 82/82/82
f 82/82/82 83/83/83 84/84/84
f 85/85/85 87/87/87 86/86/86
f 86/86/86 87/87/87 88/88/88
f 89/89/89 91/91/91 90/90/90
f 90/90/90 91/91/91 92/92/92
f 93/93/93 95/95/95 94/94/94
f 94/94/94 95/95/95 96/96/96
g Combined_Mesh_(root:_scene)_4
usemtl Combined_Mesh_(root:_scene)_4
usemap Combined_Mesh_(root:_scene)_4
f 97/97/97 99/99/99 98/98/98
f 98/98/98 99/99/99 100/100/100
g Combined_Mesh_(root:_scene)_5
usemtl Combined_Mesh_(root:_scene)_5
usemap Combined_Mesh_(root:_scene)_5
f 101/101/101 103/103/103 102/102/102
f 102/102/102 103/103/103 104/104/104
f 105/105/105 107/107/107 106/106/106
f 106/106/106 107/107/107 108/108/108
f 109/109/109 111/111/111 110/110/110
f 110/110/110 111/111/111 112/112/112
f 113/113/113 115/115/115 114/114/114
f 114/114/114 115/115/115 116/116/116
f 117/117/117 119/119/119 118/118/118
f 118/118/118 119/119/119 120/120/120
f 121/121/121 123/123/123 122/122/122
f 122/122/122 123/123/123 124/124/124
g Combined_Mesh_(root:_scene)_6
usemtl Combined_Mesh_(root:_scene)_6
usemap Combined_Mesh_(root:_scene)_6
f 125/125/125 127/127/127 126/126/126
f 126/126/126 127/127/127 128/128/128
f 129/129/129 131/131/131 130/130/130
f 130/130/130 131/131/131 132/132/132
f 133/133/133 135/135/135 134/134/134
f 134/134/134 135/135/135 136/136/136
f 137/137/137 139/139/139 138/138/138
f 138/138/138 139/139/139 140/140/140
f 141/141/141 143/143/143 142/142/142
f 142/142/142 143/143/143 144/144/144
f 145/145/145 147/147/147 146/146/146
f 146/146/146 147/147/147 148/148/148
g Combined_Mesh_(root:_scene)_7
usemtl Combined_Mesh_(root:_scene)_7
usemap Combined_Mesh_(root:_scene)_7
f 149/149/149 151/151/151 150/150/150
f 150/150/150 151/151/151 152/152/152
f 153/153/153 155/155/155 154/154/154
f 154/154/154 155/155/155 156/156/156
f 157/157/157 159/159/159 158/158/158
f 158/158/158 159/159/159 160/160/160
f 161/161/161 163/163/163 162/162/162
f 162/162/162 163/163/163 164/164/164
f 165/165/165 167/167/167 166/166/166
f 166/166/166 167/167/167 168/168/168
f 169/169/169 171/171/171 170/170/170
f 170/170/170 171/171/171 172/172/172
g Combined_Mesh_(root:_scene)_8
usemtl Combined_Mesh_(root:_scene)_8
usemap Combined_Mesh_(root:_scene)_8
f 173/173/173 175/175/175 174/174/174
f 174/174/174 175/175/175 176/176/176
f 177/177/177 179/179/179 178/178/178
f 178/178/178 179/179/179 180/180/180
f 181/181/181 183/183/183 182/182/182
f 182/182/182 183/183/183 184/184/184
f 185/185/185 187/187/187 186/186/186
f 186/186/186 187/187/187 188/188/188
f 189/189/189 191/191/191 190/190/190
f 190/190/190 191/191/191 192/192/192
f 193/193/193 195/195/195 194/194/194
f 194/194/194 195/195/195 196/196/196
g Combined_Mesh_(root:_scene)_9
usemtl Combined_Mesh_(root:_scene)_9
usemap Combined_Mesh_(root:_scene)_9
f 197/197/197 199/199/199 198/198/198
f 200/200/200 199/199/199 197/197/197
f 201/201/201 203/203/203 202/202/202
f 204/204/204 203/203/203 201/201/201
f 205/205/205 207/207/207 206/206/206
f 208/208/208 207/207/207 205/205/205
f 209/209/209 211/211/211 210/210/210
f 212/212/212 211/211/211 209/209/209
f 213/213/213 215/215/215 214/214/214
f 216/216/216 215/215/215 213/213/213
f 217/217/217 219/219/219 218/218/218
f 220/220/220 219/219/219 217/217/217
f 221/221/221 223/223/223 222/222/222
f 224/224/224 223/223/223 221/221/221
f 225/225/225 227/227/227 226/226/226
f 228/228/228 227/227/227 225/225/225
f 229/229/229 231/231/231 230/230/230
f 232/232/232 231/231/231 229/229/229
f 233/233/233 235/235/235 234/234/234
f 236/236/236 235/235/235 233/233/233
f 237/237/237 239/239/239 238/238/238
f 240/240/240 239/239/239 237/237/237
f 241/241/241 243/243/243 242/242/242
f 244/244/244 243/243/243 241/241/241
f 245/245/245 247/247/247 246/246/246
f 248/248/248 247/247/247 245/245/245
f 249/249/249 251/251/251 250/250/250
f 252/252/252 251/251/251 249/249/249
f 253/253/253 255/255/255 254/254/254
f 256/256/256 255/255/255 253/253/253
f 257/257/257 259/259/259 258/258/258
f 260/260/260 259/259/259 257/257/257
f 261/261/261 263/263/263 262/262/262
f 264/264/264 263/263/263 261/261/261
f 265/265/265 267/267/267 266/266/266
f 268/268/268 267/267/267 265/265/265
f 269/269/269 271/271/271 270/270/270
f 272/272/272 271/271/271 269/269/269
f 273/273/273 275/275/275 274/274/274
f 276/276/276 275/275/275 273/273/273
f 277/277/277 279/279/279 278/278/278
f 280/280/280 279/279/279 277/277/277
f 281/281/281 283/283/283 282/282/282
f 284/284/284 283/283/283 281/281/281
f 285/285/285 287/287/287 286/286/286
f 288/288/288 287/287/287 285/285/285
f 289/289/289 291/291/291 290/290/290
f 292/292/292 291/291/291 289/289/289
f 293/293/293 295/295/295 294/294/294
f 296/296/296 295/295/295 293/293/293
f 297/297/297 299/299/299 298/298/298
f 300/300/300 299/299/299 297/297/297
f 301/301/301 303/303/303 302/302/302
f 304/304/304 303/303/303 301/301/301
f 305/305/305 307/307/307 306/306/306
f 308/308/308 307/307/307 305/305/305
f 309/309/309 311/311/311 310/310/310
f 312/312/312 311/311/311 309/309/309
f 313/313/313 315/315/315 314/314/314
f 316/316/316 315/315/315 313/313/313
f 317/317/317 319/319/319 318/318/318
f 320/320/320 319/319/319 317/317/317
f 321/321/321 323/323/323 322/322/322
f 324/324/324 323/323/323 321/321/321
f 325/325/325 327/327/327 326/326/326
f 328/328/328 327/327/327 325/325/325
f 329/329/329 331/331/331 330/330/330
f 332/332/332 331/331/331 329/329/329
f 333/333/333 335/335/335 334/334/334
f 336/336/336 335/335/335 333/333/333
f 337/337/337 339/339/339 338/338/338
f 340/340/340 339/339/339 337/337/337
f 341/341/341 343/343/343 342/342/342
f 344/344/344 343/343/343 341/341/341
f 345/345/345 347/347/347 346/346/346
f 348/348/348 347/347/347 345/345/345
f 349/349/349 351/351/351 350/350/350
f 352/352/352 351/351/351 349/349/349
f 353/353/353 355/355/355 354/354/354
f 356/356/356 355/355/355 353/353/353
f 357/357/357 359/359/359 358/358/358
f 360/360/360 359/359/359 357/357/357
f 361/361/361 363/363/363 362/362/362
f 364/364/364 363/363/363 361/361/361
f 365/365/365 367/367/367 366/366/366
f 368/368/368 367/367/367 365/365/365
f 369/369/369 371/371/371 370/370/370
f 372/372/372 371/371/371 369/369/369
f 373/373/373 375/375/375 374/374/374
f 376/376/376 375/375/375 373/373/373
f 377/377/377 379/379/379 378/378/378
f 380/380/380 379/379/379 377/377/377
f 381/381/381 383/383/383 382/382/382
f 384/384/384 383/383/383 381/381/381
f 385/385/385 387/387/387 386/386/386
f 388/388/388 387/387/387 385/385/385
f 389/389/389 391/391/391 390/390/390
f 392/392/392 391/391/391 389/389/389
f 393/393/393 395/395/395 394/394/394
f 396/396/396 395/395/395 393/393/393
g Combined_Mesh_(root:_scene)_10
usemtl Combined_Mesh_(root:_scene)_10
usemap Combined_Mesh_(root:_scene)_10
f 397/397/397 399/399/399 398/398/398
f 400/400/400 399/399/399 397/397/397
f 401/401/401 403/403/403 402/402/402
f 404/404/404 403/403/403 401/401/401
f 405/405/405 407/407/407 406/406/406
f 408/408/408 407/407/407 405/405/405
f 409/409/409 411/411/411 410/410/410
f 412/412/412 411/411/411 409/409/409
f 413/413/413 415/415/415 414/414/414
f 416/416/416 415/415/415 413/413/413
f 417/417/417 419/419/419 418/418/418
f 420/420/420 419/419/419 417/417/417
f 421/421/421 423/423/423 422/422/422
f 424/424/424 423/423/423 421/421/421
f 425/425/425 427/427/427 426/426/426
f 428/428/428 427/427/427 425/425/425
f 429/429/429 431/431/431 430/430/430
f 432/432/432 431/431/431 429/429/429
f 433/433/433 435/435/435 434/434/434
f 436/436/436 435/435/435 433/433/433
f 437/437/437 439/439/439 438/438/438
f 440/440/440 439/439/439 437/437/437
f 441/441/441 443/443/443 442/442/442
f 444/444/444 443/443/443 441/441/441
f 445/445/445 447/447/447 446/446/446
f 448/448/448 445/445/445 446/446/446
f 449/449/449 451/451/451 450/450/450
f 452/452/452 451/451/451 449/449/449
f 453/453/453 455/455/455 454/454/454
f 456/456/456 455/455/455 453/453/453
f 457/457/457 459/459/459 458/458/458
f 460/460/460 459/459/459 457/457/457
f 461/461/461 463/463/463 462/462/462
f 464/464/464 463/463/463 461/461/461
f 465/465/465 467/467/467 466/466/466
f 468/468/468 467/467/467 465/465/465
f 469/469/469 471/471/471 470/470/470
f 472/472/472 471/471/471 469/469/469
f 473/473/473 475/475/475 474/474/474
f 476/476/476 475/475/475 473/473/473
f 477/477/477 479/479/479 478/478/478
f 480/480/480 479/479/479 477/477/477
f 481/481/481 483/483/483 482/482/482
f 484/484/484 483/483/483 481/481/481
f 485/485/485 487/487/487 486/486/486
f 488/488/488 487/487/487 485/485/485
f 489/489/489 491/491/491 490/490/490
f 492/492/492 491/491/491 489/489/489
f 493/493/493 495/495/495 494/494/494
f 496/496/496 495/495/495 493/493/493
g Combined_Mesh_(root:_scene)_11
usemtl Combined_Mesh_(root:_scene)_11
usemap Combined_Mesh_(root:_scene)_11
f 497/497/497 499/499/499 498/498/498
f 500/500/500 499/499/499 497/497/497
f 501/501/501 503/503/503 502/502/502
f 504/504/504 503/503/503 501/501/501
f 505/505/505 507/507/507 506/506/506
f 508/508/508 507/507/507 505/505/505
f 509/509/509 511/511/511 510/510/510
f 512/512/512 511/511/511 509/509/509
f 513/513/513 515/515/515 514/514/514
f 516/516/516 515/515/515 513/513/513
f 517/517/517 519/519/519 518/518/518
f 520/520/520 519/519/519 517/517/517
f 521/521/521 523/523/523 522/522/522
f 524/524/524 523/523/523 521/521/521
f 525/525/525 527/527/527 526/526/526
f 528/528/528 527/527/527 525/525/525
f 529/529/529 531/531/531 530/530/530
f 532/532/532 531/531/531 529/529/529
f 533/533/533 535/535/535 534/534/534
f 536/536/536 535/535/535 533/533/533
f 537/537/537 539/539/539 538/538/538
f 540/540/540 539/539/539 537/537/537
f 541/541/541 543/543/543 542/542/542
f 544/544/544 543/543/543 541/541/541
f 545/545/545 547/547/547 546/546/546
f 548/548/548 547/547/547 545/545/545
f 549/549/549 551/551/551 550/550/550
f 552/552/552 551/551/551 549/549/549
f 553/553/553 555/555/555 554/554/554
f 556/556/556 555/555/555 553/553/553
f 557/557/557 559/559/559 558/558/558
f 560/560/560 559/559/559 557/557/557
f 561/561/561 563/563/563 562/562/562
f 564/564/564 563/563/563 561/561/561
f 565/565/565 567/567/567 566/566/566
f 568/568/568 567/567/567 565/565/565
f 569/569/569 571/571/571 570/570/570
f 572/572/572 571/571/571 569/569/569
f 573/573/573 575/575/575 574/574/574
f 576/576/576 575/575/575 573/573/573
f 577/577/577 579/579/579 578/578/578
f 580/580/580 579/579/579 577/577/577
f 581/581/581 583/583/583 582/582/582
f 584/584/584 583/583/583 581/581/581
f 585/585/585 587/587/587 586/586/586
f 588/588/588 587/587/587 585/585/585
f 589/589/589 591/591/591 590/590/590
f 592/592/592 591/591/591 589/589/589
f 593/593/593 595/595/595 594/594/594
f 596/596/596 595/595/595 593/593/593
f 597/597/597 599/599/599 598/598/598
f 600/600/600 599/599/599 597/597/597
f 601/601/601 603/603/603 602/602/602
f 604/604/604 603/603/603 601/601/601
f 605/605/605 607/607/607 606/606/606
f 608/608/608 607/607/607 605/605/605
f 609/609/609 611/611/611 610/610/610
f 612/612/612 611/611/611 609/609/609
f 613/613/613 615/615/615 614/614/614
f 616/616/616 615/615/615 613/613/613
f 617/617/617 619/619/619 618/618/618
f 620/620/620 619/619/619 617/617/617
f 621/621/621 623/623/623 622/622/622
f 624/624/624 623/623/623 621/621/621
f 625/625/625 627/627/627 626/626/626
f 628/628/628 627/627/627 625/625/625
f 629/629/629 631/631/631 630/630/630
f 632/632/632 631/631/631 629/629/629
f 633/633/633 635/635/635 634/634/634
f 636/636/636 635/635/635 633/633/633
f 637/637/637 639/639/639 638/638/638
f 640/640/640 639/639/639 637/637/637
f 641/641/641 643/643/643 642/642/642
f 644/644/644 643/643/643 641/641/641
f 645/645/645 647/647/647 646/646/646
f 648/648/648 647/647/647 645/645/645
f 649/649/649 651/651/651 650/650/650
f 652/652/652 651/651/651 649/649/649
f 653/653/653 655/655/655 654/654/654
f 656/656/656 655/655/655 653/653/653
f 657/657/657 659/659/659 658/658/658
f 660/660/660 659/659/659 657/657/657
f 661/661/661 663/663/663 662/662/662
f 664/664/664 663/663/663 661/661/661
f 665/665/665 667/667/667 666/666/666
f 668/668/668 667/667/667 665/665/665
f 669/669/669 671/671/671 670/670/670
f 672/672/672 671/671/671 669/669/669
f 673/673/673 675/675/675 674/674/674
f 676/676/676 675/675/675 673/673/673
f 677/677/677 679/679/679 678/678/678
f 680/680/680 679/679/679 677/677/677
f 681/681/681 683/683/683 682/682/682
f 684/684/684 683/683/683 681/681/681
f 685/685/685 687/687/687 686/686/686
f 688/688/688 687/687/687 685/685/685
f 689/689/689 691/691/691 690/690/690
f 692/692/692 691/691/691 689/689/689
f 693/693/693 695/695/695 694/694/694
f 696/696/696 695/695/695 693/693/693
g Combined_Mesh_(root:_scene)_12
usemtl Combined_Mesh_(root:_scene)_12
usemap Combined_Mesh_(root:_scene)_12
f 697/697/697 699/699/699 698/698/698
f 700/700/700 697/697/697 698/698/698
f 701/701/701 703/703/703 702/702/702
f 704/704/704 703/703/703 701/701/701
f 705/705/705 707/707/707 706/706/706
f 708/708/708 707/707/707 705/705/705
f 709/709/709 711/711/711 710/710/710
f 712/712/712 711/711/711 709/709/709
f 713/713/713 715/715/715 714/714/714
f 716/716/716 715/715/715 713/713/713
f 717/717/717 719/719/719 718/718/718
f 720/720/720 719/719/719 717/717/717
f 721/721/721 723/723/723 722/722/722
f 724/724/724 723/723/723 721/721/721
f 725/725/725 727/727/727 726/726/726
f 728/728/728 727/727/727 725/725/725
f 729/729/729 731/731/731 730/730/730
f 732/732/732 731/731/731 729/729/729
f 733/733/733 735/735/735 734/734/734
f 736/736/736 735/735/735 733/733/733
f 737/737/737 739/739/739 738/738/738
f 740/740/740 739/739/739 737/737/737
f 741/741/741 743/743/743 742/742/742
f 744/744/744 743/743/743 741/741/741
f 745/745/745 747/747/747 746/746/746
f 748/748/748 747/747/747 745/745/745
f 749/749/749 751/751/751 750/750/750
f 752/752/752 751/751/751 749/749/749
f 753/753/753 755/755/755 754/754/754
f 756/756/756 755/755/755 753/753/753
f 757/757/757 759/759/759 758/758/758
f 760/760/760 759/759/759 757/757/757
f 761/761/761 763/763/763 762/762/762
f 764/764/764 763/763/763 761/761/761
f 765/765/765 767/767/767 766/766/766
f 768/768/768 767/767/767 765/765/765
f 769/769/769 771/771/771 770/770/770
f 772/772/772 771/771/771 769/769/769
f 773/773/773 775/775/775 774/774/774
f 776/776/776 775/775/775 773/773/773
f 777/777/777 779/779/779 778/778/778
f 780/780/780 779/779/779 777/777/777
f 781/781/781 783/783/783 782/782/782
f 784/784/784 783/783/783 781/781/781
f 785/785/785 787/787/787 786/786/786
f 788/788/788 787/787/787 785/785/785
f 789/789/789 791/791/791 790/790/790
f 792/792/792 791/791/791 789/789/789
f 793/793/793 795/795/795 794/794/794
f 796/796/796 795/795/795 793/793/793
g Combined_Mesh_(root:_scene)_13
usemtl Combined_Mesh_(root:_scene)_13
usemap Combined_Mesh_(root:_scene)_13
f 797/797/797 799/799/799 798/798/798
f 798/798/798 799/799/799 800/800/800
f 801/801/801 803/803/803 802/802/802
f 802/802/802 803/803/803 804/804/804
f 805/805/805 807/807/807 806/806/806
f 808/808/808 807/807/807 805/805/805
f 809/809/809 811/811/811 810/810/810
f 809/809/809 812/812/812 811/811/811
f 813/813/813 815/815/815 814/814/814
f 814/814/814 815/815/815 816/816/816
f 817/817/817 819/819/819 818/818/818
f 820/820/820 819/819/819 817/817/817
f 821/821/821 823/823/823 822/822/822
f 822/822/822 823/823/823 824/824/824
f 825/825/825 827/827/827 826/826/826
f 828/828/828 827/827/827 825/825/825
f 829/829/829 831/831/831 830/830/830
f 832/832/832 831/831/831 829/829/829
g Combined_Mesh_(root:_scene)_14
usemtl Combined_Mesh_(root:_scene)_14
usemap Combined_Mesh_(root:_scene)_14
f 833/833/833 835/835/835 834/834/834
f 834/834/834 835/835/835 836/836/836
f 837/837/837 839/839/839 838/838/838
f 840/840/840 839/839/839 837/837/837
f 841/841/841 843/843/843 842/842/842
f 842/842/842 843/843/843 844/844/844
f 845/845/845 847/847/847 846/846/846
f 846/846/846 847/847/847 848/848/848
g Combined_Mesh_(root:_scene)_15
usemtl Combined_Mesh_(root:_scene)_15
usemap Combined_Mesh_(root:_scene)_15
f 849/849/849 851/851/851 850/850/850
f 850/850/850 851/851/851 852/852/852
f 853/853/853 855/855/855 854/854/854
f 854/854/854 855/855/855 856/856/856
f 857/857/857 859/859/859 858/858/858
f 860/860/860 859/859/859 857/857/857
f 861/861/861 863/863/863 862/862/862
f 861/861/861 864/864/864 863/863/863
f 865/865/865 867/867/867 866/866/866
f 866/866/866 867/867/867 868/868/868
f 869/869/869 871/871/871 870/870/870
f 872/872/872 871/871/871 869/869/869
f 873/873/873 875/875/875 874/874/874
f 874/874/874 875/875/875 876/876/876
f 877/877/877 879/879/879 878/878/878
f 880/880/880 879/879/879 877/877/877
f 881/881/881 883/883/883 882/882/882
f 884/884/884 883/883/883 881/881/881
g Combined_Mesh_(root:_scene)_16
usemtl Combined_Mesh_(root:_scene)_16
usemap Combined_Mesh_(root:_scene)_16
f 885/885/885 887/887/887 886/886/886
f 886/886/886 887/887/887 888/888/888
f 889/889/889 891/891/891 890/890/890
f 892/892/892 891/891/891 889/889/889
f 893/893/893 895/895/895 894/894/894
f 894/894/894 895/895/895 896/896/896
f 897/897/897 899/899/899 898/898/898
f 898/898/898 899/899/899 900/900/900
g Combined_Mesh_(root:_scene)_17
usemtl Combined_Mesh_(root:_scene)_17
usemap Combined_Mesh_(root:_scene)_17
f 901/901/901 903/903/903 902/902/902
f 902/902/902 903/903/903 904/904/904
f 905/905/905 907/907/907 906/906/906
f 905/905/905 908/908/908 907/907/907
f 909/909/909 911/911/911 910/910/910
f 912/912/912 911/911/911 909/909/909
f 913/913/913 915/915/915 914/914/914
f 913/913/913 916/916/916 915/915/915
f 917/917/917 919/919/919 918/918/918
f 918/918/918 919/919/919 920/920/920
f 921/921/921 923/923/923 922/922/922
f 924/924/924 923/923/923 921/921/921
f 925/925/925 927/927/927 926/926/926
f 926/926/926 927/927/927 928/928/928
f 929/929/929 931/931/931 930/930/930
f 932/932/932 931/931/931 929/929/929
f 933/933/933 935/935/935 934/934/934
f 936/936/936 935/935/935 933/933/933
g Combined_Mesh_(root:_scene)_18
usemtl Combined_Mesh_(root:_scene)_18
usemap Combined_Mesh_(root:_scene)_18
f 937/937/937 939/939/939 938/938/938
f 938/938/938 939/939/939 940/940/940
f 941/941/941 943/943/943 942/942/942
f 944/944/944 943/943/943 941/941/941
f 945/945/945 947/947/947 946/946/946
f 946/946/946 947/947/947 948/948/948
f 949/949/949 951/951/951 950/950/950
f 949/949/949 952/952/952 951/951/951
g Combined_Mesh_(root:_scene)_19
usemtl Combined_Mesh_(root:_scene)_19
usemap Combined_Mesh_(root:_scene)_19
f 953/953/953 955/955/955 954/954/954
f 954/954/954 955/955/955 956/956/956
f 957/957/957 959/959/959 958/958/958
f 958/958/958 959/959/959 960/960/960
f 961/961/961 963/963/963 962/962/962
f 964/964/964 963/963/963 961/961/961
f 965/965/965 967/967/967 966/966/966
f 966/966/966 967/967/967 968/968/968
f 969/969/969 971/971/971 970/970/970
f 970/970/970 971/971/971 972/972/972
f 973/973/973 975/975/975 974/974/974
f 974/974/974 975/975/975 976/976/976
f 977/977/977 979/979/979 978/978/978
f 980/980/980 979/979/979 977/977/977
f 981/981/981 983/983/983 982/982/982
f 982/982/982 983/983/983 984/984/984
f 985/985/985 987/987/987 986/986/986
f 986/986/986 987/987/987 988/988/988
g Combined_Mesh_(root:_scene)_20
usemtl Combined_Mesh_(root:_scene)_20
usemap Combined_Mesh_(root:_scene)_20
f 989/989/989 991/991/991 990/990/990
f 992/992/992 991/991/991 989/989/989
f 993/993/993 995/995/995 994/994/994
f 994/994/994 995/995/995 996/996/996
f 997/997/997 999/999/999 998/998/998
f 1000/1000/1000 999/999/999 997/997/997
f 1001/1001/1001 1003/1003/1003 1002/1002/1002
f 1004/1004/1004 1003/1003/1003 1001/1001/1001
g Combined_Mesh_(root:_scene)_21
usemtl Combined_Mesh_(root:_scene)_21
usemap Combined_Mesh_(root:_scene)_21
f 1005/1005/1005 1007/1007/1007 1006/1006/1006
f 1006/1006/1006 1007/1007/1007 1008/1008/1008
f 1009/1009/1009 1011/1011/1011 1010/1010/1010
f 1010/1010/1010 1011/1011/1011 1012/1012/1012
f 1013/1013/1013 1015/1015/1015 1014/1014/1014
f 1014/1014/1014 1015/1015/1015 1016/1016/1016
f 1017/1017/1017 1019/1019/1019 1018/1018/1018
f 1018/1018/1018 1019/1019/1019 1020/1020/1020
g Combined_Mesh_(root:_scene)_22
usemtl Combined_Mesh_(root:_scene)_22
usemap Combined_Mesh_(root:_scene)_22
f 1021/1021/1021 1023/1023/1023 1022/1022/1022
f 1024/1024/1024 1023/1023/1023 1021/1021/1021
f 1025/1025/1025 1027/1027/1027 1026/1026/1026
f 1028/1028/1028 1027/1027/1027 1025/1025/1025
f 1029/1029/1029 1031/1031/1031 1030/1030/1030
f 1032/1032/1032 1031/1031/1031 1029/1029/1029
f 1033/1033/1033 1032/1032/1032 1029/1029/1029
f 1034/1034/1034 1032/1032/1032 1033/1033/1033
f 1035/1035/1035 1034/1034/1034 1033/1033/1033
f 1036/1036/1036 1034/1034/1034 1035/1035/1035
f 1037/1037/1037 1039/1039/1039 1038/1038/1038
f 1040/1040/1040 1039/1039/1039 1037/1037/1037
f 1041/1041/1041 1043/1043/1043 1042/1042/1042
f 1044/1044/1044 1043/1043/1043 1041/1041/1041
f 1045/1045/1045 1047/1047/1047 1046/1046/1046
f 1048/1048/1048 1047/1047/1047 1045/1045/1045
f 1049/1049/1049 1051/1051/1051 1050/1050/1050
f 1052/1052/1052 1051/1051/1051 1049/1049/1049
f 1053/1053/1053 1055/1055/1055 1054/1054/1054
f 1056/1056/1056 1055/1055/1055 1053/1053/1053
f 1057/1057/1057 1059/1059/1059 1058/1058/1058
f 1060/1060/1060 1059/1059/1059 1057/1057/1057
f 1061/1061/1061 1063/1063/1063 1062/1062/1062
f 1064/1064/1064 1063/1063/1063 1061/1061/1061
f 1065/1065/1065 1067/1067/1067 1066/1066/1066
f 1068/1068/1068 1067/1067/1067 1065/1065/1065
f 1069/1069/1069 1071/1071/1071 1070/1070/1070
f 1072/1072/1072 1071/1071/1071 1069/1069/1069
f 1073/1073/1073 1075/1075/1075 1074/1074/1074
f 1076/1076/1076 1075/1075/1075 1073/1073/1073
f 1077/1077/1077 1079/1079/1079 1078/1078/1078
f 1080/1080/1080 1079/1079/1079 1077/1077/1077
f 1081/1081/1081 1083/1083/1083 1082/1082/1082
f 1084/1084/1084 1083/1083/1083 1081/1081/1081
f 1085/1085/1085 1087/1087/1087 1086/1086/1086
f 1088/1088/1088 1087/1087/1087 1085/1085/1085
f 1089/1089/1089 1091/1091/1091 1090/1090/1090
f 1092/1092/1092 1091/1091/1091 1089/1089/1089
f 1093/1093/1093 1095/1095/1095 1094/1094/1094
f 1096/1096/1096 1095/1095/1095 1093/1093/1093
f 1097/1097/1097 1099/1099/1099 1098/1098/1098
f 1100/1100/1100 1099/1099/1099 1097/1097/1097
f 1101/1101/1101 1103/1103/1103 1102/1102/1102
f 1104/1104/1104 1103/1103/1103 1101/1101/1101
f 1105/1105/1105 1107/1107/1107 1106/1106/1106
f 1108/1108/1108 1107/1107/1107 1105/1105/1105
f 1109/1109/1109 1111/1111/1111 1110/1110/1110
f 1112/1112/1112 1111/1111/1111 1109/1109/1109
g Combined_Mesh_(root:_scene)_23
usemtl Combined_Mesh_(root:_scene)_23
usemap Combined_Mesh_(root:_scene)_23
f 1113/1113/1113 1115/1115/1115 1114/1114/1114
f 1116/1116/1116 1115/1115/1115 1113/1113/1113
f 1117/1117/1117 1119/1119/1119 1118/1118/1118
f 1120/1120/1120 1119/1119/1119 1117/1117/1117
f 1121/1121/1121 1123/1123/1123 1122/1122/1122
f 1124/1124/1124 1123/1123/1123 1121/1121/1121
f 1125/1125/1125 1127/1127/1127 1126/1126/1126
f 1128/1128/1128 1127/1127/1127 1125/1125/1125
f 1129/1129/1129 1131/1131/1131 1130/1130/1130
f 1132/1132/1132 1131/1131/1131 1129/1129/1129
f 1133/1133/1133 1131/1131/1131 1134/1134/1134
f 1135/1135/1135 1133/1133/1133 1134/1134/1134
f 1136/1136/1136 1137/1137/1137 1133/1133/1133
f 1138/1138/1138 1137/1137/1137 1136/1136/1136
f 1139/1139/1139 1141/1141/1141 1140/1140/1140
f 1142/1142/1142 1141/1141/1141 1139/1139/1139
f 1143/1143/1143 1145/1145/1145 1144/1144/1144
f 1146/1146/1146 1145/1145/1145 1143/1143/1143
f 1147/1147/1147 1149/1149/1149 1148/1148/1148
f 1150/1150/1150 1149/1149/1149 1147/1147/1147
f 1151/1151/1151 1153/1153/1153 1152/1152/1152
f 1154/1154/1154 1153/1153/1153 1151/1151/1151
f 1155/1155/1155 1157/1157/1157 1156/1156/1156
f 1158/1158/1158 1157/1157/1157 1155/1155/1155
f 1159/1159/1159 1161/1161/1161 1160/1160/1160
f 1162/1162/1162 1159/1159/1159 1160/1160/1160
f 1163/1163/1163 1165/1165/1165 1164/1164/1164
f 1166/1166/1166 1163/1163/1163 1164/1164/1164
f 1167/1167/1167 1169/1169/1169 1168/1168/1168
f 1170/1170/1170 1167/1167/1167 1168/1168/1168
g Combined_Mesh_(root:_scene)_24
usemtl Combined_Mesh_(root:_scene)_24
usemap Combined_Mesh_(root:_scene)_24
f 1171/1171/1171 1173/1173/1173 1172/1172/1172
f 1174/1174/1174 1173/1173/1173 1171/1171/1171
f 1175/1175/1175 1177/1177/1177 1176/1176/1176
f 1178/1178/1178 1177/1177/1177 1175/1175/1175
f 1179/1179/1179 1181/1181/1181 1180/1180/1180
f 1182/1182/1182 1181/1181/1181 1179/1179/1179
f 1183/1183/1183 1185/1185/1185 1184/1184/1184
f 1186/1186/1186 1185/1185/1185 1183/1183/1183
f 1187/1187/1187 1189/1189/1189 1188/1188/1188
f 1190/1190/1190 1189/1189/1189 1187/1187/1187
f 1191/1191/1191 1193/1193/1193 1192/1192/1192
f 1194/1194/1194 1193/1193/1193 1191/1191/1191
f 1195/1195/1195 1197/1197/1197 1196/1196/1196
f 1198/1198/1198 1197/1197/1197 1195/1195/1195
f 1199/1199/1199 1198/1198/1198 1195/1195/1195
f 1200/1200/1200 1198/1198/1198 1199/1199/1199
f 1201/1201/1201 1200/1200/1200 1199/1199/1199
f 1202/1202/1202 1200/1200/1200 1201/1201/1201
f 1203/1203/1203 1205/1205/1205 1204/1204/1204
f 1206/1206/1206 1205/1205/1205 1203/1203/1203
f 1207/1207/1207 1209/1209/1209 1208/1208/1208
f 1210/1210/1210 1209/1209/1209 1207/1207/1207
f 1211/1211/1211 1213/1213/1213 1212/1212/1212
f 1214/1214/1214 1213/1213/1213 1211/1211/1211
f 1215/1215/1215 1217/1217/1217 1216/1216/1216
f 1218/1218/1218 1217/1217/1217 1215/1215/1215
f 1219/1219/1219 1221/1221/1221 1220/1220/1220
f 1222/1222/1222 1221/1221/1221 1219/1219/1219
f 1223/1223/1223 1225/1225/1225 1224/1224/1224
f 1226/1226/1226 1225/1225/1225 1223/1223/1223
f 1227/1227/1227 1229/1229/1229 1228/1228/1228
f 1230/1230/1230 1229/1229/1229 1227/1227/1227
f 1231/1231/1231 1233/1233/1233 1232/1232/1232
f 1234/1234/1234 1233/1233/1233 1231/1231/1231
f 1235/1235/1235 1237/1237/1237 1236/1236/1236
f 1238/1238/1238 1237/1237/1237 1235/1235/1235
f 1239/1239/1239 1241/1241/1241 1240/1240/1240
f 1242/1242/1242 1241/1241/1241 1239/1239/1239
f 1243/1243/1243 1245/1245/1245 1244/1244/1244
f 1246/1246/1246 1245/1245/1245 1243/1243/1243
f 1247/1247/1247 1249/1249/1249 1248/1248/1248
f 1250/1250/1250 1249/1249/1249 1247/1247/1247
f 1251/1251/1251 1253/1253/1253 1252/1252/1252
f 1254/1254/1254 1253/1253/1253 1251/1251/1251
f 1255/1255/1255 1257/1257/1257 1256/1256/1256
f 1258/1258/1258 1257/1257/1257 1255/1255/1255
f 1259/1259/1259 1261/1261/1261 1260/1260/1260
f 1262/1262/1262 1261/1261/1261 1259/1259/1259
g Combined_Mesh_(root:_scene)_25
usemtl Combined_Mesh_(root:_scene)_25
usemap Combined_Mesh_(root:_scene)_25
f 1263/1263/1263 1265/1265/1265 1264/1264/1264
f 1266/1266/1266 1265/1265/1265 1263/1263/1263
f 1267/1267/1267 1269/1269/1269 1268/1268/1268
f 1270/1270/1270 1269/1269/1269 1267/1267/1267
f 1271/1271/1271 1273/1273/1273 1272/1272/1272
f 1274/1274/1274 1273/1273/1273 1271/1271/1271
f 1275/1275/1275 1277/1277/1277 1276/1276/1276
f 1278/1278/1278 1277/1277/1277 1275/1275/1275
f 1279/1279/1279 1281/1281/1281 1280/1280/1280
f 1282/1282/1282 1281/1281/1281 1279/1279/1279
f 1283/1283/1283 1281/1281/1281 1284/1284/1284
f 1285/1285/1285 1283/1283/1283 1284/1284/1284
f 1286/1286/1286 1287/1287/1287 1283/1283/1283
f 1288/1288/1288 1287/1287/1287 1286/1286/1286
f 1289/1289/1289 1291/1291/1291 1290/1290/1290
f 1292/1292/1292 1291/1291/1291 1289/1289/1289
f 1293/1293/1293 1295/1295/1295 1294/1294/1294
f 1296/1296/1296 1295/1295/1295 1293/1293/1293
f 1297/1297/1297 1299/1299/1299 1298/1298/1298
f 1300/1300/1300 1299/1299/1299 1297/1297/1297
f 1301/1301/1301 1303/1303/1303 1302/1302/1302
f 1304/1304/1304 1303/1303/1303 1301/1301/1301
f 1305/1305/1305 1307/1307/1307 1306/1306/1306
f 1308/1308/1308 1305/1305/1305 1306/1306/1306
f 1309/1309/1309 1311/1311/1311 1310/1310/1310
f 1312/1312/1312 1309/1309/1309 1310/1310/1310
f 1313/1313/1313 1315/1315/1315 1314/1314/1314
f 1316/1316/1316 1313/1313/1313 1314/1314/1314
f 1317/1317/1317 1319/1319/1319 1318/1318/1318
f 1317/1317/1317 1318/1318/1318 1320/1320/1320
g Combined_Mesh_(root:_scene)_26
usemtl Combined_Mesh_(root:_scene)_26
usemap Combined_Mesh_(root:_scene)_26
f 1321/1321/1321 1323/1323/1323 1322/1322/1322
f 1322/1322/1322 1323/1323/1323 1324/1324/1324
f 1325/1325/1325 1327/1327/1327 1326/1326/1326
f 1326/1326/1326 1327/1327/1327 1328/1328/1328
f 1329/1329/1329 1331/1331/1331 1330/1330/1330
f 1330/1330/1330 1331/1331/1331 1332/1332/1332
f 1333/1333/1333 1335/1335/1335 1334/1334/1334
f 1334/1334/1334 1335/1335/1335 1336/1336/1336
