#Combined_Mesh_(root:_scene).obj

v -62 -1 -29
v -62 -1 26
v -62 10 -29
v -62 10 26
v 13 -1 26
v -62 10 26
v -62 -1 26
v 13 10 26
v 13 -1 -29
v 13 10 26
v 13 -1 26
v 13 10 -29
v -62 -1 -29
v 13 10 -29
v 13 -1 -29
v -62 10 -29
v -17 -1 -29
v 13 -1 26
v -17 -1 26
v 13 -1 -29
v -32 -1 26
v -17 -1 -29
v -17 -1 26
v -32 -1 -29
v -62 -1 26
v -32 -1 -29
v -32 -1 26
v -62 -1 -29
v -42 4 -4
v -52 -1 1
v -52 -1 -4
v -42 4 1
v -7 4 1
v 3 -1 -4
v 3 -1 1
v -7 4 -4
v -33 5 -13
v -33 4 10
v -33 4 -13
v -33 5 10
v -32 5 -12
v -33 5 10
v -33 5 -13
v -32 5 9
v -16 5 10
v -33 4 10
v -33 5 10
v -16 4 10
v -16 5 -13
v -16 4 10
v -16 5 10
v -16 4 -13
v -33 5 -13
v -16 4 -13
v -16 5 -13
v -33 4 -13
v -17 5 -12
v -33 5 -13
v -16 5 -13
v -32 5 -12
v -17 5 9
v -16 5 10
v -32 5 9
v -16 5 10
v -33 5 10
v -17 5 9
v -1 1 -5
v 1 1 -4
v -1 1 -4
v 1 1 -5
v 1 0 -5
v 1 1 -4
v 1 1 -5
v 1 0 -4
v -1 2 -4
v -1 1 -5
v -1 1 -4
v -1 2 -5
v -3 2 -4
v -1 2 -5
v -1 2 -4
v -3 2 -5
v -3 3 -4
v -3 2 -5
v -3 2 -4
v -3 3 -5
v -5 3 -4
v -3 3 -5
v -3 3 -4
v -5 3 -5
v -5 4 -4
v -5 3 -5
v -5 3 -4
v -5 4 -5
v -7 4 -4
v -5 4 -5
v -5 4 -4
v -7 4 -5
v -7 5 -4
v -7 4 -5
v -7 4 -4
v -7 5 -5
v -42 4 -4
v -42 5 -5
v -42 5 -4
v -42 4 -5
v -44 4 -4
v -42 4 -5
v -42 4 -4
v -44 4 -5
v -44 3 -4
v -44 4 -5
v -44 4 -4
v -44 3 -5
v -46 3 -4
v -44 3 -5
v -44 3 -4
v -46 3 -5
v -46 2 -4
v -46 3 -5
v -46 3 -4
v -46 2 -5
v -48 2 -4
v -46 2 -5
v -46 2 -4
v -48 2 -5
v -48 1 -4
v -48 2 -5
v -48 2 -4
v -48 1 -5
v -50 1 -4
v -48 1 -5
v -48 1 -4
v -50 1 -5
v -50 0 -4
v -50 1 -5
v -50 1 -4
v -50 0 -5
v -50 0 -4
v -50 1 -4
v -48 1 -4
v -48 1 -4
v -48 2 -4
v -46 2 -4
v -46 2 -4
v -46 3 -4
v -44 3 -4
v -44 3 -4
v -44 4 -4
v -42 4 -4
v -40 4 -4
v -42 5 -4
v -40 5 -4
v -42 4 -4
v -9 4 -4
v -9 5 -19
v -9 5 -4
v -9 4 -19
v -40 4 -19
v -40 5 -4
v -40 5 -19
v -40 4 -4
v -1 1 -4
v -3 2 -4
v -1 2 -4
v -3 2 -4
v -5 3 -4
v -3 3 -4
v -5 3 -4
v -7 4 -4
v -5 4 -4
v -7 4 -4
v -9 5 -4
v -7 5 -4
v -9 4 -4
v -48.00001 1 1.999698
v -50.00001 1 0.9996889
v -48.00001 1 0.9996979
v -50.00001 1 1.999689
v -50 0 2
v -50.00001 1 0.9996889
v -50.00001 1 1.999689
v -50 0 1
v -48.00001 2 0.9996979
v -48.00001 1 1.999698
v -48.00001 1 0.9996979
v -48.00001 2 1.999698
v -46.00001 2 0.9997067
v -48.00001 2 1.999698
v -48.00001 2 0.9996979
v -46.00001 2 1.999707
v -46.00001 3 0.999707
v -46.00001 2 1.999707
v -46.00001 2 0.9997067
v -46.00001 3 1.999707
v -44 3 0.9997158
v -46.00001 3 1.999707
v -46.00001 3 0.999707
v -44.00001 3 1.999716
v -44.00001 4 0.9997158
v -44.00001 3 1.999716
v -44 3 0.9997158
v -44.00001 4 1.999716
v -42 4 0.9997249
v -44.00001 4 1.999716
v -44.00001 4 0.9997158
v -42.00001 4 1.999725
v -42.00001 5 0.9997246
v -42.00001 4 1.999725
v -42 4 0.9997249
v -42.00001 5 1.999725
v -7.000004 4 0.9998827
v -7.000011 5 1.999883
v -7.000004 5 0.9998827
v -7.000011 4 1.999883
v -5.000004 4 0.999892
v -7.000011 4 1.999883
v -7.000004 4 0.9998827
v -5.000011 4 1.999892
v -5.000004 3 0.9998918
v -5.000011 4 1.999892
v -5.000004 4 0.999892
v -5.000011 3 1.999892
v -3 3 0.9999008
v -5.000011 3 1.999892
v -5.000004 3 0.9998918
v -3.000008 3 1.999901
v -3 2 0.9999008
v -3.000008 3 1.999901
v -3 3 0.9999008
v -3.000008 2 1.999901
v -1 2 0.9999096
v -3.000008 2 1.999901
v -3 2 0.9999008
v -1.000008 2 1.99991
v -1 1 0.9999099
v -1.000008 2 1.99991
v -1 2 0.9999096
v -1.000008 1 1.99991
v 1 1 0.9999189
v -1.000008 1 1.99991
v -1 1 0.9999099
v 0.9999924 1 1.999919
v 1 0 1
v 0.9999924 1 1.999919
v 1 1 0.9999189
v 1 0 2
v -1 1 1
v -1 2 0.9999096
v -3 2 0.9999008
v -1 1 1
v -1 1 0.9999099
v -1 2 0.9999096
v -3 2 1
v -3 3 0.9999008
v -5.000004 3 0.9998918
v -3 2 1
v -3 2 0.9999008
v -3 3 0.9999008
v -5 3 1
v -5.000004 4 0.999892
v -7.000004 4 0.9998827
v -5 3 1
v -5.000004 3 0.9998918
v -5.000004 4 0.999892
v -9 4 0.9999158
v -7.000004 5 0.9998827
v -9.000004 5 0.9998734
v -7.000004 4 0.9998827
v -40 4 0.9998226
v -40.00007 5 15.99973
v -40.00001 5 0.9997339
v -40 4 16
v -40 4 16
v -9.000072 5 15.99987
v -40.00007 5 15.99973
v -9 4 16
v -9 4 16
v -9.000004 5 0.9998734
v -9.000072 5 15.99987
v -9 4 0.9999158
v -48.00001 1 0.9996979
v -46.00001 2 0.9997067
v -48.00001 2 0.9996979
v -48.00001 1 0.9996979
v -48 1 1
v -46.00001 2 0.9997067
v -46.00001 2 0.9997067
v -44 3 0.9997158
v -46.00001 3 0.999707
v -46.00001 2 0.9997067
v -46 2 1
v -44 3 0.9997158
v -44 3 0.9997158
v -42 4 0.9997249
v -44.00001 4 0.9997158
v -44 3 0.9997158
v -44 3 1
v -42 4 0.9997249
v -42 4 0.9997249
v -40.00001 5 0.9997339
v -42.00001 5 0.9997246
v -40 4 0.9998226
v -41.00001 -1 1.999729
v -41.00008 5 16.99973
v -41 -1 17
v -41.00001 5 1.999729
v -8.000011 5 1.999878
v -8 -1 17
v -8.000072 5 16.99988
v -8.000008 -1 1.999878
v -17 3 9
v -17 5 9
v -32 3 9
v -32 5 9
v -17 3 9
v -32 3 17
v -17 3 17
v -32 3 9
v -8 -1 -5
v -8 5 -20
v -8 -1 -20
v -8 5 -5
v -41 5 -5
v -41 -1 -20
v -41 5 -20
v -41 -1 -5
v -32 5 -12
v -17 5 -12
v -17 3 -12
v -32 3 -12
v -32 3 -12
v -17 3 -20
v -32 3 -20
v -17 3 -12
v -9 5 -19
v -9 4 -19
v -17 5 -19
v -32 5 -19
v -40 4 -19
v -40 5 -19
v -9 5 -4
v -7 5 -5
v -7 5 -4
v -8 5 -5
v -9 5 -19
v -8 5 -20
v -40 5 -19
v -41 5 -20
v -40 5 -4
v -41 5 -5
v -42 5 -4
v -42 5 -5
v -40.00001 5 0.9997339
v -42.00001 5 1.999725
v -42.00001 5 0.9997246
v -41.00001 5 1.999729
v -40.00007 5 15.99973
v -41.00008 5 16.99973
v -32 5 17
v -17 5 17
v -9.000072 5 15.99987
v -8.000072 5 16.99988
v -9.000004 5 0.9998734
v -8.000011 5 1.999878
v -7.000004 5 0.9998827
v -7.000011 5 1.999883
v -41 5 -20
v -41 -1 -20
v -32 3 -20
v -32 -1 -20
v -32 5 -20
v -17 5 -20
v -17 3 -20
v -8 -1 -20
v -8 5 -20
v -17 5 -20
v -17 -1 -20
v -8.000072 5 16.99988
v -8 -1 17
v -17 5 17
v -17 -1 17
v -32 3 17
v -32 5 17
v -17 3 17
v -17 5 17
v -41.00008 5 16.99973
v -32 -1 17
v -41 -1 17
v -32 5 17
v -32 -1 17
v -32 3 9
v -32 -1 9
v -32 3 17
v -32 5 9
v -32 5 -12
v -32 -1 -12
v -32 -1 9
v -32 -1 -20
v -32 3 -12
v -32 3 -20
v -32 -1 -12
v -17 5 -12
v -17 5 9
v -17 -1 -12
v -17 -1 9
v -17 -1 9
v -17 3 17
v -17 -1 17
v -17 3 9
v -17 3 -12
v -17 -1 -12
v -17 3 -20
v -17 -1 -20
v -7 4 -4
v -9 4 0.9999158
v -9 4 -4
v -7 4 1
v -42 4 1
v -40 4 -4
v -40 4 0.9998226
v -42 4 -4
v -33 4 10
v -16 4 10
v -40 4 16
v -9 4 16
v -40 4 -4
v -33 4 -13
v -40 4 -19
v -40 4 0.9998226
v -16 4 -13
v -9 4 0.9999158
v -9 4 -4
v -9 4 -19
v 3 -1 1
v 3 0 2
v 3 0 1
v 3 -1 2
v 1 1 0.9999189
v -1 1 0.9999099
v 1 0 1
v 3 0 1
v 1 0 1
v 3 -1 1
v 1 0 1
v 3 0 1
v 1 0 2
v 3 0 2
v -8 -1 2
v -1.000008 1 1.99991
v 0.9999924 1 1.999919
v 3 0 2
v 3 -1 2
v 1 0 2
v -8 -1 2
v -8.000008 -1 1.999878
v -1.000008 1 1.99991
v -1.000008 1 1.99991
v -8.000008 -1 1.999878
v -3.000008 2 1.999901
v -1.000008 2 1.99991
v -5.000011 3 1.999892
v -3.000008 3 1.999901
v -7.000011 4 1.999883
v -5.000011 4 1.999892
v -8.000011 5 1.999878
v -7.000011 5 1.999883
v 3 -1 -5
v 3 0 -4
v 3 0 -5
v 3 -1 -4
v 3 0 -4
v 1 0 -4
v 1 0 -5
v 3 0 -5
v -7 4 -5
v -8 5 -5
v -8 -1 -5
v -7 5 -5
v -5 3 -5
v -5 4 -5
v -3 2 -5
v -3 3 -5
v -1 1 -5
v -1 2 -5
v 1 1 -5
v 1 0 -5
v 3 -1 -5
v 3 0 -5
v 1 0 -4
v -1 1 -4
v 1 1 -4
v 3 -1 -4
v 1 0 -4
v 3 0 -4
v -52 -1 2
v -52 0 1
v -52 0 2
v -52 -1 1
v -52 0 2
v -52 0 1
v -50 0 2
v -50 0 1
v -50 0 1
v -48.00001 1 0.9996979
v -50.00001 1 0.9996889
v -52 -1 1
v -50 0 1
v -52 0 1
v -42.00001 4 1.999725
v -41.00001 5 1.999729
v -41.00001 -1 1.999729
v -42.00001 5 1.999725
v -44.00001 3 1.999716
v -44.00001 4 1.999716
v -46.00001 2 1.999707
v -46.00001 3 1.999707
v -48.00001 1 1.999698
v -48.00001 2 1.999698
v -50 0 2
v -50.00001 1 1.999689
v -52 -1 2
v -52 0 2
v -41 -1 2
v -50 0 2
v -52 -1 -4
v -52 0 -5
v -52 0 -4
v -52 -1 -5
v -50 0 -4
v -52 0 -4
v -50 0 -5
v -52 0 -5
v -50 0 -5
v -48 1 -5
v -50 1 -5
v -41 -1 -5
v -46 2 -5
v -48 2 -5
v -44 3 -5
v -46 3 -5
v -42 4 -5
v -44 4 -5
v -41 5 -5
v -42 5 -5
v -52 0 -5
v -52 -1 -5
v -52 0 -4
v -50 0 -4
v -52 -1 -4

vn 1 0 0
vn 1 0 0
vn 1 0 0
vn 1 0 0
vn 0 0 -1
vn 0 0 -1
vn 0 0 -1
vn 0 0 -1
vn -1 0 0
vn -1 0 0
vn -1 0 0
vn -1 0 0
vn 0 0 1
vn 0 0 1
vn 0 0 1
vn 0 0 1
vn 0 1 0
vn 0 1 0
vn 0 1 0
vn 0 1 0
vn 0 1 0
vn 0 1 0
vn 0 1 0
vn 0 1 0
vn 0 1 0
vn 0 1 0
vn 0 1 0
vn 0 1 0
vn -0.4472136 0.8944272 0
vn -0.4472136 0.8944272 0
vn -0.4472136 0.8944272 0
vn -0.4472136 0.8944272 0
vn 0.4472136 0.8944272 0
vn 0.4472136 0.8944272 0
vn 0.4472136 0.8944272 0
vn 0.4472136 0.8944272 0
vn -1 0 0
vn -1 0 0
vn -1 0 0
vn -1 0 0
vn 0 1 0
vn 0 1 0
vn 0 1 0
vn 0 1 0
vn 0 0 1
vn 0 0 1
vn 0 0 1
vn 0 0 1
vn 1 0 0
vn 1 0 0
vn 1 0 0
vn 1 0 0
vn 0 0 -1
vn 0 0 -1
vn 0 0 -1
vn 0 0 -1
vn 0 1 0
vn 0 1 0
vn 0 0.9999999 0
vn 0 1 0
vn 0 1 0
vn 0 1 0
vn 0 1 0
vn 0 1 0
vn 0 1 0
vn 0 1 0
vn 0 1 0
vn 0 1 0
vn 0 1 0
vn 0 1 0
vn 1 0 0
vn 1 0 0
vn 1 0 0
vn 1 0 0
vn 1 0 0
vn 1 0 0
vn 1 0 0
vn 1 0 0
vn 0 1 0
vn 0 1 0
vn 0 1 0
vn 0 1 0
vn 1 0 0
vn 1 0 0
vn 1 0 0
vn 1 0 0
vn 0 1 0
vn 0 1 0
vn 0 1 0
vn 0 1 0
vn 1 0 0
vn 1 0 0
vn 1 0 0
vn 1 0 0
vn 0 1 0
vn 0 1 0
vn 0 1 0
vn 0 1 0
vn 1 0 0
vn 1 0 0
vn 1 0 0
vn 1 0 0
vn -1 0 0
vn -1 0 0
vn -1 0 0
vn -1 0 0
vn 0 1 0
vn 0 1 0
vn 0 1 0
vn 0 1 0
vn -1 0 0
vn -1 0 0
vn -1 0 0
vn -1 0 0
vn 0 1 0
vn 0 1 0
vn 0 1 0
vn 0 1 0
vn -1 0 0
vn -1 0 0
vn -1 0 0
vn -1 0 0
vn 0 1 0
vn 0 1 0
vn 0 1 0
vn 0 1 0
vn -1 0 0
vn -1 0 0
vn -1 0 0
vn -1 0 0
vn 0 1 0
vn 0 1 0
vn 0 1 0
vn 0 1 0
vn -1 0 0
vn -1 0 0
vn -1 0 0
vn -1 0 0
vn 0 0 1
vn 0 0 1
vn 0 0 1
vn 0 0 1
vn 0 0 1
vn 0 0 1
vn 0 0 1
vn 0 0 1
vn 0 0 1
vn 0 0 1
vn 0 0 1
vn 0 0 1
vn 0 0 1
vn 0 0 1
vn 0 0 1
vn 0 0 1
vn -1 0 0
vn -1 0 0
vn -1 0 0
vn -1 0 0
vn 1 0 0
vn 1 0 0
vn 1 0 0
vn 1 0 0
vn 0 0 1
vn 0 0 1
vn 0 0 1
vn 0 0 1
vn 0 0 1
vn 0 0 1
vn 0 0 1
vn 0 0 1
vn 0 0 1
vn 0 0 1
vn 0 0 1
vn 0 0 1
vn 0 0 1
vn 0 1 0
vn 0 1 0
vn 0 1 0
vn 0 1 0
vn -1 -7.629395E-06 0
vn -1 -7.629395E-06 0
vn -1 -7.629395E-06 0
vn -1 -7.629395E-06 0
vn -1 0 0
vn -1 0 0
vn -1 0 0
vn -1 0 0
vn 0 1 0
vn 0 1 0
vn 0 1 0
vn 0 1 0
vn -1 0 0
vn -1 0 0
vn -1 0 0
vn -1 0 0
vn 0 1 0
vn 0 1 0
vn 0 1 0
vn 0 1 0
vn -1 -9.536743E-07 -2.861023E-06
vn -1 -9.536743E-07 -2.861023E-06
vn -1 -1.907349E-06 -3.814697E-06
vn -1 0 -1.907349E-06
vn 0 1 0
vn 0 1 0
vn 0 1 0
vn 0 1 0
vn -1 -9.536747E-07 -2.861022E-06
vn -1 -9.536747E-07 -2.861022E-06
vn -1 -1.90735E-06 -3.814697E-06
vn -1 0 -1.907348E-06
vn 1 0 7.629395E-06
vn 1 0 7.629395E-06
vn 1 0 7.629395E-06
vn 1 0 7.629395E-06
vn 0 1 0
vn 0 1 0
vn 0 1 0
vn 0 1 0
vn 1 -9.094948E-13 7.629395E-06
vn 1 -9.094948E-13 7.629395E-06
vn 1 -1.81899E-12 7.629396E-06
vn 1 0 7.629395E-06
vn 0 1 0
vn 0 1 0
vn 0 1 0
vn 0 1 0
vn 1 0 7.629395E-06
vn 1 0 7.629395E-06
vn 1 0 7.629395E-06
vn 1 0 7.629395E-06
vn 0 1 0
vn 0 1 0
vn 0 1 0
vn 0 1 0
vn 1 9.094946E-13 7.629394E-06
vn 1 9.094946E-13 7.629394E-06
vn 1 1.818989E-12 7.629393E-06
vn 1 0 7.629395E-06
vn 0 1 0
vn 0 1 0
vn 0 1 0
vn 0 1 0
vn 1 3.815006E-06 3.814697E-06
vn 1 3.815006E-06 3.814697E-06
vn 1 6.184564E-10 7.629395E-06
vn 1 7.629395E-06 0
vn 4.410744E-06 -9.036064E-05 -1
vn 4.410744E-06 -9.036064E-05 -1
vn 4.410744E-06 -9.036064E-05 -1
vn -0.9999999 0 0
vn -0.9999999 0 0
vn -0.9999999 0 0
vn 4.529944E-06 -9.918213E-05 -1
vn 4.529944E-06 -9.918213E-05 -1
vn 4.529944E-06 -9.918213E-05 -1
vn -1 0 0
vn -1 0 0
vn -1 0 0
vn 4.649162E-06 -0.0001080036 -1
vn 4.649162E-06 -0.0001080036 -1
vn 4.649162E-06 -0.0001080036 -1
vn -0.9993796 -8.397204E-09 0.03522043
vn -0.9993796 -8.397204E-09 0.03522043
vn -0.9993796 -8.397204E-09 0.03522043
vn -5.96047E-06 -2.121926E-05 -1
vn -5.96047E-06 -2.121926E-05 -1
vn 4.649162E-06 -4.243849E-05 -1
vn -1.657012E-05 0 -1
vn 1 3.719367E-05 2.098071E-06
vn 1 3.719367E-05 2.098071E-06
vn 1 3.815081E-06 4.323324E-06
vn 1 7.057188E-05 -1.271551E-07
vn 2.276513E-06 -0.0001964567 -1
vn 2.276513E-06 -0.0001964567 -1
vn 4.553026E-06 -0.0002670285 -1
vn 0 -0.000125885 -1
vn -1 -3.814717E-05 -2.288812E-06
vn -1 -3.814717E-05 -2.288812E-06
vn -1 -7.247982E-05 -4.577636E-06
vn -0.9999999 -3.814697E-06 0
vn 4.410744E-06 0 -1
vn 4.410744E-06 0 -1
vn 4.410744E-06 0 -1
vn 0.4471851 -0.8943701 -0.01129434
vn 0.4471851 -0.8943701 -0.01129434
vn 0.4471851 -0.8943701 -0.01129434
vn 4.410736E-06 2.384186E-07 -1
vn 4.410736E-06 2.384186E-07 -1
vn 4.410736E-06 2.384186E-07 -1
vn 0.4471827 -0.894367 -0.01163402
vn 0.4471827 -0.894367 -0.01163402
vn 0.4471827 -0.894367 -0.01163402
vn 4.529948E-06 8.640191E-12 -1
vn 4.529948E-06 8.640191E-12 -1
vn 4.529948E-06 8.640191E-12 -1
vn 0.4472055 -0.894411 -0.006002759
vn 0.4472055 -0.894411 -0.006002759
vn 0.4472055 -0.894411 -0.006002759
vn 2.676247E-05 -4.446499E-05 -1
vn 2.676247E-05 -4.446499E-05 -1
vn 4.649162E-06 -2.384097E-07 -1
vn 4.887576E-05 -8.869152E-05 -1
vn -1 -6.357875E-06 -2.034487E-06
vn -1 -6.357875E-06 -2.034487E-06
vn -1 -1.271563E-05 5.086171E-07
vn -1 0 -4.577637E-06
vn 1 6.357847E-06 1.780185E-06
vn 1 6.357847E-06 1.780185E-06
vn 1 1.207996E-05 4.069011E-06
vn 1 6.357829E-07 -5.086222E-07
vn 0 0 -1
vn 0 0 -1
vn 0 0 -1
vn 0 0 -1
vn 0 -1 0
vn 0 -1 0
vn 0 -1 0
vn 0 -1 0
vn 1 0 0
vn 1 0 0
vn 1 0 0
vn 1 0 0
vn -1 0 0
vn -1 0 0
vn -1 0 0
vn -1 0 0
vn 0 0 1
vn 0 0 1
vn 0 0 1
vn 0 0 1
vn 0 -1 0
vn 0 -1 0
vn 0 -1 0
vn 0 -1 0
vn 0 0 1
vn 0 0 1
vn 0 0 1
vn 0 0 1
vn 0 0 1
vn 0 0 1
vn 0 1 0
vn 0 1 0
vn 0 1 0
vn 0 1 0
vn 0 0.9999999 0
vn 0 1 0
vn 0 1 0
vn 0 1 0
vn 0 1 0
vn 0 1 0
vn 0 1 0
vn 0 1 0
vn 0 0.9999999 0
vn 0 1 0
vn 0 1 0
vn 0 1 0
vn 0 1 0
vn 0 1 0
vn 0 1 0
vn 0 0.9999999 0
vn 0 1 0
vn 0 1 0
vn 0 1 0
vn 0 1 0
vn 0 1 0
vn 0 1 0
vn 0 0 -1
vn 0 0 -1
vn 0 0 -1
vn 0 0 -1
vn 0 0 -1
vn 0 0 -1
vn 0 0 -1
vn 0 0 -1
vn 0 0 -1
vn 0 0 -1
vn 0 0 -1
vn 1.356348E-05 2.034522E-05 1
vn 6.781711E-06 1.017257E-05 1
vn 6.781711E-06 1.017257E-05 1
vn 0 0 1
vn 0 0 1
vn 0 0 1
vn 0 0 1
vn 6.781711E-06 1.017257E-05 1
vn -1.50468E-05 2.25702E-05 1
vn -1.50468E-05 2.25702E-05 1
vn 0 4.514058E-05 1
vn 0 0 1
vn 1 0 0
vn 1 0 0
vn 1 0 0
vn 1 0 0
vn 1 0 0
vn 1 0 0
vn 1 0 0
vn 1 0 0
vn 1 0 0
vn 1 0 0
vn 1 0 0
vn 1 0 0
vn -1 0 0
vn -1 0 0
vn -1 0 0
vn -1 0 0
vn -1 0 0
vn -1 0 0
vn -1 0 0
vn -1 0 0
vn -1 0 0
vn -1 0 0
vn -1 0 0
vn -1 0 0
vn 0 0.9999999 0
vn 0 0.9999999 0
vn 0 1 0
vn 0 1 0
vn 0 1 0
vn 0 1 0
vn 0 1 0
vn 0 1 0
vn 0 1 0
vn 0 1 0
vn 0 1 0
vn 0 1 0
vn 0 1 0
vn 0 1 0
vn 0 1 0
vn 0 1 0
vn 0 1 0
vn 0 1 0
vn 0 1 0
vn 0 1 0
vn 1 0 0
vn 1 0 0
vn 1 0 0
vn 1 0 0
vn 4.529953E-06 -8.106232E-05 -1
vn 4.529953E-06 -8.106232E-05 -1
vn 4.529953E-06 -8.106232E-05 -1
vn 0 0 -1
vn 0 0 -1
vn 0 0 -1
vn 0 1 0
vn 0 1 0
vn 0 1 0
vn 0 1 0
vn -3.814696E-06 3.743171E-05 1
vn -4.529953E-06 6.091593E-05 1
vn -7.62939E-06 7.486339E-05 1
vn 0 0 1
vn 0 0 1
vn -7.369296E-06 6.632366E-05 1
vn -0.2746804 0.961381 0.01723485
vn -0.2746804 0.961381 0.01723485
vn -0.2746804 0.961381 0.01723485
vn -4.529953E-06 6.091593E-05 1
vn -4.474933E-06 3.667623E-08 0.9999999
vn -4.511611E-06 3.66764E-08 1
vn -4.529953E-06 0 1
vn -4.511611E-06 3.667508E-08 1
vn -4.529944E-06 0 1
vn -4.434587E-06 2.383932E-08 1
vn -4.529953E-06 0 1
vn -4.291537E-06 -2.338702E-12 1
vn -4.291534E-06 0 1
vn 1 0 0
vn 1 0 0
vn 1 0 0
vn 1 0 0
vn 0 1 0
vn 0 1 0
vn 0 1 0
vn 0 1 0
vn 0 0 -1
vn 0 0 -1
vn 0 0 -1
vn 0 0 -1
vn 0 0 -1
vn 0 0 -1
vn 0 0 -1
vn 0 0 -1
vn 0 0 -1
vn 0 0 -1
vn 0 0 -1
vn 0 0 -1
vn 0 0 -1
vn 0 0 -1
vn 0 0 1
vn 0 0 1
vn 0 0 1
vn 0 0 1
vn 0 0 1
vn 0 0 1
vn -1 0 0
vn -1 0 0
vn -1 0 0
vn -1 0 0
vn 0 1 0
vn 0 1 0
vn 0 1 0
vn 0 1 0
vn 4.529953E-06 -0.0003111362 -1
vn 4.529953E-06 -0.0003111362 -1
vn 4.529953E-06 -0.0003111362 -1
vn 0 0 -1
vn 0 0 -1
vn 0 0 -1
vn -4.434586E-06 -2.384186E-08 1
vn -4.291534E-06 0 1
vn 7.97272E-06 4.355432E-05 1
vn -4.291534E-06 0 1
vn -4.511613E-06 -3.667978E-08 1
vn -4.529953E-06 0 1
vn -4.511613E-06 -3.667978E-08 1
vn -4.529953E-06 0 1
vn 1.945864E-05 0.0001077102 1
vn -4.529953E-06 0 1
vn 4.342891E-05 0.0002154573 0.9999999
vn -4.291534E-06 0.0003108978 1
vn 0 0 1
vn 0 0 1
vn 0 0 1
vn 4.342891E-05 0.0002154573 0.9999999
vn -1 0 0
vn -1 0 0
vn -1 0 0
vn -1 0 0
vn 0 1 0
vn 0 1 0
vn 0 1 0
vn 0 1 0
vn 0 0 -1
vn 0 0 -1
vn 0 0 -1
vn 0 0 -1
vn 0 0 -1
vn 0 0 -1
vn 0 0 -1
vn 0 0 -1
vn 0 0 -1
vn 0 0 -1
vn 0 0 -1
vn 0 0 -1
vn 0 0 -1
vn 0 0 -1
vn 0 0 1
vn 0 0 1
vn 0 0 1

vt 55 0
vt 0 0
vt 55 11
vt 0 11
vt 0 0
vt 75 11
vt 75 0
vt 0 11
vt 0 0
vt 55 11
vt 55 0
vt 0 11
vt 0 0
vt 75 11
vt 75 0
vt 0 11
vt 30 0
vt 0 55
vt 30 55
vt 0 0
vt 15 55
vt 0 0
vt 0 55
vt 15 0
vt 30 55
vt 0 0
vt 0 55
vt 30 0
vt 0 0
vt 11 5
vt 11 0
vt 0 5
vt 11 5
vt 3.814697E-06 0
vt 3.814697E-06 5
vt 11 0
vt 0 1
vt 23 0
vt 0 0
vt 23 1
vt 0 1
vt 1 23
vt 1 0
vt 0 22
vt 17 1
vt 0 0
vt 0 1
vt 17 0
vt 23 1
vt 0 0
vt 0 1
vt 23 0
vt 17 1
vt 0 0
vt 0 1
vt 17 0
vt 1 1
vt 17 0
vt 0 0
vt 16 1
vt 1 22
vt 0 23
vt 16 0
vt 0 1
vt 17 1
vt 1 0
vt 2 0
vt 0 1
vt 2 1
vt 0 0
vt 1 0
vt 0 1
vt 1 1
vt 0 0
vt 0 1
vt 1 0
vt 0 0
vt 1 1
vt 2 1
vt 0 0
vt 0 1
vt 2 0
vt 0 1
vt 1 0
vt 0 0
vt 1 1
vt 2 1
vt 0 0
vt 0 1
vt 2 0
vt 0 1
vt 1 0
vt 0 0
vt 1 1
vt 2 1
vt 0 0
vt 0 1
vt 2 0
vt 0 1
vt 1 0
vt 0 0
vt 1 1
vt 1 0
vt 0 1
vt 1 1
vt 0 0
vt 2 1
vt 0 0
vt 0 1
vt 2 0
vt 1 0
vt 0 1
vt 1 1
vt 0 0
vt 2 1
vt 0 0
vt 0 1
vt 2 0
vt 1 0
vt 0 1
vt 1 1
vt 0 0
vt 2 1
vt 0 0
vt 0 1
vt 2 0
vt 1 0
vt 0 1
vt 1 1
vt 0 0
vt 2 1
vt 0 0
vt 0 1
vt 2 0
vt 1 0
vt 0 1
vt 1 1
vt 0 0
vt 0 0
vt 0 1
vt 2 1
vt 0 0
vt 0 1
vt 2 1
vt 0 0
vt 0 1
vt 2 1
vt 0 0
vt 0 1
vt 2 1
vt 2 0
vt 0 1
vt 2 1
vt 0 0
vt 15 0
vt 0 1
vt 15 1
vt 0 0
vt 15 0
vt 0 1
vt 15 1
vt 0 0
vt 2 0
vt 0 1
vt 2 1
vt 2 0
vt 0 1
vt 2 1
vt 2 0
vt 0 1
vt 2 1
vt 2 0
vt 0 1
vt 2 1
vt 0 0
vt 0 1
vt 2 -2.384186E-07
vt 0 8.821487E-06
vt 2 1
vt 1 0
vt -2.384186E-07 1
vt 1 1
vt 0.0003108978 0
vt 2.384186E-07 1
vt 1 0
vt 2.384186E-07 0
vt 1 1
vt 0 8.583069E-06
vt 2 0.9995117
vt 2 -2.384186E-07
vt 0 1
vt 2.384186E-07 1
vt 1 0
vt 0 0
vt 1 1
vt 0 8.583069E-06
vt 2 0.9995117
vt 2 -2.384186E-07
vt 3.814697E-06 1
vt 0 1
vt 1 0
vt 0 0
vt 1 1
vt 0 8.821487E-06
vt 2 0.9995117
vt 2 -2.384186E-07
vt 3.814697E-06 1
vt -2.384186E-07 1
vt 1 0
vt 0 0
vt 1 1
vt 1 0
vt 0 1
vt 1 1
vt 0 0
vt 0 9.059906E-06
vt 2 0.9995117
vt 2 -2.384186E-07
vt 7.629395E-06 1
vt 1 0
vt 0 1
vt 0.9995117 1
vt 0 0
vt 0 9.298325E-06
vt 2 1
vt 2 2.384186E-07
vt 7.629395E-06 1
vt 1 0
vt 0 1
vt 1 1
vt 0 0
vt 0 8.583069E-06
vt 2 0.9995117
vt 2 -2.384186E-07
vt 7.629395E-06 1
vt 1 0
vt 0 1
vt 1 1
vt 0 0
vt 0 9.298325E-06
vt 2 1
vt 2 2.384186E-07
vt 7.629395E-06 1
vt 1 0
vt 8.106232E-05 1
vt 1 1
vt 0 0
vt 0 0
vt 0 1
vt 2 1
vt 0 0
vt 0 5.960464E-08
vt 0 1
vt 0 0
vt 0 1
vt 2 1
vt 0 0
vt 0 0
vt 0 1
vt -3.814697E-06 0
vt 0 1
vt 2 1
vt -3.814697E-06 0
vt 0 0
vt 0 1
vt 1.999023 0
vt 0 1
vt 2 1
vt 0 0
vt 15 0
vt 0.0002670288 1
vt 15 1
vt 0 0
vt 31 0
vt 7.629395E-05 1
vt 31 1
vt 3.814697E-06 0
vt 15 0
vt 0 1
vt 15 1
vt 4.243851E-05 0
vt 2 0
vt 0 1
vt 2 1
vt 2 0
vt 1.999023 0
vt 0 1
vt 2 0
vt 0 1
vt 2 1
vt 2 0
vt 1.999023 0
vt 0 1
vt 1.999023 0
vt -1.907349E-06 1
vt 2 1
vt 1.999023 0
vt 1.999023 0
vt -1.907349E-06 1
vt 2 0
vt 3.814697E-06 1
vt 2 1
vt 0 0
vt 4.768372E-07 0
vt 15 6
vt 15 0
vt 4.768372E-07 6
vt 15 6
vt 0 0
vt 0.0001220703 6
vt 15 0
vt 0 0
vt 0 2
vt 15 0
vt 15 2
vt 15 0
vt 0 8
vt 15 8
vt 0 0
vt 0 0
vt 15 6
vt 15 0
vt 0 6
vt 15 6
vt 0 0
vt 0 6
vt 15 0
vt 0 2
vt 15 2
vt 15 0
vt 0 0
vt 0 8
vt 15 0
vt 0 0
vt 15 8
vt 31 1
vt 31 0
vt 23 1
vt 8 1
vt 0 0
vt 0 1
vt 2 16
vt 0 15
vt 0 16
vt 1 15
vt 2 1
vt 1 0
vt 33 1
vt 34 0
vt 33 16
vt 34 15
vt 35 16
vt 35 15
vt 33 20.98438
vt 35 21.98438
vt 35 20.98438
vt 34 21.98438
vt 33 35.96875
vt 34 36.96875
vt 25 37
vt 10 37
vt 2 35.96875
vt 1 36.96875
vt 2 20.98438
vt 1 21.98438
vt 3.814697E-06 20.98438
vt 1.144409E-05 21.98438
vt 33 6
vt 33 0
vt 24 4
vt 24 0
vt 24 6
vt 9 6
vt 9 4
vt 0 0
vt 0 6
vt 9 6
vt 9 0
vt 33 6
vt 33 0
vt 24 6
vt 24 0
vt 9 3.998047
vt 9 6
vt 24 3.998047
vt 24 6
vt 0 6
vt 9 0
vt 7.629395E-05 0
vt 9 6
vt 0 0
vt 8 4
vt 8 0
vt 0 4
vt 8 6
vt 29 6
vt 29 0
vt 8 0
vt 37 0
vt 29 4
vt 37 4
vt 29 0
vt 8 6
vt 29 6
vt 8 0
vt 29 0
vt 29 0
vt 37 4
vt 37 0
vt 29 4
vt 8 4
vt 8 0
vt 0 4
vt 0 0
vt 0 0
vt 2 4.996094
vt 2 0
vt 0 5
vt 2 5
vt 0 0
vt 1.907349E-06 4.996094
vt 2 0
vt 24 29
vt 7 29
vt 31 35
vt 0 35
vt 31 15
vt 24 6
vt 31 0
vt 31 19.98438
vt 7 6
vt 0 19.98438
vt 0 15
vt 0 0
vt 1 0
vt 0 1
vt 1 1
vt 0 0
vt 0 1
vt 2 1
vt 0 0
vt 0 1
vt 2 1
vt 0 0
vt 2 0
vt 0 0
vt 2 1
vt 0 1
vt 1.525879E-05 0
vt 7 2
vt 9 2
vt 11 1
vt 11 0
vt 9 1
vt 1.525879E-05 0
vt 7.629395E-06 0
vt 7 2
vt 7 2
vt 7.629395E-06 0
vt 5 3
vt 7 3
vt 3 4
vt 5 4
vt 1 5
vt 3 5
vt 3.814697E-06 6
vt 1 6
vt 1 0
vt 0 1
vt 1 1
vt 0 0
vt 0 1
vt 2 1
vt 2 0
vt 0 0
vt 10 5
vt 11 6
vt 11 0
vt 10 6
vt 8 4
vt 8 5
vt 6 3
vt 6 4
vt 4 2
vt 4 3
vt 2 2
vt 2 1
vt 0 0
vt 0 1
vt 2 0
vt 0 1
vt 2 1
vt 2 0
vt 0 1
vt 2 1
vt 1 0
vt 0 1
vt 1 1
vt 0 0
vt 2 1
vt 2 0
vt 0 1
vt 0 0
vt 1.999023 0
vt 0 1
vt 2 1
vt 2 0
vt 0 1
vt 2 1
vt 9.992188 5
vt 10.99219 6
vt 10.99219 0
vt 9.992188 6
vt 7.996094 4
vt 7.996094 5
vt 5.996094 3
vt 5.996094 4
vt 3.998047 2
vt 3.998047 3
vt 2 1
vt 1.999023 2
vt 0 0
vt 0 1
vt 11 0
vt 2 1
vt 1 0
vt 0 1
vt 1 1
vt 0 0
vt 0 1
vt 2 1
vt 0 0
vt 2 0
vt 9 1
vt 7 2
vt 9 2
vt 0 0
vt 5 3
vt 7 3
vt 3 4
vt 5 4
vt 1 5
vt 3 5
vt 0 6
vt 1 6
vt 11 1
vt 11 0
vt 0 1
vt 2 1
vt 0 0

g Combined_Mesh_(root:_scene)
usemtl Combined_Mesh_(root:_scene)
usemap Combined_Mesh_(root:_scene)
f 1/1/1 3/3/3 2/2/2
f 2/2/2 3/3/3 4/4/4
f 5/5/5 7/7/7 6/6/6
f 5/5/5 6/6/6 8/8/8
f 9/9/9 11/11/11 10/10/10
f 9/9/9 10/10/10 12/12/12
f 13/13/13 15/15/15 14/14/14
f 13/13/13 14/14/14 16/16/16
g Combined_Mesh_(root:_scene)_1
usemtl Combined_Mesh_(root:_scene)_1
usemap Combined_Mesh_(root:_scene)_1
f 17/17/17 19/19/19 18/18/18
f 17/17/17 18/18/18 20/20/20
g Combined_Mesh_(root:_scene)_2
usemtl Combined_Mesh_(root:_scene)_2
usemap Combined_Mesh_(root:_scene)_2
f 21/21/21 23/23/23 22/22/22
f 21/21/21 22/22/22 24/24/24
g Combined_Mesh_(root:_scene)_3
usemtl Combined_Mesh_(root:_scene)_3
usemap Combined_Mesh_(root:_scene)_3
f 25/25/25 27/27/27 26/26/26
f 25/25/25 26/26/26 28/28/28
g Combined_Mesh_(root:_scene)_4
usemtl Combined_Mesh_(root:_scene)_4
usemap Combined_Mesh_(root:_scene)_4
f 29/29/29 31/31/31 30/30/30
f 29/29/29 30/30/30 32/32/32
f 33/33/33 35/35/35 34/34/34
f 33/33/33 34/34/34 36/36/36
f 37/37/37 39/39/39 38/38/38
f 37/37/37 38/38/38 40/40/40
f 41/41/41 43/43/43 42/42/42
f 41/41/41 42/42/42 44/44/44
f 45/45/45 47/47/47 46/46/46
f 45/45/45 46/46/46 48/48/48
f 49/49/49 51/51/51 50/50/50
f 49/49/49 50/50/50 52/52/52
f 53/53/53 55/55/55 54/54/54
f 53/53/53 54/54/54 56/56/56
f 57/57/57 59/59/59 58/58/58
f 57/57/57 58/58/58 60/60/60
f 61/61/61 62/62/62 59/59/59
f 61/61/61 59/59/59 57/57/57
f 63/63/63 65/65/65 64/64/64
f 63/63/63 64/64/64 66/66/66
f 67/67/67 69/69/69 68/68/68
f 67/67/67 68/68/68 70/70/70
f 71/71/71 73/73/73 72/72/72
f 71/71/71 72/72/72 74/74/74
f 75/75/75 77/77/77 76/76/76
f 75/75/75 76/76/76 78/78/78
f 79/79/79 81/81/81 80/80/80
f 79/79/79 80/80/80 82/82/82
f 83/83/83 85/85/85 84/84/84
f 83/83/83 84/84/84 86/86/86
f 87/87/87 89/89/89 88/88/88
f 87/87/87 88/88/88 90/90/90
f 91/91/91 93/93/93 92/92/92
f 91/91/91 92/92/92 94/94/94
f 95/95/95 97/97/97 96/96/96
f 95/95/95 96/96/96 98/98/98
f 99/99/99 101/101/101 100/100/100
f 99/99/99 100/100/100 102/102/102
f 103/103/103 105/105/105 104/104/104
f 103/103/103 104/104/104 106/106/106
f 107/107/107 109/109/109 108/108/108
f 107/107/107 108/108/108 110/110/110
f 111/111/111 113/113/113 112/112/112
f 111/111/111 112/112/112 114/114/114
f 115/115/115 117/117/117 116/116/116
f 115/115/115 116/116/116 118/118/118
f 119/119/119 121/121/121 120/120/120
f 119/119/119 120/120/120 122/122/122
f 123/123/123 125/125/125 124/124/124
f 123/123/123 124/124/124 126/126/126
f 127/127/127 129/129/129 128/128/128
f 127/127/127 128/128/128 130/130/130
f 131/131/131 133/133/133 132/132/132
f 131/131/131 132/132/132 134/134/134
f 135/135/135 137/137/137 136/136/136
f 135/135/135 136/136/136 138/138/138
f 139/139/139 141/141/141 140/140/140
f 142/142/142 144/144/144 143/143/143
f 145/145/145 147/147/147 146/146/146
f 148/148/148 150/150/150 149/149/149
f 151/151/151 153/153/153 152/152/152
f 151/151/151 152/152/152 154/154/154
f 155/155/155 157/157/157 156/156/156
f 155/155/155 156/156/156 158/158/158
f 159/159/159 161/161/161 160/160/160
f 159/159/159 160/160/160 162/162/162
f 163/163/163 165/165/165 164/164/164
f 166/166/166 168/168/168 167/167/167
f 169/169/169 171/171/171 170/170/170
f 172/172/172 174/174/174 173/173/173
f 172/172/172 173/173/173 175/175/175
f 176/176/176 178/178/178 177/177/177
f 176/176/176 177/177/177 179/179/179
f 180/180/180 182/182/182 181/181/181
f 180/180/180 181/181/181 183/183/183
f 184/184/184 186/186/186 185/185/185
f 184/184/184 185/185/185 187/187/187
f 188/188/188 190/190/190 189/189/189
f 188/188/188 189/189/189 191/191/191
f 192/192/192 194/194/194 193/193/193
f 192/192/192 193/193/193 195/195/195
f 196/196/196 198/198/198 197/197/197
f 196/196/196 197/197/197 199/199/199
f 200/200/200 202/202/202 201/201/201
f 200/200/200 201/201/201 203/203/203
f 204/204/204 206/206/206 205/205/205
f 204/204/204 205/205/205 207/207/207
f 208/208/208 210/210/210 209/209/209
f 208/208/208 209/209/209 211/211/211
f 212/212/212 214/214/214 213/213/213
f 212/212/212 213/213/213 215/215/215
f 216/216/216 218/218/218 217/217/217
f 216/216/216 217/217/217 219/219/219
f 220/220/220 222/222/222 221/221/221
f 220/220/220 221/221/221 223/223/223
f 224/224/224 226/226/226 225/225/225
f 224/224/224 225/225/225 227/227/227
f 228/228/228 230/230/230 229/229/229
f 228/228/228 229/229/229 231/231/231
f 232/232/232 234/234/234 233/233/233
f 232/232/232 233/233/233 235/235/235
f 236/236/236 238/238/238 237/237/237
f 236/236/236 237/237/237 239/239/239
f 240/240/240 242/242/242 241/241/241
f 240/240/240 241/241/241 243/243/243
f 244/244/244 246/246/246 245/245/245
f 244/244/244 245/245/245 247/247/247
f 248/248/248 250/250/250 249/249/249
f 251/251/251 253/253/253 252/252/252
f 254/254/254 256/256/256 255/255/255
f 257/257/257 259/259/259 258/258/258
f 260/260/260 262/262/262 261/261/261
f 263/263/263 265/265/265 264/264/264
f 266/266/266 268/268/268 267/267/267
f 266/266/266 267/267/267 269/269/269
f 270/270/270 272/272/272 271/271/271
f 270/270/270 271/271/271 273/273/273
f 274/274/274 276/276/276 275/275/275
f 274/274/274 275/275/275 277/277/277
f 278/278/278 280/280/280 279/279/279
f 278/278/278 279/279/279 281/281/281
f 282/282/282 284/284/284 283/283/283
f 285/285/285 287/287/287 286/286/286
f 288/288/288 290/290/290 289/289/289
f 291/291/291 293/293/293 292/292/292
f 294/294/294 296/296/296 295/295/295
f 297/297/297 299/299/299 298/298/298
f 300/300/300 302/302/302 301/301/301
f 300/300/300 301/301/301 303/303/303
f 304/304/304 306/306/306 305/305/305
f 304/304/304 305/305/305 307/307/307
f 308/308/308 310/310/310 309/309/309
f 308/308/308 309/309/309 311/311/311
f 312/312/312 314/314/314 313/313/313
f 313/313/313 314/314/314 315/315/315
f 316/316/316 318/318/318 317/317/317
f 316/316/316 317/317/317 319/319/319
f 320/320/320 322/322/322 321/321/321
f 320/320/320 321/321/321 323/323/323
f 324/324/324 326/326/326 325/325/325
f 324/324/324 325/325/325 327/327/327
f 328/328/328 330/330/330 329/329/329
f 331/331/331 330/330/330 328/328/328
f 332/332/332 334/334/334 333/333/333
f 332/332/332 333/333/333 335/335/335
f 336/336/336 338/338/338 337/337/337
f 338/338/338 339/339/339 337/337/337
f 337/337/337 339/339/339 340/340/340
f 340/340/340 339/339/339 341/341/341
f 342/342/342 344/344/344 343/343/343
f 342/342/342 343/343/343 345/345/345
f 346/346/346 342/342/342 345/345/345
f 346/346/346 345/345/345 347/347/347
f 347/347/347 349/349/349 348/348/348
f 347/347/347 348/348/348 346/346/346
f 350/350/350 348/348/348 349/349/349
f 350/350/350 349/349/349 351/351/351
f 352/352/352 350/350/350 351/351/351
f 352/352/352 351/351/351 353/353/353
f 354/354/354 356/356/356 355/355/355
f 354/354/354 355/355/355 357/357/357
f 358/358/358 354/354/354 357/357/357
f 358/358/358 357/357/357 359/359/359
f 359/359/359 360/360/360 358/358/358
f 360/360/360 361/361/361 358/358/358
f 358/358/358 361/361/361 362/362/362
f 362/362/362 361/361/361 363/363/363
f 364/364/364 362/362/362 363/363/363
f 364/364/364 363/363/363 365/365/365
f 366/366/366 364/364/364 365/365/365
f 366/366/366 365/365/365 367/367/367
f 368/368/368 370/370/370 369/369/369
f 369/369/369 370/370/370 371/371/371
f 372/372/372 370/370/370 368/368/368
f 370/370/370 372/372/372 373/373/373
f 370/370/370 373/373/373 374/374/374
f 375/375/375 377/377/377 376/376/376
f 378/378/378 377/377/377 375/375/375
f 379/379/379 381/381/381 380/380/380
f 380/380/380 381/381/381 382/382/382
f 383/383/383 385/385/385 384/384/384
f 385/385/385 386/386/386 384/384/384
f 387/387/387 389/389/389 388/388/388
f 388/388/388 390/390/390 387/387/387
f 391/391/391 393/393/393 392/392/392
f 391/391/391 392/392/392 394/394/394
f 395/395/395 397/397/397 396/396/396
f 398/398/398 397/397/397 395/395/395
f 399/399/399 401/401/401 400/400/400
f 399/399/399 400/400/400 402/402/402
f 403/403/403 405/405/405 404/404/404
f 404/404/404 405/405/405 406/406/406
f 407/407/407 409/409/409 408/408/408
f 407/407/407 408/408/408 410/410/410
f 411/411/411 413/413/413 412/412/412
f 412/412/412 413/413/413 414/414/414
f 415/415/415 417/417/417 416/416/416
f 415/415/415 416/416/416 418/418/418
f 419/419/419 421/421/421 420/420/420
f 419/419/419 420/420/420 422/422/422
f 423/423/423 425/425/425 424/424/424
f 424/424/424 425/425/425 426/426/426
f 423/423/423 428/428/428 427/427/427
f 428/428/428 429/429/429 427/427/427
f 427/427/427 430/430/430 423/423/423
f 430/430/430 425/425/425 423/423/423
f 431/431/431 424/424/424 432/432/432
f 424/424/424 426/426/426 432/432/432
f 432/432/432 433/433/433 431/431/431
f 431/431/431 433/433/433 434/434/434
f 431/431/431 429/429/429 428/428/428
f 434/434/434 429/429/429 431/431/431
f 435/435/435 437/437/437 436/436/436
f 435/435/435 436/436/436 438/438/438
f 439/439/439 441/441/441 440/440/440
f 442/442/442 444/444/444 443/443/443
f 445/445/445 447/447/447 446/446/446
f 446/446/446 447/447/447 448/448/448
f 449/449/449 451/451/451 450/450/450
f 452/452/452 449/449/449 453/453/453
f 452/452/452 454/454/454 449/449/449
f 449/449/449 454/454/454 451/451/451
f 455/455/455 457/457/457 456/456/456
f 458/458/458 460/460/460 459/459/459
f 461/461/461 460/460/460 458/458/458
f 460/460/460 462/462/462 459/459/459
f 462/462/462 460/460/460 463/463/463
f 462/462/462 464/464/464 459/459/459
f 465/465/465 464/464/464 462/462/462
f 466/466/466 464/464/464 467/467/467
f 459/459/459 464/464/464 466/466/466
f 468/468/468 470/470/470 469/469/469
f 468/468/468 469/469/469 471/471/471
f 472/472/472 474/474/474 473/473/473
f 475/475/475 474/474/474 472/472/472
f 476/476/476 478/478/478 477/477/477
f 476/476/476 477/477/477 479/479/479
f 476/476/476 481/481/481 480/480/480
f 476/476/476 480/480/480 478/478/478
f 482/482/482 480/480/480 483/483/483
f 480/480/480 482/482/482 478/478/478
f 482/482/482 485/485/485 484/484/484
f 482/482/482 484/484/484 478/478/478
f 486/486/486 478/478/478 484/484/484
f 487/487/487 478/478/478 486/486/486
f 488/488/488 478/478/478 489/489/489
f 478/478/478 487/487/487 489/489/489
f 490/490/490 492/492/492 491/491/491
f 493/493/493 495/495/495 494/494/494
f 496/496/496 498/498/498 497/497/497
f 496/496/496 497/497/497 499/499/499
f 500/500/500 502/502/502 501/501/501
f 501/501/501 502/502/502 503/503/503
f 504/504/504 506/506/506 505/505/505
f 507/507/507 509/509/509 508/508/508
f 510/510/510 512/512/512 511/511/511
f 510/510/510 511/511/511 513/513/513
f 510/510/510 515/515/515 514/514/514
f 510/510/510 514/514/514 512/512/512
f 516/516/516 514/514/514 517/517/517
f 514/514/514 516/516/516 512/512/512
f 516/516/516 519/519/519 518/518/518
f 516/516/516 518/518/518 512/512/512
f 518/518/518 520/520/520 512/512/512
f 521/521/521 520/520/520 518/518/518
f 522/522/522 524/524/524 523/523/523
f 523/523/523 524/524/524 525/525/525
f 526/526/526 528/528/528 527/527/527
f 526/526/526 527/527/527 529/529/529
f 530/530/530 532/532/532 531/531/531
f 531/531/531 532/532/532 533/533/533
f 534/534/534 536/536/536 535/535/535
f 534/534/534 535/535/535 537/537/537
f 535/535/535 538/538/538 537/537/537
f 539/539/539 538/538/538 535/535/535
f 538/538/538 540/540/540 537/537/537
f 540/540/540 538/538/538 541/541/541
f 540/540/540 542/542/542 537/537/537
f 543/543/543 542/542/542 540/540/540
f 544/544/544 542/542/542 545/545/545
f 537/537/537 542/542/542 544/544/544
f 546/546/546 537/537/537 547/547/547
f 546/546/546 534/534/534 537/537/537
f 548/548/548 550/550/550 549/549/549
