#Combined_Mesh_(root:_scene).obj

v -6 5 25
v -7 5 25
v -6 1 17
v -7 1 17
v -7 5 25
v -6 5 25
v -7 5 26
v -6 5 26
v -6 5 26
v -6 5 25
v -1 5 26
v -1 5 25
v -1 5 26
v -1 5 25
v 0 5 26
v 0 5 25
v 0 5 25
v -1 5 25
v 0 5 19
v -1 5 19
v 0 5 26
v 0 5 25
v 0 4 26
v 0 4 25
v -6 1 25
v -6 1 26
v -6 4 26
v -6 4 25
v -6 5 25
v -6 1 17
v -6 4 25
v -6 1 25
v -6 5 25
v -6 4 25
v -1 5 25
v -1 4 25
v -6 4 25
v -6 4 26
v -1 4 25
v -1 4 26
v -1 5 19
v -1 4 19
v 0 5 19
v 0 4 19
v -1 4 25
v -1 4 26
v 0 4 25
v 0 4 26
v -1 5 25
v -1 4 25
v -1 5 19
v -1 4 19
v -1 4 25
v 0 4 25
v -1 4 19
v 0 4 19
v 0 4 25
v 0 5 25
v 0 4 19
v 0 5 19
v 18 1 14
v -7 0 12
v 18 0 12
v -7 1 14
v 18 0 26
v 18 1 26
v 18 1 14
v 18 0 14
v 18 0 12
v -7 1 26
v -7 1 14
v 18 1 14
v 18 1 26
v 7 0 14
v 18 0 26
v 18 0 14
v 7 0 26
v 18 -3 14
v 7 -3 26
v 7 -3 14
v 18 -3 26
v 20 -2 14
v 18 -3 26
v 18 -3 14
v 20 -2 26
v 20 -1 12
v 18 -1 12
v 18 0 12
v 18 -1 12
v 18 0 14
v 18 0 12
v 18 -3 14
v 18 -1 14
v 20 -2 14
v 18 -3 14
v 20 -1 14
v 18 -1 12
v 20 -1 14
v 18 -1 14
v 20 -1 12
v 20 -2 14
v 20 -1 14
v 20 -1 12
v 20 -1 4
v 18 0 0
v 20 -1 0
v 18 0 4
v 20 -1 12
v 18 0 12
v -7 0 12
v -7 0 4
v -5 0 4
v 18 0 12
v 18 0 4
v 11 0 4
v 7 2 1
v 11 0 0
v 11 0 1
v 7 2 0
v 18 0 0
v 18 0 4
v 11 0 1
v 11 0 0
v 11 0 4
v 6 0 1
v -5 0 4
v 6 0 0
v -7 0 4
v -7 0 0
v 6 2 0
v 7 2 1
v 6 2 1
v 7 2 0
v 7 -3 14
v 7 0 26
v 7 0 14
v 7 -3 26
v 7 0 14
v 18 -3 14
v 7 -3 14
v 18 0 14
v 6 0 1
v 6 2 0
v 6 2 1
v 6 0 0
v 11 0 1
v 6 2 1
v 7 2 1
v 6 0 1
v 20 -1 12
v 33 -2 14
v 20 -2 14
v 51 -1 12
v 40 -2 14
v 51 -2 14
v 20 -2 26
v 20 -2 14
v 28 -2 18
v 33 -2 14
v 28 -2 26
v 32 -2 18
v 40 -2 14
v 37 -2 18
v 41 -2 18
v 51 -2 14
v 51 -2 26
v 41 -2 26
v 28 -2 26
v 28 -2 18
v 28 -1 26
v 28 -1 18
v 28 -1 18
v 28 -2 18
v 32 -2 18
v 32 -1 18
v 41 -2 18
v 41 -1 18
v 37 -2 18
v 37 -1 18
v 32 -1 20
v 32 -1 18
v 32 -2 18
v 37 -2 18
v 37 -1 18
v 37 -1 20
v 37 -2 18
v 32 -1 20
v 32 -2 18
v 37 -1 20
v 37 -1 22
v 32 -1 20
v 37 -1 20
v 32 -1 22
v 37 1 27
v 32 1 26
v 37 1 26
v 32 1 27
v 32 -1 20
v 28 -1 26
v 28 -1 18
v 32 -1 22
v 32 -1 18
v 41 -1 26
v 41 -2 18
v 41 -2 26
v 41 -1 18
v 41 -1 18
v 37 -1 22
v 37 -1 20
v 41 -1 26
v 37 -1 18
v 37 -1 22
v 37 -1 26
v 37 1 26
v 41 -1 26
v 37 -1 26
v 37 -1 22
v 32 -1 26
v 32 -1 22
v 32 1 26
v 32 -1 22
v 32 -1 26
v 28 -1 26
v 32 1 26
v 37 -1 22
v 37 1 26
v 32 -1 22
v 43 1 26
v 37 1 27
v 37 1 26
v 43 1 27
v 26 1 27
v 32 1 26
v 32 1 27
v 26 1 26
v 37 0 27
v 32 1 27
v 37 1 27
v 32 0 27
v 37 0 28
v 32 0 27
v 37 0 27
v 32 0 28
v 37 3 34
v 32 0 28
v 37 0 28
v 32 3 34
v 37 3 35
v 32 3 34
v 37 3 34
v 32 3 35
v 32 0 27
v 26 1 27
v 32 1 27
v 26 0 27
v 32 0 28
v 26 0 27
v 32 0 27
v 32 0 35
v 26 0 35
v 43 0 27
v 37 1 27
v 43 1 27
v 37 0 27
v 43 0 27
v 37 0 28
v 37 0 27
v 43 0 35
v 37 0 35
v 51 -1 0
v 51 -1 4
v 39 -1 4
v 39 -1 0
v 51 -1 12
v 20 -1 12
v 31 -1 4
v 20 -1 4
v 20 -1 0
v 31 -1 0
v 37 -1 0
v 37 -1 4
v 33 -1 4
v 33 -1 0
v 37 -1 4
v 39 1 0
v 39 -1 4
v 37 1 0
v 31 -1 4
v 33 1 0
v 33 -1 4
v 31 1 0
v 37 0 28
v 37 3 35
v 37 3 34
v 37 0 35
v 32 0 35
v 32 3 34
v 32 3 35
v 32 0 28
v 39 -1 4
v 39 1 0
v 39 -1 0
v 37 1 0
v 37 -1 4
v 37 -1 0
v 33 -1 4
v 33 1 0
v 33 -1 0
v 31 -1 0
v 31 1 0
v 31 -1 4
v 59 9 2
v 57 9 2
v 59 10 2
v 57 10 2
v 57 11 0
v 58 10 0
v 58 11 0
v 57 10 0
v 58 11 1
v 57 10 1
v 57 11 1
v 59 10 1
v 57 11 -2
v 58 11 -1
v 58 11 -2
v 57 11 -1
v 57 12 -2
v 57 11 -1
v 57 11 -2
v 57 12 -1
v 58 11 -1
v 57 12 -1
v 58 12 -1
v 57 11 -1
v 58 11 -1
v 59 12 -1
v 58 12 -1
v 59 11 -1
v 58 11 -2
v 59 11 -1
v 58 11 -1
v 59 11 -2
v 58 12 -1
v 58 11 -2
v 58 11 -1
v 58 12 -2
v 59 13 0
v 58 12 0
v 59 12 0
v 58 13 0
v 59 14 1
v 58 13 1
v 59 13 1
v 58 14 1
v 59 13 3
v 58 14 3
v 59 14 3
v 58 13 3
v 59 13 2
v 58 13 3
v 59 13 3
v 58 13 2
v 59 12 2
v 58 13 2
v 59 13 2
v 58 12 2
v 59 12 1
v 58 12 2
v 59 12 2
v 58 12 1
v 59 10 1
v 58 12 1
v 59 12 1
v 58 11 1
v 58 13 3
v 58 14 1
v 58 14 3
v 58 13 2
v 58 12 2
v 58 13 1
v 58 12 0
v 58 13 0
v 57 11 1
v 57 10 0
v 57 11 0
v 57 10 1
v 57 9 2
v 57 9 -2
v 57 10 2
v 57 10 -2
v 58 11 0
v 58 12 1
v 58 11 1
v 58 12 -1
v 58 10 0
v 58 10 -1
v 58 10 -2
v 58 11 -2
v 58 10 -1
v 58 11 -1
v 59 10 1
v 59 9 2
v 59 10 2
v 59 9 1
v 59 12 0
v 59 10 1
v 59 12 1
v 59 11 -1
v 59 9 -2
v 59 10 1
v 59 11 -1
v 59 9 1
v 59 9 -2
v 59 11 -1
v 59 11 -2
v 59 11 -1
v 59 12 0
v 59 12 -1
v 59 11 -1
v 59 12 0
v 59 9 -2
v 58 11 -2
v 58 10 -2
v 59 11 -2
v 57 10 -2
v 57 9 -2
v 57 11 -2
v 58 12 -2
v 57 12 -2
v 58 11 -2
v 59 12 2
v 59 13 0
v 59 12 0
v 59 13 2
v 59 14 1
v 59 13 3
v 59 14 3
v 59 13 1
v 57 11 0
v 58 11 1
v 57 11 1
v 58 11 0
v 57 10 1
v 59 10 2
v 57 10 2
v 59 10 1
v 57 10 -2
v 58 10 -2
v 58 10 -1
v 58 10 0
v 57 10 0
v 58 12 -2
v 57 12 -1
v 57 12 -2
v 58 12 -1
v 59 12 0
v 58 12 -1
v 59 12 -1
v 58 12 0
v 59 13 1
v 58 13 0
v 59 13 0
v 58 13 1
v 59 14 3
v 58 14 1
v 59 14 1
v 58 14 3
v 44 7 2
v 44 7 4
v 44 6 4
v 44 6 2
v 44 6 3
v 44 6 5
v 44 5 5
v 44 5 3
v 44 3 9
v 44 2 9
v 44 2 8
v 44 3 8
v 44 4 8
v 44 4 7
v 44 2 4
v 44 5 4
v 44 5 7
v 43 1 4
v 46 0 4
v 46 1 4
v 43 0 4
v 43 1 10
v 43 0 4
v 43 1 4
v 43 0 10
v 44 1 9
v 44 1 4
v 44 2 9
v 44 2 4
v 46 -1 3
v 46 -1 4
v 46 0 3
v 46 0 4
v 42 0 3
v 46 -1 3
v 46 0 3
v 42 -1 3
v 42 0 10
v 42 -1 3
v 42 0 3
v 42 -1 10
v 43 0 10
v 42 -1 10
v 42 0 10
v 43 -1 10
v 46 1 10
v 43 0 10
v 43 1 10
v 43 -1 10
v 46 -1 10
v 46 2 9
v 46 1 9
v 45 2 9
v 44 1 9
v 44 2 9
v 46 1 9
v 46 1 9
v 45 2 9
v 44 3 9
v 45 2 9
v 44 2 9
v 45 3 9
v 44 4 8
v 45 3 8
v 44 3 8
v 45 4 8
v 44 5 7
v 45 4 7
v 44 4 7
v 45 5 7
v 44 6 5
v 45 5 5
v 44 5 5
v 45 6 5
v 44 7 4
v 45 6 4
v 44 6 4
v 45 7 4
v 44 6 2
v 45 7 2
v 44 7 2
v 45 6 2
v 44 6 3
v 45 6 2
v 44 6 2
v 45 6 3
v 44 5 3
v 45 6 3
v 44 6 3
v 45 5 3
v 44 5 4
v 45 5 3
v 44 5 3
v 45 5 4
v 44 2 4
v 45 5 4
v 44 5 4
v 45 2 4
v 46 2 4
v 45 2 4
v 44 1 4
v 46 1 4
v 44 2 4
v 45 4 7
v 45 5 4
v 45 2 4
v 45 5 7
v 45 2 8
v 45 3 8
v 45 4 8
v 45 3 9
v 45 2 9
v 45 5 5
v 45 6 3
v 45 5 3
v 45 6 5
v 45 6 4
v 45 7 2
v 45 6 2
v 45 7 4
v 46 2 4
v 46 0 4
v 46 2 9
v 46 1 9
v 46 -1 4
v 46 -1 10
v 46 1 10
v 46 0 4
v 42 0 3
v 46 0 3
v 43 0 4
v 43 0 10
v 42 0 3
v 43 0 4
v 42 0 10
v 45 2 4
v 46 2 9
v 45 2 9
v 46 2 4
v 44 3 8
v 45 3 9
v 44 3 9
v 45 3 8
v 44 4 7
v 45 4 8
v 44 4 8
v 45 4 7
v 44 5 5
v 45 5 7
v 44 5 7
v 45 5 5
v 44 6 4
v 45 6 5
v 44 6 5
v 45 6 4
v 44 7 2
v 45 7 4
v 44 7 4
v 45 7 2
v 43 1 10
v 44 1 4
v 44 1 9
v 43 1 4
v 46 1 10
v 46 1 9
v 27 -1 8
v 24 -1 8
v 27 5 8
v 24 5 8
v 24 -1 8
v 24 -1 5
v 24 5 8
v 24 5 5
v 24 -1 5
v 27 -1 5
v 24 5 5
v 27 5 5
v 27 -1 5
v 27 -1 8
v 27 5 5
v 27 5 8
v 27 5 8
v 24 5 8
v 27 5 5
v 24 5 5
v 8 3 19
v 8 3 17
v 8 5 19
v 8 5 17
v 14 1 20
v 16 1 20
v 14 2 20
v 16 2 20
v 16 3 22
v 14 2 22
v 16 2 22
v 14 3 22
v 14 4 24
v 14 3 22
v 14 3 24
v 14 4 23
v 12 5 21
v 14 4 21
v 12 4 21
v 14 5 21
v 12 4 19
v 14 5 19
v 12 5 19
v 14 4 19
v 12 5 19
v 12 4 17
v 12 4 19
v 12 5 17
v 10 6 19
v 10 5 17
v 10 5 19
v 10 6 17
v 12 4 19
v 10 5 19
v 12 5 19
v 10 4 19
v 12 4 21
v 12 5 19
v 12 5 21
v 12 4 19
v 8 7 17
v 10 6 17
v 8 6 17
v 10 7 17
v 8 1 15
v 10 7 15
v 8 7 15
v 10 1 15
v 14 5 19
v 14 4 21
v 14 5 21
v 14 4 19
v 14 1 17
v 14 4 19
v 14 4 17
v 14 2 20
v 14 1 20
v 14 4 21
v 14 2 20
v 14 2 22
v 14 4 19
v 14 3 22
v 14 4 21
v 14 2 22
v 14 4 23
v 10 5 19
v 8 6 19
v 10 6 19
v 8 5 19
v 10 4 19
v 10 5 21
v 10 5 19
v 10 4 21
v 10 4 21
v 8 5 21
v 10 5 21
v 8 4 21
v 12 3 21
v 10 4 21
v 12 4 21
v 10 3 21
v 12 4 21
v 12 3 23
v 12 3 21
v 12 4 23
v 12 4 23
v 10 3 23
v 12 3 23
v 10 4 23
v 10 4 23
v 10 3 21
v 10 3 23
v 10 4 21
v 16 2 22
v 16 3 24
v 16 3 22
v 16 1 24
v 16 2 20
v 16 1 20
v 10 5 17
v 10 7 17
v 10 7 15
v 10 1 15
v 10 5 17
v 10 7 15
v 10 1 17
v 10 5 17
v 12 4 17
v 12 5 17
v 10 1 17
v 12 4 17
v 10 5 17
v 12 1 17
v 14 1 17
v 12 4 17
v 12 1 17
v 14 4 17
v 8 5 19
v 8 6 17
v 8 6 19
v 8 5 17
v 10 5 19
v 8 5 17
v 8 5 19
v 10 5 17
v 10 3 19
v 10 5 17
v 10 5 19
v 10 3 17
v 10 5 19
v 8 3 19
v 10 3 19
v 8 5 19
v 8 5 17
v 10 3 17
v 8 3 17
v 10 5 17
v 8 5 21
v 8 3 19
v 8 5 19
v 8 4 21
v 8 7 17
v 8 1 15
v 8 7 15
v 8 6 17
v 8 5 17
v 8 3 17
v 8 3 19
v 8 1 24
v 8 1 24
v 8 4 21
v 8 4 24
v 8 3 19
v 14 3 24
v 8 4 24
v 14 4 24
v 8 1 24
v 16 3 24
v 16 1 24
v 16 2 22
v 14 2 20
v 16 2 20
v 14 2 22
v 16 3 24
v 14 3 22
v 16 3 22
v 14 3 24
v 14 4 24
v 12 4 23
v 14 4 23
v 8 4 24
v 10 4 23
v 12 4 21
v 14 4 23
v 12 4 23
v 14 4 21
v 12 5 19
v 14 5 21
v 12 5 21
v 14 5 19
v 12 4 17
v 14 4 19
v 12 4 19
v 14 4 17
v 10 5 19
v 12 5 17
v 12 5 19
v 10 5 17
v 8 6 19
v 10 6 17
v 10 6 19
v 8 6 17
v 12 4 21
v 10 4 19
v 12 4 19
v 10 4 21
v 8 7 15
v 10 7 17
v 8 7 17
v 10 7 15
v 10 5 21
v 8 5 19
v 10 5 19
v 8 5 21
v 10 4 23
v 8 4 21
v 10 4 21
v 8 4 24
v 12 3 23
v 10 3 21
v 12 3 21
v 10 3 23
v 8 3 19
v 10 3 17
v 10 3 19
v 8 3 17
v 12.2 -0.0500021 20.2
v 11.8 -0.0500021 20.2
v 12.2 0.04999733 20.2
v 11.8 0.04999733 20.2
v 11.8 -0.0500021 20.2
v 11.8 -0.0500021 19.8
v 11.8 0.04999733 20.2
v 11.8 0.04999733 19.8
v 11.8 -0.0500021 19.8
v 12.2 -0.0500021 19.8
v 11.8 0.04999733 19.8
v 12.2 0.04999733 19.8
v 12.2 -0.0500021 19.8
v 12.2 -0.0500021 20.2
v 12.2 0.04999733 19.8
v 12.2 0.04999733 20.2
v 12.2 0.04999733 20.2
v 11.8 0.04999733 20.2
v 12.2 0.04999733 19.8
v 11.8 0.04999733 19.8
v 12.2 -0.0500021 19.8
v 11.8 -0.0500021 19.8
v 12.2 -0.0500021 20.2
v 11.8 -0.0500021 20.2
v 43 1 26
v 43 7 27
v 43 6 29
v 43 7 26
v 43 1 27
v 43 6 33
v 43 6 33
v 43 7 35
v 43 -0.5 35
v 43 1 27
v 43 -0.5 27
v 44 4 26
v 43 1 26
v 44 -5 26
v 43 7 26
v 44 7 26
v 43 6 33
v 44 7 35
v 43 7 35
v 44 6 33
v 43 6 29
v 44 6 33
v 43 6 33
v 44 6 29
v 43 7 27
v 44 6 29
v 43 6 29
v 44 7 27
v 43 7 26
v 44 7 27
v 43 7 27
v 44 7 26
v 39 0 35
v 30 4 35
v 30 0 35
v 39 4 35
v 39 4 36
v 30 4 35
v 39 4 35
v 30 4 36
v 39 7 36
v 39 4 35
v 39 7 35
v 39 4 36
v 30 4 36
v 30 7 35
v 30 4 35
v 30 7 36
v 39 4 36
v 30 7 36
v 30 4 36
v 39 7 36
v 26 7 35
v 30 4 35
v 30 7 35
v 30 0 35
v 26 0 35
v 39 4 35
v 43 7 35
v 39 7 35
v 39 0 35
v 43 0 35
v 30 7 35
v 25 7 37
v 26 7 35
v 30 7 36
v 43 7 35
v 39 7 36
v 39 7 35
v 44 7 37
v 44 7 35
v 39 7 36
v 25 7 37
v 30 7 36
v 44 7 37
v 43 3 32
v 42 3 32
v 43 4 32
v 42 4 32
v 42 3 32
v 42 3 31
v 42 4 32
v 42 4 31
v 42 3 31
v 43 3 31
v 42 4 31
v 43 4 31
v 43 3 31
v 42 3 31
v 43 3 32
v 42 3 32
v 26 3 31
v 27 3 31
v 26 4 31
v 27 4 31
v 27 3 31
v 27 3 32
v 27 4 31
v 27 4 32
v 27 3 32
v 26 3 32
v 27 4 32
v 26 4 32
v 26 3 32
v 27 3 32
v 26 3 31
v 27 3 31
v 28 3 35
v 28 3 34
v 28 4 35
v 28 4 34
v 28 3 34
v 29 3 34
v 28 4 34
v 29 4 34
v 29 3 34
v 29 3 35
v 29 4 34
v 29 4 35
v 29 3 35
v 29 3 34
v 28 3 35
v 28 3 34
v 40 3 35
v 40 3 34
v 40 4 35
v 40 4 34
v 40 3 34
v 41 3 34
v 40 4 34
v 41 4 34
v 41 3 34
v 41 3 35
v 41 4 34
v 41 4 35
v 41 3 35
v 41 3 34
v 40 3 35
v 40 3 34
v 43 4 32
v 42 4 32
v 43 4 31
v 42 4 31
v 26 4 31
v 27 4 31
v 26 4 32
v 27 4 32
v 28 4 35
v 28 4 34
v 29 4 35
v 29 4 34
v 40 4 35
v 40 4 34
v 41 4 35
v 41 4 34
v 32 -5 26
v 26 1 26
v 26 -5 26
v 32 1 26
v 37 1 26
v 44 -5 26
v 43 1 26
v 37 -5 26
v 22 7 0
v 24 7 0
v 24 4 0
v 24 -5 0
v 22 -5 0
v 15 -5 0
v 22 7 0
v 22 -5 0
v 13 2 0
v 0 -5 0
v 4 2 0
v 4 -5 0
v 0 4 0
v 13 2 0
v 15 -5 0
v 4 -5 0
v 4 2 0
v 24 7 0
v 24 4 -1
v 24 4 0
v 24 7 -1
v 22 7 0
v 24 7 -1
v 24 7 0
v 22 7 -1
v 13 2 0
v 22 7 -1
v 22 7 0
v 13 2 -1
v 0 4 -1
v 4 2 0
v 0 4 0
v 4 2 -1
v 13 2 -1
v 4 2 0
v 4 2 -1
v 13 2 0
v -8 4 9
v -8 -6 -2
v -8 4 -2
v -8 -6 9
v -8 5 11
v -8 -6 9
v -8 4 9
v -8 -6 11
v -8 9 27
v -8 -6 27
v -8 9 18
v -8 -6 18
v -8 5 18
v -8 -6 11
v -8 5 11
v -8 5 18
v -8 -6 18
v 46 -5 0
v 51 7 0
v 51 -5 0
v 46 4 0
v 44 -5 0
v 46 4 0
v 46 -5 0
v 44 4 0
v 39 -5 0
v 44 4 0
v 44 -5 0
v 39 1 0
v 31 -5 0
v 39 1 0
v 39 -5 0
v 31 1 0
v 26 -5 0
v 31 1 0
v 31 -5 0
v 26 4 0
v 26 4 0
v 26 -5 0
v 24 4 0
v 24 -5 0
v 46 4 -1
v 51 7 0
v 46 4 0
v 51 7 -1
v 44 4 0
v 46 4 -1
v 46 4 0
v 44 4 -1
v 39 1 0
v 44 4 -1
v 44 4 0
v 39 1 -1
v 31 1 0
v 39 1 -1
v 39 1 0
v 31 1 -1
v 26 4 0
v 31 1 -1
v 31 1 0
v 26 4 -1
v 24 4 0
v 26 4 -1
v 26 4 0
v 24 4 -1
v -7 -5 26
v 1 -5 26
v -7 9 26
v 1 5 26
v 1 9 26
v 1 5 26
v 1 -5 26
v 7 5 26
v 7 -5 26
v 11 7 26
v 7 5 26
v 7 -5 26
v 21 5 26
v 21 -5 26
v 21 7 26
v 1 9 26
v -8 9 27
v -7 9 26
v 1 9 27
v 1 5 26
v 1 9 27
v 1 9 26
v 1 5 27
v 7 5 26
v 1 5 27
v 1 5 26
v 7 5 27
v 11 7 26
v 7 5 27
v 7 5 26
v 11 7 27
v 21 7 26
v 11 7 27
v 11 7 26
v 21 7 27
v 21 5 26
v 21 7 27
v 21 7 26
v 21 5 27
v 0 4 17
v -1 4 17
v 0 5 17
v -1 5 17
v -1 4 17
v -1 4 16
v -1 5 17
v -1 5 16
v -1 4 16
v 0 4 16
v -1 5 16
v 0 5 16
v 0 4 16
v 0 4 17
v 0 5 16
v 0 5 17
v 0 4 16
v -1 4 16
v 0 4 17
v -1 4 17
v 0 5 17
v -1 5 17
v 0 5 16
v -1 5 16
v 25 7 37
v 25 -6 27
v 25 7 30
v 25 -6 37
v 44 -6 37
v 44 7 37
v 44 7 35
v 44 6 33
v 44 -6 27
v 44 6 29
v 44 7 27
v 44 4 27
v 44 -6 37
v 25 7 37
v 44 7 37
v 25 -6 37
v 51 5 24
v 50 5 24
v 51 6 24
v 50 6 24
v 50 5 24
v 50 5 23
v 50 6 24
v 50 6 23
v 50 5 23
v 51 5 23
v 50 6 23
v 51 6 23
v 51 5 23
v 50 5 23
v 51 5 24
v 50 5 24
v 51 6 24
v 50 6 24
v 51 6 23
v 50 6 23
v 21 -5 26
v 26 -5 26
v 21 5 26
v 26 1 26
v 26 5 26
v 25 5 26
v 21 5 27
v 21 5 26
v 25 5 27
v 26 5 26
v 25 7 30
v 25 5 26
v 26 7 30
v 26 7 35
v 25 7 30
v 26 7 30
v 25 7 37
v 26 7 35
v 26 7 30
v 26 0 27
v 26 0 35
v 26 1 27
v 26 7 30
v 26 5 26
v 26 1 27
v 26 1 26
v 1.5 4 10
v -2.5 4 10
v 1.5 5 10
v -2.5 5 10
v -2.5 4 10
v -2.5 4 5
v -2.5 5 10
v -2.5 5 5
v -2.5 4 5
v 1.5 4 5
v -2.5 5 5
v 1.5 5 5
v 1.5 4 5
v 1.5 4 10
v 1.5 5 5
v 1.5 5 10
v 1.5 4 5
v -2.5 4 5
v 1.5 4 10
v -2.5 4 10
v 1.5 5 10
v -2.5 5 10
v 1.5 5 5
v -2.5 5 5
v 14 9 -2
v 59 -6 -2
v 59 9 -2
v 14 -6 -2
v 4 -6 -2
v 14 -6 -2
v 4 6 -2
v 14 6 -2
v 0 4 -2
v 4 -6 -2
v 4 6 -2
v 0 -6 -2
v -8 4 -2
v 0 -6 -2
v 0 4 -2
v -8 -6 -2
v 25 -6 27
v 25 5 27
v 25 7 30
v 25 5 27
v 25 5 26
v 25 7 30
v 25 5 27
v 25 -6 27
v 21 5 27
v 25 -6 27
v 7 5 27
v 11 7 27
v -8 -6 27
v -8 9 27
v 1 9 27
v 1 5 27
v 7 5 27
v 25 -6 27
v 11 7 27
v 21 5 27
v 25 -6 27
v 11 7 27
v 21 7 27
v 21 5 27
v 51 -5 11
v 51 2 17
v 51 -5 17
v 51 2 11
v 51 -5 21
v 51 -5 17
v 51 5 21
v 51 2 17
v 51 5 17
v 51 4 11
v 51 2 11
v 51 4 5
v 51 -5 11
v 51 -5 5
v 51 7 0
v 51 7 5
v 51 4 5
v 51 -5 5
v 51 -5 0
v 52 4 11
v 51 2 11
v 51 4 11
v 52 2 11
v 51 7 5
v 52 4 5
v 51 4 5
v 52 7 5
v 52 2 5
v 52 4 11
v 52 4 5
v 52 2 11
v 51 5 17
v 52 5 21
v 51 5 21
v 52 5 18
v 51 4 5
v 52 4 11
v 51 4 11
v 52 4 5
v 51 7 -1
v 52 7 5
v 51 7 5
v 52 7 -1
v 52 2 5
v 58 2 5
v 52 2 11
v 58 2 11
v 58 2 17
v 51 2 17
v 52 2 11
v 58 2 11
v 51 2 11
v -7 -5 0
v 0 4 0
v 0 -5 0
v -7 4 0
v 14 -2 -1
v 4 0 -1
v 14 6 -1
v 4 6 -1
v 0 4 -1
v 4 6 -1
v 4 0 -1
v -7 4 0
v 0 4 -2
v 0 4 0
v -8 4 -2
v 0 4 -2
v 4 6 -1
v 0 4 -1
v 4 6 -2
v 14 6 -2
v 4 6 -1
v 4 6 -2
v 14 6 -1
v 14 9 -2
v 14 6 -1
v 14 6 -2
v 14 9 -1
v 43 -6 -2
v 44 -6 27
v 52 -6 27
v 59 -6 -2
v 52 -6 18
v 59 -6 18
v 59 -6 -2
v 52 -6 18
v 24 -6 -2
v 44 -6 27
v 43 -6 -2
v 25 -6 27
v 25 -6 37
v 44 -6 27
v 25 -6 27
v 44 -6 37
v -8 -6 -2
v 25 -6 27
v 24 -6 -2
v -8 -6 27
v 58 2 17
v 51 5 17
v 51 2 17
v 54 5 17
v 58 7 17
v 56 7 2
v 58 9 2
v 58 7 2
v 56 9 2
v 58 7 5
v 58 7 12
v 58 2 5
v 58 7 2
v 58 8 10
v 58 8 6
v 58 9 4
v 58 9 2
v 58 7 17
v 58 2 17
v 58 7 5
v 52 4 5
v 52 7 5
v 58 2 5
v 52 2 5
v 56 7 2
v 56 9 1
v 56 9 2
v 56 7 1
v 52 7 1
v 56 9 1
v 56 7 1
v 54 5 17
v 52 5 18
v 51 5 17
v 54 5 18
v 58 7 17
v 54 5 18
v 54 5 17
v 58 7 18
v 59 7 17
v 58 7 18
v 58 7 17
v 59 7 18
v 58 8 10
v 59 7 12
v 58 7 12
v 59 8 10
v 58 8 6
v 59 8 10
v 58 8 10
v 59 8 6
v 58 9 4
v 59 8 6
v 58 8 6
v 59 9 4
v 58 9 2
v 59 9 4
v 58 9 4
v 59 9 2
v 52 7 0
v 56 9 0
v 56 9 1
v 52 7 1
v 59 7 17
v 58 7 17
v 58 7 12
v 59 7 12
v 56 7 2
v 52 7 5
v 52 7 1
v 56 7 1
v 58 7 5
v 58 7 2
v 52 7 0
v 52 9 0
v 56 9 0
v 52 9 0
v 52 7 0
v 52 7 -1
v 52 9 -1
v 52 9 -1
v 52 7 -1
v 14 9 -1
v 52 0 -1
v 14 -2 -1
v 52 9 -2
v 14 9 -1
v 14 9 -2
v 52 9 -1
v 56 9 -2
v 52 9 -1
v 52 9 -2
v 56 9 0
v 56 9 0
v 52 9 0
v 52 9 -1
v 56 9 -2
v 59 9 2
v 56 9 0
v 59 9 -2
v 56 9 0
v 59 9 2
v 56 9 1
v 56 9 2
v 51 -1 12
v 50 -1 12
v 51 2 12
v 50 2 12
v 50 -1 11
v 50 -1 7
v 50 2 11
v 50 -1 11
v 50 2 11
v 50 -1 12
v 50 2 12
v 51 2 11
v 50 2 11
v 51 -1 7
v 50 -1 7
v 50 2 11
v 51 2 11
v 50 2 12
v 51 2 12
v 44 4 26
v 44 7 27
v 44 7 26
v 44 4 27
v 52 7 27
v 52 -6 27
v 48 7 27
v 48 -6 27
v 48 4 27
v 44 -6 27
v 44 4 27
v 48 4 27
v 48 -6 27
v 52 5 18
v 52 -6 18
v 52 5 21
v 52 -6 27
v 52 7 27
v 52 5 21
v 52 -6 18
v 52 7 21
v 54 5 18
v 52 -6 18
v 52 5 18
v 59 -6 18
v 58 7 18
v 59 -6 18
v 54 5 18
v 59 7 18
v 59 -6 18
v 58 7 18
v -7 9 26
v -7 9 18
v -7 5 18
v -7 5 18
v -7 -5 18
v -7 9 26
v -7 -5 26
v -8 9 18
v -7 5 18
v -7 9 18
v -8 5 18
v -7 9 26
v -8 9 18
v -7 9 18
v -8 9 27
v 51 4 22
v 50 4 22
v 51 5 22
v 50 5 22
v 50 4 22
v 50 4 21
v 50 5 22
v 50 5 21
v 50 4 21
v 51 4 21
v 50 5 21
v 51 5 21
v 51 4 21
v 50 4 21
v 51 4 22
v 50 4 22
v 51 5 22
v 50 5 22
v 51 5 21
v 50 5 21
v 44 4 26
v 44 -5 26
v 48 4 26
v 48 -5 26
v 48 4 26
v 51 7 26
v 48 7 26
v 48 -5 26
v 51 -5 26
v 51 7 26
v 51 5 21
v 51 7 21
v 51 -5 26
v 51 -5 21
v 48 4 26
v 44 4 27
v 44 4 26
v 48 4 27
v 48 7 26
v 48 4 27
v 48 4 26
v 48 7 27
v 51 7 26
v 48 7 27
v 48 7 26
v 52 7 27
v 51 7 21
v 52 7 27
v 51 7 26
v 52 7 21
v 51 5 21
v 52 7 21
v 51 7 21
v 52 5 21
v 59 7 12
v 59 -6 18
v 59 7 18
v 59 8 10
v 59 8 6
v 59 -6 -2
v 59 9 4
v 59 -6 -2
v 59 8 6
v 59 9 2
v 59 -6 -2
v 59 9 4
v 59 9 -2
v 59 -6 -2
v 59 9 2
v 0 4 14
v -1 4 14
v 0 5 14
v -1 5 14
v -1 4 14
v -1 4 13
v -1 5 14
v -1 5 13
v -1 4 13
v 0 4 13
v -1 5 13
v 0 5 13
v 0 4 13
v 0 4 14
v 0 5 13
v 0 5 14
v 0 4 13
v -1 4 13
v 0 4 14
v -1 4 14
v 0 5 14
v -1 5 14
v 0 5 13
v -1 5 13
v -7 -5 18
v -7 5 18
v -7 5 11
v -7 -5 9
v -7 4 9
v -7 -5 0
v -7 -5 9
v -7 4 9
v -7 4 0
v -8 5 18
v -7 5 11
v -7 5 18
v -8 5 11
v -8 5 11
v -7 4 9
v -7 5 11
v -8 4 9
v -8 4 -2
v -7 4 9
v -8 4 9
v -7 4 0

vn 0 0.8944272 -0.4472136
vn 0 0.8944272 -0.4472136
vn 0 0.8944272 -0.4472136
vn 0 0.8944272 -0.4472136
vn 0 1 0
vn 0 1 0
vn 0 1 0
vn 0 1 0
vn 0 1 0
vn 0 1 0
vn 0 1 0
vn 0 1 0
vn 0 1 0
vn 0 1 0
vn 0 1 0
vn 0 1 0
vn 0 1 0
vn 0 1 0
vn 0 1 0
vn 0 1 0
vn 1 0 0
vn 1 0 0
vn 1 0 0
vn 1 0 0
vn 1 0 0
vn 1 0 0
vn 1 0 0
vn 1 0 0
vn 1 0 0
vn 1 0 0
vn 1 0 0
vn 1 0 0
vn 0 0 -1
vn 0 0 -1
vn 0 0 -1
vn 0 0 -1
vn 0 -1 0
vn 0 -1 0
vn 0 -1 0
vn 0 -1 0
vn 0 0 -1
vn 0 0 -1
vn 0 0 -1
vn 0 0 -1
vn 0 -1 0
vn 0 -1 0
vn 0 -1 0
vn 0 -1 0
vn -1 0 0
vn -1 0 0
vn -1 0 0
vn -1 0 0
vn 0 -1 0
vn 0 -1 0
vn 0 -1 0
vn 0 -1 0
vn 1 0 0
vn 1 0 0
vn 1 0 0
vn 1 0 0
vn 0 0.8944272 -0.4472136
vn 0 0.8944272 -0.4472136
vn 0 0.8944272 -0.4472136
vn 0 0.8944272 -0.4472136
vn 1 0 0
vn 1 0 0
vn 1 0 0
vn 1 0 0
vn 1 0 0
vn 0 1 0
vn 0 1 0
vn 0 1 0
vn 0 1 0
vn 0 -1 0
vn 0 -1 0
vn 0 -1 0
vn 0 -1 0
vn 0 1 0
vn 0 1 0
vn 0 1 0
vn 0 1 0
vn -0.4472136 0.8944272 0
vn -0.4472136 0.8944272 0
vn -0.4472136 0.8944272 0
vn -0.4472136 0.8944272 0
vn 0 0 1
vn 0 0 1
vn 0 0 1
vn 1 0 0
vn 1 0 0
vn 1 0 0
vn 1 0 0
vn 0 0 1
vn 0 0 1
vn 0 0 1
vn 0 0 1
vn 0 1 0
vn 0 1 0
vn 0 1 0
vn 0 1 0
vn 1 0 0
vn 1 0 0
vn 1 0 0
vn 0.4472136 0.8944272 0
vn 0.4472136 0.8944272 0
vn 0.4472136 0.8944272 0
vn 0.4472136 0.8944272 0
vn 0.4472136 0.8944272 0
vn 0.4472136 0.8944272 0
vn 0 1 0
vn 0 1 0
vn 0 1 0
vn 0 1 0
vn 0 1 0
vn 0 1 0
vn 0.4472136 0.8944272 0
vn 0.4472136 0.8944272 0
vn 0.4472136 0.8944272 0
vn 0.4472136 0.8944272 0
vn 0 1 0
vn 0 1 0
vn 0 1 0
vn 0 1 0
vn 0 1 0
vn 0 1 0
vn 0 1 0
vn 0 1 0
vn 0 1 0
vn 0 1 0
vn 0 1 0
vn 0 1 0
vn 0 1 0
vn 0 1 0
vn 1 0 0
vn 1 0 0
vn 1 0 0
vn 1 0 0
vn 0 0 1
vn 0 0 1
vn 0 0 1
vn 0 0 1
vn -1 0 0
vn -1 0 0
vn -1 0 0
vn -1 0 0
vn 0 0 1
vn 0 0 1
vn 0 0 1
vn 0 0 1
vn 0 0.8944272 0.4472136
vn 0 0.8944272 0.4472136
vn 0 0.8944272 0.4472136
vn 0 0.8944272 0.4472136
vn 0 0.8944272 0.4472136
vn 0 0.8944272 0.4472136
vn 0 1 0
vn 0 1 0
vn 0 1 0
vn 0 1 0
vn 0 1 0
vn 0 1 0
vn 0 1 0
vn 0 1 0
vn 0 1 0
vn 0 0.9999999 0
vn 0 1 0
vn 0 1 0
vn -1 0 0
vn -1 0 0
vn -1 0 0
vn -1 0 0
vn 0 0 -1
vn 0 0 -1
vn 0 0 -1
vn 0 0 -1
vn 0 0 -1
vn 0 0 -1
vn 0 0 -1
vn 0 0 -1
vn 1 0 0
vn 1 0 0
vn 1 0 0
vn -1 0 0
vn -1 0 0
vn -1 0 0
vn 0 0.8944272 -0.4472136
vn 0 0.8944272 -0.4472136
vn 0 0.8944272 -0.4472136
vn 0 0.8944272 -0.4472136
vn 0 1 0
vn 0 1 0
vn 0 1 0
vn 0 1 0
vn 0 1 0
vn 0 1 0
vn 0 1 0
vn 0 1 0
vn 0 1 0
vn 0 1 0
vn 0 1 0
vn 0 1 0
vn 0 1 0
vn 1 0 0
vn 1 0 0
vn 1 0 0
vn 1 0 0
vn 0 1 0
vn 0 1 0
vn 0 1 0
vn 0 1 0
vn 0 1 0
vn 1 0 0
vn 1 0 0
vn 1 0 0
vn 0 1 0
vn 0 1 0
vn 0 1 0
vn -1 0 0
vn -1 0 0
vn -1 0 0
vn 0 1 0
vn 0 1 0
vn 0 1 0
vn 0 0.8944272 -0.4472136
vn 0 0.8944272 -0.4472136
vn 0 0.8944272 -0.4472136
vn 0 0.8944272 -0.4472136
vn 0 1 0
vn 0 1 0
vn 0 1 0
vn 0 1 0
vn 0 1 0
vn 0 1 0
vn 0 1 0
vn 0 1 0
vn 0 0 1
vn 0 0 1
vn 0 0 1
vn 0 0 1
vn 0 1 0
vn 0 1 0
vn 0 1 0
vn 0 1 0
vn 0 0.8944272 -0.4472136
vn 0 0.8944272 -0.4472136
vn 0 0.8944272 -0.4472136
vn 0 0.8944272 -0.4472136
vn 0 1 0
vn 0 1 0
vn 0 1 0
vn 0 1 0
vn 0 0 1
vn 0 0 1
vn 0 0 1
vn 0 0 1
vn 0 1 0
vn 0 1 0
vn 0 1 0
vn 0 1 0
vn 0 1 0
vn 0 0 1
vn 0 0 1
vn 0 0 1
vn 0 0 1
vn 0 1 0
vn 0 1 0
vn 0 1 0
vn 0 1 0
vn 0 1 0
vn 0 1 0
vn 0 1 0
vn 0 1 0
vn 0 1 0
vn 0 1 0
vn 0 1 0
vn 0 1 0
vn 0 1 0
vn 0 1 0
vn 0 1 0
vn 0 1 0
vn 0 1 0
vn 0 1 0
vn 0 1 0
vn 0 0.8944272 0.4472136
vn 0 0.8944272 0.4472136
vn 0 0.8944272 0.4472136
vn 0 0.8944272 0.4472136
vn 0 0.8944272 0.4472136
vn 0 0.8944272 0.4472136
vn 0 0.8944272 0.4472136
vn 0 0.8944272 0.4472136
vn 1 0 0
vn 1 0 0
vn 1 0 0
vn 1 0 0
vn -1 0 0
vn -1 0 0
vn -1 0 0
vn -1 0 0
vn 1 0 0
vn 1 0 0
vn 1 0 0
vn -1 0 0
vn -1 0 0
vn -1 0 0
vn 1 0 0
vn 1 0 0
vn 1 0 0
vn -1 0 0
vn -1 0 0
vn -1 0 0
vn 0 0 1
vn 0 0 1
vn 0 0 1
vn 0 0 1
vn 0 0 -1
vn 0 0 -1
vn 0 0 -1
vn 0 0 -1
vn 0 0 1
vn 0 0 1
vn 0 0 1
vn 0 0 1
vn 0 -1 0
vn 0 -1 0
vn 0 -1 0
vn 0 -1 0
vn -1 0 0
vn -1 0 0
vn -1 0 0
vn -1 0 0
vn 0 0 1
vn 0 0 1
vn 0 0 1
vn 0 0 1
vn 0 0 -1
vn 0 0 -1
vn 0 0 -1
vn 0 0 -1
vn 0 1 0
vn 0 1 0
vn 0 1 0
vn 0 1 0
vn 1 0 0
vn 1 0 0
vn 1 0 0
vn 1 0 0
vn 0 0 -1
vn 0 0 -1
vn 0 0 -1
vn 0 0 -1
vn 0 0 -1
vn 0 0 -1
vn 0 0 -1
vn 0 0 -1
vn 0 0 1
vn 0 0 1
vn 0 0 1
vn 0 0 1
vn 0 -1 0
vn 0 -1 0
vn 0 -1 0
vn 0 -1 0
vn 0 0 1
vn 0 0 1
vn 0 0 1
vn 0 0 1
vn 0 -1 0
vn 0 -1 0
vn 0 -1 0
vn 0 -1 0
vn 0 0 1
vn 0 0 1
vn 0 0 1
vn 0 0 1
vn -1 0 0
vn -1 0 0
vn -1 0 0
vn -1 0 0
vn -1 0 0
vn -1 0 0
vn -1 0 0
vn -1 0 0
vn -1 0 0
vn -1 0 0
vn -1 0 0
vn -1 0 0
vn -1 0 0
vn -1 0 0
vn -1 0 0
vn -1 0 0
vn -1 0 0
vn -1 0 0
vn -1 0 0
vn -1 0 0
vn -1 0 0
vn -1 0 0
vn -1 0 0
vn -1 0 0
vn -1 0 0
vn -1 0 0
vn 1 0 0
vn 1 0 0
vn 1 0 0
vn 1 0 0
vn 1 0 0
vn 1 0 0
vn 1 0 0
vn 1 0 0
vn 1 0 0
vn 1 0 0
vn 1 0 0
vn 1 0 0
vn 1 0 0
vn 1 0 0
vn 1 0 0
vn 1 0 0
vn 1 0 0
vn 1 0 0
vn 0 0 0
vn 0 0 0
vn 0 0 -1
vn 0 0 -1
vn 0 0 -1
vn 0 0 -1
vn 0 0 -1
vn 0 0 -1
vn 0 0 -1
vn 0 0 -1
vn 0 0 -1
vn 0 0 -1
vn 1 0 0
vn 1 0 0
vn 1 0 0
vn 1 0 0
vn 1 0 0
vn 1 0 0
vn 1 0 0
vn 1 0 0
vn 0 1 0
vn 0 1 0
vn 0 1 0
vn 0 1 0
vn 0 1 0
vn 0 1 0
vn 0 1 0
vn 0 1 0
vn 0 1 0
vn 0 1 0
vn 0 1 0
vn 0 1 0
vn 0 1 0
vn 0 1 0
vn 0 1 0
vn 0 1 0
vn 0 1 0
vn 0 1 0
vn 0 1 0
vn 0 1 0
vn 0 1 0
vn 0 1 0
vn 0 1 0
vn 0 1 0
vn 0 1 0
vn 0 1 0
vn 0 1 0
vn 0 1 0
vn 0 1 0
vn -1 0 -8.742278E-08
vn -1 0 -8.742278E-08
vn -1 0 -8.742278E-08
vn -1 0 -8.742278E-08
vn -1 0 -8.742278E-08
vn -1 0 -8.742278E-08
vn -1 0 -8.742278E-08
vn -1 0 -8.742278E-08
vn -1 0 -8.742278E-08
vn -1 0 -8.742278E-08
vn -1 0 -8.742278E-08
vn -1 0 -8.742278E-08
vn -1 0 -8.742278E-08
vn -1 0 -8.742278E-08
vn -1 0 -8.742278E-08
vn -1 0 -8.742278E-08
vn -1 0 -8.742278E-08
vn 8.742278E-08 0 -1
vn 8.742278E-08 0 -1
vn 8.742278E-08 0 -1
vn 8.742278E-08 0 -1
vn -1 0 -8.742278E-08
vn -1 0 -8.742278E-08
vn -1 0 -8.742278E-08
vn -1 0 -8.742278E-08
vn -1 0 -8.742278E-08
vn -1 0 -8.742278E-08
vn -1 0 -8.742278E-08
vn -1 0 -8.742278E-08
vn 1 0 8.742278E-08
vn 1 0 8.742278E-08
vn 1 0 8.742278E-08
vn 1 0 8.742278E-08
vn 8.742278E-08 0 -1
vn 8.742278E-08 0 -1
vn 8.742278E-08 0 -1
vn 8.742278E-08 0 -1
vn -1 0 -8.742278E-08
vn -1 0 -8.742278E-08
vn -1 0 -8.742278E-08
vn -1 0 -8.742278E-08
vn -8.742278E-08 0 1
vn -8.742278E-08 0 1
vn -8.742278E-08 0 1
vn -8.742278E-08 0 1
vn -8.742278E-08 0 1
vn -8.742278E-08 0 1
vn -8.742278E-08 0 1
vn -8.742278E-08 0 1
vn -8.742278E-08 0 1
vn -8.742278E-08 0 1
vn -8.742278E-08 0 1
vn -8.742278E-08 0 1
vn -8.742278E-08 0 1
vn -8.742278E-08 0 1
vn 8.742278E-08 0 -1
vn 8.742278E-08 0 -1
vn 8.742278E-08 0 -1
vn -8.742278E-08 0 1
vn -8.742278E-08 0 1
vn -8.742278E-08 0 1
vn -8.742278E-08 0 1
vn -8.742278E-08 0 1
vn -8.742278E-08 0 1
vn -8.742278E-08 0 1
vn -8.742278E-08 0 1
vn -8.742278E-08 0 1
vn -8.742278E-08 0 1
vn -8.742278E-08 0 1
vn -8.742278E-08 0 1
vn -8.742278E-08 0 1
vn -8.742278E-08 0 1
vn -8.742278E-08 0 1
vn -8.742278E-08 0 1
vn -8.742278E-08 0 1
vn -8.742278E-08 0 1
vn -8.742278E-08 0 1
vn -8.742278E-08 0 1
vn 8.742278E-08 0 -1
vn 8.742278E-08 0 -1
vn 8.742278E-08 0 -1
vn 8.742278E-08 0 -1
vn 0 -1 0
vn 0 -1 0
vn 0 -1 0
vn 0 -1 0
vn 8.742278E-08 0 -1
vn 8.742278E-08 0 -1
vn 8.742278E-08 0 -1
vn 8.742278E-08 0 -1
vn 0 -1 0
vn 0 -1 0
vn 0 -1 0
vn 0 -1 0
vn 8.742278E-08 0 -1
vn 8.742278E-08 0 -1
vn 8.742278E-08 0 -1
vn 8.742278E-08 0 -1
vn 8.742278E-08 0 -1
vn 8.742278E-08 0 -1
vn 8.742278E-08 0 -1
vn 8.742278E-08 0 -1
vn 8.742278E-08 0 -1
vn 1 0 8.742278E-08
vn 1 0 8.742278E-08
vn 1 0 8.742278E-08
vn 1 0 8.742278E-08
vn 1 0 8.742278E-08
vn 1 0 8.742278E-08
vn 1 0 8.742278E-08
vn 1 0 8.742278E-08
vn 1 0 8.742278E-08
vn 1 0 8.742278E-08
vn 1 0 8.742278E-08
vn 1 0 8.742278E-08
vn 1 0 8.742278E-08
vn 1 0 8.742278E-08
vn 1 0 8.742278E-08
vn 1 0 8.742278E-08
vn 1 0 8.742278E-08
vn 1 0 8.742278E-08
vn 1 0 8.742278E-08
vn 1 0 8.742278E-08
vn 1 0 8.742278E-08
vn 1 0 8.742278E-08
vn 1 0 8.742278E-08
vn 1 0 8.742278E-08
vn 0 1 0
vn 0 1 0
vn 0 1 0
vn 0 1 0
vn 0 1 0
vn 0 1 0
vn 0 1 0
vn 0 1 0
vn 0 1 0
vn 0 1 0
vn 0 1 0
vn 0 1 0
vn 0 1 0
vn 0 1 0
vn 0 1 0
vn 0 1 0
vn 0 1 0
vn 0 1 0
vn 0 1 0
vn 0 1 0
vn 0 1 0
vn 0 1 0
vn 0 1 0
vn 0 1 0
vn 0 1 0
vn 0 1 0
vn 0 1 0
vn 0 1 0
vn 0 1 0
vn 0 1 0
vn 0 1 0
vn 0 1 0
vn 0 1 0
vn 0 1 0
vn 0 1 0
vn 0 1 0
vn 0 1 0
vn 0 1 0
vn 0 0 1
vn 0 0 1
vn 0 0 1
vn 0 0 1
vn -1 0 0
vn -1 0 0
vn -1 0 0
vn -1 0 0
vn 0 0 -1
vn 0 0 -1
vn 0 0 -1
vn 0 0 -1
vn 1 0 0
vn 1 0 0
vn 1 0 0
vn 1 0 0
vn 0 1 0
vn 0 1 0
vn 0 1 0
vn 0 1 0
vn -1 0 0
vn -1 0 0
vn -1 0 0
vn -1 0 0
vn 0 0 -1
vn 0 0 -1
vn 0 0 -1
vn 0 0 -1
vn 0 0 -1
vn 0 0 -1
vn 0 0 -1
vn 0 0 -1
vn 1 0 0
vn 1 0 0
vn 1 0 0
vn 1 0 0
vn 0 0 1
vn 0 0 1
vn 0 0 1
vn 0 0 1
vn 0 0 -1
vn 0 0 -1
vn 0 0 -1
vn 0 0 -1
vn 1 0 0
vn 1 0 0
vn 1 0 0
vn 1 0 0
vn 1 0 0
vn 1 0 0
vn 1 0 0
vn 1 0 0
vn 0 0 1
vn 0 0 1
vn 0 0 1
vn 0 0 1
vn -1 0 0
vn -1 0 0
vn -1 0 0
vn -1 0 0
vn 0 0 1
vn 0 0 1
vn 0 0 1
vn 0 0 1
vn 0 0 -1
vn 0 0 -1
vn 0 0 -1
vn 0 0 -1
vn 1 0 0
vn 1 0 0
vn 1 0 0
vn 1 0 0
vn 1 0 0
vn 1 0 0
vn 1 0 0
vn 1 0 0
vn 1 0 0
vn 1 0 0
vn 1 0 0
vn 1 0 0
vn 1 0 0
vn 1 0 0
vn 1 0 0
vn 1 0 0
vn 1 0 0
vn 0 0 1
vn 0 0 1
vn 0 0 1
vn 0 0 1
vn 1 0 0
vn 1 0 0
vn 1 0 0
vn 1 0 0
vn 0 0 1
vn 0 0 1
vn 0 0 1
vn 0 0 1
vn 0 0 1
vn 0 0 1
vn 0 0 1
vn 0 0 1
vn -1 0 0
vn -1 0 0
vn -1 0 0
vn -1 0 0
vn 0 0 -1
vn 0 0 -1
vn 0 0 -1
vn 0 0 -1
vn 1 0 0
vn 1 0 0
vn 1 0 0
vn 1 0 0
vn 1 0 0
vn 1 0 0
vn 1 0 0
vn 1 0 0
vn 1 0 0
vn 1 0 0
vn 1 0 0
vn 1 0 0
vn 1 0 0
vn 1 0 0
vn 1 0 0
vn 1 0 0
vn 1 0 0
vn 0 0 -1
vn 0 0 -1
vn 0 0 -1
vn 0 0 -1
vn 0 0 -1
vn 0 0 -1
vn 0 0 -1
vn 0 0 -1
vn 0 0 -1
vn 0 0 -1
vn 0 0 -1
vn -1 0 0
vn -1 0 0
vn -1 0 0
vn -1 0 0
vn 0 -1 0
vn 0 -1 0
vn 0 -1 0
vn 0 -1 0
vn -1 0 0
vn -1 0 0
vn -1 0 0
vn -1 0 0
vn 0 0 -1
vn 0 0 -1
vn 0 0 -1
vn 0 0 -1
vn 0 0 1
vn 0 0 1
vn 0 0 1
vn 0 0 1
vn -1 0 0
vn -1 0 0
vn -1 0 0
vn -1 0 0
vn -1 0 0
vn -1 0 0
vn -1 0 0
vn -1 0 0
vn -1 0 0
vn -1 0 0
vn -1 0 0
vn -1 0 0
vn -1 0 0
vn -1 0 0
vn -1 0 0
vn -1 0 0
vn 0 0 1
vn 0 0 1
vn 0 0 1
vn 0 0 1
vn 0 0 1
vn 0 0 1
vn 0 1 0
vn 0 1 0
vn 0 1 0
vn 0 1 0
vn 0 1 0
vn 0 1 0
vn 0 1 0
vn 0 1 0
vn 0 1 0
vn 0 1 0
vn 0 1 0
vn 0 1 0
vn 0 1 0
vn 0 1 0
vn 0 1 0
vn 0 1 0
vn 0 1 0
vn 0 1 0
vn 0 1 0
vn 0 1 0
vn 0 1 0
vn 0 1 0
vn 0 1 0
vn 0 1 0
vn 0 1 0
vn 0 1 0
vn 0 1 0
vn 0 1 0
vn 0 1 0
vn 0 1 0
vn 0 1 0
vn 0 1 0
vn 0 1 0
vn 0 1 0
vn 0 1 0
vn 0 1 0
vn 0 1 0
vn 0 1 0
vn 0 1 0
vn 0 1 0
vn 0 1 0
vn 0 1 0
vn 0 1 0
vn 0 1 0
vn 0 1 0
vn 0 1 0
vn 0 1 0
vn 0 1 0
vn 0 1 0
vn 0 1 0
vn 0 1 0
vn 0 1 0
vn 0 1 0
vn 0 1 0
vn 0 1 0
vn 0 1 0
vn 0 1 0
vn 0 0 0.9999999
vn 0 0 0.9999999
vn 0 0 0.9999999
vn 0 0 0.9999999
vn -1 0 0
vn -1 0 0
vn -1 0 0
vn -1 0 0
vn 0 0 -0.9999999
vn 0 0 -0.9999999
vn 0 0 -0.9999999
vn 0 0 -0.9999999
vn 1 0 0
vn 1 0 0
vn 1 0 0
vn 1 0 0
vn 0 1 0
vn 0 1 0
vn 0 1 0
vn 0 1 0
vn 0 -1 0
vn 0 -1 0
vn 0 -1 0
vn 0 -1 0
vn -1 0 0
vn -1 0 0
vn -1 0 0
vn -1 0 0
vn -1 0 0
vn -1 0 0
vn -1 0 0
vn -1 0 0
vn -1 0 0
vn -0.9999999 0 0
vn -1 0 0
vn 0 0 -1
vn 0 0 -1
vn 0 0 -1
vn 0 0 -1
vn 0 0 -1
vn 0 0.8944272 -0.4472136
vn 0 0.8944272 -0.4472136
vn 0 0.8944272 -0.4472136
vn 0 0.8944272 -0.4472136
vn 0 1 0
vn 0 1 0
vn 0 1 0
vn 0 1 0
vn 0 0.8944272 0.4472136
vn 0 0.8944272 0.4472136
vn 0 0.8944272 0.4472136
vn 0 0.8944272 0.4472136
vn 0 1 0
vn 0 1 0
vn 0 1 0
vn 0 1 0
vn 0 0 -1
vn 0 0 -1
vn 0 0 -1
vn 0 0 -1
vn 0 1 0
vn 0 1 0
vn 0 1 0
vn 0 1 0
vn -1 0 0
vn -1 0 0
vn -1 0 0
vn -1 0 0
vn 1 0 0
vn 1 0 0
vn 1 0 0
vn 1 0 0
vn 0 0 -1
vn 0 0 -1
vn 0 0 -1
vn 0 0 -1
vn 0 0 -1
vn 0 0 -1
vn 0 0 -1
vn 0 0 -1
vn 0 0 -1
vn 0 0 -1
vn 0 0 -1
vn 0 0 -1
vn 0 0 -1
vn 0 0 -1
vn 0 1 0
vn 0 1 0
vn 0 1 0
vn 0 1 0
vn 0 1 0
vn 0 1 0
vn 0 1 0
vn 0 1 0
vn 0 1 0
vn 0 1 0
vn 0 1 0
vn 0 1 0
vn 0 1 0
vn 0 0 1
vn 0 0 1
vn 0 0 1
vn 0 0 1
vn -1 0 0
vn -1 0 0
vn -1 0 0
vn -1 0 0
vn 0 0 -1
vn 0 0 -1
vn 0 0 -1
vn 0 0 -1
vn 0 -1 0
vn 0 -1 0
vn 0 -1 0
vn 0 -1 0
vn 0 0 -1
vn 0 0 -1
vn 0 0 -1
vn 0 0 -1
vn 1 0 0
vn 1 0 0
vn 1 0 0
vn 1 0 0
vn 0 0 1
vn 0 0 1
vn 0 0 1
vn 0 0 1
vn 0 -1 0
vn 0 -1 0
vn 0 -1 0
vn 0 -1 0
vn -1 0 0
vn -1 0 0
vn -1 0 0
vn -1 0 0
vn 0 0 -1
vn 0 0 -1
vn 0 0 -1
vn 0 0 -1
vn 1 0 0
vn 1 0 0
vn 1 0 0
vn 1 0 0
vn 0 -1 0
vn 0 -1 0
vn 0 -1 0
vn 0 -1 0
vn -1 0 0
vn -1 0 0
vn -1 0 0
vn -1 0 0
vn 0 0 -1
vn 0 0 -1
vn 0 0 -1
vn 0 0 -1
vn 1 0 0
vn 1 0 0
vn 1 0 0
vn 1 0 0
vn 0 -1 0
vn 0 -1 0
vn 0 -1 0
vn 0 -1 0
vn 0 1 0
vn 0 1 0
vn 0 1 0
vn 0 1 0
vn 0 1 0
vn 0 1 0
vn 0 1 0
vn 0 1 0
vn 0 1 0
vn 0 1 0
vn 0 1 0
vn 0 1 0
vn 0 1 0
vn 0 1 0
vn 0 1 0
vn 0 1 0
vn 0 0 -1
vn 0 0 -1
vn 0 0 -1
vn 0 0 -1
vn 0 0 -1
vn 0 0 -1
vn 0 0 -1
vn 0 0 -1
vn 0 0 1
vn 0 0 1
vn 0 0 1
vn 0 0 1
vn 0 0 1
vn 0 0 1
vn 0 0 1
vn 0 0 1
vn 0 0 1
vn 0 0 1
vn 0 0 1
vn 0 0 1
vn 0 0 1
vn 0 0 1
vn 0 0 1
vn 0 0 1
vn 0 0 1
vn 1 0 0
vn 1 0 0
vn 1 0 0
vn 1 0 0
vn 0 1 0
vn 0 1 0
vn 0 1 0
vn 0 1 0
vn -0.4856429 0.8741572 0
vn -0.4856429 0.8741572 0
vn -0.4856429 0.8741572 0
vn -0.4856429 0.8741572 0
vn 0.4472136 0.8944272 0
vn 0.4472136 0.8944272 0
vn 0.4472136 0.8944272 0
vn 0.4472136 0.8944272 0
vn 0 1 0
vn 0 1 0
vn 0 1 0
vn 0 1 0
vn -0.9999999 0 0
vn -0.9999999 0 0
vn -0.9999999 0 0
vn -0.9999999 0 0
vn -1 0 0
vn -1 0 0
vn -1 0 0
vn -1 0 0
vn -1 0 0
vn -1 0 0
vn -1 0 0
vn -1 0 0
vn -1 0 0
vn -1 0 0
vn -1 0 0
vn -1 0 0
vn -1 0 0
vn 0 0 1
vn 0 0 1
vn 0 0 1
vn 0 0 1
vn 0 0 1
vn 0 0 1
vn 0 0 1
vn 0 0 1
vn 0 0 1
vn 0 0 1
vn 0 0 1
vn 0 0 1
vn 0 0 1
vn 0 0 1
vn 0 0 1
vn 0 0 1
vn 0 0 1
vn 0 0 1
vn 0 0 1
vn 0 0 1
vn 0 0 1
vn 0 0 1
vn 0 0 1
vn 0 0 1
vn -0.5144958 0.857493 0
vn -0.5144958 0.857493 0
vn -0.5144958 0.857493 0
vn -0.5144958 0.857493 0
vn 0 1 0
vn 0 1 0
vn 0 1 0
vn 0 1 0
vn -0.5144958 0.857493 0
vn -0.5144958 0.857493 0
vn -0.5144958 0.857493 0
vn -0.5144958 0.857493 0
vn 0 1 0
vn 0 1 0
vn 0 1 0
vn 0 1 0
vn 0.5144958 0.857493 0
vn 0.5144958 0.857493 0
vn 0.5144958 0.857493 0
vn 0.5144958 0.857493 0
vn 0 1 0
vn 0 1 0
vn 0 1 0
vn 0 1 0
vn 0 0 -1
vn 0 0 -1
vn 0 0 -1
vn 0 0 -1
vn 0 0 -1
vn 0 0 -1
vn 0 0 -1
vn 0 0 -1
vn 0 0 -1
vn 0 0 -0.9999999
vn 0 0 -1
vn 0 0 -1
vn 0 0 -1
vn 0 0 -1
vn 0 0 -1
vn 0 1 0
vn 0 1 0
vn 0 1 0
vn 0 1 0
vn 1 0 0
vn 1 0 0
vn 1 0 0
vn 1 0 0
vn 0 1 0
vn 0 1 0
vn 0 1 0
vn 0 1 0
vn -0.4472136 0.8944272 0
vn -0.4472136 0.8944272 0
vn -0.4472136 0.8944272 0
vn -0.4472136 0.8944272 0
vn 0 1 0
vn 0 1 0
vn 0 1 0
vn 0 1 0
vn 1 0 0
vn 1 0 0
vn 1 0 0
vn 1 0 0
vn 0 0 1
vn 0 0 1
vn 0 0 1
vn 0 0 1
vn -1 0 0
vn -1 0 0
vn -1 0 0
vn -1 0 0
vn 0 0 -1
vn 0 0 -1
vn 0 0 -1
vn 0 0 -1
vn 1 0 0
vn 1 0 0
vn 1 0 0
vn 1 0 0
vn 0 -1 0
vn 0 -1 0
vn 0 -1 0
vn 0 -1 0
vn 0 1 0
vn 0 1 0
vn 0 1 0
vn 0 1 0
vn -1 0 0
vn -1 0 0
vn -1 0 0
vn -1 0 0
vn 1 0 0
vn 1 0 0
vn 1 0 0
vn 1 0 0
vn 1 0 0
vn 0.9999999 0 0
vn 1 0 0
vn 1 0 0
vn 0 0 1
vn 0 0 1
vn 0 0 1
vn 0 0 1
vn 0 0 1
vn 0 0 1
vn 0 0 1
vn 0 0 1
vn -1 0 0
vn -1 0 0
vn -1 0 0
vn -1 0 0
vn 0 0 -1
vn 0 0 -1
vn 0 0 -1
vn 0 0 -1
vn 0 -1 0
vn 0 -1 0
vn 0 -1 0
vn 0 -1 0
vn 0 1 0
vn 0 1 0
vn 0 1 0
vn 0 1 0
vn 0 0 -1
vn 0 0 -1
vn 0 0 -1
vn 0 0 -1
vn 0 0 -1
vn 0 1 0
vn 0 1 0
vn 0 1 0
vn 0 1 0
vn 0 0.8944272 -0.4472136
vn 0 0.8944272 -0.4472136
vn 0 0.8944272 -0.4472136
vn 0 0.8944272 -0.4472136
vn 0 1 0
vn 0 1 0
vn 0 1 0
vn 0 1 0
vn 1 0 0
vn 1 0 0
vn 0.9999999 0 0
vn 1 0 0
vn 1 0 0
vn 1 0 0
vn 1 0 0
vn 1 0 0
vn 1 0 0
vn 0 0 1
vn 0 0 1
vn 0 0 1
vn 0 0 1
vn -1 0 0
vn -1 0 0
vn -1 0 0
vn -1 0 0
vn 0 0 -1
vn 0 0 -1
vn 0 0 -1
vn 0 0 -1
vn 1 0 0
vn 1 0 0
vn 1 0 0
vn 1 0 0
vn 0 -1 0
vn 0 -1 0
vn 0 -1 0
vn 0 -1 0
vn 0 1 0
vn 0 1 0
vn 0 1 0
vn 0 1 0
vn 0 0 -1
vn 0 0 -1
vn 0 0 -1
vn 0 0 -1
vn 0 0 -1
vn 0 0 -1
vn 0 0 -1
vn 0 0 -1
vn 0 0 -1
vn 0 0 -1
vn 0 0 -1
vn 0 0 -1
vn 0 0 -1
vn 0 0 -1
vn 0 0 -1
vn 0 0 -1
vn -1 0 0
vn -1 0 0
vn -1 0 0
vn -1 0 0
vn -1 0 0
vn -1 0 0
vn 0 0 1
vn 0 0 1
vn 0 0 1
vn 0 0 1
vn 0 0 1
vn 0 0 1
vn 0 0 1
vn 0 0 1
vn 0 0 1
vn 0 0 1
vn 0 0 1
vn 0 0 1
vn 0 0 1
vn 0 0 1
vn 0 0 1
vn 0 0 1
vn 0 0 1
vn 0 0 1
vn -1 0 0
vn -1 0 0
vn -1 0 0
vn -1 0 0
vn -1 0 0
vn -1 0 0
vn -1 0 0
vn -1 0 0
vn -1 0 0
vn -1 0 0
vn -1 0 0
vn -1 0 0
vn -1 0 0
vn -1 0 0
vn -1 0 0
vn -1 0 0
vn -1 0 0
vn -1 0 0
vn -1 0 0
vn 0 0 1
vn 0 0 1
vn 0 0 1
vn 0 0 1
vn 0 0 1
vn 0 0 1
vn 0 0 1
vn 0 0 1
vn 1 0 0
vn 1 0 0
vn 1 0 0
vn 1 0 0
vn 0 1 0
vn 0 1 0
vn 0 1 0
vn 0 1 0
vn 0 1 0
vn 0 1 0
vn 0 1 0
vn 0 1 0
vn 0 1 0
vn 0 1 0
vn 0 1 0
vn 0 1 0
vn 0 1 0
vn 0 1 0
vn 0 1 0
vn 0 1 0
vn 0 1 0
vn 0 1 0
vn 0 1 0
vn 0 1 0
vn 0 1 0
vn 0 0 1
vn 0 0 1
vn 0 0 1
vn 0 0 1
vn 0 0 1
vn 0 0 1
vn 0 0 1
vn 0 0 1
vn 0 0 1
vn 0 0 1
vn 0 0 1
vn 0 1 0
vn 0 1 0
vn 0 1 0
vn 0 1 0
vn -0.4472136 0.8944272 0
vn -0.4472136 0.8944272 0
vn -0.4472136 0.8944272 0
vn -0.4472136 0.8944272 0
vn 0 1 0
vn 0 1 0
vn 0 1 0
vn 0 1 0
vn -1 0 0
vn -1 0 0
vn -1 0 0
vn -1 0 0
vn 0 -1 0
vn 0 -1 0
vn 0 -1 0
vn 0 -1 0
vn 0 -1 0
vn 0 -1 0
vn 0 -1 0
vn 0 -1 0
vn 0 -1 0
vn 0 -1 0
vn 0 -1 0
vn 0 -1 0
vn 0 -1 0
vn 0 -1 0
vn 0 -1 0
vn 0 -1 0
vn 0 -1 0
vn 0 -1 0
vn 0 -1 0
vn 0 -1 0
vn 0 0 -1
vn 0 0 -1
vn 0 0 -1
vn 0 0 -1
vn 0 0 -1
vn 0 0 1
vn 0 0 1
vn 0 0 1
vn 0 0 1
vn -1 0 0
vn -1 0 0
vn -1 0 0
vn -1 0 0
vn -1 0 0
vn -1 0 0
vn -1 0 0
vn -1 0 0
vn -1 0 0
vn -1 0 0
vn 0 0 1
vn 0 0 1
vn 0 0 1
vn 0 0 1
vn 0 0 1
vn -1 0 0
vn -1 0 0
vn -1 0 0
vn -1 0 0
vn 0 0 1
vn 0 0 1
vn 0 0 1
vn 0 1 0
vn 0 1 0
vn 0 1 0
vn 0 1 0
vn -0.4472136 0.8944272 0
vn -0.4472136 0.8944272 0
vn -0.4472136 0.8944272 0
vn -0.4472136 0.8944272 0
vn 0 1 0
vn 0 1 0
vn 0 1 0
vn 0 1 0
vn 0 0.8944272 0.4472136
vn 0 0.8944272 0.4472136
vn 0 0.8944272 0.4472136
vn 0 0.8944272 0.4472136
vn 0 1 0
vn 0 1 0
vn 0 1 0
vn 0 1 0
vn 0 0.8944272 0.4472136
vn 0 0.8944272 0.4472136
vn 0 0.8944272 0.4472136
vn 0 0.8944272 0.4472136
vn 0 1 0
vn 0 1 0
vn 0 1 0
vn 0 1 0
vn -0.4472136 0.8944272 0
vn -0.4472136 0.8944272 0
vn -0.4472136 0.8944272 0
vn -0.4472136 0.8944272 0
vn 0 1 0
vn 0 1 0
vn 0 1 0
vn 0 1 0
vn 0 1 0
vn 0 1 0
vn 0 1 0
vn 0 1 0
vn 0 1 0
vn 0 1 0
vn 0 0 1
vn 0 0 1
vn 0 0 1
vn -1 0 0
vn -1 0 0
vn -1 0 0
vn -1 0 0
vn 0 0 1
vn 0 0 1
vn 0 0 1
vn 0 0 1
vn 0 0 0.9999999
vn 0 1 0
vn 0 1 0
vn 0 1 0
vn 0 1 0
vn 0 1 0
vn 0 1 0
vn 0 1 0
vn 0 1 0
vn 0 1 0
vn 0 1 0
vn 0 1 0
vn 0 1 0
vn 0 1 0
vn 0 1 0
vn 0 1 0
vn 0 1 0
vn 0 1 0
vn 0 1 0
vn 0 1 0
vn 0 0 1
vn 0 0 1
vn 0 0 1
vn 0 0 1
vn -1 0 0
vn -1 0 0
vn -1 0 0
vn -1 0 0
vn -1 0 0
vn -1 0 0
vn -1 0 0
vn 0 0.8 -0.6
vn 0 0.8 -0.6
vn 0 0.8 -0.6
vn 0 0.8 -0.6
vn 0 1 0
vn 0 1 0
vn 0 1 0
vn 0 1 0
vn 1 0 0
vn 1 0 0
vn 1 0 0
vn 1 0 0
vn 0 0 1
vn 0 0 1
vn 0 0 1
vn 0 0 1
vn 0 0 1
vn 0 0 1
vn 0 0 1
vn 0 0 1
vn 0 0 1
vn 1 0 0
vn 1 0 0
vn 1 0 0
vn 1 0 0
vn 1 0 0
vn 0.9999999 0 0
vn 1 0 0
vn 1 0 0
vn 0 0 1
vn 0 0 1
vn 0 0 1
vn 0 0 1
vn 0 0 1
vn 0 0 1
vn 0 0 1
vn 0 0 1
vn 0 0 1
vn 0 0 1
vn 1 0 0
vn 1 0 0
vn 1 0 0
vn 1 0 0
vn 1 0 0
vn 1 0 0
vn 1 0 0
vn 0 0 -1
vn 0 0 -1
vn 0 0 -1
vn 0 0 -1
vn 0 1 0
vn 0 1 0
vn 0 1 0
vn 0 1 0
vn 0 0 1
vn 0 0 1
vn 0 0 1
vn 0 0 1
vn -1 0 0
vn -1 0 0
vn -1 0 0
vn -1 0 0
vn 0 0 -1
vn 0 0 -1
vn 0 0 -1
vn 0 0 -1
vn 0 -1 0
vn 0 -1 0
vn 0 -1 0
vn 0 -1 0
vn 0 1 0
vn 0 1 0
vn 0 1 0
vn 0 1 0
vn 0 0 -1
vn 0 0 -1
vn 0 0 -1
vn 0 0 -1
vn 0 0 -1
vn 0 0 -1
vn 0 0 -1
vn 0 0 -1
vn 0 0 -1
vn -1 0 0
vn -1 0 0
vn -1 0 0
vn -0.9999999 0 0
vn -1 0 0
vn 0 1 0
vn 0 1 0
vn 0 1 0
vn 0 1 0
vn -1 0 0
vn -1 0 0
vn -1 0 0
vn -1 0 0
vn 0 1 0
vn 0 1 0
vn 0 1 0
vn 0 1 0
vn 0 1 0
vn 0 1 0
vn 0 1 0
vn 0 1 0
vn 0 0 -1
vn 0 0 -1
vn 0 0 -1
vn 0 0 -1
vn 1 0 0
vn 1 0 0
vn 1 0 0
vn 1 0 0
vn 1 0 0
vn 1 0 0
vn 1 0 0
vn 1 0 0
vn 1 0 0
vn 1 0 0
vn 1 0 0
vn 1 0 0
vn 1 0 0
vn 1 0 0
vn 1 0 0
vn 0 0 1
vn 0 0 1
vn 0 0 1
vn 0 0 1
vn -1 0 0
vn -1 0 0
vn -1 0 0
vn -1 0 0
vn 0 0 -1
vn 0 0 -1
vn 0 0 -1
vn 0 0 -1
vn 1 0 0
vn 1 0 0
vn 1 0 0
vn 1 0 0
vn 0 -1 0
vn 0 -1 0
vn 0 -1 0
vn 0 -1 0
vn 0 1 0
vn 0 1 0
vn 0 1 0
vn 0 1 0
vn 1 0 0
vn 1 0 0
vn 0.9999999 0 0
vn 1 0 0
vn 1 0 0
vn 1 0 0
vn 1 0 0
vn 1 0 0
vn 1 0 0
vn 0 1 0
vn 0 1 0
vn 0 1 0
vn 0 1 0
vn 0 0.8944272 -0.4472136
vn 0 0.8944272 -0.4472136
vn 0 0.8944272 -0.4472136
vn 0 0.8944272 -0.4472136
vn 0 1 0
vn 0 1 0
vn 0 1 0
vn 0 1 0

vt 0 8.944272
vt 1 8.944272
vt 0 0
vt 1 0
vt 1 0
vt 0 0
vt 1 1
vt 0 1
vt 5 1
vt 5 0
vt 0 1
vt 0 0
vt 1 1
vt 1 0
vt 0 1
vt 0 0
vt 0 6
vt 1 6
vt 0 0
vt 1 0
vt 0 1
vt 1 1
vt 0 0
vt 1 0
vt 1 0
vt 0 0
vt 0 3
vt 1 3
vt 0 4
vt 8 0
vt 0 3
vt 0 0
vt 5 1
vt 5 0
vt 0 1
vt 0 0
vt 0 0
vt 0 1
vt 5 0
vt 5 1
vt 1 1
vt 1 0
vt 0 1
vt 0 0
vt 0 0
vt 0 1
vt 1 0
vt 1 1
vt 6 1
vt 6 0
vt 0 1
vt 0 0
vt 0 6
vt 1 6
vt 0 0
vt 1 0
vt 0 0
vt 0 1
vt 6 0
vt 6 1
vt 0 2
vt 25 0
vt 0 0
vt 25 2
vt 0 0
vt 0 1
vt 12 1
vt 12 0
vt 14 0
vt 25 12
vt 25 0
vt 0 0
vt 0 12
vt 0 0
vt 11 12
vt 11 0
vt 0 12
vt 0 0
vt 11 12
vt 11 0
vt 0 12
vt 0 0
vt 2 12
vt 2 0
vt 0 12
vt 2 0
vt 0 0
vt 0 1
vt 2 2
vt 0 3
vt 2 3
vt 0 0
vt 0 2
vt 2 1
vt 0 0
vt 2 2
vt 2 0
vt 0 2
vt 2 2
vt 0 0
vt 0 0
vt 0 1
vt 2 1
vt 1.907349E-06 4
vt 2 0
vt 1.907349E-06 0
vt 2 4
vt 1.907349E-06 12
vt 2 12
vt 25 8
vt 25 0
vt 23 0
vt 0 8
vt 0 0
vt 7 0
vt 4.5 1
vt 0 0
vt 0 1
vt 4.5 0
vt 0 0
vt 0 4
vt 7 1
vt 7 0
vt 7 4
vt 12 1
vt 23 4
vt 12 0
vt 25 4
vt 25 0
vt 1 0
vt 0 1
vt 1 1
vt 0 0
vt 12 0
vt 0 3
vt 12 3
vt 0 0
vt 0 3
vt 11 0
vt 0 0
vt 11 3
vt 1 0
vt 0 2
vt 1 2
vt 0 0
vt 5 0
vt 0 2
vt 1 2
vt 0 0
vt 31 0
vt 18 2.236068
vt 31 2.236068
vt 0 0
vt 11 2
vt 4.768372E-07 2
vt 31 12
vt 31 0
vt 23 4
vt 18 0
vt 23 12
vt 19 4
vt 11 0
vt 14 4
vt 10 4
vt 0 0
vt 0 12
vt 10 12
vt 8 0
vt 0 0
vt 8 1
vt 0 1
vt 13 1
vt 13 0
vt 9 0
vt 9 1
vt 0 0
vt 0 1
vt 4 0
vt 4 1
vt 0 1
vt 2 1
vt 2 0
vt 0 0
vt 0 1
vt 2 1
vt 0 9.536743E-07
vt 5 2
vt 5 9.536743E-07
vt 0 2
vt 0 2
vt 5 0
vt 0 0
vt 5 2
vt 0 1
vt 5 0
vt 0 0
vt 5 1
vt 0 2
vt 4 8
vt 4 0
vt 0 4
vt 0 0
vt 0 1
vt 8 0
vt 0 0
vt 8 1
vt 0 0
vt 4 4
vt 4 2
vt 0 8
vt 4 0
vt 4 0
vt 0 0
vt 0 2
vt 0 4
vt 4 4
vt 4 0
vt 4 0
vt 0 0
vt 4 2
vt 0 0
vt 0 4
vt 4 4
vt 4.999999 4
vt 0 1.907349E-06
vt -7.152557E-07 4
vt 5 1.907349E-06
vt 0 0
vt 6 1
vt 6 0
vt 0 1
vt 6 1
vt 0 0
vt 0 1
vt 6 0
vt 5 0
vt 0 1
vt 5 1
vt 0 0
vt 0 1
vt 5 0
vt 0 0
vt 5 1
vt 0 6.708204
vt 5 0
vt 0 0
vt 5 6.708204
vt 0 1
vt 5 0
vt 0 0
vt 5 1
vt 6 0
vt 0 1
vt 6 1
vt 0 0
vt 0 1
vt 6 0
vt 0 0
vt 0 8
vt 6 8
vt 6 0
vt 0 1
vt 6 1
vt 0 0
vt 0 0
vt 6 1
vt 6 0
vt 0 8
vt 6 8
vt 0 0
vt 0 4
vt 12 4
vt 12 0
vt 0 12
vt 31 12
vt 20 4
vt 31 4
vt 31 0
vt 20 0
vt 14 0
vt 14 4
vt 18 4
vt 18 0
vt 2 4.472136
vt 0 0
vt 0 4.472136
vt 2 0
vt 2 4.472136
vt 0 0
vt 0 4.472136
vt 2 0
vt 7 0
vt 0 3
vt 1 3
vt 0 0
vt 7 0
vt 6 3
vt 7 3
vt 0 0
vt 0 0
vt 4 2
vt 4 0
vt 0 2
vt 4 0
vt 0 0
vt 0 0
vt 4 2
vt 4 0
vt 0 0
vt 0 2
vt 4 0
vt 2 0
vt 0 0
vt 2 1
vt 0 1
vt 1 1
vt 0 0
vt 0 1
vt 1 0
vt 1 1
vt 0 0
vt 0 1
vt 2 0
vt 0 0
vt 1 1
vt 1 0
vt 0 1
vt 0 1
vt 1 0
vt 0 0
vt 1 1
vt 1 0
vt 0 1
vt 1 1
vt 0 0
vt 1 0
vt 0 1
vt 1 1
vt 0 0
vt 1 0
vt 0 1
vt 1 1
vt 0 0
vt 0 1
vt 1 0
vt 0 0
vt 1 1
vt 0 1
vt 1 0
vt 0 0
vt 1 1
vt 0 1
vt 1 0
vt 0 0
vt 1 1
vt 1 0
vt 0 1
vt 1 1
vt 0 0
vt 1 0
vt 0 1
vt 1 1
vt 0 0
vt 1 0
vt 0 1
vt 1 1
vt 0 0
vt 1 0
vt 0 1
vt 1 1
vt 0 0
vt 1 0
vt 0 2
vt 1 2
vt 0 1
vt 3 1
vt 1 2
vt 3 2
vt 2 1
vt 2 0
vt 1 1
vt 0 0
vt 0 1
vt 3 2
vt 2 1
vt 2 2
vt 3 1
vt 4 0
vt 0 0
vt 4 1
vt 0 1
vt 2 1
vt 3 2
vt 3 1
vt 1 2
vt 2 0
vt 1 0
vt 0 0
vt 0 1
vt 1 0
vt 1 1
vt 1 1
vt 0 0
vt 0 1
vt 1 0
vt 1 2
vt 0 0
vt 0 2
vt 2 1
vt 3 0
vt 0 1
vt 2 2
vt 0 0
vt 1 0
vt 0 2
vt 1 2
vt 1 0
vt 0 1
vt 1 1
vt 1 0
vt 0 1
vt 0 0
vt 1 2
vt 1 1
vt 0 2
vt 2 1
vt 2 0
vt 1 0
vt 0 1
vt 1 1
vt 0 0
vt 0 0
vt 2 1
vt 2 0
vt 0 1
vt 2 1
vt 0 0
vt 0 1
vt 2 0
vt 1 0
vt 0 1
vt 1 1
vt 0 0
vt 2 0
vt 0 1
vt 2 1
vt 0 0
vt 1 0
vt 0 0
vt 0 1
vt 0 2
vt 1 2
vt 0 0
vt 1 1
vt 1 0
vt 0 1
vt 0 1
vt 1 0
vt 0 0
vt 1 1
vt 0 1
vt 1 0
vt 0 0
vt 1 1
vt 0 2
vt 1 0
vt 0 0
vt 1 2
vt 0 5
vt 2 5
vt 2 4
vt 0 4
vt 1 4
vt 3 4
vt 3 3
vt 1 3
vt 7 1
vt 7 0
vt 6 0
vt 6 1
vt 6 2
vt 5 2
vt 2 0
vt 2 3
vt 5 3
vt 3 1
vt 0 0
vt 0 1
vt 3 0
vt 6 1
vt 0 0
vt 0 1
vt 6 0
vt 5 0
vt 0 0
vt 5 1
vt 0 1
vt 1 0
vt 0 0
vt 1 1
vt 0 1
vt 4 1
vt 0 0
vt 0 1
vt 4 0
vt 7 1
vt 0 0
vt 0 1
vt 7 0
vt 1 1
vt 0 0
vt 0 1
vt 1 0
vt 3 2
vt 0 1
vt 0 2
vt 0 0
vt 3 0
vt 2 1
vt 2 0
vt 1 1
vt 0 0
vt 0 1
vt 2 0
vt 1 0
vt 1 1
vt 0 1
vt 1 0
vt 0 0
vt 1 1
vt 0 1
vt 1 0
vt 0 0
vt 1 1
vt 0 1
vt 1 0
vt 0 0
vt 1 1
vt 0 1
vt 1 0
vt 0 0
vt 1 1
vt 0 1
vt 1 0
vt 0 0
vt 1 1
vt 1 0
vt 0 1
vt 1 1
vt 0 0
vt 1 0
vt 0 1
vt 1 1
vt 0 0
vt 1 0
vt 0 1
vt 1 1
vt 0 0
vt 1 0
vt 0 1
vt 1 1
vt 0 0
vt 1 0
vt 0 3
vt 1 3
vt 0 0
vt 0 1
vt 1 1
vt 2 0
vt 0 0
vt 2 1
vt 2 2
vt 5 3
vt 5 0
vt 2 3
vt 1 0
vt 1 1
vt 1 2
vt 0 1
vt 0 0
vt 4 3
vt 6 4
vt 6 3
vt 4 4
vt 5 4
vt 7 5
vt 7 4
vt 5 5
vt 6 3
vt 6 1
vt 1 3
vt 1 2
vt 6 0
vt 0 0
vt 0 2
vt 4 0
vt 0 1
vt 4 1
vt 1 0
vt 1 0
vt 0 7
vt 1 6
vt 0 0
vt 0 5
vt 1 0
vt 0 0
vt 1 5
vt 0 1
vt 1 0
vt 0 0
vt 1 1
vt 0 1
vt 1 0
vt 0 0
vt 1 1
vt 0 2
vt 1 0
vt 0 0
vt 1 2
vt 0 1
vt 1 0
vt 0 0
vt 1 1
vt 0 2
vt 1 0
vt 0 0
vt 1 2
vt 0 0
vt 1 6
vt 1 1
vt 0 6
vt 3 0
vt 3.000001 1
vt 3 0
vt 0 0
vt 3 6
vt 0 6
vt 3 0
vt 0 0
vt 3 6
vt 0 6
vt 3 0
vt 0 0
vt 3 6
vt 0 6
vt 3 0
vt 0 0
vt 3 6
vt 0 6
vt 0 3
vt 3 3
vt 0 0
vt 3 0
vt 2 0
vt 0 0
vt 2 2
vt 0 2
vt 2 0
vt 0 0
vt 2 1
vt 0 1
vt 0 1
vt 2 0
vt 0 0
vt 2 1
vt 0 1
vt 2 0
vt 0 0
vt 1 1
vt 0 1
vt 2 0
vt 0 0
vt 2 1
vt 2 0
vt 0 1
vt 2 1
vt 0 0
vt 0 1
vt 2 0
vt 0 0
vt 2 1
vt 0 1
vt 2 0
vt 0 0
vt 2 1
vt 2 0
vt 0 1
vt 2 1
vt 0 0
vt 2 0
vt 0 1
vt 2 1
vt 0 0
vt 0 1
vt 2 0
vt 0 0
vt 2 1
vt 2 0
vt 0 6
vt 2 6
vt 0 0
vt 2 1
vt 0 0
vt 0 1
vt 2 0
vt 3 0
vt 1 3
vt 3 3
vt 0 1
vt 0 0
vt 1 2
vt 2 0
vt 0 0
vt 3 2
vt 1 1
vt 2 2
vt 1 0
vt 0 2
vt 2 0
vt 0 1
vt 2 1
vt 0 0
vt 2 0
vt 0 1
vt 2 1
vt 0 0
vt 2 0
vt 0 1
vt 2 1
vt 0 0
vt 2 0
vt 0 1
vt 2 1
vt 0 0
vt 0 1
vt 2 0
vt 0 0
vt 2 1
vt 0 1
vt 2 0
vt 0 0
vt 2 1
vt 0 1
vt 2 0
vt 0 0
vt 2 1
vt 2 1
vt 0 2
vt 2 2
vt 0 0
vt 4 1
vt 4 0
vt 0 0
vt 0 2
vt 2 2
vt 2 0
vt 0 4
vt 2 6
vt 0 0
vt 2 1
vt 0 0
vt 0 1
vt 2 0
vt 0 3
vt 2 4
vt 0 0
vt 0 0
vt 2 3
vt 2 0
vt 0 3
vt 2 0
vt 0 1
vt 2 1
vt 0 0
vt 2 2
vt 0 0
vt 0 2
vt 2 0
vt 2 0
vt 0 2
vt 2 2
vt 0 0
vt 0 2
vt 2 0
vt 0 0
vt 2 2
vt 0 2
vt 2 0
vt 0 0
vt 2 2
vt 2 2
vt 0 0
vt 0 2
vt 2 1
vt 2 6
vt 0 0
vt 0 6
vt 2 5
vt 2 4
vt 2 2
vt 4 2
vt 9 0
vt 5 0
vt 2 3
vt 5 3
vt 0 2
vt 6 2
vt 0 3
vt 6 3
vt 0 0
vt 8 2
vt 8 0
vt 0 2
vt 2 0
vt 0 0
vt 2 2
vt 0 2
vt 2 0
vt 0 0
vt 2 2
vt 0 1
vt 2 0
vt 0 0
vt 6 1
vt 4 0
vt 2 0
vt 0 2
vt 2 2
vt 0 0
vt 2 0
vt 0 2
vt 2 2
vt 0 0
vt 2 0
vt 0 2
vt 2 2
vt 0 0
vt 2 2
vt 0 0
vt 0 2
vt 2 0
vt 2 2
vt 0 0
vt 0 2
vt 2 0
vt 0 2
vt 2 0
vt 0 0
vt 2 2
vt 2 0
vt 0 2
vt 2 2
vt 0 0
vt 0 2
vt 2 0
vt 0 0
vt 2 2
vt 0 2
vt 2 0
vt 0 0
vt 2 3
vt 0 2
vt 2 0
vt 0 0
vt 2 2
vt 2 2
vt 0 0
vt 0 2
vt 2 0
vt 0.3999977 0
vt 0 0
vt 0.3999977 0.09999943
vt 0 0.09999943
vt 0.3999996 0
vt 0 0
vt 0.3999996 0.09999943
vt 0 0.09999943
vt 0.3999977 0
vt 0 0
vt 0.3999977 0.09999943
vt 0 0.09999943
vt 0.3999996 0
vt 0 0
vt 0.3999996 0.09999943
vt 0 0.09999943
vt 0 0.3999996
vt 0.3999977 0.3999996
vt 0 0
vt 0.3999977 0
vt 0.3999977 0
vt 0 0
vt 0.3999977 0.3999996
vt 0 0.3999996
vt 0 0
vt 1 6
vt 3 5
vt 0 6
vt 1 0
vt 7 5
vt 6 6.5
vt 8 7.5
vt 8 0
vt 0 1.5
vt 0 0
vt 0 9
vt 1 6
vt 0 0
vt 1 12
vt 0 12
vt 1 1.907349E-06
vt 0 2.236069
vt 1 2.236069
vt 0 1.907349E-06
vt 1 0
vt 0 4
vt 1 4
vt 0 0
vt 1 0
vt 0 2.236068
vt 1 2.236068
vt 0 0
vt 1 0
vt 0 1
vt 1 1
vt 0 0
vt 0 0
vt 9 4
vt 9 0
vt 0 4
vt 0 1
vt 9 0
vt 0 0
vt 9 1
vt 1 3
vt 0 0
vt 0 3
vt 1 0
vt 0 0
vt 1 3
vt 1 0
vt 0 3
vt 0 0
vt 9 3
vt 9 0
vt 0 3
vt 4 7
vt 0 4
vt 0 7
vt 0 0
vt 4 0
vt 4 4
vt 0 7
vt 4 7
vt 4 0
vt 0 0
vt 0 0
vt 5 2
vt 4 0
vt 0 1
vt 1 0
vt 5 1
vt 5 0
vt 0 2
vt 0 0
vt 5 0
vt 19 1
vt 14 0
vt 0 1
vt 1 0
vt 0 0
vt 1 1
vt 0 1
vt 1 0
vt 0 0
vt 1 1
vt 0 1
vt 1 0
vt 0 0
vt 1 1
vt 0 1
vt 1 0
vt 0 0
vt 1 1
vt 0 1
vt 1 0
vt 0 0
vt 1 1
vt 0 1
vt 1 0
vt 0 0
vt 1 1
vt 0 1
vt 1 0
vt 0 0
vt 1 1
vt 0 1
vt 1 0
vt 0 0
vt 1 1
vt 0 1
vt 1 0
vt 0 0
vt 1 1
vt 0 1
vt 1 0
vt 0 0
vt 1 1
vt 0 1
vt 1 0
vt 0 0
vt 1 1
vt 0 1
vt 1 0
vt 0 0
vt 1 1
vt 0 1
vt 1 0
vt 0 0
vt 1 1
vt 0 1
vt 1 0
vt 0 0
vt 1 1
vt 0 1
vt 1 0
vt 0 0
vt 1 1
vt 0 1
vt 1 0
vt 0 0
vt 1 1
vt 0 1
vt 0 1
vt 1 1
vt 0 0
vt 1 0
vt 0 1
vt 1 1
vt 0 0
vt 1 0
vt 0 1
vt 1 1
vt 0 0
vt 1 0
vt 0 1
vt 1 1
vt 0 0
vt 1 0
vt 0 0
vt 6 6
vt 6 0
vt 0 6
vt 7 6
vt 0 0
vt 1 6
vt 7 0
vt 0 12
vt 2 12
vt 2 9
vt 2 0
vt 0 0
vt 2 0
vt 9 12
vt 9 0
vt 0 7
vt 0 0
vt 4 7
vt 4 0
vt 0 9
vt 9 7
vt 11 0
vt 0 0
vt 0 7
vt 0 3
vt 1 0
vt 0 0
vt 1 3
vt 2 1
vt 0 0
vt 0 1
vt 2 0
vt 10.29563 1
vt 0 0
vt 0 1
vt 10.29563 0
vt 4.472136 0
vt 0 1
vt 4.472136 1
vt 0 0
vt 0 0
vt 9 1
vt 9 0
vt 0 1
vt 11 10
vt 0 0
vt 0 10
vt 11 0
vt 2 11
vt 0 0
vt 0 10
vt 2 0
vt 9 15
vt 9 0
vt 0 15
vt 0 0
vt 0 11
vt 0 0
vt 0 11
vt 7 11
vt 7 0
vt 0 0
vt 5 12
vt 5 0
vt 0 9
vt 0 0
vt 2 9
vt 2 0
vt 0 9
vt 0 0
vt 5 9
vt 5 0
vt 0 6
vt 0 0
vt 8 6
vt 8 0
vt 0 6
vt 0 0
vt 5 6
vt 5 0
vt 0 9
vt 2 9
vt 2 0
vt 0 9
vt 0 0
vt 5.830948 0
vt -3.814697E-06 1
vt 5.830948 1
vt -3.814697E-06 0
vt 2 1
vt 0 0
vt 0 1
vt 2 0
vt 5.830956 1
vt 0 0
vt 0 1
vt 5.830956 0
vt 8 1
vt 0 0
vt 0 1
vt 8 0
vt 5.830952 1
vt 0 0
vt 0 1
vt 5.830952 0
vt 2 1
vt 0 0
vt 0 1
vt 2 0
vt 8 0
vt 0 0
vt 8 14
vt 0 10
vt 0 14
vt 6 10
vt 6 0
vt 0 10
vt 0 0
vt 10 12
vt 14 10
vt 14 0
vt 0 10
vt 0 0
vt 0 12
vt 0 0
vt 9 1
vt 8 0
vt 0 1
vt 1 0
vt 0 4
vt 1 4
vt 0 0
vt 0 0
vt 6 1
vt 6 0
vt 0 1
vt 0 0
vt 4.472136 1
vt 4.472136 0
vt 0 1
vt 0 0
vt 10 1
vt 10 0
vt 0 1
vt 1 0
vt 0 2
vt 1 2
vt 0 0
vt 1 0
vt 0 0
vt 1 1
vt 0 1
vt 1 0
vt 0 0
vt 1 1
vt 0 1
vt 1 0
vt 0 0
vt 1 1
vt 0 1
vt 1 0
vt 0 0
vt 1 1
vt 0 1
vt 1 0
vt 0 0
vt 1 1
vt 0 1
vt 0 1
vt 1 1
vt 0 0
vt 1 0
vt 10 13
vt 0 0
vt 3 13
vt 10 0
vt 0 0
vt 0 13
vt 2 13
vt 4 12
vt 10 0
vt 8 12
vt 10 13
vt 10 10
vt 19 0
vt 0 13
vt 19 13
vt 0 0
vt 1 0
vt 0 0
vt 1 1
vt 0 1
vt 1 0
vt 0 0
vt 1 1
vt 0 1
vt 1 0
vt 0 0
vt 1 1
vt 0 1
vt 1 0
vt 0 0
vt 1 1
vt 0 1
vt 0 1
vt 1 1
vt 0 0
vt 1 0
vt 5 0
vt 0 0
vt 5 10
vt 0 6
vt 0 10
vt 0 0
vt 4 1
vt 4 0
vt 0 1
vt 0 0
vt 1 4.472136
vt 1 0
vt 0 4.472136
vt 0 5
vt 1 0
vt 0 0
vt 1 7
vt 0 7
vt 5 7
vt 8 0
vt 0 0
vt 8 1
vt 0 6
vt 4 4
vt 3 0
vt 4 0
vt 4 0
vt 0 0
vt 4 1
vt 0 1
vt 5 0
vt 0 0
vt 5 1
vt 0 1
vt 4 0
vt 0 0
vt 4 1
vt 0 1
vt 5 0
vt 0 0
vt 5 1
vt 0 1
vt 4 0
vt 0 0
vt 4 5
vt 0 5
vt 0 5
vt 4 5
vt 0 0
vt 4 0
vt 45 15
vt 0 0
vt 0 15
vt 45 0
vt 10 0
vt 0 0
vt 10 12
vt 0 12
vt 4 10
vt 0 0
vt 0 12
vt 4 0
vt 8 10
vt 0 0
vt 0 10
vt 8 0
vt 0 0
vt 0 11
vt 3 13
vt 1 0
vt 0 0
vt 4 2
vt 4 11
vt 4 0
vt 0 11
vt 18 0
vt 0 11
vt 4 13
vt 0 0
vt 0 15
vt 9 15
vt 9 11
vt 15 11
vt 33 0
vt 0 13
vt 10 11
vt 14 0
vt 0 2
vt 10 2
vt 10 0
vt 0 0
vt 6 7
vt 6 0
vt 0 7
vt 4 0
vt 0 0
vt 4 10
vt 0 7
vt 0 10
vt 6 9
vt 6 7
vt 0 9
vt 6 0
vt 0 0
vt 0 12
vt 5 12
vt 5 9
vt 5 0
vt 0 0
vt 1 2
vt 0 0
vt 0 2
vt 1 0
vt 0 3
vt 1 0
vt 0 0
vt 1 3
vt 6 0
vt 0 2
vt 6 2
vt 0 0
vt 1 0
vt 0 4
vt 1 4
vt 0 1
vt 1 0
vt 0 6
vt 1 6
vt 0 0
vt 1 0
vt 0 6
vt 1 6
vt 0 0
vt 6 0
vt 0 0
vt 6 6
vt 0 6
vt 0 6
vt 7 6
vt 6 0
vt 0 0
vt 7 0
vt 0 0
vt 7 9
vt 7 0
vt 0 9
vt 10 0
vt 0 2
vt 10 8
vt 0 8
vt 0 4
vt 4 6
vt 4 0
vt 7 2
vt 0 0
vt 0 2
vt 8 0
vt 4.472136 0
vt 0 1
vt 4.472136 1
vt 0 0
vt 0 0
vt 10 1
vt 10 0
vt 0 1
vt 0 3
vt 1 0
vt 0 0
vt 1 3
vt 0 0
vt 1 29
vt 9 29
vt 16 0
vt 9 20
vt 7 20
vt 7 0
vt 0 20
vt 0 0
vt 20 29
vt 19 0
vt 1 29
vt 0 10
vt 19 0
vt 0 0
vt 19 10
vt 0 0
vt 33 29
vt 32 0
vt 0 29
vt 0 0
vt 7 3
vt 7 0
vt 4 3
vt 0 5
vt 0 0
vt 2 2
vt 2 0
vt 0 2
vt 3 5
vt 10 5
vt 3 0
vt 0 5
vt 8 6
vt 4 6
vt 2 7
vt 0 7
vt 15 5
vt 15 0
vt 6 5
vt 0 2
vt 0 5
vt 6 0
vt 0 0
vt 1 0
vt 0 2
vt 1 2
vt 0 0
vt 0 0
vt 4 2
vt 4 0
vt 0 0
vt 2 1
vt 3 0
vt 0 1
vt 0 0
vt 4.472137 1
vt 4.472137 0
vt 0 1
vt 0 0
vt 1 1
vt 1 0
vt 0 1
vt 1 0
vt 0 2.236068
vt 1 2.236068
vt 0 0
vt 1 0
vt 0 4
vt 1 4
vt 0 0
vt 1 9.536743E-07
vt 0 2.236069
vt 1 2.236069
vt 0 9.536743E-07
vt 1 0
vt 0 2
vt 1 2
vt 0 0
vt 4.472134 0
vt 0 0
vt 0 1
vt 4.472134 1
vt 0 5
vt 1 5
vt 1 0
vt 0 0
vt 2 1
vt 6 4
vt 6 0
vt 2 0
vt 0 4
vt 0 1
vt 0 0
vt 0 2
vt 4 2
vt 1 2
vt 1 0
vt 0 0
vt 0 2
vt 38 11
vt 38 9
vt 0 11
vt 38 2
vt 0 0
vt 0 0
vt 38 1
vt 38 0
vt 0 1
vt 0 0
vt 4 1
vt 4 0
vt 0 2
vt 0 1
vt 4 1
vt 4 0
vt 3 0
vt 0 4
vt 3 2
vt 0 0
vt 3 0
vt 0 2
vt 3 1
vt 3 2
vt 1 0
vt 0 0
vt 1 3
vt 0 3
vt 4 0
vt 0 0
vt 4 3
vt 0 0
vt 0 3
vt 1 0
vt 1 3
vt 0 5
vt 1 5
vt 0 0
vt 1 0
vt 1 0
vt 0 0
vt 1 1
vt 0 1
vt 1 0
vt 0 3
vt 1 3
vt 0 0
vt 4 13
vt 4 0
vt 0 13
vt 0 0
vt 0 10
vt 0 0
vt 0 10
vt 4 10
vt 4 0
vt 3 11
vt 3 0
vt 0 11
vt 0 0
vt 0 13
vt 6 11
vt 9 0
vt 6 13
vt 2 11
vt 0 0
vt 0 11
vt 7 0
vt 4 13
vt 5 0
vt 0 11
vt 1 13
vt 1 0
vt 0 13
vt 0 4
vt 8 4
vt 8 0
vt 8 10
vt 8 0
vt 0 14
vt 0 0
vt 1 4
vt 0 0
vt 0 4
vt 1 0
vt 0 8
vt 1 0
vt 0 0
vt 1 9
vt 1 0
vt 0 0
vt 1 1
vt 0 1
vt 1 0
vt 0 0
vt 1 1
vt 0 1
vt 1 0
vt 0 0
vt 1 1
vt 0 1
vt 1 0
vt 0 0
vt 1 1
vt 0 1
vt 0 1
vt 1 1
vt 0 0
vt 1 0
vt 4 9
vt 4 0
vt 0 9
vt 0 0
vt 3 9
vt 0 12
vt 3 12
vt 3 0
vt 0 0
vt 5 12
vt 0 10
vt 0 12
vt 5 0
vt 0 0
vt 0 0
vt 4 1
vt 4 0
vt 0 1
vt 0 3
vt 1 0
vt 0 0
vt 1 3
vt 1 0
vt 4 1
vt 4 0
vt 0 1
vt 1 0
vt 0 6
vt 1 5
vt 0 0
vt 1 0
vt 0 2
vt 1 2
vt 0 0
vt 6 13
vt 0 0
vt 0 13
vt 8 14
vt 12 14
vt 20 0
vt 2 15
vt 8 0
vt 0 14
vt 2 15
vt 6 0
vt 0 15
vt 4 15
vt 4 0
vt 0 15
vt 1 0
vt 0 0
vt 1 1
vt 0 1
vt 1 0
vt 0 0
vt 1 1
vt 0 1
vt 1 0
vt 0 0
vt 1 1
vt 0 1
vt 1 0
vt 0 0
vt 1 1
vt 0 1
vt 1 0
vt 0 0
vt 1 1
vt 0 1
vt 0 1
vt 1 1
vt 0 0
vt 1 0
vt 0 0
vt 0 10
vt 7 10
vt 9 0
vt 9 9
vt 9 0
vt 0 0
vt 0 9
vt 9 9
vt 1 7
vt 0 0
vt 0 7
vt 1 0
vt 1 2.236068
vt 0 0
vt 0 2.236068
vt 1 0
vt 1 0
vt 0 11
vt 1 11
vt 0 2

g Combined_Mesh_(root:_scene)
usemtl Combined_Mesh_(root:_scene)
usemap Combined_Mesh_(root:_scene)
f 1/1/1 3/3/3 2/2/2
f 2/2/2 3/3/3 4/4/4
f 5/5/5 7/7/7 6/6/6
f 6/6/6 7/7/7 8/8/8
f 9/9/9 11/11/11 10/10/10
f 10/10/10 11/11/11 12/12/12
f 13/13/13 15/15/15 14/14/14
f 14/14/14 15/15/15 16/16/16
f 17/17/17 19/19/19 18/18/18
f 18/18/18 19/19/19 20/20/20
g Combined_Mesh_(root:_scene)_1
usemtl Combined_Mesh_(root:_scene)_1
usemap Combined_Mesh_(root:_scene)_1
f 21/21/21 23/23/23 22/22/22
f 22/22/22 23/23/23 24/24/24
f 25/25/25 27/27/27 26/26/26
f 28/28/28 27/27/27 25/25/25
f 29/29/29 31/31/31 30/30/30
f 30/30/30 31/31/31 32/32/32
f 33/33/33 35/35/35 34/34/34
f 34/34/34 35/35/35 36/36/36
f 37/37/37 39/39/39 38/38/38
f 38/38/38 39/39/39 40/40/40
f 41/41/41 43/43/43 42/42/42
f 42/42/42 43/43/43 44/44/44
f 45/45/45 47/47/47 46/46/46
f 46/46/46 47/47/47 48/48/48
f 49/49/49 51/51/51 50/50/50
f 50/50/50 51/51/51 52/52/52
f 53/53/53 55/55/55 54/54/54
f 54/54/54 55/55/55 56/56/56
f 57/57/57 59/59/59 58/58/58
f 58/58/58 59/59/59 60/60/60
g Combined_Mesh_(root:_scene)_2
usemtl Combined_Mesh_(root:_scene)_2
usemap Combined_Mesh_(root:_scene)_2
f 61/61/61 63/63/63 62/62/62
f 61/61/61 62/62/62 64/64/64
f 65/65/65 67/67/67 66/66/66
f 65/65/65 68/68/68 67/67/67
f 67/67/67 68/68/68 69/69/69
f 70/70/70 72/72/72 71/71/71
f 73/73/73 72/72/72 70/70/70
f 74/74/74 76/76/76 75/75/75
f 74/74/74 75/75/75 77/77/77
f 78/78/78 80/80/80 79/79/79
f 78/78/78 79/79/79 81/81/81
f 82/82/82 84/84/84 83/83/83
f 82/82/82 83/83/83 85/85/85
f 86/86/86 88/88/88 87/87/87
f 89/89/89 91/91/91 90/90/90
f 89/89/89 90/90/90 92/92/92
f 93/93/93 95/95/95 94/94/94
f 93/93/93 94/94/94 96/96/96
f 97/97/97 99/99/99 98/98/98
f 97/97/97 98/98/98 100/100/100
f 101/101/101 103/103/103 102/102/102
f 104/104/104 106/106/106 105/105/105
f 105/105/105 107/107/107 104/104/104
f 104/104/104 107/107/107 108/108/108
f 108/108/108 107/107/107 109/109/109
f 110/110/110 112/112/112 111/111/111
f 110/110/110 113/113/113 112/112/112
f 114/114/114 115/115/115 113/113/113
f 113/113/113 115/115/115 112/112/112
f 116/116/116 118/118/118 117/117/117
f 116/116/116 117/117/117 119/119/119
f 120/120/120 122/122/122 121/121/121
f 123/123/123 122/122/122 120/120/120
f 121/121/121 122/122/122 124/124/124
f 124/124/124 122/122/122 125/125/125
f 124/124/124 125/125/125 126/126/126
f 127/127/127 126/126/126 125/125/125
f 128/128/128 126/126/126 129/129/129
f 129/129/129 126/126/126 127/127/127
f 130/130/130 132/132/132 131/131/131
f 130/130/130 131/131/131 133/133/133
g Combined_Mesh_(root:_scene)_3
usemtl Combined_Mesh_(root:_scene)_3
usemap Combined_Mesh_(root:_scene)_3
f 134/134/134 136/136/136 135/135/135
f 134/134/134 135/135/135 137/137/137
f 138/138/138 140/140/140 139/139/139
f 138/138/138 139/139/139 141/141/141
f 142/142/142 144/144/144 143/143/143
f 142/142/142 143/143/143 145/145/145
f 146/146/146 148/148/148 147/147/147
f 146/146/146 147/147/147 149/149/149
g Combined_Mesh_(root:_scene)_4
usemtl Combined_Mesh_(root:_scene)_4
usemap Combined_Mesh_(root:_scene)_4
f 150/150/150 152/152/152 151/151/151
f 150/150/150 154/154/154 153/153/153
f 151/151/151 154/154/154 150/150/150
f 153/153/153 154/154/154 155/155/155
f 156/156/156 158/158/158 157/157/157
f 157/157/157 158/158/158 159/159/159
f 160/160/160 158/158/158 156/156/156
f 159/159/159 158/158/158 161/161/161
f 159/159/159 163/163/163 162/162/162
f 161/161/161 163/163/163 159/159/159
f 162/162/162 163/163/163 164/164/164
f 165/165/165 164/164/164 166/166/166
f 162/162/162 164/164/164 165/165/165
f 166/166/166 164/164/164 167/167/167
f 168/168/168 170/170/170 169/169/169
f 169/169/169 170/170/170 171/171/171
f 172/172/172 174/174/174 173/173/173
f 175/175/175 174/174/174 172/172/172
f 176/176/176 178/178/178 177/177/177
f 177/177/177 178/178/178 179/179/179
f 180/180/180 182/182/182 181/181/181
f 183/183/183 185/185/185 184/184/184
f 186/186/186 188/188/188 187/187/187
f 186/186/186 187/187/187 189/189/189
f 190/190/190 192/192/192 191/191/191
f 190/190/190 191/191/191 193/193/193
f 194/194/194 196/196/196 195/195/195
f 194/194/194 195/195/195 197/197/197
f 198/198/198 200/200/200 199/199/199
f 198/198/198 199/199/199 201/201/201
f 202/202/202 200/200/200 198/198/198
f 203/203/203 205/205/205 204/204/204
f 203/203/203 204/204/204 206/206/206
f 207/207/207 209/209/209 208/208/208
f 207/207/207 208/208/208 210/210/210
f 207/207/207 211/211/211 209/209/209
f 212/212/212 214/214/214 213/213/213
f 215/215/215 217/217/217 216/216/216
f 218/218/218 220/220/220 219/219/219
f 221/221/221 223/223/223 222/222/222
f 224/224/224 226/226/226 225/225/225
f 224/224/224 225/225/225 227/227/227
f 228/228/228 230/230/230 229/229/229
f 228/228/228 229/229/229 231/231/231
f 232/232/232 234/234/234 233/233/233
f 232/232/232 233/233/233 235/235/235
f 236/236/236 238/238/238 237/237/237
f 236/236/236 237/237/237 239/239/239
f 240/240/240 242/242/242 241/241/241
f 240/240/240 241/241/241 243/243/243
f 244/244/244 246/246/246 245/245/245
f 244/244/244 245/245/245 247/247/247
f 248/248/248 250/250/250 249/249/249
f 248/248/248 249/249/249 251/251/251
f 252/252/252 254/254/254 253/253/253
f 252/252/252 253/253/253 255/255/255
f 256/256/256 258/258/258 257/257/257
f 259/259/259 256/256/256 257/257/257
f 259/259/259 257/257/257 260/260/260
f 261/261/261 263/263/263 262/262/262
f 261/261/261 262/262/262 264/264/264
f 265/265/265 267/267/267 266/266/266
f 268/268/268 265/265/265 266/266/266
f 268/268/268 266/266/266 269/269/269
f 270/270/270 272/272/272 271/271/271
f 273/273/273 272/272/272 270/270/270
f 274/274/274 272/272/272 275/275/275
f 274/274/274 271/271/271 272/272/272
f 272/272/272 276/276/276 275/275/275
f 275/275/275 276/276/276 277/277/277
f 277/277/277 276/276/276 278/278/278
f 278/278/278 276/276/276 279/279/279
f 280/280/280 282/282/282 281/281/281
f 283/283/283 282/282/282 280/280/280
f 284/284/284 286/286/286 285/285/285
f 284/284/284 285/285/285 287/287/287
f 288/288/288 290/290/290 289/289/289
f 288/288/288 289/289/289 291/291/291
f 292/292/292 294/294/294 293/293/293
f 292/292/292 293/293/293 295/295/295
f 296/296/296 298/298/298 297/297/297
f 296/296/296 297/297/297 299/299/299
g Combined_Mesh_(root:_scene)_5
usemtl Combined_Mesh_(root:_scene)_5
usemap Combined_Mesh_(root:_scene)_5
f 300/300/300 302/302/302 301/301/301
f 303/303/303 305/305/305 304/304/304
f 306/306/306 308/308/308 307/307/307
f 309/309/309 311/311/311 310/310/310
g Combined_Mesh_(root:_scene)_6
usemtl Combined_Mesh_(root:_scene)_6
usemap Combined_Mesh_(root:_scene)_6
f 312/312/312 314/314/314 313/313/313
f 313/313/313 314/314/314 315/315/315
f 316/316/316 318/318/318 317/317/317
f 316/316/316 317/317/317 319/319/319
f 320/320/320 322/322/322 321/321/321
f 320/320/320 321/321/321 323/323/323
f 324/324/324 326/326/326 325/325/325
f 324/324/324 325/325/325 327/327/327
f 328/328/328 330/330/330 329/329/329
f 328/328/328 329/329/329 331/331/331
f 332/332/332 334/334/334 333/333/333
f 332/332/332 333/333/333 335/335/335
f 336/336/336 338/338/338 337/337/337
f 336/336/336 337/337/337 339/339/339
f 340/340/340 342/342/342 341/341/341
f 340/340/340 341/341/341 343/343/343
f 344/344/344 346/346/346 345/345/345
f 344/344/344 345/345/345 347/347/347
f 348/348/348 350/350/350 349/349/349
f 348/348/348 349/349/349 351/351/351
f 352/352/352 354/354/354 353/353/353
f 352/352/352 353/353/353 355/355/355
f 356/356/356 358/358/358 357/357/357
f 356/356/356 357/357/357 359/359/359
f 360/360/360 362/362/362 361/361/361
f 360/360/360 361/361/361 363/363/363
f 364/364/364 366/366/366 365/365/365
f 364/364/364 365/365/365 367/367/367
f 368/368/368 370/370/370 369/369/369
f 368/368/368 369/369/369 371/371/371
f 372/372/372 374/374/374 373/373/373
f 372/372/372 373/373/373 375/375/375
f 376/376/376 378/378/378 377/377/377
f 376/376/376 377/377/377 379/379/379
f 380/380/380 379/379/379 377/377/377
f 380/380/380 377/377/377 381/381/381
f 381/381/381 383/383/383 382/382/382
f 381/381/381 382/382/382 380/380/380
f 384/384/384 386/386/386 385/385/385
f 384/384/384 385/385/385 387/387/387
f 388/388/388 390/390/390 389/389/389
f 389/389/389 390/390/390 391/391/391
f 392/392/392 394/394/394 393/393/393
f 392/392/392 393/393/393 395/395/395
f 396/396/396 392/392/392 395/395/395
f 396/396/396 395/395/395 397/397/397
f 398/398/398 400/400/400 399/399/399
f 399/399/399 400/400/400 401/401/401
f 402/402/402 404/404/404 403/403/403
f 402/402/402 403/403/403 405/405/405
f 406/406/406 408/408/408 407/407/407
f 406/406/406 407/407/407 409/409/409
f 410/410/410 412/412/412 411/411/411
f 410/410/410 411/411/411 413/413/413
f 414/414/414 416/416/416 415/415/415
f 417/417/417 419/419/419 418/418/418
f 420/420/420 421/421/421 421/421/421
f 422/422/422 424/424/424 423/423/423
f 422/422/422 423/423/423 425/425/425
f 422/422/422 427/427/427 426/426/426
f 422/422/422 426/426/426 424/424/424
f 428/428/428 430/430/430 429/429/429
f 428/428/428 429/429/429 431/431/431
f 432/432/432 434/434/434 433/433/433
f 432/432/432 433/433/433 435/435/435
f 436/436/436 438/438/438 437/437/437
f 436/436/436 437/437/437 439/439/439
g Combined_Mesh_(root:_scene)_7
usemtl Combined_Mesh_(root:_scene)_7
usemap Combined_Mesh_(root:_scene)_7
f 440/440/440 442/442/442 441/441/441
f 440/440/440 441/441/441 443/443/443
f 444/444/444 446/446/446 445/445/445
f 444/444/444 445/445/445 447/447/447
f 448/448/448 450/450/450 449/449/449
f 451/451/451 450/450/450 452/452/452
f 452/452/452 450/450/450 448/448/448
f 453/453/453 455/455/455 454/454/454
f 453/453/453 454/454/454 456/456/456
f 457/457/457 459/459/459 458/458/458
f 457/457/457 458/458/458 460/460/460
f 461/461/461 463/463/463 462/462/462
f 461/461/461 462/462/462 464/464/464
f 465/465/465 467/467/467 466/466/466
f 465/465/465 466/466/466 468/468/468
g Combined_Mesh_(root:_scene)_8
usemtl Combined_Mesh_(root:_scene)_8
usemap Combined_Mesh_(root:_scene)_8
f 469/469/469 471/471/471 470/470/470
f 472/472/472 471/471/471 469/469/469
f 473/473/473 475/475/475 474/474/474
f 476/476/476 475/475/475 473/473/473
f 477/477/477 479/479/479 478/478/478
f 480/480/480 479/479/479 477/477/477
f 481/481/481 482/482/482 480/480/480
f 479/479/479 482/482/482 483/483/483
f 480/480/480 482/482/482 479/479/479
f 484/484/484 482/482/482 485/485/485
f 483/483/483 482/482/482 484/484/484
f 486/486/486 488/488/488 487/487/487
f 486/486/486 487/487/487 489/489/489
f 490/490/490 492/492/492 491/491/491
f 490/490/490 491/491/491 493/493/493
f 494/494/494 496/496/496 495/495/495
f 495/495/495 496/496/496 497/497/497
f 498/498/498 500/500/500 499/499/499
f 499/499/499 500/500/500 501/501/501
f 502/502/502 504/504/504 503/503/503
f 502/502/502 503/503/503 505/505/505
f 506/506/506 508/508/508 507/507/507
f 506/506/506 507/507/507 509/509/509
f 510/510/510 512/512/512 511/511/511
f 510/510/510 511/511/511 513/513/513
f 514/514/514 516/516/516 515/515/515
f 514/514/514 515/515/515 517/517/517
f 518/518/518 514/514/514 517/517/517
f 519/519/519 521/521/521 520/520/520
f 522/522/522 521/521/521 523/523/523
f 520/520/520 521/521/521 522/522/522
f 524/524/524 526/526/526 525/525/525
f 527/527/527 529/529/529 528/528/528
f 527/527/527 528/528/528 530/530/530
f 531/531/531 533/533/533 532/532/532
f 531/531/531 532/532/532 534/534/534
f 535/535/535 537/537/537 536/536/536
f 535/535/535 536/536/536 538/538/538
f 539/539/539 541/541/541 540/540/540
f 539/539/539 540/540/540 542/542/542
f 543/543/543 545/545/545 544/544/544
f 543/543/543 544/544/544 546/546/546
f 547/547/547 549/549/549 548/548/548
f 547/547/547 548/548/548 550/550/550
f 551/551/551 553/553/553 552/552/552
f 551/551/551 552/552/552 554/554/554
f 555/555/555 557/557/557 556/556/556
f 555/555/555 556/556/556 558/558/558
f 559/559/559 561/561/561 560/560/560
f 559/559/559 560/560/560 562/562/562
f 563/563/563 565/565/565 564/564/564
f 563/563/563 564/564/564 566/566/566
f 567/567/567 569/569/569 568/568/568
f 570/570/570 569/569/569 567/567/567
f 568/568/568 569/569/569 571/571/571
f 572/572/572 574/574/574 573/573/573
f 572/572/572 573/573/573 575/575/575
f 572/572/572 577/577/577 576/576/576
f 572/572/572 576/576/576 574/574/574
f 572/572/572 578/578/578 577/577/577
f 576/576/576 577/577/577 579/579/579
f 576/576/576 579/579/579 580/580/580
f 581/581/581 583/583/583 582/582/582
f 581/581/581 582/582/582 584/584/584
f 585/585/585 587/587/587 586/586/586
f 585/585/585 586/586/586 588/588/588
f 589/589/589 591/591/591 590/590/590
f 590/590/590 591/591/591 592/592/592
f 590/590/590 592/592/592 593/593/593
f 592/592/592 595/595/595 594/594/594
f 592/592/592 594/594/594 593/593/593
g Combined_Mesh_(root:_scene)_9
usemtl Combined_Mesh_(root:_scene)_9
usemap Combined_Mesh_(root:_scene)_9
f 596/596/596 598/598/598 597/597/597
f 596/596/596 597/597/597 599/599/599
f 600/600/600 602/602/602 601/601/601
f 600/600/600 601/601/601 603/603/603
f 604/604/604 606/606/606 605/605/605
f 604/604/604 605/605/605 607/607/607
f 608/608/608 610/610/610 609/609/609
f 608/608/608 609/609/609 611/611/611
f 612/612/612 614/614/614 613/613/613
f 612/612/612 613/613/613 615/615/615
f 616/616/616 618/618/618 617/617/617
f 616/616/616 617/617/617 619/619/619
f 620/620/620 622/622/622 621/621/621
f 620/620/620 621/621/621 623/623/623
f 624/624/624 626/626/626 625/625/625
f 624/624/624 625/625/625 627/627/627
f 628/628/628 630/630/630 629/629/629
f 628/628/628 629/629/629 631/631/631
f 632/632/632 633/633/633 630/630/630
f 632/632/632 630/630/630 628/628/628
g Combined_Mesh_(root:_scene)_10
usemtl Combined_Mesh_(root:_scene)_10
usemap Combined_Mesh_(root:_scene)_10
f 634/634/634 636/636/636 635/635/635
f 635/635/635 636/636/636 637/637/637
f 638/638/638 640/640/640 639/639/639
f 639/639/639 640/640/640 641/641/641
f 642/642/642 644/644/644 643/643/643
f 643/643/643 644/644/644 645/645/645
f 646/646/646 648/648/648 647/647/647
f 647/647/647 648/648/648 649/649/649
g Combined_Mesh_(root:_scene)_11
usemtl Combined_Mesh_(root:_scene)_11
usemap Combined_Mesh_(root:_scene)_11
f 650/650/650 652/652/652 651/651/651
f 651/651/651 652/652/652 653/653/653
g Combined_Mesh_(root:_scene)_12
usemtl Combined_Mesh_(root:_scene)_12
usemap Combined_Mesh_(root:_scene)_12
f 654/654/654 656/656/656 655/655/655
f 655/655/655 656/656/656 657/657/657
g Combined_Mesh_(root:_scene)_13
usemtl Combined_Mesh_(root:_scene)_13
usemap Combined_Mesh_(root:_scene)_13
f 658/658/658 660/660/660 659/659/659
f 659/659/659 660/660/660 661/661/661
f 662/662/662 664/664/664 663/663/663
f 662/662/662 663/663/663 665/665/665
f 666/666/666 668/668/668 667/667/667
f 666/666/666 667/667/667 669/669/669
f 670/670/670 672/672/672 671/671/671
f 670/670/670 671/671/671 673/673/673
f 674/674/674 676/676/676 675/675/675
f 674/674/674 675/675/675 677/677/677
f 678/678/678 680/680/680 679/679/679
f 678/678/678 679/679/679 681/681/681
f 682/682/682 684/684/684 683/683/683
f 682/682/682 683/683/683 685/685/685
f 686/686/686 688/688/688 687/687/687
f 686/686/686 687/687/687 689/689/689
f 690/690/690 692/692/692 691/691/691
f 690/690/690 691/691/691 693/693/693
f 694/694/694 696/696/696 695/695/695
f 694/694/694 695/695/695 697/697/697
f 698/698/698 700/700/700 699/699/699
f 698/698/698 699/699/699 701/701/701
f 702/702/702 704/704/704 703/703/703
f 702/702/702 703/703/703 705/705/705
f 706/706/706 708/708/708 707/707/707
f 706/706/706 707/707/707 709/709/709
f 709/709/709 710/710/710 706/706/706
f 711/711/711 713/713/713 712/712/712
f 711/711/711 712/712/712 714/714/714
f 715/715/715 717/717/717 716/716/716
f 715/715/715 716/716/716 718/718/718
f 719/719/719 721/721/721 720/720/720
f 719/719/719 720/720/720 722/722/722
f 723/723/723 725/725/725 724/724/724
f 723/723/723 724/724/724 726/726/726
f 727/727/727 729/729/729 728/728/728
f 727/727/727 728/728/728 730/730/730
f 731/731/731 733/733/733 732/732/732
f 731/731/731 732/732/732 734/734/734
f 735/735/735 737/737/737 736/736/736
f 735/735/735 736/736/736 738/738/738
f 739/739/739 741/741/741 740/740/740
f 739/739/739 740/740/740 742/742/742
f 743/743/743 745/745/745 744/744/744
f 743/743/743 744/744/744 746/746/746
f 747/747/747 749/749/749 748/748/748
f 747/747/747 748/748/748 750/750/750
f 750/750/750 752/752/752 751/751/751
f 750/750/750 751/751/751 747/747/747
f 753/753/753 755/755/755 754/754/754
f 756/756/756 758/758/758 757/757/757
f 757/757/757 759/759/759 756/756/756
f 760/760/760 762/762/762 761/761/761
f 763/763/763 765/765/765 764/764/764
f 763/763/763 764/764/764 766/766/766
f 767/767/767 769/769/769 768/768/768
f 767/767/767 768/768/768 770/770/770
f 771/771/771 773/773/773 772/772/772
f 771/771/771 772/772/772 774/774/774
f 775/775/775 777/777/777 776/776/776
f 775/775/775 776/776/776 778/778/778
f 779/779/779 781/781/781 780/780/780
f 779/779/779 780/780/780 782/782/782
f 783/783/783 785/785/785 784/784/784
f 783/783/783 784/784/784 786/786/786
f 787/787/787 789/789/789 788/788/788
f 787/787/787 788/788/788 790/790/790
f 791/791/791 793/793/793 792/792/792
f 791/791/791 792/792/792 794/794/794
f 795/795/795 797/797/797 796/796/796
f 795/795/795 796/796/796 798/798/798
f 799/799/799 798/798/798 796/796/796
f 799/799/799 796/796/796 800/800/800
f 796/796/796 802/802/802 801/801/801
f 796/796/796 801/801/801 800/800/800
f 803/803/803 805/805/805 804/804/804
f 803/803/803 804/804/804 806/806/806
f 807/807/807 809/809/809 808/808/808
f 807/807/807 808/808/808 810/810/810
f 810/810/810 812/812/812 811/811/811
f 810/810/810 811/811/811 807/807/807
g Combined_Mesh_(root:_scene)_14
usemtl Combined_Mesh_(root:_scene)_14
usemap Combined_Mesh_(root:_scene)_14
f 813/813/813 815/815/815 814/814/814
f 813/813/813 814/814/814 816/816/816
f 817/817/817 819/819/819 818/818/818
f 817/817/817 818/818/818 820/820/820
f 821/821/821 823/823/823 822/822/822
f 822/822/822 825/825/825 824/824/824
f 822/822/822 824/824/824 821/821/821
f 826/826/826 828/828/828 827/827/827
f 826/826/826 827/827/827 829/829/829
f 830/830/830 832/832/832 831/831/831
f 830/830/830 831/831/831 833/833/833
f 834/834/834 836/836/836 835/835/835
f 834/834/834 835/835/835 837/837/837
f 838/838/838 840/840/840 839/839/839
f 838/838/838 839/839/839 841/841/841
f 842/842/842 844/844/844 843/843/843
f 842/842/842 843/843/843 845/845/845
f 846/846/846 848/848/848 847/847/847
f 846/846/846 847/847/847 849/849/849
f 850/850/850 852/852/852 851/851/851
f 850/850/850 851/851/851 853/853/853
f 854/854/854 856/856/856 855/855/855
f 854/854/854 855/855/855 857/857/857
f 858/858/858 860/860/860 859/859/859
f 861/861/861 858/858/858 859/859/859
f 862/862/862 864/864/864 863/863/863
f 862/862/862 863/863/863 865/865/865
f 866/866/866 868/868/868 867/867/867
f 866/866/866 867/867/867 869/869/869
g Combined_Mesh_(root:_scene)_15
usemtl Combined_Mesh_(root:_scene)_15
usemap Combined_Mesh_(root:_scene)_15
f 870/870/870 872/872/872 871/871/871
f 871/871/871 872/872/872 873/873/873
f 874/874/874 876/876/876 875/875/875
f 875/875/875 876/876/876 877/877/877
f 878/878/878 880/880/880 879/879/879
f 879/879/879 880/880/880 881/881/881
f 882/882/882 884/884/884 883/883/883
f 883/883/883 884/884/884 885/885/885
f 886/886/886 888/888/888 887/887/887
f 887/887/887 888/888/888 889/889/889
f 890/890/890 892/892/892 891/891/891
f 891/891/891 892/892/892 893/893/893
g Combined_Mesh_(root:_scene)_16
usemtl Combined_Mesh_(root:_scene)_16
usemap Combined_Mesh_(root:_scene)_16
f 894/894/894 896/896/896 895/895/895
f 895/895/895 897/897/897 894/894/894
f 894/894/894 898/898/898 896/896/896
f 896/896/896 898/898/898 899/899/899
f 900/900/900 902/902/902 901/901/901
f 900/900/900 903/903/903 902/902/902
f 903/903/903 904/904/904 902/902/902
g Combined_Mesh_(root:_scene)_17
usemtl Combined_Mesh_(root:_scene)_17
usemap Combined_Mesh_(root:_scene)_17
f 905/905/905 907/907/907 906/906/906
f 906/906/906 908/908/908 905/905/905
f 905/905/905 908/908/908 909/909/909
g Combined_Mesh_(root:_scene)_18
usemtl Combined_Mesh_(root:_scene)_18
usemap Combined_Mesh_(root:_scene)_18
f 910/910/910 912/912/912 911/911/911
f 910/910/910 911/911/911 913/913/913
f 914/914/914 916/916/916 915/915/915
f 914/914/914 915/915/915 917/917/917
f 918/918/918 920/920/920 919/919/919
f 918/918/918 919/919/919 921/921/921
f 922/922/922 924/924/924 923/923/923
f 922/922/922 923/923/923 925/925/925
g Combined_Mesh_(root:_scene)_19
usemtl Combined_Mesh_(root:_scene)_19
usemap Combined_Mesh_(root:_scene)_19
f 926/926/926 928/928/928 927/927/927
f 926/926/926 927/927/927 929/929/929
f 930/930/930 932/932/932 931/931/931
f 930/930/930 931/931/931 933/933/933
f 934/934/934 936/936/936 935/935/935
f 934/934/934 935/935/935 937/937/937
f 938/938/938 940/940/940 939/939/939
f 938/938/938 939/939/939 941/941/941
f 942/942/942 944/944/944 943/943/943
f 942/942/942 943/943/943 945/945/945
f 946/946/946 948/948/948 947/947/947
f 949/949/949 950/950/950 947/947/947
f 947/947/947 950/950/950 946/946/946
f 951/951/951 953/953/953 952/952/952
f 951/951/951 955/955/955 954/954/954
f 952/952/952 955/955/955 951/951/951
g Combined_Mesh_(root:_scene)_20
usemtl Combined_Mesh_(root:_scene)_20
usemap Combined_Mesh_(root:_scene)_20
f 956/956/956 958/958/958 957/957/957
f 956/956/956 957/957/957 959/959/959
f 960/960/960 962/962/962 961/961/961
f 960/960/960 961/961/961 963/963/963
f 960/960/960 963/963/963 964/964/964
f 965/965/965 967/967/967 966/966/966
f 965/965/965 966/966/966 968/968/968
g Combined_Mesh_(root:_scene)_21
usemtl Combined_Mesh_(root:_scene)_21
usemap Combined_Mesh_(root:_scene)_21
f 969/969/969 971/971/971 970/970/970
f 970/970/970 971/971/971 972/972/972
f 973/973/973 975/975/975 974/974/974
f 974/974/974 975/975/975 976/976/976
f 977/977/977 979/979/979 978/978/978
f 978/978/978 979/979/979 980/980/980
f 981/981/981 983/983/983 982/982/982
f 982/982/982 983/983/983 984/984/984
f 985/985/985 987/987/987 986/986/986
f 986/986/986 987/987/987 988/988/988
f 989/989/989 991/991/991 990/990/990
f 990/990/990 991/991/991 992/992/992
f 993/993/993 995/995/995 994/994/994
f 994/994/994 995/995/995 996/996/996
f 997/997/997 999/999/999 998/998/998
f 998/998/998 999/999/999 1000/1000/1000
f 1001/1001/1001 1003/1003/1003 1002/1002/1002
f 1002/1002/1002 1003/1003/1003 1004/1004/1004
f 1005/1005/1005 1007/1007/1007 1006/1006/1006
f 1006/1006/1006 1007/1007/1007 1008/1008/1008
f 1009/1009/1009 1011/1011/1011 1010/1010/1010
f 1010/1010/1010 1011/1011/1011 1012/1012/1012
f 1013/1013/1013 1015/1015/1015 1014/1014/1014
f 1014/1014/1014 1015/1015/1015 1016/1016/1016
f 1017/1017/1017 1019/1019/1019 1018/1018/1018
f 1018/1018/1018 1019/1019/1019 1020/1020/1020
f 1021/1021/1021 1023/1023/1023 1022/1022/1022
f 1022/1022/1022 1023/1023/1023 1024/1024/1024
f 1025/1025/1025 1027/1027/1027 1026/1026/1026
f 1026/1026/1026 1027/1027/1027 1028/1028/1028
f 1029/1029/1029 1031/1031/1031 1030/1030/1030
f 1030/1030/1030 1031/1031/1031 1032/1032/1032
g Combined_Mesh_(root:_scene)_22
usemtl Combined_Mesh_(root:_scene)_22
usemap Combined_Mesh_(root:_scene)_22
f 1033/1033/1033 1035/1035/1035 1034/1034/1034
f 1034/1034/1034 1035/1035/1035 1036/1036/1036
f 1037/1037/1037 1039/1039/1039 1038/1038/1038
f 1038/1038/1038 1039/1039/1039 1040/1040/1040
f 1041/1041/1041 1043/1043/1043 1042/1042/1042
f 1042/1042/1042 1043/1043/1043 1044/1044/1044
f 1045/1045/1045 1047/1047/1047 1046/1046/1046
f 1046/1046/1046 1047/1047/1047 1048/1048/1048
g Combined_Mesh_(root:_scene)_23
usemtl Combined_Mesh_(root:_scene)_23
usemap Combined_Mesh_(root:_scene)_23
f 1049/1049/1049 1051/1051/1051 1050/1050/1050
f 1049/1049/1049 1050/1050/1050 1052/1052/1052
f 1053/1053/1053 1055/1055/1055 1054/1054/1054
f 1053/1053/1053 1054/1054/1054 1056/1056/1056
g Combined_Mesh_(root:_scene)_24
usemtl Combined_Mesh_(root:_scene)_24
usemap Combined_Mesh_(root:_scene)_24
f 1057/1057/1057 1059/1059/1059 1058/1058/1058
f 1060/1060/1060 1059/1059/1059 1061/1061/1061
f 1061/1061/1061 1059/1059/1059 1057/1057/1057
f 1062/1062/1062 1064/1064/1064 1063/1063/1063
f 1062/1062/1062 1063/1063/1063 1065/1065/1065
f 1066/1066/1066 1068/1068/1068 1067/1067/1067
f 1066/1066/1066 1067/1067/1067 1069/1069/1069
f 1070/1070/1070 1072/1072/1072 1071/1071/1071
f 1073/1073/1073 1072/1072/1072 1070/1070/1070
g Combined_Mesh_(root:_scene)_25
usemtl Combined_Mesh_(root:_scene)_25
usemap Combined_Mesh_(root:_scene)_25
f 1074/1074/1074 1076/1076/1076 1075/1075/1075
f 1074/1074/1074 1075/1075/1075 1077/1077/1077
f 1078/1078/1078 1080/1080/1080 1079/1079/1079
f 1078/1078/1078 1079/1079/1079 1081/1081/1081
f 1082/1082/1082 1084/1084/1084 1083/1083/1083
f 1082/1082/1082 1083/1083/1083 1085/1085/1085
f 1086/1086/1086 1088/1088/1088 1087/1087/1087
f 1086/1086/1086 1087/1087/1087 1089/1089/1089
f 1090/1090/1090 1092/1092/1092 1091/1091/1091
f 1090/1090/1090 1091/1091/1091 1093/1093/1093
g Combined_Mesh_(root:_scene)_26
usemtl Combined_Mesh_(root:_scene)_26
usemap Combined_Mesh_(root:_scene)_26
f 1094/1094/1094 1096/1096/1096 1095/1095/1095
f 1094/1094/1094 1095/1095/1095 1097/1097/1097
f 1098/1098/1098 1100/1100/1100 1099/1099/1099
f 1098/1098/1098 1099/1099/1099 1101/1101/1101
f 1102/1102/1102 1104/1104/1104 1103/1103/1103
f 1103/1103/1103 1106/1106/1106 1105/1105/1105
f 1104/1104/1104 1106/1106/1106 1103/1103/1103
f 1107/1107/1107 1109/1109/1109 1108/1108/1108
f 1110/1110/1110 1109/1109/1109 1107/1107/1107
g Combined_Mesh_(root:_scene)_27
usemtl Combined_Mesh_(root:_scene)_27
usemap Combined_Mesh_(root:_scene)_27
f 1111/1111/1111 1113/1113/1113 1112/1112/1112
f 1111/1111/1111 1112/1112/1112 1114/1114/1114
f 1115/1115/1115 1117/1117/1117 1116/1116/1116
f 1115/1115/1115 1116/1116/1116 1118/1118/1118
f 1119/1119/1119 1121/1121/1121 1120/1120/1120
f 1119/1119/1119 1120/1120/1120 1122/1122/1122
f 1123/1123/1123 1125/1125/1125 1124/1124/1124
f 1123/1123/1123 1124/1124/1124 1126/1126/1126
f 1127/1127/1127 1129/1129/1129 1128/1128/1128
f 1127/1127/1127 1128/1128/1128 1130/1130/1130
f 1131/1131/1131 1133/1133/1133 1132/1132/1132
f 1132/1132/1132 1133/1133/1133 1134/1134/1134
g Combined_Mesh_(root:_scene)_28
usemtl Combined_Mesh_(root:_scene)_28
usemap Combined_Mesh_(root:_scene)_28
f 1135/1135/1135 1137/1137/1137 1136/1136/1136
f 1135/1135/1135 1136/1136/1136 1138/1138/1138
f 1139/1139/1139 1141/1141/1141 1140/1140/1140
f 1139/1139/1139 1140/1140/1140 1142/1142/1142
f 1143/1143/1143 1145/1145/1145 1144/1144/1144
f 1143/1143/1143 1144/1144/1144 1146/1146/1146
f 1147/1147/1147 1149/1149/1149 1148/1148/1148
f 1147/1147/1147 1148/1148/1148 1150/1150/1150
f 1151/1151/1151 1153/1153/1153 1152/1152/1152
f 1151/1151/1151 1152/1152/1152 1154/1154/1154
f 1155/1155/1155 1157/1157/1157 1156/1156/1156
f 1155/1155/1155 1156/1156/1156 1158/1158/1158
g Combined_Mesh_(root:_scene)_29
usemtl Combined_Mesh_(root:_scene)_29
usemap Combined_Mesh_(root:_scene)_29
f 1159/1159/1159 1161/1161/1161 1160/1160/1160
f 1160/1160/1160 1161/1161/1161 1162/1162/1162
f 1162/1162/1162 1161/1161/1161 1163/1163/1163
f 1164/1164/1164 1166/1166/1166 1165/1165/1165
f 1165/1165/1165 1166/1166/1166 1167/1167/1167
f 1168/1168/1168 1170/1170/1170 1169/1169/1169
f 1168/1168/1168 1171/1171/1171 1170/1170/1170
f 1170/1170/1170 1171/1171/1171 1172/1172/1172
f 1173/1173/1173 1171/1171/1171 1168/1168/1168
g Combined_Mesh_(root:_scene)_30
usemtl Combined_Mesh_(root:_scene)_30
usemap Combined_Mesh_(root:_scene)_30
f 1174/1174/1174 1176/1176/1176 1175/1175/1175
f 1174/1174/1174 1175/1175/1175 1177/1177/1177
f 1178/1178/1178 1180/1180/1180 1179/1179/1179
f 1178/1178/1178 1179/1179/1179 1181/1181/1181
f 1182/1182/1182 1184/1184/1184 1183/1183/1183
f 1182/1182/1182 1183/1183/1183 1185/1185/1185
f 1186/1186/1186 1188/1188/1188 1187/1187/1187
f 1186/1186/1186 1187/1187/1187 1189/1189/1189
f 1190/1190/1190 1192/1192/1192 1191/1191/1191
f 1190/1190/1190 1191/1191/1191 1193/1193/1193
f 1194/1194/1194 1196/1196/1196 1195/1195/1195
f 1194/1194/1194 1195/1195/1195 1197/1197/1197
g Combined_Mesh_(root:_scene)_31
usemtl Combined_Mesh_(root:_scene)_31
usemap Combined_Mesh_(root:_scene)_31
f 1198/1198/1198 1200/1200/1200 1199/1199/1199
f 1199/1199/1199 1200/1200/1200 1201/1201/1201
f 1202/1202/1202 1204/1204/1204 1203/1203/1203
f 1203/1203/1203 1204/1204/1204 1205/1205/1205
f 1206/1206/1206 1208/1208/1208 1207/1207/1207
f 1207/1207/1207 1208/1208/1208 1209/1209/1209
f 1210/1210/1210 1212/1212/1212 1211/1211/1211
f 1211/1211/1211 1212/1212/1212 1213/1213/1213
f 1214/1214/1214 1216/1216/1216 1215/1215/1215
f 1215/1215/1215 1216/1216/1216 1217/1217/1217
g Combined_Mesh_(root:_scene)_32
usemtl Combined_Mesh_(root:_scene)_32
usemap Combined_Mesh_(root:_scene)_32
f 1218/1218/1218 1220/1220/1220 1219/1219/1219
f 1219/1219/1219 1220/1220/1220 1221/1221/1221
g Combined_Mesh_(root:_scene)_33
usemtl Combined_Mesh_(root:_scene)_33
usemap Combined_Mesh_(root:_scene)_33
f 1222/1222/1222 1224/1224/1224 1223/1223/1223
f 1222/1222/1222 1223/1223/1223 1225/1225/1225
f 1226/1226/1226 1228/1228/1228 1227/1227/1227
f 1229/1229/1229 1228/1228/1228 1226/1226/1226
f 1230/1230/1230 1231/1231/1231 1226/1226/1226
f 1232/1232/1232 1231/1231/1231 1233/1233/1233
f 1226/1226/1226 1231/1231/1231 1229/1229/1229
f 1233/1233/1233 1231/1231/1231 1230/1230/1230
f 1234/1234/1234 1236/1236/1236 1235/1235/1235
f 1234/1234/1234 1235/1235/1235 1237/1237/1237
g Combined_Mesh_(root:_scene)_34
usemtl Combined_Mesh_(root:_scene)_34
usemap Combined_Mesh_(root:_scene)_34
f 1238/1238/1238 1240/1240/1240 1239/1239/1239
f 1239/1239/1239 1240/1240/1240 1241/1241/1241
f 1242/1242/1242 1244/1244/1244 1243/1243/1243
f 1243/1243/1243 1244/1244/1244 1245/1245/1245
f 1246/1246/1246 1248/1248/1248 1247/1247/1247
f 1247/1247/1247 1248/1248/1248 1249/1249/1249
f 1250/1250/1250 1252/1252/1252 1251/1251/1251
f 1251/1251/1251 1252/1252/1252 1253/1253/1253
g Combined_Mesh_(root:_scene)_35
usemtl Combined_Mesh_(root:_scene)_35
usemap Combined_Mesh_(root:_scene)_35
f 1254/1254/1254 1256/1256/1256 1255/1255/1255
f 1255/1255/1255 1256/1256/1256 1257/1257/1257
g Combined_Mesh_(root:_scene)_36
usemtl Combined_Mesh_(root:_scene)_36
usemap Combined_Mesh_(root:_scene)_36
f 1258/1258/1258 1260/1260/1260 1259/1259/1259
f 1259/1259/1259 1260/1260/1260 1261/1261/1261
f 1261/1261/1261 1260/1260/1260 1262/1262/1262
g Combined_Mesh_(root:_scene)_37
usemtl Combined_Mesh_(root:_scene)_37
usemap Combined_Mesh_(root:_scene)_37
f 1263/1263/1263 1265/1265/1265 1264/1264/1264
f 1263/1263/1263 1264/1264/1264 1266/1266/1266
f 1267/1267/1267 1269/1269/1269 1268/1268/1268
f 1267/1267/1267 1268/1268/1268 1270/1270/1270
f 1271/1271/1271 1273/1273/1273 1272/1272/1272
f 1271/1271/1271 1272/1272/1272 1274/1274/1274
g Combined_Mesh_(root:_scene)_38
usemtl Combined_Mesh_(root:_scene)_38
usemap Combined_Mesh_(root:_scene)_38
f 1275/1275/1275 1277/1277/1277 1276/1276/1276
f 1278/1278/1278 1277/1277/1277 1275/1275/1275
f 1276/1276/1276 1277/1277/1277 1279/1279/1279
f 1280/1280/1280 1282/1282/1282 1281/1281/1281
f 1281/1281/1281 1282/1282/1282 1283/1283/1283
g Combined_Mesh_(root:_scene)_39
usemtl Combined_Mesh_(root:_scene)_39
usemap Combined_Mesh_(root:_scene)_39
f 1284/1284/1284 1286/1286/1286 1285/1285/1285
f 1285/1285/1285 1286/1286/1286 1287/1287/1287
f 1288/1288/1288 1290/1290/1290 1289/1289/1289
f 1289/1289/1289 1290/1290/1290 1291/1291/1291
f 1292/1292/1292 1294/1294/1294 1293/1293/1293
f 1293/1293/1293 1294/1294/1294 1295/1295/1295
f 1296/1296/1296 1298/1298/1298 1297/1297/1297
f 1297/1297/1297 1298/1298/1298 1299/1299/1299
f 1300/1300/1300 1302/1302/1302 1301/1301/1301
f 1301/1301/1301 1302/1302/1302 1303/1303/1303
g Combined_Mesh_(root:_scene)_40
usemtl Combined_Mesh_(root:_scene)_40
usemap Combined_Mesh_(root:_scene)_40
f 1304/1304/1304 1306/1306/1306 1305/1305/1305
f 1305/1305/1305 1306/1306/1306 1307/1307/1307
g Combined_Mesh_(root:_scene)_41
usemtl Combined_Mesh_(root:_scene)_41
usemap Combined_Mesh_(root:_scene)_41
f 1308/1308/1308 1310/1310/1310 1309/1309/1309
f 1308/1308/1308 1309/1309/1309 1311/1311/1311
f 1312/1312/1312 1314/1314/1314 1313/1313/1313
f 1314/1314/1314 1315/1315/1315 1313/1313/1313
f 1316/1316/1316 1318/1318/1318 1317/1317/1317
f 1316/1316/1316 1317/1317/1317 1319/1319/1319
f 1320/1320/1320 1322/1322/1322 1321/1321/1321
f 1320/1320/1320 1321/1321/1321 1323/1323/1323
g Combined_Mesh_(root:_scene)_42
usemtl Combined_Mesh_(root:_scene)_42
usemap Combined_Mesh_(root:_scene)_42
f 1324/1324/1324 1326/1326/1326 1325/1325/1325
f 1327/1327/1327 1329/1329/1329 1328/1328/1328
f 1330/1330/1330 1332/1332/1332 1331/1331/1331
f 1333/1333/1333 1335/1335/1335 1334/1334/1334
f 1336/1336/1336 1338/1338/1338 1337/1337/1337
f 1336/1336/1336 1339/1339/1339 1338/1338/1338
f 1340/1340/1340 1339/1339/1339 1341/1341/1341
f 1341/1341/1341 1339/1339/1339 1336/1336/1336
f 1342/1342/1342 1344/1344/1344 1343/1343/1343
f 1345/1345/1345 1347/1347/1347 1346/1346/1346
g Combined_Mesh_(root:_scene)_43
usemtl Combined_Mesh_(root:_scene)_43
usemap Combined_Mesh_(root:_scene)_43
f 1348/1348/1348 1350/1350/1350 1349/1349/1349
f 1348/1348/1348 1349/1349/1349 1351/1351/1351
f 1352/1352/1352 1354/1354/1354 1353/1353/1353
f 1353/1353/1353 1354/1354/1354 1355/1355/1355
f 1355/1355/1355 1354/1354/1354 1356/1356/1356
f 1357/1357/1357 1359/1359/1359 1358/1358/1358
f 1358/1358/1358 1359/1359/1359 1360/1360/1360
f 1360/1360/1360 1359/1359/1359 1361/1361/1361
f 1362/1362/1362 1364/1364/1364 1363/1363/1363
f 1365/1365/1365 1364/1364/1364 1366/1366/1366
f 1366/1366/1366 1364/1364/1364 1362/1362/1362
f 1367/1367/1367 1369/1369/1369 1368/1368/1368
f 1367/1367/1367 1368/1368/1368 1370/1370/1370
f 1371/1371/1371 1373/1373/1373 1372/1372/1372
f 1371/1371/1371 1372/1372/1372 1374/1374/1374
f 1375/1375/1375 1377/1377/1377 1376/1376/1376
f 1375/1375/1375 1376/1376/1376 1378/1378/1378
g Combined_Mesh_(root:_scene)_44
usemtl Combined_Mesh_(root:_scene)_44
usemap Combined_Mesh_(root:_scene)_44
f 1379/1379/1379 1381/1381/1381 1380/1380/1380
f 1379/1379/1379 1380/1380/1380 1382/1382/1382
f 1383/1383/1383 1385/1385/1385 1384/1384/1384
f 1383/1383/1383 1384/1384/1384 1386/1386/1386
f 1387/1387/1387 1389/1389/1389 1388/1388/1388
f 1387/1387/1387 1388/1388/1388 1390/1390/1390
f 1391/1391/1391 1393/1393/1393 1392/1392/1392
f 1392/1392/1392 1393/1393/1393 1394/1394/1394
f 1395/1395/1395 1397/1397/1397 1396/1396/1396
f 1398/1398/1398 1397/1397/1397 1395/1395/1395
f 1396/1396/1396 1397/1397/1397 1399/1399/1399
g Combined_Mesh_(root:_scene)_45
usemtl Combined_Mesh_(root:_scene)_45
usemap Combined_Mesh_(root:_scene)_45
f 1400/1400/1400 1402/1402/1402 1401/1401/1401
f 1400/1400/1400 1401/1401/1401 1403/1403/1403
f 1404/1404/1404 1406/1406/1406 1405/1405/1405
f 1405/1405/1405 1406/1406/1406 1407/1407/1407
f 1408/1408/1408 1410/1410/1410 1409/1409/1409
g Combined_Mesh_(root:_scene)_46
usemtl Combined_Mesh_(root:_scene)_46
usemap Combined_Mesh_(root:_scene)_46
f 1411/1411/1411 1413/1413/1413 1412/1412/1412
f 1411/1411/1411 1412/1412/1412 1414/1414/1414
f 1415/1415/1415 1417/1417/1417 1416/1416/1416
f 1415/1415/1415 1416/1416/1416 1418/1418/1418
f 1419/1419/1419 1421/1421/1421 1420/1420/1420
f 1419/1419/1419 1420/1420/1420 1422/1422/1422
f 1423/1423/1423 1425/1425/1425 1424/1424/1424
f 1423/1423/1423 1424/1424/1424 1426/1426/1426
g Combined_Mesh_(root:_scene)_47
usemtl Combined_Mesh_(root:_scene)_47
usemap Combined_Mesh_(root:_scene)_47
f 1427/1427/1427 1429/1429/1429 1428/1428/1428
f 1430/1430/1430 1431/1431/1431 1427/1427/1427
f 1427/1427/1427 1431/1431/1431 1429/1429/1429
f 1432/1432/1432 1434/1434/1434 1433/1433/1433
f 1435/1435/1435 1437/1437/1437 1436/1436/1436
f 1435/1435/1435 1436/1436/1436 1438/1438/1438
f 1439/1439/1439 1441/1441/1441 1440/1440/1440
f 1439/1439/1439 1440/1440/1440 1442/1442/1442
f 1443/1443/1443 1445/1445/1445 1444/1444/1444
f 1443/1443/1443 1444/1444/1444 1446/1446/1446
g Combined_Mesh_(root:_scene)_48
usemtl Combined_Mesh_(root:_scene)_48
usemap Combined_Mesh_(root:_scene)_48
f 1447/1447/1447 1449/1449/1449 1448/1448/1448
f 1447/1447/1447 1448/1448/1448 1450/1450/1450
f 1447/1447/1447 1450/1450/1450 1451/1451/1451
f 1452/1452/1452 1454/1454/1454 1453/1453/1453
f 1452/1452/1452 1453/1453/1453 1455/1455/1455
f 1456/1456/1456 1458/1458/1458 1457/1457/1457
f 1459/1459/1459 1456/1456/1456 1460/1460/1460
f 1460/1460/1460 1456/1456/1456 1457/1457/1457
f 1459/1459/1459 1460/1460/1460 1461/1461/1461
f 1459/1459/1459 1461/1461/1461 1462/1462/1462
f 1459/1459/1459 1462/1462/1462 1463/1463/1463
f 1464/1464/1464 1457/1457/1457 1465/1465/1465
f 1457/1457/1457 1458/1458/1458 1465/1465/1465
f 1466/1466/1466 1468/1468/1468 1467/1467/1467
f 1466/1466/1466 1467/1467/1467 1469/1469/1469
f 1469/1469/1469 1467/1467/1467 1470/1470/1470
f 1471/1471/1471 1473/1473/1473 1472/1472/1472
f 1471/1471/1471 1472/1472/1472 1474/1474/1474
f 1475/1475/1475 1477/1477/1477 1476/1476/1476
g Combined_Mesh_(root:_scene)_49
usemtl Combined_Mesh_(root:_scene)_49
usemap Combined_Mesh_(root:_scene)_49
f 1478/1478/1478 1480/1480/1480 1479/1479/1479
f 1478/1478/1478 1479/1479/1479 1481/1481/1481
f 1482/1482/1482 1484/1484/1484 1483/1483/1483
f 1482/1482/1482 1483/1483/1483 1485/1485/1485
f 1486/1486/1486 1488/1488/1488 1487/1487/1487
f 1486/1486/1486 1487/1487/1487 1489/1489/1489
f 1490/1490/1490 1492/1492/1492 1491/1491/1491
f 1490/1490/1490 1491/1491/1491 1493/1493/1493
f 1494/1494/1494 1496/1496/1496 1495/1495/1495
f 1494/1494/1494 1495/1495/1495 1497/1497/1497
f 1498/1498/1498 1500/1500/1500 1499/1499/1499
f 1498/1498/1498 1499/1499/1499 1501/1501/1501
f 1502/1502/1502 1504/1504/1504 1503/1503/1503
f 1502/1502/1502 1503/1503/1503 1505/1505/1505
f 1506/1506/1506 1508/1508/1508 1507/1507/1507
f 1509/1509/1509 1508/1508/1508 1506/1506/1506
f 1510/1510/1510 1512/1512/1512 1511/1511/1511
f 1513/1513/1513 1512/1512/1512 1510/1510/1510
f 1514/1514/1514 1516/1516/1516 1515/1515/1515
f 1514/1514/1514 1517/1517/1517 1516/1516/1516
f 1518/1518/1518 1519/1519/1519 1514/1514/1514
f 1518/1518/1518 1514/1514/1514 1515/1515/1515
g Combined_Mesh_(root:_scene)_50
usemtl Combined_Mesh_(root:_scene)_50
usemap Combined_Mesh_(root:_scene)_50
f 1520/1520/1520 1522/1522/1522 1521/1521/1521
f 1523/1523/1523 1525/1525/1525 1524/1524/1524
f 1526/1526/1526 1525/1525/1525 1523/1523/1523
f 1527/1527/1527 1529/1529/1529 1528/1528/1528
f 1528/1528/1528 1529/1529/1529 1530/1530/1530
f 1530/1530/1530 1529/1529/1529 1531/1531/1531
g Combined_Mesh_(root:_scene)_51
usemtl Combined_Mesh_(root:_scene)_51
usemap Combined_Mesh_(root:_scene)_51
f 1532/1532/1532 1534/1534/1534 1533/1533/1533
f 1532/1532/1532 1533/1533/1533 1535/1535/1535
f 1536/1536/1536 1538/1538/1538 1537/1537/1537
f 1536/1536/1536 1537/1537/1537 1539/1539/1539
f 1540/1540/1540 1542/1542/1542 1541/1541/1541
f 1543/1543/1543 1545/1545/1545 1544/1544/1544
f 1543/1543/1543 1544/1544/1544 1546/1546/1546
f 1547/1547/1547 1549/1549/1549 1548/1548/1548
f 1548/1548/1548 1549/1549/1549 1550/1550/1550
g Combined_Mesh_(root:_scene)_52
usemtl Combined_Mesh_(root:_scene)_52
usemap Combined_Mesh_(root:_scene)_52
f 1551/1551/1551 1553/1553/1553 1552/1552/1552
f 1552/1552/1552 1553/1553/1553 1554/1554/1554
f 1555/1555/1555 1557/1557/1557 1556/1556/1556
f 1558/1558/1558 1560/1560/1560 1559/1559/1559
f 1559/1559/1559 1560/1560/1560 1561/1561/1561
g Combined_Mesh_(root:_scene)_53
usemtl Combined_Mesh_(root:_scene)_53
usemap Combined_Mesh_(root:_scene)_53
f 1562/1562/1562 1564/1564/1564 1563/1563/1563
f 1563/1563/1563 1564/1564/1564 1565/1565/1565
f 1566/1566/1566 1568/1568/1568 1567/1567/1567
f 1567/1567/1567 1568/1568/1568 1569/1569/1569
g Combined_Mesh_(root:_scene)_54
usemtl Combined_Mesh_(root:_scene)_54
usemap Combined_Mesh_(root:_scene)_54
f 1570/1570/1570 1572/1572/1572 1571/1571/1571
f 1570/1570/1570 1571/1571/1571 1573/1573/1573
f 1574/1574/1574 1576/1576/1576 1575/1575/1575
f 1575/1575/1575 1578/1578/1578 1577/1577/1577
f 1576/1576/1576 1578/1578/1578 1575/1575/1575
f 1579/1579/1579 1581/1581/1581 1580/1580/1580
f 1582/1582/1582 1581/1581/1581 1579/1579/1579
f 1583/1583/1583 1585/1585/1585 1584/1584/1584
f 1586/1586/1586 1588/1588/1588 1587/1587/1587
f 1589/1589/1589 1588/1588/1588 1586/1586/1586
f 1587/1587/1587 1588/1588/1588 1590/1590/1590
f 1591/1591/1591 1593/1593/1593 1592/1592/1592
f 1591/1591/1591 1592/1592/1592 1594/1594/1594
f 1595/1595/1595 1597/1597/1597 1596/1596/1596
f 1598/1598/1598 1600/1600/1600 1599/1599/1599
g Combined_Mesh_(root:_scene)_55
usemtl Combined_Mesh_(root:_scene)_55
usemap Combined_Mesh_(root:_scene)_55
f 1601/1601/1601 1603/1603/1603 1602/1602/1602
f 1604/1604/1604 1606/1606/1606 1605/1605/1605
f 1605/1605/1605 1606/1606/1606 1607/1607/1607
g Combined_Mesh_(root:_scene)_56
usemtl Combined_Mesh_(root:_scene)_56
usemap Combined_Mesh_(root:_scene)_56
f 1608/1608/1608 1610/1610/1610 1609/1609/1609
f 1608/1608/1608 1609/1609/1609 1611/1611/1611
f 1612/1612/1612 1614/1614/1614 1613/1613/1613
f 1612/1612/1612 1613/1613/1613 1615/1615/1615
g Combined_Mesh_(root:_scene)_57
usemtl Combined_Mesh_(root:_scene)_57
usemap Combined_Mesh_(root:_scene)_57
f 1616/1616/1616 1618/1618/1618 1617/1617/1617
f 1617/1617/1617 1618/1618/1618 1619/1619/1619
f 1620/1620/1620 1622/1622/1622 1621/1621/1621
f 1621/1621/1621 1622/1622/1622 1623/1623/1623
f 1624/1624/1624 1626/1626/1626 1625/1625/1625
f 1625/1625/1625 1626/1626/1626 1627/1627/1627
f 1628/1628/1628 1630/1630/1630 1629/1629/1629
f 1629/1629/1629 1630/1630/1630 1631/1631/1631
g Combined_Mesh_(root:_scene)_58
usemtl Combined_Mesh_(root:_scene)_58
usemap Combined_Mesh_(root:_scene)_58
f 1632/1632/1632 1634/1634/1634 1633/1633/1633
f 1633/1633/1633 1634/1634/1634 1635/1635/1635
g Combined_Mesh_(root:_scene)_59
usemtl Combined_Mesh_(root:_scene)_59
usemap Combined_Mesh_(root:_scene)_59
f 1636/1636/1636 1638/1638/1638 1637/1637/1637
f 1637/1637/1637 1638/1638/1638 1639/1639/1639
f 1640/1640/1640 1642/1642/1642 1641/1641/1641
f 1643/1643/1643 1641/1641/1641 1644/1644/1644
f 1640/1640/1640 1641/1641/1641 1643/1643/1643
f 1645/1645/1645 1647/1647/1647 1646/1646/1646
f 1648/1648/1648 1646/1646/1646 1649/1649/1649
f 1645/1645/1645 1646/1646/1646 1648/1648/1648
g Combined_Mesh_(root:_scene)_60
usemtl Combined_Mesh_(root:_scene)_60
usemap Combined_Mesh_(root:_scene)_60
f 1650/1650/1650 1652/1652/1652 1651/1651/1651
f 1650/1650/1650 1651/1651/1651 1653/1653/1653
f 1654/1654/1654 1656/1656/1656 1655/1655/1655
f 1654/1654/1654 1655/1655/1655 1657/1657/1657
f 1658/1658/1658 1660/1660/1660 1659/1659/1659
f 1658/1658/1658 1659/1659/1659 1661/1661/1661
f 1662/1662/1662 1664/1664/1664 1663/1663/1663
f 1662/1662/1662 1663/1663/1663 1665/1665/1665
f 1666/1666/1666 1668/1668/1668 1667/1667/1667
f 1666/1666/1666 1667/1667/1667 1669/1669/1669
g Combined_Mesh_(root:_scene)_61
usemtl Combined_Mesh_(root:_scene)_61
usemap Combined_Mesh_(root:_scene)_61
f 1670/1670/1670 1672/1672/1672 1671/1671/1671
f 1673/1673/1673 1670/1670/1670 1671/1671/1671
f 1674/1674/1674 1673/1673/1673 1671/1671/1671
f 1674/1674/1674 1671/1671/1671 1675/1675/1675
f 1676/1676/1676 1678/1678/1678 1677/1677/1677
f 1679/1679/1679 1681/1681/1681 1680/1680/1680
f 1682/1682/1682 1684/1684/1684 1683/1683/1683
g Combined_Mesh_(root:_scene)_62
usemtl Combined_Mesh_(root:_scene)_62
usemap Combined_Mesh_(root:_scene)_62
f 1685/1685/1685 1687/1687/1687 1686/1686/1686
f 1686/1686/1686 1687/1687/1687 1688/1688/1688
f 1689/1689/1689 1691/1691/1691 1690/1690/1690
f 1690/1690/1690 1691/1691/1691 1692/1692/1692
f 1693/1693/1693 1695/1695/1695 1694/1694/1694
f 1694/1694/1694 1695/1695/1695 1696/1696/1696
f 1697/1697/1697 1699/1699/1699 1698/1698/1698
f 1698/1698/1698 1699/1699/1699 1700/1700/1700
f 1701/1701/1701 1703/1703/1703 1702/1702/1702
f 1702/1702/1702 1703/1703/1703 1704/1704/1704
g Combined_Mesh_(root:_scene)_63
usemtl Combined_Mesh_(root:_scene)_63
usemap Combined_Mesh_(root:_scene)_63
f 1705/1705/1705 1707/1707/1707 1706/1706/1706
f 1706/1706/1706 1707/1707/1707 1708/1708/1708
g Combined_Mesh_(root:_scene)_64
usemtl Combined_Mesh_(root:_scene)_64
usemap Combined_Mesh_(root:_scene)_64
f 1709/1709/1709 1711/1711/1711 1710/1710/1710
f 1712/1712/1712 1713/1713/1713 1709/1709/1709
f 1709/1709/1709 1713/1713/1713 1711/1711/1711
f 1714/1714/1714 1716/1716/1716 1715/1715/1715
f 1717/1717/1717 1716/1716/1716 1714/1714/1714
g Combined_Mesh_(root:_scene)_65
usemtl Combined_Mesh_(root:_scene)_65
usemap Combined_Mesh_(root:_scene)_65
f 1718/1718/1718 1720/1720/1720 1719/1719/1719
f 1718/1718/1718 1719/1719/1719 1721/1721/1721
f 1722/1722/1722 1724/1724/1724 1723/1723/1723
f 1722/1722/1722 1723/1723/1723 1725/1725/1725
f 1726/1726/1726 1728/1728/1728 1727/1727/1727
f 1726/1726/1726 1727/1727/1727 1729/1729/1729
