#Combined_Mesh_(root:_scene).obj

v 0 0 0
v -30 0 0
v 0 0 10
v -30 0 10
v 0 0 6
v -30 0 6
v 0 5 6
v -30 5 6
v -30 8 10
v 0 8 10
v 0 5 10
v -30 5 10
v -30 5 10
v 0 5 10
v -30 5 6
v 0 5 6
v 0 0 10
v -30 0 10
v 0 0 6
v -30 0 6
v 0 8 10
v -30 8 10
v 0 8 9
v -30 8 9
v -30 7 0
v 0 7 0
v 0 7 9
v -30 7 9
v -30 7 9
v 0 7 9
v -30 8 9
v 0 8 9
v -20 23 78.62
v -24 23 78.62
v -20 26.75047 77.31186
v -24 26.75047 77.31186
v -24 23 78.62
v -24 21.76852 74.81615
v -24 26.75047 77.31186
v -24 25.51899 73.508
v -24 21.76852 74.81615
v -20 21.76852 74.81615
v -24 25.51899 73.508
v -20 25.51899 73.508
v -20 21.76852 74.81615
v -20 23 78.62
v -20 25.51899 73.508
v -20 26.75047 77.31186
v -20 26.75047 77.31186
v -24 26.75047 77.31186
v -20 25.51899 73.508
v -24 25.51899 73.508
v -20 21.76852 74.81615
v -24 21.76852 74.81615
v -20 23 78.62
v -24 23 78.62
v -19 17.27 61.65
v -23 17.27 61.65
v -19 20.99946 60.28311
v -23 20.99946 60.28311
v -23 17.27 61.65
v -23 15.97892 57.86596
v -23 20.99946 60.28311
v -23 19.70838 56.49907
v -23 15.97892 57.86596
v -19 15.97892 57.86596
v -23 19.70838 56.49907
v -19 19.70838 56.49907
v -19 15.97892 57.86596
v -19 17.27 61.65
v -19 19.70838 56.49907
v -19 20.99946 60.28311
v -19 20.99946 60.28311
v -23 20.99946 60.28311
v -19 19.70838 56.49907
v -23 19.70838 56.49907
v -19 15.97892 57.86596
v -23 15.97892 57.86596
v -19 17.27 61.65
v -23 17.27 61.65
v -12 5.28 26.63
v -16 5.28 26.63
v -12 9.009459 25.26311
v -16 9.009459 25.26311
v -16 5.28 26.63
v -16 3.988923 22.84595
v -16 9.009459 25.26311
v -16 7.718384 21.47906
v -16 3.988923 22.84595
v -12 3.988923 22.84595
v -16 7.718384 21.47906
v -12 7.718384 21.47906
v -12 3.988923 22.84595
v -12 5.28 26.63
v -12 7.718384 21.47906
v -12 9.009459 25.26311
v -12 9.009459 25.26311
v -16 9.009459 25.26311
v -12 7.718384 21.47906
v -16 7.718384 21.47906
v -12 3.988923 22.84595
v -16 3.988923 22.84595
v -12 5.28 26.63
v -16 5.28 26.63
v -20 9.21 38.16
v -24 9.21 38.16
v -20 12.93946 36.79311
v -24 12.93946 36.79311
v -24 9.21 38.16
v -24 7.918923 34.37595
v -24 12.93946 36.79311
v -24 11.64838 33.00906
v -24 7.918923 34.37595
v -20 7.918923 34.37595
v -24 11.64838 33.00906
v -20 11.64838 33.00906
v -20 7.918923 34.37595
v -20 9.21 38.16
v -20 11.64838 33.00906
v -20 12.93946 36.79311
v -20 12.93946 36.79311
v -24 12.93946 36.79311
v -20 11.64838 33.00906
v -24 11.64838 33.00906
v -20 7.918923 34.37595
v -24 7.918923 34.37595
v -20 9.21 38.16
v -24 9.21 38.16
v -15 25.47 86.1
v -19 25.47 86.1
v -15 29.22047 84.79185
v -19 29.22047 84.79185
v -19 25.47 86.1
v -19 24.23852 82.29614
v -19 29.22047 84.79185
v -19 27.98899 80.988
v -19 24.23852 82.29614
v -15 24.23852 82.29614
v -19 27.98899 80.988
v -15 27.98899 80.988
v -15 24.23852 82.29614
v -15 25.47 86.1
v -15 27.98899 80.988
v -15 29.22047 84.79185
v -15 29.22047 84.79185
v -19 29.22047 84.79185
v -15 27.98899 80.988
v -19 27.98899 80.988
v -15 24.23852 82.29614
v -19 24.23852 82.29614
v -15 25.47 86.1
v -19 25.47 86.1
v -17 11.84 45.62
v -21 11.84 45.62
v -17 15.56946 44.25311
v -21 15.56946 44.25311
v -21 11.84 45.62
v -21 10.54892 41.83596
v -21 15.56946 44.25311
v -21 14.27838 40.46907
v -21 10.54892 41.83596
v -17 10.54892 41.83596
v -21 14.27838 40.46907
v -17 14.27838 40.46907
v -17 10.54892 41.83596
v -17 11.84 45.62
v -17 14.27838 40.46907
v -17 15.56946 44.25311
v -17 15.56946 44.25311
v -21 15.56946 44.25311
v -17 14.27838 40.46907
v -21 14.27838 40.46907
v -17 10.54892 41.83596
v -21 10.54892 41.83596
v -17 11.84 45.62
v -21 11.84 45.62
v -9 8.53 36.13
v -13 8.53 36.13
v -9 12.25946 34.76311
v -13 12.25946 34.76311
v -13 8.53 36.13
v -13 7.238923 32.34595
v -13 12.25946 34.76311
v -13 10.96838 30.97906
v -13 7.238923 32.34595
v -9 7.238923 32.34595
v -13 10.96838 30.97906
v -9 10.96838 30.97906
v -9 7.238923 32.34595
v -9 8.53 36.13
v -9 10.96838 30.97906
v -9 12.25946 34.76311
v -9 12.25946 34.76311
v -13 12.25946 34.76311
v -9 10.96838 30.97906
v -13 10.96838 30.97906
v -9 7.238923 32.34595
v -13 7.238923 32.34595
v -9 8.53 36.13
v -13 8.53 36.13
v -9 21.95 75.6
v -13 21.95 75.6
v -9 25.70047 74.29185
v -13 25.70047 74.29185
v -13 21.95 75.6
v -13 20.71852 71.79614
v -13 25.70047 74.29185
v -13 24.46899 70.488
v -13 20.71852 71.79614
v -9 20.71852 71.79614
v -13 24.46899 70.488
v -9 24.46899 70.488
v -9 20.71852 71.79614
v -9 21.95 75.6
v -9 24.46899 70.488
v -9 25.70047 74.29185
v -9 25.70047 74.29185
v -13 25.70047 74.29185
v -9 24.46899 70.488
v -13 24.46899 70.488
v -9 20.71852 71.79614
v -13 20.71852 71.79614
v -9 21.95 75.6
v -13 21.95 75.6
v 0 22.46 77.61
v -4 22.46 77.61
v 0 26.18946 76.24311
v -4 26.18946 76.24311
v -4 22.46 77.61
v -4 21.16892 73.82596
v -4 26.18946 76.24311
v -4 24.89838 72.45906
v -4 21.16892 73.82596
v 0 21.16892 73.82596
v -4 24.89838 72.45906
v 0 24.89838 72.45906
v 0 21.16892 73.82596
v 0 22.46 77.61
v 0 24.89838 72.45906
v 0 26.18946 76.24311
v 0 26.18946 76.24311
v -4 26.18946 76.24311
v 0 24.89838 72.45906
v -4 24.89838 72.45906
v 0 21.16892 73.82596
v -4 21.16892 73.82596
v 0 22.46 77.61
v -4 22.46 77.61
v -2 13.79 51.17
v -6 13.79 51.17
v -2 17.51946 49.80311
v -6 17.51946 49.80311
v -6 13.79 51.17
v -6 12.49892 47.38596
v -6 17.51946 49.80311
v -6 16.22838 46.01907
v -6 12.49892 47.38596
v -2 12.49892 47.38596
v -6 16.22838 46.01907
v -2 16.22838 46.01907
v -2 12.49892 47.38596
v -2 13.79 51.17
v -2 16.22838 46.01907
v -2 17.51946 49.80311
v -2 17.51946 49.80311
v -6 17.51946 49.80311
v -2 16.22838 46.01907
v -6 16.22838 46.01907
v -2 12.49892 47.38596
v -6 12.49892 47.38596
v -2 13.79 51.17
v -6 13.79 51.17
v -3 5 25.67
v -7 5 25.67
v -3 8.729459 24.30311
v -7 8.729459 24.30311
v -7 5 25.67
v -7 3.708923 21.88595
v -7 8.729459 24.30311
v -7 7.438384 20.51906
v -7 3.708923 21.88595
v -3 3.708923 21.88595
v -7 7.438384 20.51906
v -3 7.438384 20.51906
v -3 3.708923 21.88595
v -3 5 25.67
v -3 7.438384 20.51906
v -3 8.729459 24.30311
v -3 8.729459 24.30311
v -7 8.729459 24.30311
v -3 7.438384 20.51906
v -7 7.438384 20.51906
v -3 3.708923 21.88595
v -7 3.708923 21.88595
v -3 5 25.67
v -7 5 25.67
v -13 27.67 92.69
v -17 27.67 92.69
v -13 31.32836 91.43269
v -17 31.32836 91.43269
v -17 27.67 92.69
v -17 27.3527 91.74168
v -17 31.32836 91.43269
v -17 31.01105 90.48437
v -17 27.3527 91.74168
v -13 27.3527 91.74168
v -17 31.01105 90.48437
v -13 31.01105 90.48437
v -13 27.3527 91.74168
v -13 27.67 92.69
v -13 31.01105 90.48437
v -13 31.32836 91.43269
v -13 31.32836 91.43269
v -17 31.32836 91.43269
v -13 31.01105 90.48437
v -17 31.01105 90.48437
v -13 27.3527 91.74168
v -17 27.3527 91.74168
v -13 27.67 92.69
v -17 27.67 92.69
v -13 33.4 109.62
v -17 33.4 109.62
v -13 37.05836 108.3627
v -17 37.05836 108.3627
v -17 33.4 109.62
v -17 33.0827 108.6717
v -17 37.05836 108.3627
v -17 36.74105 107.4144
v -17 33.0827 108.6717
v -13 33.0827 108.6717
v -17 36.74105 107.4144
v -13 36.74105 107.4144
v -13 33.0827 108.6717
v -13 33.4 109.62
v -13 36.74105 107.4144
v -13 37.05836 108.3627
v -13 37.05836 108.3627
v -17 37.05836 108.3627
v -13 36.74105 107.4144
v -17 36.74105 107.4144
v -13 33.0827 108.6717
v -17 33.0827 108.6717
v -13 33.4 109.62
v -17 33.4 109.62
v -15 19.38 68.13
v -19 19.38 68.13
v -15 23.03836 66.87269
v -19 23.03836 66.87269
v -19 19.38 68.13
v -19 19.06269 67.18167
v -19 23.03836 66.87269
v -19 22.72105 65.92436
v -19 19.06269 67.18167
v -15 19.06269 67.18167
v -19 22.72105 65.92436
v -15 22.72105 65.92436
v -15 19.06269 67.18167
v -15 19.38 68.13
v -15 22.72105 65.92436
v -15 23.03836 66.87269
v -15 23.03836 66.87269
v -19 23.03836 66.87269
v -15 22.72105 65.92436
v -19 22.72105 65.92436
v -15 19.06269 67.18167
v -19 19.06269 67.18167
v -15 19.38 68.13
v -19 19.38 68.13
v -1.749 8.09 34.22
v -5.749 8.09 34.22
v -1.749 11.74836 32.96269
v -5.749 11.74836 32.96269
v -5.749 8.09 34.22
v -5.749 7.772696 33.27168
v -5.749 11.74836 32.96269
v -5.749 11.43105 32.01437
v -5.749 7.772696 33.27168
v -1.749 7.772696 33.27168
v -5.749 11.43105 32.01437
v -1.749 11.43105 32.01437
v -1.749 7.772696 33.27168
v -1.749 8.09 34.22
v -1.749 11.43105 32.01437
v -1.749 11.74836 32.96269
v -1.749 11.74836 32.96269
v -5.749 11.74836 32.96269
v -1.749 11.43105 32.01437
v -5.749 11.43105 32.01437
v -1.749 7.772696 33.27168
v -5.749 7.772696 33.27168
v -1.749 8.09 34.22
v -5.749 8.09 34.22
v -4 15.58 56.81
v -8 15.58 56.81
v -4 19.23836 55.55269
v -8 19.23836 55.55269
v -8 15.58 56.81
v -8 15.2627 55.86168
v -8 19.23836 55.55269
v -8 18.92105 54.60437
v -8 15.2627 55.86168
v -4 15.2627 55.86168
v -8 18.92105 54.60437
v -4 18.92105 54.60437
v -4 15.2627 55.86168
v -4 15.58 56.81
v -4 18.92105 54.60437
v -4 19.23836 55.55269
v -4 19.23836 55.55269
v -8 19.23836 55.55269
v -4 18.92105 54.60437
v -8 18.92105 54.60437
v -4 15.2627 55.86168
v -8 15.2627 55.86168
v -4 15.58 56.81
v -8 15.58 56.81
v -11.75 3.373 20.129
v -15.75 3.373 20.129
v -11.75 7.031358 18.87169
v -15.75 7.031358 18.87169
v -15.75 3.373 20.129
v -15.75 3.055695 19.18068
v -15.75 7.031358 18.87169
v -15.75 6.714053 17.92337
v -15.75 3.055695 19.18068
v -11.75 3.055695 19.18068
v -15.75 6.714053 17.92337
v -11.75 6.714053 17.92337
v -11.75 3.055695 19.18068
v -11.75 3.373 20.129
v -11.75 6.714053 17.92337
v -11.75 7.031358 18.87169
v -11.75 7.031358 18.87169
v -15.75 7.031358 18.87169
v -11.75 6.714053 17.92337
v -15.75 6.714053 17.92337
v -11.75 3.055695 19.18068
v -15.75 3.055695 19.18068
v -11.75 3.373 20.129
v -15.75 3.373 20.129
v 0 50.75 120.5
v -30 50.75 120.5
v -30 33.75 120.5
v 0 33.75 120.5
v -30 50.75 110.5
v -30 17.25 10
v -30 0 10
v -30 33.75 110.5
v 0 17.25 10
v 0 50.75 110.5
v 0 33.75 110.5
v 0 0 10
v -30 50.75 110.5
v -30 33.75 110.5
v -30 50.75 120.5
v -30 33.75 120.5
v 0 33.75 110.5
v 0 50.75 110.5
v 0 33.75 120.5
v 0 50.75 120.5
v 0 0 0
v 0 17.25 10
v 0 0 10
v 0 17.25 0
v -30 0 0
v 0 17.25 0
v 0 0 0
v -30 17.25 0
v -30 0 10
v -30 17.25 0
v -30 0 0
v -30 17.25 10
v 0 33.75 110.5
v -30 33.75 110.5
v -30 0 10
v 0 0 10
v -30 33.75 110.5
v 0 33.75 110.5
v -30 33.75 120.5
v 0 33.75 120.5
v -4.757 6.511 29.494
v -8.757 6.511 29.494
v -4.757 10.16936 28.23669
v -8.757 10.16936 28.23669
v -8.757 6.511 29.494
v -8.757 6.193696 28.54568
v -8.757 10.16936 28.23669
v -8.757 9.852053 27.28837
v -8.757 6.193696 28.54568
v -4.757 6.193696 28.54568
v -8.757 9.852053 27.28837
v -4.757 9.852053 27.28837
v -4.757 6.193696 28.54568
v -4.757 6.511 29.494
v -4.757 9.852053 27.28837
v -4.757 10.16936 28.23669
v -4.757 10.16936 28.23669
v -8.757 10.16936 28.23669
v -4.757 9.852053 27.28837
v -8.757 9.852053 27.28837
v -4.757 6.193696 28.54568
v -8.757 6.193696 28.54568
v -4.757 6.511 29.494
v -8.757 6.511 29.494
v -15 6.47 29.37
v -19 6.47 29.37
v -15 10.12836 28.11269
v -19 10.12836 28.11269
v -19 6.47 29.37
v -19 6.152695 28.42168
v -19 10.12836 28.11269
v -19 9.811052 27.16437
v -19 6.152695 28.42168
v -15 6.152695 28.42168
v -19 9.811052 27.16437
v -15 9.811052 27.16437
v -15 6.152695 28.42168
v -15 6.47 29.37
v -15 9.811052 27.16437
v -15 10.12836 28.11269
v -15 10.12836 28.11269
v -19 10.12836 28.11269
v -15 9.811052 27.16437
v -19 9.811052 27.16437
v -15 6.152695 28.42168
v -19 6.152695 28.42168
v -15 6.47 29.37
v -19 6.47 29.37
v -18 31.5 103.93
v -22 31.5 103.93
v -18 35.15836 102.6727
v -22 35.15836 102.6727
v -22 31.5 103.93
v -22 31.1827 102.9817
v -22 35.15836 102.6727
v -22 34.84105 101.7244
v -22 31.1827 102.9817
v -18 31.1827 102.9817
v -22 34.84105 101.7244
v -18 34.84105 101.7244
v -18 31.1827 102.9817
v -18 31.5 103.93
v -18 34.84105 101.7244
v -18 35.15836 102.6727
v -18 35.15836 102.6727
v -22 35.15836 102.6727
v -18 34.84105 101.7244
v -22 34.84105 101.7244
v -18 31.1827 102.9817
v -22 31.1827 102.9817
v -18 31.5 103.93
v -22 31.5 103.93
v -5 28.963 96.263
v -9 28.963 96.263
v -5 32.62136 95.00569
v -9 32.62136 95.00569
v -9 28.963 96.263
v -9 28.64569 95.31467
v -9 32.62136 95.00569
v -9 32.30405 94.05737
v -9 28.64569 95.31467
v -5 28.64569 95.31467
v -9 32.30405 94.05737
v -5 32.30405 94.05737
v -5 28.64569 95.31467
v -5 28.963 96.263
v -5 32.30405 94.05737
v -5 32.62136 95.00569
v -5 32.62136 95.00569
v -9 32.62136 95.00569
v -5 32.30405 94.05737
v -9 32.30405 94.05737
v -5 28.64569 95.31467
v -9 28.64569 95.31467
v -5 28.963 96.263
v -9 28.963 96.263
v -4 24.813 84.14
v -8 24.813 84.14
v -4 28.47136 82.88269
v -8 28.47136 82.88269
v -8 24.813 84.14
v -8 24.4957 83.19167
v -8 28.47136 82.88269
v -8 28.15405 81.93436
v -8 24.4957 83.19167
v -4 24.4957 83.19167
v -8 28.15405 81.93436
v -4 28.15405 81.93436
v -4 24.4957 83.19167
v -4 24.813 84.14
v -4 28.15405 81.93436
v -4 28.47136 82.88269
v -4 28.47136 82.88269
v -8 28.47136 82.88269
v -4 28.15405 81.93436
v -8 28.15405 81.93436
v -4 24.4957 83.19167
v -8 24.4957 83.19167
v -4 24.813 84.14
v -8 24.813 84.14
v -26 26.75 89.91
v -30 26.75 89.91
v -26 30.40836 88.65269
v -30 30.40836 88.65269
v -30 26.75 89.91
v -30 26.4327 88.96168
v -30 30.40836 88.65269
v -30 30.09105 87.70437
v -30 26.4327 88.96168
v -26 26.4327 88.96168
v -30 30.09105 87.70437
v -26 30.09105 87.70437
v -26 26.4327 88.96168
v -26 26.75 89.91
v -26 30.09105 87.70437
v -26 30.40836 88.65269
v -26 30.40836 88.65269
v -30 30.40836 88.65269
v -26 30.09105 87.70437
v -30 30.09105 87.70437
v -26 26.4327 88.96168
v -30 26.4327 88.96168
v -26 26.75 89.91
v -30 26.75 89.91
v -23.75 4.66 23.948
v -27.75 4.66 23.948
v -23.75 8.318357 22.69069
v -27.75 8.318357 22.69069
v -27.75 4.66 23.948
v -27.75 4.342695 22.99968
v -27.75 8.318357 22.69069
v -27.75 8.001053 21.74237
v -27.75 4.342695 22.99968
v -23.75 4.342695 22.99968
v -27.75 8.001053 21.74237
v -23.75 8.001053 21.74237
v -23.75 4.342695 22.99968
v -23.75 4.66 23.948
v -23.75 8.001053 21.74237
v -23.75 8.318357 22.69069
v -23.75 8.318357 22.69069
v -27.75 8.318357 22.69069
v -23.75 8.001053 21.74237
v -27.75 8.001053 21.74237
v -23.75 4.342695 22.99968
v -27.75 4.342695 22.99968
v -23.75 4.66 23.948
v -27.75 4.66 23.948
v -4 19.38 68.13
v -8 19.38 68.13
v -4 23.03836 66.87269
v -8 23.03836 66.87269
v -8 19.38 68.13
v -8 19.06269 67.18167
v -8 23.03836 66.87269
v -8 22.72105 65.92436
v -8 19.06269 67.18167
v -4 19.06269 67.18167
v -8 22.72105 65.92436
v -4 22.72105 65.92436
v -4 19.06269 67.18167
v -4 19.38 68.13
v -4 22.72105 65.92436
v -4 23.03836 66.87269
v -4 23.03836 66.87269
v -8 23.03836 66.87269
v -4 22.72105 65.92436
v -8 22.72105 65.92436
v -4 19.06269 67.18167
v -8 19.06269 67.18167
v -4 19.38 68.13
v -8 19.38 68.13
v -3 33.393 109.62
v -7 33.393 109.62
v -3 37.05136 108.3627
v -7 37.05136 108.3627
v -7 33.393 109.62
v -7 33.0757 108.6717
v -7 37.05136 108.3627
v -7 36.73405 107.4144
v -7 33.0757 108.6717
v -3 33.0757 108.6717
v -7 36.73405 107.4144
v -3 36.73405 107.4144
v -3 33.0757 108.6717
v -3 33.393 109.62
v -3 36.73405 107.4144
v -3 37.05136 108.3627
v -3 37.05136 108.3627
v -7 37.05136 108.3627
v -3 36.73405 107.4144
v -7 36.73405 107.4144
v -3 33.0757 108.6717
v -7 33.0757 108.6717
v -3 33.393 109.62
v -7 33.393 109.62
v -23 13.68 51.09
v -27 13.68 51.09
v -23 17.33836 49.83269
v -27 17.33836 49.83269
v -27 13.68 51.09
v -27 13.3627 50.14168
v -27 17.33836 49.83269
v -27 17.02105 48.88437
v -27 13.3627 50.14168
v -23 13.3627 50.14168
v -27 17.02105 48.88437
v -23 17.02105 48.88437
v -23 13.3627 50.14168
v -23 13.68 51.09
v -23 17.02105 48.88437
v -23 17.33836 49.83269
v -23 17.33836 49.83269
v -27 17.33836 49.83269
v -23 17.02105 48.88437
v -27 17.02105 48.88437
v -23 13.3627 50.14168
v -27 13.3627 50.14168
v -23 13.68 51.09
v -27 13.68 51.09
v -15.75 2.372 17.125
v -19.75 2.372 17.125
v -15.75 6.030358 15.86769
v -19.75 6.030358 15.86769
v -19.75 2.372 17.125
v -19.75 2.054695 16.17668
v -19.75 6.030358 15.86769
v -19.75 5.713053 14.91937
v -19.75 2.054695 16.17668
v -15.75 2.054695 16.17668
v -19.75 5.713053 14.91937
v -15.75 5.713053 14.91937
v -15.75 2.054695 16.17668
v -15.75 2.372 17.125
v -15.75 5.713053 14.91937
v -15.75 6.030358 15.86769
v -15.75 6.030358 15.86769
v -19.75 6.030358 15.86769
v -15.75 5.713053 14.91937
v -19.75 5.713053 14.91937
v -15.75 2.054695 16.17668
v -19.75 2.054695 16.17668
v -15.75 2.372 17.125
v -19.75 2.372 17.125
v -5 10.22 40.75
v -9 10.22 40.75
v -5 13.87836 39.49269
v -9 13.87836 39.49269
v -9 10.22 40.75
v -9 9.902696 39.80168
v -9 13.87836 39.49269
v -9 13.56105 38.54437
v -9 9.902696 39.80168
v -5 9.902696 39.80168
v -9 13.56105 38.54437
v -5 13.56105 38.54437
v -5 9.902696 39.80168
v -5 10.22 40.75
v -5 13.56105 38.54437
v -5 13.87836 39.49269
v -5 13.87836 39.49269
v -9 13.87836 39.49269
v -5 13.56105 38.54437
v -9 13.56105 38.54437
v -5 9.902696 39.80168
v -9 9.902696 39.80168
v -5 10.22 40.75
v -9 10.22 40.75
v -22 33.4 109.62
v -26 33.4 109.62
v -22 37.05836 108.3627
v -26 37.05836 108.3627
v -26 33.4 109.62
v -26 33.0827 108.6717
v -26 37.05836 108.3627
v -26 36.74105 107.4144
v -26 33.0827 108.6717
v -22 33.0827 108.6717
v -26 36.74105 107.4144
v -22 36.74105 107.4144
v -22 33.0827 108.6717
v -22 33.4 109.62
v -22 36.74105 107.4144
v -22 37.05836 108.3627
v -22 37.05836 108.3627
v -26 37.05836 108.3627
v -22 36.74105 107.4144
v -26 36.74105 107.4144
v -22 33.0827 108.6717
v -26 33.0827 108.6717
v -22 33.4 109.62
v -26 33.4 109.62
v -22 28.96 96.43
v -26 28.96 96.43
v -22 32.61836 95.17269
v -26 32.61836 95.17269
v -26 28.96 96.43
v -26 28.64269 95.48167
v -26 32.61836 95.17269
v -26 32.30105 94.22437
v -26 28.64269 95.48167
v -22 28.64269 95.48167
v -26 32.30105 94.22437
v -22 32.30105 94.22437
v -22 28.64269 95.48167
v -22 28.96 96.43
v -22 32.30105 94.22437
v -22 32.61836 95.17269
v -22 32.61836 95.17269
v -26 32.61836 95.17269
v -22 32.30105 94.22437
v -26 32.30105 94.22437
v -22 28.64269 95.48167
v -26 28.64269 95.48167
v -22 28.96 96.43
v -26 28.96 96.43
v -7 31.81 104.88
v -11 31.81 104.88
v -7 35.46836 103.6227
v -11 35.46836 103.6227
v -11 31.81 104.88
v -11 31.49269 103.9317
v -11 35.46836 103.6227
v -11 35.15105 102.6744
v -11 31.49269 103.9317
v -7 31.49269 103.9317
v -11 35.15105 102.6744
v -7 35.15105 102.6744
v -7 31.49269 103.9317
v -7 31.81 104.88
v -7 35.15105 102.6744
v -7 35.46836 103.6227
v -7 35.46836 103.6227
v -11 35.46836 103.6227
v -7 35.15105 102.6744
v -11 35.15105 102.6744
v -7 31.49269 103.9317
v -11 31.49269 103.9317
v -7 31.81 104.88
v -11 31.81 104.88
v -23 6.787 30.32
v -27 6.787 30.32
v -23 10.44536 29.06269
v -27 10.44536 29.06269
v -27 6.787 30.32
v -27 6.469696 29.37168
v -27 10.44536 29.06269
v -27 10.12805 28.11437
v -27 6.469696 29.37168
v -23 6.469696 29.37168
v -27 10.12805 28.11437
v -23 10.12805 28.11437
v -23 6.469696 29.37168
v -23 6.787 30.32
v -23 10.12805 28.11437
v -23 10.44536 29.06269
v -23 10.44536 29.06269
v -27 10.44536 29.06269
v -23 10.12805 28.11437
v -27 10.12805 28.11437
v -23 6.469696 29.37168
v -27 6.469696 29.37168
v -23 6.787 30.32
v -27 6.787 30.32
v -6.75 2.722 18.177
v -10.75 2.722 18.177
v -6.75 6.380358 16.91969
v -10.75 6.380358 16.91969
v -10.75 2.722 18.177
v -10.75 2.404695 17.22868
v -10.75 6.380358 16.91969
v -10.75 6.063053 15.97137
v -10.75 2.404695 17.22868
v -6.75 2.404695 17.22868
v -10.75 6.063053 15.97137
v -6.75 6.063053 15.97137
v -6.75 2.404695 17.22868
v -6.75 2.722 18.177
v -6.75 6.063053 15.97137
v -6.75 6.380358 16.91969
v -6.75 6.380358 16.91969
v -10.75 6.380358 16.91969
v -6.75 6.063053 15.97137
v -10.75 6.063053 15.97137
v -6.75 2.404695 17.22868
v -10.75 2.404695 17.22868
v -6.75 2.722 18.177
v -10.75 2.722 18.177
v -21.75 1.696 15.099
v -25.75 1.696 15.099
v -21.75 5.354358 13.84169
v -25.75 5.354358 13.84169
v -25.75 1.696 15.099
v -25.75 1.378695 14.15068
v -25.75 5.354358 13.84169
v -25.75 5.037053 12.89337
v -25.75 1.378695 14.15068
v -21.75 1.378695 14.15068
v -25.75 5.037053 12.89337
v -21.75 5.037053 12.89337
v -21.75 1.378695 14.15068
v -21.75 1.696 15.099
v -21.75 5.037053 12.89337
v -21.75 5.354358 13.84169
v -21.75 5.354358 13.84169
v -25.75 5.354358 13.84169
v -21.75 5.037053 12.89337
v -25.75 5.037053 12.89337
v -21.75 1.378695 14.15068
v -25.75 1.378695 14.15068
v -21.75 1.696 15.099
v -25.75 1.696 15.099
v -10 11.83 45.56
v -14 11.83 45.56
v -10 15.48836 44.30269
v -14 15.48836 44.30269
v -14 11.83 45.56
v -14 11.5127 44.61168
v -14 15.48836 44.30269
v -14 15.17105 43.35437
v -14 11.5127 44.61168
v -10 11.5127 44.61168
v -14 15.17105 43.35437
v -10 15.17105 43.35437
v -10 11.5127 44.61168
v -10 11.83 45.56
v -10 15.17105 43.35437
v -10 15.48836 44.30269
v -10 15.48836 44.30269
v -14 15.48836 44.30269
v -10 15.17105 43.35437
v -14 15.17105 43.35437
v -10 11.5127 44.61168
v -14 11.5127 44.61168
v -10 11.83 45.56
v -14 11.83 45.56
v -9 16.41 59.64
v -13 16.41 59.64
v -9 20.06836 58.38269
v -13 20.06836 58.38269
v -13 16.41 59.64
v -13 16.0927 58.69168
v -13 20.06836 58.38269
v -13 19.75105 57.43437
v -13 16.0927 58.69168
v -9 16.0927 58.69168
v -13 19.75105 57.43437
v -9 19.75105 57.43437
v -9 16.0927 58.69168
v -9 16.41 59.64
v -9 19.75105 57.43437
v -9 20.06836 58.38269
v -9 20.06836 58.38269
v -13 20.06836 58.38269
v -9 19.75105 57.43437
v -13 19.75105 57.43437
v -9 16.0927 58.69168
v -13 16.0927 58.69168
v -9 16.41 59.64
v -13 16.41 59.64

vn 0 -1 0
vn 0 -1 0
vn 0 -1 0
vn 0 -1 0
vn 0 0 1
vn 0 0 1
vn 0 0 1
vn 0 0 1
vn 0 0 1
vn 0 0 1
vn 0 0 1
vn 0 0 1
vn 0 -1 0
vn 0 -1 0
vn 0 -1 0
vn 0 -1 0
vn 0 1 0
vn 0 1 0
vn 0 1 0
vn 0 1 0
vn 0 1 0
vn 0 1 0
vn 0 1 0
vn 0 1 0
vn 0 1 0
vn 0 1 0
vn 0 1 0
vn 0 1 0
vn 0 0 -1
vn 0 0 -1
vn 0 0 -1
vn 0 0 -1
vn 0 0.3293358 0.9442128
vn 0 0.3293358 0.9442128
vn 0 0.3293358 0.9442128
vn 0 0.3293358 0.9442128
vn -0.9999999 0 0
vn -1 0 0
vn -1 0 0
vn -1 0 0
vn 0 -0.3293358 -0.9442129
vn 0 -0.3293358 -0.9442129
vn 0 -0.3293358 -0.9442129
vn 0 -0.3293358 -0.9442129
vn 1 0 0
vn 1 0 0
vn 1 0 0
vn 0.9999999 0 0
vn 0 0.9513845 -0.3080057
vn 0 0.9513845 -0.3080057
vn 0 0.9513845 -0.3080057
vn 0 0.9513845 -0.3080057
vn 0 -0.9513844 0.3080061
vn 0 -0.9513844 0.3080061
vn 0 -0.9513844 0.3080061
vn 0 -0.9513844 0.3080061
vn 0 0.3441262 0.9389233
vn 0 0.3441262 0.9389233
vn 0 0.3441262 0.9389233
vn 0 0.3441262 0.9389233
vn -0.9999999 0 0
vn -1 0 0
vn -1 0 0
vn -1 0 0
vn 0 -0.3441263 -0.9389234
vn 0 -0.3441263 -0.9389234
vn 0 -0.3441263 -0.9389234
vn 0 -0.3441263 -0.9389234
vn 1 0 0
vn 1 0 0
vn 1 0 0
vn 0.9999999 0 0
vn 0 0.9464293 -0.3229114
vn 0 0.9464293 -0.3229114
vn 0 0.9464293 -0.3229114
vn 0 0.9464293 -0.3229114
vn 0 -0.9464291 0.3229118
vn 0 -0.9464291 0.3229118
vn 0 -0.9464291 0.3229118
vn 0 -0.9464291 0.3229118
vn 0 0.3441262 0.9389233
vn 0 0.3441262 0.9389233
vn 0 0.3441262 0.9389233
vn 0 0.3441262 0.9389233
vn -0.9999999 0 0
vn -1 0 0
vn -1 0 0
vn -1 0 0
vn 0 -0.3441263 -0.9389234
vn 0 -0.3441263 -0.9389234
vn 0 -0.3441263 -0.9389234
vn 0 -0.3441263 -0.9389234
vn 1 0 0
vn 1 0 0
vn 1 0 0
vn 0.9999999 0 0
vn 0 0.9464293 -0.3229114
vn 0 0.9464293 -0.3229114
vn 0 0.9464293 -0.3229114
vn 0 0.9464293 -0.3229114
vn 0 -0.9464291 0.3229118
vn 0 -0.9464291 0.3229118
vn 0 -0.9464291 0.3229118
vn 0 -0.9464291 0.3229118
vn 0 0.3441262 0.9389233
vn 0 0.3441262 0.9389233
vn 0 0.3441262 0.9389233
vn 0 0.3441262 0.9389233
vn -0.9999999 0 0
vn -1 0 0
vn -1 0 0
vn -1 0 0
vn 0 -0.3441263 -0.9389234
vn 0 -0.3441263 -0.9389234
vn 0 -0.3441263 -0.9389234
vn 0 -0.3441263 -0.9389234
vn 1 0 0
vn 1 0 0
vn 1 0 0
vn 0.9999999 0 0
vn 0 0.9464293 -0.3229114
vn 0 0.9464293 -0.3229114
vn 0 0.9464293 -0.3229114
vn 0 0.9464293 -0.3229114
vn 0 -0.9464291 0.3229118
vn 0 -0.9464291 0.3229118
vn 0 -0.9464291 0.3229118
vn 0 -0.9464291 0.3229118
vn 0 0.3293358 0.9442128
vn 0 0.3293358 0.9442128
vn 0 0.3293358 0.9442128
vn 0 0.3293358 0.9442128
vn -0.9999999 0 0
vn -1 0 0
vn -1 0 0
vn -1 0 0
vn 0 -0.3293358 -0.9442129
vn 0 -0.3293358 -0.9442129
vn 0 -0.3293358 -0.9442129
vn 0 -0.3293358 -0.9442129
vn 1 0 0
vn 1 0 0
vn 1 0 0
vn 0.9999999 0 0
vn 0 0.9513845 -0.3080057
vn 0 0.9513845 -0.3080057
vn 0 0.9513845 -0.3080057
vn 0 0.9513845 -0.3080057
vn 0 -0.9513844 0.3080061
vn 0 -0.9513844 0.3080061
vn 0 -0.9513844 0.3080061
vn 0 -0.9513844 0.3080061
vn 0 0.3441262 0.9389233
vn 0 0.3441262 0.9389233
vn 0 0.3441262 0.9389233
vn 0 0.3441262 0.9389233
vn -0.9999999 0 0
vn -1 0 0
vn -1 0 0
vn -1 0 0
vn 0 -0.3441263 -0.9389234
vn 0 -0.3441263 -0.9389234
vn 0 -0.3441263 -0.9389234
vn 0 -0.3441263 -0.9389234
vn 1 0 0
vn 1 0 0
vn 1 0 0
vn 0.9999999 0 0
vn 0 0.9464293 -0.3229114
vn 0 0.9464293 -0.3229114
vn 0 0.9464293 -0.3229114
vn 0 0.9464293 -0.3229114
vn 0 -0.9464291 0.3229118
vn 0 -0.9464291 0.3229118
vn 0 -0.9464291 0.3229118
vn 0 -0.9464291 0.3229118
vn 0 0.3441262 0.9389233
vn 0 0.3441262 0.9389233
vn 0 0.3441262 0.9389233
vn 0 0.3441262 0.9389233
vn -0.9999999 0 0
vn -1 0 0
vn -1 0 0
vn -1 0 0
vn 0 -0.3441263 -0.9389234
vn 0 -0.3441263 -0.9389234
vn 0 -0.3441263 -0.9389234
vn 0 -0.3441263 -0.9389234
vn 1 0 0
vn 1 0 0
vn 1 0 0
vn 0.9999999 0 0
vn 0 0.9464293 -0.3229114
vn 0 0.9464293 -0.3229114
vn 0 0.9464293 -0.3229114
vn 0 0.9464293 -0.3229114
vn 0 -0.9464291 0.3229118
vn 0 -0.9464291 0.3229118
vn 0 -0.9464291 0.3229118
vn 0 -0.9464291 0.3229118
vn 0 0.3293358 0.9442128
vn 0 0.3293358 0.9442128
vn 0 0.3293358 0.9442128
vn 0 0.3293358 0.9442128
vn -0.9999999 0 0
vn -1 0 0
vn -1 0 0
vn -1 0 0
vn 0 -0.3293358 -0.9442129
vn 0 -0.3293358 -0.9442129
vn 0 -0.3293358 -0.9442129
vn 0 -0.3293358 -0.9442129
vn 1 0 0
vn 1 0 0
vn 1 0 0
vn 0.9999999 0 0
vn 0 0.9513845 -0.3080057
vn 0 0.9513845 -0.3080057
vn 0 0.9513845 -0.3080057
vn 0 0.9513845 -0.3080057
vn 0 -0.9513844 0.3080061
vn 0 -0.9513844 0.3080061
vn 0 -0.9513844 0.3080061
vn 0 -0.9513844 0.3080061
vn 0 0.3441262 0.9389233
vn 0 0.3441262 0.9389233
vn 0 0.3441262 0.9389233
vn 0 0.3441262 0.9389233
vn -0.9999999 0 0
vn -1 0 0
vn -1 0 0
vn -1 0 0
vn 0 -0.3441263 -0.9389234
vn 0 -0.3441263 -0.9389234
vn 0 -0.3441263 -0.9389234
vn 0 -0.3441263 -0.9389234
vn 1 0 0
vn 1 0 0
vn 1 0 0
vn 0.9999999 0 0
vn 0 0.9464293 -0.3229114
vn 0 0.9464293 -0.3229114
vn 0 0.9464293 -0.3229114
vn 0 0.9464293 -0.3229114
vn 0 -0.9464291 0.3229118
vn 0 -0.9464291 0.3229118
vn 0 -0.9464291 0.3229118
vn 0 -0.9464291 0.3229118
vn 0 0.3441262 0.9389233
vn 0 0.3441262 0.9389233
vn 0 0.3441262 0.9389233
vn 0 0.3441262 0.9389233
vn -0.9999999 0 0
vn -1 0 0
vn -1 0 0
vn -1 0 0
vn 0 -0.3441263 -0.9389234
vn 0 -0.3441263 -0.9389234
vn 0 -0.3441263 -0.9389234
vn 0 -0.3441263 -0.9389234
vn 1 0 0
vn 1 0 0
vn 1 0 0
vn 0.9999999 0 0
vn 0 0.9464293 -0.3229114
vn 0 0.9464293 -0.3229114
vn 0 0.9464293 -0.3229114
vn 0 0.9464293 -0.3229114
vn 0 -0.9464291 0.3229118
vn 0 -0.9464291 0.3229118
vn 0 -0.9464291 0.3229118
vn 0 -0.9464291 0.3229118
vn 0 0.3441262 0.9389233
vn 0 0.3441262 0.9389233
vn 0 0.3441262 0.9389233
vn 0 0.3441262 0.9389233
vn -0.9999999 0 0
vn -1 0 0
vn -1 0 0
vn -1 0 0
vn 0 -0.3441263 -0.9389234
vn 0 -0.3441263 -0.9389234
vn 0 -0.3441263 -0.9389234
vn 0 -0.3441263 -0.9389234
vn 1 0 0
vn 1 0 0
vn 1 0 0
vn 0.9999999 0 0
vn 0 0.9464293 -0.3229114
vn 0 0.9464293 -0.3229114
vn 0 0.9464293 -0.3229114
vn 0 0.9464293 -0.3229114
vn 0 -0.9464291 0.3229118
vn 0 -0.9464291 0.3229118
vn 0 -0.9464291 0.3229118
vn 0 -0.9464291 0.3229118
vn 0 0.3250213 0.9457067
vn 0 0.3250213 0.9457067
vn 0 0.3250213 0.9457067
vn 0 0.3250213 0.9457067
vn -1 0 0
vn -0.9999999 0 0
vn -0.9999999 0 0
vn -1 0 0
vn 0 -0.3250214 -0.9457067
vn 0 -0.3250214 -0.9457067
vn 0 -0.3250214 -0.9457067
vn 0 -0.3250214 -0.9457067
vn 1 0 0
vn 0.9999999 0 0
vn 0.9999999 0 0
vn 1 0 0
vn 0 0.9483237 -0.3173046
vn 0 0.9483237 -0.3173046
vn 0 0.9483237 -0.3173046
vn 0 0.9483237 -0.3173046
vn 0 -0.9483237 0.3173046
vn 0 -0.9483237 0.3173046
vn 0 -0.9483237 0.3173046
vn 0 -0.9483237 0.3173046
vn 0 0.3250213 0.9457067
vn 0 0.3250213 0.9457067
vn 0 0.3250213 0.9457067
vn 0 0.3250213 0.9457067
vn -1 0 0
vn -0.9999999 0 0
vn -0.9999999 0 0
vn -1 0 0
vn 0 -0.3250214 -0.9457067
vn 0 -0.3250214 -0.9457067
vn 0 -0.3250214 -0.9457067
vn 0 -0.3250214 -0.9457067
vn 1 0 0
vn 0.9999999 0 0
vn 0.9999999 0 0
vn 1 0 0
vn 0 0.9483237 -0.3173046
vn 0 0.9483237 -0.3173046
vn 0 0.9483237 -0.3173046
vn 0 0.9483237 -0.3173046
vn 0 -0.9483237 0.3173046
vn 0 -0.9483237 0.3173046
vn 0 -0.9483237 0.3173046
vn 0 -0.9483237 0.3173046
vn 0 0.3250213 0.9457067
vn 0 0.3250213 0.9457067
vn 0 0.3250213 0.9457067
vn 0 0.3250213 0.9457067
vn -1 0 0
vn -0.9999999 0 0
vn -0.9999999 0 0
vn -1 0 0
vn 0 -0.3250214 -0.9457067
vn 0 -0.3250214 -0.9457067
vn 0 -0.3250214 -0.9457067
vn 0 -0.3250214 -0.9457067
vn 1 0 0
vn 0.9999999 0 0
vn 0.9999999 0 0
vn 1 0 0
vn 0 0.9483237 -0.3173046
vn 0 0.9483237 -0.3173046
vn 0 0.9483237 -0.3173046
vn 0 0.9483237 -0.3173046
vn 0 -0.9483237 0.3173046
vn 0 -0.9483237 0.3173046
vn 0 -0.9483237 0.3173046
vn 0 -0.9483237 0.3173046
vn 0 0.3250213 0.9457067
vn 0 0.3250213 0.9457067
vn 0 0.3250213 0.9457067
vn 0 0.3250213 0.9457067
vn -1 0 0
vn -0.9999999 0 0
vn -0.9999999 0 0
vn -1 0 0
vn 0 -0.3250214 -0.9457067
vn 0 -0.3250214 -0.9457067
vn 0 -0.3250214 -0.9457067
vn 0 -0.3250214 -0.9457067
vn 1 0 0
vn 0.9999999 0 0
vn 0.9999999 0 0
vn 1 0 0
vn 0 0.9483237 -0.3173046
vn 0 0.9483237 -0.3173046
vn 0 0.9483237 -0.3173046
vn 0 0.9483237 -0.3173046
vn 0 -0.9483237 0.3173046
vn 0 -0.9483237 0.3173046
vn 0 -0.9483237 0.3173046
vn 0 -0.9483237 0.3173046
vn 0 0.3250213 0.9457067
vn 0 0.3250213 0.9457067
vn 0 0.3250213 0.9457067
vn 0 0.3250213 0.9457067
vn -1 0 0
vn -0.9999999 0 0
vn -0.9999999 0 0
vn -1 0 0
vn 0 -0.3250214 -0.9457067
vn 0 -0.3250214 -0.9457067
vn 0 -0.3250214 -0.9457067
vn 0 -0.3250214 -0.9457067
vn 1 0 0
vn 0.9999999 0 0
vn 0.9999999 0 0
vn 1 0 0
vn 0 0.9483237 -0.3173046
vn 0 0.9483237 -0.3173046
vn 0 0.9483237 -0.3173046
vn 0 0.9483237 -0.3173046
vn 0 -0.9483237 0.3173046
vn 0 -0.9483237 0.3173046
vn 0 -0.9483237 0.3173046
vn 0 -0.9483237 0.3173046
vn 0 0.3250213 0.9457067
vn 0 0.3250213 0.9457067
vn 0 0.3250213 0.9457067
vn 0 0.3250213 0.9457067
vn -1 0 0
vn -0.9999999 0 0
vn -0.9999999 0 0
vn -1 0 0
vn 0 -0.3250214 -0.9457067
vn 0 -0.3250214 -0.9457067
vn 0 -0.3250214 -0.9457067
vn 0 -0.3250214 -0.9457067
vn 1 0 0
vn 0.9999999 0 0
vn 0.9999999 0 0
vn 1 0 0
vn 0 0.9483237 -0.3173046
vn 0 0.9483237 -0.3173046
vn 0 0.9483237 -0.3173046
vn 0 0.9483237 -0.3173046
vn 0 -0.9483237 0.3173046
vn 0 -0.9483237 0.3173046
vn 0 -0.9483237 0.3173046
vn 0 -0.9483237 0.3173046
vn 0 0 -1
vn 0 0 -1
vn 0 0 -1
vn 0 0 -1
vn 1 0 0
vn 0.9999999 0 0
vn 1 0 0
vn 1 0 0
vn -1 0 0
vn -1 0 0
vn -1 0 0
vn -0.9999999 0 0
vn 1 0 0
vn 1 0 0
vn 1 0 0
vn 1 0 0
vn -1 0 0
vn -1 0 0
vn -1 0 0
vn -1 0 0
vn -1 0 0
vn -1 0 0
vn -1 0 0
vn -1 0 0
vn 0 0 1
vn 0 0 1
vn 0 0 1
vn 0 0 1
vn 1 0 0
vn 1 0 0
vn 1 0 0
vn 1 0 0
vn 0 0.9479735 -0.3183493
vn 0 0.9479735 -0.3183493
vn 0 0.9479735 -0.3183493
vn 0 0.9479735 -0.3183493
vn 0 1 0
vn 0 1 0
vn 0 1 0
vn 0 1 0
vn 0 0.3250213 0.9457067
vn 0 0.3250213 0.9457067
vn 0 0.3250213 0.9457067
vn 0 0.3250213 0.9457067
vn -1 0 0
vn -0.9999999 0 0
vn -0.9999999 0 0
vn -1 0 0
vn 0 -0.3250214 -0.9457067
vn 0 -0.3250214 -0.9457067
vn 0 -0.3250214 -0.9457067
vn 0 -0.3250214 -0.9457067
vn 1 0 0
vn 0.9999999 0 0
vn 0.9999999 0 0
vn 1 0 0
vn 0 0.9483237 -0.3173046
vn 0 0.9483237 -0.3173046
vn 0 0.9483237 -0.3173046
vn 0 0.9483237 -0.3173046
vn 0 -0.9483237 0.3173046
vn 0 -0.9483237 0.3173046
vn 0 -0.9483237 0.3173046
vn 0 -0.9483237 0.3173046
vn 0 0.3250213 0.9457067
vn 0 0.3250213 0.9457067
vn 0 0.3250213 0.9457067
vn 0 0.3250213 0.9457067
vn -1 0 0
vn -0.9999999 0 0
vn -0.9999999 0 0
vn -1 0 0
vn 0 -0.3250214 -0.9457067
vn 0 -0.3250214 -0.9457067
vn 0 -0.3250214 -0.9457067
vn 0 -0.3250214 -0.9457067
vn 1 0 0
vn 0.9999999 0 0
vn 0.9999999 0 0
vn 1 0 0
vn 0 0.9483237 -0.3173046
vn 0 0.9483237 -0.3173046
vn 0 0.9483237 -0.3173046
vn 0 0.9483237 -0.3173046
vn 0 -0.9483237 0.3173046
vn 0 -0.9483237 0.3173046
vn 0 -0.9483237 0.3173046
vn 0 -0.9483237 0.3173046
vn 0 0.3250213 0.9457067
vn 0 0.3250213 0.9457067
vn 0 0.3250213 0.9457067
vn 0 0.3250213 0.9457067
vn -1 0 0
vn -0.9999999 0 0
vn -0.9999999 0 0
vn -1 0 0
vn 0 -0.3250214 -0.9457067
vn 0 -0.3250214 -0.9457067
vn 0 -0.3250214 -0.9457067
vn 0 -0.3250214 -0.9457067
vn 1 0 0
vn 0.9999999 0 0
vn 0.9999999 0 0
vn 1 0 0
vn 0 0.9483237 -0.3173046
vn 0 0.9483237 -0.3173046
vn 0 0.9483237 -0.3173046
vn 0 0.9483237 -0.3173046
vn 0 -0.9483237 0.3173046
vn 0 -0.9483237 0.3173046
vn 0 -0.9483237 0.3173046
vn 0 -0.9483237 0.3173046
vn 0 0.3250213 0.9457067
vn 0 0.3250213 0.9457067
vn 0 0.3250213 0.9457067
vn 0 0.3250213 0.9457067
vn -1 0 0
vn -0.9999999 0 0
vn -0.9999999 0 0
vn -1 0 0
vn 0 -0.3250214 -0.9457067
vn 0 -0.3250214 -0.9457067
vn 0 -0.3250214 -0.9457067
vn 0 -0.3250214 -0.9457067
vn 1 0 0
vn 0.9999999 0 0
vn 0.9999999 0 0
vn 1 0 0
vn 0 0.9483237 -0.3173046
vn 0 0.9483237 -0.3173046
vn 0 0.9483237 -0.3173046
vn 0 0.9483237 -0.3173046
vn 0 -0.9483237 0.3173046
vn 0 -0.9483237 0.3173046
vn 0 -0.9483237 0.3173046
vn 0 -0.9483237 0.3173046
vn 0 0.3250213 0.9457067
vn 0 0.3250213 0.9457067
vn 0 0.3250213 0.9457067
vn 0 0.3250213 0.9457067
vn -1 0 0
vn -0.9999999 0 0
vn -0.9999999 0 0
vn -1 0 0
vn 0 -0.3250214 -0.9457067
vn 0 -0.3250214 -0.9457067
vn 0 -0.3250214 -0.9457067
vn 0 -0.3250214 -0.9457067
vn 1 0 0
vn 0.9999999 0 0
vn 0.9999999 0 0
vn 1 0 0
vn 0 0.9483237 -0.3173046
vn 0 0.9483237 -0.3173046
vn 0 0.9483237 -0.3173046
vn 0 0.9483237 -0.3173046
vn 0 -0.9483237 0.3173046
vn 0 -0.9483237 0.3173046
vn 0 -0.9483237 0.3173046
vn 0 -0.9483237 0.3173046
vn 0 0.3250213 0.9457067
vn 0 0.3250213 0.9457067
vn 0 0.3250213 0.9457067
vn 0 0.3250213 0.9457067
vn -1 0 0
vn -0.9999999 0 0
vn -0.9999999 0 0
vn -1 0 0
vn 0 -0.3250214 -0.9457067
vn 0 -0.3250214 -0.9457067
vn 0 -0.3250214 -0.9457067
vn 0 -0.3250214 -0.9457067
vn 1 0 0
vn 0.9999999 0 0
vn 0.9999999 0 0
vn 1 0 0
vn 0 0.9483237 -0.3173046
vn 0 0.9483237 -0.3173046
vn 0 0.9483237 -0.3173046
vn 0 0.9483237 -0.3173046
vn 0 -0.9483237 0.3173046
vn 0 -0.9483237 0.3173046
vn 0 -0.9483237 0.3173046
vn 0 -0.9483237 0.3173046
vn 0 0.3250213 0.9457067
vn 0 0.3250213 0.9457067
vn 0 0.3250213 0.9457067
vn 0 0.3250213 0.9457067
vn -1 0 0
vn -0.9999999 0 0
vn -0.9999999 0 0
vn -1 0 0
vn 0 -0.3250214 -0.9457067
vn 0 -0.3250214 -0.9457067
vn 0 -0.3250214 -0.9457067
vn 0 -0.3250214 -0.9457067
vn 1 0 0
vn 0.9999999 0 0
vn 0.9999999 0 0
vn 1 0 0
vn 0 0.9483237 -0.3173046
vn 0 0.9483237 -0.3173046
vn 0 0.9483237 -0.3173046
vn 0 0.9483237 -0.3173046
vn 0 -0.9483237 0.3173046
vn 0 -0.9483237 0.3173046
vn 0 -0.9483237 0.3173046
vn 0 -0.9483237 0.3173046
vn 0 0.3250213 0.9457067
vn 0 0.3250213 0.9457067
vn 0 0.3250213 0.9457067
vn 0 0.3250213 0.9457067
vn -1 0 0
vn -0.9999999 0 0
vn -0.9999999 0 0
vn -1 0 0
vn 0 -0.3250214 -0.9457067
vn 0 -0.3250214 -0.9457067
vn 0 -0.3250214 -0.9457067
vn 0 -0.3250214 -0.9457067
vn 1 0 0
vn 0.9999999 0 0
vn 0.9999999 0 0
vn 1 0 0
vn 0 0.9483237 -0.3173046
vn 0 0.9483237 -0.3173046
vn 0 0.9483237 -0.3173046
vn 0 0.9483237 -0.3173046
vn 0 -0.9483237 0.3173046
vn 0 -0.9483237 0.3173046
vn 0 -0.9483237 0.3173046
vn 0 -0.9483237 0.3173046
vn 0 0.3250213 0.9457067
vn 0 0.3250213 0.9457067
vn 0 0.3250213 0.9457067
vn 0 0.3250213 0.9457067
vn -1 0 0
vn -0.9999999 0 0
vn -0.9999999 0 0
vn -1 0 0
vn 0 -0.3250214 -0.9457067
vn 0 -0.3250214 -0.9457067
vn 0 -0.3250214 -0.9457067
vn 0 -0.3250214 -0.9457067
vn 1 0 0
vn 0.9999999 0 0
vn 0.9999999 0 0
vn 1 0 0
vn 0 0.9483237 -0.3173046
vn 0 0.9483237 -0.3173046
vn 0 0.9483237 -0.3173046
vn 0 0.9483237 -0.3173046
vn 0 -0.9483237 0.3173046
vn 0 -0.9483237 0.3173046
vn 0 -0.9483237 0.3173046
vn 0 -0.9483237 0.3173046
vn 0 0.3250213 0.9457067
vn 0 0.3250213 0.9457067
vn 0 0.3250213 0.9457067
vn 0 0.3250213 0.9457067
vn -1 0 0
vn -0.9999999 0 0
vn -0.9999999 0 0
vn -1 0 0
vn 0 -0.3250214 -0.9457067
vn 0 -0.3250214 -0.9457067
vn 0 -0.3250214 -0.9457067
vn 0 -0.3250214 -0.9457067
vn 1 0 0
vn 0.9999999 0 0
vn 0.9999999 0 0
vn 1 0 0
vn 0 0.9483237 -0.3173046
vn 0 0.9483237 -0.3173046
vn 0 0.9483237 -0.3173046
vn 0 0.9483237 -0.3173046
vn 0 -0.9483237 0.3173046
vn 0 -0.9483237 0.3173046
vn 0 -0.9483237 0.3173046
vn 0 -0.9483237 0.3173046
vn 0 0.3250213 0.9457067
vn 0 0.3250213 0.9457067
vn 0 0.3250213 0.9457067
vn 0 0.3250213 0.9457067
vn -1 0 0
vn -0.9999999 0 0
vn -0.9999999 0 0
vn -1 0 0
vn 0 -0.3250214 -0.9457067
vn 0 -0.3250214 -0.9457067
vn 0 -0.3250214 -0.9457067
vn 0 -0.3250214 -0.9457067
vn 1 0 0
vn 0.9999999 0 0
vn 0.9999999 0 0
vn 1 0 0
vn 0 0.9483237 -0.3173046
vn 0 0.9483237 -0.3173046
vn 0 0.9483237 -0.3173046
vn 0 0.9483237 -0.3173046
vn 0 -0.9483237 0.3173046
vn 0 -0.9483237 0.3173046
vn 0 -0.9483237 0.3173046
vn 0 -0.9483237 0.3173046
vn 0 0.3250213 0.9457067
vn 0 0.3250213 0.9457067
vn 0 0.3250213 0.9457067
vn 0 0.3250213 0.9457067
vn -1 0 0
vn -0.9999999 0 0
vn -0.9999999 0 0
vn -1 0 0
vn 0 -0.3250214 -0.9457067
vn 0 -0.3250214 -0.9457067
vn 0 -0.3250214 -0.9457067
vn 0 -0.3250214 -0.9457067
vn 1 0 0
vn 0.9999999 0 0
vn 0.9999999 0 0
vn 1 0 0
vn 0 0.9483237 -0.3173046
vn 0 0.9483237 -0.3173046
vn 0 0.9483237 -0.3173046
vn 0 0.9483237 -0.3173046
vn 0 -0.9483237 0.3173046
vn 0 -0.9483237 0.3173046
vn 0 -0.9483237 0.3173046
vn 0 -0.9483237 0.3173046
vn 0 0.3250213 0.9457067
vn 0 0.3250213 0.9457067
vn 0 0.3250213 0.9457067
vn 0 0.3250213 0.9457067
vn -1 0 0
vn -0.9999999 0 0
vn -0.9999999 0 0
vn -1 0 0
vn 0 -0.3250214 -0.9457067
vn 0 -0.3250214 -0.9457067
vn 0 -0.3250214 -0.9457067
vn 0 -0.3250214 -0.9457067
vn 1 0 0
vn 0.9999999 0 0
vn 0.9999999 0 0
vn 1 0 0
vn 0 0.9483237 -0.3173046
vn 0 0.9483237 -0.3173046
vn 0 0.9483237 -0.3173046
vn 0 0.9483237 -0.3173046
vn 0 -0.9483237 0.3173046
vn 0 -0.9483237 0.3173046
vn 0 -0.9483237 0.3173046
vn 0 -0.9483237 0.3173046
vn 0 0.3250213 0.9457067
vn 0 0.3250213 0.9457067
vn 0 0.3250213 0.9457067
vn 0 0.3250213 0.9457067
vn -1 0 0
vn -0.9999999 0 0
vn -0.9999999 0 0
vn -1 0 0
vn 0 -0.3250214 -0.9457067
vn 0 -0.3250214 -0.9457067
vn 0 -0.3250214 -0.9457067
vn 0 -0.3250214 -0.9457067
vn 1 0 0
vn 0.9999999 0 0
vn 0.9999999 0 0
vn 1 0 0
vn 0 0.9483237 -0.3173046
vn 0 0.9483237 -0.3173046
vn 0 0.9483237 -0.3173046
vn 0 0.9483237 -0.3173046
vn 0 -0.9483237 0.3173046
vn 0 -0.9483237 0.3173046
vn 0 -0.9483237 0.3173046
vn 0 -0.9483237 0.3173046
vn 0 0.3250213 0.9457067
vn 0 0.3250213 0.9457067
vn 0 0.3250213 0.9457067
vn 0 0.3250213 0.9457067
vn -1 0 0
vn -0.9999999 0 0
vn -0.9999999 0 0
vn -1 0 0
vn 0 -0.3250214 -0.9457067
vn 0 -0.3250214 -0.9457067
vn 0 -0.3250214 -0.9457067
vn 0 -0.3250214 -0.9457067
vn 1 0 0
vn 0.9999999 0 0
vn 0.9999999 0 0
vn 1 0 0
vn 0 0.9483237 -0.3173046
vn 0 0.9483237 -0.3173046
vn 0 0.9483237 -0.3173046
vn 0 0.9483237 -0.3173046
vn 0 -0.9483237 0.3173046
vn 0 -0.9483237 0.3173046
vn 0 -0.9483237 0.3173046
vn 0 -0.9483237 0.3173046
vn 0 0.3250213 0.9457067
vn 0 0.3250213 0.9457067
vn 0 0.3250213 0.9457067
vn 0 0.3250213 0.9457067
vn -1 0 0
vn -0.9999999 0 0
vn -0.9999999 0 0
vn -1 0 0
vn 0 -0.3250214 -0.9457067
vn 0 -0.3250214 -0.9457067
vn 0 -0.3250214 -0.9457067
vn 0 -0.3250214 -0.9457067
vn 1 0 0
vn 0.9999999 0 0
vn 0.9999999 0 0
vn 1 0 0
vn 0 0.9483237 -0.3173046
vn 0 0.9483237 -0.3173046
vn 0 0.9483237 -0.3173046
vn 0 0.9483237 -0.3173046
vn 0 -0.9483237 0.3173046
vn 0 -0.9483237 0.3173046
vn 0 -0.9483237 0.3173046
vn 0 -0.9483237 0.3173046
vn 0 0.3250213 0.9457067
vn 0 0.3250213 0.9457067
vn 0 0.3250213 0.9457067
vn 0 0.3250213 0.9457067
vn -1 0 0
vn -0.9999999 0 0
vn -0.9999999 0 0
vn -1 0 0
vn 0 -0.3250214 -0.9457067
vn 0 -0.3250214 -0.9457067
vn 0 -0.3250214 -0.9457067
vn 0 -0.3250214 -0.9457067
vn 1 0 0
vn 0.9999999 0 0
vn 0.9999999 0 0
vn 1 0 0
vn 0 0.9483237 -0.3173046
vn 0 0.9483237 -0.3173046
vn 0 0.9483237 -0.3173046
vn 0 0.9483237 -0.3173046
vn 0 -0.9483237 0.3173046
vn 0 -0.9483237 0.3173046
vn 0 -0.9483237 0.3173046
vn 0 -0.9483237 0.3173046
vn 0 0.3250213 0.9457067
vn 0 0.3250213 0.9457067
vn 0 0.3250213 0.9457067
vn 0 0.3250213 0.9457067
vn -1 0 0
vn -0.9999999 0 0
vn -0.9999999 0 0
vn -1 0 0
vn 0 -0.3250214 -0.9457067
vn 0 -0.3250214 -0.9457067
vn 0 -0.3250214 -0.9457067
vn 0 -0.3250214 -0.9457067
vn 1 0 0
vn 0.9999999 0 0
vn 0.9999999 0 0
vn 1 0 0
vn 0 0.9483237 -0.3173046
vn 0 0.9483237 -0.3173046
vn 0 0.9483237 -0.3173046
vn 0 0.9483237 -0.3173046
vn 0 -0.9483237 0.3173046
vn 0 -0.9483237 0.3173046
vn 0 -0.9483237 0.3173046
vn 0 -0.9483237 0.3173046
vn 0 0.3250213 0.9457067
vn 0 0.3250213 0.9457067
vn 0 0.3250213 0.9457067
vn 0 0.3250213 0.9457067
vn -1 0 0
vn -0.9999999 0 0
vn -0.9999999 0 0
vn -1 0 0
vn 0 -0.3250214 -0.9457067
vn 0 -0.3250214 -0.9457067
vn 0 -0.3250214 -0.9457067
vn 0 -0.3250214 -0.9457067
vn 1 0 0
vn 0.9999999 0 0
vn 0.9999999 0 0
vn 1 0 0
vn 0 0.9483237 -0.3173046
vn 0 0.9483237 -0.3173046
vn 0 0.9483237 -0.3173046
vn 0 0.9483237 -0.3173046
vn 0 -0.9483237 0.3173046
vn 0 -0.9483237 0.3173046
vn 0 -0.9483237 0.3173046
vn 0 -0.9483237 0.3173046
vn 0 0.3250213 0.9457067
vn 0 0.3250213 0.9457067
vn 0 0.3250213 0.9457067
vn 0 0.3250213 0.9457067
vn -1 0 0
vn -0.9999999 0 0
vn -0.9999999 0 0
vn -1 0 0
vn 0 -0.3250214 -0.9457067
vn 0 -0.3250214 -0.9457067
vn 0 -0.3250214 -0.9457067
vn 0 -0.3250214 -0.9457067
vn 1 0 0
vn 0.9999999 0 0
vn 0.9999999 0 0
vn 1 0 0
vn 0 0.9483237 -0.3173046
vn 0 0.9483237 -0.3173046
vn 0 0.9483237 -0.3173046
vn 0 0.9483237 -0.3173046
vn 0 -0.9483237 0.3173046
vn 0 -0.9483237 0.3173046
vn 0 -0.9483237 0.3173046
vn 0 -0.9483237 0.3173046

vt 30 0
vt 0 0
vt 30 10
vt 0 10
vt 30 0
vt 0 0
vt 30 5
vt 0 5
vt 0 3
vt 30 3
vt 30 0
vt 0 0
vt 0 4
vt 30 4
vt 0 0
vt 30 0
vt 0 4
vt 30 4
vt 0 0
vt 30 0
vt 0 1
vt 30 1
vt 0 0
vt 30 0
vt 30 0
vt 0 0
vt 0 9
vt 30 9
vt 30 0
vt 0 0
vt 30 1
vt 0 1
vt 4 0
vt 0 0
vt 4 3.972059
vt 0 3.972059
vt 4.048544 0
vt 0.05050015 0.03913963
vt 3.998044 3.971738
vt 0 4.01088
vt 4 1.192093E-07
vt 0 1.192093E-07
vt 4 3.972061
vt 0 3.972061
vt 3.998044 0.03913963
vt 0 0
vt 4.048544 4.01088
vt 0.05050004 3.971738
vt 0 3.998236
vt 4 3.998236
vt 0 0
vt 4 0
vt 4 0
vt 0 0
vt 4 3.998235
vt 0 3.998235
vt 4 0
vt 0 0
vt 4 3.972059
vt 0 3.972059
vt 4.048544 0
vt 0.05050015 0.03913963
vt 3.998044 3.971738
vt 0 4.01088
vt 4 1.192093E-07
vt 0 1.192093E-07
vt 4 3.972061
vt 0 3.972061
vt 3.998044 0.03913963
vt 0 0
vt 4.048544 4.01088
vt 0.05050004 3.971738
vt 0 3.998236
vt 4 3.998236
vt 0 0
vt 4 0
vt 4 0
vt 0 0
vt 4 3.998235
vt 0 3.998235
vt 4 0
vt 0 0
vt 4 3.972059
vt 0 3.972059
vt 4.048544 0
vt 0.05050015 0.03913963
vt 3.998044 3.971738
vt 0 4.01088
vt 4 1.192093E-07
vt 0 1.192093E-07
vt 4 3.972061
vt 0 3.972061
vt 3.998044 0.03913963
vt 0 0
vt 4.048544 4.01088
vt 0.05050004 3.971738
vt 0 3.998236
vt 4 3.998236
vt 0 0
vt 4 0
vt 4 0
vt 0 0
vt 4 3.998235
vt 0 3.998235
vt 4 0
vt 0 0
vt 4 3.972059
vt 0 3.972059
vt 4.048544 0
vt 0.05050015 0.03913963
vt 3.998044 3.971738
vt 0 4.01088
vt 4 1.192093E-07
vt 0 1.192093E-07
vt 4 3.972061
vt 0 3.972061
vt 3.998044 0.03913963
vt 0 0
vt 4.048544 4.01088
vt 0.05050004 3.971738
vt 0 3.998236
vt 4 3.998236
vt 0 0
vt 4 0
vt 4 0
vt 0 0
vt 4 3.998235
vt 0 3.998235
vt 4 0
vt 0 0
vt 4 3.972059
vt 0 3.972059
vt 4.048544 0
vt 0.05050015 0.03913963
vt 3.998044 3.971738
vt 0 4.01088
vt 4 1.192093E-07
vt 0 1.192093E-07
vt 4 3.972061
vt 0 3.972061
vt 3.998044 0.03913963
vt 0 0
vt 4.048544 4.01088
vt 0.05050004 3.971738
vt 0 3.998236
vt 4 3.998236
vt 0 0
vt 4 0
vt 4 0
vt 0 0
vt 4 3.998235
vt 0 3.998235
vt 4 0
vt 0 0
vt 4 3.972059
vt 0 3.972059
vt 4.048544 0
vt 0.05050015 0.03913963
vt 3.998044 3.971738
vt 0 4.01088
vt 4 1.192093E-07
vt 0 1.192093E-07
vt 4 3.972061
vt 0 3.972061
vt 3.998044 0.03913963
vt 0 0
vt 4.048544 4.01088
vt 0.05050004 3.971738
vt 0 3.998236
vt 4 3.998236
vt 0 0
vt 4 0
vt 4 0
vt 0 0
vt 4 3.998235
vt 0 3.998235
vt 4 0
vt 0 0
vt 4 3.972059
vt 0 3.972059
vt 4.048544 0
vt 0.05050015 0.03913963
vt 3.998044 3.971738
vt 0 4.01088
vt 4 1.192093E-07
vt 0 1.192093E-07
vt 4 3.972061
vt 0 3.972061
vt 3.998044 0.03913963
vt 0 0
vt 4.048544 4.01088
vt 0.05050004 3.971738
vt 0 3.998236
vt 4 3.998236
vt 0 0
vt 4 0
vt 4 0
vt 0 0
vt 4 3.998235
vt 0 3.998235
vt 4 0
vt 0 0
vt 4 3.972059
vt 0 3.972059
vt 4.048544 0
vt 0.05050015 0.03913963
vt 3.998044 3.971738
vt 0 4.01088
vt 4 1.192093E-07
vt 0 1.192093E-07
vt 4 3.972061
vt 0 3.972061
vt 3.998044 0.03913963
vt 0 0
vt 4.048544 4.01088
vt 0.05050004 3.971738
vt 0 3.998236
vt 4 3.998236
vt 0 0
vt 4 0
vt 4 0
vt 0 0
vt 4 3.998235
vt 0 3.998235
vt 4 0
vt 0 0
vt 4 3.972059
vt 0 3.972059
vt 4.048544 0
vt 0.05050015 0.03913963
vt 3.998044 3.971738
vt 0 4.01088
vt 4 1.192093E-07
vt 0 1.192093E-07
vt 4 3.972061
vt 0 3.972061
vt 3.998044 0.03913963
vt 0 0
vt 4.048544 4.01088
vt 0.05050004 3.971738
vt 0 3.998236
vt 4 3.998236
vt 0 0
vt 4 0
vt 4 0
vt 0 0
vt 4 3.998235
vt 0 3.998235
vt 4 0
vt 0 0
vt 4 3.972059
vt 0 3.972059
vt 4.048544 0
vt 0.05050015 0.03913963
vt 3.998044 3.971738
vt 0 4.01088
vt 4 1.192093E-07
vt 0 1.192093E-07
vt 4 3.972061
vt 0 3.972061
vt 3.998044 0.03913963
vt 0 0
vt 4.048544 4.01088
vt 0.05050004 3.971738
vt 0 3.998236
vt 4 3.998236
vt 0 0
vt 4 0
vt 4 0
vt 0 0
vt 4 3.998235
vt 0 3.998235
vt 4 0
vt 0 0
vt 4 3.972059
vt 0 3.972059
vt 4.048544 0
vt 0.05050015 0.03913963
vt 3.998044 3.971738
vt 0 4.01088
vt 4 1.192093E-07
vt 0 1.192093E-07
vt 4 3.972061
vt 0 3.972061
vt 3.998044 0.03913963
vt 0 0
vt 4.048544 4.01088
vt 0.05050004 3.971738
vt 0 3.998236
vt 4 3.998236
vt 0 0
vt 4 0
vt 4 0
vt 0 0
vt 4 3.998235
vt 0 3.998235
vt 4 0
vt 0 0
vt 4 3.868385
vt 0 3.868385
vt 1.031521 0
vt 0.03152108 0
vt 1.000001 3.868257
vt 0 3.868257
vt 4 0
vt 0 0
vt 4 3.868385
vt 0 3.868385
vt 1 0
vt 0 0
vt 1.031521 3.868257
vt 0.0315204 3.868257
vt 0 1.000001
vt 4 1.000001
vt 0 0
vt 4 0
vt 4 0
vt 0 0
vt 4 1
vt 0 1
vt 4 0
vt 0 0
vt 4 3.868385
vt 0 3.868385
vt 1.031521 0
vt 0.03152108 0
vt 1.000001 3.868257
vt 0 3.868257
vt 4 0
vt 0 0
vt 4 3.868385
vt 0 3.868385
vt 1 0
vt 0 0
vt 1.031521 3.868257
vt 0.0315204 3.868257
vt 0 1.000001
vt 4 1.000001
vt 0 0
vt 4 0
vt 4 0
vt 0 0
vt 4 1
vt 0 1
vt 4 0
vt 0 0
vt 4 3.868385
vt 0 3.868385
vt 1.031521 0
vt 0.03152108 0
vt 1.000001 3.868257
vt 0 3.868257
vt 4 0
vt 0 0
vt 4 3.868385
vt 0 3.868385
vt 1 0
vt 0 0
vt 1.031521 3.868257
vt 0.0315204 3.868257
vt 0 1.000001
vt 4 1.000001
vt 0 0
vt 4 0
vt 4 0
vt 0 0
vt 4 1
vt 0 1
vt 4 0
vt 0 0
vt 4 3.868385
vt 0 3.868385
vt 1.031521 0
vt 0.03152108 0
vt 1.000001 3.868257
vt 0 3.868257
vt 4 0
vt 0 0
vt 4 3.868385
vt 0 3.868385
vt 1 0
vt 0 0
vt 1.031521 3.868257
vt 0.0315204 3.868257
vt 0 1.000001
vt 4 1.000001
vt 0 0
vt 4 0
vt 4 0
vt 0 0
vt 4 1
vt 0 1
vt 4 0
vt 0 0
vt 4 3.868385
vt 0 3.868385
vt 1.031521 0
vt 0.03152108 0
vt 1.000001 3.868257
vt 0 3.868257
vt 4 0
vt 0 0
vt 4 3.868385
vt 0 3.868385
vt 1 0
vt 0 0
vt 1.031521 3.868257
vt 0.0315204 3.868257
vt 0 1.000001
vt 4 1.000001
vt 0 0
vt 4 0
vt 4 0
vt 0 0
vt 4 1
vt 0 1
vt 4 0
vt 0 0
vt 4 3.868385
vt 0 3.868385
vt 1.031521 0
vt 0.03152108 0
vt 1.000001 3.868257
vt 0 3.868257
vt 4 0
vt 0 0
vt 4 3.868385
vt 0 3.868385
vt 1 0
vt 0 0
vt 1.031521 3.868257
vt 0.0315204 3.868257
vt 0 1.000001
vt 4 1.000001
vt 0 0
vt 4 0
vt 4 0
vt 0 0
vt 4 1
vt 0 1
vt 0 17
vt 30 17
vt 30 0
vt 0 0
vt 0 50.75
vt 100.5 17.25
vt 100.5 0
vt 0 33.75
vt 0 17.25
vt 100.5 50.75
vt 100.5 33.75
vt 0 0
vt 10 17
vt 10 0
vt 0 17
vt 0 0
vt 0 0
vt 0 17
vt 10 0
vt 10 17
vt 0 0
vt 10 17.25
vt 10 0
vt 0 17.25
vt 0 0
vt 30 17.25
vt 30 0
vt 0 17.25
vt 0 0
vt 10 17.25
vt 10 0
vt 0 17.25
vt 0 106.0156
vt 30 106.0156
vt 30 0
vt 0 0
vt 30 0
vt 0 0
vt 30 10
vt 0 10
vt 4 0
vt 0 0
vt 4 3.868385
vt 0 3.868385
vt 1.031521 0
vt 0.03152108 0
vt 1.000001 3.868257
vt 0 3.868257
vt 4 0
vt 0 0
vt 4 3.868385
vt 0 3.868385
vt 1 0
vt 0 0
vt 1.031521 3.868257
vt 0.0315204 3.868257
vt 0 1.000001
vt 4 1.000001
vt 0 0
vt 4 0
vt 4 0
vt 0 0
vt 4 1
vt 0 1
vt 4 0
vt 0 0
vt 4 3.868385
vt 0 3.868385
vt 1.031521 0
vt 0.03152108 0
vt 1.000001 3.868257
vt 0 3.868257
vt 4 0
vt 0 0
vt 4 3.868385
vt 0 3.868385
vt 1 0
vt 0 0
vt 1.031521 3.868257
vt 0.0315204 3.868257
vt 0 1.000001
vt 4 1.000001
vt 0 0
vt 4 0
vt 4 0
vt 0 0
vt 4 1
vt 0 1
vt 4 0
vt 0 0
vt 4 3.868385
vt 0 3.868385
vt 1.031521 0
vt 0.03152108 0
vt 1.000001 3.868257
vt 0 3.868257
vt 4 0
vt 0 0
vt 4 3.868385
vt 0 3.868385
vt 1 0
vt 0 0
vt 1.031521 3.868257
vt 0.0315204 3.868257
vt 0 1.000001
vt 4 1.000001
vt 0 0
vt 4 0
vt 4 0
vt 0 0
vt 4 1
vt 0 1
vt 4 0
vt 0 0
vt 4 3.868385
vt 0 3.868385
vt 1.031521 0
vt 0.03152108 0
vt 1.000001 3.868257
vt 0 3.868257
vt 4 0
vt 0 0
vt 4 3.868385
vt 0 3.868385
vt 1 0
vt 0 0
vt 1.031521 3.868257
vt 0.0315204 3.868257
vt 0 1.000001
vt 4 1.000001
vt 0 0
vt 4 0
vt 4 0
vt 0 0
vt 4 1
vt 0 1
vt 4 0
vt 0 0
vt 4 3.868385
vt 0 3.868385
vt 1.031521 0
vt 0.03152108 0
vt 1.000001 3.868257
vt 0 3.868257
vt 4 0
vt 0 0
vt 4 3.868385
vt 0 3.868385
vt 1 0
vt 0 0
vt 1.031521 3.868257
vt 0.0315204 3.868257
vt 0 1.000001
vt 4 1.000001
vt 0 0
vt 4 0
vt 4 0
vt 0 0
vt 4 1
vt 0 1
vt 4 0
vt 0 0
vt 4 3.868385
vt 0 3.868385
vt 1.031521 0
vt 0.03152108 0
vt 1.000001 3.868257
vt 0 3.868257
vt 4 0
vt 0 0
vt 4 3.868385
vt 0 3.868385
vt 1 0
vt 0 0
vt 1.031521 3.868257
vt 0.0315204 3.868257
vt 0 1.000001
vt 4 1.000001
vt 0 0
vt 4 0
vt 4 0
vt 0 0
vt 4 1
vt 0 1
vt 4 0
vt 0 0
vt 4 3.868385
vt 0 3.868385
vt 1.031521 0
vt 0.03152108 0
vt 1.000001 3.868257
vt 0 3.868257
vt 4 0
vt 0 0
vt 4 3.868385
vt 0 3.868385
vt 1 0
vt 0 0
vt 1.031521 3.868257
vt 0.0315204 3.868257
vt 0 1.000001
vt 4 1.000001
vt 0 0
vt 4 0
vt 4 0
vt 0 0
vt 4 1
vt 0 1
vt 4 0
vt 0 0
vt 4 3.868385
vt 0 3.868385
vt 1.031521 0
vt 0.03152108 0
vt 1.000001 3.868257
vt 0 3.868257
vt 4 0
vt 0 0
vt 4 3.868385
vt 0 3.868385
vt 1 0
vt 0 0
vt 1.031521 3.868257
vt 0.0315204 3.868257
vt 0 1.000001
vt 4 1.000001
vt 0 0
vt 4 0
vt 4 0
vt 0 0
vt 4 1
vt 0 1
vt 4 0
vt 0 0
vt 4 3.868385
vt 0 3.868385
vt 1.031521 0
vt 0.03152108 0
vt 1.000001 3.868257
vt 0 3.868257
vt 4 0
vt 0 0
vt 4 3.868385
vt 0 3.868385
vt 1 0
vt 0 0
vt 1.031521 3.868257
vt 0.0315204 3.868257
vt 0 1.000001
vt 4 1.000001
vt 0 0
vt 4 0
vt 4 0
vt 0 0
vt 4 1
vt 0 1
vt 4 0
vt 0 0
vt 4 3.868385
vt 0 3.868385
vt 1.031521 0
vt 0.03152108 0
vt 1.000001 3.868257
vt 0 3.868257
vt 4 0
vt 0 0
vt 4 3.868385
vt 0 3.868385
vt 1 0
vt 0 0
vt 1.031521 3.868257
vt 0.0315204 3.868257
vt 0 1.000001
vt 4 1.000001
vt 0 0
vt 4 0
vt 4 0
vt 0 0
vt 4 1
vt 0 1
vt 4 0
vt 0 0
vt 4 3.868385
vt 0 3.868385
vt 1.031521 0
vt 0.03152108 0
vt 1.000001 3.868257
vt 0 3.868257
vt 4 0
vt 0 0
vt 4 3.868385
vt 0 3.868385
vt 1 0
vt 0 0
vt 1.031521 3.868257
vt 0.0315204 3.868257
vt 0 1.000001
vt 4 1.000001
vt 0 0
vt 4 0
vt 4 0
vt 0 0
vt 4 1
vt 0 1
vt 4 0
vt 0 0
vt 4 3.868385
vt 0 3.868385
vt 1.031521 0
vt 0.03152108 0
vt 1.000001 3.868257
vt 0 3.868257
vt 4 0
vt 0 0
vt 4 3.868385
vt 0 3.868385
vt 1 0
vt 0 0
vt 1.031521 3.868257
vt 0.0315204 3.868257
vt 0 1.000001
vt 4 1.000001
vt 0 0
vt 4 0
vt 4 0
vt 0 0
vt 4 1
vt 0 1
vt 4 0
vt 0 0
vt 4 3.868385
vt 0 3.868385
vt 1.031521 0
vt 0.03152108 0
vt 1.000001 3.868257
vt 0 3.868257
vt 4 0
vt 0 0
vt 4 3.868385
vt 0 3.868385
vt 1 0
vt 0 0
vt 1.031521 3.868257
vt 0.0315204 3.868257
vt 0 1.000001
vt 4 1.000001
vt 0 0
vt 4 0
vt 4 0
vt 0 0
vt 4 1
vt 0 1
vt 4 0
vt 0 0
vt 4 3.868385
vt 0 3.868385
vt 1.031521 0
vt 0.03152108 0
vt 1.000001 3.868257
vt 0 3.868257
vt 4 0
vt 0 0
vt 4 3.868385
vt 0 3.868385
vt 1 0
vt 0 0
vt 1.031521 3.868257
vt 0.0315204 3.868257
vt 0 1.000001
vt 4 1.000001
vt 0 0
vt 4 0
vt 4 0
vt 0 0
vt 4 1
vt 0 1
vt 4 0
vt 0 0
vt 4 3.868385
vt 0 3.868385
vt 1.031521 0
vt 0.03152108 0
vt 1.000001 3.868257
vt 0 3.868257
vt 4 0
vt 0 0
vt 4 3.868385
vt 0 3.868385
vt 1 0
vt 0 0
vt 1.031521 3.868257
vt 0.0315204 3.868257
vt 0 1.000001
vt 4 1.000001
vt 0 0
vt 4 0
vt 4 0
vt 0 0
vt 4 1
vt 0 1
vt 4 0
vt 0 0
vt 4 3.868385
vt 0 3.868385
vt 1.031521 0
vt 0.03152108 0
vt 1.000001 3.868257
vt 0 3.868257
vt 4 0
vt 0 0
vt 4 3.868385
vt 0 3.868385
vt 1 0
vt 0 0
vt 1.031521 3.868257
vt 0.0315204 3.868257
vt 0 1.000001
vt 4 1.000001
vt 0 0
vt 4 0
vt 4 0
vt 0 0
vt 4 1
vt 0 1
vt 4 0
vt 0 0
vt 4 3.868385
vt 0 3.868385
vt 1.031521 0
vt 0.03152108 0
vt 1.000001 3.868257
vt 0 3.868257
vt 4 0
vt 0 0
vt 4 3.868385
vt 0 3.868385
vt 1 0
vt 0 0
vt 1.031521 3.868257
vt 0.0315204 3.868257
vt 0 1.000001
vt 4 1.000001
vt 0 0
vt 4 0
vt 4 0
vt 0 0
vt 4 1
vt 0 1
vt 4 0
vt 0 0
vt 4 3.868385
vt 0 3.868385
vt 1.031521 0
vt 0.03152108 0
vt 1.000001 3.868257
vt 0 3.868257
vt 4 0
vt 0 0
vt 4 3.868385
vt 0 3.868385
vt 1 0
vt 0 0
vt 1.031521 3.868257
vt 0.0315204 3.868257
vt 0 1.000001
vt 4 1.000001
vt 0 0
vt 4 0
vt 4 0
vt 0 0
vt 4 1
vt 0 1
vt 4 0
vt 0 0
vt 4 3.868385
vt 0 3.868385
vt 1.031521 0
vt 0.03152108 0
vt 1.000001 3.868257
vt 0 3.868257
vt 4 0
vt 0 0
vt 4 3.868385
vt 0 3.868385
vt 1 0
vt 0 0
vt 1.031521 3.868257
vt 0.0315204 3.868257
vt 0 1.000001
vt 4 1.000001
vt 0 0
vt 4 0
vt 4 0
vt 0 0
vt 4 1
vt 0 1
vt 4 0
vt 0 0
vt 4 3.868385
vt 0 3.868385
vt 1.031521 0
vt 0.03152108 0
vt 1.000001 3.868257
vt 0 3.868257
vt 4 0
vt 0 0
vt 4 3.868385
vt 0 3.868385
vt 1 0
vt 0 0
vt 1.031521 3.868257
vt 0.0315204 3.868257
vt 0 1.000001
vt 4 1.000001
vt 0 0
vt 4 0
vt 4 0
vt 0 0
vt 4 1
vt 0 1

g Combined_Mesh_(root:_scene)
usemtl Combined_Mesh_(root:_scene)
usemap Combined_Mesh_(root:_scene)
f 1/1/1 3/3/3 2/2/2
f 2/2/2 3/3/3 4/4/4
g Combined_Mesh_(root:_scene)_1
usemtl Combined_Mesh_(root:_scene)_1
usemap Combined_Mesh_(root:_scene)_1
f 5/5/5 7/7/7 6/6/6
f 6/6/6 7/7/7 8/8/8
f 9/9/9 11/11/11 10/10/10
f 12/12/12 11/11/11 9/9/9
f 13/13/13 15/15/15 14/14/14
f 14/14/14 15/15/15 16/16/16
g Combined_Mesh_(root:_scene)_2
usemtl Combined_Mesh_(root:_scene)_2
usemap Combined_Mesh_(root:_scene)_2
f 17/17/17 19/19/19 18/18/18
f 18/18/18 19/19/19 20/20/20
f 21/21/21 23/23/23 22/22/22
f 22/22/22 23/23/23 24/24/24
f 25/25/25 27/27/27 26/26/26
f 28/28/28 27/27/27 25/25/25
f 29/29/29 31/31/31 30/30/30
f 30/30/30 31/31/31 32/32/32
g Combined_Mesh_(root:_scene)_3
usemtl Combined_Mesh_(root:_scene)_3
usemap Combined_Mesh_(root:_scene)_3
f 33/33/33 35/35/35 34/34/34
f 34/34/34 35/35/35 36/36/36
f 37/37/37 39/39/39 38/38/38
f 38/38/38 39/39/39 40/40/40
f 41/41/41 43/43/43 42/42/42
f 42/42/42 43/43/43 44/44/44
f 45/45/45 47/47/47 46/46/46
f 46/46/46 47/47/47 48/48/48
f 49/49/49 51/51/51 50/50/50
f 50/50/50 51/51/51 52/52/52
f 53/53/53 55/55/55 54/54/54
f 54/54/54 55/55/55 56/56/56
g Combined_Mesh_(root:_scene)_4
usemtl Combined_Mesh_(root:_scene)_4
usemap Combined_Mesh_(root:_scene)_4
f 57/57/57 59/59/59 58/58/58
f 58/58/58 59/59/59 60/60/60
f 61/61/61 63/63/63 62/62/62
f 62/62/62 63/63/63 64/64/64
f 65/65/65 67/67/67 66/66/66
f 66/66/66 67/67/67 68/68/68
f 69/69/69 71/71/71 70/70/70
f 70/70/70 71/71/71 72/72/72
f 73/73/73 75/75/75 74/74/74
f 74/74/74 75/75/75 76/76/76
f 77/77/77 79/79/79 78/78/78
f 78/78/78 79/79/79 80/80/80
g Combined_Mesh_(root:_scene)_5
usemtl Combined_Mesh_(root:_scene)_5
usemap Combined_Mesh_(root:_scene)_5
f 81/81/81 83/83/83 82/82/82
f 82/82/82 83/83/83 84/84/84
f 85/85/85 87/87/87 86/86/86
f 86/86/86 87/87/87 88/88/88
f 89/89/89 91/91/91 90/90/90
f 90/90/90 91/91/91 92/92/92
f 93/93/93 95/95/95 94/94/94
f 94/94/94 95/95/95 96/96/96
f 97/97/97 99/99/99 98/98/98
f 98/98/98 99/99/99 100/100/100
f 101/101/101 103/103/103 102/102/102
f 102/102/102 103/103/103 104/104/104
g Combined_Mesh_(root:_scene)_6
usemtl Combined_Mesh_(root:_scene)_6
usemap Combined_Mesh_(root:_scene)_6
f 105/105/105 107/107/107 106/106/106
f 106/106/106 107/107/107 108/108/108
f 109/109/109 111/111/111 110/110/110
f 110/110/110 111/111/111 112/112/112
f 113/113/113 115/115/115 114/114/114
f 114/114/114 115/115/115 116/116/116
f 117/117/117 119/119/119 118/118/118
f 118/118/118 119/119/119 120/120/120
f 121/121/121 123/123/123 122/122/122
f 122/122/122 123/123/123 124/124/124
f 125/125/125 127/127/127 126/126/126
f 126/126/126 127/127/127 128/128/128
g Combined_Mesh_(root:_scene)_7
usemtl Combined_Mesh_(root:_scene)_7
usemap Combined_Mesh_(root:_scene)_7
f 129/129/129 131/131/131 130/130/130
f 130/130/130 131/131/131 132/132/132
f 133/133/133 135/135/135 134/134/134
f 134/134/134 135/135/135 136/136/136
f 137/137/137 139/139/139 138/138/138
f 138/138/138 139/139/139 140/140/140
f 141/141/141 143/143/143 142/142/142
f 142/142/142 143/143/143 144/144/144
f 145/145/145 147/147/147 146/146/146
f 146/146/146 147/147/147 148/148/148
f 149/149/149 151/151/151 150/150/150
f 150/150/150 151/151/151 152/152/152
g Combined_Mesh_(root:_scene)_8
usemtl Combined_Mesh_(root:_scene)_8
usemap Combined_Mesh_(root:_scene)_8
f 153/153/153 155/155/155 154/154/154
f 154/154/154 155/155/155 156/156/156
f 157/157/157 159/159/159 158/158/158
f 158/158/158 159/159/159 160/160/160
f 161/161/161 163/163/163 162/162/162
f 162/162/162 163/163/163 164/164/164
f 165/165/165 167/167/167 166/166/166
f 166/166/166 167/167/167 168/168/168
f 169/169/169 171/171/171 170/170/170
f 170/170/170 171/171/171 172/172/172
f 173/173/173 175/175/175 174/174/174
f 174/174/174 175/175/175 176/176/176
g Combined_Mesh_(root:_scene)_9
usemtl Combined_Mesh_(root:_scene)_9
usemap Combined_Mesh_(root:_scene)_9
f 177/177/177 179/179/179 178/178/178
f 178/178/178 179/179/179 180/180/180
f 181/181/181 183/183/183 182/182/182
f 182/182/182 183/183/183 184/184/184
f 185/185/185 187/187/187 186/186/186
f 186/186/186 187/187/187 188/188/188
f 189/189/189 191/191/191 190/190/190
f 190/190/190 191/191/191 192/192/192
f 193/193/193 195/195/195 194/194/194
f 194/194/194 195/195/195 196/196/196
f 197/197/197 199/199/199 198/198/198
f 198/198/198 199/199/199 200/200/200
g Combined_Mesh_(root:_scene)_10
usemtl Combined_Mesh_(root:_scene)_10
usemap Combined_Mesh_(root:_scene)_10
f 201/201/201 203/203/203 202/202/202
f 202/202/202 203/203/203 204/204/204
f 205/205/205 207/207/207 206/206/206
f 206/206/206 207/207/207 208/208/208
f 209/209/209 211/211/211 210/210/210
f 210/210/210 211/211/211 212/212/212
f 213/213/213 215/215/215 214/214/214
f 214/214/214 215/215/215 216/216/216
f 217/217/217 219/219/219 218/218/218
f 218/218/218 219/219/219 220/220/220
f 221/221/221 223/223/223 222/222/222
f 222/222/222 223/223/223 224/224/224
g Combined_Mesh_(root:_scene)_11
usemtl Combined_Mesh_(root:_scene)_11
usemap Combined_Mesh_(root:_scene)_11
f 225/225/225 227/227/227 226/226/226
f 226/226/226 227/227/227 228/228/228
f 229/229/229 231/231/231 230/230/230
f 230/230/230 231/231/231 232/232/232
f 233/233/233 235/235/235 234/234/234
f 234/234/234 235/235/235 236/236/236
f 237/237/237 239/239/239 238/238/238
f 238/238/238 239/239/239 240/240/240
f 241/241/241 243/243/243 242/242/242
f 242/242/242 243/243/243 244/244/244
f 245/245/245 247/247/247 246/246/246
f 246/246/246 247/247/247 248/248/248
g Combined_Mesh_(root:_scene)_12
usemtl Combined_Mesh_(root:_scene)_12
usemap Combined_Mesh_(root:_scene)_12
f 249/249/249 251/251/251 250/250/250
f 250/250/250 251/251/251 252/252/252
f 253/253/253 255/255/255 254/254/254
f 254/254/254 255/255/255 256/256/256
f 257/257/257 259/259/259 258/258/258
f 258/258/258 259/259/259 260/260/260
f 261/261/261 263/263/263 262/262/262
f 262/262/262 263/263/263 264/264/264
f 265/265/265 267/267/267 266/266/266
f 266/266/266 267/267/267 268/268/268
f 269/269/269 271/271/271 270/270/270
f 270/270/270 271/271/271 272/272/272
g Combined_Mesh_(root:_scene)_13
usemtl Combined_Mesh_(root:_scene)_13
usemap Combined_Mesh_(root:_scene)_13
f 273/273/273 275/275/275 274/274/274
f 274/274/274 275/275/275 276/276/276
f 277/277/277 279/279/279 278/278/278
f 278/278/278 279/279/279 280/280/280
f 281/281/281 283/283/283 282/282/282
f 282/282/282 283/283/283 284/284/284
f 285/285/285 287/287/287 286/286/286
f 286/286/286 287/287/287 288/288/288
f 289/289/289 291/291/291 290/290/290
f 290/290/290 291/291/291 292/292/292
f 293/293/293 295/295/295 294/294/294
f 294/294/294 295/295/295 296/296/296
g Combined_Mesh_(root:_scene)_14
usemtl Combined_Mesh_(root:_scene)_14
usemap Combined_Mesh_(root:_scene)_14
f 297/297/297 299/299/299 298/298/298
f 298/298/298 299/299/299 300/300/300
f 301/301/301 303/303/303 302/302/302
f 302/302/302 303/303/303 304/304/304
f 305/305/305 307/307/307 306/306/306
f 306/306/306 307/307/307 308/308/308
f 309/309/309 311/311/311 310/310/310
f 310/310/310 311/311/311 312/312/312
f 313/313/313 315/315/315 314/314/314
f 314/314/314 315/315/315 316/316/316
f 317/317/317 319/319/319 318/318/318
f 318/318/318 319/319/319 320/320/320
g Combined_Mesh_(root:_scene)_15
usemtl Combined_Mesh_(root:_scene)_15
usemap Combined_Mesh_(root:_scene)_15
f 321/321/321 323/323/323 322/322/322
f 322/322/322 323/323/323 324/324/324
f 325/325/325 327/327/327 326/326/326
f 326/326/326 327/327/327 328/328/328
f 329/329/329 331/331/331 330/330/330
f 330/330/330 331/331/331 332/332/332
f 333/333/333 335/335/335 334/334/334
f 334/334/334 335/335/335 336/336/336
f 337/337/337 339/339/339 338/338/338
f 338/338/338 339/339/339 340/340/340
f 341/341/341 343/343/343 342/342/342
f 342/342/342 343/343/343 344/344/344
g Combined_Mesh_(root:_scene)_16
usemtl Combined_Mesh_(root:_scene)_16
usemap Combined_Mesh_(root:_scene)_16
f 345/345/345 347/347/347 346/346/346
f 346/346/346 347/347/347 348/348/348
f 349/349/349 351/351/351 350/350/350
f 350/350/350 351/351/351 352/352/352
f 353/353/353 355/355/355 354/354/354
f 354/354/354 355/355/355 356/356/356
f 357/357/357 359/359/359 358/358/358
f 358/358/358 359/359/359 360/360/360
f 361/361/361 363/363/363 362/362/362
f 362/362/362 363/363/363 364/364/364
f 365/365/365 367/367/367 366/366/366
f 366/366/366 367/367/367 368/368/368
g Combined_Mesh_(root:_scene)_17
usemtl Combined_Mesh_(root:_scene)_17
usemap Combined_Mesh_(root:_scene)_17
f 369/369/369 371/371/371 370/370/370
f 370/370/370 371/371/371 372/372/372
f 373/373/373 375/375/375 374/374/374
f 374/374/374 375/375/375 376/376/376
f 377/377/377 379/379/379 378/378/378
f 378/378/378 379/379/379 380/380/380
f 381/381/381 383/383/383 382/382/382
f 382/382/382 383/383/383 384/384/384
f 385/385/385 387/387/387 386/386/386
f 386/386/386 387/387/387 388/388/388
f 389/389/389 391/391/391 390/390/390
f 390/390/390 391/391/391 392/392/392
g Combined_Mesh_(root:_scene)_18
usemtl Combined_Mesh_(root:_scene)_18
usemap Combined_Mesh_(root:_scene)_18
f 393/393/393 395/395/395 394/394/394
f 394/394/394 395/395/395 396/396/396
f 397/397/397 399/399/399 398/398/398
f 398/398/398 399/399/399 400/400/400
f 401/401/401 403/403/403 402/402/402
f 402/402/402 403/403/403 404/404/404
f 405/405/405 407/407/407 406/406/406
f 406/406/406 407/407/407 408/408/408
f 409/409/409 411/411/411 410/410/410
f 410/410/410 411/411/411 412/412/412
f 413/413/413 415/415/415 414/414/414
f 414/414/414 415/415/415 416/416/416
g Combined_Mesh_(root:_scene)_19
usemtl Combined_Mesh_(root:_scene)_19
usemap Combined_Mesh_(root:_scene)_19
f 417/417/417 419/419/419 418/418/418
f 418/418/418 419/419/419 420/420/420
f 421/421/421 423/423/423 422/422/422
f 422/422/422 423/423/423 424/424/424
f 425/425/425 427/427/427 426/426/426
f 426/426/426 427/427/427 428/428/428
f 429/429/429 431/431/431 430/430/430
f 430/430/430 431/431/431 432/432/432
f 433/433/433 435/435/435 434/434/434
f 434/434/434 435/435/435 436/436/436
f 437/437/437 439/439/439 438/438/438
f 438/438/438 439/439/439 440/440/440
g Combined_Mesh_(root:_scene)_20
usemtl Combined_Mesh_(root:_scene)_20
usemap Combined_Mesh_(root:_scene)_20
f 441/441/441 443/443/443 442/442/442
f 441/441/441 444/444/444 443/443/443
f 445/445/445 447/447/447 446/446/446
f 445/445/445 448/448/448 447/447/447
f 449/449/449 451/451/451 450/450/450
f 449/449/449 452/452/452 451/451/451
f 453/453/453 455/455/455 454/454/454
f 454/454/454 455/455/455 456/456/456
f 457/457/457 459/459/459 458/458/458
f 458/458/458 459/459/459 460/460/460
f 461/461/461 463/463/463 462/462/462
f 461/461/461 462/462/462 464/464/464
f 465/465/465 467/467/467 466/466/466
f 465/465/465 466/466/466 468/468/468
f 469/469/469 471/471/471 470/470/470
f 469/469/469 470/470/470 472/472/472
g Combined_Mesh_(root:_scene)_21
usemtl Combined_Mesh_(root:_scene)_21
usemap Combined_Mesh_(root:_scene)_21
f 473/473/473 475/475/475 474/474/474
f 473/473/473 476/476/476 475/475/475
f 477/477/477 479/479/479 478/478/478
f 478/478/478 479/479/479 480/480/480
g Combined_Mesh_(root:_scene)_22
usemtl Combined_Mesh_(root:_scene)_22
usemap Combined_Mesh_(root:_scene)_22
f 481/481/481 483/483/483 482/482/482
f 482/482/482 483/483/483 484/484/484
f 485/485/485 487/487/487 486/486/486
f 486/486/486 487/487/487 488/488/488
f 489/489/489 491/491/491 490/490/490
f 490/490/490 491/491/491 492/492/492
f 493/493/493 495/495/495 494/494/494
f 494/494/494 495/495/495 496/496/496
f 497/497/497 499/499/499 498/498/498
f 498/498/498 499/499/499 500/500/500
f 501/501/501 503/503/503 502/502/502
f 502/502/502 503/503/503 504/504/504
g Combined_Mesh_(root:_scene)_23
usemtl Combined_Mesh_(root:_scene)_23
usemap Combined_Mesh_(root:_scene)_23
f 505/505/505 507/507/507 506/506/506
f 506/506/506 507/507/507 508/508/508
f 509/509/509 511/511/511 510/510/510
f 510/510/510 511/511/511 512/512/512
f 513/513/513 515/515/515 514/514/514
f 514/514/514 515/515/515 516/516/516
f 517/517/517 519/519/519 518/518/518
f 518/518/518 519/519/519 520/520/520
f 521/521/521 523/523/523 522/522/522
f 522/522/522 523/523/523 524/524/524
f 525/525/525 527/527/527 526/526/526
f 526/526/526 527/527/527 528/528/528
g Combined_Mesh_(root:_scene)_24
usemtl Combined_Mesh_(root:_scene)_24
usemap Combined_Mesh_(root:_scene)_24
f 529/529/529 531/531/531 530/530/530
f 530/530/530 531/531/531 532/532/532
f 533/533/533 535/535/535 534/534/534
f 534/534/534 535/535/535 536/536/536
f 537/537/537 539/539/539 538/538/538
f 538/538/538 539/539/539 540/540/540
f 541/541/541 543/543/543 542/542/542
f 542/542/542 543/543/543 544/544/544
f 545/545/545 547/547/547 546/546/546
f 546/546/546 547/547/547 548/548/548
f 549/549/549 551/551/551 550/550/550
f 550/550/550 551/551/551 552/552/552
g Combined_Mesh_(root:_scene)_25
usemtl Combined_Mesh_(root:_scene)_25
usemap Combined_Mesh_(root:_scene)_25
f 553/553/553 555/555/555 554/554/554
f 554/554/554 555/555/555 556/556/556
f 557/557/557 559/559/559 558/558/558
f 558/558/558 559/559/559 560/560/560
f 561/561/561 563/563/563 562/562/562
f 562/562/562 563/563/563 564/564/564
f 565/565/565 567/567/567 566/566/566
f 566/566/566 567/567/567 568/568/568
f 569/569/569 571/571/571 570/570/570
f 570/570/570 571/571/571 572/572/572
f 573/573/573 575/575/575 574/574/574
f 574/574/574 575/575/575 576/576/576
g Combined_Mesh_(root:_scene)_26
usemtl Combined_Mesh_(root:_scene)_26
usemap Combined_Mesh_(root:_scene)_26
f 577/577/577 579/579/579 578/578/578
f 578/578/578 579/579/579 580/580/580
f 581/581/581 583/583/583 582/582/582
f 582/582/582 583/583/583 584/584/584
f 585/585/585 587/587/587 586/586/586
f 586/586/586 587/587/587 588/588/588
f 589/589/589 591/591/591 590/590/590
f 590/590/590 591/591/591 592/592/592
f 593/593/593 595/595/595 594/594/594
f 594/594/594 595/595/595 596/596/596
f 597/597/597 599/599/599 598/598/598
f 598/598/598 599/599/599 600/600/600
g Combined_Mesh_(root:_scene)_27
usemtl Combined_Mesh_(root:_scene)_27
usemap Combined_Mesh_(root:_scene)_27
f 601/601/601 603/603/603 602/602/602
f 602/602/602 603/603/603 604/604/604
f 605/605/605 607/607/607 606/606/606
f 606/606/606 607/607/607 608/608/608
f 609/609/609 611/611/611 610/610/610
f 610/610/610 611/611/611 612/612/612
f 613/613/613 615/615/615 614/614/614
f 614/614/614 615/615/615 616/616/616
f 617/617/617 619/619/619 618/618/618
f 618/618/618 619/619/619 620/620/620
f 621/621/621 623/623/623 622/622/622
f 622/622/622 623/623/623 624/624/624
g Combined_Mesh_(root:_scene)_28
usemtl Combined_Mesh_(root:_scene)_28
usemap Combined_Mesh_(root:_scene)_28
f 625/625/625 627/627/627 626/626/626
f 626/626/626 627/627/627 628/628/628
f 629/629/629 631/631/631 630/630/630
f 630/630/630 631/631/631 632/632/632
f 633/633/633 635/635/635 634/634/634
f 634/634/634 635/635/635 636/636/636
f 637/637/637 639/639/639 638/638/638
f 638/638/638 639/639/639 640/640/640
f 641/641/641 643/643/643 642/642/642
f 642/642/642 643/643/643 644/644/644
f 645/645/645 647/647/647 646/646/646
f 646/646/646 647/647/647 648/648/648
g Combined_Mesh_(root:_scene)_29
usemtl Combined_Mesh_(root:_scene)_29
usemap Combined_Mesh_(root:_scene)_29
f 649/649/649 651/651/651 650/650/650
f 650/650/650 651/651/651 652/652/652
f 653/653/653 655/655/655 654/654/654
f 654/654/654 655/655/655 656/656/656
f 657/657/657 659/659/659 658/658/658
f 658/658/658 659/659/659 660/660/660
f 661/661/661 663/663/663 662/662/662
f 662/662/662 663/663/663 664/664/664
f 665/665/665 667/667/667 666/666/666
f 666/666/666 667/667/667 668/668/668
f 669/669/669 671/671/671 670/670/670
f 670/670/670 671/671/671 672/672/672
g Combined_Mesh_(root:_scene)_30
usemtl Combined_Mesh_(root:_scene)_30
usemap Combined_Mesh_(root:_scene)_30
f 673/673/673 675/675/675 674/674/674
f 674/674/674 675/675/675 676/676/676
f 677/677/677 679/679/679 678/678/678
f 678/678/678 679/679/679 680/680/680
f 681/681/681 683/683/683 682/682/682
f 682/682/682 683/683/683 684/684/684
f 685/685/685 687/687/687 686/686/686
f 686/686/686 687/687/687 688/688/688
f 689/689/689 691/691/691 690/690/690
f 690/690/690 691/691/691 692/692/692
f 693/693/693 695/695/695 694/694/694
f 694/694/694 695/695/695 696/696/696
g Combined_Mesh_(root:_scene)_31
usemtl Combined_Mesh_(root:_scene)_31
usemap Combined_Mesh_(root:_scene)_31
f 697/697/697 699/699/699 698/698/698
f 698/698/698 699/699/699 700/700/700
f 701/701/701 703/703/703 702/702/702
f 702/702/702 703/703/703 704/704/704
f 705/705/705 707/707/707 706/706/706
f 706/706/706 707/707/707 708/708/708
f 709/709/709 711/711/711 710/710/710
f 710/710/710 711/711/711 712/712/712
f 713/713/713 715/715/715 714/714/714
f 714/714/714 715/715/715 716/716/716
f 717/717/717 719/719/719 718/718/718
f 718/718/718 719/719/719 720/720/720
g Combined_Mesh_(root:_scene)_32
usemtl Combined_Mesh_(root:_scene)_32
usemap Combined_Mesh_(root:_scene)_32
f 721/721/721 723/723/723 722/722/722
f 722/722/722 723/723/723 724/724/724
f 725/725/725 727/727/727 726/726/726
f 726/726/726 727/727/727 728/728/728
f 729/729/729 731/731/731 730/730/730
f 730/730/730 731/731/731 732/732/732
f 733/733/733 735/735/735 734/734/734
f 734/734/734 735/735/735 736/736/736
f 737/737/737 739/739/739 738/738/738
f 738/738/738 739/739/739 740/740/740
f 741/741/741 743/743/743 742/742/742
f 742/742/742 743/743/743 744/744/744
g Combined_Mesh_(root:_scene)_33
usemtl Combined_Mesh_(root:_scene)_33
usemap Combined_Mesh_(root:_scene)_33
f 745/745/745 747/747/747 746/746/746
f 746/746/746 747/747/747 748/748/748
f 749/749/749 751/751/751 750/750/750
f 750/750/750 751/751/751 752/752/752
f 753/753/753 755/755/755 754/754/754
f 754/754/754 755/755/755 756/756/756
f 757/757/757 759/759/759 758/758/758
f 758/758/758 759/759/759 760/760/760
f 761/761/761 763/763/763 762/762/762
f 762/762/762 763/763/763 764/764/764
f 765/765/765 767/767/767 766/766/766
f 766/766/766 767/767/767 768/768/768
g Combined_Mesh_(root:_scene)_34
usemtl Combined_Mesh_(root:_scene)_34
usemap Combined_Mesh_(root:_scene)_34
f 769/769/769 771/771/771 770/770/770
f 770/770/770 771/771/771 772/772/772
f 773/773/773 775/775/775 774/774/774
f 774/774/774 775/775/775 776/776/776
f 777/777/777 779/779/779 778/778/778
f 778/778/778 779/779/779 780/780/780
f 781/781/781 783/783/783 782/782/782
f 782/782/782 783/783/783 784/784/784
f 785/785/785 787/787/787 786/786/786
f 786/786/786 787/787/787 788/788/788
f 789/789/789 791/791/791 790/790/790
f 790/790/790 791/791/791 792/792/792
g Combined_Mesh_(root:_scene)_35
usemtl Combined_Mesh_(root:_scene)_35
usemap Combined_Mesh_(root:_scene)_35
f 793/793/793 795/795/795 794/794/794
f 794/794/794 795/795/795 796/796/796
f 797/797/797 799/799/799 798/798/798
f 798/798/798 799/799/799 800/800/800
f 801/801/801 803/803/803 802/802/802
f 802/802/802 803/803/803 804/804/804
f 805/805/805 807/807/807 806/806/806
f 806/806/806 807/807/807 808/808/808
f 809/809/809 811/811/811 810/810/810
f 810/810/810 811/811/811 812/812/812
f 813/813/813 815/815/815 814/814/814
f 814/814/814 815/815/815 816/816/816
g Combined_Mesh_(root:_scene)_36
usemtl Combined_Mesh_(root:_scene)_36
usemap Combined_Mesh_(root:_scene)_36
f 817/817/817 819/819/819 818/818/818
f 818/818/818 819/819/819 820/820/820
f 821/821/821 823/823/823 822/822/822
f 822/822/822 823/823/823 824/824/824
f 825/825/825 827/827/827 826/826/826
f 826/826/826 827/827/827 828/828/828
f 829/829/829 831/831/831 830/830/830
f 830/830/830 831/831/831 832/832/832
f 833/833/833 835/835/835 834/834/834
f 834/834/834 835/835/835 836/836/836
f 837/837/837 839/839/839 838/838/838
f 838/838/838 839/839/839 840/840/840
g Combined_Mesh_(root:_scene)_37
usemtl Combined_Mesh_(root:_scene)_37
usemap Combined_Mesh_(root:_scene)_37
f 841/841/841 843/843/843 842/842/842
f 842/842/842 843/843/843 844/844/844
f 845/845/845 847/847/847 846/846/846
f 846/846/846 847/847/847 848/848/848
f 849/849/849 851/851/851 850/850/850
f 850/850/850 851/851/851 852/852/852
f 853/853/853 855/855/855 854/854/854
f 854/854/854 855/855/855 856/856/856
f 857/857/857 859/859/859 858/858/858
f 858/858/858 859/859/859 860/860/860
f 861/861/861 863/863/863 862/862/862
f 862/862/862 863/863/863 864/864/864
g Combined_Mesh_(root:_scene)_38
usemtl Combined_Mesh_(root:_scene)_38
usemap Combined_Mesh_(root:_scene)_38
f 865/865/865 867/867/867 866/866/866
f 866/866/866 867/867/867 868/868/868
f 869/869/869 871/871/871 870/870/870
f 870/870/870 871/871/871 872/872/872
f 873/873/873 875/875/875 874/874/874
f 874/874/874 875/875/875 876/876/876
f 877/877/877 879/879/879 878/878/878
f 878/878/878 879/879/879 880/880/880
f 881/881/881 883/883/883 882/882/882
f 882/882/882 883/883/883 884/884/884
f 885/885/885 887/887/887 886/886/886
f 886/886/886 887/887/887 888/888/888
g Combined_Mesh_(root:_scene)_39
usemtl Combined_Mesh_(root:_scene)_39
usemap Combined_Mesh_(root:_scene)_39
f 889/889/889 891/891/891 890/890/890
f 890/890/890 891/891/891 892/892/892
f 893/893/893 895/895/895 894/894/894
f 894/894/894 895/895/895 896/896/896
f 897/897/897 899/899/899 898/898/898
f 898/898/898 899/899/899 900/900/900
f 901/901/901 903/903/903 902/902/902
f 902/902/902 903/903/903 904/904/904
f 905/905/905 907/907/907 906/906/906
f 906/906/906 907/907/907 908/908/908
f 909/909/909 911/911/911 910/910/910
f 910/910/910 911/911/911 912/912/912
g Combined_Mesh_(root:_scene)_40
usemtl Combined_Mesh_(root:_scene)_40
usemap Combined_Mesh_(root:_scene)_40
f 913/913/913 915/915/915 914/914/914
f 914/914/914 915/915/915 916/916/916
f 917/917/917 919/919/919 918/918/918
f 918/918/918 919/919/919 920/920/920
f 921/921/921 923/923/923 922/922/922
f 922/922/922 923/923/923 924/924/924
f 925/925/925 927/927/927 926/926/926
f 926/926/926 927/927/927 928/928/928
f 929/929/929 931/931/931 930/930/930
f 930/930/930 931/931/931 932/932/932
f 933/933/933 935/935/935 934/934/934
f 934/934/934 935/935/935 936/936/936
g Combined_Mesh_(root:_scene)_41
usemtl Combined_Mesh_(root:_scene)_41
usemap Combined_Mesh_(root:_scene)_41
f 937/937/937 939/939/939 938/938/938
f 938/938/938 939/939/939 940/940/940
f 941/941/941 943/943/943 942/942/942
f 942/942/942 943/943/943 944/944/944
f 945/945/945 947/947/947 946/946/946
f 946/946/946 947/947/947 948/948/948
f 949/949/949 951/951/951 950/950/950
f 950/950/950 951/951/951 952/952/952
f 953/953/953 955/955/955 954/954/954
f 954/954/954 955/955/955 956/956/956
f 957/957/957 959/959/959 958/958/958
f 958/958/958 959/959/959 960/960/960
