#Combined_Mesh_(root:_scene).obj

v 9 5 3
v 7 5 3
v 9 7 3
v 7 7 3
v 7 5 3
v 7 5 1
v 7 7 3
v 7 7 1
v 7 5 1
v 9 5 1
v 7 7 1
v 9 7 1
v 9 5 1
v 9 5 3
v 9 7 1
v 9 7 3
v 9 7 3
v 7 7 3
v 9 7 1
v 7 7 1
v 9 5 1
v 7 5 1
v 9 5 3
v 7 5 3
v -15 12 5
v -17 12 5
v -15 14 5
v -17 14 5
v -17 12 5
v -17 12 3
v -17 14 5
v -17 14 3
v -17 12 3
v -15 12 3
v -17 14 3
v -15 14 3
v -15 12 3
v -15 12 5
v -15 14 3
v -15 14 5
v -15 14 5
v -17 14 5
v -15 14 3
v -17 14 3
v -15 12 3
v -17 12 3
v -15 12 5
v -17 12 5
v -13 10 -37
v -15 10 -37
v -13 12 -37
v -15 12 -37
v -15 10 -37
v -15 10 -39
v -15 12 -37
v -15 12 -39
v -15 10 -39
v -13 10 -39
v -15 12 -39
v -13 12 -39
v -13 10 -39
v -13 10 -37
v -13 12 -39
v -13 12 -37
v -13 12 -37
v -15 12 -37
v -13 12 -39
v -15 12 -39
v -13 10 -39
v -15 10 -39
v -13 10 -37
v -15 10 -37
v -20 12 7
v -22 12 7
v -20 14 7
v -22 14 7
v -22 12 7
v -22 12 5
v -22 14 7
v -22 14 5
v -22 12 5
v -20 12 5
v -22 14 5
v -20 14 5
v -20 12 5
v -20 12 7
v -20 14 5
v -20 14 7
v -20 14 7
v -22 14 7
v -20 14 5
v -22 14 5
v -20 12 5
v -22 12 5
v -20 12 7
v -22 12 7
v -17 10 -26
v -16 10 -26
v -17 11 -26
v -16 11 -26
v -16 10 -26
v -16 10 -25
v -16 11 -26
v -16 11 -25
v -16 11 -25
v -17 11 -25
v -16 11 -26
v -17 11 -26
v -19 10 -25
v -19 10 -27
v -19 12 -25
v -19 12 -27
v -19 10 -27
v -17 10 -27
v -19 12 -27
v -17 12 -27
v -17 10 -27
v -17 10 -25
v -17 12 -27
v -17 12 -25
v -17 12 -25
v -19 12 -25
v -17 12 -27
v -19 12 -27
v 0 10 -57
v -1 10 -57
v 0 11 -57
v -1 11 -57
v -1 10 -57
v -1 10 -58
v -1 11 -57
v -1 11 -58
v 0 11 -57
v -1 11 -57
v 0 11 -58
v -1 11 -58
v 0 10 -58
v -2 10 -58
v 0 12 -58
v -2 12 -58
v -2 10 -58
v -2 10 -61
v -2 12 -58
v -2 12 -61
v -2 10 -61
v 0 10 -61
v -2 12 -61
v 0 12 -61
v 0 12 -58
v -2 12 -58
v 0 12 -61
v -2 12 -61
v -23 10 3
v -25 10 3
v -23 12 3
v -25 12 3
v -25 10 3
v -25 10 1
v -25 12 3
v -25 12 1
v -25 10 1
v -23 10 1
v -25 12 1
v -23 12 1
v -23 10 1
v -23 10 3
v -23 12 1
v -23 12 3
v -23 12 3
v -25 12 3
v -23 12 1
v -25 12 1
v -23 10 1
v -25 10 1
v -23 10 3
v -25 10 3
v -2 10 -19
v -4 10 -19
v -2 12 -19
v -4 12 -19
v -4 10 -19
v -4 10 -21
v -4 12 -19
v -4 12 -21
v -4 10 -21
v -2 10 -21
v -4 12 -21
v -2 12 -21
v -2 10 -21
v -2 10 -19
v -2 12 -21
v -2 12 -19
v -2 12 -19
v -4 12 -19
v -2 12 -21
v -4 12 -21
v -2 10 -21
v -4 10 -21
v -2 10 -19
v -4 10 -19
v 11 5 -3
v 9 5 -3
v 11 7 -3
v 9 7 -3
v 9 5 -3
v 9 5 -5
v 9 7 -3
v 9 7 -5
v 9 5 -5
v 11 5 -5
v 9 7 -5
v 11 7 -5
v 11 5 -5
v 11 5 -3
v 11 7 -5
v 11 7 -3
v 11 7 -3
v 9 7 -3
v 11 7 -5
v 9 7 -5
v 11 5 -5
v 9 5 -5
v 11 5 -3
v 9 5 -3
v 0 10 -69
v 0 10 -73
v 14 10 -69
v 18 10 -73
v 18 10 -48
v 14 10 -48
v 19 5 -21
v 13 5 -22
v 19 5 -24
v 13 5 -24
v 19 5 -24
v 13 5 -24
v 19 10 -36
v 13 10 -36
v 0 10 -48
v -5 10 -48
v 0 10 -50
v -5 10 -50
v 0 10 -50
v -15 10 -50
v 0 10 -66
v -15 10 -66
v 0 10 -69
v 0 10 -66
v -5 10 -66
v -5 10 -74
v 0 10 -73
v 0 10 -74
v -5 10 -48
v 0 10 -48
v -5 10 -43
v 9 10 -48
v 9 10 -43
v 19 10 -48
v 22 10 -48
v 19 10 -40
v 22 10 -40
v 18 10 -48
v 13 10 -36
v 14 10 -48
v 19 10 -36
v 9 10 -43
v 13 10 -48
v 9 10 -36
v 9 10 -48
v 18 5 -10
v 14 5 -10
v 14 5 -11
v 18 5 -11
v 20 5 -20
v 20 5 -17
v 19 5 -20
v 19 5 -17
v 19 5 -20
v 13 5 -22
v 19 5 -21
v 14 5 -11
v 13 5 -11
v 18 5 -11
v 19 5 -17
v 19 5 -11
v -29 10 -5
v -23 10 -5
v -29 10 1
v -23 10 1
v -29 10 1
v -23 10 1
v -29 10 3
v -23 10 3
v -29 10 3
v -23 10 3
v -29 13 12
v -23 13 12
v -29 13 12
v -23 13 12
v -29 13 19
v -23 13 19
v -23 13 19
v -23 13 12
v -16 13 19
v -16 13 12
v -23 13 12
v -16 12 12
v -16 13 12
v -23 12 12
v -4 5 1
v 9 5 1
v -4 5 7
v 9 5 7
v -4 5 1
v -5 5 1
v -5 5 -5
v 9 5 1
v 13 5 -5
v 13 5 1
v -5 5 1
v -23 10 1
v -5 5 -5
v -23 10 -5
v -22 10 -36
v -22 10 -25
v -29 10 -36
v -29 10 -25
v -23 6 -45
v -29 6 -45
v -23 6 -50
v -29 6 -50
v -23 6 -45
v -29 10 -36
v -29 6 -45
v -22 10 -36
v -29 10 -25
v -23 10 -25
v -29 10 -5
v -23 10 -5
v -15 10 -36
v -15 10 -25
v -22 10 -36
v -22 10 -25
v -16 10 -36
v -22 10 -36
v -16 10 -50
v -22 10 -50
v -10 10 -37
v -10 10 -36
v -14 10 -36
v -14 10 -37
v -9 10 -50
v -9 10 -37
v -15 10 -50
v -15 10 -37
v -10 10 -36
v -9 10 -36
v -9 10 -25
v -14 10 -36
v -15 10 -25
v -15 10 -36
v 0 10 -74
v -5 10 -74
v 0 10 -81
v -5 10 -80
v 18 14 -81
v 19 14 -81
v 18 14 -75
v 19 14 -75
v 0 10 -74
v 0 10 -81
v 18 14 -75
v 18 14 -74
v 18 14 -81
v 2 10 -16
v -4 10 -21
v 9 10 -16
v 9 10 -21
v 9 10 -16
v 9 10 -21
v 12 10 -16
v 12 10 -21
v 12 10 -21
v 9 10 -21
v 12 10 -36
v 9 10 -36
v -16 12 11
v -16 12 2
v -4 12 11
v -4 12 2
v -4 12 11
v -4 12 2
v 2 12 11
v 2 12 2
v 2 12 2
v -4 12 2
v 2 12 -11
v -4 12 -11
v 2 12 -11
v -1 12 -11
v 2 10 -14
v -1 10 -14
v -4 10 -11
v -1 10 -11
v -4 12 -11
v -1 12 -11
v -1 10 -14
v -1 12 -11
v -1 10 -11
v -1 10 -11
v -4 10 -21
v -1 10 -14
v -4 10 -11
v -1 10 -14
v -4 10 -21
v 2 10 -16
v 2 10 -14
v -22 12 2
v -16 12 2
v -22 12 12
v -16 12 11
v -16 12 12
v 16.2 16.95 -57.8
v 15.8 16.95 -57.8
v 16.2 17.05 -57.8
v 15.8 17.05 -57.8
v 15.8 16.95 -57.8
v 15.8 16.95 -58.2
v 15.8 17.05 -57.8
v 15.8 17.05 -58.2
v 15.8 16.95 -58.2
v 16.2 16.95 -58.2
v 15.8 17.05 -58.2
v 16.2 17.05 -58.2
v 16.2 16.95 -58.2
v 16.2 16.95 -57.8
v 16.2 17.05 -58.2
v 16.2 17.05 -57.8
v 16.2 17.05 -57.8
v 15.8 17.05 -57.8
v 16.2 17.05 -58.2
v 15.8 17.05 -58.2
v 16.2 16.95 -58.2
v 15.8 16.95 -58.2
v 16.2 16.95 -57.8
v 15.8 16.95 -57.8
v 10.7 8.949998 -1.800001
v 10.3 8.949998 -1.800001
v 10.7 9.049997 -1.800001
v 10.3 9.049997 -1.800001
v 10.3 8.949998 -1.800001
v 10.3 8.949998 -2.200001
v 10.3 9.049997 -1.800001
v 10.3 9.049997 -2.200001
v 10.3 8.949998 -2.200001
v 10.7 8.949998 -2.200001
v 10.3 9.049997 -2.200001
v 10.7 9.049997 -2.200001
v 10.7 8.949998 -2.200001
v 10.7 8.949998 -1.800001
v 10.7 9.049997 -2.200001
v 10.7 9.049997 -1.800001
v 10.7 9.049997 -1.800001
v 10.3 9.049997 -1.800001
v 10.7 9.049997 -2.200001
v 10.3 9.049997 -2.200001
v 10.7 8.949998 -2.200001
v 10.3 8.949998 -2.200001
v 10.7 8.949998 -1.800001
v 10.3 8.949998 -1.800001
v 2.200001 10.95 1.199999
v 1.800003 10.95 1.199999
v 2.200001 11.05 1.199999
v 1.800003 11.05 1.199999
v 1.800003 10.95 1.199999
v 1.800003 10.95 0.7999993
v 1.800003 11.05 1.199999
v 1.800003 11.05 0.7999993
v 1.800003 10.95 0.7999993
v 2.200001 10.95 0.7999993
v 1.800003 11.05 0.7999993
v 2.200001 11.05 0.7999993
v 2.200001 10.95 0.7999993
v 2.200001 10.95 1.199999
v 2.200001 11.05 0.7999993
v 2.200001 11.05 1.199999
v 2.200001 11.05 1.199999
v 1.800003 11.05 1.199999
v 2.200001 11.05 0.7999993
v 1.800003 11.05 0.7999993
v 2.200001 10.95 0.7999993
v 1.800003 10.95 0.7999993
v 2.200001 10.95 1.199999
v 1.800003 10.95 1.199999
v -10 14 -37
v -10 18 -37
v -14 14 -37
v -14 18 -37
v -10 18 -49
v -10 14 -49
v -14 18 -49
v -14 14 -49
v -15 18 -49
v -14 18 -49
v -15 10 -49
v -14 14 -49
v -14 10 -49
v -10 18 -49
v -9 18 -49
v -10 14 -49
v -9 10 -49
v -10 10 -49
v -14 18 -37
v -15 18 -37
v -14 14 -37
v -15 10 -37
v -14 10 -37
v -15 18 -37
v -15 18 -49
v -15 10 -37
v -15 10 -49
v -9 18 -37
v -10 18 -37
v -9 10 -37
v -10 14 -37
v -10 10 -37
v -9 10 -49
v -9 18 -49
v -9 10 -37
v -9 18 -37
v -5 10 -50
v -5 10 -43
v -5 18 -50
v -5 18 -43
v -5 18 -43
v 9 10 -43
v 9 18 -43
v -5 10 -43
v 0 18 -48
v 0 10 -69
v 0 18 -69
v 0 10 -48
v 14 18 -48
v 0 10 -48
v 0 18 -48
v 14 10 -48
v -9 18 -25
v -9 4 -36
v -9 18 -36
v -9 4 -25
v -23 18 -25
v -9 4 -25
v -9 18 -25
v -23 4 -25
v -23 18 -5
v -23 4 -25
v -23 18 -25
v -23 4 -5
v 12 4 -16
v 12 4 -36
v 12 11 -16
v 12 11 -36
v 12 4 -36
v 13 4 -36
v 12 11 -36
v 13 11 -36
v 13 4 -36
v 13 4 -16
v 13 11 -36
v 13 11 -16
v 13 11 -16
v 12 11 -16
v 13 11 -36
v 12 11 -36
v -4 18 -21
v -4 4 -5
v -4 18 -5
v -4 4 -21
v 2 4 11
v -16 18 11
v -16 4 11
v 2 18 11
v 2 11 -7
v 2 18 11
v 2 11 11
v 2 18 -16
v 9 18 -21
v -4 4 -21
v -4 18 -21
v 9 4 -21
v 9 18 -43
v 9 4 -21
v 9 18 -21
v 9 4 -43
v 2 18 -16
v 2 11 -7
v 2 9 -16
v 13 18 -16
v 13 11 -16
v 13 18 -11
v 13 4 -16
v 13 4 -11
v 2 4 -16
v 13 4 -16
v 2 9 -16
v 13 11 -16
v 13 18 -16
v 2 18 -16
v 13 9 1
v 9 9 -5
v 9 9 1
v 13 9 -5
v 9 4 1
v 13 9 1
v 9 9 1
v 13 4 1
v 13 4 -5
v 9 9 -5
v 13 9 -5
v 9 4 -5
v 13 9 1
v 13 4 -5
v 13 9 -5
v 13 4 1
v 18 9 -11
v 18 18 -11
v 14 9 -11
v 14 18 -11
v 13 4 -11
v 14 4 -11
v 13 18 -11
v 14 9 -11
v 14 18 -11
v 18 18 -11
v 18 9 -11
v 19 18 -11
v 18 4 -11
v 19 4 -11
v 14 9 -11
v 14 4 -11
v 14 9 -10
v 14 4 -10
v 18 4 -11
v 18 9 -11
v 18 4 -10
v 18 9 -10
v 18 9 -11
v 14 9 -11
v 18 9 -10
v 14 9 -10
v 18 4 -10
v 14 9 -10
v 14 4 -10
v 18 9 -10
v -22 10 -50
v -16 18 -50
v -16 10 -50
v -22 18 -50
v -14 10 -37
v -14 10 -36
v -14 14 -37
v -14 14 -36
v -10 10 -36
v -10 10 -37
v -10 14 -36
v -10 14 -37
v -10 18 -36
v -10 14 -36
v -14 18 -36
v -14 14 -36
v -10 14 -36
v -10 14 -37
v -14 14 -36
v -14 14 -37
v -14 18 -36
v -14 14 -36
v -16 18 -36
v -14 10 -36
v -16 10 -36
v -16 10 -36
v -16 10 -50
v -16 18 -36
v -16 18 -50
v -9 10 -36
v -10 10 -36
v -9 18 -36
v -10 14 -36
v -10 18 -36
v -29 4 19
v -29 18 -47
v -29 4 -47
v -29 18 19
v -16 4 19
v -29 18 19
v -29 4 19
v -16 18 19
v -16 4 11
v -16 18 19
v -16 4 19
v -16 18 11
v 18 15 -73
v 15 15 -73
v 18 15 -74
v 15 15 -74
v 15 14 -73
v 15 15 -74
v 15 15 -73
v 15 14 -74
v 11 14 -73
v 15 14 -74
v 15 14 -73
v 11 14 -74
v 11 13 -73
v 11 14 -74
v 11 14 -73
v 11 13 -74
v 7 13 -73
v 11 13 -74
v 11 13 -73
v 7 13 -74
v 7 12 -73
v 7 13 -74
v 7 13 -73
v 7 12 -74
v 3 12 -73
v 7 12 -74
v 7 12 -73
v 3 12 -74
v 3 11 -73
v 3 12 -74
v 3 12 -73
v 3 11 -74
v 0 11 -73
v 3 11 -74
v 3 11 -73
v 0 11 -74
v 0 4 -73
v 0 11 -74
v 0 11 -73
v 0 4 -74
v 0 11 -74
v 0 4 -74
v 3 11 -74
v 18 4 -74
v 3 12 -74
v 7 12 -74
v 7 13 -74
v 11 13 -74
v 11 14 -74
v 15 14 -74
v 18 15 -74
v 15 15 -74
v 15 14 -73
v 15 15 -73
v 18 15 -73
v 18 4 -73
v 11 13 -73
v 11 14 -73
v 7 12 -73
v 7 13 -73
v 3 11 -73
v 3 12 -73
v 0 4 -73
v 0 11 -73
v -5 18 -66
v -15 4 -66
v -15 18 -66
v -5 4 -66
v -5 18 -80
v -5 4 -66
v -5 18 -66
v -5 4 -80
v 4 18 -80
v -5 4 -80
v -5 18 -80
v 4 4 -80
v 4 18 -81
v 4 4 -80
v 4 18 -80
v 4 4 -81
v 19 18 -81
v 4 4 -81
v 4 18 -81
v 19 4 -81
v 22 18 -48
v 18 4 -48
v 18 18 -48
v 22 4 -48
v 22 18 -40
v 22 4 -48
v 22 18 -48
v 22 4 -40
v 19 18 -17
v 19 9 -20
v 19 18 -20
v 19 9 -17
v 19 4 -11
v 19 4 -17
v 19 18 -11
v 19 9 -17
v 19 18 -17
v 19 18 -20
v 19 9 -20
v 19 18 -40
v 19 4 -20
v 19 4 -40
v 22 4 -40
v 22 18 -40
v 19 18 -40
v 19 4 -40
v 19 9 -17
v 19 4 -17
v 20 9 -17
v 20 4 -17
v 19 4 -20
v 19 9 -20
v 20 4 -20
v 20 9 -20
v 20 4 -20
v 20 9 -17
v 20 4 -17
v 20 9 -20
v 19 9 -20
v 19 9 -17
v 20 9 -20
v 20 9 -17
v -14 10 -50
v -14 10 -49
v -14 14 -50
v -14 14 -49
v -10 10 -49
v -10 10 -50
v -10 14 -49
v -10 14 -50
v -10 14 -50
v -10 18 -50
v -14 14 -50
v -14 18 -50
v -10 14 -49
v -10 14 -50
v -14 14 -49
v -14 14 -50
v -15 10 -50
v -14 10 -50
v -15 18 -50
v -14 14 -50
v -14 18 -50
v -15 10 -66
v -15 10 -50
v -15 18 -50
v -15 18 -66
v -10 18 -50
v -10 14 -50
v -9 18 -50
v -10 10 -50
v -9 10 -50
v -5 10 -50
v -5 18 -50
v -9 18 -50
v -9 10 -50
v -4 4 1
v -4 4 7
v -4 11 1
v -4 11 7
v 9 4 7
v -4 11 7
v -4 4 7
v 9 11 7
v 9 4 1
v 9 11 7
v 9 4 7
v 9 11 1
v 9 9 -5
v 9 11 1
v 9 9 1
v 9 11 -5
v -4 4 -5
v 9 11 -5
v 9 4 -5
v -4 11 -5
v -4 11 -5
v -4 9 1
v -4 11 1
v -4 9 -5
v 9 11 7
v -4 11 1
v -4 11 7
v 9 11 1
v -4 11 1
v 9 11 -5
v -4 11 -5
v 9 11 1
v -4 18 -5
v -23 4 -5
v -23 18 -5
v -4 4 -5
v -4 9 1
v -5 9 -5
v -5 9 1
v -4 9 -5
v -5 13 1
v -4 4 1
v -4 11 1
v -5 4 1
v 20 9 -20
v 19 9 -17
v 20 9 -17
v 19 9 -20
v -22 4 2
v -22 13 12
v -22 13 2
v -22 4 12
v -23 4 12
v -23 13 1
v -23 13 12
v -23 4 1
v -4 13 2
v -22 4 2
v -22 13 2
v -4 4 2
v -5 4 1
v -23 13 1
v -23 4 1
v -5 13 1
v -5 9 -5
v -5 13 1
v -5 9 1
v -5 13 -5
v -4 13 -5
v -4 11 2
v -4 13 2
v -4 11 -5
v -5 13 1
v -4 13 -5
v -4 13 2
v -5 13 -5
v -22 13 2
v -23 13 12
v -23 13 1
v -22 13 12
v -22 13 2
v -5 13 1
v -4 13 2
v -23 13 1
v -22 4 -47
v -22 18 -50
v -22 4 -50
v -22 18 -47
v -29 10 -47
v -22 18 -47
v -22 10 -47
v -29 18 -47
v -22 10 -50
v -29 10 -47
v -22 10 -47
v -29 10 -50
v -22 4 -50
v -29 10 -50
v -22 10 -50
v -29 4 -50
v -29 4 -47
v -29 10 -50
v -29 4 -50
v -29 10 -47
v -22 4 -36
v -22 11 -47
v -22 4 -47
v -22 11 -36
v -23 4 -36
v -22 11 -36
v -22 4 -36
v -23 11 -36
v -23 4 -50
v -23 11 -36
v -23 4 -36
v -23 11 -50
v -23 11 -36
v -22 11 -47
v -22 11 -36
v -23 11 -50
v 18 10 -48
v 18 10 -69
v 18 17 -48
v 18 17 -69
v 14 10 -69
v 14 10 -48
v 14 17 -69
v 14 17 -48
v 18 18 -48
v 18 17 -48
v 14 18 -48
v 14 17 -48
v 18 17 -48
v 18 17 -69
v 14 17 -48
v 14 17 -69
v 18 17 -69
v 18 18 -69
v 14 17 -69
v 14 18 -69
v 0 10 -69
v 14 10 -69
v 0 18 -69
v 14 17 -69
v 14 18 -69
v 18 18 -69
v 18 17 -69
v 18 18 -75
v 18 10 -69
v 18 10 -75
v 19 10 -75
v 18 18 -75
v 18 10 -75
v 19 18 -75
v 19 10 -81
v 19 18 -75
v 19 10 -75
v 19 18 -81
v -23.05 15 -23
v -23.05 16 -23
v -23.05 15 -22
v -23.05 16 -22
v -18 15 -49.95
v -18 16 -49.95
v -17 15 -49.95
v -17 16 -49.95
v -23.05 15 -13
v -23.05 16 -13
v -23.05 15 -12
v -23.05 16 -12
v -21 15 -49.95
v -21 16 -49.95
v -20 15 -49.95
v -20 16 -49.95
v -23.045 15 -10
v -23.045 16 -10
v -23.045 15 -9
v -23.045 16 -9
v 0 16 -43.051
v 0 17 -43.051
v -1 16 -43.051
v -1 17 -43.051
v 4 16 -43.051
v 4 17 -43.051
v 3 16 -43.051
v 3 17 -43.051

vn 0 0 1
vn 0 0 1
vn 0 0 1
vn 0 0 1
vn -1 0 0
vn -1 0 0
vn -1 0 0
vn -1 0 0
vn 0 0 -1
vn 0 0 -1
vn 0 0 -1
vn 0 0 -1
vn 1 0 0
vn 1 0 0
vn 1 0 0
vn 1 0 0
vn 0 1 0
vn 0 1 0
vn 0 1 0
vn 0 1 0
vn 0 -1 0
vn 0 -1 0
vn 0 -1 0
vn 0 -1 0
vn 0 0 1
vn 0 0 1
vn 0 0 1
vn 0 0 1
vn -1 0 0
vn -1 0 0
vn -1 0 0
vn -1 0 0
vn 0 0 -1
vn 0 0 -1
vn 0 0 -1
vn 0 0 -1
vn 1 0 0
vn 1 0 0
vn 1 0 0
vn 1 0 0
vn 0 1 0
vn 0 1 0
vn 0 1 0
vn 0 1 0
vn 0 -1 0
vn 0 -1 0
vn 0 -1 0
vn 0 -1 0
vn 0 0 1
vn 0 0 1
vn 0 0 1
vn 0 0 1
vn -1 0 0
vn -1 0 0
vn -1 0 0
vn -1 0 0
vn 0 0 -1
vn 0 0 -1
vn 0 0 -1
vn 0 0 -1
vn 1 0 0
vn 1 0 0
vn 1 0 0
vn 1 0 0
vn 0 1 0
vn 0 1 0
vn 0 1 0
vn 0 1 0
vn 0 -1 0
vn 0 -1 0
vn 0 -1 0
vn 0 -1 0
vn 0 0 1
vn 0 0 1
vn 0 0 1
vn 0 0 1
vn -1 0 0
vn -1 0 0
vn -1 0 0
vn -1 0 0
vn 0 0 -1
vn 0 0 -1
vn 0 0 -1
vn 0 0 -1
vn 1 0 0
vn 1 0 0
vn 1 0 0
vn 1 0 0
vn 0 1 0
vn 0 1 0
vn 0 1 0
vn 0 1 0
vn 0 -1 0
vn 0 -1 0
vn 0 -1 0
vn 0 -1 0
vn 0 0 -1
vn 0 0 -1
vn 0 0 -1
vn 0 0 -1
vn 1 0 0
vn 1 0 0
vn 1 0 0
vn 1 0 0
vn 0 1 0
vn 0 1 0
vn 0 1 0
vn 0 1 0
vn -1 0 0
vn -1 0 0
vn -1 0 0
vn -1 0 0
vn 0 0 -1
vn 0 0 -1
vn 0 0 -1
vn 0 0 -1
vn 1 0 0
vn 1 0 0
vn 1 0 0
vn 1 0 0
vn 0 1 0
vn 0 1 0
vn 0 1 0
vn 0 1 0
vn 0 0 1
vn 0 0 1
vn 0 0 1
vn 0 0 1
vn -1 0 0
vn -1 0 0
vn -1 0 0
vn -1 0 0
vn 0 1 0
vn 0 1 0
vn 0 1 0
vn 0 1 0
vn 0 0 1
vn 0 0 1
vn 0 0 1
vn 0 0 1
vn -1 0 0
vn -1 0 0
vn -1 0 0
vn -1 0 0
vn 0 0 -1
vn 0 0 -1
vn 0 0 -1
vn 0 0 -1
vn 0 1 0
vn 0 1 0
vn 0 1 0
vn 0 1 0
vn 0 0 1
vn 0 0 1
vn 0 0 1
vn 0 0 1
vn -1 0 0
vn -1 0 0
vn -1 0 0
vn -1 0 0
vn 0 0 -1
vn 0 0 -1
vn 0 0 -1
vn 0 0 -1
vn 1 0 0
vn 1 0 0
vn 1 0 0
vn 1 0 0
vn 0 1 0
vn 0 1 0
vn 0 1 0
vn 0 1 0
vn 0 -1 0
vn 0 -1 0
vn 0 -1 0
vn 0 -1 0
vn 0 0 1
vn 0 0 1
vn 0 0 1
vn 0 0 1
vn -1 0 0
vn -1 0 0
vn -1 0 0
vn -1 0 0
vn 0 0 -1
vn 0 0 -1
vn 0 0 -1
vn 0 0 -1
vn 1 0 0
vn 1 0 0
vn 1 0 0
vn 1 0 0
vn 0 1 0
vn 0 1 0
vn 0 1 0
vn 0 1 0
vn 0 -1 0
vn 0 -1 0
vn 0 -1 0
vn 0 -1 0
vn 0 0 1
vn 0 0 1
vn 0 0 1
vn 0 0 1
vn -1 0 0
vn -1 0 0
vn -1 0 0
vn -1 0 0
vn 0 0 -1
vn 0 0 -1
vn 0 0 -1
vn 0 0 -1
vn 1 0 0
vn 1 0 0
vn 1 0 0
vn 1 0 0
vn 0 1 0
vn 0 1 0
vn 0 1 0
vn 0 1 0
vn 0 -1 0
vn 0 -1 0
vn 0 -1 0
vn 0 -1 0
vn 0 1 0
vn 0 1 0
vn 0 1 0
vn 0 1 0
vn 0 1 0
vn 0 1 0
vn 0 1 0
vn 0 1 0
vn 0 1 0
vn 0 1 0
vn 0 0.9230769 0.3846154
vn 0 0.9230769 0.3846154
vn 0 0.9230769 0.3846154
vn 0 0.9230769 0.3846154
vn 0 1 0
vn 0 1 0
vn 0 1 0
vn 0 1 0
vn 0 1 0
vn 0 1 0
vn 0 1 0
vn 0 1 0
vn 0 1 0
vn 0 1 0
vn 0 0.9999999 0
vn 0 1 0
vn 0 1 0
vn 0 1 0
vn 0 1 0
vn 0 1 0
vn 0 1 0
vn 0 1 0
vn 0 0.9999999 0
vn 0 1 0
vn 0 1 0
vn 0 1 0
vn 0 1 0
vn 0 1 0
vn 0 1 0
vn 0 1 0
vn 0 1 0
vn 0 1 0
vn 0 1 0
vn 0 1 0
vn 0 1 0
vn 0 1 0
vn 0 1 0
vn 0 1 0
vn 0 1 0
vn 0 1 0
vn 0 1 0
vn 0 1 0
vn 0 1 0
vn 0 1 0
vn 0 1 0
vn 0 1 0
vn 0 1 0
vn 0 1 0
vn 0 1 0
vn 0 0.9999999 0
vn 0 1 0
vn 0 1 0
vn 0 1 0
vn 0 1 0
vn 0 1 0
vn 0 1 0
vn 0 1 0
vn 0 1 0
vn 0 1 0
vn 0 0.9486833 -0.3162278
vn 0 0.9486833 -0.3162278
vn 0 0.9486833 -0.3162278
vn 0 0.9486833 -0.3162278
vn 0 1 0
vn 0 1 0
vn 0 1 0
vn 0 1 0
vn 0 1 0
vn 0 1 0
vn 0 1 0
vn 0 1 0
vn 0 0 -1
vn 0 0 -1
vn 0 0 -1
vn 0 0 -1
vn 0 1 0
vn 0 1 0
vn 0 1 0
vn 0 1 0
vn 0 1 0
vn 0 1 0
vn 0 1 0
vn 0 1 0
vn 0 1 0
vn 0 1 0
vn 0.2676439 0.9635179 0
vn 0.2676439 0.9635179 0
vn 0.2676439 0.9635179 0
vn 0.2676439 0.9635179 0
vn 0 1 0
vn 0 1 0
vn 0 1 0
vn 0 1 0
vn 0 1 0
vn 0 1 0
vn 0 1 0
vn 0 1 0
vn 0 0.9138115 -0.4061384
vn 0 0.9138115 -0.4061384
vn 0 0.9138116 -0.4061385
vn 0 0.9138116 -0.4061385
vn 0 1 0
vn 0 1 0
vn 0 1 0
vn 0 1 0
vn 0 1 0
vn 0 1 0
vn 0 1 0
vn 0 1 0
vn 0 1 0
vn 0 1 0
vn 0 1 0
vn 0 1 0
vn 0 1 0
vn 0 1 0
vn 0 1 0
vn 0 1 0
vn 0 1 0
vn 0 1 0
vn 0 1 0
vn 0 1 0
vn 0 0.9999999 0
vn 0 1 0
vn 0 0.9999999 0
vn 0 0.9999999 0
vn 0 1 0
vn 0 1 0
vn 0 1 0
vn 0 1 0
vn 0 1 0
vn 0 1 0
vn 0 1 0
vn 0 1 0
vn 0 1 0
vn 0 1 0
vn -0.2169305 0.9761871 0
vn -0.2169304 0.976187 0
vn -0.2169305 0.9761871 0
vn -0.2169305 0.9761871 0
vn -0.2169304 0.976187 0
vn 0 1 0
vn 0 1 0
vn 0 1 0
vn 0 1 0
vn 0 1 0
vn 0 1 0
vn 0 1 0
vn 0 1 0
vn 0 1 0
vn 0 1 0
vn 0 1 0
vn 0 1 0
vn 0 1 0
vn 0 1 0
vn 0 1 0
vn 0 1 0
vn 0 1 0
vn 0 1 0
vn 0 1 0
vn 0 1 0
vn 0 1 0
vn 0 1 0
vn 0 1 0
vn 0 1 0
vn 0 0.8320503 -0.5547002
vn 0 0.8320503 -0.5547002
vn 0 0.8320503 -0.5547002
vn 0 0.8320503 -0.5547002
vn 0 0 -1
vn 0 0 -1
vn 0 0 -1
vn 0 0 -1
vn -1 0 0
vn -1 0 0
vn -1 0 0
vn 0 1 0
vn 0 1 0
vn 0 1 0
vn 0 1 0
vn 0 1 0
vn 0 1 0
vn 0 1 0
vn 0 1 0
vn 0 1 0
vn 0 1 0
vn 0 1 0
vn 0 1 0
vn 0 1 0
vn 0 0 0.9999999
vn 0 0 0.9999999
vn 0 0 0.9999999
vn 0 0 0.9999999
vn -1 0 0
vn -1 0 0
vn -1 0 0
vn -1 0 0
vn 0 0 -0.9999999
vn 0 0 -0.9999999
vn 0 0 -0.9999999
vn 0 0 -0.9999999
vn 1 0 0
vn 1 0 0
vn 1 0 0
vn 1 0 0
vn 0 1 0
vn 0 1 0
vn 0 1 0
vn 0 1 0
vn 0 -1 0
vn 0 -1 0
vn 0 -1 0
vn 0 -1 0
vn 0 0 0.9999999
vn 0 0 0.9999999
vn 0 0 0.9999999
vn 0 0 0.9999999
vn -1 0 0
vn -1 0 0
vn -1 0 0
vn -1 0 0
vn 0 0 -0.9999999
vn 0 0 -0.9999999
vn 0 0 -0.9999999
vn 0 0 -0.9999999
vn 1 0 0
vn 1 0 0
vn 1 0 0
vn 1 0 0
vn 0 1 0
vn 0 1 0
vn 0 1 0
vn 0 1 0
vn 0 -1 0
vn 0 -1 0
vn 0 -1 0
vn 0 -1 0
vn 0 0 0.9999999
vn 0 0 0.9999999
vn 0 0 0.9999999
vn 0 0 0.9999999
vn -1 0 0
vn -1 0 0
vn -1 0 0
vn -1 0 0
vn 0 0 -0.9999999
vn 0 0 -0.9999999
vn 0 0 -0.9999999
vn 0 0 -0.9999999
vn 1 0 0
vn 1 0 0
vn 1 0 0
vn 1 0 0
vn 0 1 0
vn 0 1 0
vn 0 1 0
vn 0 1 0
vn 0 -1 0
vn 0 -1 0
vn 0 -1 0
vn 0 -1 0
vn 0 0 -1
vn 0 0 -1
vn 0 0 -1
vn 0 0 -1
vn 0 0 1
vn 0 0 1
vn 0 0 1
vn 0 0 1
vn 0 0 1
vn 0 0 1
vn 0 0 1
vn 0 0 1
vn 0 0 1
vn 0 0 1
vn 0 0 1
vn 0 0 1
vn 0 0 1
vn 0 0 1
vn 0 0 -1
vn 0 0 -1
vn 0 0 -1
vn 0 0 -1
vn 0 0 -1
vn 1 0 0
vn 1 0 0
vn 1 0 0
vn 1 0 0
vn 0 0 -1
vn 0 0 -1
vn 0 0 -1
vn 0 0 -1
vn 0 0 -1
vn -1 0 0
vn -1 0 0
vn -1 0 0
vn -1 0 0
vn 1 0 0
vn 1 0 0
vn 1 0 0
vn 1 0 0
vn 0 0 -1
vn 0 0 -1
vn 0 0 -1
vn 0 0 -1
vn -1 0 0
vn -1 0 0
vn -1 0 0
vn -1 0 0
vn 0 0 1
vn 0 0 1
vn 0 0 1
vn 0 0 1
vn -1 0 0
vn -1 0 0
vn -1 0 0
vn -1 0 0
vn 0 0 -1
vn 0 0 -1
vn 0 0 -1
vn 0 0 -1
vn -1 0 0
vn -1 0 0
vn -1 0 0
vn -1 0 0
vn -1 0 0
vn -1 0 0
vn -1 0 0
vn -1 0 0
vn 0 0 -1
vn 0 0 -1
vn 0 0 -1
vn 0 0 -1
vn 1 0 0
vn 1 0 0
vn 1 0 0
vn 1 0 0
vn 0 1 0
vn 0 1 0
vn 0 1 0
vn 0 1 0
vn 1 0 0
vn 1 0 0
vn 1 0 0
vn 1 0 0
vn 0 0 -1
vn 0 0 -1
vn 0 0 -1
vn 0 0 -1
vn -1 0 0
vn -1 0 0
vn -1 0 0
vn -0.9999999 0 0
vn 0 0 1
vn 0 0 1
vn 0 0 1
vn 0 0 1
vn 1 0 0
vn 1 0 0
vn 1 0 0
vn 1 0 0
vn -1 0 0
vn -1 0 0
vn -1 0 0
vn 1 0 0
vn 1 0 0
vn 1 0 0
vn 1 0 0
vn 1 0 0
vn 0 0 -0.9999999
vn 0 0 -1
vn 0 0 -1
vn 0 0 -1
vn 0 0 -1
vn 0 0 -1
vn 0 -1 0
vn 0 -1 0
vn 0 -1 0
vn 0 -1 0
vn 0 0 -1
vn 0 0 -1
vn 0 0 -1
vn 0 0 -1
vn 0 0 1
vn 0 0 1
vn 0 0 1
vn 0 0 1
vn -1 0 0
vn -1 0 0
vn -1 0 0
vn -1 0 0
vn 0 0 -1
vn 0 0 -1
vn 0 0 -1
vn 0 0 -1
vn 0 0 -1
vn 0 0 -1
vn 0 0 -1
vn 0 0 -1
vn 0 0 -1
vn 0 0 -1
vn 0 0 -1
vn 0 0 -1
vn 0 0 -1
vn 0 0 -1
vn 1 0 0
vn 1 0 0
vn 1 0 0
vn 1 0 0
vn -1 0 0
vn -1 0 0
vn -1 0 0
vn -1 0 0
vn 0 -1 0
vn 0 -1 0
vn 0 -1 0
vn 0 -1 0
vn 0 0 -1
vn 0 0 -1
vn 0 0 -1
vn 0 0 -1
vn 0 0 1
vn 0 0 1
vn 0 0 1
vn 0 0 1
vn 1 0 0
vn 1 0 0
vn 1 0 0
vn 1 0 0
vn -1 0 0
vn -1 0 0
vn -1 0 0
vn -1 0 0
vn 0 0 1
vn 0 0 1
vn 0 0 1
vn 0 0 1
vn 0 -1 0
vn 0 -1 0
vn 0 -1 0
vn 0 -1 0
vn 0 0 1
vn 0 0 1
vn 0 0 1
vn 0 0 1
vn 0 0 1
vn -1 0 0
vn -1 0 0
vn -1 0 0
vn -1 0 0
vn 0 0 1
vn 0 0 1
vn 0 0 1
vn 0 0 1
vn 0 0 1
vn 1 0 0
vn 1 0 0
vn 1 0 0
vn 1 0 0
vn 0 0 -1
vn 0 0 -1
vn 0 0 -1
vn 0 0 -1
vn -1 0 0
vn -1 0 0
vn -1 0 0
vn -1 0 0
vn 0 1 0
vn 0 1 0
vn 0 1 0
vn 0 1 0
vn -1 0 0
vn -1 0 0
vn -1 0 0
vn -1 0 0
vn 0 1 0
vn 0 1 0
vn 0 1 0
vn 0 1 0
vn -1 0 0
vn -1 0 0
vn -1 0 0
vn -1 0 0
vn 0 1 0
vn 0 1 0
vn 0 1 0
vn 0 1 0
vn -1 0 0
vn -1 0 0
vn -1 0 0
vn -1 0 0
vn 0 1 0
vn 0 1 0
vn 0 1 0
vn 0 1 0
vn -1 0 0
vn -1 0 0
vn -1 0 0
vn -1 0 0
vn 0 1 0
vn 0 1 0
vn 0 1 0
vn 0 1 0
vn -1 0 0
vn -1 0 0
vn -1 0 0
vn -1 0 0
vn 0 0 -1
vn 0 0 -1
vn 0 0 -0.9999999
vn 0 0 -1
vn 0 0 -1
vn 0 0 -0.9999999
vn 0 0 -1
vn 0 0 -0.9999999
vn 0 0 -1
vn 0 0 -0.9999999
vn 0 0 -1
vn 0 0 -1
vn 0 0 0.9999999
vn 0 0 1
vn 0 0 1
vn 0 0 1
vn 0 0 0.9999999
vn 0 0 1
vn 0 0 0.9999999
vn 0 0 1
vn 0 0 0.9999999
vn 0 0 1
vn 0 0 1
vn 0 0 1
vn 0 0 1
vn 0 0 1
vn 0 0 1
vn 0 0 1
vn 1 0 0
vn 1 0 0
vn 1 0 0
vn 1 0 0
vn 0 0 1
vn 0 0 1
vn 0 0 1
vn 0 0 1
vn 1 0 0
vn 1 0 0
vn 1 0 0
vn 1 0 0
vn 0 0 1
vn 0 0 1
vn 0 0 1
vn 0 0 1
vn 0 0 1
vn 0 0 1
vn 0 0 1
vn 0 0 1
vn -1 0 0
vn -1 0 0
vn -1 0 0
vn -1 0 0
vn -1 0 0
vn -1 0 0
vn -1 0 0
vn -1 0 0
vn -1 0 0
vn -1 0 0
vn -1 0 0
vn -1 0 0
vn -1 0 0
vn -1 0 0
vn -1 0 0
vn -1 0 0
vn -1 0 0
vn -1 0 0
vn 0 0 -1
vn 0 0 -1
vn 0 0 -1
vn 0 0 -1
vn 0 0 -1
vn 0 0 -1
vn 0 0 -1
vn 0 0 -1
vn 0 0 1
vn 0 0 1
vn 0 0 1
vn 0 0 1
vn -1 0 0
vn -1 0 0
vn -1 0 0
vn -1 0 0
vn 0 -1 0
vn 0 -1 0
vn 0 -1 0
vn 0 -1 0
vn 1 0 0
vn 1 0 0
vn 1 0 0
vn 1 0 0
vn -1 0 0
vn -1 0 0
vn -1 0 0
vn -1 0 0
vn 0 0 -1
vn 0 0 -1
vn 0 0 -1
vn 0 0 -1
vn 0 -1 0
vn 0 -1 0
vn 0 -1 0
vn 0 -1 0
vn 0 0 -1
vn 0 0 -1
vn 0 0 -1
vn 0 0 -1
vn 0 0 -1
vn 1 0 0
vn 1 0 0
vn 1 0 0
vn 1 0 0
vn 0 0 -1
vn 0 0 -1
vn 0 0 -1
vn 0 0 -1
vn 0 0 -1
vn 0 0 -1
vn 0 0 -1
vn 0 0 -1
vn 0 0 -1
vn 1 0 0
vn 1 0 0
vn 1 0 0
vn 1 0 0
vn 0 0 -1
vn 0 0 -1
vn 0 0 -1
vn 0 0 -1
vn -1 0 0
vn -1 0 0
vn -1 0 0
vn -1 0 0
vn -1 0 0
vn -1 0 0
vn -1 0 0
vn -1 0 0
vn 0 0 1
vn 0 0 1
vn 0 0 1
vn 0 0 1
vn 1 0 0
vn 1 0 0
vn 1 0 0
vn 1 0 0
vn 0 -1 0
vn 0 -1 0
vn 0 -1 0
vn 0 -1 0
vn 0 -1 0
vn 0 -1 0
vn 0 -1 0
vn 0 -1 0
vn 0 0 1
vn 0 0 1
vn 0 0 1
vn 0 0 1
vn 0 -1 0
vn 0 -1 0
vn 0 -1 0
vn 0 -1 0
vn 0 0 -1
vn 0 0 -1
vn 0 0 -1
vn 0 0 -1
vn 0 -1 0
vn 0 -1 0
vn 0 -1 0
vn 0 -1 0
vn 1 0 0
vn 1 0 0
vn 1 0 0
vn 1 0 0
vn -1 0 0
vn -1 0 0
vn -1 0 0
vn -1 0 0
vn 0 0 1
vn 0 0 1
vn 0 0 1
vn 0 0 1
vn 0 0 -1
vn 0 0 -1
vn 0 0 -1
vn 0 0 -1
vn -1 0 0
vn -1 0 0
vn -1 0 0
vn -1 0 0
vn 1 0 0
vn 1 0 0
vn 1 0 0
vn 1 0 0
vn 0 1 0
vn 0 1 0
vn 0 1 0
vn 0 1 0
vn 0 1 0
vn 0 1 0
vn 0 1 0
vn 0 1 0
vn 0 1 0
vn 0 1 0
vn 0 1 0
vn 0 1 0
vn 1 0 0
vn 1 0 0
vn 1 0 0
vn 1 0 0
vn 0 0 1
vn 0 0 1
vn 0 0 1
vn 0 0 1
vn 0 -1 0
vn 0 -1 0
vn 0 -1 0
vn 0 -1 0
vn 0 0 1
vn 0 0 1
vn 0 0 1
vn 0 0 1
vn 1 0 0
vn 1 0 0
vn 1 0 0
vn 1 0 0
vn 1 0 0
vn 1 0 0
vn 1 0 0
vn 1 0 0
vn 0 0 1
vn 0 0 1
vn 0 0 1
vn 0 0 1
vn -1 0 0
vn -1 0 0
vn -1 0 0
vn -1 0 0
vn 0 1 0
vn 0 1 0
vn 0 1 0
vn 0 1 0
vn -1 0 0
vn -1 0 0
vn -1 0 0
vn -1 0 0
vn 1 0 0
vn 1 0 0
vn 1 0 0
vn 1 0 0
vn 0 0 1
vn 0 0 1
vn 0 0 1
vn 0 0 1
vn 0 -1 0
vn 0 -1 0
vn 0 -1 0
vn 0 -1 0
vn 0 0 -1
vn 0 0 -1
vn 0 0 -1
vn 0 0 -1
vn 0 0 -1
vn 0 0 -1
vn 0 0 -1
vn 0 0 -1
vn 0 0 -1
vn -1 0 0
vn -1 0 0
vn -1 0 0
vn -1 0 0
vn -1 0 0
vn 0 0 -1
vn 0 0 -1
vn 0 0 -1
vn 0 0 -1
vn -1 0 0
vn -1 0 0
vn -1 0 0
vn -1 0 0
vn -1 0 0
vn -1 0 0
vn -1 0 0
vn -1 0 0
vn 1.192093E-07 0 1
vn 1.192093E-07 0 1
vn 1.192093E-07 0 1
vn 1.192093E-07 0 1
vn -1 0 0
vn -1 0 0
vn -1 0 0
vn -1 0 0
vn 1.192093E-07 0 1
vn 1.192093E-07 0 1
vn 1.192093E-07 0 1
vn 1.192093E-07 0 1
vn -1 0 0
vn -1 0 0
vn -1 0 0
vn -1 0 0
vn 1.192093E-07 0 -1
vn 1.192093E-07 0 -1
vn 1.192093E-07 0 -1
vn 1.192093E-07 0 -1
vn 1.192093E-07 0 -1
vn 1.192093E-07 0 -1
vn 1.192093E-07 0 -1
vn 1.192093E-07 0 -1

vt 2 0
vt 0 0
vt 2 2
vt 0 2
vt 2 0
vt 0 0
vt 2 2
vt 0 2
vt 2 0
vt 0 0
vt 2 2
vt 0 2
vt 2 0
vt 0 0
vt 2 2
vt 0 2
vt 0 2
vt 2 2
vt 0 0
vt 2 0
vt 2 0
vt 0 0
vt 2 2
vt 0 2
vt 2 0
vt 0 0
vt 2 2
vt 0 2
vt 2 0
vt 0 0
vt 2 2
vt 0 2
vt 2 0
vt 0 0
vt 2 2
vt 0 2
vt 2 0
vt 0 0
vt 2 2
vt 0 2
vt 0 2
vt 2 2
vt 0 0
vt 2 0
vt 2 0
vt 0 0
vt 2 2
vt 0 2
vt 2 0
vt 0 0
vt 2 2
vt 0 2
vt 2 0
vt 0 0
vt 2 2
vt 0 2
vt 2 0
vt 0 0
vt 2 2
vt 0 2
vt 2 0
vt 0 0
vt 2 2
vt 0 2
vt 0 2
vt 2 2
vt 0 0
vt 2 0
vt 2 0
vt 0 0
vt 2 2
vt 0 2
vt 2 0
vt 0 0
vt 2 2
vt 0 2
vt 2 0
vt 0 0
vt 2 2
vt 0 2
vt 2 0
vt 0 0
vt 2 2
vt 0 2
vt 2 0
vt 0 0
vt 2 2
vt 0 2
vt 0 2
vt 2 2
vt 0 0
vt 2 0
vt 2 0
vt 0 0
vt 2 2
vt 0 2
vt 1 0
vt 0 0
vt 1 1
vt 0 1
vt 1 0
vt 0 0
vt 1 1
vt 0 1
vt 0 1
vt 1 1
vt 0 0
vt 1 0
vt 2 0
vt 0 0
vt 2 2
vt 0 2
vt 2 0
vt 0 0
vt 2 2
vt 0 2
vt 2 0
vt 0 0
vt 2 2
vt 0 2
vt 0 2
vt 2 2
vt 0 0
vt 2 0
vt 1 0
vt 0 0
vt 1 1
vt 0 1
vt 1 0
vt 0 0
vt 1 1
vt 0 1
vt 0 1
vt 1 1
vt 0 0
vt 1 0
vt 2 0
vt 0 0
vt 2 2
vt 0 2
vt 3 0
vt 0 0
vt 3 2
vt 0 2
vt 2 0
vt 0 0
vt 2 2
vt 0 2
vt 0 3
vt 2 3
vt 0 0
vt 2 0
vt 2 0
vt 0 0
vt 2 2
vt 0 2
vt 2 0
vt 0 0
vt 2 2
vt 0 2
vt 2 0
vt 0 0
vt 2 2
vt 0 2
vt 2 0
vt 0 0
vt 2 2
vt 0 2
vt 0 2
vt 2 2
vt 0 0
vt 2 0
vt 2 0
vt 0 0
vt 2 2
vt 0 2
vt 2 0
vt 0 0
vt 2 2
vt 0 2
vt 2 0
vt 0 0
vt 2 2
vt 0 2
vt 2 0
vt 0 0
vt 2 2
vt 0 2
vt 2 0
vt 0 0
vt 2 2
vt 0 2
vt 0 2
vt 2 2
vt 0 0
vt 2 0
vt 2 0
vt 0 0
vt 2 2
vt 0 2
vt 2 0
vt 0 0
vt 2 2
vt 0 2
vt 2 0
vt 0 0
vt 2 2
vt 0 2
vt 2 0
vt 0 0
vt 2 2
vt 0 2
vt 2 0
vt 0 0
vt 2 2
vt 0 2
vt 0 2
vt 2 2
vt 0 0
vt 2 0
vt 2 0
vt 0 0
vt 2 2
vt 0 2
vt 18 4
vt 18 0
vt 4 4
vt 0 0
vt 0 25
vt 4 25
vt 0 3
vt 6 2
vt 0 0
vt 6 0
vt 0 13
vt 6 13
vt 0 0
vt 6 0
vt 0 2
vt 5 2
vt 0 0
vt 5 0
vt 0 16
vt 15 16
vt 0 0
vt 15 0
vt 0 5
vt 0 8
vt 5 8
vt 5 0
vt 0 1
vt 0 0
vt 14 0
vt 9 0
vt 14 5
vt 0 0
vt 0 5
vt 3 0
vt 0 0
vt 3 8
vt 0 8
vt 4 0
vt 9 12
vt 8 0
vt 3 12
vt 13 5
vt 9 0
vt 13 12
vt 13 0
vt 0 1
vt 4 1
vt 4 0
vt 0 0
vt 0 0
vt 0 3
vt 1 0
vt 1 3
vt 0 2
vt 6 0
vt 0 1
vt 5 11
vt 6 11
vt 1 11
vt 0 5
vt 0 11
vt 6 0
vt 0 0
vt 6 6
vt 0 6
vt 6 0
vt 0 0
vt 6 2
vt 0 2
vt 6 -4.768372E-07
vt 0 -4.768372E-07
vt 6 9
vt 0 9
vt 6 0
vt 0 0
vt 6 7
vt 0 7
vt 7 7
vt 7 0
vt 0 7
vt 0 0
vt 6.999827 1.001208
vt 0.0001728535 -0.00120765
vt -0.0001723766 0.9987923
vt 7.000173 0.001207709
vt 13 0
vt 0 0
vt 13 6
vt 0 6
vt 17 6
vt 18 6
vt 18 0
vt 4 6
vt 0 0
vt 0 6
vt 0 6
vt 19 6
vt 0 0
vt 19 0
vt 0 0
vt 0 11
vt 7 0
vt 7 11
vt 0 5
vt 6 5
vt 0 0
vt 6 0
vt 0.9982998 0.0008635521
vt 7.001699 9.998791
vt 6.9983 -0.001208305
vt 0.001700163 10.00121
vt 6 0
vt 0 0
vt 6 20
vt 0 20
vt 0 0
vt 0 11
vt 7 0
vt 7 11
vt 0 14
vt 6 14
vt 0 0
vt 6 0
vt 1 13
vt 1 14
vt 5 14
vt 5 13
vt 0 0
vt 0 13
vt 6 0
vt 6 13
vt 1 0
vt 0 0
vt 0 11
vt 5 0
vt 6 11
vt 6 0
vt 0 7
vt 5 7
vt 0 0
vt 5 1
vt 1 0
vt 0 0
vt 1 6
vt 0 6
vt 18 7
vt 18 0
vt 0 6
vt 0 7
vt 0 0
vt 7 5
vt 13 0
vt 0 5
vt 0 0
vt 3 5
vt 3 0
vt 0 5
vt 0 0
vt 0 15
vt 3 15
vt 0 0
vt 3 0
vt 12 9
vt 12 0
vt 0 9
vt 0 0
vt 6 9
vt 6 0
vt 0 9
vt 0 0
vt 0 13
vt 6 13
vt 0 0
vt 6 0
vt 0 3
vt 3 3
vt 0 0
vt 3 0
vt 3 0
vt 0 0
vt 3 2
vt 0 2
vt 0 0
vt 3 2
vt 3 0
vt 0 10
vt 3 0
vt 0 7
vt 3 10
vt 3 7
vt 6 0
vt 0 5
vt 0 7
vt 6 0
vt 0 0
vt 6 10
vt 0 9
vt 0 10
vt 0.3999977 0
vt 0 0
vt 0.3999977 0.09999943
vt 0 0.09999943
vt 0.3999996 0
vt 0 0
vt 0.3999996 0.09999943
vt 0 0.09999943
vt 0.3999977 0
vt 0 0
vt 0.3999977 0.09999943
vt 0 0.09999943
vt 0.3999996 0
vt 0 0
vt 0.3999996 0.09999943
vt 0 0.09999943
vt 0 0.3999996
vt 0.3999977 0.3999996
vt 0 0
vt 0.3999977 0
vt 0.3999977 0
vt 0 0
vt 0.3999977 0.3999996
vt 0 0.3999996
vt 0.3999977 0
vt 0 0
vt 0.3999977 0.09999943
vt 0 0.09999943
vt 0.3999996 0
vt 0 0
vt 0.3999996 0.09999943
vt 0 0.09999943
vt 0.3999977 0
vt 0 0
vt 0.3999977 0.09999943
vt 0 0.09999943
vt 0.3999996 0
vt 0 0
vt 0.3999996 0.09999943
vt 0 0.09999943
vt 0 0.3999996
vt 0.3999977 0.3999996
vt 0 0
vt 0.3999977 0
vt 0.3999977 0
vt 0 0
vt 0.3999977 0.3999996
vt 0 0.3999996
vt 0.3999977 0
vt 0 0
vt 0.3999977 0.09999943
vt 0 0.09999943
vt 0.3999996 0
vt 0 0
vt 0.3999996 0.09999943
vt 0 0.09999943
vt 0.3999977 0
vt 0 0
vt 0.3999977 0.09999943
vt 0 0.09999943
vt 0.3999996 0
vt 0 0
vt 0.3999996 0.09999943
vt 0 0.09999943
vt 0 0.3999996
vt 0.3999977 0.3999996
vt 0 0
vt 0.3999977 0
vt 0.3999977 0
vt 0 0
vt 0.3999977 0.3999996
vt 0 0.3999996
vt 0 0
vt 0 4
vt 4 0
vt 4 4
vt 4 4
vt 4 0
vt 0 4
vt 0 0
vt 6.854534E-07 8
vt 1.000001 8
vt -7.152557E-07 0
vt 1 4
vt 0.9999993 0
vt 6.854534E-07 8
vt 1.000001 8
vt 0 4
vt 0.9999993 0
vt -7.152557E-07 0
vt 6.854534E-07 8
vt 1.000001 8
vt 0 4
vt 0.9999993 0
vt -7.152557E-07 0
vt -0.001379967 7.99793
vt 11.99862 8.002069
vt 0.001380444 -0.00206995
vt 12.00138 0.002070665
vt 6.854534E-07 8
vt 1.000001 8
vt -7.152557E-07 0
vt 1 4
vt 0.9999993 0
vt 0.001380444 -0.00206995
vt -0.001379967 7.99793
vt 12.00138 0.002070665
vt 11.99862 8.002069
vt 7 0
vt 0 0
vt 7 8
vt 0 8
vt 14.00138 7.997583
vt -0.001380444 0.002417088
vt 0.001381397 8.002417
vt 13.99862 -0.002416611
vt 20.99862 8.003623
vt 0.00138092 -0.003623009
vt -0.001379967 7.996377
vt 21.00138 0.003623247
vt 14.00138 7.997583
vt -0.001380444 0.002417088
vt 0.001381397 8.002417
vt 13.99862 -0.002416611
vt 11 14
vt 0 0
vt 0 14
vt 11 0
vt 14.00242 13.99758
vt -0.002416611 0.002417088
vt 0.002417088 14.00242
vt 13.99758 -0.002416611
vt 20 14
vt -9.536743E-07 1.907349E-06
vt 9.536743E-07 14
vt 20 -1.907349E-06
vt 20 0
vt 0 0
vt 20 7
vt 0 7
vt 1 0
vt 0 0
vt 1 7
vt 0 7
vt 20 0
vt 0 0
vt 20 7
vt 0 7
vt 0 20
vt 1 20
vt 0 0
vt 1 0
vt 16 14
vt 0 0
vt 0 14
vt 16 0
vt 0 0
vt 18 14
vt 18 0
vt 0 14
vt 9 0
vt 27 7
vt 27 0
vt 0 7
vt 13 14
vt 0 0
vt 0 14
vt 13 0
vt 22 14
vt 0 0
vt 0 14
vt 22 0
vt 0 9
vt 9 2
vt 0 0
vt 5 14
vt 5 7
vt 0 14
vt 5 0
vt 0 0
vt 11 0
vt 0 0
vt 11 5
vt 0 7
vt 0 14
vt 11 14
vt 4 6
vt -4.768372E-07 2.384186E-07
vt 4.768372E-07 6
vt 4 -2.384186E-07
vt 4.000863 0.0006902218
vt -0.0008625984 4.99931
vt 3.999137 5.00069
vt 0.0008627176 -0.0006899834
vt 4.000863 0.0006902218
vt -0.0008625984 4.99931
vt 3.999137 5.00069
vt 0.0008627176 -0.0006899834
vt 6 5
vt 0 0
vt 0 5
vt 6 0
vt 0 0
vt 0 9
vt 4 0
vt 4 9
vt 0.9999988 0
vt -1.251698E-06 0
vt 1.000001 14
vt -3.576279E-07 5
vt 1.221895E-06 14
vt 1.000001 14
vt 0.9999996 5
vt 1.221895E-06 14
vt 0.9999988 0
vt -1.251698E-06 0
vt 1 5
vt 1 0
vt 0 5
vt 0 0
vt 0 0
vt 0 5
vt 1 0
vt 1 5
vt 4 0
vt 0 0
vt 4 1
vt 0 1
vt 0 0
vt 4 5
vt 4 0
vt 0 5
vt -7.152557E-07 4.768372E-07
vt 6.000001 8
vt 5.999999 -4.768372E-07
vt 7.152557E-07 8
vt 1 0
vt 0 0
vt 1 4
vt 0 4
vt 1 0
vt 0 0
vt 1 4
vt 0 4
vt 4 4
vt 4 0
vt 0 4
vt 0 0
vt 4 1
vt 4 0
vt 0 1
vt 0 0
vt 2.001381 7.999655
vt 2 3.999655
vt 0.001381099 8.000345
vt 1.998619 -0.0003452301
vt -0.00138104 0.0003454685
vt 13.99862 -0.002416611
vt -0.001380444 0.002417088
vt 14.00138 7.997583
vt 0.001381397 8.002417
vt 0.9999993 0
vt -7.152557E-07 0
vt 1.000001 8
vt 0 4
vt 6.854534E-07 8
vt 0 0
vt 66 14
vt 66 0
vt 0 14
vt -1.430511E-06 9.536743E-07
vt 13 14
vt 13 -9.536743E-07
vt 1.430511E-06 14
vt -1.430511E-06 4.768372E-07
vt 8.000002 14
vt 7.999999 -4.768372E-07
vt 1.192093E-06 14
vt 0 1
vt 3 1
vt 0 0
vt 3 0
vt 1 0
vt 0 1
vt 1 1
vt 0 0
vt 4 1
vt 0 0
vt 0 1
vt 4 0
vt 1 0
vt 0 1
vt 1 1
vt 0 0
vt 4 1
vt 0 0
vt 0 1
vt 4 0
vt 1 0
vt 0 1
vt 1 1
vt 0 0
vt 4 1
vt 0 0
vt 0 1
vt 4 0
vt 1 0
vt 0 1
vt 1 1
vt 0 0
vt 3 1
vt 0 0
vt 0 1
vt 3 0
vt 1 0
vt 0 7
vt 1 7
vt 0 0
vt 18 7
vt 18 0
vt 15 7
vt 0 0
vt 15 8
vt 11 8
vt 11 9
vt 7 9
vt 7 10
vt 3 10
vt 0 11
vt 3 11
vt 15 10
vt 15 11
vt 18 11
vt 18 0
vt 11 9
vt 11 10
vt 7 8
vt 7 9
vt 3 7
vt 3 8
vt 0 0
vt 0 7
vt 10 14
vt 0 0
vt 0 14
vt 10 0
vt 14.00242 13.99758
vt -0.002416611 0.002417088
vt 0.002417088 14.00242
vt 13.99758 -0.002416611
vt 9.000002 14
vt -1.430511E-06 9.536743E-07
vt 1.430511E-06 14
vt 8.999998 -9.536743E-07
vt 1.000001 14
vt -1.251698E-06 0
vt 1.221895E-06 14
vt 0.9999988 0
vt 15.00242 13.99741
vt -0.002416611 0.002589703
vt 0.002417088 14.00259
vt 14.99758 -0.002589226
vt 4.000001 14
vt -1.192093E-06 4.768372E-07
vt 1.192093E-06 14
vt 3.999999 -4.768372E-07
vt 8.000002 14
vt -1.430511E-06 4.768372E-07
vt 1.192093E-06 14
vt 7.999999 -4.768372E-07
vt 3.000001 9
vt -8.34465E-07 4.768372E-07
vt 8.34465E-07 9
vt 2.999999 -4.768372E-07
vt 5.999999 -4.768372E-07
vt -1.192093E-06 4.768372E-07
vt 6.000001 14
vt -2.384186E-07 5
vt 1.192093E-06 14
vt 20 14
vt 20 4.999998
vt 9.536743E-07 14
vt 20 -1.907349E-06
vt -9.536743E-07 1.907349E-06
vt -0.00241673 0.000518322
vt 0.002416968 14.00052
vt 3.002417 13.99948
vt 2.997583 -0.0005173683
vt 1 5
vt 1 0
vt 0 5
vt 0 0
vt 0 0
vt 0 5
vt 1 0
vt 1 5
vt 0 0
vt 3 5
vt 3 0
vt 0 5
vt 0 0
vt 0 3
vt 1 0
vt 1 3
vt 1 0
vt 0 0
vt 1 4
vt 0 4
vt 1 0
vt 0 0
vt 1 4
vt 0 4
vt 0 0
vt 0 4
vt 4 0
vt 4 4
vt 4 1
vt 4 0
vt 0 1
vt 0 0
vt 0.9999993 0
vt -7.152557E-07 0
vt 1.000001 8
vt 0 4
vt 6.854534E-07 8
vt 16 0
vt 0 0
vt 0 8
vt 16 8
vt 1.000001 8
vt 1 4
vt 6.854534E-07 8
vt 0.9999993 0
vt -7.152557E-07 0
vt -7.152557E-07 2.384186E-07
vt 7.152557E-07 8
vt 4.000001 8
vt 3.999999 -4.768372E-07
vt 6 0
vt 0 0
vt 6 7
vt 0 7
vt 0 0
vt 13 7
vt 13 0
vt 0 7
vt 0.001207829 -0.001034975
vt 5.998792 7.001035
vt 6.001207 0.001035452
vt -0.00120759 6.998964
vt 0.0003452301 -0.001035094
vt 5.999655 2.001035
vt 6.000345 0.001035213
vt -0.0003449917 1.998965
vt 0 0
vt 13 7
vt 13 0
vt 0 7
vt 5.999655 2.001035
vt 0.0003452301 -0.001035094
vt -0.0003449917 1.998965
vt 6.000345 0.001035213
vt 12.99896 6.002243
vt 0.00103569 -0.002242565
vt -0.001034737 5.997757
vt 13.00103 0.002243042
vt 0.001036167 6.002244
vt 12.99896 -0.002243996
vt -0.001035213 0.002244473
vt 13.00104 5.997756
vt 19 14
vt 0 0
vt 0 14
vt 19 0
vt 1.001465 5.999756
vt -0.001464784 0.000244379
vt 0.001464903 6.000244
vt 0.9985351 -0.0002436638
vt 1.002197 8.999756
vt -0.002197206 0.0002446175
vt 0.001220763 7.000244
vt 0.9978027 -0.0002436638
vt 1.000518 0.0001726151
vt -0.0005175471 2.999827
vt 0.9994824 3.000173
vt 0.0005176067 -0.0001724958
vt 9.999999 -9.536743E-07
vt 9.536743E-07 9.000001
vt 10 8.999999
vt -9.536743E-07 9.536743E-07
vt 11 -9.536743E-07
vt 9.536743E-07 9.000001
vt 11 8.999999
vt -9.536743E-07 9.536743E-07
vt 18 9
vt 0 0
vt 0 9
vt 18 0
vt 0 0
vt 18 9
vt 18 0
vt 0 9
vt 0 0
vt 6 4
vt 6 0
vt 0 4
vt 7 2
vt 0 0
vt 0 2
vt 7 0
vt 1.001221 5.999756
vt -0.001708925 0.0002446175
vt 0.001709044 7.000244
vt 0.998291 -0.0002436638
vt 0 1
vt 1 11
vt 1 0
vt 0 11
vt 18 0.9999985
vt 1 1.490116E-06
vt 0 1.000002
vt 19 -1.66893E-06
vt -0.00241673 0.000518322
vt 3.002417 13.99948
vt 2.997583 -0.0005173683
vt 0.002416968 14.00052
vt -7.152557E-07 7.152557E-07
vt 7.000001 7.999999
vt 6.999999 -4.768372E-07
vt 7.152557E-07 8
vt 7 -5.960464E-07
vt 2.384186E-07 3
vt 7 3
vt -2.384186E-07 5.960464E-07
vt 7.001035 0.001207829
vt -0.001034975 5.998792
vt 6.998964 6.001207
vt 0.001035452 -0.00120759
vt 0 0
vt 3 6
vt 3 0
vt 0 6
vt 0 0
vt 11 7
vt 11 0
vt 0 7
vt -0.001208425 0.0001728535
vt 1.001208 6.999827
vt 0.9987916 -0.0001723766
vt 0.001208454 7.000173
vt 0 0
vt 14 7
vt 14 0
vt 0 7
vt 1 14
vt 0 3
vt 0 14
vt 1 0
vt 21 0
vt 0 0
vt 21 7
vt 0 7
vt 21 0
vt 0 0
vt 21 7
vt 0 7
vt 4 1
vt 4 0
vt 0 1
vt 0 0
vt 4 21
vt 4 0
vt 0 21
vt 0 0
vt 0 0
vt 0 1
vt 4 0
vt 4 1
vt 13.99862 -0.002416611
vt -0.001380444 0.002417088
vt 14.00138 7.997583
vt 0.001036167 7.002417
vt 0.001381397 8.002417
vt 9.75 8
vt 9.75 7
vt 3.75 8
vt 9.75 0
vt 3.75 0
vt 0 0
vt 1 8
vt 1 0
vt 0 8
vt 0 0
vt 6 8
vt 6 0
vt 0 8
vt 0 0
vt 0 1
vt 1 0
vt 1 1
vt 0 0
vt 0 1
vt 1 0
vt 1 1
vt 0 0
vt 0 1
vt 1 0
vt 1 1
vt 0 0
vt 0 1
vt 1 0
vt 1 1
vt 0 0
vt 0 1
vt 1 0
vt 1 1
vt 0 0
vt 0 1
vt 1 0
vt 1 1
vt 0 0
vt 0 1
vt 1 0
vt 1 1

g Combined_Mesh_(root:_scene)
usemtl Combined_Mesh_(root:_scene)
usemap Combined_Mesh_(root:_scene)
f 1/1/1 3/3/3 2/2/2
f 2/2/2 3/3/3 4/4/4
f 5/5/5 7/7/7 6/6/6
f 6/6/6 7/7/7 8/8/8
f 9/9/9 11/11/11 10/10/10
f 10/10/10 11/11/11 12/12/12
f 13/13/13 15/15/15 14/14/14
f 14/14/14 15/15/15 16/16/16
f 17/17/17 19/19/19 18/18/18
f 18/18/18 19/19/19 20/20/20
f 21/21/21 23/23/23 22/22/22
f 22/22/22 23/23/23 24/24/24
g Combined_Mesh_(root:_scene)_1
usemtl Combined_Mesh_(root:_scene)_1
usemap Combined_Mesh_(root:_scene)_1
f 25/25/25 27/27/27 26/26/26
f 26/26/26 27/27/27 28/28/28
f 29/29/29 31/31/31 30/30/30
f 30/30/30 31/31/31 32/32/32
f 33/33/33 35/35/35 34/34/34
f 34/34/34 35/35/35 36/36/36
f 37/37/37 39/39/39 38/38/38
f 38/38/38 39/39/39 40/40/40
f 41/41/41 43/43/43 42/42/42
f 42/42/42 43/43/43 44/44/44
f 45/45/45 47/47/47 46/46/46
f 46/46/46 47/47/47 48/48/48
g Combined_Mesh_(root:_scene)_2
usemtl Combined_Mesh_(root:_scene)_2
usemap Combined_Mesh_(root:_scene)_2
f 49/49/49 51/51/51 50/50/50
f 50/50/50 51/51/51 52/52/52
f 53/53/53 55/55/55 54/54/54
f 54/54/54 55/55/55 56/56/56
f 57/57/57 59/59/59 58/58/58
f 58/58/58 59/59/59 60/60/60
f 61/61/61 63/63/63 62/62/62
f 62/62/62 63/63/63 64/64/64
f 65/65/65 67/67/67 66/66/66
f 66/66/66 67/67/67 68/68/68
f 69/69/69 71/71/71 70/70/70
f 70/70/70 71/71/71 72/72/72
g Combined_Mesh_(root:_scene)_3
usemtl Combined_Mesh_(root:_scene)_3
usemap Combined_Mesh_(root:_scene)_3
f 73/73/73 75/75/75 74/74/74
f 74/74/74 75/75/75 76/76/76
f 77/77/77 79/79/79 78/78/78
f 78/78/78 79/79/79 80/80/80
f 81/81/81 83/83/83 82/82/82
f 82/82/82 83/83/83 84/84/84
f 85/85/85 87/87/87 86/86/86
f 86/86/86 87/87/87 88/88/88
f 89/89/89 91/91/91 90/90/90
f 90/90/90 91/91/91 92/92/92
f 93/93/93 95/95/95 94/94/94
f 94/94/94 95/95/95 96/96/96
g Combined_Mesh_(root:_scene)_4
usemtl Combined_Mesh_(root:_scene)_4
usemap Combined_Mesh_(root:_scene)_4
f 97/97/97 99/99/99 98/98/98
f 98/98/98 99/99/99 100/100/100
f 101/101/101 103/103/103 102/102/102
f 102/102/102 103/103/103 104/104/104
f 105/105/105 107/107/107 106/106/106
f 106/106/106 107/107/107 108/108/108
f 109/109/109 111/111/111 110/110/110
f 110/110/110 111/111/111 112/112/112
f 113/113/113 115/115/115 114/114/114
f 114/114/114 115/115/115 116/116/116
f 117/117/117 119/119/119 118/118/118
f 118/118/118 119/119/119 120/120/120
f 121/121/121 123/123/123 122/122/122
f 122/122/122 123/123/123 124/124/124
g Combined_Mesh_(root:_scene)_5
usemtl Combined_Mesh_(root:_scene)_5
usemap Combined_Mesh_(root:_scene)_5
f 125/125/125 127/127/127 126/126/126
f 126/126/126 127/127/127 128/128/128
f 129/129/129 131/131/131 130/130/130
f 130/130/130 131/131/131 132/132/132
f 133/133/133 135/135/135 134/134/134
f 134/134/134 135/135/135 136/136/136
f 137/137/137 139/139/139 138/138/138
f 138/138/138 139/139/139 140/140/140
f 141/141/141 143/143/143 142/142/142
f 142/142/142 143/143/143 144/144/144
f 145/145/145 147/147/147 146/146/146
f 146/146/146 147/147/147 148/148/148
f 149/149/149 151/151/151 150/150/150
f 150/150/150 151/151/151 152/152/152
g Combined_Mesh_(root:_scene)_6
usemtl Combined_Mesh_(root:_scene)_6
usemap Combined_Mesh_(root:_scene)_6
f 153/153/153 155/155/155 154/154/154
f 154/154/154 155/155/155 156/156/156
f 157/157/157 159/159/159 158/158/158
f 158/158/158 159/159/159 160/160/160
f 161/161/161 163/163/163 162/162/162
f 162/162/162 163/163/163 164/164/164
f 165/165/165 167/167/167 166/166/166
f 166/166/166 167/167/167 168/168/168
f 169/169/169 171/171/171 170/170/170
f 170/170/170 171/171/171 172/172/172
f 173/173/173 175/175/175 174/174/174
f 174/174/174 175/175/175 176/176/176
g Combined_Mesh_(root:_scene)_7
usemtl Combined_Mesh_(root:_scene)_7
usemap Combined_Mesh_(root:_scene)_7
f 177/177/177 179/179/179 178/178/178
f 178/178/178 179/179/179 180/180/180
f 181/181/181 183/183/183 182/182/182
f 182/182/182 183/183/183 184/184/184
f 185/185/185 187/187/187 186/186/186
f 186/186/186 187/187/187 188/188/188
f 189/189/189 191/191/191 190/190/190
f 190/190/190 191/191/191 192/192/192
f 193/193/193 195/195/195 194/194/194
f 194/194/194 195/195/195 196/196/196
f 197/197/197 199/199/199 198/198/198
f 198/198/198 199/199/199 200/200/200
g Combined_Mesh_(root:_scene)_8
usemtl Combined_Mesh_(root:_scene)_8
usemap Combined_Mesh_(root:_scene)_8
f 201/201/201 203/203/203 202/202/202
f 202/202/202 203/203/203 204/204/204
f 205/205/205 207/207/207 206/206/206
f 206/206/206 207/207/207 208/208/208
f 209/209/209 211/211/211 210/210/210
f 210/210/210 211/211/211 212/212/212
f 213/213/213 215/215/215 214/214/214
f 214/214/214 215/215/215 216/216/216
f 217/217/217 219/219/219 218/218/218
f 218/218/218 219/219/219 220/220/220
f 221/221/221 223/223/223 222/222/222
f 222/222/222 223/223/223 224/224/224
g Combined_Mesh_(root:_scene)_9
usemtl Combined_Mesh_(root:_scene)_9
usemap Combined_Mesh_(root:_scene)_9
f 225/225/225 227/227/227 226/226/226
f 226/226/226 227/227/227 228/228/228
f 229/229/229 228/228/228 230/230/230
f 230/230/230 228/228/228 227/227/227
f 231/231/231 233/233/233 232/232/232
f 232/232/232 233/233/233 234/234/234
f 235/235/235 237/237/237 236/236/236
f 236/236/236 237/237/237 238/238/238
f 239/239/239 241/241/241 240/240/240
f 240/240/240 241/241/241 242/242/242
f 243/243/243 245/245/245 244/244/244
f 244/244/244 245/245/245 246/246/246
f 247/247/247 249/249/249 248/248/248
f 247/247/247 250/250/250 249/249/249
f 251/251/251 250/250/250 247/247/247
f 252/252/252 250/250/250 251/251/251
f 253/253/253 255/255/255 254/254/254
f 256/256/256 254/254/254 257/257/257
f 257/257/257 254/254/254 255/255/255
f 258/258/258 260/260/260 259/259/259
f 259/259/259 260/260/260 261/261/261
f 262/262/262 260/260/260 258/258/258
f 262/262/262 263/263/263 260/260/260
f 264/264/264 263/263/263 262/262/262
f 260/260/260 263/263/263 265/265/265
f 266/266/266 263/263/263 267/267/267
f 267/267/267 263/263/263 264/264/264
f 268/268/268 263/263/263 266/266/266
f 269/269/269 266/266/266 267/267/267
f 270/270/270 272/272/272 271/271/271
f 273/273/273 272/272/272 270/270/270
f 274/274/274 276/276/276 275/275/275
f 276/276/276 277/277/277 275/275/275
f 278/278/278 280/280/280 279/279/279
f 279/279/279 282/282/282 281/281/281
f 283/283/283 284/284/284 281/281/281
f 281/281/281 284/284/284 279/279/279
f 279/279/279 284/284/284 278/278/278
f 285/285/285 284/284/284 283/283/283
g Combined_Mesh_(root:_scene)_10
usemtl Combined_Mesh_(root:_scene)_10
usemap Combined_Mesh_(root:_scene)_10
f 286/286/286 288/288/288 287/287/287
f 287/287/287 288/288/288 289/289/289
f 290/290/290 292/292/292 291/291/291
f 291/291/291 292/292/292 293/293/293
f 294/294/294 296/296/296 295/295/295
f 295/295/295 296/296/296 297/297/297
f 298/298/298 300/300/300 299/299/299
f 299/299/299 300/300/300 301/301/301
f 302/302/302 304/304/304 303/303/303
f 303/303/303 304/304/304 305/305/305
f 306/306/306 308/308/308 307/307/307
f 306/306/306 307/307/307 309/309/309
f 310/310/310 312/312/312 311/311/311
f 311/311/311 312/312/312 313/313/313
f 314/314/314 316/316/316 315/315/315
f 314/314/314 317/317/317 316/316/316
f 316/316/316 317/317/317 318/318/318
f 318/318/318 317/317/317 319/319/319
f 320/320/320 322/322/322 321/321/321
f 321/321/321 322/322/322 323/323/323
g Combined_Mesh_(root:_scene)_11
usemtl Combined_Mesh_(root:_scene)_11
usemap Combined_Mesh_(root:_scene)_11
f 324/324/324 326/326/326 325/325/325
f 325/325/325 326/326/326 327/327/327
f 328/328/328 330/330/330 329/329/329
f 329/329/329 330/330/330 331/331/331
f 332/332/332 334/334/334 333/333/333
f 332/332/332 333/333/333 335/335/335
f 336/336/336 338/338/338 337/337/337
f 337/337/337 338/338/338 339/339/339
g Combined_Mesh_(root:_scene)_12
usemtl Combined_Mesh_(root:_scene)_12
usemap Combined_Mesh_(root:_scene)_12
f 340/340/340 342/342/342 341/341/341
f 341/341/341 342/342/342 343/343/343
f 344/344/344 346/346/346 345/345/345
f 345/345/345 346/346/346 347/347/347
f 348/348/348 350/350/350 349/349/349
f 351/351/351 350/350/350 348/348/348
f 348/348/348 353/353/353 352/352/352
f 354/354/354 351/351/351 352/352/352
f 352/352/352 351/351/351 348/348/348
f 355/355/355 351/351/351 354/354/354
f 356/356/356 358/358/358 357/357/357
f 356/356/356 359/359/359 358/358/358
f 358/358/358 359/359/359 360/360/360
f 360/360/360 359/359/359 361/361/361
g Combined_Mesh_(root:_scene)_13
usemtl Combined_Mesh_(root:_scene)_13
usemap Combined_Mesh_(root:_scene)_13
f 362/362/362 364/364/364 363/363/363
f 363/363/363 364/364/364 365/365/365
f 366/366/366 368/368/368 367/367/367
f 367/367/367 368/368/368 369/369/369
f 370/370/370 372/372/372 371/371/371
f 373/373/373 372/372/372 370/370/370
f 371/371/371 372/372/372 374/374/374
g Combined_Mesh_(root:_scene)_14
usemtl Combined_Mesh_(root:_scene)_14
usemap Combined_Mesh_(root:_scene)_14
f 375/375/375 377/377/377 376/376/376
f 376/376/376 377/377/377 378/378/378
f 379/379/379 381/381/381 380/380/380
f 380/380/380 381/381/381 382/382/382
f 383/383/383 385/385/385 384/384/384
f 384/384/384 385/385/385 386/386/386
f 387/387/387 389/389/389 388/388/388
f 388/388/388 389/389/389 390/390/390
f 391/391/391 393/393/393 392/392/392
f 392/392/392 393/393/393 394/394/394
f 395/395/395 397/397/397 396/396/396
f 396/396/396 397/397/397 398/398/398
f 399/399/399 401/401/401 400/400/400
f 400/400/400 401/401/401 402/402/402
f 403/403/403 405/405/405 404/404/404
f 404/404/404 405/405/405 406/406/406
f 407/407/407 409/409/409 408/408/408
f 410/410/410 412/412/412 411/411/411
f 410/410/410 411/411/411 413/413/413
f 414/414/414 416/416/416 415/415/415
f 417/417/417 416/416/416 414/414/414
f 418/418/418 420/420/420 419/419/419
f 419/419/419 420/420/420 421/421/421
f 421/421/421 420/420/420 422/422/422
g Combined_Mesh_(root:_scene)_15
usemtl Combined_Mesh_(root:_scene)_15
usemap Combined_Mesh_(root:_scene)_15
f 423/423/423 425/425/425 424/424/424
f 424/424/424 425/425/425 426/426/426
f 427/427/427 429/429/429 428/428/428
f 428/428/428 429/429/429 430/430/430
f 431/431/431 433/433/433 432/432/432
f 432/432/432 433/433/433 434/434/434
f 435/435/435 437/437/437 436/436/436
f 436/436/436 437/437/437 438/438/438
f 439/439/439 441/441/441 440/440/440
f 440/440/440 441/441/441 442/442/442
f 443/443/443 445/445/445 444/444/444
f 444/444/444 445/445/445 446/446/446
g Combined_Mesh_(root:_scene)_16
usemtl Combined_Mesh_(root:_scene)_16
usemap Combined_Mesh_(root:_scene)_16
f 447/447/447 449/449/449 448/448/448
f 448/448/448 449/449/449 450/450/450
f 451/451/451 453/453/453 452/452/452
f 452/452/452 453/453/453 454/454/454
f 455/455/455 457/457/457 456/456/456
f 456/456/456 457/457/457 458/458/458
f 459/459/459 461/461/461 460/460/460
f 460/460/460 461/461/461 462/462/462
f 463/463/463 465/465/465 464/464/464
f 464/464/464 465/465/465 466/466/466
f 467/467/467 469/469/469 468/468/468
f 468/468/468 469/469/469 470/470/470
g Combined_Mesh_(root:_scene)_17
usemtl Combined_Mesh_(root:_scene)_17
usemap Combined_Mesh_(root:_scene)_17
f 471/471/471 473/473/473 472/472/472
f 472/472/472 473/473/473 474/474/474
f 475/475/475 477/477/477 476/476/476
f 476/476/476 477/477/477 478/478/478
f 479/479/479 481/481/481 480/480/480
f 480/480/480 481/481/481 482/482/482
f 483/483/483 485/485/485 484/484/484
f 484/484/484 485/485/485 486/486/486
f 487/487/487 489/489/489 488/488/488
f 488/488/488 489/489/489 490/490/490
f 491/491/491 493/493/493 492/492/492
f 492/492/492 493/493/493 494/494/494
g Combined_Mesh_(root:_scene)_18
usemtl Combined_Mesh_(root:_scene)_18
usemap Combined_Mesh_(root:_scene)_18
f 495/495/495 497/497/497 496/496/496
f 496/496/496 497/497/497 498/498/498
f 499/499/499 501/501/501 500/500/500
f 500/500/500 501/501/501 502/502/502
f 503/503/503 505/505/505 504/504/504
f 504/504/504 505/505/505 506/506/506
f 506/506/506 505/505/505 507/507/507
f 508/508/508 510/510/510 509/509/509
f 509/509/509 510/510/510 511/511/511
f 511/511/511 510/510/510 512/512/512
f 513/513/513 515/515/515 514/514/514
f 514/514/514 515/515/515 516/516/516
f 516/516/516 515/515/515 517/517/517
f 518/518/518 520/520/520 519/519/519
f 519/519/519 520/520/520 521/521/521
f 522/522/522 524/524/524 523/523/523
f 523/523/523 524/524/524 525/525/525
f 525/525/525 524/524/524 526/526/526
f 527/527/527 529/529/529 528/528/528
f 528/528/528 529/529/529 530/530/530
g Combined_Mesh_(root:_scene)_19
usemtl Combined_Mesh_(root:_scene)_19
usemap Combined_Mesh_(root:_scene)_19
f 531/531/531 533/533/533 532/532/532
f 532/532/532 533/533/533 534/534/534
f 535/535/535 537/537/537 536/536/536
f 535/535/535 536/536/536 538/538/538
f 539/539/539 541/541/541 540/540/540
f 539/539/539 540/540/540 542/542/542
f 543/543/543 545/545/545 544/544/544
f 543/543/543 544/544/544 546/546/546
g Combined_Mesh_(root:_scene)_20
usemtl Combined_Mesh_(root:_scene)_20
usemap Combined_Mesh_(root:_scene)_20
f 547/547/547 549/549/549 548/548/548
f 547/547/547 548/548/548 550/550/550
f 551/551/551 553/553/553 552/552/552
f 551/551/551 552/552/552 554/554/554
f 555/555/555 557/557/557 556/556/556
f 555/555/555 556/556/556 558/558/558
g Combined_Mesh_(root:_scene)_21
usemtl Combined_Mesh_(root:_scene)_21
usemap Combined_Mesh_(root:_scene)_21
f 559/559/559 561/561/561 560/560/560
f 560/560/560 561/561/561 562/562/562
f 563/563/563 565/565/565 564/564/564
f 564/564/564 565/565/565 566/566/566
f 567/567/567 569/569/569 568/568/568
f 568/568/568 569/569/569 570/570/570
f 571/571/571 573/573/573 572/572/572
f 572/572/572 573/573/573 574/574/574
f 575/575/575 577/577/577 576/576/576
f 575/575/575 576/576/576 578/578/578
f 579/579/579 581/581/581 580/580/580
f 579/579/579 580/580/580 582/582/582
f 583/583/583 585/585/585 584/584/584
f 583/583/583 584/584/584 586/586/586
f 587/587/587 589/589/589 588/588/588
f 587/587/587 588/588/588 590/590/590
f 591/591/591 593/593/593 592/592/592
f 591/591/591 592/592/592 594/594/594
f 595/595/595 597/597/597 596/596/596
f 598/598/598 600/600/600 599/599/599
f 601/601/601 600/600/600 602/602/602
f 599/599/599 600/600/600 601/601/601
f 603/603/603 605/605/605 604/604/604
f 605/605/605 606/606/606 604/604/604
f 607/607/607 606/606/606 608/608/608
f 608/608/608 606/606/606 605/605/605
g Combined_Mesh_(root:_scene)_22
usemtl Combined_Mesh_(root:_scene)_22
usemap Combined_Mesh_(root:_scene)_22
f 609/609/609 611/611/611 610/610/610
f 609/609/609 610/610/610 612/612/612
f 613/613/613 615/615/615 614/614/614
f 613/613/613 614/614/614 616/616/616
f 617/617/617 619/619/619 618/618/618
f 617/617/617 618/618/618 620/620/620
g Combined_Mesh_(root:_scene)_23
usemtl Combined_Mesh_(root:_scene)_23
usemap Combined_Mesh_(root:_scene)_23
f 621/621/621 623/623/623 622/622/622
f 621/621/621 622/622/622 624/624/624
g Combined_Mesh_(root:_scene)_24
usemtl Combined_Mesh_(root:_scene)_24
usemap Combined_Mesh_(root:_scene)_24
f 625/625/625 627/627/627 626/626/626
f 626/626/626 627/627/627 628/628/628
f 629/629/629 631/631/631 630/630/630
f 630/630/630 631/631/631 632/632/632
f 632/632/632 631/631/631 633/633/633
f 634/634/634 636/636/636 635/635/635
f 637/637/637 636/636/636 638/638/638
f 635/635/635 636/636/636 637/637/637
f 639/639/639 641/641/641 640/640/640
f 640/640/640 641/641/641 642/642/642
f 643/643/643 645/645/645 644/644/644
f 644/644/644 645/645/645 646/646/646
f 647/647/647 649/649/649 648/648/648
f 648/648/648 649/649/649 650/650/650
g Combined_Mesh_(root:_scene)_25
usemtl Combined_Mesh_(root:_scene)_25
usemap Combined_Mesh_(root:_scene)_25
f 651/651/651 653/653/653 652/652/652
f 651/651/651 652/652/652 654/654/654
g Combined_Mesh_(root:_scene)_26
usemtl Combined_Mesh_(root:_scene)_26
usemap Combined_Mesh_(root:_scene)_26
f 655/655/655 657/657/657 656/656/656
f 655/655/655 656/656/656 658/658/658
f 659/659/659 661/661/661 660/660/660
f 660/660/660 661/661/661 662/662/662
f 663/663/663 665/665/665 664/664/664
f 664/664/664 665/665/665 666/666/666
f 667/667/667 669/669/669 668/668/668
f 668/668/668 669/669/669 670/670/670
f 671/671/671 673/673/673 672/672/672
f 672/672/672 673/673/673 674/674/674
f 675/675/675 677/677/677 676/676/676
f 678/678/678 677/677/677 679/679/679
f 676/676/676 677/677/677 678/678/678
f 680/680/680 682/682/682 681/681/681
f 681/681/681 682/682/682 683/683/683
f 684/684/684 686/686/686 685/685/685
f 685/685/685 686/686/686 687/687/687
f 687/687/687 686/686/686 688/688/688
g Combined_Mesh_(root:_scene)_27
usemtl Combined_Mesh_(root:_scene)_27
usemap Combined_Mesh_(root:_scene)_27
f 689/689/689 691/691/691 690/690/690
f 689/689/689 690/690/690 692/692/692
f 693/693/693 695/695/695 694/694/694
f 693/693/693 694/694/694 696/696/696
f 697/697/697 699/699/699 698/698/698
f 697/697/697 698/698/698 700/700/700
g Combined_Mesh_(root:_scene)_28
usemtl Combined_Mesh_(root:_scene)_28
usemap Combined_Mesh_(root:_scene)_28
f 701/701/701 703/703/703 702/702/702
f 702/702/702 703/703/703 704/704/704
f 705/705/705 707/707/707 706/706/706
f 705/705/705 706/706/706 708/708/708
f 709/709/709 711/711/711 710/710/710
f 709/709/709 710/710/710 712/712/712
f 713/713/713 715/715/715 714/714/714
f 713/713/713 714/714/714 716/716/716
f 717/717/717 719/719/719 718/718/718
f 717/717/717 718/718/718 720/720/720
f 721/721/721 723/723/723 722/722/722
f 721/721/721 722/722/722 724/724/724
f 725/725/725 727/727/727 726/726/726
f 725/725/725 726/726/726 728/728/728
f 729/729/729 731/731/731 730/730/730
f 729/729/729 730/730/730 732/732/732
f 733/733/733 735/735/735 734/734/734
f 733/733/733 734/734/734 736/736/736
f 737/737/737 739/739/739 738/738/738
f 737/737/737 738/738/738 740/740/740
f 741/741/741 743/743/743 742/742/742
f 743/743/743 744/744/744 742/742/742
f 745/745/745 746/746/746 743/743/743
f 746/746/746 744/744/744 743/743/743
f 747/747/747 748/748/748 746/746/746
f 748/748/748 744/744/744 746/746/746
f 749/749/749 750/750/750 748/748/748
f 748/748/748 750/750/750 744/744/744
f 744/744/744 750/750/750 751/751/751
f 751/751/751 750/750/750 752/752/752
f 753/753/753 755/755/755 754/754/754
f 753/753/753 756/756/756 755/755/755
f 753/753/753 757/757/757 756/756/756
f 753/753/753 758/758/758 757/757/757
f 756/756/756 757/757/757 759/759/759
f 757/757/757 760/760/760 759/759/759
f 756/756/756 759/759/759 761/761/761
f 759/759/759 762/762/762 761/761/761
f 756/756/756 761/761/761 763/763/763
f 761/761/761 764/764/764 763/763/763
g Combined_Mesh_(root:_scene)_29
usemtl Combined_Mesh_(root:_scene)_29
usemap Combined_Mesh_(root:_scene)_29
f 765/765/765 767/767/767 766/766/766
f 765/765/765 766/766/766 768/768/768
f 769/769/769 771/771/771 770/770/770
f 769/769/769 770/770/770 772/772/772
f 773/773/773 775/775/775 774/774/774
f 773/773/773 774/774/774 776/776/776
f 777/777/777 779/779/779 778/778/778
f 777/777/777 778/778/778 780/780/780
f 781/781/781 783/783/783 782/782/782
f 781/781/781 782/782/782 784/784/784
g Combined_Mesh_(root:_scene)_30
usemtl Combined_Mesh_(root:_scene)_30
usemap Combined_Mesh_(root:_scene)_30
f 785/785/785 787/787/787 786/786/786
f 785/785/785 786/786/786 788/788/788
f 789/789/789 791/791/791 790/790/790
f 789/789/789 790/790/790 792/792/792
f 793/793/793 795/795/795 794/794/794
f 793/793/793 794/794/794 796/796/796
f 797/797/797 799/799/799 798/798/798
f 798/798/798 799/799/799 800/800/800
f 800/800/800 799/799/799 801/801/801
f 802/802/802 804/804/804 803/803/803
f 805/805/805 804/804/804 806/806/806
f 803/803/803 804/804/804 805/805/805
f 807/807/807 809/809/809 808/808/808
f 810/810/810 809/809/809 807/807/807
f 811/811/811 813/813/813 812/812/812
f 812/812/812 813/813/813 814/814/814
f 815/815/815 817/817/817 816/816/816
f 816/816/816 817/817/817 818/818/818
g Combined_Mesh_(root:_scene)_31
usemtl Combined_Mesh_(root:_scene)_31
usemap Combined_Mesh_(root:_scene)_31
f 819/819/819 821/821/821 820/820/820
f 819/819/819 820/820/820 822/822/822
f 823/823/823 825/825/825 824/824/824
f 824/824/824 825/825/825 826/826/826
g Combined_Mesh_(root:_scene)_32
usemtl Combined_Mesh_(root:_scene)_32
usemap Combined_Mesh_(root:_scene)_32
f 827/827/827 829/829/829 828/828/828
f 828/828/828 829/829/829 830/830/830
f 831/831/831 833/833/833 832/832/832
f 832/832/832 833/833/833 834/834/834
f 835/835/835 837/837/837 836/836/836
f 836/836/836 837/837/837 838/838/838
f 839/839/839 841/841/841 840/840/840
f 840/840/840 841/841/841 842/842/842
f 843/843/843 845/845/845 844/844/844
f 844/844/844 845/845/845 846/846/846
f 846/846/846 845/845/845 847/847/847
f 848/848/848 850/850/850 849/849/849
f 851/851/851 850/850/850 848/848/848
f 852/852/852 854/854/854 853/853/853
f 855/855/855 854/854/854 856/856/856
f 853/853/853 854/854/854 855/855/855
f 857/857/857 859/859/859 858/858/858
f 860/860/860 859/859/859 857/857/857
g Combined_Mesh_(root:_scene)_33
usemtl Combined_Mesh_(root:_scene)_33
usemap Combined_Mesh_(root:_scene)_33
f 861/861/861 863/863/863 862/862/862
f 862/862/862 863/863/863 864/864/864
f 865/865/865 867/867/867 866/866/866
f 865/865/865 866/866/866 868/868/868
f 869/869/869 871/871/871 870/870/870
f 869/869/869 870/870/870 872/872/872
f 873/873/873 875/875/875 874/874/874
f 873/873/873 874/874/874 876/876/876
f 877/877/877 879/879/879 878/878/878
f 877/877/877 878/878/878 880/880/880
f 881/881/881 883/883/883 882/882/882
f 881/881/881 882/882/882 884/884/884
f 885/885/885 887/887/887 886/886/886
f 885/885/885 886/886/886 888/888/888
f 889/889/889 891/891/891 890/890/890
f 889/889/889 890/890/890 892/892/892
f 893/893/893 895/895/895 894/894/894
f 893/893/893 894/894/894 896/896/896
f 897/897/897 899/899/899 898/898/898
f 897/897/897 898/898/898 900/900/900
f 901/901/901 903/903/903 902/902/902
f 901/901/901 902/902/902 904/904/904
g Combined_Mesh_(root:_scene)_34
usemtl Combined_Mesh_(root:_scene)_34
usemap Combined_Mesh_(root:_scene)_34
f 905/905/905 907/907/907 906/906/906
f 905/905/905 906/906/906 908/908/908
g Combined_Mesh_(root:_scene)_35
usemtl Combined_Mesh_(root:_scene)_35
usemap Combined_Mesh_(root:_scene)_35
f 909/909/909 911/911/911 910/910/910
f 909/909/909 910/910/910 912/912/912
f 913/913/913 915/915/915 914/914/914
f 913/913/913 914/914/914 916/916/916
f 917/917/917 919/919/919 918/918/918
f 917/917/917 918/918/918 920/920/920
f 921/921/921 923/923/923 922/922/922
f 921/921/921 922/922/922 924/924/924
f 925/925/925 927/927/927 926/926/926
f 925/925/925 926/926/926 928/928/928
f 929/929/929 931/931/931 930/930/930
f 929/929/929 930/930/930 932/932/932
f 933/933/933 935/935/935 934/934/934
f 933/933/933 934/934/934 936/936/936
f 937/937/937 939/939/939 938/938/938
f 937/937/937 938/938/938 940/940/940
f 941/941/941 943/943/943 942/942/942
f 941/941/941 942/942/942 944/944/944
g Combined_Mesh_(root:_scene)_36
usemtl Combined_Mesh_(root:_scene)_36
usemap Combined_Mesh_(root:_scene)_36
f 945/945/945 947/947/947 946/946/946
f 945/945/945 946/946/946 948/948/948
f 949/949/949 951/951/951 950/950/950
f 949/949/949 950/950/950 952/952/952
f 953/953/953 955/955/955 954/954/954
f 953/953/953 954/954/954 956/956/956
f 957/957/957 959/959/959 958/958/958
f 957/957/957 958/958/958 960/960/960
f 961/961/961 963/963/963 962/962/962
f 961/961/961 962/962/962 964/964/964
f 965/965/965 967/967/967 966/966/966
f 965/965/965 966/966/966 968/968/968
f 969/969/969 971/971/971 970/970/970
f 969/969/969 970/970/970 972/972/972
f 973/973/973 975/975/975 974/974/974
f 973/973/973 974/974/974 976/976/976
f 977/977/977 979/979/979 978/978/978
f 977/977/977 978/978/978 980/980/980
g Combined_Mesh_(root:_scene)_37
usemtl Combined_Mesh_(root:_scene)_37
usemap Combined_Mesh_(root:_scene)_37
f 981/981/981 983/983/983 982/982/982
f 982/982/982 983/983/983 984/984/984
f 985/985/985 987/987/987 986/986/986
f 986/986/986 987/987/987 988/988/988
f 989/989/989 991/991/991 990/990/990
f 990/990/990 991/991/991 992/992/992
f 993/993/993 995/995/995 994/994/994
f 994/994/994 995/995/995 996/996/996
f 997/997/997 999/999/999 998/998/998
f 998/998/998 999/999/999 1000/1000/1000
f 1001/1001/1001 1003/1003/1003 1002/1002/1002
f 1002/1002/1002 1003/1003/1003 1004/1004/1004
f 1004/1004/1004 1003/1003/1003 1005/1005/1005
f 1006/1006/1006 1008/1008/1008 1007/1007/1007
f 1009/1009/1009 1008/1008/1008 1010/1010/1010
f 1007/1007/1007 1008/1008/1008 1009/1009/1009
f 1011/1011/1011 1013/1013/1013 1012/1012/1012
f 1011/1011/1011 1012/1012/1012 1014/1014/1014
f 1015/1015/1015 1017/1017/1017 1016/1016/1016
f 1015/1015/1015 1016/1016/1016 1018/1018/1018
g Combined_Mesh_(root:_scene)_38
usemtl Combined_Mesh_(root:_scene)_38
usemap Combined_Mesh_(root:_scene)_38
f 1019/1019/1019 1021/1021/1021 1020/1020/1020
f 1020/1020/1020 1021/1021/1021 1022/1022/1022
g Combined_Mesh_(root:_scene)_39
usemtl Combined_Mesh_(root:_scene)_39
usemap Combined_Mesh_(root:_scene)_39
f 1023/1023/1023 1025/1025/1025 1024/1024/1024
f 1024/1024/1024 1025/1025/1025 1026/1026/1026
g Combined_Mesh_(root:_scene)_40
usemtl Combined_Mesh_(root:_scene)_40
usemap Combined_Mesh_(root:_scene)_40
f 1027/1027/1027 1029/1029/1029 1028/1028/1028
f 1028/1028/1028 1029/1029/1029 1030/1030/1030
g Combined_Mesh_(root:_scene)_41
usemtl Combined_Mesh_(root:_scene)_41
usemap Combined_Mesh_(root:_scene)_41
f 1031/1031/1031 1033/1033/1033 1032/1032/1032
f 1032/1032/1032 1033/1033/1033 1034/1034/1034
g Combined_Mesh_(root:_scene)_42
usemtl Combined_Mesh_(root:_scene)_42
usemap Combined_Mesh_(root:_scene)_42
f 1035/1035/1035 1037/1037/1037 1036/1036/1036
f 1036/1036/1036 1037/1037/1037 1038/1038/1038
g Combined_Mesh_(root:_scene)_43
usemtl Combined_Mesh_(root:_scene)_43
usemap Combined_Mesh_(root:_scene)_43
f 1039/1039/1039 1041/1041/1041 1040/1040/1040
f 1040/1040/1040 1041/1041/1041 1042/1042/1042
g Combined_Mesh_(root:_scene)_44
usemtl Combined_Mesh_(root:_scene)_44
usemap Combined_Mesh_(root:_scene)_44
f 1043/1043/1043 1045/1045/1045 1044/1044/1044
f 1044/1044/1044 1045/1045/1045 1046/1046/1046
