#Combined_Mesh_(root:_scene).obj

v 7 -16 7
v -1 -16 7
v 7 -15 7
v -1 -15 7
v -1 -16 7
v -1 -16 -1
v -1 -15 7
v -1 -15 -1
v -1 -16 -1
v 7 -16 -1
v -1 -15 -1
v 7 -15 -1
v 7 -16 -1
v 7 -16 7
v 7 -15 -1
v 7 -15 7
v 7 -15 7
v -1 -15 7
v 7 -15 -1
v -1 -15 -1
v 7 -16 -1
v -1 -16 -1
v 7 -16 7
v -1 -16 7
v 7 -16 -90
v -1 -16 -90
v 7 -15 -90
v -1 -15 -90
v -1 -16 -90
v -1 -16 -108
v -1 -15 -90
v -1 -15 -108
v -1 -16 -108
v 7 -16 -108
v -1 -15 -108
v 7 -15 -108
v 7 -16 -108
v 7 -16 -90
v 7 -15 -108
v 7 -15 -90
v 7 -15 -90
v -1 -15 -90
v 7 -15 -108
v -1 -15 -108
v 7 -16 -108
v -1 -16 -108
v 7 -16 -90
v -1 -16 -90
v 7 -16 -16
v -1 -16 -16
v 7 -15 -16
v -1 -15 -16
v -1 -16 -16
v -1 -16 -24
v -1 -15 -16
v -1 -15 -24
v -1 -16 -24
v 7 -16 -24
v -1 -15 -24
v 7 -15 -24
v 7 -16 -24
v 7 -16 -16
v 7 -15 -24
v 7 -15 -16
v 7 -15 -16
v -1 -15 -16
v 7 -15 -24
v -1 -15 -24
v 7 -16 -24
v -1 -16 -24
v 7 -16 -16
v -1 -16 -16
v 7 -16 -34
v -1 -16 -34
v 7 -15 -34
v -1 -15 -34
v -1 -16 -34
v -1 -16 -60
v -1 -15 -34
v -1 -15 -60
v 7 -16 -60
v 7 -16 -34
v 7 -15 -60
v 7 -15 -34
v 7 -15 -34
v -1 -15 -34
v 7 -15 -60
v -1 -15 -60
v 7 -16 -60
v -1 -16 -60
v 7 -16 -34
v -1 -16 -34
v 7 -15 -60
v 6 -15 -61
v 7 -15 -74
v 6 -15 -73
v 0 -15 -73
v -1 -15 -74
v 6 -15 -61
v 6 -20 -61
v 6 -15 -73
v 6 -20 -73
v 6 -20 -73
v 6 -20 -61
v 0 -20 -73
v 0 -20 -61
v 0 -15 -61
v -1 -15 -60
v 0 -15 -73
v -1 -15 -74
v 6 -15 -73
v 6 -20 -73
v 0 -15 -73
v 0 -20 -73
v 0 -15 -61
v 0 -20 -73
v 0 -20 -61
v 0 -15 -73
v -1 -21 -60
v 7 -16 -60
v 7 -21 -60
v -1 -16 -60
v 6 -20 -61
v 0 -15 -61
v 0 -20 -61
v 6 -15 -61
v -1 -15 -60
v 6 -15 -61
v 7 -15 -60
v 0 -15 -61
v -1 -21 -74
v 7 -21 -74
v -1 -16 -74
v 7 -16 -74
v 7 -15 -60
v 7 -15 -74
v 7 -16 -74
v 7 -21 -74
v 7 -21 -60
v -1 -15 -74
v -1 -15 -60
v -1 -16 -74
v -1 -21 -60
v -1 -21 -74
v 7 -15 -74
v -1 -15 -74
v 7 -15 -81
v -1 -15 -81
v -1 -15 -74
v -1 -16 -74
v -1 -15 -81
v -1 -16 -81
v 7 -16 -74
v 7 -15 -74
v 7 -16 -81
v 7 -15 -81
v -1 -16 -74
v 7 -16 -74
v -1 -16 -81
v 7 -16 -81
v 7 -21 -74
v -1 -21 -60
v 7 -21 -60
v -1 -21 -74
v -1 -16 -81
v 7 -15 -81
v -1 -15 -81
v 7 -16 -81
v 1 -16 -85
v 0 -16 -85
v 1 -15 -85
v 0 -15 -85
v 0 -16 -85
v 0 -16 -86
v 0 -15 -85
v 0 -15 -86
v 0 -16 -86
v 1 -16 -86
v 0 -15 -86
v 1 -15 -86
v 1 -16 -86
v 1 -16 -85
v 1 -15 -86
v 1 -15 -85
v 1 -15 -85
v 0 -15 -85
v 1 -15 -86
v 0 -15 -86
v 1 -16 -86
v 0 -16 -86
v 1 -16 -85
v 0 -16 -85
v 6 -16 -82
v 5 -16 -82
v 6 -15 -82
v 5 -15 -82
v 5 -16 -82
v 5 -16 -83
v 5 -15 -82
v 5 -15 -83
v 5 -16 -83
v 6 -16 -83
v 5 -15 -83
v 6 -15 -83
v 6 -16 -83
v 6 -16 -82
v 6 -15 -83
v 6 -15 -82
v 6 -15 -82
v 5 -15 -82
v 6 -15 -83
v 5 -15 -83
v 6 -16 -83
v 5 -16 -83
v 6 -16 -82
v 5 -16 -82
v 1 -16 -82
v 0 -16 -82
v 1 -15 -82
v 0 -15 -82
v 0 -16 -82
v 0 -16 -83
v 0 -15 -82
v 0 -15 -83
v 0 -16 -83
v 1 -16 -83
v 0 -15 -83
v 1 -15 -83
v 1 -16 -83
v 1 -16 -82
v 1 -15 -83
v 1 -15 -82
v 1 -15 -82
v 0 -15 -82
v 1 -15 -83
v 0 -15 -83
v 1 -16 -83
v 0 -16 -83
v 1 -16 -82
v 0 -16 -82
v 1 -16 -88
v 0 -16 -88
v 1 -15 -88
v 0 -15 -88
v 0 -16 -88
v 0 -16 -89
v 0 -15 -88
v 0 -15 -89
v 0 -16 -89
v 1 -16 -89
v 0 -15 -89
v 1 -15 -89
v 1 -16 -89
v 1 -16 -88
v 1 -15 -89
v 1 -15 -88
v 1 -15 -88
v 0 -15 -88
v 1 -15 -89
v 0 -15 -89
v 1 -16 -89
v 0 -16 -89
v 1 -16 -88
v 0 -16 -88
v 3.5 -16 -88
v 2.5 -16 -88
v 3.5 -15 -88
v 2.5 -15 -88
v 2.5 -16 -88
v 2.5 -16 -89
v 2.5 -15 -88
v 2.5 -15 -89
v 2.5 -16 -89
v 3.5 -16 -89
v 2.5 -15 -89
v 3.5 -15 -89
v 3.5 -16 -89
v 3.5 -16 -88
v 3.5 -15 -89
v 3.5 -15 -88
v 3.5 -15 -88
v 2.5 -15 -88
v 3.5 -15 -89
v 2.5 -15 -89
v 3.5 -16 -89
v 2.5 -16 -89
v 3.5 -16 -88
v 2.5 -16 -88
v 6 -16 -88
v 5 -16 -88
v 6 -15 -88
v 5 -15 -88
v 5 -16 -88
v 5 -16 -89
v 5 -15 -88
v 5 -15 -89
v 5 -16 -89
v 6 -16 -89
v 5 -15 -89
v 6 -15 -89
v 6 -16 -89
v 6 -16 -88
v 6 -15 -89
v 6 -15 -88
v 6 -15 -88
v 5 -15 -88
v 6 -15 -89
v 5 -15 -89
v 6 -16 -89
v 5 -16 -89
v 6 -16 -88
v 5 -16 -88
v 6 -16 -85
v 5 -16 -85
v 6 -15 -85
v 5 -15 -85
v 5 -16 -85
v 5 -16 -86
v 5 -15 -85
v 5 -15 -86
v 5 -16 -86
v 6 -16 -86
v 5 -15 -86
v 6 -15 -86
v 6 -16 -86
v 6 -16 -85
v 6 -15 -86
v 6 -15 -85
v 6 -15 -85
v 5 -15 -85
v 6 -15 -86
v 5 -15 -86
v 6 -16 -86
v 5 -16 -86
v 6 -16 -85
v 5 -16 -85
v 3.5 -16 -82
v 2.5 -16 -82
v 3.5 -15 -82
v 2.5 -15 -82
v 2.5 -16 -82
v 2.5 -16 -83
v 2.5 -15 -82
v 2.5 -15 -83
v 2.5 -16 -83
v 3.5 -16 -83
v 2.5 -15 -83
v 3.5 -15 -83
v 3.5 -16 -83
v 3.5 -16 -82
v 3.5 -15 -83
v 3.5 -15 -82
v 3.5 -15 -82
v 2.5 -15 -82
v 3.5 -15 -83
v 2.5 -15 -83
v 3.5 -16 -83
v 2.5 -16 -83
v 3.5 -16 -82
v 2.5 -16 -82
v 3.5 -16 -85
v 2.5 -16 -85
v 3.5 -15 -85
v 2.5 -15 -85
v 2.5 -16 -85
v 2.5 -16 -86
v 2.5 -15 -85
v 2.5 -15 -86
v 2.5 -16 -86
v 3.5 -16 -86
v 2.5 -15 -86
v 3.5 -15 -86
v 3.5 -16 -86
v 3.5 -16 -85
v 3.5 -15 -86
v 3.5 -15 -85
v 3.5 -15 -85
v 2.5 -15 -85
v 3.5 -15 -86
v 2.5 -15 -86
v 3.5 -16 -86
v 2.5 -16 -86
v 3.5 -16 -85
v 2.5 -16 -85
v 5 -16 -8
v 1 -16 -8
v 5 -15 -8
v 1 -15 -8
v 1 -16 -8
v 1 -16 -9
v 1 -15 -8
v 1 -15 -9
v 1 -16 -9
v 5 -16 -9
v 1 -15 -9
v 5 -15 -9
v 5 -16 -9
v 5 -16 -8
v 5 -15 -9
v 5 -15 -8
v 5 -15 -8
v 1 -15 -8
v 5 -15 -9
v 1 -15 -9
v 5 -16 -9
v 1 -16 -9
v 5 -16 -8
v 1 -16 -8
v 20 -14 7
v 14 -14 7
v 20 -13 7
v 14 -13 7
v 14 -14 7
v 14 -14 -108
v 14 -13 7
v 14 -13 -108
v 14 -14 -108
v 20 -14 -108
v 14 -13 -108
v 20 -13 -108
v 20 -14 -108
v 20 -14 7
v 20 -13 -108
v 20 -13 7
v 20 -13 7
v 14 -13 7
v 20 -13 -108
v 14 -13 -108
v 20 -14 -108
v 14 -14 -108
v 20 -14 7
v 14 -14 7

vn 0 0 1
vn 0 0 1
vn 0 0 1
vn 0 0 1
vn -1 0 0
vn -1 0 0
vn -1 0 0
vn -1 0 0
vn 0 0 -1
vn 0 0 -1
vn 0 0 -1
vn 0 0 -1
vn 1 0 0
vn 1 0 0
vn 1 0 0
vn 1 0 0
vn 0 1 0
vn 0 1 0
vn 0 1 0
vn 0 1 0
vn 0 -1 0
vn 0 -1 0
vn 0 -1 0
vn 0 -1 0
vn 0 0 1
vn 0 0 1
vn 0 0 1
vn 0 0 1
vn -1 0 0
vn -1 0 0
vn -1 0 0
vn -1 0 0
vn 0 0 -1
vn 0 0 -1
vn 0 0 -1
vn 0 0 -1
vn 1 0 0
vn 1 0 0
vn 1 0 0
vn 1 0 0
vn 0 1 0
vn 0 1 0
vn 0 1 0
vn 0 1 0
vn 0 -1 0
vn 0 -1 0
vn 0 -1 0
vn 0 -1 0
vn 0 0 1
vn 0 0 1
vn 0 0 1
vn 0 0 1
vn -1 0 0
vn -1 0 0
vn -1 0 0
vn -1 0 0
vn 0 0 -1
vn 0 0 -1
vn 0 0 -1
vn 0 0 -1
vn 1 0 0
vn 1 0 0
vn 1 0 0
vn 1 0 0
vn 0 1 0
vn 0 1 0
vn 0 1 0
vn 0 1 0
vn 0 -1 0
vn 0 -1 0
vn 0 -1 0
vn 0 -1 0
vn 0 0 1
vn 0 0 1
vn 0 0 1
vn 0 0 1
vn -1 0 0
vn -1 0 0
vn -1 0 0
vn -1 0 0
vn 1 0 0
vn 1 0 0
vn 1 0 0
vn 1 0 0
vn 0 1 0
vn 0 1 0
vn 0 1 0
vn 0 1 0
vn 0 -1 0
vn 0 -1 0
vn 0 -1 0
vn 0 -1 0
vn 0 1 0
vn 0 1 0
vn 0 1 0
vn 0 1 0
vn 0 1 0
vn 0 1 0
vn -1 0 0
vn -1 0 0
vn -1 0 0
vn -1 0 0
vn 0 1 0
vn 0 1 0
vn 0 1 0
vn 0 1 0
vn 0 1 0
vn 0 1 0
vn 0 1 0
vn 0 1 0
vn 0 0 1
vn 0 0 1
vn 0 0 1
vn 0 0 1
vn 1 0 0
vn 1 0 0
vn 1 0 0
vn 1 0 0
vn 0 0 1
vn 0 0 1
vn 0 0 1
vn 0 0 1
vn 0 0 -1
vn 0 0 -1
vn 0 0 -1
vn 0 0 -1
vn 0 1 0
vn 0 1 0
vn 0 1 0
vn 0 1 0
vn 0 0 -1
vn 0 0 -1
vn 0 0 -1
vn 0 0 -1
vn 1 0 0
vn 1 0 0
vn 1 0 0
vn 1 0 0
vn 1 0 0
vn -1 0 0
vn -1 0 0
vn -1 0 0
vn -1 0 0
vn -1 0 0
vn 0 1 0
vn 0 1 0
vn 0 1 0
vn 0 1 0
vn -1 0 0
vn -1 0 0
vn -1 0 0
vn -1 0 0
vn 1 0 0
vn 1 0 0
vn 1 0 0
vn 1 0 0
vn 0 -1 0
vn 0 -1 0
vn 0 -1 0
vn 0 -1 0
vn 0 -1 0
vn 0 -1 0
vn 0 -1 0
vn 0 -1 0
vn 0 0 -1
vn 0 0 -1
vn 0 0 -1
vn 0 0 -1
vn 0 0 1
vn 0 0 1
vn 0 0 1
vn 0 0 1
vn -1 0 0
vn -1 0 0
vn -1 0 0
vn -1 0 0
vn 0 0 -1
vn 0 0 -1
vn 0 0 -1
vn 0 0 -1
vn 1 0 0
vn 1 0 0
vn 1 0 0
vn 1 0 0
vn 0 1 0
vn 0 1 0
vn 0 1 0
vn 0 1 0
vn 0 -1 0
vn 0 -1 0
vn 0 -1 0
vn 0 -1 0
vn 0 0 1
vn 0 0 1
vn 0 0 1
vn 0 0 1
vn -1 0 0
vn -1 0 0
vn -1 0 0
vn -1 0 0
vn 0 0 -1
vn 0 0 -1
vn 0 0 -1
vn 0 0 -1
vn 1 0 0
vn 1 0 0
vn 1 0 0
vn 1 0 0
vn 0 1 0
vn 0 1 0
vn 0 1 0
vn 0 1 0
vn 0 -1 0
vn 0 -1 0
vn 0 -1 0
vn 0 -1 0
vn 0 0 1
vn 0 0 1
vn 0 0 1
vn 0 0 1
vn -1 0 0
vn -1 0 0
vn -1 0 0
vn -1 0 0
vn 0 0 -1
vn 0 0 -1
vn 0 0 -1
vn 0 0 -1
vn 1 0 0
vn 1 0 0
vn 1 0 0
vn 1 0 0
vn 0 1 0
vn 0 1 0
vn 0 1 0
vn 0 1 0
vn 0 -1 0
vn 0 -1 0
vn 0 -1 0
vn 0 -1 0
vn 0 0 1
vn 0 0 1
vn 0 0 1
vn 0 0 1
vn -1 0 0
vn -1 0 0
vn -1 0 0
vn -1 0 0
vn 0 0 -1
vn 0 0 -1
vn 0 0 -1
vn 0 0 -1
vn 1 0 0
vn 1 0 0
vn 1 0 0
vn 1 0 0
vn 0 1 0
vn 0 1 0
vn 0 1 0
vn 0 1 0
vn 0 -1 0
vn 0 -1 0
vn 0 -1 0
vn 0 -1 0
vn 0 0 1
vn 0 0 1
vn 0 0 1
vn 0 0 1
vn -1 0 0
vn -1 0 0
vn -1 0 0
vn -1 0 0
vn 0 0 -1
vn 0 0 -1
vn 0 0 -1
vn 0 0 -1
vn 1 0 0
vn 1 0 0
vn 1 0 0
vn 1 0 0
vn 0 1 0
vn 0 1 0
vn 0 1 0
vn 0 1 0
vn 0 -1 0
vn 0 -1 0
vn 0 -1 0
vn 0 -1 0
vn 0 0 1
vn 0 0 1
vn 0 0 1
vn 0 0 1
vn -1 0 0
vn -1 0 0
vn -1 0 0
vn -1 0 0
vn 0 0 -1
vn 0 0 -1
vn 0 0 -1
vn 0 0 -1
vn 1 0 0
vn 1 0 0
vn 1 0 0
vn 1 0 0
vn 0 1 0
vn 0 1 0
vn 0 1 0
vn 0 1 0
vn 0 -1 0
vn 0 -1 0
vn 0 -1 0
vn 0 -1 0
vn 0 0 1
vn 0 0 1
vn 0 0 1
vn 0 0 1
vn -1 0 0
vn -1 0 0
vn -1 0 0
vn -1 0 0
vn 0 0 -1
vn 0 0 -1
vn 0 0 -1
vn 0 0 -1
vn 1 0 0
vn 1 0 0
vn 1 0 0
vn 1 0 0
vn 0 1 0
vn 0 1 0
vn 0 1 0
vn 0 1 0
vn 0 -1 0
vn 0 -1 0
vn 0 -1 0
vn 0 -1 0
vn 0 0 1
vn 0 0 1
vn 0 0 1
vn 0 0 1
vn -1 0 0
vn -1 0 0
vn -1 0 0
vn -1 0 0
vn 0 0 -1
vn 0 0 -1
vn 0 0 -1
vn 0 0 -1
vn 1 0 0
vn 1 0 0
vn 1 0 0
vn 1 0 0
vn 0 1 0
vn 0 1 0
vn 0 1 0
vn 0 1 0
vn 0 -1 0
vn 0 -1 0
vn 0 -1 0
vn 0 -1 0
vn 0 0 1
vn 0 0 1
vn 0 0 1
vn 0 0 1
vn -1 0 0
vn -1 0 0
vn -1 0 0
vn -1 0 0
vn 0 0 -1
vn 0 0 -1
vn 0 0 -1
vn 0 0 -1
vn 1 0 0
vn 1 0 0
vn 1 0 0
vn 1 0 0
vn 0 1 0
vn 0 1 0
vn 0 1 0
vn 0 1 0
vn 0 -1 0
vn 0 -1 0
vn 0 -1 0
vn 0 -1 0
vn 0 0 1
vn 0 0 1
vn 0 0 1
vn 0 0 1
vn -1 0 0
vn -1 0 0
vn -1 0 0
vn -1 0 0
vn 0 0 -1
vn 0 0 -1
vn 0 0 -1
vn 0 0 -1
vn 1 0 0
vn 1 0 0
vn 1 0 0
vn 1 0 0
vn 0 1 0
vn 0 1 0
vn 0 1 0
vn 0 1 0
vn 0 -1 0
vn 0 -1 0
vn 0 -1 0
vn 0 -1 0
vn 0 0 1
vn 0 0 1
vn 0 0 1
vn 0 0 1
vn -0.9999999 0 0
vn -0.9999999 0 0
vn -0.9999999 0 0
vn -0.9999999 0 0
vn 0 0 -1
vn 0 0 -1
vn 0 0 -1
vn 0 0 -1
vn 0.9999999 0 0
vn 0.9999999 0 0
vn 0.9999999 0 0
vn 0.9999999 0 0
vn 0 1 0
vn 0 1 0
vn 0 1 0
vn 0 1 0
vn 0 -1 0
vn 0 -1 0
vn 0 -1 0
vn 0 -1 0

vt 8 0
vt 0 0
vt 8 1
vt 0 1
vt 8 0
vt 0 0
vt 8 1
vt 0 1
vt 8 0
vt 0 0
vt 8 1
vt 0 1
vt 8 0
vt 0 0
vt 8 1
vt 0 1
vt 0 8
vt 8 8
vt 0 0
vt 8 0
vt 8 0
vt 0 0
vt 8 8
vt 0 8
vt 8 0
vt 0 0
vt 8 1
vt 0 1
vt 18 0
vt 0 0
vt 18 1
vt 0 1
vt 8 0
vt 0 0
vt 8 1
vt 0 1
vt 18 0
vt 0 0
vt 18 1
vt 0 1
vt 0 18
vt 8 18
vt 0 0
vt 8 0
vt 8 0
vt 0 0
vt 8 18
vt 0 18
vt 8 0
vt 0 0
vt 8 1
vt 0 1
vt 8 0
vt 0 0
vt 8 1
vt 0 1
vt 8 0
vt 0 0
vt 8 1
vt 0 1
vt 8 0
vt 0 0
vt 8 1
vt 0 1
vt 0 8
vt 8 8
vt 0 0
vt 8 0
vt 8 0
vt 0 0
vt 8 8
vt 0 8
vt 8 0
vt 0 0
vt 8 1
vt 0 1
vt 26 0
vt 0 0
vt 26 1
vt 0 1
vt 26 0
vt 0 0
vt 26 1
vt 0 1
vt 0 26
vt 8 26
vt 0 0
vt 8 0
vt 8 0
vt 0 0
vt 8 26
vt 0 26
vt 0 14
vt 1 13
vt 0 0
vt 1 1
vt 7 1
vt 8 0
vt 12 5
vt 12 0
vt 0 5
vt 0 0
vt 0 0
vt 0 12
vt 6 0
vt 6 12
vt 0 13
vt 1 14
vt 0 1
vt 1 0
vt 6 5
vt 6 0
vt 0 5
vt 0 0
vt 0 5
vt 12 0
vt 0 0
vt 12 5
vt 0 0
vt 8 5
vt 8 0
vt 0 5
vt 0 0
vt 6 5
vt 6 0
vt 0 5
vt 8 1
vt 1 0
vt 0 1
vt 7 0
vt 8 0
vt 0 0
vt 8 5
vt 0 5
vt 0 6
vt 14 6
vt 14 5
vt 14 0
vt 0 0
vt 0 6
vt 14 6
vt 0 5
vt 14 0
vt 0 0
vt 0 7
vt 8 7
vt 0 0
vt 8 0
vt 7 1
vt 7 0
vt 0 1
vt 0 0
vt 0 0
vt 0 1
vt 7 0
vt 7 1
vt 0 7
vt 8 7
vt 0 0
vt 8 0
vt 8 0
vt 0 14
vt 8 14
vt 0 0
vt 8 0
vt 0 1
vt 8 1
vt 0 0
vt 1 0
vt 0 0
vt 1 1
vt 0 1
vt 1 0
vt 0 0
vt 1 1
vt 0 1
vt 1 0
vt 0 0
vt 1 1
vt 0 1
vt 1 0
vt 0 0
vt 1 1
vt 0 1
vt 0 1
vt 1 1
vt 0 0
vt 1 0
vt 1 0
vt 0 0
vt 1 1
vt 0 1
vt 1 0
vt 0 0
vt 1 1
vt 0 1
vt 1 0
vt 0 0
vt 1 1
vt 0 1
vt 1 0
vt 0 0
vt 1 1
vt 0 1
vt 1 0
vt 0 0
vt 1 1
vt 0 1
vt 0 1
vt 1 1
vt 0 0
vt 1 0
vt 1 0
vt 0 0
vt 1 1
vt 0 1
vt 1 0
vt 0 0
vt 1 1
vt 0 1
vt 1 0
vt 0 0
vt 1 1
vt 0 1
vt 1 0
vt 0 0
vt 1 1
vt 0 1
vt 1 0
vt 0 0
vt 1 1
vt 0 1
vt 0 1
vt 1 1
vt 0 0
vt 1 0
vt 1 0
vt 0 0
vt 1 1
vt 0 1
vt 1 0
vt 0 0
vt 1 1
vt 0 1
vt 1 0
vt 0 0
vt 1 1
vt 0 1
vt 1 0
vt 0 0
vt 1 1
vt 0 1
vt 1 0
vt 0 0
vt 1 1
vt 0 1
vt 0 1
vt 1 1
vt 0 0
vt 1 0
vt 1 0
vt 0 0
vt 1 1
vt 0 1
vt 1 0
vt 0 0
vt 1 1
vt 0 1
vt 1 0
vt 0 0
vt 1 1
vt 0 1
vt 1 0
vt 0 0
vt 1 1
vt 0 1
vt 1 0
vt 0 0
vt 1 1
vt 0 1
vt -0.5 1
vt 0.5 1
vt -0.5 0
vt 0.5 0
vt 1 0
vt 0 0
vt 1 1
vt 0 1
vt 1 0
vt 0 0
vt 1 1
vt 0 1
vt 1 0
vt 0 0
vt 1 1
vt 0 1
vt 1 0
vt 0 0
vt 1 1
vt 0 1
vt 1 0
vt 0 0
vt 1 1
vt 0 1
vt 0 1
vt 1 1
vt 0 0
vt 1 0
vt 1 0
vt 0 0
vt 1 1
vt 0 1
vt 1 0
vt 0 0
vt 1 1
vt 0 1
vt 1 0
vt 0 0
vt 1 1
vt 0 1
vt 1 0
vt 0 0
vt 1 1
vt 0 1
vt 1 0
vt 0 0
vt 1 1
vt 0 1
vt 0 1
vt 1 1
vt 0 0
vt 1 0
vt 1 0
vt 0 0
vt 1 1
vt 0 1
vt 1 0
vt 0 0
vt 1 1
vt 0 1
vt 1 0
vt 0 0
vt 1 1
vt 0 1
vt 1 0
vt 0 0
vt 1 1
vt 0 1
vt 1 0
vt 0 0
vt 1 1
vt 0 1
vt -0.5 1
vt 0.5 1
vt -0.5 0
vt 0.5 0
vt 1 0
vt 0 0
vt 1 1
vt 0 1
vt 1 0
vt 0 0
vt 1 1
vt 0 1
vt 1 0
vt 0 0
vt 1 1
vt 0 1
vt 1 0
vt 0 0
vt 1 1
vt 0 1
vt 1 0
vt 0 0
vt 1 1
vt 0 1
vt -0.5 1
vt 0.5 1
vt -0.5 0
vt 0.5 0
vt 1 0
vt 0 0
vt 1 1
vt 0 1
vt 4 0
vt 0 0
vt 4 1
vt 0 1
vt 1 0
vt 0 0
vt 1 1
vt 0 1
vt 4 0
vt 0 0
vt 4 1
vt 0 1
vt 1 0
vt 0 0
vt 1 1
vt 0 1
vt 0 1
vt 4 1
vt 0 0
vt 4 0
vt 4 0
vt 0 0
vt 4 1
vt 0 1
vt 6 0
vt 0 0
vt 6 1
vt 0 1
vt 115 0
vt 0 0
vt 115 1
vt 0 1
vt 6 0
vt 0 0
vt 6 1
vt 0 1
vt 115 0
vt 0 0
vt 115 1
vt 0 1
vt 0 115
vt 6 115
vt 0 0
vt 6 0
vt 6 0
vt 0 0
vt 6 115
vt 0 115

g Combined_Mesh_(root:_scene)
usemtl Combined_Mesh_(root:_scene)
usemap Combined_Mesh_(root:_scene)
f 1/1/1 3/3/3 2/2/2
f 2/2/2 3/3/3 4/4/4
f 5/5/5 7/7/7 6/6/6
f 6/6/6 7/7/7 8/8/8
f 9/9/9 11/11/11 10/10/10
f 10/10/10 11/11/11 12/12/12
f 13/13/13 15/15/15 14/14/14
f 14/14/14 15/15/15 16/16/16
f 17/17/17 19/19/19 18/18/18
f 18/18/18 19/19/19 20/20/20
f 21/21/21 23/23/23 22/22/22
f 22/22/22 23/23/23 24/24/24
g Combined_Mesh_(root:_scene)_1
usemtl Combined_Mesh_(root:_scene)_1
usemap Combined_Mesh_(root:_scene)_1
f 25/25/25 27/27/27 26/26/26
f 26/26/26 27/27/27 28/28/28
f 29/29/29 31/31/31 30/30/30
f 30/30/30 31/31/31 32/32/32
f 33/33/33 35/35/35 34/34/34
f 34/34/34 35/35/35 36/36/36
f 37/37/37 39/39/39 38/38/38
f 38/38/38 39/39/39 40/40/40
f 41/41/41 43/43/43 42/42/42
f 42/42/42 43/43/43 44/44/44
f 45/45/45 47/47/47 46/46/46
f 46/46/46 47/47/47 48/48/48
g Combined_Mesh_(root:_scene)_2
usemtl Combined_Mesh_(root:_scene)_2
usemap Combined_Mesh_(root:_scene)_2
f 49/49/49 51/51/51 50/50/50
f 50/50/50 51/51/51 52/52/52
f 53/53/53 55/55/55 54/54/54
f 54/54/54 55/55/55 56/56/56
f 57/57/57 59/59/59 58/58/58
f 58/58/58 59/59/59 60/60/60
f 61/61/61 63/63/63 62/62/62
f 62/62/62 63/63/63 64/64/64
f 65/65/65 67/67/67 66/66/66
f 66/66/66 67/67/67 68/68/68
f 69/69/69 71/71/71 70/70/70
f 70/70/70 71/71/71 72/72/72
g Combined_Mesh_(root:_scene)_3
usemtl Combined_Mesh_(root:_scene)_3
usemap Combined_Mesh_(root:_scene)_3
f 73/73/73 75/75/75 74/74/74
f 74/74/74 75/75/75 76/76/76
f 77/77/77 79/79/79 78/78/78
f 78/78/78 79/79/79 80/80/80
f 81/81/81 83/83/83 82/82/82
f 82/82/82 83/83/83 84/84/84
f 85/85/85 87/87/87 86/86/86
f 86/86/86 87/87/87 88/88/88
f 89/89/89 91/91/91 90/90/90
f 90/90/90 91/91/91 92/92/92
f 93/93/93 95/95/95 94/94/94
f 94/94/94 95/95/95 96/96/96
f 95/95/95 98/98/98 97/97/97
f 95/95/95 97/97/97 96/96/96
f 99/99/99 101/101/101 100/100/100
f 100/100/100 101/101/101 102/102/102
f 103/103/103 105/105/105 104/104/104
f 104/104/104 105/105/105 106/106/106
f 107/107/107 109/109/109 108/108/108
f 108/108/108 109/109/109 110/110/110
f 111/111/111 113/113/113 112/112/112
f 112/112/112 113/113/113 114/114/114
f 115/115/115 117/117/117 116/116/116
f 115/115/115 116/116/116 118/118/118
f 119/119/119 121/121/121 120/120/120
f 119/119/119 120/120/120 122/122/122
f 123/123/123 125/125/125 124/124/124
f 123/123/123 124/124/124 126/126/126
f 127/127/127 129/129/129 128/128/128
f 127/127/127 128/128/128 130/130/130
f 131/131/131 133/133/133 132/132/132
f 132/132/132 133/133/133 134/134/134
f 135/135/135 137/137/137 136/136/136
f 138/138/138 137/137/137 139/139/139
f 139/139/139 137/137/137 135/135/135
f 140/140/140 142/142/142 141/141/141
f 141/141/141 142/142/142 143/143/143
f 143/143/143 142/142/142 144/144/144
f 145/145/145 147/147/147 146/146/146
f 146/146/146 147/147/147 148/148/148
f 149/149/149 151/151/151 150/150/150
f 150/150/150 151/151/151 152/152/152
f 153/153/153 155/155/155 154/154/154
f 154/154/154 155/155/155 156/156/156
f 157/157/157 159/159/159 158/158/158
f 158/158/158 159/159/159 160/160/160
f 161/161/161 163/163/163 162/162/162
f 161/161/161 162/162/162 164/164/164
f 165/165/165 167/167/167 166/166/166
f 165/165/165 166/166/166 168/168/168
g Combined_Mesh_(root:_scene)_4
usemtl Combined_Mesh_(root:_scene)_4
usemap Combined_Mesh_(root:_scene)_4
f 169/169/169 171/171/171 170/170/170
f 170/170/170 171/171/171 172/172/172
f 173/173/173 175/175/175 174/174/174
f 174/174/174 175/175/175 176/176/176
f 177/177/177 179/179/179 178/178/178
f 178/178/178 179/179/179 180/180/180
f 181/181/181 183/183/183 182/182/182
f 182/182/182 183/183/183 184/184/184
f 185/185/185 187/187/187 186/186/186
f 186/186/186 187/187/187 188/188/188
f 189/189/189 191/191/191 190/190/190
f 190/190/190 191/191/191 192/192/192
f 193/193/193 195/195/195 194/194/194
f 194/194/194 195/195/195 196/196/196
f 197/197/197 199/199/199 198/198/198
f 198/198/198 199/199/199 200/200/200
f 201/201/201 203/203/203 202/202/202
f 202/202/202 203/203/203 204/204/204
f 205/205/205 207/207/207 206/206/206
f 206/206/206 207/207/207 208/208/208
f 209/209/209 211/211/211 210/210/210
f 210/210/210 211/211/211 212/212/212
f 213/213/213 215/215/215 214/214/214
f 214/214/214 215/215/215 216/216/216
f 217/217/217 219/219/219 218/218/218
f 218/218/218 219/219/219 220/220/220
f 221/221/221 223/223/223 222/222/222
f 222/222/222 223/223/223 224/224/224
f 225/225/225 227/227/227 226/226/226
f 226/226/226 227/227/227 228/228/228
f 229/229/229 231/231/231 230/230/230
f 230/230/230 231/231/231 232/232/232
f 233/233/233 235/235/235 234/234/234
f 234/234/234 235/235/235 236/236/236
f 237/237/237 239/239/239 238/238/238
f 238/238/238 239/239/239 240/240/240
f 241/241/241 243/243/243 242/242/242
f 242/242/242 243/243/243 244/244/244
f 245/245/245 247/247/247 246/246/246
f 246/246/246 247/247/247 248/248/248
f 249/249/249 251/251/251 250/250/250
f 250/250/250 251/251/251 252/252/252
f 253/253/253 255/255/255 254/254/254
f 254/254/254 255/255/255 256/256/256
f 257/257/257 259/259/259 258/258/258
f 258/258/258 259/259/259 260/260/260
f 261/261/261 263/263/263 262/262/262
f 262/262/262 263/263/263 264/264/264
f 265/265/265 267/267/267 266/266/266
f 266/266/266 267/267/267 268/268/268
f 269/269/269 271/271/271 270/270/270
f 270/270/270 271/271/271 272/272/272
f 273/273/273 275/275/275 274/274/274
f 274/274/274 275/275/275 276/276/276
f 277/277/277 279/279/279 278/278/278
f 278/278/278 279/279/279 280/280/280
f 281/281/281 283/283/283 282/282/282
f 282/282/282 283/283/283 284/284/284
f 285/285/285 287/287/287 286/286/286
f 286/286/286 287/287/287 288/288/288
f 289/289/289 291/291/291 290/290/290
f 290/290/290 291/291/291 292/292/292
f 293/293/293 295/295/295 294/294/294
f 294/294/294 295/295/295 296/296/296
f 297/297/297 299/299/299 298/298/298
f 298/298/298 299/299/299 300/300/300
f 301/301/301 303/303/303 302/302/302
f 302/302/302 303/303/303 304/304/304
f 305/305/305 307/307/307 306/306/306
f 306/306/306 307/307/307 308/308/308
f 309/309/309 311/311/311 310/310/310
f 310/310/310 311/311/311 312/312/312
f 313/313/313 315/315/315 314/314/314
f 314/314/314 315/315/315 316/316/316
f 317/317/317 319/319/319 318/318/318
f 318/318/318 319/319/319 320/320/320
f 321/321/321 323/323/323 322/322/322
f 322/322/322 323/323/323 324/324/324
f 325/325/325 327/327/327 326/326/326
f 326/326/326 327/327/327 328/328/328
f 329/329/329 331/331/331 330/330/330
f 330/330/330 331/331/331 332/332/332
f 333/333/333 335/335/335 334/334/334
f 334/334/334 335/335/335 336/336/336
f 337/337/337 339/339/339 338/338/338
f 338/338/338 339/339/339 340/340/340
f 341/341/341 343/343/343 342/342/342
f 342/342/342 343/343/343 344/344/344
f 345/345/345 347/347/347 346/346/346
f 346/346/346 347/347/347 348/348/348
f 349/349/349 351/351/351 350/350/350
f 350/350/350 351/351/351 352/352/352
f 353/353/353 355/355/355 354/354/354
f 354/354/354 355/355/355 356/356/356
f 357/357/357 359/359/359 358/358/358
f 358/358/358 359/359/359 360/360/360
f 361/361/361 363/363/363 362/362/362
f 362/362/362 363/363/363 364/364/364
f 365/365/365 367/367/367 366/366/366
f 366/366/366 367/367/367 368/368/368
f 369/369/369 371/371/371 370/370/370
f 370/370/370 371/371/371 372/372/372
f 373/373/373 375/375/375 374/374/374
f 374/374/374 375/375/375 376/376/376
f 377/377/377 379/379/379 378/378/378
f 378/378/378 379/379/379 380/380/380
f 381/381/381 383/383/383 382/382/382
f 382/382/382 383/383/383 384/384/384
g Combined_Mesh_(root:_scene)_5
usemtl Combined_Mesh_(root:_scene)_5
usemap Combined_Mesh_(root:_scene)_5
f 385/385/385 387/387/387 386/386/386
f 386/386/386 387/387/387 388/388/388
f 389/389/389 391/391/391 390/390/390
f 390/390/390 391/391/391 392/392/392
f 393/393/393 395/395/395 394/394/394
f 394/394/394 395/395/395 396/396/396
f 397/397/397 399/399/399 398/398/398
f 398/398/398 399/399/399 400/400/400
f 401/401/401 403/403/403 402/402/402
f 402/402/402 403/403/403 404/404/404
f 405/405/405 407/407/407 406/406/406
f 406/406/406 407/407/407 408/408/408
g Combined_Mesh_(root:_scene)_6
usemtl Combined_Mesh_(root:_scene)_6
usemap Combined_Mesh_(root:_scene)_6
f 409/409/409 411/411/411 410/410/410
f 410/410/410 411/411/411 412/412/412
f 413/413/413 415/415/415 414/414/414
f 414/414/414 415/415/415 416/416/416
f 417/417/417 419/419/419 418/418/418
f 418/418/418 419/419/419 420/420/420
f 421/421/421 423/423/423 422/422/422
f 422/422/422 423/423/423 424/424/424
f 425/425/425 427/427/427 426/426/426
f 426/426/426 427/427/427 428/428/428
f 429/429/429 431/431/431 430/430/430
f 430/430/430 431/431/431 432/432/432
