#Combined_Mesh_(root:_scene).obj

v 86 0 -8
v 86 0 0
v 62 0 -8
v 62 0 0
v 33 0 -3
v 31 0 -3
v 31 0 -5
v 33 0 -5
v 31 0 0
v 21 0 0
v 31 0 -8
v 21 0 -8
v 38 0 -8
v 48 0 -8
v 38 0 -5
v 48 0 0
v 38 0 0
v 36 0 -5
v 38 0 -5
v 38 0 -3
v 36 0 -3
v 88 -1 -8
v 86 0 0
v 86 0 -8
v 88 -1 0
v 98 0 -8
v 96 -1 0
v 96 -1 -8
v 98 0 0
v 122 0 -8
v 122 0 0
v 117 0 0
v 117 0 -8
v 98 0 0
v 98 0 -8
v 105 0 0
v 105 0 -8
v 88 -2 -8
v 88 -1 0
v 88 -1 -8
v 88 -2 0
v 96 -2 -8
v 88 -2 0
v 88 -2 -8
v 96 -2 0
v 96 -1 -8
v 96 -2 0
v 96 -2 -8
v 96 -1 0
v 117 -2 -8
v 117 -2 0
v 105 -2 0
v 105 -2 -8
v 117 0 -8
v 117 0 0
v 117 -2 -8
v 117 -2 0
v 117 0 0
v 105 0 0
v 117 -2 0
v 105 -2 0
v 105 0 -8
v 117 0 -8
v 105 -2 -8
v 117 -2 -8
v 105 0 0
v 105 0 -8
v 105 -2 0
v 105 -2 -8
v 122 0 -9
v 122 0 -8
v 35 0 -8
v 35 0 -9
v 34 4 -8
v 34 4 -9
v 35 4 -9
v 35 4 -8
v 34 0 -8
v 34 0 -9
v 34 4 -8
v 34 4 -9
v 34 0 -9
v 35 0 -9
v 34 4 -9
v 35 4 -9
v 35 0 -8
v 34 0 -8
v 35 4 -8
v 34 4 -8
v 35 0 -9
v 35 0 -8
v 35 4 -9
v 35 4 -8
v 1 0 -8
v 34 0 -9
v 34 0 -8
v 1 0 -9
v 1 -6 -9
v 34 0 -9
v 1 0 -9
v 34 -6 -9
v 35 -6 -9
v 34 0 -9
v 34 -6 -9
v 35 0 -9
v 122 -6 -9
v 35 0 -9
v 35 -6 -9
v 122 0 -9
v 105 -1 -8
v 117 -1 -8
v 105 0 -8
v 117 0 -8
v 117 0 0
v 105 0 0
v 117 0 -8
v 105 0 -8
v 117 -1 -8
v 105 -1 -8
v 117 -1 0
v 105 -1 0
v 1 0 0
v 1 4 -8
v 1 0 -8
v 1 4 0
v 7 0 0
v 1 4 0
v 1 0 0
v 7 4 0
v 21 0 0
v 7 4 0
v 7 0 0
v 21 4 0
v 31 0 0
v 21 4 0
v 21 0 0
v 31 4 0
v 38 0 0
v 31 4 0
v 31 0 0
v 37 4 0
v 48 0 0
v 37 4 0
v 38 0 0
v 48 4 0
v 62 0 0
v 48 4 0
v 48 0 0
v 62 4 0
v 62 4 0
v 62 0 0
v 86 0 0
v 86 4 0
v 98 4 0
v 86 4 0
v 98 0 0
v 86 0 0
v 122 0 0
v 122 4 0
v 98 0 0
v 98 4 0
v 122 0 -9
v 122 4 0
v 122 0 0
v 122 4 -9
v 122 0 -12
v 122 4 -9
v 122 0 -9
v 122 4 -12
v 122 -6 -9
v 122 0 -12
v 122 0 -9
v 122 -6 -12
v 31 -21 0
v 38 0 0
v 31 0 0
v 38 -21 0
v 31 0 -3
v 31 -21 0
v 31 0 0
v 31 -21 -3
v 33 0 -3
v 31 -21 -3
v 31 0 -3
v 33 -21 -3
v 33 0 -5
v 33 -21 -3
v 33 0 -3
v 33 -21 -5
v 31 0 -5
v 33 -21 -5
v 33 0 -5
v 31 -21 -5
v 31 0 -8
v 31 -21 -5
v 31 0 -5
v 31 -21 -8
v 38 0 -8
v 31 -21 -8
v 31 0 -8
v 38 -21 -8
v 38 0 -5
v 38 -21 -8
v 38 0 -8
v 38 -21 -5
v 36 0 -5
v 38 -21 -5
v 38 0 -5
v 36 -21 -5
v 36 0 -3
v 36 -21 -5
v 36 0 -5
v 36 -21 -3
v 38 0 -3
v 36 -21 -3
v 36 0 -3
v 38 -21 -3
v 38 0 0
v 38 -21 -3
v 38 0 -3
v 38 -21 0
v 7 -21 0
v 21 0 0
v 7 0 0
v 21 -21 0
v 7 0 -8
v 7 -21 0
v 7 0 0
v 7 -21 -8
v 21 0 -8
v 7 -21 -8
v 7 0 -8
v 21 -21 -8
v 21 0 0
v 21 -21 -8
v 21 0 -8
v 21 -21 0
v 21 -21 -8
v 7 -21 0
v 7 -21 -8
v 21 -21 0
v 31 -21 -8
v 38 -21 0
v 31 -21 0
v 38 -21 -8
v 48 -21 0
v 62 0 0
v 48 0 0
v 62 -21 0
v 48 0 -8
v 48 -21 0
v 48 0 0
v 48 -21 -8
v 62 0 -8
v 48 -21 -8
v 48 0 -8
v 62 -21 -8
v 62 0 0
v 62 -21 -8
v 62 0 -8
v 62 -21 0
v 48 -21 -8
v 62 -21 0
v 48 -21 0
v 62 -21 -8
v 98 -2 -8
v 86 0 -8
v 98 0 -8
v 86 -2 -8
v 86 -2 0
v 98 0 0
v 86 0 0
v 98 -2 0
v 1 0 0
v 7 0 -8
v 7 0 0
v 1 0 -8
v 15 -1 0
v 13 -1 0
v 15 0 0
v 13 0 0
v 13 -1 0
v 13 -1 -2
v 13 0 0
v 13 0 -2
v 13 -1 -2
v 15 -1 -2
v 13 0 -2
v 15 0 -2
v 15 -1 -2
v 15 -1 0
v 15 0 -2
v 15 0 0
v 15 -1 -2
v 13 -1 -2
v 15 -1 0
v 13 -1 0
v 15 0 0
v 13 0 0
v 15 0 -2
v 13 0 -2
v -36.8 7.6 17.2
v -37.8 7.6 17.2
v -36.8 11.6 17.2
v -37.8 11.6 17.2
v -37.8 7.6 17.2
v -37.8 7.6 9.2
v -37.8 11.6 17.2
v -37.8 11.6 9.2
v -36.8 11.6 17.2
v -37.8 11.6 17.2
v -36.8 11.6 9.2
v -37.8 11.6 9.2
v -36.8 11.6 9.2
v -36.8 7.6 17.2
v -36.8 11.6 17.2
v -36.8 7.6 9.2
v -37.8 11.6 9.2
v -36.8 7.6 9.2
v -36.8 11.6 9.2
v -37.8 7.6 9.2
v -37.8 7.6 17.2
v -36.8 7.6 9.2
v -37.8 7.6 9.2
v -36.8 7.6 17.2
v 11 -1 -6
v 9 -1 -6
v 11 0 -6
v 9 0 -6
v 9 -1 -6
v 9 -1 -8
v 9 0 -6
v 9 0 -8
v 9 -1 -8
v 11 -1 -8
v 9 0 -8
v 11 0 -8
v 11 -1 -8
v 11 -1 -6
v 11 0 -8
v 11 0 -6
v 11 -1 -8
v 9 -1 -8
v 11 -1 -6
v 9 -1 -6
v 11 0 -6
v 9 0 -6
v 11 0 -8
v 9 0 -8
v 19 -1 -6
v 17 -1 -6
v 19 0 -6
v 17 0 -6
v 17 -1 -6
v 17 -1 -8
v 17 0 -6
v 17 0 -8
v 17 -1 -8
v 19 -1 -8
v 17 0 -8
v 19 0 -8
v 19 -1 -8
v 19 -1 -6
v 19 0 -8
v 19 0 -6
v 19 -1 -8
v 17 -1 -8
v 19 -1 -6
v 17 -1 -6
v 19 0 -6
v 17 0 -6
v 19 0 -8
v 17 0 -8
v 11 -1 0
v 9 -1 0
v 11 0 0
v 9 0 0
v 9 -1 0
v 9 -1 -2
v 9 0 0
v 9 0 -2
v 9 -1 -2
v 11 -1 -2
v 9 0 -2
v 11 0 -2
v 11 -1 -2
v 11 -1 0
v 11 0 -2
v 11 0 0
v 11 -1 -2
v 9 -1 -2
v 11 -1 0
v 9 -1 0
v 11 0 0
v 9 0 0
v 11 0 -2
v 9 0 -2
v 15 -1 -6
v 13 -1 -6
v 15 0 -6
v 13 0 -6
v 13 -1 -6
v 13 -1 -8
v 13 0 -6
v 13 0 -8
v 13 -1 -8
v 15 -1 -8
v 13 0 -8
v 15 0 -8
v 15 -1 -8
v 15 -1 -6
v 15 0 -8
v 15 0 -6
v 15 -1 -8
v 13 -1 -8
v 15 -1 -6
v 13 -1 -6
v 15 0 -6
v 13 0 -6
v 15 0 -8
v 13 0 -8
v 62 -1 0
v 48 -1 0
v 62 0 0
v 48 0 0
v 48 -1 0
v 48 -1 -8
v 48 0 0
v 48 0 -8
v 48 -1 -8
v 62 -1 -8
v 48 0 -8
v 62 0 -8
v 62 -1 -8
v 62 -1 0
v 62 0 -8
v 62 0 0
v 62 -1 -8
v 48 -1 -8
v 62 -1 0
v 48 -1 0
v 62 0 0
v 48 0 0
v 62 0 -8
v 48 0 -8
v 19 -1 0
v 17 -1 0
v 19 0 0
v 17 0 0
v 17 -1 0
v 17 -1 -2
v 17 0 0
v 17 0 -2
v 17 -1 -2
v 19 -1 -2
v 17 0 -2
v 19 0 -2
v 19 -1 -2
v 19 -1 0
v 19 0 -2
v 19 0 0
v 19 -1 -2
v 17 -1 -2
v 19 -1 0
v 17 -1 0
v 19 0 0
v 17 0 0
v 19 0 -2
v 17 0 -2
v 122 -6 -12
v 1 0 -12
v 122 0 -12
v 1 -6 -12
v 122 -6 -9
v 1 -6 -12
v 122 -6 -12
v 1 -6 -9
v 1 0 -17
v 122 0 -12
v 1 0 -12
v 122 0 -17
v 1 4 -17
v 1 0 -12
v 1 4 -12
v 1 0 -17
v 122 4 -17
v 1 0 -17
v 1 4 -17
v 122 0 -17
v 122 4 -12
v 122 0 -17
v 122 4 -17
v 122 0 -12
v 1 0 -9
v 1 4 -12
v 1 0 -12
v 1 4 -9
v 1 0 -8
v 1 4 -9
v 1 0 -9
v 1 4 -8
v 1 -6 -12
v 1 0 -9
v 1 0 -12
v 1 -6 -9
v -26 16 37
v -29 16 37
v -26 20 37
v -29 20 37
v -29 16 37
v -29 16 36
v -29 20 37
v -29 20 36
v -29 16 36
v -26 16 36
v -29 20 36
v -26 20 36
v -26 16 36
v -26 16 37
v -26 20 36
v -26 20 37
v -26 20 37
v -29 20 37
v -26 20 36
v -29 20 36
v -25 16 12
v -28 16 12
v -25 20 12
v -28 20 12
v -28 16 12
v -28 16 11
v -28 20 12
v -28 20 11
v -28 16 11
v -25 16 11
v -28 20 11
v -25 20 11
v -25 16 11
v -25 16 12
v -25 20 11
v -25 20 12
v -25 20 12
v -28 20 12
v -25 20 11
v -28 20 11
v -26 16 25
v -29 16 25
v -26 20 25
v -29 20 25
v -29 16 25
v -29 16 24
v -29 20 25
v -29 20 24
v -29 16 24
v -26 16 24
v -29 20 24
v -26 20 24
v -26 16 24
v -26 16 25
v -26 20 24
v -26 20 25
v -26 20 25
v -29 20 25
v -26 20 24
v -29 20 24
v -16 16 25
v -19 16 25
v -16 20 25
v -19 20 25
v -19 16 25
v -19 16 24
v -19 20 25
v -19 20 24
v -19 16 24
v -16 16 24
v -19 20 24
v -16 20 24
v -16 16 24
v -16 16 25
v -16 20 24
v -16 20 25
v -16 20 25
v -19 20 25
v -16 20 24
v -19 20 24
v -16 16 37
v -19 16 37
v -16 20 37
v -19 20 37
v -19 16 37
v -19 16 36
v -19 20 37
v -19 20 36
v -19 16 36
v -16 16 36
v -19 20 36
v -16 20 36
v -16 16 36
v -16 16 37
v -16 20 36
v -16 20 37
v -16 20 37
v -19 20 37
v -16 20 36
v -19 20 36
v -16 16 12
v -19 16 12
v -16 20 12
v -19 20 12
v -19 16 12
v -19 16 11
v -19 20 12
v -19 20 11
v -19 16 11
v -16 16 11
v -19 20 11
v -16 20 11
v -16 16 11
v -16 16 12
v -16 20 11
v -16 20 12
v -16 20 12
v -19 20 12
v -16 20 11
v -19 20 11
v 98 -2.5 -8
v 98 -2.5 0
v 86 -2.5 -8
v 86 -2.5 0

vn 0 1 0
vn 0 1 0
vn 0 1 0
vn 0 1 0
vn 0 1 0
vn 0 1 0
vn 0 1 0
vn 0 1 0
vn 0 1 0
vn 0 1 0
vn 0 1 0
vn 0 1 0
vn 0 1 0
vn 0 1 0
vn 0 1 0
vn 0 1 0
vn 0 1 0
vn 0 1 0
vn 0 1 0
vn 0 1 0
vn 0 1 0
vn 0.4472136 0.8944272 0
vn 0.4472136 0.8944272 0
vn 0.4472136 0.8944272 0
vn 0.4472136 0.8944272 0
vn -0.4472136 0.8944272 0
vn -0.4472136 0.8944272 0
vn -0.4472136 0.8944272 0
vn -0.4472136 0.8944272 0
vn 0 1 0
vn 0 1 0
vn 0 1 0
vn 0 1 0
vn 0 1 0
vn 0 1 0
vn 0 1 0
vn 0 1 0
vn 1 0 0
vn 1 0 0
vn 1 0 0
vn 1 0 0
vn 0 1 0
vn 0 1 0
vn 0 1 0
vn 0 1 0
vn -1 0 0
vn -1 0 0
vn -1 0 0
vn -1 0 0
vn 0 1 0
vn 0 1 0
vn 0 1 0
vn 0 1 0
vn -1 0 0
vn -1 0 0
vn -1 0 0
vn -1 0 0
vn 0 0 -1
vn 0 0 -1
vn 0 0 -1
vn 0 0 -1
vn 0 0 1
vn 0 0 1
vn 0 0 1
vn 0 0 1
vn 1 0 0
vn 1 0 0
vn 1 0 0
vn 1 0 0
vn 0 1 0
vn 0 1 0
vn 0 1 0
vn 0 1 0
vn 0 1 0
vn 0 1 0
vn 0 1 0
vn 0 1 0
vn -1 0 0
vn -1 0 0
vn -1 0 0
vn -1 0 0
vn 0 0 -1
vn 0 0 -1
vn 0 0 -1
vn 0 0 -1
vn 0 0 1
vn 0 0 1
vn 0 0 1
vn 0 0 1
vn 1 0 0
vn 1 0 0
vn 1 0 0
vn 1 0 0
vn 0 1 0
vn 0 1 0
vn 0 1 0
vn 0 1 0
vn 0 0 -1
vn 0 0 -1
vn 0 0 -1
vn 0 0 -1
vn 0 0 -1
vn 0 0 -1
vn 0 0 -1
vn 0 0 -1
vn 0 0 -1
vn 0 0 -1
vn 0 0 -1
vn 0 0 -1
vn 0 0 -1
vn 0 0 -1
vn 0 0 -1
vn 0 0 -1
vn 0 1 0
vn 0 1 0
vn 0 1 0
vn 0 1 0
vn 0 -1 0
vn 0 -1 0
vn 0 -1 0
vn 0 -1 0
vn 1 0 0
vn 1 0 0
vn 1 0 0
vn 1 0 0
vn 0 0 -1
vn 0 0 -1
vn 0 0 -1
vn 0 0 -1
vn 0 0 -1
vn 0 0 -1
vn 0 0 -1
vn 0 0 -1
vn 0 0 -1
vn 0 0 -1
vn 0 0 -1
vn 0 0 -1
vn 0 0 -1
vn 0 0 -1
vn 0 0 -1
vn 0 0 -1
vn 0 0 -1
vn 0 0 -1
vn 0 0 -1
vn 0 0 -1
vn 0 0 -1
vn 0 0 -1
vn 0 0 -1
vn 0 0 -1
vn 0 0 -1
vn 0 0 -1
vn 0 0 -1
vn 0 0 -1
vn 0 0 -1
vn 0 0 -1
vn 0 0 -1
vn 0 0 -1
vn 0 0 -1
vn 0 0 -1
vn 0 0 -1
vn 0 0 -1
vn -1 0 0
vn -1 0 0
vn -1 0 0
vn -1 0 0
vn -1 0 0
vn -1 0 0
vn -1 0 0
vn -1 0 0
vn -1 0 0
vn -1 0 0
vn -1 0 0
vn -1 0 0
vn 0 0 -1
vn 0 0 -1
vn 0 0 -1
vn 0 0 -1
vn 1 0 0
vn 1 0 0
vn 1 0 0
vn 1 0 0
vn 0 0 1
vn 0 0 1
vn 0 0 1
vn 0 0 1
vn 1 0 0
vn 1 0 0
vn 1 0 0
vn 1 0 0
vn 0 0 -1
vn 0 0 -1
vn 0 0 -1
vn 0 0 -1
vn 1 0 0
vn 1 0 0
vn 1 0 0
vn 1 0 0
vn 0 0 1
vn 0 0 1
vn 0 0 1
vn 0 0 1
vn -1 0 0
vn -1 0 0
vn -1 0 0
vn -1 0 0
vn 0 0 -1
vn 0 0 -1
vn 0 0 -1
vn 0 0 -1
vn -1 0 0
vn -1 0 0
vn -1 0 0
vn -1 0 0
vn 0 0 1
vn 0 0 1
vn 0 0 1
vn 0 0 1
vn -1 0 0
vn -1 0 0
vn -1 0 0
vn -1 0 0
vn 0 0 -1
vn 0 0 -1
vn 0 0 -1
vn 0 0 -1
vn 1 0 0
vn 1 0 0
vn 1 0 0
vn 1 0 0
vn 0 0 1
vn 0 0 1
vn 0 0 1
vn 0 0 1
vn -1 0 0
vn -1 0 0
vn -1 0 0
vn -1 0 0
vn 0 1 0
vn 0 1 0
vn 0 1 0
vn 0 1 0
vn 0 1 0
vn 0 1 0
vn 0 1 0
vn 0 1 0
vn 0 0 -1
vn 0 0 -1
vn 0 0 -1
vn 0 0 -1
vn 1 0 0
vn 1 0 0
vn 1 0 0
vn 1 0 0
vn 0 0 1
vn 0 0 1
vn 0 0 1
vn 0 0 1
vn -1 0 0
vn -1 0 0
vn -1 0 0
vn -1 0 0
vn 0 1 0
vn 0 1 0
vn 0 1 0
vn 0 1 0
vn 0 0 1
vn 0 0 1
vn 0 0 1
vn 0 0 1
vn 0 0 -1
vn 0 0 -1
vn 0 0 -1
vn 0 0 -1
vn 0 1 0
vn 0 1 0
vn 0 1 0
vn 0 1 0
vn 0 0 1
vn 0 0 1
vn 0 0 1
vn 0 0 1
vn -1 0 0
vn -1 0 0
vn -1 0 0
vn -1 0 0
vn 0 0 -1
vn 0 0 -1
vn 0 0 -1
vn 0 0 -1
vn 1 0 0
vn 1 0 0
vn 1 0 0
vn 1 0 0
vn 0 -1 0
vn 0 -1 0
vn 0 -1 0
vn 0 -1 0
vn 0 1 0
vn 0 1 0
vn 0 1 0
vn 0 1 0
vn 0 0 1
vn 0 0 1
vn 0 0 1
vn 0 0 1
vn -1 0 0
vn -1 0 0
vn -1 0 0
vn -1 0 0
vn 0 1 0
vn 0 1 0
vn 0 1 0
vn 0 1 0
vn 1 0 0
vn 1 0 0
vn 1 0 0
vn 1 0 0
vn 0 0 -1
vn 0 0 -1
vn 0 0 -1
vn 0 0 -1
vn 0 -1 0
vn 0 -1 0
vn 0 -1 0
vn 0 -1 0
vn 0 0 1
vn 0 0 1
vn 0 0 1
vn 0 0 1
vn -1 0 0
vn -1 0 0
vn -1 0 0
vn -1 0 0
vn 0 0 -1
vn 0 0 -1
vn 0 0 -1
vn 0 0 -1
vn 1 0 0
vn 1 0 0
vn 1 0 0
vn 1 0 0
vn 0 -1 0
vn 0 -1 0
vn 0 -1 0
vn 0 -1 0
vn 0 1 0
vn 0 1 0
vn 0 1 0
vn 0 1 0
vn 0 0 1
vn 0 0 1
vn 0 0 1
vn 0 0 1
vn -1 0 0
vn -1 0 0
vn -1 0 0
vn -1 0 0
vn 0 0 -1
vn 0 0 -1
vn 0 0 -1
vn 0 0 -1
vn 1 0 0
vn 1 0 0
vn 1 0 0
vn 1 0 0
vn 0 -1 0
vn 0 -1 0
vn 0 -1 0
vn 0 -1 0
vn 0 1 0
vn 0 1 0
vn 0 1 0
vn 0 1 0
vn 0 0 1
vn 0 0 1
vn 0 0 1
vn 0 0 1
vn -1 0 0
vn -1 0 0
vn -1 0 0
vn -1 0 0
vn 0 0 -1
vn 0 0 -1
vn 0 0 -1
vn 0 0 -1
vn 1 0 0
vn 1 0 0
vn 1 0 0
vn 1 0 0
vn 0 -1 0
vn 0 -1 0
vn 0 -1 0
vn 0 -1 0
vn 0 1 0
vn 0 1 0
vn 0 1 0
vn 0 1 0
vn 0 0 1
vn 0 0 1
vn 0 0 1
vn 0 0 1
vn -1 0 0
vn -1 0 0
vn -1 0 0
vn -1 0 0
vn 0 0 -1
vn 0 0 -1
vn 0 0 -1
vn 0 0 -1
vn 1 0 0
vn 1 0 0
vn 1 0 0
vn 1 0 0
vn 0 -1 0
vn 0 -1 0
vn 0 -1 0
vn 0 -1 0
vn 0 1 0
vn 0 1 0
vn 0 1 0
vn 0 1 0
vn 0 0 1
vn 0 0 1
vn 0 0 1
vn 0 0 1
vn -1 0 0
vn -1 0 0
vn -1 0 0
vn -1 0 0
vn 0 0 -1
vn 0 0 -1
vn 0 0 -1
vn 0 0 -1
vn 1 0 0
vn 1 0 0
vn 1 0 0
vn 1 0 0
vn 0 -1 0
vn 0 -1 0
vn 0 -1 0
vn 0 -1 0
vn 0 1 0
vn 0 1 0
vn 0 1 0
vn 0 1 0
vn 0 0 1
vn 0 0 1
vn 0 0 1
vn 0 0 1
vn -1 0 0
vn -1 0 0
vn -1 0 0
vn -1 0 0
vn 0 0 -1
vn 0 0 -1
vn 0 0 -1
vn 0 0 -1
vn 1 0 0
vn 1 0 0
vn 1 0 0
vn 1 0 0
vn 0 -1 0
vn 0 -1 0
vn 0 -1 0
vn 0 -1 0
vn 0 1 0
vn 0 1 0
vn 0 1 0
vn 0 1 0
vn 0 0 1
vn 0 0 1
vn 0 0 1
vn 0 0 1
vn 0 1 0
vn 0 1 0
vn 0 1 0
vn 0 1 0
vn 0 1 0
vn 0 1 0
vn 0 1 0
vn 0 1 0
vn 1 0 0
vn 1 0 0
vn 1 0 0
vn 1 0 0
vn 0 0 0.9999999
vn 0 0 0.9999999
vn 0 0 0.9999999
vn 0 0 0.9999999
vn -1 0 0
vn -1 0 0
vn -1 0 0
vn -1 0 0
vn 1 0 0
vn 1 0 0
vn 1 0 0
vn 1 0 0
vn 1 0 0
vn 1 0 0
vn 1 0 0
vn 1 0 0
vn 1 0 0
vn 1 0 0
vn 1 0 0
vn 1 0 0
vn 0 0 1
vn 0 0 1
vn 0 0 1
vn 0 0 1
vn -1 0 0
vn -1 0 0
vn -1 0 0
vn -1 0 0
vn 0 0 -1
vn 0 0 -1
vn 0 0 -1
vn 0 0 -1
vn 1 0 0
vn 1 0 0
vn 1 0 0
vn 1 0 0
vn 0 1 0
vn 0 1 0
vn 0 1 0
vn 0 1 0
vn 0 0 1
vn 0 0 1
vn 0 0 1
vn 0 0 1
vn -1 0 0
vn -1 0 0
vn -1 0 0
vn -1 0 0
vn 0 0 -1
vn 0 0 -1
vn 0 0 -1
vn 0 0 -1
vn 1 0 0
vn 1 0 0
vn 1 0 0
vn 1 0 0
vn 0 1 0
vn 0 1 0
vn 0 1 0
vn 0 1 0
vn 0 0 1
vn 0 0 1
vn 0 0 1
vn 0 0 1
vn -1 0 0
vn -1 0 0
vn -1 0 0
vn -1 0 0
vn 0 0 -1
vn 0 0 -1
vn 0 0 -1
vn 0 0 -1
vn 1 0 0
vn 1 0 0
vn 1 0 0
vn 1 0 0
vn 0 1 0
vn 0 1 0
vn 0 1 0
vn 0 1 0
vn 0 0 1
vn 0 0 1
vn 0 0 1
vn 0 0 1
vn -1 0 0
vn -1 0 0
vn -1 0 0
vn -1 0 0
vn 0 0 -1
vn 0 0 -1
vn 0 0 -1
vn 0 0 -1
vn 1 0 0
vn 1 0 0
vn 1 0 0
vn 1 0 0
vn 0 1 0
vn 0 1 0
vn 0 1 0
vn 0 1 0
vn 0 0 1
vn 0 0 1
vn 0 0 1
vn 0 0 1
vn -1 0 0
vn -1 0 0
vn -1 0 0
vn -1 0 0
vn 0 0 -1
vn 0 0 -1
vn 0 0 -1
vn 0 0 -1
vn 1 0 0
vn 1 0 0
vn 1 0 0
vn 1 0 0
vn 0 1 0
vn 0 1 0
vn 0 1 0
vn 0 1 0
vn 0 0 1
vn 0 0 1
vn 0 0 1
vn 0 0 1
vn -1 0 0
vn -1 0 0
vn -1 0 0
vn -1 0 0
vn 0 0 -1
vn 0 0 -1
vn 0 0 -1
vn 0 0 -1
vn 1 0 0
vn 1 0 0
vn 1 0 0
vn 1 0 0
vn 0 1 0
vn 0 1 0
vn 0 1 0
vn 0 1 0
vn 0 1 0
vn 0 1 0
vn 0 1 0
vn 0 1 0

vt 0 0
vt 0 8
vt 24 0
vt 24 8
vt 0 2
vt 2 2
vt 2 0
vt 0 0
vt 17 8
vt 27 8
vt 17 0
vt 27 0
vt 10 0
vt 0 0
vt 10 3
vt 0 8
vt 10 8
vt 2 0
vt 0 0
vt 0 2
vt 2 2
vt 0 0
vt 2 8
vt 2 0
vt 0 8
vt 0 0
vt 2 8
vt 2 0
vt 0 8
vt 0 0
vt 0 8
vt 5 8
vt 5 0
vt 24 8
vt 24 0
vt 17 8
vt 17 0
vt 8 0
vt 0 1
vt 8 1
vt 0 0
vt 0 0
vt 8 8
vt 8 0
vt 0 8
vt 0 1
vt 8 0
vt 0 0
vt 8 1
vt 0 0
vt 0 8
vt 12 8
vt 12 0
vt 0 2
vt 8 2
vt 0 0
vt 8 0
vt 0 2
vt 12 2
vt 0 0
vt 12 0
vt 0 2
vt 12 2
vt 0 0
vt 12 0
vt 0 2
vt 8 2
vt 0 0
vt 8 0
vt 0 0
vt 0 1
vt 87 1
vt 87 0
vt 1 1
vt 1 0
vt 0 0
vt 0 1
vt 1 0
vt 0 0
vt 1 4
vt 0 4
vt 1 0
vt 0 0
vt 1 4
vt 0 4
vt 1 0
vt 0 0
vt 1 4
vt 0 4
vt 1 0
vt 0 0
vt 1 4
vt 0 4
vt 33 1
vt 0 0
vt 0 1
vt 33 0
vt 33 0
vt 0 6
vt 33 6
vt 0 0
vt 0 0
vt 1 6
vt 1 0
vt 0 6
vt 0 0
vt 87 6
vt 87 0
vt 0 6
vt 12 0
vt 0 0
vt 12 1
vt 0 1
vt 0 8
vt 12 8
vt 0 0
vt 12 0
vt 12 0
vt 0 0
vt 12 8
vt 0 8
vt 0 0
vt 8 4
vt 8 0
vt 0 4
vt 0 0
vt 6 4
vt 6 0
vt 0 4
vt 0 0
vt 14 4
vt 14 0
vt 0 4
vt 0 0
vt 10 4
vt 10 0
vt 0 4
vt 0 0
vt 7 4
vt 7 0
vt 1 4
vt 0 0
vt 11 4
vt 10 0
vt 0 4
vt 0 0
vt 14 4
vt 14 0
vt 0 4
vt 24 4
vt 24 0
vt 0 0
vt 0 4
vt 0 4
vt 12 4
vt 0 0
vt 12 0
vt 0 0
vt 0 4
vt 24 0
vt 24 4
vt 0 0
vt 9 4
vt 9 0
vt 0 4
vt 0 0
vt 3 4
vt 3 0
vt 0 4
vt 3 0
vt 0 6
vt 3 6
vt 0 0
vt 7 0
vt 0 21
vt 7 21
vt 0 0
vt 3 21
vt 0 0
vt 0 21
vt 3 0
vt 2 21
vt 0 0
vt 0 21
vt 2 0
vt 2 21
vt 0 0
vt 0 21
vt 2 0
vt 2 21
vt 0 0
vt 0 21
vt 2 0
vt 3 21
vt 0 0
vt 0 21
vt 3 0
vt 7 21
vt 0 0
vt 0 21
vt 7 0
vt 3 21
vt 0 0
vt 0 21
vt 3 0
vt 2 21
vt 0 0
vt 0 21
vt 2 0
vt 2 21
vt 0 0
vt 0 21
vt 2 0
vt 2 21
vt 0 0
vt 0 21
vt 2 0
vt 3 21
vt 0 0
vt 0 21
vt 3 0
vt 14 0
vt 0 21
vt 14 21
vt 0 0
vt 8 21
vt 0 0
vt 0 21
vt 8 0
vt 14 21
vt 0 0
vt 0 21
vt 14 0
vt 8 21
vt 0 0
vt 0 21
vt 8 0
vt 0 0
vt 14 8
vt 14 0
vt 0 8
vt 7 0
vt 0 8
vt 7 8
vt 0 0
vt 14 0
vt 0 21
vt 14 21
vt 0 0
vt 8 21
vt 0 0
vt 0 21
vt 8 0
vt 14 21
vt 0 0
vt 0 21
vt 14 0
vt 8 21
vt 0 0
vt 0 21
vt 8 0
vt 14 0
vt 0 8
vt 14 8
vt 0 0
vt 12 0
vt 0 2
vt 12 2
vt 0 0
vt 12 0
vt 0 2
vt 12 2
vt 0 0
vt 6 8
vt 0 0
vt 0 8
vt 6 0
vt 2 0
vt 0 0
vt 2 1
vt 0 1
vt 2 0
vt 0 0
vt 2 1
vt 0 1
vt 2 0
vt 0 0
vt 2 1
vt 0 1
vt 2 0
vt 0 0
vt 2 1
vt 0 1
vt 2 0
vt 0 0
vt 2 2
vt 0 2
vt 0 2
vt 2 2
vt 0 0
vt 2 0
vt 1 0
vt 0 0
vt 1 4
vt 0 4
vt 8 0
vt 0 0
vt 8 4
vt 0 4
vt 0 8
vt 1 8
vt 0 0
vt 1 0
vt 8 4
vt 0 0
vt 0 4
vt 8 0
vt 1 4
vt 0 0
vt 0 4
vt 1 0
vt 0 8
vt 1 0
vt 0 0
vt 1 8
vt 2 0
vt 0 0
vt 2 1
vt 0 1
vt 2 0
vt 0 0
vt 2 1
vt 0 1
vt 2 0
vt 0 0
vt 2 1
vt 0 1
vt 2 0
vt 0 0
vt 2 1
vt 0 1
vt 2 0
vt 0 0
vt 2 2
vt 0 2
vt 0 2
vt 2 2
vt 0 0
vt 2 0
vt 2 0
vt 0 0
vt 2 1
vt 0 1
vt 2 0
vt 0 0
vt 2 1
vt 0 1
vt 2 0
vt 0 0
vt 2 1
vt 0 1
vt 2 0
vt 0 0
vt 2 1
vt 0 1
vt 2 0
vt 0 0
vt 2 2
vt 0 2
vt 0 2
vt 2 2
vt 0 0
vt 2 0
vt 2 0
vt 0 0
vt 2 1
vt 0 1
vt 2 0
vt 0 0
vt 2 1
vt 0 1
vt 2 0
vt 0 0
vt 2 1
vt 0 1
vt 2 0
vt 0 0
vt 2 1
vt 0 1
vt 2 0
vt 0 0
vt 2 2
vt 0 2
vt 0 2
vt 2 2
vt 0 0
vt 2 0
vt 2 0
vt 0 0
vt 2 1
vt 0 1
vt 2 0
vt 0 0
vt 2 1
vt 0 1
vt 2 0
vt 0 0
vt 2 1
vt 0 1
vt 2 0
vt 0 0
vt 2 1
vt 0 1
vt 2 0
vt 0 0
vt 2 2
vt 0 2
vt 0 2
vt 2 2
vt 0 0
vt 2 0
vt 14 0
vt 0 0
vt 14 1
vt 0 1
vt 8 0
vt 0 0
vt 8 1
vt 0 1
vt 14 0
vt 0 0
vt 14 1
vt 0 1
vt 8 0
vt 0 0
vt 8 1
vt 0 1
vt 14 0
vt 0 0
vt 14 8
vt 0 8
vt 0 8
vt 14 8
vt 0 0
vt 14 0
vt 2 0
vt 0 0
vt 2 1
vt 0 1
vt 2 0
vt 0 0
vt 2 1
vt 0 1
vt 2 0
vt 0 0
vt 2 1
vt 0 1
vt 2 0
vt 0 0
vt 2 1
vt 0 1
vt 2 0
vt 0 0
vt 2 2
vt 0 2
vt 0 2
vt 2 2
vt 0 0
vt 2 0
vt 121 0
vt 0 6
vt 121 6
vt 0 0
vt 0 3
vt 121 0
vt 0 0
vt 121 3
vt 121 0
vt 0 5
vt 121 5
vt 0 0
vt 5 4
vt 0 0
vt 0 4
vt 5 0
vt 121 4
vt 0 0
vt 0 4
vt 121 0
vt 5 4
vt 0 0
vt 0 4
vt 5 0
vt 0 0
vt 3 4
vt 3 0
vt 0 4
vt 0 0
vt 1 4
vt 1 0
vt 0 4
vt 3 0
vt 0 6
vt 3 6
vt 0 0
vt 3 0
vt 0 0
vt 3 4
vt 0 4
vt 1 0
vt 0 0
vt 1 4
vt 0 4
vt 3 0
vt 0 0
vt 3 4
vt 0 4
vt 1 0
vt 0 0
vt 1 4
vt 0 4
vt 0 1
vt 3 1
vt 0 0
vt 3 0
vt 3 0
vt 0 0
vt 3 4
vt 0 4
vt 1 0
vt 0 0
vt 1 4
vt 0 4
vt 3 0
vt 0 0
vt 3 4
vt 0 4
vt 1 0
vt 0 0
vt 1 4
vt 0 4
vt 0 1
vt 3 1
vt 0 0
vt 3 0
vt 3 0
vt 0 0
vt 3 4
vt 0 4
vt 1 0
vt 0 0
vt 1 4
vt 0 4
vt 3 0
vt 0 0
vt 3 4
vt 0 4
vt 1 0
vt 0 0
vt 1 4
vt 0 4
vt 0 1
vt 3 1
vt 0 0
vt 3 0
vt 3 0
vt 0 0
vt 3 4
vt 0 4
vt 1 0
vt 0 0
vt 1 4
vt 0 4
vt 3 0
vt 0 0
vt 3 4
vt 0 4
vt 1 0
vt 0 0
vt 1 4
vt 0 4
vt 0 1
vt 3 1
vt 0 0
vt 3 0
vt 3 0
vt 0 0
vt 3 4
vt 0 4
vt 1 0
vt 0 0
vt 1 4
vt 0 4
vt 3 0
vt 0 0
vt 3 4
vt 0 4
vt 1 0
vt 0 0
vt 1 4
vt 0 4
vt 0 1
vt 3 1
vt 0 0
vt 3 0
vt 3 0
vt 0 0
vt 3 4
vt 0 4
vt 1 0
vt 0 0
vt 1 4
vt 0 4
vt 3 0
vt 0 0
vt 3 4
vt 0 4
vt 1 0
vt 0 0
vt 1 4
vt 0 4
vt 0 1
vt 3 1
vt 0 0
vt 3 0
vt 0 0
vt 0 8
vt 12 0
vt 12 8

g Combined_Mesh_(root:_scene)
usemtl Combined_Mesh_(root:_scene)
usemap Combined_Mesh_(root:_scene)
f 1/1/1 3/3/3 2/2/2
f 2/2/2 3/3/3 4/4/4
f 5/5/5 7/7/7 6/6/6
f 8/8/8 7/7/7 5/5/5
f 9/9/9 11/11/11 10/10/10
f 10/10/10 11/11/11 12/12/12
f 13/13/13 15/15/15 14/14/14
f 14/14/14 17/17/17 16/16/16
f 15/15/15 17/17/17 14/14/14
f 18/18/18 20/20/20 19/19/19
f 21/21/21 20/20/20 18/18/18
f 22/22/22 24/24/24 23/23/23
f 22/22/22 23/23/23 25/25/25
f 26/26/26 28/28/28 27/27/27
f 26/26/26 27/27/27 29/29/29
f 30/30/30 32/32/32 31/31/31
f 33/33/33 32/32/32 30/30/30
f 34/34/34 36/36/36 35/35/35
f 35/35/35 36/36/36 37/37/37
g Combined_Mesh_(root:_scene)_1
usemtl Combined_Mesh_(root:_scene)_1
usemap Combined_Mesh_(root:_scene)_1
f 38/38/38 40/40/40 39/39/39
f 38/38/38 39/39/39 41/41/41
f 42/42/42 44/44/44 43/43/43
f 42/42/42 43/43/43 45/45/45
f 46/46/46 48/48/48 47/47/47
f 46/46/46 47/47/47 49/49/49
f 50/50/50 52/52/52 51/51/51
f 53/53/53 52/52/52 50/50/50
f 54/54/54 56/56/56 55/55/55
f 55/55/55 56/56/56 57/57/57
f 58/58/58 60/60/60 59/59/59
f 59/59/59 60/60/60 61/61/61
f 62/62/62 64/64/64 63/63/63
f 63/63/63 64/64/64 65/65/65
f 66/66/66 68/68/68 67/67/67
f 67/67/67 68/68/68 69/69/69
g Combined_Mesh_(root:_scene)_2
usemtl Combined_Mesh_(root:_scene)_2
usemap Combined_Mesh_(root:_scene)_2
f 70/70/70 72/72/72 71/71/71
f 70/70/70 73/73/73 72/72/72
f 74/74/74 76/76/76 75/75/75
f 77/77/77 76/76/76 74/74/74
f 78/78/78 80/80/80 79/79/79
f 79/79/79 80/80/80 81/81/81
f 82/82/82 84/84/84 83/83/83
f 83/83/83 84/84/84 85/85/85
f 86/86/86 88/88/88 87/87/87
f 87/87/87 88/88/88 89/89/89
f 90/90/90 92/92/92 91/91/91
f 91/91/91 92/92/92 93/93/93
f 94/94/94 96/96/96 95/95/95
f 94/94/94 95/95/95 97/97/97
f 98/98/98 100/100/100 99/99/99
f 98/98/98 99/99/99 101/101/101
f 102/102/102 104/104/104 103/103/103
f 102/102/102 103/103/103 105/105/105
f 106/106/106 108/108/108 107/107/107
f 106/106/106 107/107/107 109/109/109
g Combined_Mesh_(root:_scene)_3
usemtl Combined_Mesh_(root:_scene)_3
usemap Combined_Mesh_(root:_scene)_3
f 110/110/110 112/112/112 111/111/111
f 111/111/111 112/112/112 113/113/113
f 114/114/114 116/116/116 115/115/115
f 115/115/115 116/116/116 117/117/117
f 118/118/118 120/120/120 119/119/119
f 119/119/119 120/120/120 121/121/121
g Combined_Mesh_(root:_scene)_4
usemtl Combined_Mesh_(root:_scene)_4
usemap Combined_Mesh_(root:_scene)_4
f 122/122/122 124/124/124 123/123/123
f 122/122/122 123/123/123 125/125/125
f 126/126/126 128/128/128 127/127/127
f 126/126/126 127/127/127 129/129/129
g Combined_Mesh_(root:_scene)_5
usemtl Combined_Mesh_(root:_scene)_5
usemap Combined_Mesh_(root:_scene)_5
f 130/130/130 132/132/132 131/131/131
f 130/130/130 131/131/131 133/133/133
f 134/134/134 136/136/136 135/135/135
f 134/134/134 135/135/135 137/137/137
f 138/138/138 140/140/140 139/139/139
f 138/138/138 139/139/139 141/141/141
f 142/142/142 144/144/144 143/143/143
f 142/142/142 143/143/143 145/145/145
f 146/146/146 148/148/148 147/147/147
f 146/146/146 147/147/147 149/149/149
f 150/150/150 152/152/152 151/151/151
f 153/153/153 152/152/152 150/150/150
f 154/154/154 156/156/156 155/155/155
f 155/155/155 156/156/156 157/157/157
f 158/158/158 160/160/160 159/159/159
f 159/159/159 160/160/160 161/161/161
f 162/162/162 164/164/164 163/163/163
f 162/162/162 163/163/163 165/165/165
f 166/166/166 168/168/168 167/167/167
f 166/166/166 167/167/167 169/169/169
f 170/170/170 172/172/172 171/171/171
f 170/170/170 171/171/171 173/173/173
g Combined_Mesh_(root:_scene)_6
usemtl Combined_Mesh_(root:_scene)_6
usemap Combined_Mesh_(root:_scene)_6
f 174/174/174 176/176/176 175/175/175
f 174/174/174 175/175/175 177/177/177
f 178/178/178 180/180/180 179/179/179
f 178/178/178 179/179/179 181/181/181
f 182/182/182 184/184/184 183/183/183
f 182/182/182 183/183/183 185/185/185
f 186/186/186 188/188/188 187/187/187
f 186/186/186 187/187/187 189/189/189
f 190/190/190 192/192/192 191/191/191
f 190/190/190 191/191/191 193/193/193
f 194/194/194 196/196/196 195/195/195
f 194/194/194 195/195/195 197/197/197
f 198/198/198 200/200/200 199/199/199
f 198/198/198 199/199/199 201/201/201
f 202/202/202 204/204/204 203/203/203
f 202/202/202 203/203/203 205/205/205
f 206/206/206 208/208/208 207/207/207
f 206/206/206 207/207/207 209/209/209
f 210/210/210 212/212/212 211/211/211
f 210/210/210 211/211/211 213/213/213
f 214/214/214 216/216/216 215/215/215
f 214/214/214 215/215/215 217/217/217
f 218/218/218 220/220/220 219/219/219
f 218/218/218 219/219/219 221/221/221
f 222/222/222 224/224/224 223/223/223
f 222/222/222 223/223/223 225/225/225
f 226/226/226 228/228/228 227/227/227
f 226/226/226 227/227/227 229/229/229
f 230/230/230 232/232/232 231/231/231
f 230/230/230 231/231/231 233/233/233
f 234/234/234 236/236/236 235/235/235
f 234/234/234 235/235/235 237/237/237
f 238/238/238 240/240/240 239/239/239
f 238/238/238 239/239/239 241/241/241
f 242/242/242 244/244/244 243/243/243
f 242/242/242 243/243/243 245/245/245
f 246/246/246 248/248/248 247/247/247
f 246/246/246 247/247/247 249/249/249
f 250/250/250 252/252/252 251/251/251
f 250/250/250 251/251/251 253/253/253
f 254/254/254 256/256/256 255/255/255
f 254/254/254 255/255/255 257/257/257
f 258/258/258 260/260/260 259/259/259
f 258/258/258 259/259/259 261/261/261
f 262/262/262 264/264/264 263/263/263
f 262/262/262 263/263/263 265/265/265
f 266/266/266 268/268/268 267/267/267
f 266/266/266 267/267/267 269/269/269
f 270/270/270 272/272/272 271/271/271
f 270/270/270 271/271/271 273/273/273
g Combined_Mesh_(root:_scene)_7
usemtl Combined_Mesh_(root:_scene)_7
usemap Combined_Mesh_(root:_scene)_7
f 274/274/274 276/276/276 275/275/275
f 274/274/274 275/275/275 277/277/277
g Combined_Mesh_(root:_scene)_8
usemtl Combined_Mesh_(root:_scene)_8
usemap Combined_Mesh_(root:_scene)_8
f 278/278/278 280/280/280 279/279/279
f 279/279/279 280/280/280 281/281/281
f 282/282/282 284/284/284 283/283/283
f 283/283/283 284/284/284 285/285/285
f 286/286/286 288/288/288 287/287/287
f 287/287/287 288/288/288 289/289/289
f 290/290/290 292/292/292 291/291/291
f 291/291/291 292/292/292 293/293/293
f 294/294/294 296/296/296 295/295/295
f 295/295/295 296/296/296 297/297/297
g Combined_Mesh_(root:_scene)_9
usemtl Combined_Mesh_(root:_scene)_9
usemap Combined_Mesh_(root:_scene)_9
f 298/298/298 300/300/300 299/299/299
f 299/299/299 300/300/300 301/301/301
g Combined_Mesh_(root:_scene)_10
usemtl Combined_Mesh_(root:_scene)_10
usemap Combined_Mesh_(root:_scene)_10
f 302/302/302 304/304/304 303/303/303
f 303/303/303 304/304/304 305/305/305
f 306/306/306 308/308/308 307/307/307
f 307/307/307 308/308/308 309/309/309
f 310/310/310 312/312/312 311/311/311
f 311/311/311 312/312/312 313/313/313
f 314/314/314 316/316/316 315/315/315
f 314/314/314 315/315/315 317/317/317
f 318/318/318 320/320/320 319/319/319
f 318/318/318 319/319/319 321/321/321
f 322/322/322 324/324/324 323/323/323
f 322/322/322 323/323/323 325/325/325
g Combined_Mesh_(root:_scene)_11
usemtl Combined_Mesh_(root:_scene)_11
usemap Combined_Mesh_(root:_scene)_11
f 326/326/326 328/328/328 327/327/327
f 327/327/327 328/328/328 329/329/329
f 330/330/330 332/332/332 331/331/331
f 331/331/331 332/332/332 333/333/333
f 334/334/334 336/336/336 335/335/335
f 335/335/335 336/336/336 337/337/337
f 338/338/338 340/340/340 339/339/339
f 339/339/339 340/340/340 341/341/341
f 342/342/342 344/344/344 343/343/343
f 343/343/343 344/344/344 345/345/345
g Combined_Mesh_(root:_scene)_12
usemtl Combined_Mesh_(root:_scene)_12
usemap Combined_Mesh_(root:_scene)_12
f 346/346/346 348/348/348 347/347/347
f 347/347/347 348/348/348 349/349/349
g Combined_Mesh_(root:_scene)_13
usemtl Combined_Mesh_(root:_scene)_13
usemap Combined_Mesh_(root:_scene)_13
f 350/350/350 352/352/352 351/351/351
f 351/351/351 352/352/352 353/353/353
f 354/354/354 356/356/356 355/355/355
f 355/355/355 356/356/356 357/357/357
f 358/358/358 360/360/360 359/359/359
f 359/359/359 360/360/360 361/361/361
f 362/362/362 364/364/364 363/363/363
f 363/363/363 364/364/364 365/365/365
f 366/366/366 368/368/368 367/367/367
f 367/367/367 368/368/368 369/369/369
g Combined_Mesh_(root:_scene)_14
usemtl Combined_Mesh_(root:_scene)_14
usemap Combined_Mesh_(root:_scene)_14
f 370/370/370 372/372/372 371/371/371
f 371/371/371 372/372/372 373/373/373
g Combined_Mesh_(root:_scene)_15
usemtl Combined_Mesh_(root:_scene)_15
usemap Combined_Mesh_(root:_scene)_15
f 374/374/374 376/376/376 375/375/375
f 375/375/375 376/376/376 377/377/377
f 378/378/378 380/380/380 379/379/379
f 379/379/379 380/380/380 381/381/381
f 382/382/382 384/384/384 383/383/383
f 383/383/383 384/384/384 385/385/385
f 386/386/386 388/388/388 387/387/387
f 387/387/387 388/388/388 389/389/389
f 390/390/390 392/392/392 391/391/391
f 391/391/391 392/392/392 393/393/393
g Combined_Mesh_(root:_scene)_16
usemtl Combined_Mesh_(root:_scene)_16
usemap Combined_Mesh_(root:_scene)_16
f 394/394/394 396/396/396 395/395/395
f 395/395/395 396/396/396 397/397/397
g Combined_Mesh_(root:_scene)_17
usemtl Combined_Mesh_(root:_scene)_17
usemap Combined_Mesh_(root:_scene)_17
f 398/398/398 400/400/400 399/399/399
f 399/399/399 400/400/400 401/401/401
f 402/402/402 404/404/404 403/403/403
f 403/403/403 404/404/404 405/405/405
f 406/406/406 408/408/408 407/407/407
f 407/407/407 408/408/408 409/409/409
f 410/410/410 412/412/412 411/411/411
f 411/411/411 412/412/412 413/413/413
f 414/414/414 416/416/416 415/415/415
f 415/415/415 416/416/416 417/417/417
g Combined_Mesh_(root:_scene)_18
usemtl Combined_Mesh_(root:_scene)_18
usemap Combined_Mesh_(root:_scene)_18
f 418/418/418 420/420/420 419/419/419
f 419/419/419 420/420/420 421/421/421
g Combined_Mesh_(root:_scene)_19
usemtl Combined_Mesh_(root:_scene)_19
usemap Combined_Mesh_(root:_scene)_19
f 422/422/422 424/424/424 423/423/423
f 423/423/423 424/424/424 425/425/425
f 426/426/426 428/428/428 427/427/427
f 427/427/427 428/428/428 429/429/429
f 430/430/430 432/432/432 431/431/431
f 431/431/431 432/432/432 433/433/433
f 434/434/434 436/436/436 435/435/435
f 435/435/435 436/436/436 437/437/437
f 438/438/438 440/440/440 439/439/439
f 439/439/439 440/440/440 441/441/441
g Combined_Mesh_(root:_scene)_20
usemtl Combined_Mesh_(root:_scene)_20
usemap Combined_Mesh_(root:_scene)_20
f 442/442/442 444/444/444 443/443/443
f 443/443/443 444/444/444 445/445/445
g Combined_Mesh_(root:_scene)_21
usemtl Combined_Mesh_(root:_scene)_21
usemap Combined_Mesh_(root:_scene)_21
f 446/446/446 448/448/448 447/447/447
f 447/447/447 448/448/448 449/449/449
f 450/450/450 452/452/452 451/451/451
f 451/451/451 452/452/452 453/453/453
f 454/454/454 456/456/456 455/455/455
f 455/455/455 456/456/456 457/457/457
f 458/458/458 460/460/460 459/459/459
f 459/459/459 460/460/460 461/461/461
f 462/462/462 464/464/464 463/463/463
f 463/463/463 464/464/464 465/465/465
g Combined_Mesh_(root:_scene)_22
usemtl Combined_Mesh_(root:_scene)_22
usemap Combined_Mesh_(root:_scene)_22
f 466/466/466 468/468/468 467/467/467
f 467/467/467 468/468/468 469/469/469
g Combined_Mesh_(root:_scene)_23
usemtl Combined_Mesh_(root:_scene)_23
usemap Combined_Mesh_(root:_scene)_23
f 470/470/470 472/472/472 471/471/471
f 470/470/470 471/471/471 473/473/473
f 474/474/474 476/476/476 475/475/475
f 474/474/474 475/475/475 477/477/477
f 478/478/478 480/480/480 479/479/479
f 478/478/478 479/479/479 481/481/481
g Combined_Mesh_(root:_scene)_24
usemtl Combined_Mesh_(root:_scene)_24
usemap Combined_Mesh_(root:_scene)_24
f 482/482/482 484/484/484 483/483/483
f 482/482/482 483/483/483 485/485/485
f 486/486/486 488/488/488 487/487/487
f 486/486/486 487/487/487 489/489/489
f 490/490/490 492/492/492 491/491/491
f 490/490/490 491/491/491 493/493/493
g Combined_Mesh_(root:_scene)_25
usemtl Combined_Mesh_(root:_scene)_25
usemap Combined_Mesh_(root:_scene)_25
f 494/494/494 496/496/496 495/495/495
f 494/494/494 495/495/495 497/497/497
f 498/498/498 500/500/500 499/499/499
f 498/498/498 499/499/499 501/501/501
f 502/502/502 504/504/504 503/503/503
f 502/502/502 503/503/503 505/505/505
g Combined_Mesh_(root:_scene)_26
usemtl Combined_Mesh_(root:_scene)_26
usemap Combined_Mesh_(root:_scene)_26
f 506/506/506 508/508/508 507/507/507
f 507/507/507 508/508/508 509/509/509
f 510/510/510 512/512/512 511/511/511
f 511/511/511 512/512/512 513/513/513
f 514/514/514 516/516/516 515/515/515
f 515/515/515 516/516/516 517/517/517
f 518/518/518 520/520/520 519/519/519
f 519/519/519 520/520/520 521/521/521
f 522/522/522 524/524/524 523/523/523
f 523/523/523 524/524/524 525/525/525
g Combined_Mesh_(root:_scene)_27
usemtl Combined_Mesh_(root:_scene)_27
usemap Combined_Mesh_(root:_scene)_27
f 526/526/526 528/528/528 527/527/527
f 527/527/527 528/528/528 529/529/529
f 530/530/530 532/532/532 531/531/531
f 531/531/531 532/532/532 533/533/533
f 534/534/534 536/536/536 535/535/535
f 535/535/535 536/536/536 537/537/537
f 538/538/538 540/540/540 539/539/539
f 539/539/539 540/540/540 541/541/541
f 542/542/542 544/544/544 543/543/543
f 543/543/543 544/544/544 545/545/545
g Combined_Mesh_(root:_scene)_28
usemtl Combined_Mesh_(root:_scene)_28
usemap Combined_Mesh_(root:_scene)_28
f 546/546/546 548/548/548 547/547/547
f 547/547/547 548/548/548 549/549/549
f 550/550/550 552/552/552 551/551/551
f 551/551/551 552/552/552 553/553/553
f 554/554/554 556/556/556 555/555/555
f 555/555/555 556/556/556 557/557/557
f 558/558/558 560/560/560 559/559/559
f 559/559/559 560/560/560 561/561/561
f 562/562/562 564/564/564 563/563/563
f 563/563/563 564/564/564 565/565/565
g Combined_Mesh_(root:_scene)_29
usemtl Combined_Mesh_(root:_scene)_29
usemap Combined_Mesh_(root:_scene)_29
f 566/566/566 568/568/568 567/567/567
f 567/567/567 568/568/568 569/569/569
f 570/570/570 572/572/572 571/571/571
f 571/571/571 572/572/572 573/573/573
f 574/574/574 576/576/576 575/575/575
f 575/575/575 576/576/576 577/577/577
f 578/578/578 580/580/580 579/579/579
f 579/579/579 580/580/580 581/581/581
f 582/582/582 584/584/584 583/583/583
f 583/583/583 584/584/584 585/585/585
g Combined_Mesh_(root:_scene)_30
usemtl Combined_Mesh_(root:_scene)_30
usemap Combined_Mesh_(root:_scene)_30
f 586/586/586 588/588/588 587/587/587
f 587/587/587 588/588/588 589/589/589
f 590/590/590 592/592/592 591/591/591
f 591/591/591 592/592/592 593/593/593
f 594/594/594 596/596/596 595/595/595
f 595/595/595 596/596/596 597/597/597
f 598/598/598 600/600/600 599/599/599
f 599/599/599 600/600/600 601/601/601
f 602/602/602 604/604/604 603/603/603
f 603/603/603 604/604/604 605/605/605
g Combined_Mesh_(root:_scene)_31
usemtl Combined_Mesh_(root:_scene)_31
usemap Combined_Mesh_(root:_scene)_31
f 606/606/606 608/608/608 607/607/607
f 607/607/607 608/608/608 609/609/609
f 610/610/610 612/612/612 611/611/611
f 611/611/611 612/612/612 613/613/613
f 614/614/614 616/616/616 615/615/615
f 615/615/615 616/616/616 617/617/617
f 618/618/618 620/620/620 619/619/619
f 619/619/619 620/620/620 621/621/621
f 622/622/622 624/624/624 623/623/623
f 623/623/623 624/624/624 625/625/625
g Combined_Mesh_(root:_scene)_32
usemtl Combined_Mesh_(root:_scene)_32
usemap Combined_Mesh_(root:_scene)_32
f 626/626/626 628/628/628 627/627/627
f 627/627/627 628/628/628 629/629/629
