#Combined_Mesh_(root:_scene).obj

v -1 1 10
v -2 1 10
v -1 2 10
v -2 2 10
v -2 1 10
v -2 1 8
v -2 2 10
v -2 2 8
v -2 1 8
v -1 1 8
v -2 2 8
v -1 2 8
v -1 1 8
v -1 1 10
v -1 2 8
v -1 2 10
v -1 2 10
v -2 2 10
v -1 2 8
v -2 2 8
v -1 1 8
v -2 1 8
v -1 1 10
v -2 1 10
v -5 1 9
v -7 1 9
v -5 3 9
v -7 3 9
v -7 1 9
v -7 1 7
v -7 3 9
v -7 3 7
v -7 1 7
v -5 1 7
v -7 3 7
v -5 3 7
v -5 1 7
v -5 1 9
v -5 3 7
v -5 3 9
v -5 3 9
v -7 3 9
v -5 3 7
v -7 3 7
v -5 1 7
v -7 1 7
v -5 1 9
v -7 1 9
v -1 1 16
v -3 1 16
v -1 2 16
v -3 2 16
v -3 1 16
v -3 1 14
v -3 2 16
v -3 2 14
v -3 1 14
v -1 1 14
v -3 2 14
v -1 2 14
v -1 1 14
v -1 1 16
v -1 2 14
v -1 2 16
v -1 2 16
v -3 2 16
v -1 2 14
v -3 2 14
v -1 1 14
v -3 1 14
v -1 1 16
v -3 1 16
v -1 2 16
v -2 2 16
v -1 3 16
v -2 3 16
v -2 2 16
v -2 2 15
v -2 3 16
v -2 3 15
v -2 2 15
v -1 2 15
v -2 3 15
v -1 3 15
v -1 2 15
v -1 2 16
v -1 3 15
v -1 3 16
v -1 3 16
v -2 3 16
v -1 3 15
v -2 3 15
v -1 2 15
v -2 2 15
v -1 2 16
v -2 2 16
v 2 1 13
v 2 1 11
v 2 2 13
v 2 2 11
v 4 1 11
v 4 1 13
v 4 2 11
v 4 2 13
v 4 1 13
v 4 1 11
v 2 1 13
v 2 1 11
v 2 3 13
v 2 3 11
v 3 3 13
v 3 3 11
v 4 2 11
v 4 2 13
v 3 2 13
v 3 2 11
v 2 1 11
v 4 1 11
v 3 2 11
v 4 2 11
v 2 2 11
v 4 1 13
v 2 1 13
v 3 2 13
v 2 2 13
v 4 2 13
v 2 2 13
v 2 2 11
v 2 3 13
v 2 3 11
v 3 2 13
v 2 2 13
v 3 3 13
v 2 3 13
v 2 2 11
v 3 2 11
v 2 3 11
v 3 3 11
v 3 2 11
v 3 2 13
v 3 3 11
v 3 3 13
v -3 1 12
v -4 1 12
v -3 2 12
v -4 2 12
v -4 1 12
v -4 1 11
v -4 2 12
v -4 2 11
v -4 1 11
v -3 1 11
v -4 2 11
v -3 2 11
v -3 1 11
v -3 1 12
v -3 2 11
v -3 2 12
v -3 2 12
v -4 2 12
v -3 2 11
v -4 2 11
v -3 1 11
v -4 1 11
v -3 1 12
v -4 1 12
v 8 1 10
v 7 1 10
v 8 3 10
v 7 3 10
v 7 1 10
v 7 1 9
v 7 3 10
v 7 3 9
v 7 1 9
v 8 1 9
v 7 3 9
v 8 3 9
v 8 1 9
v 8 1 10
v 8 3 9
v 8 3 10
v 8 3 10
v 7 3 10
v 8 3 9
v 7 3 9
v 8 1 9
v 7 1 9
v 8 1 10
v 7 1 10
v 19 0 17
v -28 0 17
v 19 1 17
v -28 1 17
v -28 0 3
v 19 0 3
v -28 1 3
v 19 1 3
v 19 0 3
v -28 0 3
v 19 0 17
v -28 0 17
v -28 1 3
v 19 1 3
v -28 1 16
v 19 1 16
v 19 12 17
v -28 12 17
v -28 12 16
v 19 12 16
v 20 0 3
v 20 0 17
v 20 1 16
v 20 1 17
v 20 1 3
v -28 0 17
v -28 0 3
v -28 1 16
v -28 1 3
v -28 1 17
v 19 1 17
v -28 1 17
v 19 12 17
v -28 12 17
v -28 1 17
v -28 1 16
v -28 12 17
v -28 12 16
v 19 0 3
v 19 0 17
v 20 0 3
v 20 0 17
v 19 0 17
v 19 1 17
v 20 0 17
v 20 1 17
v 19 12 17
v 19 12 16
v 20 12 17
v 20 12 16
v 19 1 3
v 19 0 3
v 20 1 3
v 20 0 3
v 19 12 16
v 19 12 3
v 20 12 16
v 20 12 3
v 19 1 16
v 19 1 3
v 19 12 16
v 19 12 3
v 19 1 3
v 20 1 3
v 19 12 3
v 20 12 3
v 20 1 3
v 20 1 16
v 20 12 3
v 20 12 16
v 20 1 17
v 19 1 17
v 20 12 17
v 19 12 17
v 20 1 16
v 20 1 17
v 20 12 16
v 20 12 17
v -28 1 16
v 19 1 16
v -28 12 16
v 19 12 16

vn 0 0 1
vn 0 0 1
vn 0 0 1
vn 0 0 1
vn -1 0 0
vn -1 0 0
vn -1 0 0
vn -1 0 0
vn 0 0 -1
vn 0 0 -1
vn 0 0 -1
vn 0 0 -1
vn 1 0 0
vn 1 0 0
vn 1 0 0
vn 1 0 0
vn 0 1 0
vn 0 1 0
vn 0 1 0
vn 0 1 0
vn 0 -1 0
vn 0 -1 0
vn 0 -1 0
vn 0 -1 0
vn 0 0 1
vn 0 0 1
vn 0 0 1
vn 0 0 1
vn -1 0 0
vn -1 0 0
vn -1 0 0
vn -1 0 0
vn 0 0 -1
vn 0 0 -1
vn 0 0 -1
vn 0 0 -1
vn 1 0 0
vn 1 0 0
vn 1 0 0
vn 1 0 0
vn 0 1 0
vn 0 1 0
vn 0 1 0
vn 0 1 0
vn 0 -1 0
vn 0 -1 0
vn 0 -1 0
vn 0 -1 0
vn 0 0 1
vn 0 0 1
vn 0 0 1
vn 0 0 1
vn -1 0 0
vn -1 0 0
vn -1 0 0
vn -1 0 0
vn 0 0 -1
vn 0 0 -1
vn 0 0 -1
vn 0 0 -1
vn 1 0 0
vn 1 0 0
vn 1 0 0
vn 1 0 0
vn 0 1 0
vn 0 1 0
vn 0 1 0
vn 0 1 0
vn 0 -1 0
vn 0 -1 0
vn 0 -1 0
vn 0 -1 0
vn 0 0 1
vn 0 0 1
vn 0 0 1
vn 0 0 1
vn -1 0 0
vn -1 0 0
vn -1 0 0
vn -1 0 0
vn 0 0 -1
vn 0 0 -1
vn 0 0 -1
vn 0 0 -1
vn 1 0 0
vn 1 0 0
vn 1 0 0
vn 1 0 0
vn 0 1 0
vn 0 1 0
vn 0 1 0
vn 0 1 0
vn 0 -1 0
vn 0 -1 0
vn 0 -1 0
vn 0 -1 0
vn -1 0 3.576279E-07
vn -1 0 3.576279E-07
vn -1 0 3.576279E-07
vn -1 0 3.576279E-07
vn 1 0 -3.576279E-07
vn 1 0 -3.576279E-07
vn 1 0 -3.576279E-07
vn 1 0 -3.576279E-07
vn 0 -1 0
vn 0 -1 0
vn 0 -1 0
vn 0 -1 0
vn 0 1 0
vn 0 1 0
vn 0 1 0
vn 0 1 0
vn 0 1 0
vn 0 1 0
vn 0 1 0
vn 0 1 0
vn -3.576279E-07 0 -1
vn -3.576279E-07 0 -1
vn -3.576279E-07 0 -1
vn -3.576279E-07 0 -1
vn -3.576279E-07 0 -1
vn 3.576279E-07 0 1
vn 3.576279E-07 0 1
vn 3.576279E-07 0 1
vn 3.576279E-07 0 1
vn 3.576279E-07 0 1
vn -1 0 3.576279E-07
vn -1 0 3.576279E-07
vn -1 0 3.576279E-07
vn -1 0 3.576279E-07
vn 3.576279E-07 0 1
vn 3.576279E-07 0 1
vn 3.576279E-07 0 1
vn 3.576279E-07 0 1
vn -3.576279E-07 0 -1
vn -3.576279E-07 0 -1
vn -3.576279E-07 0 -1
vn -3.576279E-07 0 -1
vn 1 0 -3.576279E-07
vn 1 0 -3.576279E-07
vn 1 0 -3.576279E-07
vn 1 0 -3.576279E-07
vn 0 0 1
vn 0 0 1
vn 0 0 1
vn 0 0 1
vn -1 0 0
vn -1 0 0
vn -1 0 0
vn -1 0 0
vn 0 0 -1
vn 0 0 -1
vn 0 0 -1
vn 0 0 -1
vn 1 0 0
vn 1 0 0
vn 1 0 0
vn 1 0 0
vn 0 1 0
vn 0 1 0
vn 0 1 0
vn 0 1 0
vn 0 -1 0
vn 0 -1 0
vn 0 -1 0
vn 0 -1 0
vn 0 0 1
vn 0 0 1
vn 0 0 1
vn 0 0 1
vn -1 0 0
vn -1 0 0
vn -1 0 0
vn -1 0 0
vn 0 0 -1
vn 0 0 -1
vn 0 0 -1
vn 0 0 -1
vn 1 0 0
vn 1 0 0
vn 1 0 0
vn 1 0 0
vn 0 1 0
vn 0 1 0
vn 0 1 0
vn 0 1 0
vn 0 -1 0
vn 0 -1 0
vn 0 -1 0
vn 0 -1 0
vn 0 0 0.9999999
vn 0 0 0.9999999
vn 0 0 0.9999999
vn 0 0 0.9999999
vn 0 0 -0.9999999
vn 0 0 -0.9999999
vn 0 0 -0.9999999
vn 0 0 -0.9999999
vn 0 -1 0
vn 0 -1 0
vn 0 -1 0
vn 0 -1 0
vn 0 1 0
vn 0 1 0
vn 0 1 0
vn 0 1 0
vn 0 0.9999999 0
vn 0 0.9999999 0
vn 0 0.9999999 0
vn 0 0.9999999 0
vn 1 0 0
vn 1 0 0
vn 1 0 0
vn 1 0 0
vn 1 0 0
vn -1 0 0
vn -1 0 0
vn -1 0 0
vn -1 0 0
vn -1 0 0
vn 0 0 1
vn 0 0 1
vn 0 0 1
vn 0 0 1
vn -1 0 0
vn -1 0 0
vn -1 0 0
vn -1 0 0
vn 0 -1 0
vn 0 -1 0
vn 0 -1 0
vn 0 -1 0
vn 0 0 1
vn 0 0 1
vn 0 0 1
vn 0 0 1
vn 0 1 0
vn 0 1 0
vn 0 1 0
vn 0 1 0
vn 0 0 -1
vn 0 0 -1
vn 0 0 -1
vn 0 0 -1
vn 0 1 0
vn 0 1 0
vn 0 1 0
vn 0 1 0
vn -1 0 0
vn -1 0 0
vn -1 0 0
vn -1 0 0
vn 0 0 -1
vn 0 0 -1
vn 0 0 -1
vn 0 0 -1
vn 1 0 0
vn 1 0 0
vn 1 0 0
vn 1 0 0
vn 0 0 1
vn 0 0 1
vn 0 0 1
vn 0 0 1
vn 1 0 0
vn 1 0 0
vn 1 0 0
vn 1 0 0
vn 0 0 -1
vn 0 0 -1
vn 0 0 -1
vn 0 0 -1

vt 1 0
vt 0 0
vt 1 1
vt 0 1
vt 2 0
vt 0 0
vt 2 1
vt 0 1
vt 1 0
vt 0 0
vt 1 1
vt 0 1
vt 2 0
vt 0 0
vt 2 1
vt 0 1
vt 0 2
vt 1 2
vt 0 0
vt 1 0
vt 1 0
vt 0 0
vt 1 2
vt 0 2
vt 2 0
vt 0 0
vt 2 2
vt 0 2
vt 2 0
vt 0 0
vt 2 2
vt 0 2
vt 2 0
vt 0 0
vt 2 2
vt 0 2
vt 2 0
vt 0 0
vt 2 2
vt 0 2
vt 0 2
vt 2 2
vt 0 0
vt 2 0
vt 2 0
vt 0 0
vt 2 2
vt 0 2
vt 2 0
vt 0 0
vt 2 1
vt 0 1
vt 2 0
vt 0 0
vt 2 1
vt 0 1
vt 2 0
vt 0 0
vt 2 1
vt 0 1
vt 2 0
vt 0 0
vt 2 1
vt 0 1
vt 0 2
vt 2 2
vt 0 0
vt 2 0
vt 2 0
vt 0 0
vt 2 2
vt 0 2
vt 1 0
vt 0 0
vt 1 1
vt 0 1
vt 1 0
vt 0 0
vt 1 1
vt 0 1
vt 1 0
vt 0 0
vt 1 1
vt 0 1
vt 1 0
vt 0 0
vt 1 1
vt 0 1
vt 0 1
vt 1 1
vt 0 0
vt 1 0
vt 1 0
vt 0 0
vt 1 1
vt 0 1
vt 2 0
vt 0 0
vt 2 1
vt 0 1
vt 2 0
vt 0 0
vt 2 1
vt 0 1
vt 2 0
vt 0 0
vt 2 2
vt 0 2
vt 0 1
vt 2 1
vt 0 0
vt 2 0
vt 2 0
vt 0 0
vt 0 1
vt 2 1
vt 2 0
vt 0 0
vt 1 1
vt 0 1
vt 2 1
vt 2 0
vt 0 0
vt 1 1
vt 0 1
vt 2 1
vt 2 0
vt 0 0
vt 2 1
vt 0 1
vt 1 0
vt 0 0
vt 1 1
vt 0 1
vt 1 0
vt 0 0
vt 1 1
vt 0 1
vt 2 0
vt 0 0
vt 2 1
vt 0 1
vt 1 0
vt 0 0
vt 1 1
vt 0 1
vt 1 0
vt 0 0
vt 1 1
vt 0 1
vt 1 0
vt 0 0
vt 1 1
vt 0 1
vt 1 0
vt 0 0
vt 1 1
vt 0 1
vt 0 1
vt 1 1
vt 0 0
vt 1 0
vt 1 0
vt 0 0
vt 1 1
vt 0 1
vt 1 0
vt 0 0
vt 1 2
vt 0 2
vt 1 0
vt 0 0
vt 1 2
vt 0 2
vt 1 0
vt 0 0
vt 1 2
vt 0 2
vt 1 0
vt 0 0
vt 1 2
vt 0 2
vt 0 1
vt 1 1
vt 0 0
vt 1 0
vt 1 0
vt 0 0
vt 1 1
vt 0 1
vt 47 0
vt 0 0
vt 47 1
vt 0 1
vt 47 0
vt 0 0
vt 47 1
vt 0 1
vt 47 0
vt 0 0
vt 47 14
vt 0 14
vt 47 0
vt 0 0
vt 47 13
vt 0 13
vt 0 1
vt 47 1
vt 47 0
vt 0 0
vt 14 0
vt 0 0
vt 1 1
vt 0 1
vt 14 1
vt 14 0
vt 0 0
vt 13 1
vt 0 1
vt 14 1
vt 47 0
vt 0 0
vt 47 11
vt 0 11
vt 1 0
vt 0 0
vt 1 11
vt 0 11
vt 0 0
vt 0 14
vt 1 0
vt 1 14
vt 0 0
vt 0 1
vt 1 0
vt 1 1
vt 1 1
vt 1 0
vt 0 1
vt 0 0
vt 1 1
vt 1 0
vt 0 1
vt 0 0
vt 1 13
vt 1 0
vt 0 13
vt 0 0
vt 13 0
vt 0 0
vt 13 11
vt 0 11
vt 1 0
vt 0 0
vt 1 11
vt 0 11
vt 13 0
vt 0 0
vt 13 11
vt 0 11
vt 1 0
vt 0 0
vt 1 11
vt 0 11
vt 1 0
vt 0 0
vt 1 11
vt 0 11
vt 47 0
vt 0 0
vt 47 11
vt 0 11

g Combined_Mesh_(root:_scene)
usemtl Combined_Mesh_(root:_scene)
usemap Combined_Mesh_(root:_scene)
f 1/1/1 3/3/3 2/2/2
f 2/2/2 3/3/3 4/4/4
f 5/5/5 7/7/7 6/6/6
f 6/6/6 7/7/7 8/8/8
f 9/9/9 11/11/11 10/10/10
f 10/10/10 11/11/11 12/12/12
f 13/13/13 15/15/15 14/14/14
f 14/14/14 15/15/15 16/16/16
f 17/17/17 19/19/19 18/18/18
f 18/18/18 19/19/19 20/20/20
f 21/21/21 23/23/23 22/22/22
f 22/22/22 23/23/23 24/24/24
g Combined_Mesh_(root:_scene)_1
usemtl Combined_Mesh_(root:_scene)_1
usemap Combined_Mesh_(root:_scene)_1
f 25/25/25 27/27/27 26/26/26
f 26/26/26 27/27/27 28/28/28
f 29/29/29 31/31/31 30/30/30
f 30/30/30 31/31/31 32/32/32
f 33/33/33 35/35/35 34/34/34
f 34/34/34 35/35/35 36/36/36
f 37/37/37 39/39/39 38/38/38
f 38/38/38 39/39/39 40/40/40
f 41/41/41 43/43/43 42/42/42
f 42/42/42 43/43/43 44/44/44
f 45/45/45 47/47/47 46/46/46
f 46/46/46 47/47/47 48/48/48
g Combined_Mesh_(root:_scene)_2
usemtl Combined_Mesh_(root:_scene)_2
usemap Combined_Mesh_(root:_scene)_2
f 49/49/49 51/51/51 50/50/50
f 50/50/50 51/51/51 52/52/52
f 53/53/53 55/55/55 54/54/54
f 54/54/54 55/55/55 56/56/56
f 57/57/57 59/59/59 58/58/58
f 58/58/58 59/59/59 60/60/60
f 61/61/61 63/63/63 62/62/62
f 62/62/62 63/63/63 64/64/64
f 65/65/65 67/67/67 66/66/66
f 66/66/66 67/67/67 68/68/68
f 69/69/69 71/71/71 70/70/70
f 70/70/70 71/71/71 72/72/72
g Combined_Mesh_(root:_scene)_3
usemtl Combined_Mesh_(root:_scene)_3
usemap Combined_Mesh_(root:_scene)_3
f 73/73/73 75/75/75 74/74/74
f 74/74/74 75/75/75 76/76/76
f 77/77/77 79/79/79 78/78/78
f 78/78/78 79/79/79 80/80/80
f 81/81/81 83/83/83 82/82/82
f 82/82/82 83/83/83 84/84/84
f 85/85/85 87/87/87 86/86/86
f 86/86/86 87/87/87 88/88/88
f 89/89/89 91/91/91 90/90/90
f 90/90/90 91/91/91 92/92/92
f 93/93/93 95/95/95 94/94/94
f 94/94/94 95/95/95 96/96/96
g Combined_Mesh_(root:_scene)_4
usemtl Combined_Mesh_(root:_scene)_4
usemap Combined_Mesh_(root:_scene)_4
f 97/97/97 99/99/99 98/98/98
f 98/98/98 99/99/99 100/100/100
f 101/101/101 103/103/103 102/102/102
f 102/102/102 103/103/103 104/104/104
f 105/105/105 107/107/107 106/106/106
f 106/106/106 107/107/107 108/108/108
f 109/109/109 111/111/111 110/110/110
f 110/110/110 111/111/111 112/112/112
f 113/113/113 115/115/115 114/114/114
f 116/116/116 115/115/115 113/113/113
f 117/117/117 119/119/119 118/118/118
f 118/118/118 119/119/119 120/120/120
f 121/121/121 119/119/119 117/117/117
f 122/122/122 124/124/124 123/123/123
f 123/123/123 124/124/124 125/125/125
f 126/126/126 124/124/124 122/122/122
f 127/127/127 129/129/129 128/128/128
f 128/128/128 129/129/129 130/130/130
f 131/131/131 133/133/133 132/132/132
f 132/132/132 133/133/133 134/134/134
f 135/135/135 137/137/137 136/136/136
f 136/136/136 137/137/137 138/138/138
f 139/139/139 141/141/141 140/140/140
f 140/140/140 141/141/141 142/142/142
g Combined_Mesh_(root:_scene)_5
usemtl Combined_Mesh_(root:_scene)_5
usemap Combined_Mesh_(root:_scene)_5
f 143/143/143 145/145/145 144/144/144
f 144/144/144 145/145/145 146/146/146
f 147/147/147 149/149/149 148/148/148
f 148/148/148 149/149/149 150/150/150
f 151/151/151 153/153/153 152/152/152
f 152/152/152 153/153/153 154/154/154
f 155/155/155 157/157/157 156/156/156
f 156/156/156 157/157/157 158/158/158
f 159/159/159 161/161/161 160/160/160
f 160/160/160 161/161/161 162/162/162
f 163/163/163 165/165/165 164/164/164
f 164/164/164 165/165/165 166/166/166
g Combined_Mesh_(root:_scene)_6
usemtl Combined_Mesh_(root:_scene)_6
usemap Combined_Mesh_(root:_scene)_6
f 167/167/167 169/169/169 168/168/168
f 168/168/168 169/169/169 170/170/170
f 171/171/171 173/173/173 172/172/172
f 172/172/172 173/173/173 174/174/174
f 175/175/175 177/177/177 176/176/176
f 176/176/176 177/177/177 178/178/178
f 179/179/179 181/181/181 180/180/180
f 180/180/180 181/181/181 182/182/182
f 183/183/183 185/185/185 184/184/184
f 184/184/184 185/185/185 186/186/186
f 187/187/187 189/189/189 188/188/188
f 188/188/188 189/189/189 190/190/190
g Combined_Mesh_(root:_scene)_7
usemtl Combined_Mesh_(root:_scene)_7
usemap Combined_Mesh_(root:_scene)_7
f 191/191/191 193/193/193 192/192/192
f 192/192/192 193/193/193 194/194/194
f 195/195/195 197/197/197 196/196/196
f 196/196/196 197/197/197 198/198/198
f 199/199/199 201/201/201 200/200/200
f 200/200/200 201/201/201 202/202/202
f 203/203/203 205/205/205 204/204/204
f 204/204/204 205/205/205 206/206/206
f 207/207/207 209/209/209 208/208/208
f 210/210/210 209/209/209 207/207/207
f 211/211/211 213/213/213 212/212/212
f 212/212/212 213/213/213 214/214/214
f 215/215/215 213/213/213 211/211/211
f 216/216/216 218/218/218 217/217/217
f 217/217/217 218/218/218 219/219/219
f 220/220/220 218/218/218 216/216/216
f 221/221/221 223/223/223 222/222/222
f 222/222/222 223/223/223 224/224/224
f 225/225/225 227/227/227 226/226/226
f 226/226/226 227/227/227 228/228/228
f 229/229/229 231/231/231 230/230/230
f 230/230/230 231/231/231 232/232/232
f 233/233/233 235/235/235 234/234/234
f 234/234/234 235/235/235 236/236/236
f 237/237/237 239/239/239 238/238/238
f 238/238/238 239/239/239 240/240/240
f 241/241/241 243/243/243 242/242/242
f 242/242/242 243/243/243 244/244/244
f 245/245/245 247/247/247 246/246/246
f 246/246/246 247/247/247 248/248/248
f 249/249/249 251/251/251 250/250/250
f 250/250/250 251/251/251 252/252/252
f 253/253/253 255/255/255 254/254/254
f 254/254/254 255/255/255 256/256/256
f 257/257/257 259/259/259 258/258/258
f 258/258/258 259/259/259 260/260/260
f 261/261/261 263/263/263 262/262/262
f 262/262/262 263/263/263 264/264/264
f 265/265/265 267/267/267 266/266/266
f 266/266/266 267/267/267 268/268/268
g Combined_Mesh_(root:_scene)_8
usemtl Combined_Mesh_(root:_scene)_8
usemap Combined_Mesh_(root:_scene)_8
f 269/269/269 271/271/271 270/270/270
f 270/270/270 271/271/271 272/272/272
