#Combined_Mesh_(root:_scene).obj

v 0.5 0 -17.5
v -8.5 0 -17.5
v 0.5 1 -17.5
v -8.5 1 -17.5
v -8.5 0 -17.5
v -8.5 0 -43.5
v -8.5 1 -17.5
v -8.5 1 -43.5
v -8.5 0 -43.5
v 0.5 0 -43.5
v -8.5 1 -43.5
v 0.5 1 -43.5
v 0.5 0 -43.5
v 0.5 0 -17.5
v 0.5 1 -43.5
v 0.5 1 -17.5
v 0.5 1 -17.5
v -8.5 1 -17.5
v 0.5 1 -43.5
v -8.5 1 -43.5
v 0.5 0 -43.5
v -8.5 0 -43.5
v 0.5 0 -17.5
v -8.5 0 -17.5
v 0.5 0 2.5
v -8.5 0 2.5
v 0.5 1 2.5
v -8.5 1 2.5
v -8.5 0 2.5
v -8.5 0 -10.5
v -8.5 1 2.5
v -8.5 1 -10.5
v -8.5 0 -10.5
v 0.5 0 -10.5
v -8.5 1 -10.5
v 0.5 1 -10.5
v 0.5 0 -10.5
v 0.5 0 2.5
v 0.5 1 -10.5
v 0.5 1 2.5
v 0.5 1 2.5
v -8.5 1 2.5
v 0.5 1 -10.5
v -8.5 1 -10.5
v 0.5 0 -10.5
v -8.5 0 -10.5
v 0.5 0 2.5
v -8.5 0 2.5
v 0.5 0 -10.5
v -8.5 0 -10.5
v 0.5 1 -10.5
v -8.5 1 -10.5
v -8.5 0 -10.5
v -8.5 0 -17.5
v -8.5 1 -10.5
v -8.5 1 -17.5
v -8.5 0 -17.5
v 0.5 0 -17.5
v -8.5 1 -17.5
v 0.5 1 -17.5
v 0.5 0 -17.5
v 0.5 0 -10.5
v 0.5 1 -17.5
v 0.5 1 -10.5
v 0.5 1 -10.5
v -8.5 1 -10.5
v 0.5 1 -17.5
v -8.5 1 -17.5
v 0.5 0 -17.5
v -8.5 0 -17.5
v 0.5 0 -10.5
v -8.5 0 -10.5
v 0.5 0 -57.5
v -8.5 0 -57.5
v 0.5 1 -57.5
v -8.5 1 -57.5
v -8.5 0 -57.5
v -8.5 0 -83.5
v -8.5 1 -57.5
v -8.5 1 -83.5
v -8.5 0 -83.5
v 0.5 0 -83.5
v -8.5 1 -83.5
v 0.5 1 -83.5
v 0.5 0 -83.5
v 0.5 0 -57.5
v 0.5 1 -83.5
v 0.5 1 -57.5
v 0.5 1 -57.5
v -8.5 1 -57.5
v 0.5 1 -83.5
v -8.5 1 -83.5
v 0.5 0 -83.5
v -8.5 0 -83.5
v 0.5 0 -57.5
v -8.5 0 -57.5
v 0.5 0 -94.5
v -8.5 0 -94.5
v 0.5 1 -94.5
v -8.5 1 -94.5
v -8.5 0 -94.5
v -8.5 0 -104.5
v -8.5 1 -94.5
v -8.5 1 -104.5
v -8.5 0 -104.5
v 0.5 0 -104.5
v -8.5 1 -104.5
v 0.5 1 -104.5
v 0.5 0 -104.5
v 0.5 0 -94.5
v 0.5 1 -104.5
v 0.5 1 -94.5
v 0.5 1 -94.5
v -8.5 1 -94.5
v 0.5 1 -104.5
v -8.5 1 -104.5
v 0.5 0 -104.5
v -8.5 0 -104.5
v 0.5 0 -94.5
v -8.5 0 -94.5
v -14.5 0 2.5
v -23.5 0 2.5
v -14.5 1 2.5
v -23.5 1 2.5
v -23.5 0 2.5
v -23.5 0 -104.5
v -23.5 1 2.5
v -23.5 1 -104.5
v -23.5 0 -104.5
v -14.5 0 -104.5
v -23.5 1 -104.5
v -14.5 1 -104.5
v -14.5 0 -104.5
v -14.5 0 2.5
v -14.5 1 -104.5
v -14.5 1 2.5
v -14.5 1 2.5
v -23.5 1 2.5
v -14.5 1 -104.5
v -23.5 1 -104.5
v -14.5 0 -104.5
v -23.5 0 -104.5
v -14.5 0 2.5
v -23.5 0 2.5
v 5.5 9.75 8.5
v -28.5 9.75 8.5
v -28.5 -4 8.5
v 5.5 -4 8.5
v -28.5 9.75 8.5
v -28.5 9.75 -114.5
v -28.5 -4 -114.5
v -28.5 -4 8.5
v -28.5 9.75 -114.5
v 5.5 9.75 -114.5
v 5.5 -4 -114.5
v -28.5 -4 -114.5
v 5.5 9.75 -114.5
v 5.5 9.75 8.5
v 5.5 -4 8.5
v 5.5 -4 -114.5
v 5.5 -4 8.5
v -28.5 -4 8.5
v -28.5 -4 -114.5
v 5.5 -4 -114.5

vn 0 0 1
vn 0 0 1
vn 0 0 1
vn 0 0 1
vn -1 0 0
vn -1 0 0
vn -1 0 0
vn -1 0 0
vn 0 0 -1
vn 0 0 -1
vn 0 0 -1
vn 0 0 -1
vn 1 0 0
vn 1 0 0
vn 1 0 0
vn 1 0 0
vn 0 1 0
vn 0 1 0
vn 0 1 0
vn 0 1 0
vn 0 -1 0
vn 0 -1 0
vn 0 -1 0
vn 0 -1 0
vn 0 0 1
vn 0 0 1
vn 0 0 1
vn 0 0 1
vn -1 0 0
vn -1 0 0
vn -1 0 0
vn -1 0 0
vn 0 0 -1
vn 0 0 -1
vn 0 0 -1
vn 0 0 -1
vn 1 0 0
vn 1 0 0
vn 1 0 0
vn 1 0 0
vn 0 1 0
vn 0 1 0
vn 0 1 0
vn 0 1 0
vn 0 -1 0
vn 0 -1 0
vn 0 -1 0
vn 0 -1 0
vn 0 0 1
vn 0 0 1
vn 0 0 1
vn 0 0 1
vn -1 0 0
vn -1 0 0
vn -1 0 0
vn -1 0 0
vn 0 0 -1
vn 0 0 -1
vn 0 0 -1
vn 0 0 -1
vn 1 0 0
vn 1 0 0
vn 1 0 0
vn 1 0 0
vn 0 1 0
vn 0 1 0
vn 0 1 0
vn 0 1 0
vn 0 -1 0
vn 0 -1 0
vn 0 -1 0
vn 0 -1 0
vn 0 0 1
vn 0 0 1
vn 0 0 1
vn 0 0 1
vn -1 0 0
vn -1 0 0
vn -1 0 0
vn -1 0 0
vn 0 0 -1
vn 0 0 -1
vn 0 0 -1
vn 0 0 -1
vn 1 0 0
vn 1 0 0
vn 1 0 0
vn 1 0 0
vn 0 1 0
vn 0 1 0
vn 0 1 0
vn 0 1 0
vn 0 -1 0
vn 0 -1 0
vn 0 -1 0
vn 0 -1 0
vn 0 0 1
vn 0 0 1
vn 0 0 1
vn 0 0 1
vn -1 0 0
vn -1 0 0
vn -1 0 0
vn -1 0 0
vn 0 0 -1
vn 0 0 -1
vn 0 0 -1
vn 0 0 -1
vn 1 0 0
vn 1 0 0
vn 1 0 0
vn 1 0 0
vn 0 1 0
vn 0 1 0
vn 0 1 0
vn 0 1 0
vn 0 -1 0
vn 0 -1 0
vn 0 -1 0
vn 0 -1 0
vn 0 0 1
vn 0 0 1
vn 0 0 1
vn 0 0 1
vn -0.9999999 0 0
vn -0.9999999 0 0
vn -0.9999999 0 0
vn -0.9999999 0 0
vn 0 0 -1
vn 0 0 -1
vn 0 0 -1
vn 0 0 -1
vn 0.9999999 0 0
vn 0.9999999 0 0
vn 0.9999999 0 0
vn 0.9999999 0 0
vn 0 1 0
vn 0 1 0
vn 0 1 0
vn 0 1 0
vn 0 -1 0
vn 0 -1 0
vn 0 -1 0
vn 0 -1 0
vn 0 0 -1
vn 0 0 -1
vn 0 0 -1
vn 0 0 -1
vn 1 0 0
vn 1 0 0
vn 1 0 0
vn 1 0 0
vn 0 0 1
vn 0 0 1
vn 0 0 1
vn 0 0 1
vn -1 0 0
vn -1 0 0
vn -1 0 0
vn -1 0 0
vn 0 1 0
vn 0 1 0
vn 0 1 0
vn 0 1 0

vt 9 0
vt 0 0
vt 9 1
vt 0 1
vt 26 0
vt 0 0
vt 26 1
vt 0 1
vt 9 0
vt 0 0
vt 9 1
vt 0 1
vt 26 0
vt 0 0
vt 26 1
vt 0 1
vt 0 26
vt 9 26
vt 0 0
vt 9 0
vt 9 0
vt 0 0
vt 9 26
vt 0 26
vt 9 0
vt 0 0
vt 9 1
vt 0 1
vt 13 0
vt 0 0
vt 13 1
vt 0 1
vt 9 0
vt 0 0
vt 9 1
vt 0 1
vt 13 0
vt 0 0
vt 13 1
vt 0 1
vt 0 13
vt 9 13
vt 0 0
vt 9 0
vt 9 0
vt 0 0
vt 9 13
vt 0 13
vt 9 0
vt 0 0
vt 9 1
vt 0 1
vt 7 0
vt 0 0
vt 7 1
vt 0 1
vt 9 0
vt 0 0
vt 9 1
vt 0 1
vt 7 0
vt 0 0
vt 7 1
vt 0 1
vt 0 7
vt 9 7
vt 0 0
vt 9 0
vt 9 0
vt 0 0
vt 9 7
vt 0 7
vt 9 0
vt 0 0
vt 9 1
vt 0 1
vt 26 0
vt 0 0
vt 26 1
vt 0 1
vt 9 0
vt 0 0
vt 9 1
vt 0 1
vt 26 0
vt 0 0
vt 26 1
vt 0 1
vt 0 26
vt 9 26
vt 0 0
vt 9 0
vt 9 0
vt 0 0
vt 9 26
vt 0 26
vt 9 0
vt 0 0
vt 9 1
vt 0 1
vt 10 0
vt 0 0
vt 10 1
vt 0 1
vt 9 0
vt 0 0
vt 9 1
vt 0 1
vt 10 0
vt 0 0
vt 10 1
vt 0 1
vt 0 10
vt 9 10
vt 0 0
vt 9 0
vt 9 0
vt 0 0
vt 9 10
vt 0 10
vt 9 0
vt 0 0
vt 9 1
vt 0 1
vt 107 0
vt 0 0
vt 107 1
vt 0 1
vt 9 0
vt 0 0
vt 9 1
vt 0 1
vt 107 0
vt 0 0
vt 107 1
vt 0 1
vt 0 107
vt 9 107
vt 0 0
vt 9 0
vt 9 0
vt 0 0
vt 9 107
vt 0 107
vt 0 13.75
vt 34 13.75
vt 34 0
vt 0 0
vt 0 13.75
vt 123 13.75
vt 123 0
vt 0 0
vt 0 13.75
vt 34 13.75
vt 34 0
vt 0 0
vt 0 13.75
vt 123 13.75
vt 123 0
vt 0 0
vt 0 123
vt 34 123
vt 34 0
vt 0 0

g Combined_Mesh_(root:_scene)
usemtl Combined_Mesh_(root:_scene)
usemap Combined_Mesh_(root:_scene)
f 1/1/1 3/3/3 2/2/2
f 2/2/2 3/3/3 4/4/4
f 5/5/5 7/7/7 6/6/6
f 6/6/6 7/7/7 8/8/8
f 9/9/9 11/11/11 10/10/10
f 10/10/10 11/11/11 12/12/12
f 13/13/13 15/15/15 14/14/14
f 14/14/14 15/15/15 16/16/16
f 17/17/17 19/19/19 18/18/18
f 18/18/18 19/19/19 20/20/20
f 21/21/21 23/23/23 22/22/22
f 22/22/22 23/23/23 24/24/24
g Combined_Mesh_(root:_scene)_1
usemtl Combined_Mesh_(root:_scene)_1
usemap Combined_Mesh_(root:_scene)_1
f 25/25/25 27/27/27 26/26/26
f 26/26/26 27/27/27 28/28/28
f 29/29/29 31/31/31 30/30/30
f 30/30/30 31/31/31 32/32/32
f 33/33/33 35/35/35 34/34/34
f 34/34/34 35/35/35 36/36/36
f 37/37/37 39/39/39 38/38/38
f 38/38/38 39/39/39 40/40/40
f 41/41/41 43/43/43 42/42/42
f 42/42/42 43/43/43 44/44/44
f 45/45/45 47/47/47 46/46/46
f 46/46/46 47/47/47 48/48/48
g Combined_Mesh_(root:_scene)_2
usemtl Combined_Mesh_(root:_scene)_2
usemap Combined_Mesh_(root:_scene)_2
f 49/49/49 51/51/51 50/50/50
f 50/50/50 51/51/51 52/52/52
f 53/53/53 55/55/55 54/54/54
f 54/54/54 55/55/55 56/56/56
f 57/57/57 59/59/59 58/58/58
f 58/58/58 59/59/59 60/60/60
f 61/61/61 63/63/63 62/62/62
f 62/62/62 63/63/63 64/64/64
f 65/65/65 67/67/67 66/66/66
f 66/66/66 67/67/67 68/68/68
f 69/69/69 71/71/71 70/70/70
f 70/70/70 71/71/71 72/72/72
g Combined_Mesh_(root:_scene)_3
usemtl Combined_Mesh_(root:_scene)_3
usemap Combined_Mesh_(root:_scene)_3
f 73/73/73 75/75/75 74/74/74
f 74/74/74 75/75/75 76/76/76
f 77/77/77 79/79/79 78/78/78
f 78/78/78 79/79/79 80/80/80
f 81/81/81 83/83/83 82/82/82
f 82/82/82 83/83/83 84/84/84
f 85/85/85 87/87/87 86/86/86
f 86/86/86 87/87/87 88/88/88
f 89/89/89 91/91/91 90/90/90
f 90/90/90 91/91/91 92/92/92
f 93/93/93 95/95/95 94/94/94
f 94/94/94 95/95/95 96/96/96
g Combined_Mesh_(root:_scene)_4
usemtl Combined_Mesh_(root:_scene)_4
usemap Combined_Mesh_(root:_scene)_4
f 97/97/97 99/99/99 98/98/98
f 98/98/98 99/99/99 100/100/100
f 101/101/101 103/103/103 102/102/102
f 102/102/102 103/103/103 104/104/104
f 105/105/105 107/107/107 106/106/106
f 106/106/106 107/107/107 108/108/108
f 109/109/109 111/111/111 110/110/110
f 110/110/110 111/111/111 112/112/112
f 113/113/113 115/115/115 114/114/114
f 114/114/114 115/115/115 116/116/116
f 117/117/117 119/119/119 118/118/118
f 118/118/118 119/119/119 120/120/120
g Combined_Mesh_(root:_scene)_5
usemtl Combined_Mesh_(root:_scene)_5
usemap Combined_Mesh_(root:_scene)_5
f 121/121/121 123/123/123 122/122/122
f 122/122/122 123/123/123 124/124/124
f 125/125/125 127/127/127 126/126/126
f 126/126/126 127/127/127 128/128/128
f 129/129/129 131/131/131 130/130/130
f 130/130/130 131/131/131 132/132/132
f 133/133/133 135/135/135 134/134/134
f 134/134/134 135/135/135 136/136/136
f 137/137/137 139/139/139 138/138/138
f 138/138/138 139/139/139 140/140/140
f 141/141/141 143/143/143 142/142/142
f 142/142/142 143/143/143 144/144/144
g Combined_Mesh_(root:_scene)_6
usemtl Combined_Mesh_(root:_scene)_6
usemap Combined_Mesh_(root:_scene)_6
f 145/145/145 147/147/147 146/146/146
f 145/145/145 148/148/148 147/147/147
f 149/149/149 151/151/151 150/150/150
f 149/149/149 152/152/152 151/151/151
f 153/153/153 155/155/155 154/154/154
f 153/153/153 156/156/156 155/155/155
f 157/157/157 159/159/159 158/158/158
f 157/157/157 160/160/160 159/159/159
f 161/161/161 163/163/163 162/162/162
f 161/161/161 164/164/164 163/163/163
