#Combined_Mesh_(root:_scene).obj

v 1 0 -10
v -1 0 -10
v 1 2 -10
v -1 2 -10
v -1 0 -10
v -1 0 -12
v -1 2 -10
v -1 2 -12
v -1 0 -12
v 1 0 -12
v -1 2 -12
v 1 2 -12
v 1 0 -12
v 1 0 -10
v 1 2 -12
v 1 2 -10
v 1 2 -10
v -1 2 -10
v 1 2 -12
v -1 2 -12
v 1 0 -12
v -1 0 -12
v 1 0 -10
v -1 0 -10
v -8 0 -8
v -10 0 -8
v -8 2 -8
v -10 2 -8
v -10 0 -8
v -10 0 -10
v -10 2 -8
v -10 2 -10
v -10 0 -10
v -8 0 -10
v -10 2 -10
v -8 2 -10
v -8 0 -10
v -8 0 -8
v -8 2 -10
v -8 2 -8
v -8 2 -8
v -10 2 -8
v -8 2 -10
v -10 2 -10
v 1 0 7
v -1 0 7
v 1 2 7
v -1 2 7
v -1 0 7
v -1 0 5
v -1 2 7
v -1 2 5
v -1 0 5
v 1 0 5
v -1 2 5
v 1 2 5
v 1 0 5
v 1 0 7
v 1 2 5
v 1 2 7
v 1 2 7
v -1 2 7
v 1 2 5
v -1 2 5
v 1 0 5
v -1 0 5
v 1 0 7
v -1 0 7
v -18 0 5
v -20 0 5
v -18 2 5
v -20 2 5
v -20 0 5
v -20 0 3
v -20 2 5
v -20 2 3
v -20 0 3
v -18 0 3
v -20 2 3
v -18 2 3
v -18 0 3
v -18 0 5
v -18 2 3
v -18 2 5
v -18 2 5
v -20 2 5
v -18 2 3
v -20 2 3
v -18 0 3
v -20 0 3
v -18 0 5
v -20 0 5
v -18 0 -8
v -20 0 -8
v -18 2 -8
v -20 2 -8
v -20 0 -8
v -20 0 -10
v -20 2 -8
v -20 2 -10
v -20 0 -10
v -18 0 -10
v -20 2 -10
v -18 2 -10
v -18 0 -10
v -18 0 -8
v -18 2 -10
v -18 2 -8
v -18 2 -8
v -20 2 -8
v -18 2 -10
v -20 2 -10
v -18 0 -10
v -20 0 -10
v -18 0 -8
v -20 0 -8
v -8 0 5
v -10 0 5
v -8 2 5
v -10 2 5
v -10 0 5
v -10 0 3
v -10 2 5
v -10 2 3
v -10 0 3
v -8 0 3
v -10 2 3
v -8 2 3
v -8 0 3
v -8 0 5
v -8 2 3
v -8 2 5
v -8 2 5
v -10 2 5
v -8 2 3
v -10 2 3
v -27 0 7
v -29 0 7
v -27 2 7
v -29 2 7
v -29 0 7
v -29 0 5
v -29 2 7
v -29 2 5
v -29 0 5
v -27 0 5
v -29 2 5
v -27 2 5
v -27 2 7
v -29 2 7
v -27 2 5
v -29 2 5
v -27 0 -10
v -29 0 -10
v -27 2 -10
v -29 2 -10
v -29 0 -10
v -29 0 -12
v -29 2 -10
v -29 2 -12
v -29 0 -12
v -27 0 -12
v -29 2 -12
v -27 2 -12
v -27 2 -10
v -29 2 -10
v -27 2 -12
v -29 2 -12
v 9 0 -19
v 9 0 14
v -37 0 -19
v -37 0 14
v -0.9999981 0 -15
v -1.999998 0 -14.99999
v -0.9999981 3 -15
v -1.999998 3 -14.99999
v -1.999985 3 -11.99999
v -0.9999981 3 -15
v -1.999998 3 -14.99999
v -0.9999847 3 -12
v -1.999985 0 -11.99999
v -0.9999847 3 -12
v -1.999985 3 -11.99999
v -0.9999847 0 -12
v -2.000015 0 -18.99999
v -1.999998 3 -14.99999
v -1.999998 0 -14.99999
v -2.000015 3 -18.99999
v -4.999868 5 14.00002
v -4.000017 5 -18.99998
v -3.999868 5 14.00002
v -5.000017 5 -18.99998
v -0.9999485 0 -3.999998
v -1.999949 0 -3.999993
v -0.9999466 3 -3.999997
v -1.999947 3 -3.999993
v -1.999933 3 -0.9999933
v -0.9999466 3 -3.999997
v -1.999947 3 -3.999993
v -0.9999332 3 -0.9999971
v -1.999935 0 -0.9999933
v -0.9999332 3 -0.9999971
v -1.999933 3 -0.9999933
v -0.9999352 0 -0.9999981
v -0.9999008 0 7.000002
v -1.999901 0 7.000006
v -0.9999008 3 7.000003
v -1.999901 3 7.000006
v -1.999887 3 10.00001
v -0.9999008 3 7.000003
v -1.999901 3 7.000006
v -0.9998875 3 10
v -0.9999332 3 -0.9999971
v -0.9999008 0 7.000002
v -0.9999008 3 7.000003
v -0.9999352 0 -0.9999981
v -0.9999847 3 -12
v -0.9999485 0 -3.999998
v -0.9999466 3 -3.999997
v -0.9999847 0 -12
v -1.999868 3 14.00001
v -1.999887 0 10.00001
v -1.999887 3 10.00001
v -1.999868 0 14.00001
v -1.999935 0 -0.9999933
v -1.999901 3 7.000006
v -1.999901 0 7.000006
v -1.999933 3 -0.9999933
v -1.999985 0 -11.99999
v -1.999947 3 -3.999993
v -1.999949 0 -3.999993
v -1.999985 3 -11.99999
v 6.000004 0 -19
v -0.9999962 4 -15
v -0.9999981 4 -19
v 6.000004 0 -15
v -0.9999981 4 -3.999997
v -0.9999981 3 -3.999998
v -0.9999981 3 -0.9999981
v -0.9999981 4 -0.9999981
v -0.9999981 4 -0.9999981
v -0.9999981 3 -0.9999981
v -1 3 7.000002
v -1 4 7.000003
v -1 4 7.000003
v -1 3 7.000002
v -1 3 10
v -1 4 10
v -0.9999981 3 -3.999998
v -0.9999981 4 -3.999997
v -0.9999981 3 -12
v -0.9999981 4 -12
v -0.9999981 3 -12
v -0.9999981 4 -12
v -0.9999981 3 -15
v -0.9999962 4 -15
v -5 3 14
v -5.000017 5 -18.99998
v -4.999868 5 14.00002
v -4.999998 3 -19
v -1.999998 3 -3.999998
v -4.999998 3 -19
v -5 3 14
v -1.999998 3 -0.9999981
v -1.999998 3 -12
v -1.999998 3 -15
v -2.000015 3 -18.99999
v -5.000019 3 -18.99998
v -2 3 7.000002
v -2 3 10
v -5.000019 3 -18.99998
v -4.999998 3 -19
v -1.999998 3 -15
v -1.999868 3 14.00001
v -0.9998684 4 14
v -3.999868 4 14.00002
v -1 4 10
v -2 0 10
v -0.9998875 3 10
v -1.999887 3 10.00001
v -1 0 10
v 6 0 10
v -0.9998684 4 14
v -1 4 10
v 6 0 14
v 6 0 10
v -0.9998875 3 10
v -1 0 10
v -1 4 10
v -4.000019 4 -18.99998
v -1.000015 4 -19
v -0.9999962 4 -15
v -0.9999981 4 -3.999997
v -3.999998 4 -19
v -4.000019 4 -18.99998
v -0.9999962 4 -15
v -3.999998 4 -19
v -4 4 14
v -1 4 7.000003
v -1 4 10
v -3.999998 4 -19
v -3.999868 5 14.00002
v -4.000017 5 -18.99998
v -4 4 14
v -0.9999981 0 -15
v -0.9999962 4 -15
v 6.000004 0 -15
v -27 0 10
v -26 0 9.999996
v -27 3 10
v -26 3 9.999994
v -26.00001 3 6.999994
v -27 3 10
v -26 3 9.999994
v -27.00001 3 7
v -26.00001 0 6.999996
v -27.00001 3 7
v -26.00001 3 6.999994
v -27.00001 0 7
v -25.99998 0 14
v -26 3 9.999994
v -26 0 9.999996
v -25.99998 3 13.99999
v -23.00013 5 -19.00002
v -23.99998 5 13.99999
v -24.00013 5 -19.00001
v -22.99998 5 13.99998
v -27.00005 0 -1
v -26.00005 0 -1.000005
v -27.00005 3 -1
v -26.00005 3 -1.000005
v -26.00006 3 -4.000005
v -27.00005 3 -1
v -26.00005 3 -1.000005
v -27.00006 3 -4
v -26.00006 0 -4.000005
v -27.00006 3 -4
v -26.00006 3 -4.000005
v -27.00006 0 -4
v -27.0001 0 -12
v -26.0001 0 -12
v -27.0001 3 -12
v -26.0001 3 -12.00001
v -26.00011 3 -15.00001
v -27.0001 3 -12
v -26.0001 3 -12.00001
v -27.00011 3 -15
v -27.00006 3 -4
v -27.0001 0 -12
v -27.0001 3 -12
v -27.00006 0 -4
v -27.00001 3 7
v -27.00005 0 -1
v -27.00005 3 -1
v -27.00001 0 7
v -26.00013 3 -19
v -26.00011 0 -15
v -26.00011 3 -15.00001
v -26.00013 0 -19
v -26.00006 0 -4.000005
v -26.0001 3 -12.00001
v -26.0001 0 -12
v -26.00006 3 -4.000005
v -26.00001 0 6.999996
v -26.00005 3 -1.000005
v -26.00005 0 -1.000005
v -26.00001 3 6.999994
v -34 0 14
v -27 4 10
v -27 4 14
v -34 0 10
v -27 4 -1
v -27 3 -1
v -27 3 -4
v -27 4 -4
v -27 4 -4
v -27 3 -4
v -27 3 -12
v -27 4 -12
v -27 4 -12
v -27 3 -12
v -27 3 -15
v -27 4 -15
v -27 3 -1
v -27 4 -1
v -27 3 7
v -27 4 7
v -27 3 7
v -27 4 7
v -27 3 10
v -27 4 10
v -23 3 -19
v -22.99998 5 13.99998
v -23.00013 5 -19.00002
v -23 3 14
v -26 3 -1
v -23 3 14
v -23 3 -19
v -26 3 -4
v -26 3 7
v -26 3 10
v -25.99998 3 13.99999
v -22.99998 3 13.99998
v -26 3 -12
v -26 3 -15
v -22.99998 3 13.99998
v -23 3 14
v -26 3 10
v -23.00013 3 -19.00002
v -26.00013 3 -19
v -26 3 -15
v -23.00013 3 -19.00002
v -26 0 -15
v -27.00011 3 -15
v -26.00011 3 -15.00001
v -27 0 -15
v -34 0 -15
v -27.00013 4 -19
v -27 4 -15
v -34 0 -19
v -34 0 -15
v -27.00011 3 -15
v -27 0 -15
v -27 4 -15
v -23.99998 4 13.99999
v -26.99998 4 14
v -27 4 10
v -23.99998 4 13.99999
v -27 4 10
v -24 4 14
v -24 4 -19
v -27 4 -12
v -27 4 -15
v -27 4 -1
v -24 4 14
v -27 4 10
v -27.00013 4 -19
v -24 4 14
v -24.00013 5 -19.00001
v -23.99998 5 13.99999
v -24 4 -19
v -27 0 10
v -27 4 10
v -34 0 10
v -37 0 -19
v -37 0 14
v -37 8 -19
v -37 8 14
v 9 8 -19
v -37 0 -19
v -37 8 -19
v 9 0 -19
v 9 8 14
v 9 0 -19
v 9 8 -19
v 9 0 14
v -37 8 14
v 9 0 14
v 9 8 14
v -37 0 14
v -16 0 0
v -17 0 0
v -16 3 0
v -17 3 0
v -17 0 0
v -17 0 -5
v -17 3 0
v -17 3 -5
v -17 0 -5
v -16 0 -5
v -17 3 -5
v -16 3 -5
v -16 0 -5
v -16 0 0
v -16 3 -5
v -16 3 0
v -16 3 0
v -17 3 0
v -16 3 -5
v -17 3 -5
v -16 0 -5
v -17 0 -5
v -16 0 0
v -17 0 0
v -19 0 -10
v -19 0 -16
v -19 3 -10
v -19 3 -16
v -18 0 -16
v -19 3 -16
v -19 0 -16
v -18 3 -16
v -18 0 -14
v -18 3 -16
v -18 0 -16
v -18 3 -14
v -16 0 -14
v -18 3 -14
v -18 0 -14
v -16 3 -14
v -16 0 -13
v -16 3 -14
v -16 0 -14
v -16 3 -13
v -18 0 -13
v -16 3 -13
v -16 0 -13
v -18 3 -13
v -18 0 -10
v -18 3 -13
v -18 0 -13
v -18 3 -10
v -19 0 -10
v -18 3 -10
v -18 0 -10
v -19 3 -10
v -19 3 -10
v -18 3 -13
v -18 3 -10
v -19 3 -16
v -18 3 -16
v -16 3 -13
v -18 3 -14
v -16 3 -14
v -18 3 -13
v -9 0 -16
v -9 0 -10
v -9 3 -16
v -9 3 -10
v -10 0 -10
v -9 3 -10
v -9 0 -10
v -10 3 -10
v -10 0 -13
v -10 3 -10
v -10 0 -10
v -10 3 -13
v -12 0 -13
v -10 3 -13
v -10 0 -13
v -12 3 -13
v -12 0 -14
v -12 3 -13
v -12 0 -13
v -12 3 -14
v -10 0 -14
v -12 3 -14
v -12 0 -14
v -10 3 -14
v -10 0 -16
v -10 3 -14
v -10 0 -14
v -10 3 -16
v -9 0 -16
v -10 3 -16
v -10 0 -16
v -9 3 -16
v -9 3 -16
v -10 3 -14
v -10 3 -16
v -9 3 -10
v -10 3 -10
v -12 3 -14
v -10 3 -13
v -12 3 -13
v -10 3 -14
v -19 0 11
v -19 0 5
v -19 3 11
v -19 3 5
v -18 0 5
v -19 3 5
v -19 0 5
v -18 3 5
v -18 0 8
v -18 3 5
v -18 0 5
v -18 3 8
v -16 0 8
v -18 3 8
v -18 0 8
v -16 3 8
v -16 0 9
v -16 3 8
v -16 0 8
v -16 3 9
v -18 0 9
v -16 3 9
v -16 0 9
v -18 3 9
v -18 0 11
v -18 3 9
v -18 0 9
v -18 3 11
v -19 0 11
v -18 3 11
v -18 0 11
v -19 3 11
v -19 3 11
v -18 3 9
v -18 3 11
v -19 3 5
v -18 3 5
v -16 3 9
v -18 3 8
v -16 3 8
v -18 3 9
v -9 0 5
v -9 0 11
v -9 3 5
v -9 3 11
v -10 0 11
v -9 3 11
v -9 0 11
v -10 3 11
v -10 0 9
v -10 3 11
v -10 0 11
v -10 3 9
v -12 0 9
v -10 3 9
v -10 0 9
v -12 3 9
v -12 0 8
v -12 3 9
v -12 0 9
v -12 3 8
v -10 0 8
v -12 3 8
v -12 0 8
v -10 3 8
v -10 0 5
v -10 3 8
v -10 0 8
v -10 3 5
v -9 0 5
v -10 3 5
v -10 0 5
v -9 3 5
v -9 3 5
v -10 3 8
v -10 3 5
v -9 3 11
v -10 3 11
v -12 3 8
v -10 3 9
v -12 3 9
v -10 3 8
v -11 0 0
v -12 0 0
v -11 3 0
v -12 3 0
v -12 0 0
v -12 0 -5
v -12 3 0
v -12 3 -5
v -12 0 -5
v -11 0 -5
v -12 3 -5
v -11 3 -5
v -11 0 -5
v -11 0 0
v -11 3 -5
v -11 3 0
v -11 3 0
v -12 3 0
v -11 3 -5
v -12 3 -5
v -11 0 -5
v -12 0 -5
v -11 0 0
v -12 0 0

vn 0 0 1
vn 0 0 1
vn 0 0 1
vn 0 0 1
vn -1 0 0
vn -1 0 0
vn -1 0 0
vn -1 0 0
vn 0 0 -1
vn 0 0 -1
vn 0 0 -1
vn 0 0 -1
vn 1 0 0
vn 1 0 0
vn 1 0 0
vn 1 0 0
vn 0 1 0
vn 0 1 0
vn 0 1 0
vn 0 1 0
vn 0 -1 0
vn 0 -1 0
vn 0 -1 0
vn 0 -1 0
vn 0 0 1
vn 0 0 1
vn 0 0 1
vn 0 0 1
vn -1 0 0
vn -1 0 0
vn -1 0 0
vn -1 0 0
vn 0 0 -1
vn 0 0 -1
vn 0 0 -1
vn 0 0 -1
vn 1 0 0
vn 1 0 0
vn 1 0 0
vn 1 0 0
vn 0 1 0
vn 0 1 0
vn 0 1 0
vn 0 1 0
vn 0 0 1
vn 0 0 1
vn 0 0 1
vn 0 0 1
vn -1 0 0
vn -1 0 0
vn -1 0 0
vn -1 0 0
vn 0 0 -1
vn 0 0 -1
vn 0 0 -1
vn 0 0 -1
vn 1 0 0
vn 1 0 0
vn 1 0 0
vn 1 0 0
vn 0 1 0
vn 0 1 0
vn 0 1 0
vn 0 1 0
vn 0 -1 0
vn 0 -1 0
vn 0 -1 0
vn 0 -1 0
vn 0 0 1
vn 0 0 1
vn 0 0 1
vn 0 0 1
vn -1 0 0
vn -1 0 0
vn -1 0 0
vn -1 0 0
vn 0 0 -1
vn 0 0 -1
vn 0 0 -1
vn 0 0 -1
vn 1 0 0
vn 1 0 0
vn 1 0 0
vn 1 0 0
vn 0 1 0
vn 0 1 0
vn 0 1 0
vn 0 1 0
vn 0 -1 0
vn 0 -1 0
vn 0 -1 0
vn 0 -1 0
vn 0 0 1
vn 0 0 1
vn 0 0 1
vn 0 0 1
vn -1 0 0
vn -1 0 0
vn -1 0 0
vn -1 0 0
vn 0 0 -1
vn 0 0 -1
vn 0 0 -1
vn 0 0 -1
vn 1 0 0
vn 1 0 0
vn 1 0 0
vn 1 0 0
vn 0 1 0
vn 0 1 0
vn 0 1 0
vn 0 1 0
vn 0 -1 0
vn 0 -1 0
vn 0 -1 0
vn 0 -1 0
vn 0 0 1
vn 0 0 1
vn 0 0 1
vn 0 0 1
vn -1 0 0
vn -1 0 0
vn -1 0 0
vn -1 0 0
vn 0 0 -1
vn 0 0 -1
vn 0 0 -1
vn 0 0 -1
vn 1 0 0
vn 1 0 0
vn 1 0 0
vn 1 0 0
vn 0 1 0
vn 0 1 0
vn 0 1 0
vn 0 1 0
vn 0 0 1
vn 0 0 1
vn 0 0 1
vn 0 0 1
vn -1 0 0
vn -1 0 0
vn -1 0 0
vn -1 0 0
vn 0 0 -1
vn 0 0 -1
vn 0 0 -1
vn 0 0 -1
vn 0 1 0
vn 0 1 0
vn 0 1 0
vn 0 1 0
vn 0 0 1
vn 0 0 1
vn 0 0 1
vn 0 0 1
vn -1 0 0
vn -1 0 0
vn -1 0 0
vn -1 0 0
vn 0 0 -1
vn 0 0 -1
vn 0 0 -1
vn 0 0 -1
vn 0 1 0
vn 0 1 0
vn 0 1 0
vn 0 1 0
vn 0 1 0
vn 0 1 0
vn 0 1 0
vn 0 1 0
vn 3.814697E-06 0 1
vn 4.768372E-06 -3.178914E-07 1
vn 4.768372E-06 -3.178914E-07 1
vn 5.722046E-06 -6.357829E-07 1
vn 0 -1 0
vn 0 -1 0
vn 0 -1 0
vn 0 -1 0
vn -4.768372E-06 3.178914E-07 -1
vn -4.768372E-06 3.178914E-07 -1
vn -5.722046E-06 6.357829E-07 -1
vn -3.814697E-06 0 -1
vn -1 -2.576902E-12 4.291534E-06
vn -1 -2.576902E-12 4.291534E-06
vn -1 -2.425319E-12 4.291534E-06
vn -1 -2.728484E-12 4.291534E-06
vn 0 1 0
vn 0 1 0
vn 0 1 0
vn 0 1 0
vn 4.768372E-06 -3.178945E-07 1
vn 4.291534E-06 -1.589485E-07 1
vn 4.291534E-06 -1.589485E-07 1
vn 3.814697E-06 -2.425319E-12 1
vn 0 -1 0
vn 0 -1 0
vn 0 -1 0
vn 0 -1 0
vn -4.291534E-06 1.589485E-07 -1
vn -4.291534E-06 1.589485E-07 -1
vn -3.814697E-06 2.425319E-12 -1
vn -4.768372E-06 3.178945E-07 -1
vn 3.33786E-06 -7.947286E-08 1
vn 3.218651E-06 -3.973643E-08 1
vn 3.218651E-06 -3.973643E-08 1
vn 3.099442E-06 0 1
vn 0 -0.9999999 0
vn 0 -0.9999999 0
vn 0 -1 0
vn 0 -0.9999999 0
vn 1 -3.178902E-07 -4.172325E-06
vn 1 -3.178902E-07 -4.172325E-06
vn 1 1.21266E-12 -4.053116E-06
vn 1 -6.357816E-07 -4.291534E-06
vn 1 -3.178908E-07 -4.649162E-06
vn 1 -3.178908E-07 -4.649162E-06
vn 1 -6.357816E-07 -4.768371E-06
vn 1 0 -4.529953E-06
vn -1 0 4.768372E-06
vn -1 0 4.768372E-06
vn -1 0 4.768372E-06
vn -1 0 4.768372E-06
vn -0.9999999 3.178914E-07 4.172326E-06
vn -0.9999999 3.178914E-07 4.172326E-06
vn -0.9999999 0 4.291535E-06
vn -0.9999999 6.357829E-07 4.053116E-06
vn -1 3.178899E-07 4.649162E-06
vn -1 3.178899E-07 4.649162E-06
vn -1 6.357828E-07 4.529953E-06
vn -1 -3.031649E-12 4.768372E-06
vn 0.4961389 0.8682432 -1.182887E-07
vn 0.4961389 0.8682432 -1.182887E-07
vn 0.4961388 0.8682432 -2.365774E-07
vn 0.4961389 0.8682431 0
vn 0.9999999 0 0
vn 1 0 0
vn 0.9999999 0 0
vn 1 0 0
vn 1 -2.842171E-14 2.384186E-07
vn 1 0 2.384186E-07
vn 1 -2.842171E-14 2.384186E-07
vn 1 -5.684341E-14 2.384186E-07
vn 0.9999999 0 0
vn 0.9999999 0 0
vn 0.9999999 0 0
vn 0.9999999 0 0
vn 1 0 0
vn 1 0 0
vn 1 0 0
vn 1 0 0
vn 1 0 0
vn 1 -9.536743E-07 3.178914E-07
vn 1 -9.536743E-07 3.178914E-07
vn 1 -1.907349E-06 6.357829E-07
vn -1 2.813337E-05 2.22524E-06
vn -1 2.813337E-05 2.22524E-06
vn -1 6.580348E-05 4.508279E-06
vn -1 -9.536742E-06 -5.779845E-08
vn 0 -1 0
vn 0 -1 0
vn 0 -1 0
vn 0 -1 0
vn 0 -1 0
vn 0 -1 0
vn 0 -0.9999999 0
vn 0 -0.9999999 0
vn 0 -1 0
vn 0 -1 0
vn 0 1 0
vn 0 1 0
vn 0 1 0
vn 0 -1 0
vn 0 1 0
vn 0 1 0
vn 0 1 0
vn -1.907349E-06 6.358545E-07 -1
vn -1.907349E-06 6.358545E-07 -1
vn -3.814697E-06 1.271709E-06 -1
vn 0 0 -1
vn 0.4961424 0.8682411 -8.161981E-06
vn 0.4961424 0.8682411 -8.161981E-06
vn 0.496139 0.8682432 -1.632385E-05
vn 0.496146 0.8682392 0
vn 1.362414E-07 0 -1
vn 1.362414E-07 0 -1
vn 1.362392E-07 -5.110494E-12 -1
vn 1.362479E-07 1.533247E-11 -1
vn 0 0.9999999 0
vn 0 0.9999999 0
vn 0 1 0
vn 0 1 0
vn 0 1 0
vn 0 -1 0
vn 0 -1 0
vn 0 -1 0
vn 0 0.9999999 0
vn 0 1 0
vn 0 1 0
vn 1 -5.626676E-05 -2.22524E-06
vn 1 -5.626676E-05 -2.22524E-06
vn 1 1.907355E-05 -4.508279E-06
vn 1 -0.0001316071 5.779845E-08
vn -2.724783E-07 1.299278E-13 1
vn -2.724783E-07 1.299278E-13 1
vn -2.724783E-07 1.299278E-13 1
vn -3.814697E-06 0 -1
vn -4.768372E-06 -3.178914E-07 -1
vn -4.768372E-06 -3.178914E-07 -1
vn -5.722046E-06 -6.357829E-07 -1
vn 0 -1 0
vn 0 -1 0
vn 0 -1 0
vn 0 -1 0
vn 4.768372E-06 3.178914E-07 1
vn 4.768372E-06 3.178914E-07 1
vn 5.722046E-06 6.357829E-07 1
vn 3.814697E-06 0 1
vn 1 -2.576902E-12 -4.291534E-06
vn 1 -2.576902E-12 -4.291534E-06
vn 1 -2.425319E-12 -4.291534E-06
vn 1 -2.728484E-12 -4.291534E-06
vn 0 1 0
vn 0 1 0
vn 0 1 0
vn 0 1 0
vn -4.768372E-06 -3.031649E-12 -1
vn -4.768372E-06 -3.031649E-12 -1
vn -4.768372E-06 -3.031649E-12 -1
vn -4.768372E-06 -3.031649E-12 -1
vn 0 -1 0
vn 0 -1 0
vn 0 -1 0
vn 0 -1 0
vn 4.768372E-06 0 1
vn 4.768372E-06 0 1
vn 4.768372E-06 0 1
vn 4.768372E-06 0 1
vn -3.814697E-06 0 -1
vn -4.768372E-06 -3.178914E-07 -1
vn -4.768372E-06 -3.178914E-07 -1
vn -5.722046E-06 -6.357829E-07 -1
vn 0 -1 0
vn 0 -1 0
vn 0 -1 0
vn 0 -1 0
vn -1 0 4.529953E-06
vn -1 0 4.529953E-06
vn -1 0 4.529953E-06
vn -1 0 4.529953E-06
vn -1 -3.178914E-07 4.649162E-06
vn -1 -3.178914E-07 4.649162E-06
vn -1 -6.357829E-07 4.768372E-06
vn -1 0 4.529953E-06
vn 0.9999999 -1.515825E-12 -4.768372E-06
vn 0.9999999 -1.515825E-12 -4.768372E-06
vn 1 -3.03165E-12 -4.768374E-06
vn 1 0 -4.768372E-06
vn 1 -1.21266E-12 -4.529953E-06
vn 1 -1.21266E-12 -4.529953E-06
vn 0.9999999 -2.425319E-12 -4.529953E-06
vn 1 0 -4.529953E-06
vn 1 3.178899E-07 -4.649162E-06
vn 1 3.178899E-07 -4.649162E-06
vn 1 6.357828E-07 -4.529953E-06
vn 1 -3.031649E-12 -4.768372E-06
vn -0.4961389 0.8682431 0
vn -0.4961389 0.8682431 0
vn -0.4961389 0.8682431 0
vn -0.4961389 0.8682431 0
vn -1 0 0
vn -1 0 0
vn -1 0 0
vn -1 0 0
vn -1 0 0
vn -1 0 0
vn -1 0 0
vn -1 0 0
vn -1 0 0
vn -1 0 0
vn -1 0 0
vn -1 0 0
vn -1 0 0
vn -1 0 0
vn -1 0 0
vn -1 0 0
vn -1 0 0
vn -1 0 0
vn -1 0 0
vn -1 0 0
vn 1 2.813337E-05 -2.283039E-06
vn 1 2.813337E-05 -2.283039E-06
vn 1 6.580348E-05 -4.566077E-06
vn 1 -9.536743E-06 0
vn 0 -1 0
vn 0 -1 0
vn 0 -0.9999999 0
vn 0 -1 0
vn 0 -1 0
vn 0 -1 0
vn 0 -0.9999999 0
vn 0 -0.9999999 0
vn 0 -1 0
vn 0 -1 0
vn 0 1 0
vn 0 1 0
vn 0 1 0
vn 0 -1 0
vn 0 -1 0
vn 0 -1 0
vn 0 -1 0
vn 2.861023E-06 9.537816E-07 1
vn 2.861023E-06 9.537816E-07 1
vn 5.722046E-06 1.907563E-06 1
vn 0 0 1
vn -0.4961424 0.8682411 8.161981E-06
vn -0.4961424 0.8682411 8.161981E-06
vn -0.4961389 0.8682431 1.632385E-05
vn -0.496146 0.8682392 0
vn 0 0 1
vn 0 0 1
vn 0 0 1
vn 0 0 1
vn 0 0.9999999 0
vn 0 0.9999999 0
vn 0 0.9999999 0
vn 0 -1 0
vn 0 -1 0
vn 0 -1 0
vn 0 0.9999999 0
vn 0 0.9999999 0
vn 0 1 0
vn 0 1 0
vn 0 0.9999999 0
vn 0 1 0
vn 0 1 0
vn -1 -5.626676E-05 2.283039E-06
vn -1 -5.626676E-05 2.283039E-06
vn -1 1.907355E-05 4.566077E-06
vn -1 -0.0001316071 0
vn 0 0 -1
vn 0 0 -1
vn 0 0 -1
vn 1 0 0
vn 1 0 0
vn 1 0 0
vn 1 0 0
vn 0 0 1
vn 0 0 1
vn 0 0 1
vn 0 0 1
vn -1 0 0
vn -1 0 0
vn -1 0 0
vn -1 0 0
vn 0 0 -1
vn 0 0 -1
vn 0 0 -1
vn 0 0 -1
vn 0 0 1
vn 0 0 1
vn 0 0 1
vn 0 0 1
vn -1 0 0
vn -1 0 0
vn -1 0 0
vn -1 0 0
vn 0 0 -1
vn 0 0 -1
vn 0 0 -1
vn 0 0 -1
vn 1 0 0
vn 1 0 0
vn 1 0 0
vn 1 0 0
vn 0 1 0
vn 0 1 0
vn 0 1 0
vn 0 1 0
vn 0 -1 0
vn 0 -1 0
vn 0 -1 0
vn 0 -1 0
vn -1 0 0
vn -1 0 0
vn -1 0 0
vn -1 0 0
vn 0 0 -1
vn 0 0 -1
vn 0 0 -1
vn 0 0 -1
vn 1 0 0
vn 1 0 0
vn 1 0 0
vn 1 0 0
vn 0 0 -1
vn 0 0 -1
vn 0 0 -1
vn 0 0 -1
vn 1 0 0
vn 1 0 0
vn 1 0 0
vn 1 0 0
vn 0 0 1
vn 0 0 1
vn 0 0 1
vn 0 0 1
vn 1 0 0
vn 1 0 0
vn 1 0 0
vn 1 0 0
vn 0 0 1
vn 0 0 1
vn 0 0 1
vn 0 0 1
vn 0 1 0
vn 0 1 0
vn 0 1 0
vn 0 1 0
vn 0 1 0
vn 0 1 0
vn 0 1 0
vn 0 1 0
vn 0 1 0
vn 1 0 0
vn 1 0 0
vn 1 0 0
vn 1 0 0
vn 0 0 1
vn 0 0 1
vn 0 0 1
vn 0 0 1
vn -1 0 0
vn -1 0 0
vn -1 0 0
vn -1 0 0
vn 0 0 1
vn 0 0 1
vn 0 0 1
vn 0 0 1
vn -1 0 0
vn -1 0 0
vn -1 0 0
vn -1 0 0
vn 0 0 -1
vn 0 0 -1
vn 0 0 -1
vn 0 0 -1
vn -1 0 0
vn -1 0 0
vn -1 0 0
vn -1 0 0
vn 0 0 -1
vn 0 0 -1
vn 0 0 -1
vn 0 0 -1
vn 0 1 0
vn 0 1 0
vn 0 1 0
vn 0 1 0
vn 0 1 0
vn 0 1 0
vn 0 1 0
vn 0 1 0
vn 0 1 0
vn -1 0 0
vn -1 0 0
vn -1 0 0
vn -1 0 0
vn 0 0 -1
vn 0 0 -1
vn 0 0 -1
vn 0 0 -1
vn 1 0 0
vn 1 0 0
vn 1 0 0
vn 1 0 0
vn 0 0 -1
vn 0 0 -1
vn 0 0 -1
vn 0 0 -1
vn 1 0 0
vn 1 0 0
vn 1 0 0
vn 1 0 0
vn 0 0 1
vn 0 0 1
vn 0 0 1
vn 0 0 1
vn 1 0 0
vn 1 0 0
vn 1 0 0
vn 1 0 0
vn 0 0 1
vn 0 0 1
vn 0 0 1
vn 0 0 1
vn 0 1 0
vn 0 1 0
vn 0 1 0
vn 0 1 0
vn 0 1 0
vn 0 1 0
vn 0 1 0
vn 0 1 0
vn 0 1 0
vn 1 0 0
vn 1 0 0
vn 1 0 0
vn 1 0 0
vn 0 0 1
vn 0 0 1
vn 0 0 1
vn 0 0 1
vn -1 0 0
vn -1 0 0
vn -1 0 0
vn -1 0 0
vn 0 0 1
vn 0 0 1
vn 0 0 1
vn 0 0 1
vn -1 0 0
vn -1 0 0
vn -1 0 0
vn -1 0 0
vn 0 0 -1
vn 0 0 -1
vn 0 0 -1
vn 0 0 -1
vn -1 0 0
vn -1 0 0
vn -1 0 0
vn -1 0 0
vn 0 0 -1
vn 0 0 -1
vn 0 0 -1
vn 0 0 -1
vn 0 1 0
vn 0 1 0
vn 0 1 0
vn 0 1 0
vn 0 1 0
vn 0 1 0
vn 0 1 0
vn 0 1 0
vn 0 1 0
vn 0 0 1
vn 0 0 1
vn 0 0 1
vn 0 0 1
vn -1 0 0
vn -1 0 0
vn -1 0 0
vn -1 0 0
vn 0 0 -1
vn 0 0 -1
vn 0 0 -1
vn 0 0 -1
vn 1 0 0
vn 1 0 0
vn 1 0 0
vn 1 0 0
vn 0 1 0
vn 0 1 0
vn 0 1 0
vn 0 1 0
vn 0 -1 0
vn 0 -1 0
vn 0 -1 0
vn 0 -1 0

vt 2 0
vt 0 0
vt 2 2
vt 0 2
vt 2 0
vt 0 0
vt 2 2
vt 0 2
vt 2 0
vt 0 0
vt 2 2
vt 0 2
vt 2 0
vt 0 0
vt 2 2
vt 0 2
vt 0 2
vt 2 2
vt 0 0
vt 2 0
vt 2 0
vt 0 0
vt 2 2
vt 0 2
vt 2 0
vt 0 0
vt 2 2
vt 0 2
vt 2 0
vt 0 0
vt 2 2
vt 0 2
vt 2 0
vt 0 0
vt 2 2
vt 0 2
vt 2 0
vt 0 0
vt 2 2
vt 0 2
vt 0 2
vt 2 2
vt 0 0
vt 2 0
vt 2 0
vt 0 0
vt 2 2
vt 0 2
vt 2 0
vt 0 0
vt 2 2
vt 0 2
vt 2 0
vt 0 0
vt 2 2
vt 0 2
vt 2 0
vt 0 0
vt 2 2
vt 0 2
vt 0 2
vt 2 2
vt 0 0
vt 2 0
vt 2 0
vt 0 0
vt 2 2
vt 0 2
vt 2 0
vt 0 0
vt 2 2
vt 0 2
vt 2 0
vt 0 0
vt 2 2
vt 0 2
vt 2 0
vt 0 0
vt 2 2
vt 0 2
vt 2 0
vt 0 0
vt 2 2
vt 0 2
vt 0 2
vt 2 2
vt 0 0
vt 2 0
vt 2 0
vt 0 0
vt 2 2
vt 0 2
vt 2 0
vt 0 0
vt 2 2
vt 0 2
vt 2 0
vt 0 0
vt 2 2
vt 0 2
vt 2 0
vt 0 0
vt 2 2
vt 0 2
vt 2 0
vt 0 0
vt 2 2
vt 0 2
vt 0 2
vt 2 2
vt 0 0
vt 2 0
vt 2 0
vt 0 0
vt 2 2
vt 0 2
vt 2 0
vt 0 0
vt 2 2
vt 0 2
vt 2 0
vt 0 0
vt 2 2
vt 0 2
vt 2 0
vt 0 0
vt 2 2
vt 0 2
vt 2 0
vt 0 0
vt 2 2
vt 0 2
vt 0 2
vt 2 2
vt 0 0
vt 2 0
vt 2 0
vt 0 0
vt 2 2
vt 0 2
vt 2 0
vt 0 0
vt 2 2
vt 0 2
vt 2 0
vt 0 0
vt 2 2
vt 0 2
vt 0 2
vt 2 2
vt 0 0
vt 2 0
vt 2 0
vt 0 0
vt 2 2
vt 0 2
vt 2 0
vt 0 0
vt 2 2
vt 0 2
vt 2 0
vt 0 0
vt 2 2
vt 0 2
vt 0 2
vt 2 2
vt 0 0
vt 2 0
vt 0 0
vt 0 33
vt 46 0
vt 46 33
vt 1 0
vt 0 0
vt 1 3
vt 0 3
vt 1.525879E-05 3.000008
vt 1.000002 1.907349E-06
vt 1.907349E-06 7.629395E-06
vt 1.000015 3.000002
vt 1 1.192093E-07
vt 0 3
vt 1 3
vt 0 1.192093E-07
vt -1.907349E-06 0
vt 4 3
vt 3.999998 0
vt 0 3
vt 1 33
vt 0.0001487732 0
vt 0 33
vt 1.000149 5.722046E-06
vt 1 1.192093E-07
vt 0 1.192093E-07
vt 1.000002 3
vt 1.907349E-06 3
vt 1.335144E-05 3.000004
vt 1 0
vt 0 3.814697E-06
vt 1.000013 3
vt 1 0
vt -1.907349E-06 3
vt 0.9999981 3
vt 0 0
vt 1 0
vt 0 0
vt 1 3
vt 0 3
vt 1.335144E-05 3.000003
vt 1 0
vt 0 3.099442E-06
vt 1.000013 2.999999
vt 7.999999 3
vt 0 0
vt 0 3
vt 8 0
vt 8 3
vt 0 1.192093E-07
vt -9.536743E-07 3
vt 8 1.192093E-07
vt 4 3
vt 0 0
vt 0 3
vt 4 0
vt 0 0
vt 7.999999 3
vt 7.999999 0
vt 0 3
vt 0 -1.192093E-07
vt 8.000002 3
vt 8.000002 -1.192093E-07
vt 1.907349E-06 3
vt 0 0
vt 7.999999 4
vt 8.000001 0
vt 0 4
vt 2.999999 1
vt 3 0
vt 0 0
vt 0 1
vt 8.000001 1
vt 8.000001 0
vt 0 0
vt -4.768372E-07 1
vt 2.999999 1
vt 3 0
vt 0 0
vt 0 1
vt 0 0
vt -9.536743E-07 1
vt 8 0
vt 8 1
vt 0 0
vt 0 1
vt 3 0
vt 3 1
vt 33 0
vt 1.716614E-05 2
vt 33.00002 2
vt -1.907349E-06 0
vt 3.000021 15
vt 2.098083E-05 -1.907349E-06
vt 1.907349E-05 33
vt 3.000021 18
vt 3.000021 6.999998
vt 3.000021 3.999998
vt 3.000004 3.814697E-06
vt 0 1.907349E-05
vt 3.000019 26
vt 3.000019 29
vt 0 1.907349E-05
vt 2.098083E-05 -1.907349E-06
vt 3.000021 3.999998
vt 3.000151 33
vt -1.907349E-06 4
vt 2.999998 4.000013
vt 0.0001296997 0
vt 1.000114 0
vt 1.907349E-06 3
vt 1.000002 3
vt 0.0001144409 0
vt 0 1.192093E-06
vt 7.999943 4
vt 8.000057 2.384186E-07
vt 0 4.000001
vt 0 0
vt 6.999887 3
vt 7 0
vt 7 4
vt 3.000023 1.335144E-05
vt 1.907349E-05 0
vt 0 4
vt 1.907349E-06 15
vt 3.000002 0
vt 3.000023 1.335144E-05
vt 0 4
vt 3.000002 0
vt 3.000004 33
vt 3.814697E-06 26
vt 3.814697E-06 29
vt 33.00002 0
vt 0 1
vt 33 1
vt 1.335144E-05 0
vt -1.907349E-06 0
vt 0 4
vt 7 0
vt 1 0
vt 0 0
vt 1 3
vt 0 3
vt 1 0
vt 1.335144E-05 3.000006
vt 1.000013 3
vt 0 5.722046E-06
vt 1 0
vt 0 3
vt 1 3
vt 0 0
vt 0 0
vt 4.000002 3
vt 4 0
vt 1.907349E-06 3
vt 0.0001506805 0
vt 1 33
vt 1.000151 3.814697E-06
vt 0 33
vt 1 0
vt 0 0
vt 1.000002 3
vt 1.907349E-06 3
vt 1 -9.536743E-07
vt 1.144409E-05 3.000004
vt 1.000011 2.999999
vt 0 3.814697E-06
vt 1 0
vt 0 3
vt 1 3
vt 0 0
vt 1 0
vt 0 0
vt 1 3
vt 0 3
vt 1 1.907349E-06
vt 1.335144E-05 3.000008
vt 1.000013 3.000002
vt 0 7.629395E-06
vt 8 3
vt 0 0
vt 0 3
vt 8 0
vt 8 3
vt 0 0
vt 0 3
vt 8 0
vt 4 3
vt 0 0
vt 1.907349E-06 3
vt 4 0
vt 9.536743E-07 0
vt 8.000003 3
vt 8.000001 0
vt 9.536743E-07 3
vt 4.768372E-07 1.192093E-07
vt 8.000001 3
vt 8.000001 1.192093E-07
vt 2.145767E-06 3
vt 8 4
vt 0 0
vt 0 4
vt 8 0
vt 3 1
vt 3 0
vt 0 0
vt 0 1
vt 8 1
vt 8 0
vt 0 0
vt 0 1
vt 3 1
vt 3 0
vt 0 0
vt 0 1
vt 0 0
vt 0 1
vt 8 0
vt 8 1
vt 0 0
vt 0 1
vt 3 0
vt 3 1
vt 33 0
vt 1.716614E-05 2
vt 33.00002 2
vt 0 0
vt 0.0001316071 18.00002
vt 3.000132 33.00002
vt 3.000132 1.525879E-05
vt 0.0001316071 15.00002
vt 0.0001316071 26.00002
vt 0.0001316071 29.00002
vt 0.0001487732 33.00001
vt 3.000153 32.99999
vt 0.0001316071 7.000015
vt 0.0001316071 4.000015
vt 3.000153 32.99999
vt 3.000132 33.00002
vt 0.0001316071 29.00002
vt 3 -1.907349E-06
vt 0 1.144409E-05
vt 0.0001316071 4.000015
vt 3 -1.907349E-06
vt 1.000113 0
vt 0 3
vt 1 3
vt 0.0001125336 0
vt 8 4
vt 0.0001144409 0
vt 0 4
vt 8 0
vt 0 0
vt 6.999887 3
vt 7 0
vt 7 4
vt 0 3.999987
vt 3.000004 4
vt 3.000021 0
vt 0 3.999987
vt 3.000021 0
vt 2.098083E-05 4
vt 0 0
vt 3 7
vt 3 4
vt 3 18
vt 0 33
vt 3 29
vt 3.000132 0
vt 33.00002 0
vt 0 1
vt 33 1
vt 1.335144E-05 0
vt 0 0
vt 0 4
vt 7 0
vt 33 0
vt 0 0
vt 33 8
vt 0 8
vt 46 8
vt 0 0
vt 0 8
vt 46 0
vt 33 8
vt 0 0
vt 0 8
vt 33 0
vt 46 8
vt 0 0
vt 0 8
vt 46 0
vt 1 0
vt 0 0
vt 1 3
vt 0 3
vt 5 0
vt 0 0
vt 5 3
vt 0 3
vt 1 0
vt 0 0
vt 1 3
vt 0 3
vt 5 0
vt 0 0
vt 5 3
vt 0 3
vt 0 5
vt 1 5
vt 0 0
vt 1 0
vt 1 0
vt 0 0
vt 1 5
vt 0 5
vt 6 0
vt 0 0
vt 6 3
vt 0 3
vt 0 0
vt 1 3
vt 1 0
vt 0 3
vt 0 0
vt 2 3
vt 2 0
vt 0 3
vt 0 0
vt 2 3
vt 2 0
vt 0 3
vt 0 0
vt 1 3
vt 1 0
vt 0 3
vt 0 0
vt 2 3
vt 2 0
vt 0 3
vt 0 0
vt 3 3
vt 3 0
vt 0 3
vt 0 0
vt 1 3
vt 1 0
vt 0 3
vt 3 6
vt 2 3
vt 2 6
vt 3 0
vt 2 0
vt 0 3
vt 2 2
vt 0 2
vt 2 3
vt 6 0
vt 0 0
vt 6 3
vt 0 3
vt 0 0
vt 1 3
vt 1 0
vt 0 3
vt 0 0
vt 3 3
vt 3 0
vt 0 3
vt 0 0
vt 2 3
vt 2 0
vt 0 3
vt 0 0
vt 1 3
vt 1 0
vt 0 3
vt 0 0
vt 2 3
vt 2 0
vt 0 3
vt 0 0
vt 2 3
vt 2 0
vt 0 3
vt 0 0
vt 1 3
vt 1 0
vt 0 3
vt 0 0
vt 1 2
vt 1 0
vt 0 6
vt 1 6
vt 3 2
vt 1 3
vt 3 3
vt 1 2
vt 6 0
vt 0 0
vt 6 3
vt 0 3
vt 0 0
vt 1 3
vt 1 0
vt 0 3
vt 0 0
vt 3 3
vt 3 0
vt 0 3
vt 0 0
vt 2 3
vt 2 0
vt 0 3
vt 0 0
vt 1 3
vt 1 0
vt 0 3
vt 0 0
vt 2 3
vt 2 0
vt 0 3
vt 0 0
vt 2 3
vt 2 0
vt 0 3
vt 0 0
vt 1 3
vt 1 0
vt 0 3
vt 3 6
vt 2 4
vt 2 6
vt 3 0
vt 2 0
vt 0 4
vt 2 3
vt 0 3
vt 2 4
vt 6 0
vt 0 0
vt 6 3
vt 0 3
vt 0 0
vt 1 3
vt 1 0
vt 0 3
vt 0 0
vt 2 3
vt 2 0
vt 0 3
vt 0 0
vt 2 3
vt 2 0
vt 0 3
vt 0 0
vt 1 3
vt 1 0
vt 0 3
vt 0 0
vt 2 3
vt 2 0
vt 0 3
vt 0 0
vt 3 3
vt 3 0
vt 0 3
vt 0 0
vt 1 3
vt 1 0
vt 0 3
vt 0 0
vt 1 3
vt 1 0
vt 0 6
vt 1 6
vt 3 3
vt 1 4
vt 3 4
vt 1 3
vt 1 0
vt 0 0
vt 1 3
vt 0 3
vt 5 0
vt 0 0
vt 5 3
vt 0 3
vt 1 0
vt 0 0
vt 1 3
vt 0 3
vt 5 0
vt 0 0
vt 5 3
vt 0 3
vt 0 5
vt 1 5
vt 0 0
vt 1 0
vt 1 0
vt 0 0
vt 1 5
vt 0 5

g Combined_Mesh_(root:_scene)
usemtl Combined_Mesh_(root:_scene)
usemap Combined_Mesh_(root:_scene)
f 1/1/1 3/3/3 2/2/2
f 2/2/2 3/3/3 4/4/4
f 5/5/5 7/7/7 6/6/6
f 6/6/6 7/7/7 8/8/8
f 9/9/9 11/11/11 10/10/10
f 10/10/10 11/11/11 12/12/12
f 13/13/13 15/15/15 14/14/14
f 14/14/14 15/15/15 16/16/16
f 17/17/17 19/19/19 18/18/18
f 18/18/18 19/19/19 20/20/20
f 21/21/21 23/23/23 22/22/22
f 22/22/22 23/23/23 24/24/24
g Combined_Mesh_(root:_scene)_1
usemtl Combined_Mesh_(root:_scene)_1
usemap Combined_Mesh_(root:_scene)_1
f 25/25/25 27/27/27 26/26/26
f 26/26/26 27/27/27 28/28/28
f 29/29/29 31/31/31 30/30/30
f 30/30/30 31/31/31 32/32/32
f 33/33/33 35/35/35 34/34/34
f 34/34/34 35/35/35 36/36/36
f 37/37/37 39/39/39 38/38/38
f 38/38/38 39/39/39 40/40/40
f 41/41/41 43/43/43 42/42/42
f 42/42/42 43/43/43 44/44/44
g Combined_Mesh_(root:_scene)_2
usemtl Combined_Mesh_(root:_scene)_2
usemap Combined_Mesh_(root:_scene)_2
f 45/45/45 47/47/47 46/46/46
f 46/46/46 47/47/47 48/48/48
f 49/49/49 51/51/51 50/50/50
f 50/50/50 51/51/51 52/52/52
f 53/53/53 55/55/55 54/54/54
f 54/54/54 55/55/55 56/56/56
f 57/57/57 59/59/59 58/58/58
f 58/58/58 59/59/59 60/60/60
f 61/61/61 63/63/63 62/62/62
f 62/62/62 63/63/63 64/64/64
f 65/65/65 67/67/67 66/66/66
f 66/66/66 67/67/67 68/68/68
g Combined_Mesh_(root:_scene)_3
usemtl Combined_Mesh_(root:_scene)_3
usemap Combined_Mesh_(root:_scene)_3
f 69/69/69 71/71/71 70/70/70
f 70/70/70 71/71/71 72/72/72
f 73/73/73 75/75/75 74/74/74
f 74/74/74 75/75/75 76/76/76
f 77/77/77 79/79/79 78/78/78
f 78/78/78 79/79/79 80/80/80
f 81/81/81 83/83/83 82/82/82
f 82/82/82 83/83/83 84/84/84
f 85/85/85 87/87/87 86/86/86
f 86/86/86 87/87/87 88/88/88
f 89/89/89 91/91/91 90/90/90
f 90/90/90 91/91/91 92/92/92
g Combined_Mesh_(root:_scene)_4
usemtl Combined_Mesh_(root:_scene)_4
usemap Combined_Mesh_(root:_scene)_4
f 93/93/93 95/95/95 94/94/94
f 94/94/94 95/95/95 96/96/96
f 97/97/97 99/99/99 98/98/98
f 98/98/98 99/99/99 100/100/100
f 101/101/101 103/103/103 102/102/102
f 102/102/102 103/103/103 104/104/104
f 105/105/105 107/107/107 106/106/106
f 106/106/106 107/107/107 108/108/108
f 109/109/109 111/111/111 110/110/110
f 110/110/110 111/111/111 112/112/112
f 113/113/113 115/115/115 114/114/114
f 114/114/114 115/115/115 116/116/116
g Combined_Mesh_(root:_scene)_5
usemtl Combined_Mesh_(root:_scene)_5
usemap Combined_Mesh_(root:_scene)_5
f 117/117/117 119/119/119 118/118/118
f 118/118/118 119/119/119 120/120/120
f 121/121/121 123/123/123 122/122/122
f 122/122/122 123/123/123 124/124/124
f 125/125/125 127/127/127 126/126/126
f 126/126/126 127/127/127 128/128/128
f 129/129/129 131/131/131 130/130/130
f 130/130/130 131/131/131 132/132/132
f 133/133/133 135/135/135 134/134/134
f 134/134/134 135/135/135 136/136/136
g Combined_Mesh_(root:_scene)_6
usemtl Combined_Mesh_(root:_scene)_6
usemap Combined_Mesh_(root:_scene)_6
f 137/137/137 139/139/139 138/138/138
f 138/138/138 139/139/139 140/140/140
f 141/141/141 143/143/143 142/142/142
f 142/142/142 143/143/143 144/144/144
f 145/145/145 147/147/147 146/146/146
f 146/146/146 147/147/147 148/148/148
f 149/149/149 151/151/151 150/150/150
f 150/150/150 151/151/151 152/152/152
g Combined_Mesh_(root:_scene)_7
usemtl Combined_Mesh_(root:_scene)_7
usemap Combined_Mesh_(root:_scene)_7
f 153/153/153 155/155/155 154/154/154
f 154/154/154 155/155/155 156/156/156
f 157/157/157 159/159/159 158/158/158
f 158/158/158 159/159/159 160/160/160
f 161/161/161 163/163/163 162/162/162
f 162/162/162 163/163/163 164/164/164
f 165/165/165 167/167/167 166/166/166
f 166/166/166 167/167/167 168/168/168
g Combined_Mesh_(root:_scene)_8
usemtl Combined_Mesh_(root:_scene)_8
usemap Combined_Mesh_(root:_scene)_8
f 169/169/169 171/171/171 170/170/170
f 170/170/170 171/171/171 172/172/172
g Combined_Mesh_(root:_scene)_9
usemtl Combined_Mesh_(root:_scene)_9
usemap Combined_Mesh_(root:_scene)_9
f 173/173/173 175/175/175 174/174/174
f 174/174/174 175/175/175 176/176/176
f 177/177/177 179/179/179 178/178/178
f 177/177/177 178/178/178 180/180/180
f 181/181/181 183/183/183 182/182/182
f 181/181/181 182/182/182 184/184/184
f 185/185/185 187/187/187 186/186/186
f 185/185/185 186/186/186 188/188/188
f 189/189/189 191/191/191 190/190/190
f 189/189/189 190/190/190 192/192/192
f 193/193/193 195/195/195 194/194/194
f 194/194/194 195/195/195 196/196/196
f 197/197/197 199/199/199 198/198/198
f 197/197/197 198/198/198 200/200/200
f 201/201/201 203/203/203 202/202/202
f 201/201/201 202/202/202 204/204/204
f 205/205/205 207/207/207 206/206/206
f 206/206/206 207/207/207 208/208/208
f 209/209/209 211/211/211 210/210/210
f 209/209/209 210/210/210 212/212/212
f 213/213/213 215/215/215 214/214/214
f 213/213/213 214/214/214 216/216/216
f 217/217/217 219/219/219 218/218/218
f 217/217/217 218/218/218 220/220/220
f 221/221/221 223/223/223 222/222/222
f 221/221/221 222/222/222 224/224/224
f 225/225/225 227/227/227 226/226/226
f 225/225/225 226/226/226 228/228/228
f 229/229/229 231/231/231 230/230/230
f 229/229/229 230/230/230 232/232/232
f 233/233/233 235/235/235 234/234/234
f 233/233/233 234/234/234 236/236/236
f 237/237/237 239/239/239 238/238/238
f 240/240/240 239/239/239 237/237/237
f 241/241/241 243/243/243 242/242/242
f 244/244/244 243/243/243 241/241/241
f 245/245/245 247/247/247 246/246/246
f 248/248/248 247/247/247 245/245/245
f 249/249/249 251/251/251 250/250/250
f 250/250/250 251/251/251 252/252/252
f 253/253/253 255/255/255 254/254/254
f 254/254/254 255/255/255 256/256/256
f 257/257/257 259/259/259 258/258/258
f 257/257/257 258/258/258 260/260/260
f 261/261/261 263/263/263 262/262/262
f 264/264/264 263/263/263 261/261/261
f 265/265/265 261/261/261 262/262/262
f 262/262/262 266/266/266 265/265/265
f 267/267/267 266/266/266 268/268/268
f 264/264/264 269/269/269 263/263/263
f 269/269/269 270/270/270 263/263/263
f 271/271/271 273/273/273 272/272/272
f 263/263/263 270/270/270 274/274/274
f 263/263/263 270/270/270 263/263/263
f 275/275/275 277/277/277 276/276/276
f 277/277/277 276/276/276 276/276/276
f 278/278/278 280/280/280 279/279/279
f 278/278/278 279/279/279 281/281/281
f 282/282/282 284/284/284 283/283/283
f 282/282/282 283/283/283 285/285/285
f 286/286/286 288/288/288 287/287/287
f 286/286/286 287/287/287 289/289/289
f 290/290/290 292/292/292 291/291/291
f 292/292/292 294/294/294 293/293/293
f 295/295/295 297/297/297 296/296/296
f 298/298/298 300/300/300 299/299/299
f 293/293/293 294/294/294 299/299/299
f 299/299/299 294/294/294 298/298/298
f 301/301/301 303/303/303 302/302/302
f 301/301/301 302/302/302 304/304/304
f 305/305/305 307/307/307 306/306/306
f 308/308/308 310/310/310 309/309/309
f 309/309/309 310/310/310 311/311/311
f 312/312/312 314/314/314 313/313/313
f 312/312/312 313/313/313 315/315/315
f 316/316/316 318/318/318 317/317/317
f 316/316/316 317/317/317 319/319/319
f 320/320/320 322/322/322 321/321/321
f 320/320/320 321/321/321 323/323/323
f 324/324/324 326/326/326 325/325/325
f 324/324/324 325/325/325 327/327/327
f 328/328/328 330/330/330 329/329/329
f 329/329/329 330/330/330 331/331/331
f 332/332/332 334/334/334 333/333/333
f 332/332/332 333/333/333 335/335/335
f 336/336/336 338/338/338 337/337/337
f 336/336/336 337/337/337 339/339/339
f 340/340/340 342/342/342 341/341/341
f 341/341/341 342/342/342 343/343/343
f 344/344/344 346/346/346 345/345/345
f 344/344/344 345/345/345 347/347/347
f 348/348/348 350/350/350 349/349/349
f 348/348/348 349/349/349 351/351/351
f 352/352/352 354/354/354 353/353/353
f 352/352/352 353/353/353 355/355/355
f 356/356/356 358/358/358 357/357/357
f 356/356/356 357/357/357 359/359/359
f 360/360/360 362/362/362 361/361/361
f 360/360/360 361/361/361 363/363/363
f 364/364/364 366/366/366 365/365/365
f 364/364/364 365/365/365 367/367/367
f 368/368/368 370/370/370 369/369/369
f 368/368/368 369/369/369 371/371/371
f 372/372/372 374/374/374 373/373/373
f 375/375/375 374/374/374 372/372/372
f 376/376/376 378/378/378 377/377/377
f 379/379/379 378/378/378 376/376/376
f 380/380/380 382/382/382 381/381/381
f 383/383/383 382/382/382 380/380/380
f 384/384/384 386/386/386 385/385/385
f 385/385/385 386/386/386 387/387/387
f 388/388/388 390/390/390 389/389/389
f 389/389/389 390/390/390 391/391/391
f 392/392/392 394/394/394 393/393/393
f 392/392/392 393/393/393 395/395/395
f 396/396/396 398/398/398 397/397/397
f 399/399/399 398/398/398 396/396/396
f 400/400/400 396/396/396 397/397/397
f 397/397/397 401/401/401 400/400/400
f 402/402/402 401/401/401 403/403/403
f 399/399/399 404/404/404 398/398/398
f 404/404/404 405/405/405 398/398/398
f 406/406/406 408/408/408 407/407/407
f 409/409/409 411/411/411 410/410/410
f 398/398/398 405/405/405 412/412/412
f 413/413/413 415/415/415 414/414/414
f 413/413/413 414/414/414 416/416/416
f 417/417/417 419/419/419 418/418/418
f 417/417/417 418/418/418 420/420/420
f 421/421/421 423/423/423 422/422/422
f 421/421/421 422/422/422 424/424/424
f 425/425/425 427/427/427 426/426/426
f 428/428/428 430/430/430 429/429/429
f 431/431/431 433/433/433 432/432/432
f 434/434/434 435/435/435 432/432/432
f 432/432/432 435/435/435 431/431/431
f 436/436/436 435/435/435 434/434/434
f 437/437/437 433/433/433 431/431/431
f 438/438/438 440/440/440 439/439/439
f 438/438/438 439/439/439 441/441/441
f 442/442/442 444/444/444 443/443/443
g Combined_Mesh_(root:_scene)_10
usemtl Combined_Mesh_(root:_scene)_10
usemap Combined_Mesh_(root:_scene)_10
f 445/445/445 447/447/447 446/446/446
f 446/446/446 447/447/447 448/448/448
f 449/449/449 451/451/451 450/450/450
f 449/449/449 450/450/450 452/452/452
f 453/453/453 455/455/455 454/454/454
f 453/453/453 454/454/454 456/456/456
f 457/457/457 459/459/459 458/458/458
f 457/457/457 458/458/458 460/460/460
f 461/461/461 463/463/463 462/462/462
f 462/462/462 463/463/463 464/464/464
f 465/465/465 467/467/467 466/466/466
f 466/466/466 467/467/467 468/468/468
f 469/469/469 471/471/471 470/470/470
f 470/470/470 471/471/471 472/472/472
f 473/473/473 475/475/475 474/474/474
f 474/474/474 475/475/475 476/476/476
f 477/477/477 479/479/479 478/478/478
f 478/478/478 479/479/479 480/480/480
f 481/481/481 483/483/483 482/482/482
f 482/482/482 483/483/483 484/484/484
f 485/485/485 487/487/487 486/486/486
f 486/486/486 487/487/487 488/488/488
f 489/489/489 491/491/491 490/490/490
f 489/489/489 490/490/490 492/492/492
f 493/493/493 495/495/495 494/494/494
f 493/493/493 494/494/494 496/496/496
f 497/497/497 499/499/499 498/498/498
f 497/497/497 498/498/498 500/500/500
f 501/501/501 503/503/503 502/502/502
f 501/501/501 502/502/502 504/504/504
f 505/505/505 507/507/507 506/506/506
f 505/505/505 506/506/506 508/508/508
f 509/509/509 511/511/511 510/510/510
f 509/509/509 510/510/510 512/512/512
f 513/513/513 515/515/515 514/514/514
f 513/513/513 514/514/514 516/516/516
f 517/517/517 519/519/519 518/518/518
f 517/517/517 518/518/518 520/520/520
f 518/518/518 521/521/521 520/520/520
f 522/522/522 524/524/524 523/523/523
f 522/522/522 523/523/523 525/525/525
f 526/526/526 528/528/528 527/527/527
f 527/527/527 528/528/528 529/529/529
f 530/530/530 532/532/532 531/531/531
f 530/530/530 531/531/531 533/533/533
f 534/534/534 536/536/536 535/535/535
f 534/534/534 535/535/535 537/537/537
f 538/538/538 540/540/540 539/539/539
f 538/538/538 539/539/539 541/541/541
f 542/542/542 544/544/544 543/543/543
f 542/542/542 543/543/543 545/545/545
f 546/546/546 548/548/548 547/547/547
f 546/546/546 547/547/547 549/549/549
f 550/550/550 552/552/552 551/551/551
f 550/550/550 551/551/551 553/553/553
f 554/554/554 556/556/556 555/555/555
f 554/554/554 555/555/555 557/557/557
f 558/558/558 560/560/560 559/559/559
f 558/558/558 559/559/559 561/561/561
f 559/559/559 562/562/562 561/561/561
f 563/563/563 565/565/565 564/564/564
f 563/563/563 564/564/564 566/566/566
f 567/567/567 569/569/569 568/568/568
f 568/568/568 569/569/569 570/570/570
f 571/571/571 573/573/573 572/572/572
f 571/571/571 572/572/572 574/574/574
f 575/575/575 577/577/577 576/576/576
f 575/575/575 576/576/576 578/578/578
f 579/579/579 581/581/581 580/580/580
f 579/579/579 580/580/580 582/582/582
f 583/583/583 585/585/585 584/584/584
f 583/583/583 584/584/584 586/586/586
f 587/587/587 589/589/589 588/588/588
f 587/587/587 588/588/588 590/590/590
f 591/591/591 593/593/593 592/592/592
f 591/591/591 592/592/592 594/594/594
f 595/595/595 597/597/597 596/596/596
f 595/595/595 596/596/596 598/598/598
f 599/599/599 601/601/601 600/600/600
f 599/599/599 600/600/600 602/602/602
f 600/600/600 603/603/603 602/602/602
f 604/604/604 606/606/606 605/605/605
f 604/604/604 605/605/605 607/607/607
f 608/608/608 610/610/610 609/609/609
f 609/609/609 610/610/610 611/611/611
f 612/612/612 614/614/614 613/613/613
f 612/612/612 613/613/613 615/615/615
f 616/616/616 618/618/618 617/617/617
f 616/616/616 617/617/617 619/619/619
f 620/620/620 622/622/622 621/621/621
f 620/620/620 621/621/621 623/623/623
f 624/624/624 626/626/626 625/625/625
f 624/624/624 625/625/625 627/627/627
f 628/628/628 630/630/630 629/629/629
f 628/628/628 629/629/629 631/631/631
f 632/632/632 634/634/634 633/633/633
f 632/632/632 633/633/633 635/635/635
f 636/636/636 638/638/638 637/637/637
f 636/636/636 637/637/637 639/639/639
f 640/640/640 642/642/642 641/641/641
f 640/640/640 641/641/641 643/643/643
f 641/641/641 644/644/644 643/643/643
f 645/645/645 647/647/647 646/646/646
f 645/645/645 646/646/646 648/648/648
f 649/649/649 651/651/651 650/650/650
f 650/650/650 651/651/651 652/652/652
f 653/653/653 655/655/655 654/654/654
f 654/654/654 655/655/655 656/656/656
f 657/657/657 659/659/659 658/658/658
f 658/658/658 659/659/659 660/660/660
f 661/661/661 663/663/663 662/662/662
f 662/662/662 663/663/663 664/664/664
f 665/665/665 667/667/667 666/666/666
f 666/666/666 667/667/667 668/668/668
f 669/669/669 671/671/671 670/670/670
f 670/670/670 671/671/671 672/672/672
