#Combined_Mesh_(root:_scene).obj

v -8 -3 -18
v -10 -3 -18
v -8 -1 -18
v -10 -1 -18
v -10 -3 -18
v -10 -3 -20
v -10 -1 -18
v -10 -1 -20
v -10 -3 -20
v -8 -3 -20
v -10 -1 -20
v -8 -1 -20
v -8 -3 -20
v -8 -3 -18
v -8 -1 -20
v -8 -1 -18
v -8 -1 -18
v -10 -1 -18
v -8 -1 -20
v -10 -1 -20
v -8 -3 -20
v -10 -3 -20
v -8 -3 -18
v -10 -3 -18
v -20 -3 -1
v -22 -3 -1
v -20 -1 -1
v -22 -1 -1
v -22 -3 -1
v -22 -3 -3
v -22 -1 -1
v -22 -1 -3
v -22 -3 -3
v -20 -3 -3
v -22 -1 -3
v -20 -1 -3
v -20 -3 -3
v -20 -3 -1
v -20 -1 -3
v -20 -1 -1
v -20 -1 -1
v -22 -1 -1
v -20 -1 -3
v -22 -1 -3
v -20 -3 -3
v -22 -3 -3
v -20 -3 -1
v -22 -3 -1
v 0 1 -1
v -1 1 -1
v 0 2 -1
v -1 2 -1
v -1 1 -20
v 0 1 -20
v -1 2 -20
v 0 2 -20
v -29 1 -1
v -30 1 -1
v -29 2 -1
v -30 2 -1
v -30 1 -20
v -29 1 -20
v -30 2 -20
v -29 2 -20
v -29 1 -10
v -29 2 -10
v -1 1 -10
v -1 2 -10
v -29 1 -11
v -29 1 -10
v -1 1 -11
v -1 1 -10
v -29 2 -10
v -29 2 -11
v -1 2 -10
v -1 2 -11
v -29 2 -11
v -29 1 -11
v -1 2 -11
v -1 1 -11
v -1 1 -20
v -1 2 -20
v -1 2 -12
v -1 1 -11
v -1 2 -11
v 0 2 -20
v 0 1 -20
v 0 2 -12
v 0 1 -12
v -1 2 -20
v 0 2 -20
v 0 2 -12
v -1 2 -12
v -1 2 -1
v -1 1 -1
v -1 2 -9
v -1 1 -10
v -1 2 -10
v 0 1 -1
v 0 2 -1
v 0 2 -9
v 0 1 -9
v 0 2 -1
v -1 2 -1
v 0 2 -9
v -1 2 -9
v 0 1 -9
v 0 2 -9
v -1 2 -9
v 0 1 -12
v -1 2 -12
v 0 2 -12
v 1 1 -9
v -1 2 -12
v 1 1 -12
v -1 2 -9
v 1 1 -9
v 0 1 -9
v -1 2 -9
v 0 1 -12
v 1 1 -12
v -1 2 -12
v -29 2 -1
v -30 2 -1
v -29 2 -9
v -30 2 -9
v -30 2 -1
v -30 1 -1
v -30 1 -9
v -30 2 -9
v -29 1 -1
v -29 2 -1
v -29 2 -9
v -29 1 -10
v -29 2 -10
v -30 2 -20
v -29 2 -20
v -29 2 -12
v -30 2 -12
v -30 1 -20
v -30 2 -20
v -30 1 -12
v -30 2 -12
v -29 2 -20
v -29 1 -20
v -29 2 -12
v -29 1 -11
v -29 2 -11
v -30 1 -9
v -29 2 -9
v -30 2 -9
v -30 1 -12
v -30 2 -12
v -29 2 -12
v -29 2 -9
v -31 1 -12
v -29 2 -12
v -31 1 -9
v -30 1 -9
v -31 1 -9
v -29 2 -9
v -31 1 -12
v -30 1 -12
v -29 2 -12
v -34 5 -23
v -34 1 2
v -34 5 2
v -34 1 -23
v 4 5 2
v 4 1 -23
v 4 5 -23
v 4 1 2
v -12 -1 -29
v -18 -1 -23
v -12 -1 -23
v -18 -1 -29
v -18 -3 -29
v -18 -1 -23
v -18 -1 -29
v -18 -3 -23
v -12 -3 -29
v -18 -1 -29
v -12 -1 -29
v -18 -3 -29
v -18 -1 8
v -12 -1 2.000002
v -18 -1 2.000002
v -12 -1 8
v -12 -1 8
v -18 -3 8
v -12 -3 8
v -18 -1 8
v -12 -3 -29
v -12 -1 -29
v -12 -3 -23
v -12 -1 -23
v -12 -3 -23
v -12 -1 -23
v -6 -3 -23
v -12 5 -23
v -6 1 -23
v -18 -1 -23
v -18 5 -23
v -34 5 -23
v -24 1 -23
v -24 -3 -23
v -18 -3 -23
v 4 5 -23
v 4 1 -23
v -34 1 -23
v -12 -1 2.000002
v -12 -1 8
v -12 -3 2
v -12 -3 8
v -12 -1 2.000002
v -12 -3 2
v -6 -3 2
v -6 1 2
v -12 5 2
v -18 5 2
v -18 -1 2.000002
v 4 1 2
v 4 5 2
v -18 -1 8
v -18 -1 2.000002
v -18 -3 2
v -18 -3 8
v -34 5 2
v -34 1 2
v -24 1 2
v -24 -3 2
v -18 -3 2
v -18 -4 -29
v -18 -3 -23
v -18 -3 -29
v -18 -4 -23
v -12 -4 -29
v -18 -4 -23
v -18 -4 -29
v -12 -4 -23
v -12 -3 -29
v -12 -4 -23
v -12 -4 -29
v -12 -3 -23
v -12 -4 -29
v -18 -3 -29
v -12 -3 -29
v -18 -4 -29
v -18 -4 2
v -18 -3 8
v -18 -3 2
v -18 -4 8
v -12 -4 2
v -18 -4 8
v -18 -4 2
v -12 -4 8
v -12 -3 2
v -12 -4 8
v -12 -4 2
v -12 -3 8
v -12 -3 8
v -18 -4 8
v -12 -4 8
v -18 -3 8
v -1 -3 -7
v -1 -3 -14
v -1 1 0
v -1 1 -21
v 4 1 -23
v -1 1 -21
v -1 1 -23
v -1 1 0
v 4 1 2
v -1 1 2
v -6 1 -21
v -1 1 -23
v -1 1 -21
v -6 1 -23
v -1 -3 -14
v -6 1 -21
v -1 1 -21
v -6 -3 -14
v -6 1 0
v -1 -3 -7
v -1 1 0
v -6 -3 -7
v -6 1 2
v -1 1 0
v -1 1 2
v -6 1 0
v -6 -3 2
v -6 1 0
v -6 1 2
v -6 -3 -7
v -6 -3 -14
v -6 1 -23
v -6 1 -21
v -6 -3 -23
v -29 1 -21
v -24 -3 -14
v -29 -3 -14
v -24 1 -21
v -29 1 -23
v -24 1 -21
v -29 1 -21
v -24 1 -23
v -24 -3 -23
v -24 1 -21
v -24 1 -23
v -24 -3 -14
v -24 1 0
v -29 -3 -7
v -24 -3 -7
v -29 1 0
v -24 1 2
v -29 1 0
v -24 1 0
v -29 1 2
v -24 -3 -7
v -24 1 2
v -24 1 0
v -24 -3 2
v -29 1 0
v -29 -3 -14
v -29 -3 -7
v -29 1 -21
v -34 1 2
v -29 1 -23
v -29 1 2
v -34 1 -23
v -6 -3 -7
v -1 -3 -14
v -1 -3 -7
v -6 -3 -14
v -12 -3 -7
v -6 -3 -14
v -6 -3 -7
v -12 -3 -14
v -6 -3 2
v -12 -3 -7
v -6 -3 -7
v -12 -3 2
v -12 -3 -23
v -6 -3 -14
v -12 -3 -14
v -6 -3 -23
v -18 -3 -7
v -12 -3 -14
v -12 -3 -7
v -18 -3 -14
v -18 -4 -14
v -12 -3 -14
v -18 -3 -14
v -12 -4 -14
v -18 -4 -23
v -12 -4 -14
v -18 -4 -14
v -12 -4 -23
v -12 -3 -23
v -12 -4 -14
v -12 -4 -23
v -12 -3 -14
v -18 -3 -14
v -18 -4 -23
v -18 -4 -14
v -18 -3 -23
v -24 -3 -14
v -18 -3 -23
v -18 -3 -14
v -24 -3 -23
v -24 -3 -7
v -18 -3 -14
v -18 -3 -7
v -24 -3 -14
v -12 -4 -7
v -18 -3 -7
v -12 -3 -7
v -18 -4 -7
v -12 -4 2
v -18 -4 -7
v -12 -4 -7
v -18 -4 2
v -12 -3 -7
v -12 -4 2
v -12 -4 -7
v -12 -3 2
v -18 -3 2
v -18 -4 -7
v -18 -4 2
v -18 -3 -7
v -24 -3 2
v -18 -3 -7
v -18 -3 2
v -24 -3 -7
v -29 -3 -7
v -24 -3 -14
v -24 -3 -7
v -29 -3 -14

vn 0 0 1
vn 0 0 1
vn 0 0 1
vn 0 0 1
vn -1 0 0
vn -1 0 0
vn -1 0 0
vn -1 0 0
vn 0 0 -1
vn 0 0 -1
vn 0 0 -1
vn 0 0 -1
vn 1 0 0
vn 1 0 0
vn 1 0 0
vn 1 0 0
vn 0 1 0
vn 0 1 0
vn 0 1 0
vn 0 1 0
vn 0 -1 0
vn 0 -1 0
vn 0 -1 0
vn 0 -1 0
vn 0 0 1
vn 0 0 1
vn 0 0 1
vn 0 0 1
vn -1 0 0
vn -1 0 0
vn -1 0 0
vn -1 0 0
vn 0 0 -1
vn 0 0 -1
vn 0 0 -1
vn 0 0 -1
vn 1 0 0
vn 1 0 0
vn 1 0 0
vn 1 0 0
vn 0 1 0
vn 0 1 0
vn 0 1 0
vn 0 1 0
vn 0 -1 0
vn 0 -1 0
vn 0 -1 0
vn 0 -1 0
vn 0 0 1
vn 0 0 1
vn 0 0 1
vn 0 0 1
vn 0 0 -1
vn 0 0 -1
vn 0 0 -1
vn 0 0 -1
vn 0 0 1
vn 0 0 1
vn 0 0 1
vn 0 0 1
vn 0 0 -1
vn 0 0 -1
vn 0 0 -1
vn 0 0 -1
vn 0 0 1
vn 0 0 1
vn 0 0 1
vn 0 0 1
vn 0 -1 0
vn 0 -1 0
vn 0 -1 0
vn 0 -1 0
vn 0 1 0
vn 0 1 0
vn 0 1 0
vn 0 1 0
vn 0 0 -1
vn 0 0 -1
vn 0 0 -1
vn 0 0 -1
vn -1 0 0
vn -1 0 0
vn -1 0 0
vn -1 0 0
vn -1 0 0
vn 1 0 0
vn 1 0 0
vn 1 0 0
vn 1 0 0
vn 0 1 0
vn 0 1 0
vn 0 1 0
vn 0 1 0
vn -1 0 0
vn -1 0 0
vn -1 0 0
vn -1 0 0
vn -1 0 0
vn 1 0 0
vn 1 0 0
vn 1 0 0
vn 1 0 0
vn 0 1 0
vn 0 1 0
vn 0 1 0
vn 0 1 0
vn 0 0 -1
vn 0 0 -1
vn 0 0 -1
vn 0 0 1
vn 0 0 1
vn 0 0 1
vn 0.4472136 0.8944272 0
vn 0.4472136 0.8944272 0
vn 0.4472136 0.8944272 0
vn 0.4472136 0.8944272 0
vn 0 0 1
vn 0 0 1
vn 0 0 1
vn 0 0 -1
vn 0 0 -1
vn 0 0 -1
vn 0 1 0
vn 0 1 0
vn 0 1 0
vn 0 1 0
vn -1 0 0
vn -1 0 0
vn -1 0 0
vn -1 0 0
vn 1 0 0
vn 1 0 0
vn 1 0 0
vn 1 0 0
vn 1 0 0
vn 0 1 0
vn 0 1 0
vn 0 1 0
vn 0 1 0
vn -1 0 0
vn -1 0 0
vn -1 0 0
vn -1 0 0
vn 1 0 0
vn 1 0 0
vn 1 0 0
vn 1 0 0
vn 1 0 0
vn 0 0 -1
vn 0 0 -1
vn 0 0 -1
vn 0 0 1
vn 0 0 1
vn 0 0 1
vn -0.4472136 0.8944272 0
vn -0.4472136 0.8944272 0
vn -0.4472136 0.8944272 0
vn -0.4472136 0.8944272 0
vn 0 0 1
vn 0 0 1
vn 0 0 1
vn 0 0 -1
vn 0 0 -1
vn 0 0 -1
vn 1 0 0
vn 1 0 0
vn 1 0 0
vn 1 0 0
vn -1 0 0
vn -1 0 0
vn -1 0 0
vn -1 0 0
vn 0 -1 0
vn 0 -1 0
vn 0 -1 0
vn 0 -1 0
vn 1 0 0
vn 1 0 0
vn 1 0 0
vn 1 0 0
vn 0 0 1
vn 0 0 1
vn 0 0 1
vn 0 0 1
vn 0 -1 0
vn 0 -1 0
vn 0 -1 0
vn 0 -1 0
vn 0 0 -1
vn 0 0 -1
vn 0 0 -1
vn 0 0 -1
vn -1 0 0
vn -1 0 0
vn -1 0 0
vn -1 0 0
vn 0 0 1
vn 0 0 1
vn 0 0 1
vn 0 0 1
vn 0 0 0.9999999
vn 0 0 1
vn 0 0 1
vn 0 0 1
vn 0 0 1
vn 0 0 1
vn 0 0 1
vn 0 0 1
vn 0 0 1
vn 0 0 1
vn -1 0 0
vn -0.9999999 0 0
vn -0.9999999 0 0
vn -1 0 0
vn -1.412851E-07 -1.059638E-07 -1
vn 0 9.536743E-07 -1
vn -2.119276E-07 3.178914E-07 -1
vn -9.304139E-08 -6.978104E-08 -0.9999999
vn -4.435694E-08 -1.996062E-07 -1
vn 5.609849E-08 -1.682955E-07 -1
vn 1.059638E-07 -1.589457E-07 -1
vn 0 0 -1
vn 0 0 -1
vn 0.9999999 0 0
vn 1 0 0
vn 0.9999999 0 0
vn 1 0 0
vn 0 0 -1
vn 0 0 -1
vn 9.304139E-08 -6.978104E-08 -0.9999999
vn 2.119276E-07 3.178914E-07 -1
vn 0 9.536743E-07 -1
vn 1 0 0
vn 1 0 0
vn 1 0 0
vn 1 0 0
vn 0 1 0
vn 0 1 0
vn 0 1 0
vn 0 1 0
vn -1 0 0
vn -1 0 0
vn -1 0 0
vn -1 0 0
vn 0 0 1
vn 0 0 1
vn 0 0 1
vn 0 0 1
vn 1 0 0
vn 1 0 0
vn 1 0 0
vn 1 0 0
vn 0 1 0
vn 0 1 0
vn 0 1 0
vn 0 1 0
vn -1 0 0
vn -1 0 0
vn -1 0 0
vn -1 0 0
vn 0 0 -1
vn 0 0 -1
vn 0 0 -1
vn 0 0 -1
vn -1 0 0
vn -1 0 0
vn -1 0 0
vn -1 0 0
vn 0 1 0
vn 0 0.9999999 0
vn 0 1 0
vn 0 1 0
vn 0 1 0
vn 0 1 0
vn 0 1 0
vn 0 1 0
vn 0 1 0
vn 0 1 0
vn 0 0.8682432 0.496139
vn 0 0.8682432 0.496139
vn 0 0.8682432 0.496139
vn 0 0.8682432 0.496139
vn 0 0.8682432 -0.496139
vn 0 0.8682432 -0.496139
vn 0 0.8682432 -0.496139
vn 0 0.8682432 -0.496139
vn 0 1 0
vn 0 1 0
vn 0 1 0
vn 0 1 0
vn -1 0 0
vn -1 0 0
vn -1 0 0
vn -1 0 0
vn -1 0 0
vn -1 0 0
vn -1 0 0
vn -1 0 0
vn 0 0.8682432 0.496139
vn 0 0.8682432 0.496139
vn 0 0.8682432 0.496139
vn 0 0.8682432 0.496139
vn 0 1 0
vn 0 1 0
vn 0 1 0
vn 0 1 0
vn 1 0 0
vn 1 0 0
vn 1 0 0
vn 1 0 0
vn 0 0.8682432 -0.496139
vn 0 0.8682432 -0.496139
vn 0 0.8682432 -0.496139
vn 0 0.8682432 -0.496139
vn 0 1 0
vn 0 1 0
vn 0 1 0
vn 0 1 0
vn 1 0 0
vn 1 0 0
vn 1 0 0
vn 1 0 0
vn 1 0 0
vn 1 0 0
vn 1 0 0
vn 1 0 0
vn 0 1 0
vn 0 1 0
vn 0 1 0
vn 0 1 0
vn 0 1 0
vn 0 1 0
vn 0 1 0
vn 0 1 0
vn 0 1 0
vn 0 1 0
vn 0 1 0
vn 0 1 0
vn 0 1 0
vn 0 1 0
vn 0 1 0
vn 0 1 0
vn 0 1 0
vn 0 1 0
vn 0 1 0
vn 0 1 0
vn 0 1 0
vn 0 1 0
vn 0 1 0
vn 0 1 0
vn 0 0 -1
vn 0 0 -1
vn 0 0 -1
vn 0 0 -1
vn 0 1 0
vn 0 1 0
vn 0 1 0
vn 0 1 0
vn -1 0 0
vn -1 0 0
vn -1 0 0
vn -1 0 0
vn 1 0 0
vn 1 0 0
vn 1 0 0
vn 1 0 0
vn 0 1 0
vn 0 1 0
vn 0 1 0
vn 0 1 0
vn 0 1 0
vn 0 1 0
vn 0 1 0
vn 0 1 0
vn 0 0 1
vn 0 0 1
vn 0 0 1
vn 0 0 1
vn 0 1 0
vn 0 1 0
vn 0 1 0
vn 0 1 0
vn -1 0 0
vn -1 0 0
vn -1 0 0
vn -1 0 0
vn 1 0 0
vn 1 0 0
vn 1 0 0
vn 1 0 0
vn 0 1 0
vn 0 1 0
vn 0 1 0
vn 0 1 0
vn 0 1 0
vn 0 1 0
vn 0 1 0
vn 0 1 0

vt 2 0
vt 0 0
vt 2 2
vt 0 2
vt 2 0
vt 0 0
vt 2 2
vt 0 2
vt 2 0
vt 0 0
vt 2 2
vt 0 2
vt 2 0
vt 0 0
vt 2 2
vt 0 2
vt 0 2
vt 2 2
vt 0 0
vt 2 0
vt 2 0
vt 0 0
vt 2 2
vt 0 2
vt 2 0
vt 0 0
vt 2 2
vt 0 2
vt 2 0
vt 0 0
vt 2 2
vt 0 2
vt 2 0
vt 0 0
vt 2 2
vt 0 2
vt 2 0
vt 0 0
vt 2 2
vt 0 2
vt 0 2
vt 2 2
vt 0 0
vt 2 0
vt 2 0
vt 0 0
vt 2 2
vt 0 2
vt 1 0
vt 0 0
vt 1 1
vt 0 1
vt 1 0
vt 0 0
vt 1 1
vt 0 1
vt 1 0
vt 0 0
vt 1 1
vt 0 1
vt 1 0
vt 0 0
vt 1 1
vt 0 1
vt 0 0
vt 0 1
vt 28 0
vt 28 1
vt 0 0
vt 0 1
vt 28 0
vt 28 1
vt 28 1
vt 28 0
vt 0 1
vt 0 0
vt 28 1
vt 28 0
vt 0 1
vt 0 0
vt 0 0
vt 0 1
vt 8 1
vt 9 0
vt 9 1
vt 8 1
vt 8 0
vt 0 1
vt 0 0
vt 1 0
vt 0 0
vt 0 8
vt 1 8
vt 9 1
vt 9 0
vt 1 1
vt 0 0
vt 0 1
vt 0 0
vt 0 1
vt 8 1
vt 8 0
vt 0 8
vt 1 8
vt 0 0
vt 1 0
vt 0 0
vt 0 1
vt 1 1
vt 1 0
vt 0 1
vt 1 1
vt 0 3
vt 2.236068 0
vt 0 0
vt 2.236068 3
vt 2 0
vt 1 0
vt 0 1
vt 1 0
vt 0 0
vt 2 1
vt 0 8
vt 1 8
vt 0 0
vt 1 0
vt 8 1
vt 8 0
vt 0 0
vt 0 1
vt 0 0
vt 0 1
vt 8 1
vt 9 0
vt 9 1
vt 1 0
vt 0 0
vt 0 8
vt 1 8
vt 0 0
vt 0 1
vt 8 0
vt 8 1
vt 9 1
vt 9 0
vt 1 1
vt 0 0
vt 0 1
vt 1 0
vt 0 1
vt 1 1
vt 0 0
vt 0 1
vt 1 1
vt 0 3
vt 2.236069 0
vt 0 0
vt 2.236069 3
vt 1 0
vt 0 0
vt 2 1
vt 2 0
vt 1 0
vt 0 1
vt 25 4
vt 0 0
vt 0 4
vt 25 0
vt 25 4
vt 0 0
vt 0 4
vt 25 0
vt 6 0
vt 0 6
vt 6 6
vt 0 0
vt 6 0
vt 0 2
vt 6 2
vt 0 0
vt 6 0
vt 0 2
vt 6 2
vt 0 0
vt 0 5.999998
vt 6 0
vt 0 0
vt 6 5.999998
vt 0 2
vt 6 0
vt 0 0
vt 6 2
vt 0 0
vt 0 2
vt 6 0
vt 6 2
vt 22 0
vt 22 2
vt 28 0
vt 22 8
vt 28 4
vt 16 2
vt 16 8
vt 0 8
vt 10 4
vt 10 0
vt 16 0
vt 38 8
vt 38 4
vt 0 4
vt 1.907349E-06 2
vt 6 2
vt 0 0
vt 6 0
vt 16 2
vt 16 0
vt 10 0
vt 10 4
vt 16 8
vt 22 8
vt 22 2
vt 0 4
vt 0 8
vt 0 2
vt 5.999998 2
vt 6 0
vt 0 0
vt 38 8
vt 38 4
vt 28 4
vt 28 0
vt 22 0
vt 6 0
vt 0 1
vt 6 1
vt 0 0
vt 0 0
vt 6 6
vt 6 0
vt 0 6
vt 0 1
vt 6 0
vt 0 0
vt 6 1
vt 6 0
vt 0 1
vt 6 1
vt 0 0
vt 6 0
vt 0 1
vt 6 1
vt 0 0
vt 0 0
vt 6 6
vt 6 0
vt 0 6
vt 0 1
vt 6 0
vt 0 0
vt 6 1
vt 0 1
vt 6 0
vt 0 0
vt 6 1
vt 14 0
vt 7 0
vt 21 4
vt 0 4
vt 0 0
vt 5 2
vt 5 0
vt 5 23
vt 0 25
vt 5 25
vt 5 2
vt 0 0
vt 0 2
vt 5 0
vt 0 8.062259
vt 5 0
vt 0 0
vt 5 8.062259
vt 5 8
vt 0 0
vt 2.384186E-07 8
vt 5 0
vt 5 2
vt 0 0
vt 0 2
vt 5 0
vt 9 0
vt 7 4
vt 9 4
vt 0 0
vt 9 0
vt 0 4
vt 2 4
vt 0 0
vt 5 0
vt 0 7.999879
vt 5 7.999879
vt 0 0
vt 5 0
vt 0 2
vt 5 2
vt 0 0
vt 9 0
vt 7 4
vt 9 4
vt 0 0
vt 0 8.062258
vt 5 0
vt 0 0
vt 5 8.062258
vt 0 2
vt 5 0
vt 0 0
vt 5 2
vt 9 0
vt 0 4
vt 2 4
vt 0 0
vt 0 4
vt 14 0
vt 7 0
vt 21 4
vt 5 25
vt 0 0
vt 0 25
vt 5 0
vt 5 7
vt 0 0
vt 0 7
vt 5 0
vt 6 7
vt 0 0
vt 0 7
vt 6 0
vt 0 9
vt 6 0
vt 0 0
vt 6 9
vt 6 0
vt 0 9
vt 6 9
vt 0 0
vt 6 7
vt 0 0
vt 0 7
vt 6 0
vt 6 0
vt 0 1
vt 6 1
vt 0 0
vt 6 0
vt 0 9
vt 6 9
vt 0 0
vt 0 1
vt 9 0
vt 0 0
vt 9 1
vt 0 1
vt 9 0
vt 0 0
vt 9 1
vt 6 9
vt 0 0
vt 0 9
vt 6 0
vt 6 7
vt 0 0
vt 0 7
vt 6 0
vt 6 0
vt 0 1
vt 6 1
vt 0 0
vt 0 9
vt 6 0
vt 0 0
vt 6 9
vt 0 1
vt 9 0
vt 0 0
vt 9 1
vt 0 1
vt 9 0
vt 0 0
vt 9 1
vt 6 9
vt 0 0
vt 0 9
vt 6 0
vt 5 7
vt 0 0
vt 0 7
vt 5 0

g Combined_Mesh_(root:_scene)
usemtl Combined_Mesh_(root:_scene)
usemap Combined_Mesh_(root:_scene)
f 1/1/1 3/3/3 2/2/2
f 2/2/2 3/3/3 4/4/4
f 5/5/5 7/7/7 6/6/6
f 6/6/6 7/7/7 8/8/8
f 9/9/9 11/11/11 10/10/10
f 10/10/10 11/11/11 12/12/12
f 13/13/13 15/15/15 14/14/14
f 14/14/14 15/15/15 16/16/16
f 17/17/17 19/19/19 18/18/18
f 18/18/18 19/19/19 20/20/20
f 21/21/21 23/23/23 22/22/22
f 22/22/22 23/23/23 24/24/24
g Combined_Mesh_(root:_scene)_1
usemtl Combined_Mesh_(root:_scene)_1
usemap Combined_Mesh_(root:_scene)_1
f 25/25/25 27/27/27 26/26/26
f 26/26/26 27/27/27 28/28/28
f 29/29/29 31/31/31 30/30/30
f 30/30/30 31/31/31 32/32/32
f 33/33/33 35/35/35 34/34/34
f 34/34/34 35/35/35 36/36/36
f 37/37/37 39/39/39 38/38/38
f 38/38/38 39/39/39 40/40/40
f 41/41/41 43/43/43 42/42/42
f 42/42/42 43/43/43 44/44/44
f 45/45/45 47/47/47 46/46/46
f 46/46/46 47/47/47 48/48/48
g Combined_Mesh_(root:_scene)_2
usemtl Combined_Mesh_(root:_scene)_2
usemap Combined_Mesh_(root:_scene)_2
f 49/49/49 51/51/51 50/50/50
f 50/50/50 51/51/51 52/52/52
f 53/53/53 55/55/55 54/54/54
f 54/54/54 55/55/55 56/56/56
f 57/57/57 59/59/59 58/58/58
f 58/58/58 59/59/59 60/60/60
f 61/61/61 63/63/63 62/62/62
f 62/62/62 63/63/63 64/64/64
f 65/65/65 67/67/67 66/66/66
f 66/66/66 67/67/67 68/68/68
f 69/69/69 71/71/71 70/70/70
f 70/70/70 71/71/71 72/72/72
f 73/73/73 75/75/75 74/74/74
f 74/74/74 75/75/75 76/76/76
f 77/77/77 79/79/79 78/78/78
f 78/78/78 79/79/79 80/80/80
f 81/81/81 83/83/83 82/82/82
f 84/84/84 83/83/83 81/81/81
f 85/85/85 83/83/83 84/84/84
f 86/86/86 88/88/88 87/87/87
f 88/88/88 89/89/89 87/87/87
f 90/90/90 92/92/92 91/91/91
f 93/93/93 92/92/92 90/90/90
f 94/94/94 96/96/96 95/95/95
f 95/95/95 96/96/96 97/97/97
f 97/97/97 96/96/96 98/98/98
f 99/99/99 101/101/101 100/100/100
f 99/99/99 102/102/102 101/101/101
f 103/103/103 105/105/105 104/104/104
f 104/104/104 105/105/105 106/106/106
f 107/107/107 109/109/109 108/108/108
f 110/110/110 112/112/112 111/111/111
f 113/113/113 115/115/115 114/114/114
f 113/113/113 114/114/114 116/116/116
f 117/117/117 119/119/119 118/118/118
f 120/120/120 122/122/122 121/121/121
f 123/123/123 125/125/125 124/124/124
f 125/125/125 126/126/126 124/124/124
f 127/127/127 129/129/129 128/128/128
f 130/130/130 129/129/129 127/127/127
f 131/131/131 133/133/133 132/132/132
f 134/134/134 133/133/133 131/131/131
f 135/135/135 133/133/133 134/134/134
f 136/136/136 138/138/138 137/137/137
f 136/136/136 139/139/139 138/138/138
f 140/140/140 142/142/142 141/141/141
f 141/141/141 142/142/142 143/143/143
f 144/144/144 146/146/146 145/145/145
f 145/145/145 146/146/146 147/147/147
f 147/147/147 146/146/146 148/148/148
f 149/149/149 151/151/151 150/150/150
f 152/152/152 154/154/154 153/153/153
f 155/155/155 157/157/157 156/156/156
f 155/155/155 156/156/156 158/158/158
f 159/159/159 161/161/161 160/160/160
f 162/162/162 164/164/164 163/163/163
g Combined_Mesh_(root:_scene)_3
usemtl Combined_Mesh_(root:_scene)_3
usemap Combined_Mesh_(root:_scene)_3
f 165/165/165 167/167/167 166/166/166
f 165/165/165 166/166/166 168/168/168
f 169/169/169 171/171/171 170/170/170
f 169/169/169 170/170/170 172/172/172
f 173/173/173 175/175/175 174/174/174
f 173/173/173 174/174/174 176/176/176
f 177/177/177 179/179/179 178/178/178
f 177/177/177 178/178/178 180/180/180
f 181/181/181 183/183/183 182/182/182
f 181/181/181 182/182/182 184/184/184
f 185/185/185 187/187/187 186/186/186
f 185/185/185 186/186/186 188/188/188
f 189/189/189 191/191/191 190/190/190
f 189/189/189 190/190/190 192/192/192
f 193/193/193 195/195/195 194/194/194
f 194/194/194 195/195/195 196/196/196
f 197/197/197 199/199/199 198/198/198
f 200/200/200 198/198/198 201/201/201
f 198/198/198 199/199/199 201/201/201
f 202/202/202 198/198/198 203/203/203
f 203/203/203 198/198/198 200/200/200
f 204/204/204 205/205/205 203/203/203
f 203/203/203 206/206/206 202/202/202
f 205/205/205 206/206/206 203/203/203
f 202/202/202 206/206/206 207/207/207
f 208/208/208 201/201/201 209/209/209
f 208/208/208 200/200/200 201/201/201
f 210/210/210 205/205/205 204/204/204
f 211/211/211 213/213/213 212/212/212
f 212/212/212 213/213/213 214/214/214
f 215/215/215 217/217/217 216/216/216
f 218/218/218 215/215/215 219/219/219
f 217/217/217 215/215/215 218/218/218
f 219/219/219 221/221/221 220/220/220
f 215/215/215 221/221/221 219/219/219
f 222/222/222 218/218/218 223/223/223
f 218/218/218 219/219/219 223/223/223
f 224/224/224 226/226/226 225/225/225
f 227/227/227 226/226/226 224/224/224
f 228/228/228 230/230/230 229/229/229
f 228/228/228 220/220/220 230/230/230
f 220/220/220 221/221/221 230/230/230
f 230/230/230 221/221/221 231/231/231
f 232/232/232 231/231/231 221/221/221
g Combined_Mesh_(root:_scene)_4
usemtl Combined_Mesh_(root:_scene)_4
usemap Combined_Mesh_(root:_scene)_4
f 233/233/233 235/235/235 234/234/234
f 233/233/233 234/234/234 236/236/236
f 237/237/237 239/239/239 238/238/238
f 237/237/237 238/238/238 240/240/240
f 241/241/241 243/243/243 242/242/242
f 241/241/241 242/242/242 244/244/244
f 245/245/245 247/247/247 246/246/246
f 245/245/245 246/246/246 248/248/248
f 249/249/249 251/251/251 250/250/250
f 249/249/249 250/250/250 252/252/252
f 253/253/253 255/255/255 254/254/254
f 253/253/253 254/254/254 256/256/256
f 257/257/257 259/259/259 258/258/258
f 257/257/257 258/258/258 260/260/260
f 261/261/261 263/263/263 262/262/262
f 261/261/261 262/262/262 264/264/264
g Combined_Mesh_(root:_scene)_5
usemtl Combined_Mesh_(root:_scene)_5
usemap Combined_Mesh_(root:_scene)_5
f 265/265/265 267/267/267 266/266/266
f 266/266/266 267/267/267 268/268/268
f 269/269/269 271/271/271 270/270/270
f 270/270/270 272/272/272 269/269/269
f 269/269/269 272/272/272 273/273/273
f 273/273/273 272/272/272 274/274/274
f 275/275/275 277/277/277 276/276/276
f 275/275/275 276/276/276 278/278/278
f 279/279/279 281/281/281 280/280/280
f 279/279/279 280/280/280 282/282/282
f 283/283/283 285/285/285 284/284/284
f 283/283/283 284/284/284 286/286/286
f 287/287/287 289/289/289 288/288/288
f 287/287/287 288/288/288 290/290/290
f 291/291/291 293/293/293 292/292/292
f 291/291/291 292/292/292 294/294/294
f 295/295/295 297/297/297 296/296/296
f 295/295/295 296/296/296 298/298/298
f 299/299/299 301/301/301 300/300/300
f 299/299/299 300/300/300 302/302/302
f 303/303/303 305/305/305 304/304/304
f 303/303/303 304/304/304 306/306/306
f 307/307/307 309/309/309 308/308/308
f 307/307/307 308/308/308 310/310/310
f 311/311/311 313/313/313 312/312/312
f 311/311/311 312/312/312 314/314/314
f 315/315/315 317/317/317 316/316/316
f 315/315/315 316/316/316 318/318/318
f 319/319/319 321/321/321 320/320/320
f 319/319/319 320/320/320 322/322/322
f 323/323/323 325/325/325 324/324/324
f 323/323/323 324/324/324 326/326/326
f 327/327/327 329/329/329 328/328/328
f 327/327/327 328/328/328 330/330/330
g Combined_Mesh_(root:_scene)_6
usemtl Combined_Mesh_(root:_scene)_6
usemap Combined_Mesh_(root:_scene)_6
f 331/331/331 333/333/333 332/332/332
f 331/331/331 332/332/332 334/334/334
f 335/335/335 337/337/337 336/336/336
f 335/335/335 336/336/336 338/338/338
f 339/339/339 341/341/341 340/340/340
f 339/339/339 340/340/340 342/342/342
f 343/343/343 345/345/345 344/344/344
f 343/343/343 344/344/344 346/346/346
f 347/347/347 349/349/349 348/348/348
f 347/347/347 348/348/348 350/350/350
f 351/351/351 353/353/353 352/352/352
f 351/351/351 352/352/352 354/354/354
f 355/355/355 357/357/357 356/356/356
f 355/355/355 356/356/356 358/358/358
f 359/359/359 361/361/361 360/360/360
f 359/359/359 360/360/360 362/362/362
f 363/363/363 365/365/365 364/364/364
f 363/363/363 364/364/364 366/366/366
f 367/367/367 369/369/369 368/368/368
f 367/367/367 368/368/368 370/370/370
f 371/371/371 373/373/373 372/372/372
f 371/371/371 372/372/372 374/374/374
f 375/375/375 377/377/377 376/376/376
f 375/375/375 376/376/376 378/378/378
f 379/379/379 381/381/381 380/380/380
f 379/379/379 380/380/380 382/382/382
f 383/383/383 385/385/385 384/384/384
f 383/383/383 384/384/384 386/386/386
f 387/387/387 389/389/389 388/388/388
f 387/387/387 388/388/388 390/390/390
f 391/391/391 393/393/393 392/392/392
f 391/391/391 392/392/392 394/394/394
f 395/395/395 397/397/397 396/396/396
f 395/395/395 396/396/396 398/398/398
