#Floor-detach_740_34.obj

v -8 1 8
v -8 1 2
v -7 1 -4
v -7 1 8
v -8 1 -4
v 3 0 8
v 3 0 -4
v 3 1 -4
v 3 1 8
v 3 0 -4
v 3 0 8
v -7 0 -4
v -7 0 8
v -7 0 8
v -7 1 8
v -7 0 -4
v -7 1 -4
v 3 1 8
v 3 1 -4
v 4 1 8
v 4 1 -4

vn 0 1 0
vn 0 1 0
vn 0 1 0
vn 0 1 0
vn 0 1 0
vn -1 0 0
vn -1 0 0
vn -1 0 0
vn -1 0 0
vn 0 1 0
vn 0 1 0
vn 0 1 0
vn 0 1 0
vn 1 0 0
vn 1 0 0
vn 1 0 0
vn 1 0 0
vn 0 1 0
vn 0 1 0
vn 0 1 0
vn 0 1 0

vt 1 12
vt 1 6
vt 0 0
vt 0 12
vt 1 0
vt 12 0
vt 0 0
vt 0 1
vt 12 1
vt 0 0
vt 0 12
vt 10 0
vt 10 12
vt 0 0
vt 0 1
vt 12 0
vt 12 1
vt 1 12
vt 1 0
vt 0 12
vt 0 0

g Floor-detach_740_34
usemtl Floor-detach_740_34
usemap Floor-detach_740_34
f 1/1/1 3/3/3 2/2/2
f 4/4/4 3/3/3 1/1/1
f 2/2/2 3/3/3 5/5/5
f 6/6/6 8/8/8 7/7/7
f 9/9/9 8/8/8 6/6/6
f 10/10/10 12/12/12 11/11/11
f 11/11/11 12/12/12 13/13/13
f 14/14/14 16/16/16 15/15/15
f 15/15/15 16/16/16 17/17/17
f 18/18/18 20/20/20 19/19/19
f 19/19/19 20/20/20 21/21/21
