#Floor-detach_1234_160.obj

v -14 -2 -33
v -14 -2 -26
v -17 -2 -28
v -8 -2 -26
v -17 -2 -23
v -8 -2 -23
v -27 -2 -32
v -27 -2 -28
v -27 -2 -33
v -28 -2 -28
v -28 -2 -32
v -33 -2 -33
v -28 -2 -33
v -32 -2 -13
v -32 -2 -14
v -29 -2 -14
v -29 -2 -13
v -33 -2 -14
v -28 -2 -28
v -28 -2 -14
v -33 -2 -33

vn 0 1 0
vn 0 1 0
vn 0 1 0
vn 0 1 0
vn 0 1 0
vn 0 1 0
vn 0 0.9999999 0
vn 0 1 0
vn 0 1 0
vn 0 1 0
vn 0 1 0
vn 0 1 0
vn 0 1 0
vn 0 1 0
vn 0 1 0
vn 0 1 0
vn 0 1 0
vn 0 0.9999999 0
vn 0 0.9999999 0
vn 0 1 0
vn 0 1 0

vt 6 0
vt 6 7
vt 9 5
vt 0 7
vt 9 10
vt 0 10
vt 19 1
vt 19 5
vt 19 0
vt 20 5
vt 20 1
vt 25 0
vt 20 0
vt 4 20
vt 4 19
vt 1 19
vt 1 20
vt 5 19
vt 0 5
vt 0 19
vt 5 0

g Floor-detach_1234_160
usemtl Floor-detach_1234_160
usemap Floor-detach_1234_160
f 1/1/1 3/3/3 2/2/2
f 4/4/4 2/2/2 5/5/5
f 4/4/4 5/5/5 6/6/6
f 5/5/5 2/2/2 3/3/3
f 1/1/1 7/7/7 3/3/3
f 3/3/3 7/7/7 8/8/8
f 9/9/9 7/7/7 1/1/1
f 8/8/8 7/7/7 10/10/10
f 10/10/10 7/7/7 11/11/11
f 10/10/10 11/11/11 12/12/12
f 12/12/12 11/11/11 13/13/13
f 14/14/14 16/16/16 15/15/15
f 17/17/17 16/16/16 14/14/14
f 18/18/18 15/15/15 19/19/19
f 15/15/15 16/16/16 19/19/19
f 19/19/19 16/16/16 20/20/20
f 21/21/21 18/18/18 19/19/19
