#Floor_742_27.obj

v -5 1 70
v -4 1 70
v -5 1 71
v -4 1 71
v -7 0 74
v -5 1 71
v -5 1 74
v -7 0 71
v -10 0 74
v -7 0 71
v -7 0 74
v -10 0 71
v -10 -3 65
v -7 0 71
v -10 0 71
v -7 -3 65
v -5 -3 61
v -5 -3 64
v -7 -3 64
v -10 -3 64
v -14 -3 61
v -11 -3 64
v -11 -3 74
v -14 -3 61
v -11 -3 64
v -14 -3 71
v -5 1 74
v -5 1 71
v -3 1 74
v -3 1 71
v -14 -3 71
v -11 -3 74
v -27 -3 74
v -27 -3 71
v -38 1 68
v -35 1 68
v -35 1 71
v -35 1 74
v -38 1 74
v -35 1 74
v -35 1 71
v -27 -3 71
v -27 -3 74
v -7 -3 65
v -10 -3 64
v -7 -3 64
v -10 -3 65

vn 0 1 0
vn 0 1 0
vn 0 1 0
vn 0 1 0
vn -0.4472136 0.8944272 0
vn -0.4472136 0.8944272 0
vn -0.4472136 0.8944272 0
vn -0.4472136 0.8944272 0
vn 0 1 0
vn 0 1 0
vn 0 1 0
vn 0 1 0
vn 0 0.8944272 -0.4472136
vn 0 0.8944272 -0.4472136
vn 0 0.8944272 -0.4472136
vn 0 0.8944272 -0.4472136
vn 0 1 0
vn 0 1 0
vn 0 1 0
vn 0 1 0
vn 0 1 0
vn 0 1 0
vn 0 1 0
vn 0 1 0
vn 0 1 0
vn 0 1 0
vn 0 1 0
vn 0 1 0
vn 0 1 0
vn 0 1 0
vn 0 1 0
vn 0 1 0
vn 0 1 0
vn 0 1 0
vn 0 1 0
vn 0 1 0
vn 0 1 0
vn 0 1 0
vn 0 1 0
vn 0.4472136 0.8944272 0
vn 0.4472136 0.8944272 0
vn 0.4472136 0.8944272 0
vn 0.4472136 0.8944272 0
vn 0 1 0
vn 0 1 0
vn 0 1 0
vn 0 1 0

vt 1 0
vt 0 0
vt 1 1
vt 0 1
vt 2.236068 3
vt 0 0
vt 0 3
vt 2.236068 0
vt 3 3
vt 0 0
vt 0 3
vt 3 0
vt 3 3.814697E-06
vt 0 6.496094
vt 3 6.496094
vt 0 3.814697E-06
vt 0 0
vt 0 3
vt 2 3
vt 5 3
vt 9 0
vt 6 3
vt 0 13
vt 3 0
vt 0 3
vt 3 10
vt 2 3
vt 2 0
vt 0 3
vt 0 0
vt 3 0
vt 0 3
vt 16 3
vt 16 0
vt 3 0
vt 0 0
vt 0 3
vt 0 6
vt 3 6
vt 8.944271 3
vt 8.944271 0
vt 0 0
vt 0 3
vt 0 1
vt 3 0
vt 0 0
vt 3 1

g Floor_742_27
usemtl Floor_742_27
usemap Floor_742_27
f 1/1/1 3/3/3 2/2/2
f 2/2/2 3/3/3 4/4/4
f 5/5/5 7/7/7 6/6/6
f 5/5/5 6/6/6 8/8/8
f 9/9/9 11/11/11 10/10/10
f 9/9/9 10/10/10 12/12/12
f 13/13/13 15/15/15 14/14/14
f 13/13/13 14/14/14 16/16/16
f 17/17/17 19/19/19 18/18/18
f 17/17/17 20/20/20 19/19/19
f 21/21/21 20/20/20 17/17/17
f 22/22/22 20/20/20 21/21/21
f 23/23/23 25/25/25 24/24/24
f 23/23/23 24/24/24 26/26/26
f 27/27/27 29/29/29 28/28/28
f 28/28/28 29/29/29 30/30/30
f 31/31/31 33/33/33 32/32/32
f 34/34/34 33/33/33 31/31/31
f 35/35/35 37/37/37 36/36/36
f 38/38/38 37/37/37 39/39/39
f 39/39/39 37/37/37 35/35/35
f 40/40/40 42/42/42 41/41/41
f 40/40/40 43/43/43 42/42/42
f 44/44/44 46/46/46 45/45/45
f 44/44/44 45/45/45 47/47/47
