#Floor-detach_757_37.obj

v 12 1 20
v 6 1 14
v 12 1 14
v 6 1 20
v 12 1 24
v 6 1 20
v 12 1 20
v 6 1 24
v 17 -1 14
v 12 1 20
v 12 1 14
v 17 -1 20
v 21 -1 14
v 25 -1 20
v 19 -1 20
v 27 -1 14
v 27 -1 20
v 17 -1 20
v 21 -1 14
v 19 -1 20
v 17 -1 14
v 21 -1 13
v 27 -1 14
v 21 -1 14
v 27 -1 13
v 6 1 8
v 12 1 14
v 6 1 14
v 12 1 8

vn 0 1 0
vn 0 1 0
vn 0 1 0
vn 0 1 0
vn 0 1 0
vn 0 1 0
vn 0 1 0
vn 0 1 0
vn 0.3713907 0.9284766 0
vn 0.3713907 0.9284766 0
vn 0.3713907 0.9284766 0
vn 0.3713907 0.9284766 0
vn 0 1 0
vn 0 1 0
vn 0 1 0
vn 0 1 0
vn 0 1 0
vn 0 1 0
vn 0 1 0
vn 0 1 0
vn 0 1 0
vn 0 1 0
vn 0 1 0
vn 0 1 0
vn 0 1 0
vn 0 1 0
vn 0 1 0
vn 0 1 0
vn 0 1 0

vt 0 6
vt 6 0
vt 0 0
vt 6 6
vt 0 4
vt 6 0
vt 0 0
vt 6 4
vt 0 0
vt 6 6
vt 6 0
vt 0 6
vt 6 0
vt 2 6
vt 8 6
vt 0 0
vt 0 6
vt 4 6
vt 0 0
vt 2 6
vt 4 0
vt 6 0
vt 0 1
vt 6 1
vt 0 0
vt 6 0
vt 0 6
vt 6 6
vt 0 0

g Floor-detach_757_37
usemtl Floor-detach_757_37
usemap Floor-detach_757_37
f 1/1/1 3/3/3 2/2/2
f 1/1/1 2/2/2 4/4/4
f 5/5/5 7/7/7 6/6/6
f 5/5/5 6/6/6 8/8/8
f 9/9/9 11/11/11 10/10/10
f 9/9/9 10/10/10 12/12/12
f 13/13/13 15/15/15 14/14/14
f 13/13/13 14/14/14 16/16/16
f 16/16/16 14/14/14 17/17/17
f 18/18/18 20/20/20 19/19/19
f 18/18/18 19/19/19 21/21/21
f 22/22/22 24/24/24 23/23/23
f 22/22/22 23/23/23 25/25/25
f 26/26/26 28/28/28 27/27/27
f 26/26/26 27/27/27 29/29/29
