#Floor_844_38.obj

v 21 -2 30
v 36 1 30
v 21 1 30
v 36 -2 30
v 36 -2 27
v 36 1 30
v 36 -2 30
v 36 1 27
v 21 1 27
v 21 -2 30
v 21 1 30
v 21 -2 27
v 36 1 17
v 36 -2 4
v 36 1 4
v 36 -2 17
v 21 -2 18
v 21 1 4
v 21 -2 4
v 21 1 18
v 19 2 34
v 18 2 34
v 19 2 33
v 36 -2 27
v 36 1 17
v 36 1 27
v 36 -2 17
v 21 -2 20
v 13 2 17
v 21 -2 18
v 13 2 20
v 11 2 20
v 13 2 17
v 13 2 20
v 11 2 17
v 11 2 16
v 13 2 17
v 11 2 17
v 13 2 16
v 15 1 18
v 21 1 18
v 21 -2 18

vn 0 0 -1
vn 0 0 -1
vn 0 0 -1
vn 0 0 -1
vn -1 0 0
vn -1 0 0
vn -1 0 0
vn -1 0 0
vn 1 0 0
vn 1 0 0
vn 1 0 0
vn 1 0 0
vn -1 0 0
vn -1 0 0
vn -1 0 0
vn -1 0 0
vn 1 0 0
vn 1 0 0
vn 1 0 0
vn 1 0 0
vn 0 1 0
vn 0 1 0
vn 0 1 0
vn -1 0 0
vn -1 0 0
vn -1 0 0
vn -1 0 0
vn 0.4472136 0.8944272 0
vn 0.4472136 0.8944272 0
vn 0.4472136 0.8944272 0
vn 0.4472136 0.8944272 0
vn 0 1 0
vn 0 1 0
vn 0 1 0
vn 0 1 0
vn 0 1 0
vn 0 1 0
vn 0 1 0
vn 0 1 0
vn 0 0 1
vn 0 0 1
vn 0 0 1

vt 15 0
vt 0 3
vt 15 3
vt 0 0
vt 0 0
vt 3 3
vt 3 0
vt 0 3
vt 3 3
vt 0 0
vt 0 3
vt 3 0
vt 13 3
vt 0 0
vt 0 3
vt 13 0
vt 0 0
vt 14 3
vt 14 0
vt 0 3
vt 0 1
vt 1 1
vt 0 0
vt 10 0
vt 0 3
vt 10 3
vt 0 0
vt 0 3
vt 8.944273 0
vt 0 1
vt 8.944273 3
vt 2 3
vt 0 0
vt 0 3
vt 2 0
vt 2 0
vt 0 1
vt 2 1
vt 0 0
vt 0 3
vt 6 3
vt 6 0

g Floor_844_38
usemtl Floor_844_38
usemap Floor_844_38
f 1/1/1 3/3/3 2/2/2
f 1/1/1 2/2/2 4/4/4
f 5/5/5 7/7/7 6/6/6
f 5/5/5 6/6/6 8/8/8
f 9/9/9 11/11/11 10/10/10
f 9/9/9 10/10/10 12/12/12
f 13/13/13 15/15/15 14/14/14
f 13/13/13 14/14/14 16/16/16
f 17/17/17 19/19/19 18/18/18
f 17/17/17 18/18/18 20/20/20
f 21/21/21 23/23/23 22/22/22
f 24/24/24 26/26/26 25/25/25
f 24/24/24 25/25/25 27/27/27
f 28/28/28 30/30/30 29/29/29
f 28/28/28 29/29/29 31/31/31
f 32/32/32 34/34/34 33/33/33
f 32/32/32 33/33/33 35/35/35
f 36/36/36 38/38/38 37/37/37
f 36/36/36 37/37/37 39/39/39
f 40/40/40 42/42/42 41/41/41
