#Floor-detach_1287_61.obj

v 63 -7 -8
v 53 -7 -4
v 53 -7 -8
v 53 -7 1
v 63 -7 1
v 52 -7 11
v 52 -7 1
v 54 -7 11
v 63 -7 1
v 63 -7 44
v 54 -7 24
v 52 -7 24
v 52 -7 38
v 52 -7 44

vn 0 1 0
vn 0 1 0
vn 0 1 0
vn 0 1 0
vn 0 1 0
vn 0 1 0
vn 0 1 0
vn 0 1 0
vn 0 0.9999999 0
vn 0 1 0
vn 0 1 0
vn 0 0.9999999 0
vn 0 0.9999999 0
vn 0 1 0

vt 0 0
vt 10 4
vt 10 0
vt 10 9
vt 0 9
vt 11 10
vt 11 0
vt 9 10
vt 0 0
vt 0 43
vt 9 23
vt 11 23
vt 11 37
vt 11 43

g Floor-detach_1287_61
usemtl Floor-detach_1287_61
usemap Floor-detach_1287_61
f 1/1/1 3/3/3 2/2/2
f 2/2/2 4/4/4 1/1/1
f 1/1/1 4/4/4 5/5/5
f 6/6/6 8/8/8 7/7/7
f 7/7/7 8/8/8 9/9/9
f 10/10/10 9/9/9 8/8/8
f 8/8/8 11/11/11 10/10/10
f 11/11/11 12/12/12 10/10/10
f 12/12/12 13/13/13 10/10/10
f 10/10/10 13/13/13 14/14/14
