#Floor-detach_1292_161.obj

v 2 -2 -17
v 7 -2 -23
v 7 -2 -17
v 2 -2 -23
v -8 -2 -21
v -8 -2 -23
v -7 -2 -21
v 2 -2 -23
v -7 -2 -20
v -6 -2 -20
v -6 -2 -19
v -5 -2 -19
v -5 -2 -18
v -3 -2 -18
v 2 -2 -17
v -3 -2 -17

vn 0 1 0
vn 0 1 0
vn 0 1 0
vn 0 1 0
vn 0 1 0
vn 0 1 0
vn 0 1 0
vn 0 1 0
vn 0 1 0
vn 0 1 0
vn 0 1 0
vn 0 1 0
vn 0 1 0
vn 0 1 0
vn 0 1 0
vn 0 1 0

vt 5 6
vt 0 0
vt 0 6
vt 5 0
vt 10 2
vt 10 0
vt 9 2
vt 0 0
vt 9 3
vt 8 3
vt 8 4
vt 7 4
vt 7 5
vt 5 5
vt 0 6
vt 5 6

g Floor-detach_1292_161
usemtl Floor-detach_1292_161
usemap Floor-detach_1292_161
f 1/1/1 3/3/3 2/2/2
f 1/1/1 2/2/2 4/4/4
f 5/5/5 7/7/7 6/6/6
f 7/7/7 8/8/8 6/6/6
f 9/9/9 10/10/10 7/7/7
f 10/10/10 8/8/8 7/7/7
f 11/11/11 8/8/8 10/10/10
f 12/12/12 8/8/8 11/11/11
f 13/13/13 14/14/14 12/12/12
f 14/14/14 8/8/8 12/12/12
f 15/15/15 8/8/8 16/16/16
f 16/16/16 8/8/8 14/14/14
