#Floor_706_66.obj

v 12 -2 10
v 12 0 0
v 12 0 10
v 12 -2 0
v 5 -2 0
v 5 0 10
v 5 0 0
v 5 -2 10
v 12 -2 0
v 5 0 0
v 12 0 0
v 5 -2 0
v 5 -2 10
v 12 -2 0
v 12 -2 10
v 5 -2 0
v 12 -1 20.5
v 9 -1 20.5
v 9 -1 17.5
v 12 -1 17.5
v 12 0 20.5
v 9 0 20.5
v 12 -1 20.5
v 9 -1 20.5
v 9 0 20.5
v 9 0 17.5
v 9 -1 20.5
v 9 -1 17.5
v 12 0 17.5
v 12 0 20.5
v 12 -1 17.5
v 12 -1 20.5
v 9 0 17.5
v 12 0 17.5
v 9 -1 17.5
v 12 -1 17.5
v 5 -2 10
v 12 -2 10
v 5 0 10
v 12 0 10

vn -1 0 0
vn -1 0 0
vn -1 0 0
vn -1 0 0
vn 1 0 0
vn 1 0 0
vn 1 0 0
vn 1 0 0
vn 0 0 1
vn 0 0 1
vn 0 0 1
vn 0 0 1
vn 0 1 0
vn 0 1 0
vn 0 1 0
vn 0 1 0
vn 0 1 0
vn 0 1 0
vn 0 1 0
vn 0 1 0
vn 0 0 -1
vn 0 0 -1
vn 0 0 -1
vn 0 0 -1
vn 1 0 0
vn 1 0 0
vn 1 0 0
vn 1 0 0
vn -1 0 0
vn -1 0 0
vn -1 0 0
vn -1 0 0
vn 0 0 1
vn 0 0 1
vn 0 0 1
vn 0 0 1
vn 0 0 -1
vn 0 0 -1
vn 0 0 -1
vn 0 0 -1

vt 10 0
vt 0 2
vt 10 2
vt 0 0
vt 10 0
vt 0 2
vt 10 2
vt 0 0
vt 7 0
vt 0 2
vt 7 2
vt 0 0
vt 7 10
vt 0 0
vt 0 10
vt 7 0
vt 0 3
vt 3 3
vt 3 0
vt 0 0
vt 0 1
vt 3 1
vt 0 0
vt 3 0
vt 0 1
vt 3 1
vt 0 0
vt 3 0
vt 0 1
vt 3 1
vt 0 0
vt 3 0
vt 0 1
vt 3 1
vt 0 0
vt 3 0
vt 7 0
vt 0 0
vt 7 2
vt 0 2

g Floor_706_66
usemtl Floor_706_66
usemap Floor_706_66
f 1/1/1 3/3/3 2/2/2
f 1/1/1 2/2/2 4/4/4
f 5/5/5 7/7/7 6/6/6
f 5/5/5 6/6/6 8/8/8
f 9/9/9 11/11/11 10/10/10
f 9/9/9 10/10/10 12/12/12
f 13/13/13 15/15/15 14/14/14
f 13/13/13 14/14/14 16/16/16
f 17/17/17 19/19/19 18/18/18
f 20/20/20 19/19/19 17/17/17
f 21/21/21 23/23/23 22/22/22
f 22/22/22 23/23/23 24/24/24
f 25/25/25 27/27/27 26/26/26
f 26/26/26 27/27/27 28/28/28
f 29/29/29 31/31/31 30/30/30
f 30/30/30 31/31/31 32/32/32
f 33/33/33 35/35/35 34/34/34
f 34/34/34 35/35/35 36/36/36
f 37/37/37 39/39/39 38/38/38
f 38/38/38 39/39/39 40/40/40
