#Floor_706_67.obj

v 15 0 -8
v 13 0 -6
v 13 0 -8
v 15 0 -6
v 25 0 -8
v 21 0 -4
v 21 0 -8
v 25 0 -4
v 21 0 -8
v 15 0 -6
v 15 0 -8
v 21 0 -4
v 15 0 -4
v 15 0 -1
v 14 0 2
v 14 0 -1
v 15 0 2
v 15 0 4
v 15 0 2
v 19 0 4
v 15 0 -1
v 19 0 -3
v 15 0 -3
v 21 0 -3
v 19 0 1
v 20 0 1
v 25 0 -3
v 25 0 1
v 21 0 -4
v 25 0 -4
v 21 0 -3
v 25 0 -3
v 25 0 12
v 20 0 1
v 25 0 1
v 20 0 12
v 25 0 15
v 20 0 12
v 25 0 12
v 20 0 15
v 20 0 12
v 20 0 15
v 19 0 12
v 19 0 15
v 15 0 11
v 14 0 14
v 14 0 11
v 15 0 14
v 19 0 12
v 15 0 11
v 15 0 9
v 19 0 9
v 15 0 14
v 19 0 15
v 15 0 15
v 19 0 17
v 15 0 15
v 19 0 15
v 15 0 17
v 14 0 17
v 15 0 15
v 15 0 17
v 14 0 15
v 9 0 -8
v 13 0 -8
v 9 0 -5
v 13 0 -6
v 13 0 -4
v 9 0 -4
v 9 0 -5
v 13 0 -6

vn 0 1 0
vn 0 1 0
vn 0 1 0
vn 0 1 0
vn 0 1 0
vn 0 1 0
vn 0 1 0
vn 0 1 0
vn 0 1 0
vn 0 1 0
vn 0 1 0
vn 0 1 0
vn 0 1 0
vn 0 1 0
vn 0 1 0
vn 0 1 0
vn 0 1 0
vn 0 1 0
vn 0 1 0
vn 0 1 0
vn 0 1 0
vn 0 1 0
vn 0 1 0
vn 0 1 0
vn 0 1 0
vn 0 1 0
vn 0 1 0
vn 0 1 0
vn 0 1 0
vn 0 1 0
vn 0 1 0
vn 0 1 0
vn 0 0.9999999 0
vn 0 0.9999999 0
vn 0 0.9999999 0
vn 0 0.9999999 0
vn 0 1 0
vn 0 1 0
vn 0 1 0
vn 0 1 0
vn 0 1 0
vn 0 1 0
vn 0 1 0
vn 0 1 0
vn 0 1 0
vn 0 1 0
vn 0 1 0
vn 0 1 0
vn 0 1 0
vn 0 1 0
vn 0 1 0
vn 0 1 0
vn 0 1 0
vn 0 1 0
vn 0 1 0
vn 0 1 0
vn 0 1 0
vn 0 1 0
vn 0 1 0
vn 0 1 0
vn 0 1 0
vn 0 1 0
vn 0 1 0
vn 0 1 0
vn 0 1 0
vn 0 1 0
vn 0 1 0
vn 0 1 0
vn 0 1 0
vn 0 1 0
vn 0 1 0

vt 0 0
vt 2 2
vt 2 0
vt 0 2
vt 0 0
vt 4 4
vt 4 0
vt 0 4
vt 0 0
vt 6 2
vt 6 0
vt 0 4
vt 6 4
vt 0 0
vt 1 3
vt 1 0
vt 0 3
vt 10 7.000047
vt 10 5.000047
vt 6 7.000047
vt 10 2.000047
vt 6 4.673004E-05
vt 10 4.673004E-05
vt 4 4.673004E-05
vt 6 4.000047
vt 5 4.000047
vt 0 4.673004E-05
vt 0 4.000047
vt 4 4.62532E-05
vt 0 4.62532E-05
vt 4 1.000046
vt 0 1.000046
vt 0 11
vt 5 0
vt 0 0
vt 5 11
vt 0 3
vt 5 0
vt 0 0
vt 5 3
vt 0 2.288818E-05
vt 0 3.000023
vt 1 2.288818E-05
vt 1 3.000023
vt 0 0
vt 1 3
vt 1 0
vt 0 3
vt 0 3.000019
vt 4 2.000019
vt 4 1.907349E-05
vt 0 1.907349E-05
vt 4 5.000019
vt 0 6.000019
vt 4 6.000019
vt 0 2
vt 4 0
vt 0 0
vt 4 2
vt 1 2
vt 0 0
vt 0 2
vt 1 0
vt 4 0
vt 0 0
vt 4 3
vt 0 2
vt 0 2
vt 4 2
vt 4 1
vt 0 0

g Floor_706_67
usemtl Floor_706_67
usemap Floor_706_67
f 1/1/1 3/3/3 2/2/2
f 1/1/1 2/2/2 4/4/4
f 5/5/5 7/7/7 6/6/6
f 5/5/5 6/6/6 8/8/8
f 9/9/9 11/11/11 10/10/10
f 9/9/9 10/10/10 12/12/12
f 12/12/12 10/10/10 13/13/13
f 14/14/14 16/16/16 15/15/15
f 14/14/14 15/15/15 17/17/17
f 18/18/18 20/20/20 19/19/19
f 19/19/19 22/22/22 21/21/21
f 20/20/20 22/22/22 19/19/19
f 21/21/21 22/22/22 23/23/23
f 24/24/24 22/22/22 25/25/25
f 25/25/25 26/26/26 24/24/24
f 27/27/27 24/24/24 28/28/28
f 28/28/28 24/24/24 26/26/26
f 29/29/29 31/31/31 30/30/30
f 30/30/30 31/31/31 32/32/32
f 33/33/33 35/35/35 34/34/34
f 33/33/33 34/34/34 36/36/36
f 37/37/37 39/39/39 38/38/38
f 37/37/37 38/38/38 40/40/40
f 41/41/41 43/43/43 42/42/42
f 42/42/42 43/43/43 44/44/44
f 45/45/45 47/47/47 46/46/46
f 45/45/45 46/46/46 48/48/48
f 49/49/49 51/51/51 50/50/50
f 52/52/52 51/51/51 49/49/49
f 50/50/50 53/53/53 49/49/49
f 49/49/49 55/55/55 54/54/54
f 53/53/53 55/55/55 49/49/49
f 56/56/56 58/58/58 57/57/57
f 56/56/56 57/57/57 59/59/59
f 60/60/60 62/62/62 61/61/61
f 60/60/60 61/61/61 63/63/63
f 64/64/64 66/66/66 65/65/65
f 65/65/65 66/66/66 67/67/67
f 68/68/68 70/70/70 69/69/69
f 71/71/71 70/70/70 68/68/68
