#Floor-detach_912_29.obj

v 31 6 11
v 27 6 -5
v 31 6 -5
v 27 6 11
v 8 1 -16
v 14 1 -5
v 8 1 -5
v 14 1 -16
v -9 1 1
v 4 1 1
v -9 1 7
v 4 1 7
v -9 1 1
v -10 1 1
v -10 1 -5
v 4 1 1
v 8 1 -5
v 8 1 1
v -10 1 1
v -28 6 1
v -10 1 -5
v -28 6 -5
v -34 6 -5
v -28 6 -5
v -34 6 1
v -28 6 1
v -34 6 1
v -28 6 1
v -34 6 3
v -28 6 3
v -34 6 3
v -28 6 3
v -34 9 12
v -28 9 12
v -34 9 12
v -28 9 12
v -34 9 19
v -28 9 19
v -28 9 19
v -28 9 12
v -21 9 19
v -21 9 12
v -28 9 12
v -21 8 12
v -21 9 12
v -28 8 12
v 14 1 8
v 8 1 8
v 14 1 2
v 8 1 1
v 8 1 -5
v 14 1 -5
v 14 1 8
v 27 6 11
v 14 1 11
v 27 6 -5
v 14 1 2
v 14 1 -5

vn 0 1 0
vn 0 1 0
vn 0 1 0
vn 0 1 0
vn 0 1 0
vn 0 1 0
vn 0 1 0
vn 0 1 0
vn 0 1 0
vn 0 1 0
vn 0 1 0
vn 0 1 0
vn 0 1 0
vn 0 1 0
vn 0 1 0
vn 0 1 0
vn 0 1 0
vn 0 1 0
vn 0.2676439 0.9635179 0
vn 0.2676439 0.9635179 0
vn 0.2676439 0.9635179 0
vn 0.2676439 0.9635179 0
vn 0 1 0
vn 0 1 0
vn 0 1 0
vn 0 1 0
vn 0 1 0
vn 0 1 0
vn 0 1 0
vn 0 1 0
vn 0 0.9486833 -0.3162278
vn 0 0.9486833 -0.3162278
vn 0 0.9486833 -0.3162278
vn 0 0.9486833 -0.3162278
vn 0 1 0
vn 0 1 0
vn 0 1 0
vn 0 1 0
vn 0 1 0
vn 0 1 0
vn 0 1 0
vn 0 1 0
vn 0 0 -1
vn 0 0 -1
vn 0 0 -1
vn 0 0 -1
vn 0 1 0
vn 0 1 0
vn 0 1 0
vn 0 1 0
vn 0 1 0
vn 0 1 0
vn -0.3589791 0.9333457 0
vn -0.3589791 0.9333456 0
vn -0.3589791 0.9333456 0
vn -0.3589791 0.9333456 0
vn -0.3589791 0.9333456 0
vn -0.3589791 0.9333456 0

vt 0 16
vt 4 0
vt 0 0
vt 4 16
vt 6 0
vt 0 11
vt 6 11
vt 0 0
vt 13 0
vt 0 0
vt 13 6
vt 0 6
vt 17 6
vt 18 6
vt 18 0
vt 4 6
vt 0 0
vt 0 6
vt 0 6
vt 18.01563 6
vt 0 0
vt 18.01563 0
vt 6 0
vt 0 0
vt 6 6
vt 0 6
vt 6 0
vt 0 0
vt 6 2
vt 0 2
vt 6 -4.768372E-07
vt 0 -4.768372E-07
vt 6 9
vt 4.768372E-07 9
vt 6 0
vt 0 0
vt 6 7
vt 0 7
vt 7 7
vt 7 0
vt 0 7
vt 0 0
vt 7 1
vt 0 0
vt 0 1
vt 7 0
vt 0 13
vt 6 13
vt 0 7
vt 6 6
vt 6 0
vt 0 0
vt 13.92839 13
vt 0 16
vt 13.92839 16
vt 0 0
vt 13.92839 7
vt 13.92839 0

g Floor-detach_912_29
usemtl Floor-detach_912_29
usemap Floor-detach_912_29
f 1/1/1 3/3/3 2/2/2
f 1/1/1 2/2/2 4/4/4
f 5/5/5 7/7/7 6/6/6
f 5/5/5 6/6/6 8/8/8
f 9/9/9 11/11/11 10/10/10
f 10/10/10 11/11/11 12/12/12
f 13/13/13 15/15/15 14/14/14
f 13/13/13 16/16/16 15/15/15
f 15/15/15 16/16/16 17/17/17
f 17/17/17 16/16/16 18/18/18
f 19/19/19 21/21/21 20/20/20
f 20/20/20 21/21/21 22/22/22
f 23/23/23 25/25/25 24/24/24
f 24/24/24 25/25/25 26/26/26
f 27/27/27 29/29/29 28/28/28
f 28/28/28 29/29/29 30/30/30
f 31/31/31 33/33/33 32/32/32
f 32/32/32 33/33/33 34/34/34
f 35/35/35 37/37/37 36/36/36
f 36/36/36 37/37/37 38/38/38
f 39/39/39 41/41/41 40/40/40
f 40/40/40 41/41/41 42/42/42
f 43/43/43 45/45/45 44/44/44
f 43/43/43 44/44/44 46/46/46
f 47/47/47 49/49/49 48/48/48
f 48/48/48 49/49/49 50/50/50
f 51/51/51 49/49/49 52/52/52
f 50/50/50 49/49/49 51/51/51
f 53/53/53 55/55/55 54/54/54
f 56/56/56 57/57/57 54/54/54
f 54/54/54 57/57/57 53/53/53
f 58/58/58 57/57/57 56/56/56
