#Floor-detach_1260_55.obj

v 35 -7 51
v 37 -7 47
v 37 -7 51
v 35 -7 47
v 37 -7 51
v 35 -7 47
v 35 -7 51
v 37 -7 47
v 31 -4 51
v 37 -7 47
v 37 -7 51
v 31 -4 47
v 11 -4 51
v 31 -4 47
v 31 -4 51
v 11 -4 47

vn 0 1 0
vn 0 1 0
vn 0 1 0
vn 0 1 0
vn 0 -1 0
vn 0 -1 0
vn 0 -1 0
vn 0 -1 0
vn 0.4472136 0.8944272 0
vn 0.4472136 0.8944272 0
vn 0.4472136 0.8944272 0
vn 0.4472136 0.8944272 0
vn 0 1 0
vn 0 1 0
vn 0 1 0
vn 0 1 0

vt 2 4
vt 0 0
vt 0 4
vt 2 0
vt 2 4
vt 0 0
vt 0 4
vt 2 0
vt 7 4
vt 0 0
vt 0 4
vt 7 0
vt 20 4
vt 0 0
vt 0 4
vt 20 0

g Floor-detach_1260_55
usemtl Floor-detach_1260_55
usemap Floor-detach_1260_55
f 1/1/1 3/3/3 2/2/2
f 1/1/1 2/2/2 4/4/4
f 5/5/5 7/7/7 6/6/6
f 5/5/5 6/6/6 8/8/8
f 9/9/9 11/11/11 10/10/10
f 9/9/9 10/10/10 12/12/12
f 13/13/13 15/15/15 14/14/14
f 13/13/13 14/14/14 16/16/16
