#Floor-detach_907_26.obj

v -20 6 -50
v -14 6 -50
v -20 6 -36
v -14 6 -36
v -20 6 -36
v -14 6 -36
v -20 6 -25
v -14 6 -25
v -20 6 -36
v -20 6 -25
v -27 6 -36
v -27 6 -25
v -21 6 -36
v -27 6 -36
v -21 6 -50
v -27 6 -50

vn 0 1 0
vn 0 1 0
vn 0 1 0
vn 0 1 0
vn 0 1 0
vn 0 1 0
vn 0 1 0
vn 0 1 0
vn 0 1 0
vn 0 1 0
vn 0 1 0
vn 0 1 0
vn 0 1 0
vn 0 1 0
vn 0 1 0
vn 0 1 0

vt 6 0
vt 0 0
vt 6 14
vt 0 14
vt 6 0
vt 0 0
vt 6 11
vt 0 11
vt 0 0
vt 0 11
vt 7 0
vt 7 11
vt 0 14
vt 6 14
vt 0 0
vt 6 0

g Floor-detach_907_26
usemtl Floor-detach_907_26
usemap Floor-detach_907_26
f 1/1/1 3/3/3 2/2/2
f 2/2/2 3/3/3 4/4/4
f 5/5/5 7/7/7 6/6/6
f 6/6/6 7/7/7 8/8/8
f 9/9/9 11/11/11 10/10/10
f 10/10/10 11/11/11 12/12/12
f 13/13/13 15/15/15 14/14/14
f 14/14/14 15/15/15 16/16/16
