#Floor-detach_803_32.obj

v -6 2 32
v -1 1 34
v -6 1 34
v -1 2 32
v 0 1 32
v -1 1 34
v -1 1 32
v 0 1 36
v -1 2 32
v 0 1 32
v -1 1 32
v 0 2 32
v -6 1 34
v -6 1 32
v -6 2 32
v -7 1 34
v -6 1 32
v -6 1 34
v -7 1 32
v -7 1 32
v -6 2 32
v -6 1 32
v -7 2 32
v 0 2 27
v 0 2 32
v -7 2 27
v -7 2 32
v 0 2 27
v 4 2 26
v 4 2 27
v -1 2 21
v -7 2 27
v -7 2 21
v 4 2 21
v 4 2 22
v -1 2 21
v -5 2 21
v -5 2 16
v -1 2 16
v -7 2 8
v -5 2 16
v -7 2 16
v -1 2 16
v 0 2 8
v 0 2 16
v 1 1 36
v 0 1 39
v 0 1 36
v 1 1 39
v 0 1 36
v -7 1 34
v -1 1 34
v -7 1 43
v 0 1 43
v 3 2 36
v 1 1 39
v 1 1 36
v 3 2 39
v -1 2 32
v -1 1 32
v -1 1 34

vn 0 0.8944272 0.4472136
vn 0 0.8944272 0.4472136
vn 0 0.8944272 0.4472136
vn 0 0.8944272 0.4472136
vn 0 1 0
vn 0 1 0
vn 0 1 0
vn 0 1 0
vn 0 0 1
vn 0 0 1
vn 0 0 1
vn 0 0 1
vn -1 0 0
vn -1 0 0
vn -1 0 0
vn 0 1 0
vn 0 1 0
vn 0 1 0
vn 0 1 0
vn 0 0 1
vn 0 0 1
vn 0 0 1
vn 0 0 1
vn 0 1 0
vn 0 1 0
vn 0 1 0
vn 0 1 0
vn 0 1 0
vn 0 1 0
vn 0 1 0
vn 0 1 0
vn 0 1 0
vn 0 1 0
vn 0 1 0
vn 0 1 0
vn 0 1 0
vn 0 1 0
vn 0 1 0
vn 0 1 0
vn 0 1 0
vn 0 1 0
vn 0 1 0
vn 0 1 0
vn 0 1 0
vn 0 1 0
vn 0 1 0
vn 0 1 0
vn 0 1 0
vn 0 1 0
vn 0 1 0
vn 0 1 0
vn 0 1 0
vn 0 1 0
vn 0 1 0
vn -0.4472136 0.8944272 0
vn -0.4472136 0.8944272 0
vn -0.4472136 0.8944272 0
vn -0.4472136 0.8944272 0
vn 1 0 0
vn 1 0 0
vn 1 0 0

vt 5 1.907349E-06
vt -2.384186E-07 2
vt 5 2
vt 0 1.907349E-06
vt 0 0
vt 1 2
vt 1 0
vt 0 4
vt 0 1
vt 1 0
vt 0 0
vt 1 1
vt 2 0
vt 0 0
vt 0 1
vt 1 2
vt 0 0
vt 0 2
vt 1 0
vt 0 0
vt 1 1
vt 1 0
vt 0 1
vt 0 0
vt 0 5
vt 7 0
vt 7 5
vt 4 6
vt 0 5
vt 0 6
vt 5 0
vt 11 6
vt 11 0
vt 0 0
vt 0 1
vt 0 5
vt 4 5
vt 4 0
vt 0 0
vt 7 0
vt 5 8
vt 7 8
vt 1 8
vt 0 0
vt 0 8
vt 0 0
vt 1 3
vt 1 0
vt 0 3
vt 0 2
vt 7 0
vt 1 0
vt 7 9
vt 0 9
vt 0 0
vt 2.236068 3
vt 2.236068 0
vt 0 3
vt 2 1
vt 2 0
vt 0 0

g Floor-detach_803_32
usemtl Floor-detach_803_32
usemap Floor-detach_803_32
f 1/1/1 3/3/3 2/2/2
f 1/1/1 2/2/2 4/4/4
f 5/5/5 7/7/7 6/6/6
f 5/5/5 6/6/6 8/8/8
f 9/9/9 11/11/11 10/10/10
f 9/9/9 10/10/10 12/12/12
f 13/13/13 15/15/15 14/14/14
f 16/16/16 18/18/18 17/17/17
f 16/16/16 17/17/17 19/19/19
f 20/20/20 22/22/22 21/21/21
f 20/20/20 21/21/21 23/23/23
f 24/24/24 26/26/26 25/25/25
f 25/25/25 26/26/26 27/27/27
f 28/28/28 30/30/30 29/29/29
f 31/31/31 32/32/32 28/28/28
f 31/31/31 33/33/33 32/32/32
f 28/28/28 34/34/34 31/31/31
f 29/29/29 35/35/35 28/28/28
f 28/28/28 35/35/35 34/34/34
f 36/36/36 38/38/38 37/37/37
f 39/39/39 38/38/38 36/36/36
f 40/40/40 42/42/42 41/41/41
f 43/43/43 44/44/44 41/41/41
f 41/41/41 44/44/44 40/40/40
f 45/45/45 44/44/44 43/43/43
f 46/46/46 48/48/48 47/47/47
f 46/46/46 47/47/47 49/49/49
f 50/50/50 52/52/52 51/51/51
f 51/51/51 53/53/53 50/50/50
f 50/50/50 53/53/53 54/54/54
f 55/55/55 57/57/57 56/56/56
f 55/55/55 56/56/56 58/58/58
f 59/59/59 61/61/61 60/60/60
