#Floor_1198_60.obj

v 33 -4 -11
v 29 -2 -15
v 33 -2 -15
v 29 -4 -11
v 39 -4 -4
v 29 -4 0
v 33 -4 -4
v 39 -4 0
v 29 -4 -11
v 33 -4 -11

vn 0 0.8944272 0.4472136
vn 0 0.8944272 0.4472136
vn 0 0.8944272 0.4472136
vn 0 0.8944272 0.4472136
vn 0 1 0
vn 0 1 0
vn 0 1 0
vn 0 1 0
vn 0 1 0
vn 0 1 0

vt 0 5.015625
vt 4 0
vt 0 0
vt 4 5.015625
vt 0 7
vt 10 11
vt 6 7
vt 0 11
vt 10 0
vt 6 0

g Floor_1198_60
usemtl Floor_1198_60
usemap Floor_1198_60
f 1/1/1 3/3/3 2/2/2
f 1/1/1 2/2/2 4/4/4
f 5/5/5 7/7/7 6/6/6
f 5/5/5 6/6/6 8/8/8
f 7/7/7 10/10/10 9/9/9
f 7/7/7 9/9/9 6/6/6
