#Floor-detach_1162_63.obj

v 18 -6 22
v 23 -6 24
v 18 -6 24
v 23 -6 22
v 23 -7 24
v 18 -7 24
v 23 -6 24
v 18 -6 24
v 31 -7 36
v 24 -7 24
v 29 -7 24
v 18 -7 36
v 18 -7 24
v 23 -7 24
v 31 -7 24

vn 0 1 0
vn 0 1 0
vn 0 1 0
vn 0 1 0
vn 0 0 1
vn 0 0 1
vn 0 0 1
vn 0 0 1
vn 0 1 0
vn 0 1 0
vn 0 1 0
vn 0 1 0
vn 0 1 0
vn 0 1 0
vn 0 1 0

vt 5 0
vt 0 2
vt 5 2
vt 0 0
vt 5 0
vt 0 0
vt 5 1
vt 0 1
vt 0 12
vt 7 0
vt 2 0
vt 13 12
vt 13 0
vt 8 0
vt 0 0

g Floor-detach_1162_63
usemtl Floor-detach_1162_63
usemap Floor-detach_1162_63
f 1/1/1 3/3/3 2/2/2
f 1/1/1 2/2/2 4/4/4
f 5/5/5 7/7/7 6/6/6
f 6/6/6 7/7/7 8/8/8
f 9/9/9 11/11/11 10/10/10
f 9/9/9 10/10/10 12/12/12
f 12/12/12 14/14/14 13/13/13
f 14/14/14 12/12/12 10/10/10
f 15/15/15 11/11/11 9/9/9
