#Floor_701_4.obj

v 20 -1 12
v 33 -2 14
v 20 -2 14
v 51 -1 12
v 40 -2 14
v 51 -2 14
v 20 -2 26
v 20 -2 14
v 28 -2 18
v 33 -2 14
v 28 -2 26
v 32 -2 18
v 40 -2 14
v 37 -2 18
v 41 -2 18
v 51 -2 14
v 51 -2 26
v 41 -2 26
v 28 -2 26
v 28 -2 18
v 28 -1 26
v 28 -1 18
v 28 -1 18
v 28 -2 18
v 32 -2 18
v 32 -1 18
v 41 -2 18
v 41 -1 18
v 37 -2 18
v 37 -1 18
v 32 -1 20
v 32 -1 18
v 32 -2 18
v 37 -2 18
v 37 -1 18
v 37 -1 20
v 37 -2 18
v 32 -1 20
v 32 -2 18
v 37 -1 20
v 37 -1 22
v 32 -1 20
v 37 -1 20
v 32 -1 22
v 37 1 27
v 32 1 26
v 37 1 26
v 32 1 27
v 32 -1 20
v 28 -1 26
v 28 -1 18
v 32 -1 22
v 32 -1 18
v 41 -1 26
v 41 -2 18
v 41 -2 26
v 41 -1 18
v 41 -1 18
v 37 -1 22
v 37 -1 20
v 41 -1 26
v 37 -1 18
v 37 -1 22
v 37 -1 26
v 37 1 26
v 41 -1 26
v 37 -1 26
v 37 -1 22
v 32 -1 26
v 32 -1 22
v 32 1 26
v 32 -1 22
v 32 -1 26
v 28 -1 26
v 32 1 26
v 37 -1 22
v 37 1 26
v 32 -1 22
v 43 1 26
v 37 1 27
v 37 1 26
v 43 1 27
v 26 1 27
v 32 1 26
v 32 1 27
v 26 1 26
v 37 0 27
v 32 1 27
v 37 1 27
v 32 0 27
v 37 0 28
v 32 0 27
v 37 0 27
v 32 0 28
v 37 3 34
v 32 0 28
v 37 0 28
v 32 3 34
v 37 3 35
v 32 3 34
v 37 3 34
v 32 3 35
v 32 0 27
v 26 1 27
v 32 1 27
v 26 0 27
v 32 0 28
v 26 0 27
v 32 0 27
v 32 0 35
v 26 0 35
v 43 0 27
v 37 1 27
v 43 1 27
v 37 0 27
v 43 0 27
v 37 0 28
v 37 0 27
v 43 0 35
v 37 0 35
v 51 -1 0
v 51 -1 4
v 39 -1 4
v 39 -1 0
v 51 -1 12
v 20 -1 12
v 31 -1 4
v 20 -1 4
v 20 -1 0
v 31 -1 0
v 37 -1 0
v 37 -1 4
v 33 -1 4
v 33 -1 0
v 37 -1 4
v 39 1 0
v 39 -1 4
v 37 1 0
v 31 -1 4
v 33 1 0
v 33 -1 4
v 31 1 0
v 37 0 28
v 37 3 35
v 37 3 34
v 37 0 35
v 32 0 35
v 32 3 34
v 32 3 35
v 32 0 28

vn 0 0.8944272 0.4472136
vn 0 0.8944272 0.4472136
vn 0 0.8944272 0.4472136
vn 0 0.8944272 0.4472136
vn 0 0.8944272 0.4472136
vn 0 0.8944272 0.4472136
vn 0 1 0
vn 0 1 0
vn 0 1 0
vn 0 1 0
vn 0 1 0
vn 0 1 0
vn 0 1 0
vn 0 1 0
vn 0 1 0
vn 0 0.9999999 0
vn 0 1 0
vn 0 1 0
vn -1 0 0
vn -1 0 0
vn -1 0 0
vn -1 0 0
vn 0 0 -1
vn 0 0 -1
vn 0 0 -1
vn 0 0 -1
vn 0 0 -1
vn 0 0 -1
vn 0 0 -1
vn 0 0 -1
vn 1 0 0
vn 1 0 0
vn 1 0 0
vn -1 0 0
vn -1 0 0
vn -1 0 0
vn 0 0.8944272 -0.4472136
vn 0 0.8944272 -0.4472136
vn 0 0.8944272 -0.4472136
vn 0 0.8944272 -0.4472136
vn 0 1 0
vn 0 1 0
vn 0 1 0
vn 0 1 0
vn 0 1 0
vn 0 1 0
vn 0 1 0
vn 0 1 0
vn 0 1 0
vn 0 1 0
vn 0 1 0
vn 0 1 0
vn 0 1 0
vn 1 0 0
vn 1 0 0
vn 1 0 0
vn 1 0 0
vn 0 1 0
vn 0 1 0
vn 0 1 0
vn 0 1 0
vn 0 1 0
vn 1 0 0
vn 1 0 0
vn 1 0 0
vn 0 1 0
vn 0 1 0
vn 0 1 0
vn -1 0 0
vn -1 0 0
vn -1 0 0
vn 0 1 0
vn 0 1 0
vn 0 1 0
vn 0 0.8944272 -0.4472136
vn 0 0.8944272 -0.4472136
vn 0 0.8944272 -0.4472136
vn 0 0.8944272 -0.4472136
vn 0 1 0
vn 0 1 0
vn 0 1 0
vn 0 1 0
vn 0 1 0
vn 0 1 0
vn 0 1 0
vn 0 1 0
vn 0 0 1
vn 0 0 1
vn 0 0 1
vn 0 0 1
vn 0 1 0
vn 0 1 0
vn 0 1 0
vn 0 1 0
vn 0 0.8944272 -0.4472136
vn 0 0.8944272 -0.4472136
vn 0 0.8944272 -0.4472136
vn 0 0.8944272 -0.4472136
vn 0 1 0
vn 0 1 0
vn 0 1 0
vn 0 1 0
vn 0 0 1
vn 0 0 1
vn 0 0 1
vn 0 0 1
vn 0 1 0
vn 0 1 0
vn 0 1 0
vn 0 1 0
vn 0 1 0
vn 0 0 1
vn 0 0 1
vn 0 0 1
vn 0 0 1
vn 0 1 0
vn 0 1 0
vn 0 1 0
vn 0 1 0
vn 0 1 0
vn 0 1 0
vn 0 1 0
vn 0 1 0
vn 0 1 0
vn 0 1 0
vn 0 1 0
vn 0 1 0
vn 0 1 0
vn 0 1 0
vn 0 1 0
vn 0 1 0
vn 0 1 0
vn 0 1 0
vn 0 1 0
vn 0 0.8944272 0.4472136
vn 0 0.8944272 0.4472136
vn 0 0.8944272 0.4472136
vn 0 0.8944272 0.4472136
vn 0 0.8944272 0.4472136
vn 0 0.8944272 0.4472136
vn 0 0.8944272 0.4472136
vn 0 0.8944272 0.4472136
vn 1 0 0
vn 1 0 0
vn 1 0 0
vn 1 0 0
vn -1 0 0
vn -1 0 0
vn -1 0 0
vn -1 0 0

vt 31 0
vt 18 2.236068
vt 31 2.236068
vt 0 0
vt 11 2
vt 4.768372E-07 2
vt 31 12
vt 31 0
vt 23 4
vt 18 0
vt 23 12
vt 19 4
vt 11 0
vt 14 4
vt 10 4
vt 0 0
vt 0 12
vt 10 12
vt 8 0
vt 0 0
vt 8 1
vt 0 1
vt 13 1
vt 13 0
vt 9 0
vt 9 1
vt 0 0
vt 0 1
vt 4 0
vt 4 1
vt 0 1
vt 2 1
vt 2 0
vt 0 0
vt 0 1
vt 2 1
vt 0 9.536743E-07
vt 5 2
vt 5 9.536743E-07
vt 0 2
vt 0 2
vt 5 0
vt 0 0
vt 5 2
vt 0 1
vt 5 0
vt 0 0
vt 5 1
vt 0 2
vt 4 8
vt 4 0
vt 0 4
vt 0 0
vt 0 1
vt 8 0
vt 0 0
vt 8 1
vt 0 0
vt 4 4
vt 4 2
vt 0 8
vt 4 0
vt 4 0
vt 0 0
vt 0 2
vt 0 4
vt 4 4
vt 4 0
vt 4 0
vt 0 0
vt 4 2
vt 0 0
vt 0 4
vt 4 4
vt 4.999999 4
vt 0 1.907349E-06
vt -7.152557E-07 4
vt 5 1.907349E-06
vt 0 0
vt 6 1
vt 6 0
vt 0 1
vt 6 1
vt 0 0
vt 0 1
vt 6 0
vt 5 0
vt 0 1
vt 5 1
vt 0 0
vt 0 1
vt 5 0
vt 0 0
vt 5 1
vt 0 6.708204
vt 5 0
vt 0 0
vt 5 6.708204
vt 0 1
vt 5 0
vt 0 0
vt 5 1
vt 6 0
vt 0 1
vt 6 1
vt 0 0
vt 0 1
vt 6 0
vt 0 0
vt 0 8
vt 6 8
vt 6 0
vt 0 1
vt 6 1
vt 0 0
vt 0 0
vt 6 1
vt 6 0
vt 0 8
vt 6 8
vt 0 0
vt 0 4
vt 12 4
vt 12 0
vt 0 12
vt 31 12
vt 20 4
vt 31 4
vt 31 0
vt 20 0
vt 14 0
vt 14 4
vt 18 4
vt 18 0
vt 2 4.472136
vt 0 0
vt 0 4.472136
vt 2 0
vt 2 4.472136
vt 0 0
vt 0 4.472136
vt 2 0
vt 7 0
vt 0 3
vt 1 3
vt 0 0
vt 7 0
vt 6 3
vt 7 3
vt 0 0

g Floor_701_4
usemtl Floor_701_4
usemap Floor_701_4
f 1/1/1 3/3/3 2/2/2
f 1/1/1 5/5/5 4/4/4
f 2/2/2 5/5/5 1/1/1
f 4/4/4 5/5/5 6/6/6
f 7/7/7 9/9/9 8/8/8
f 8/8/8 9/9/9 10/10/10
f 11/11/11 9/9/9 7/7/7
f 10/10/10 9/9/9 12/12/12
f 10/10/10 14/14/14 13/13/13
f 12/12/12 14/14/14 10/10/10
f 13/13/13 14/14/14 15/15/15
f 16/16/16 15/15/15 17/17/17
f 13/13/13 15/15/15 16/16/16
f 17/17/17 15/15/15 18/18/18
f 19/19/19 21/21/21 20/20/20
f 20/20/20 21/21/21 22/22/22
f 23/23/23 25/25/25 24/24/24
f 26/26/26 25/25/25 23/23/23
f 27/27/27 29/29/29 28/28/28
f 28/28/28 29/29/29 30/30/30
f 31/31/31 33/33/33 32/32/32
f 34/34/34 36/36/36 35/35/35
f 37/37/37 39/39/39 38/38/38
f 37/37/37 38/38/38 40/40/40
f 41/41/41 43/43/43 42/42/42
f 41/41/41 42/42/42 44/44/44
f 45/45/45 47/47/47 46/46/46
f 45/45/45 46/46/46 48/48/48
f 49/49/49 51/51/51 50/50/50
f 49/49/49 50/50/50 52/52/52
f 53/53/53 51/51/51 49/49/49
f 54/54/54 56/56/56 55/55/55
f 54/54/54 55/55/55 57/57/57
f 58/58/58 60/60/60 59/59/59
f 58/58/58 59/59/59 61/61/61
f 58/58/58 62/62/62 60/60/60
f 63/63/63 65/65/65 64/64/64
f 66/66/66 68/68/68 67/67/67
f 69/69/69 71/71/71 70/70/70
f 72/72/72 74/74/74 73/73/73
f 75/75/75 77/77/77 76/76/76
f 75/75/75 76/76/76 78/78/78
f 79/79/79 81/81/81 80/80/80
f 79/79/79 80/80/80 82/82/82
f 83/83/83 85/85/85 84/84/84
f 83/83/83 84/84/84 86/86/86
f 87/87/87 89/89/89 88/88/88
f 87/87/87 88/88/88 90/90/90
f 91/91/91 93/93/93 92/92/92
f 91/91/91 92/92/92 94/94/94
f 95/95/95 97/97/97 96/96/96
f 95/95/95 96/96/96 98/98/98
f 99/99/99 101/101/101 100/100/100
f 99/99/99 100/100/100 102/102/102
f 103/103/103 105/105/105 104/104/104
f 103/103/103 104/104/104 106/106/106
f 107/107/107 109/109/109 108/108/108
f 110/110/110 107/107/107 108/108/108
f 110/110/110 108/108/108 111/111/111
f 112/112/112 114/114/114 113/113/113
f 112/112/112 113/113/113 115/115/115
f 116/116/116 118/118/118 117/117/117
f 119/119/119 116/116/116 117/117/117
f 119/119/119 117/117/117 120/120/120
f 121/121/121 123/123/123 122/122/122
f 124/124/124 123/123/123 121/121/121
f 125/125/125 123/123/123 126/126/126
f 125/125/125 122/122/122 123/123/123
f 123/123/123 127/127/127 126/126/126
f 126/126/126 127/127/127 128/128/128
f 128/128/128 127/127/127 129/129/129
f 129/129/129 127/127/127 130/130/130
f 131/131/131 133/133/133 132/132/132
f 134/134/134 133/133/133 131/131/131
f 135/135/135 137/137/137 136/136/136
f 135/135/135 136/136/136 138/138/138
f 139/139/139 141/141/141 140/140/140
f 139/139/139 140/140/140 142/142/142
f 143/143/143 145/145/145 144/144/144
f 143/143/143 144/144/144 146/146/146
f 147/147/147 149/149/149 148/148/148
f 147/147/147 148/148/148 150/150/150
