#Floor-detach_1242_59.obj

v 41 -7 38
v 41 -7 44
v 37 -7 44
v 37 -7 38
v 37 -7 35
v 41 -7 38
v 37 -7 38
v 41 -7 35
v 41 -7 47
v 37 -7 44
v 41 -7 44
v 37 -7 47
v 44 -7 47
v 44 -7 55
v 41 -7 47
v 37 -7 47
v 37 -7 51
v 37 -7 55
v 41 -7 44
v 52 -7 38
v 52 -7 44
v 41 -7 38

vn 0 1 0
vn 0 1 0
vn 0 1 0
vn 0 1 0
vn 0 1 0
vn 0 1 0
vn 0 1 0
vn 0 1 0
vn 0 1 0
vn 0 1 0
vn 0 1 0
vn 0 1 0
vn 0 1 0
vn 0 1 0
vn 0 1 0
vn 0 1 0
vn 0 1 0
vn 0 1 0
vn 0 1 0
vn 0 1 0
vn 0 1 0
vn 0 1 0

vt 0 0
vt 0 6
vt 4 6
vt 4 0
vt 4 0
vt 0 3
vt 4 3
vt 0 0
vt 0 3
vt 4 0
vt 0 0
vt 4 3
vt 0 0
vt 0 8
vt 3 0
vt 7 0
vt 7 4
vt 7 8
vt 11 6
vt 0 0
vt 0 6
vt 11 0

g Floor-detach_1242_59
usemtl Floor-detach_1242_59
usemap Floor-detach_1242_59
f 1/1/1 3/3/3 2/2/2
f 4/4/4 3/3/3 1/1/1
f 5/5/5 7/7/7 6/6/6
f 5/5/5 6/6/6 8/8/8
f 9/9/9 11/11/11 10/10/10
f 9/9/9 10/10/10 12/12/12
f 13/13/13 15/15/15 14/14/14
f 14/14/14 15/15/15 16/16/16
f 14/14/14 16/16/16 17/17/17
f 14/14/14 17/17/17 18/18/18
f 19/19/19 21/21/21 20/20/20
f 19/19/19 20/20/20 22/22/22
