#Floor-detach_1270_58.obj

v 37 -4 30
v 41 -7 35
v 37 -7 35
v 41 -4 30
v 41 -4 25
v 37 -4 29
v 36 -4 29
v 32 -4 25
v 41 -4 30
v 37 -4 30
v 36 -4 35
v 32 -4 35

vn 0 0.857493 0.5144958
vn 0 0.857493 0.5144958
vn 0 0.857493 0.5144958
vn 0 0.857493 0.5144958
vn 0 1 0
vn 0 1 0
vn 0 1 0
vn 0 1 0
vn 0 1 0
vn 0 1 0
vn 0 1 0
vn 0 1 0

vt 4 0
vt 0 6
vt 4 6
vt 0 0
vt 0 0
vt 4 4
vt 5 4
vt 9 0
vt 0 5
vt 4 5
vt 5 10
vt 9 10

g Floor-detach_1270_58
usemtl Floor-detach_1270_58
usemap Floor-detach_1270_58
f 1/1/1 3/3/3 2/2/2
f 1/1/1 2/2/2 4/4/4
f 5/5/5 7/7/7 6/6/6
f 7/7/7 5/5/5 8/8/8
f 9/9/9 6/6/6 10/10/10
f 9/9/9 5/5/5 6/6/6
f 11/11/11 7/7/7 8/8/8
f 11/11/11 8/8/8 12/12/12
