#Floor-detach_660_12.obj

v -20 6 -36
v -20 6 -25
v -27 6 -36
v -27 6 -25
v -21 6 -36
v -27 6 -36
v -21 6 -50
v -27 6 -50
v -15 6 -37
v -15 6 -36
v -19 6 -36
v -19 6 -37
v -14 6 -50
v -14 6 -37
v -20 6 -50
v -20 6 -37
v -15 6 -36
v -14 6 -36
v -14 6 -25
v -19 6 -36
v -20 6 -25
v -20 6 -36

vn 0 1 0
vn 0 1 0
vn 0 1 0
vn 0 1 0
vn 0 1 0
vn 0 1 0
vn 0 1 0
vn 0 1 0
vn 0 1 0
vn 0 1 0
vn 0 1 0
vn 0 1 0
vn 0 1 0
vn 0 1 0
vn 0 1 0
vn 0 1 0
vn 0 0.9999999 0
vn 0 1 0
vn 0 0.9999999 0
vn 0 0.9999999 0
vn 0 1 0
vn 0 1 0

vt 0 0
vt 0 11
vt 7 0
vt 7 11
vt 0 14
vt 6 14
vt 0 0
vt 6 0
vt 1 13
vt 1 14
vt 5 14
vt 5 13
vt 0 0
vt 0 13
vt 6 0
vt 6 13
vt 1 0
vt 0 0
vt 0 11
vt 5 0
vt 6 11
vt 6 0

g Floor-detach_660_12
usemtl Floor-detach_660_12
usemap Floor-detach_660_12
f 1/1/1 3/3/3 2/2/2
f 2/2/2 3/3/3 4/4/4
f 5/5/5 7/7/7 6/6/6
f 6/6/6 7/7/7 8/8/8
f 9/9/9 11/11/11 10/10/10
f 12/12/12 11/11/11 9/9/9
f 9/9/9 14/14/14 13/13/13
f 15/15/15 12/12/12 13/13/13
f 13/13/13 12/12/12 9/9/9
f 16/16/16 12/12/12 15/15/15
f 17/17/17 19/19/19 18/18/18
f 17/17/17 20/20/20 19/19/19
f 19/19/19 20/20/20 21/21/21
f 21/21/21 20/20/20 22/22/22
