#Floor-detach_1200_159.obj

v -3 -2 11
v 2 -2 6
v 2 -2 11
v -3 -2 6
v -6 -2 11
v -3 -2 6
v -3 -2 11
v -6 -2 6
v 2 -2 6
v -3 -2 6
v -3 -2 -8
v 2 -2 -8
v 2 -2 11
v 18 -2 6
v 18 -2 11
v 2 -2 6
v -2 -2 14
v -2 -2 13
v 1 -2 13
v 1 -2 14
v -3 -2 11
v -3 -2 13
v 2 -2 11
v 2 -2 13

vn 0 1 0
vn 0 1 0
vn 0 1 0
vn 0 1 0
vn 0 1 0
vn 0 1 0
vn 0 1 0
vn 0 1 0
vn 0 1 0
vn 0 1 0
vn 0 1 0
vn 0 1 0
vn 0 1 0
vn 0 1 0
vn 0 1 0
vn 0 1 0
vn 0 1 0
vn 0 1 0
vn 0 1 0
vn 0 1 0
vn 0 1 0
vn 0 1 0
vn 0 1 0
vn 0 1 0

vt 5 5
vt 0 0
vt 0 5
vt 5 0
vt 3 5
vt 0 0
vt 0 5
vt 3 0
vt 0 14
vt 5 14
vt 5 0
vt 0 0
vt 16 5
vt 0 0
vt 0 5
vt 16 0
vt 4 3
vt 4 2
vt 1 2
vt 1 3
vt 5 0
vt 5 2
vt 0 0
vt 0 2

g Floor-detach_1200_159
usemtl Floor-detach_1200_159
usemap Floor-detach_1200_159
f 1/1/1 3/3/3 2/2/2
f 1/1/1 2/2/2 4/4/4
f 5/5/5 7/7/7 6/6/6
f 5/5/5 6/6/6 8/8/8
f 9/9/9 11/11/11 10/10/10
f 9/9/9 12/12/12 11/11/11
f 13/13/13 15/15/15 14/14/14
f 13/13/13 14/14/14 16/16/16
f 17/17/17 19/19/19 18/18/18
f 17/17/17 20/20/20 19/19/19
f 21/21/21 22/22/22 18/18/18
f 21/21/21 19/19/19 23/23/23
f 18/18/18 19/19/19 21/21/21
f 23/23/23 19/19/19 24/24/24
