#Floor-detach_765_29.obj

v 0 1 70
v -4 1 70
v -3 1 67
v 0 1 63
v -3 1 63
v 6 1 63
v 0 1 52
v 6 1 52
v 0 1 63
v -3 1 67
v -4 1 70
v -6 1 67
v -6 1 70
v 10 1 61
v 18 1 63
v 10 1 63
v 18 1 61
v 25 1 64
v 25 1 72
v 15 1 72
v 20 1 63
v 15 1 70
v 18 1 63
v 10 1 63
v 18 1 63
v 15 1 70
v 7 1 70
v 6 1 63
v 10 1 63
v 7 1 70
v 3 1 70
v 3 1 70
v 0 1 70
v 0 1 63
v 6 1 63
v 8 1 96
v 1 1 95
v 8 1 95
v 1 1 96
v 1 1 95
v -4 1 95
v -1 1 85
v -4 1 85
v 8 1 95
v 5 1 85
v 8 1 85
v -1 1 85
v -1 1 79
v 5 1 79
v 5 1 85
v 5 1 79
v -1 1 79
v 0 1 76
v 5 1 76
v 0 1 70
v 3 1 70
v 0 1 76
v 3 1 76

vn 0 1 0
vn 0 1 0
vn 0 1 0
vn 0 1 0
vn 0 1 0
vn 0 1 0
vn 0 1 0
vn 0 1 0
vn 0 1 0
vn 0 1 0
vn 0 1 0
vn 0 1 0
vn 0 1 0
vn 0 1 0
vn 0 1 0
vn 0 1 0
vn 0 1 0
vn 0 1 0
vn 0 1 0
vn 0 1 0
vn 0 1 0
vn 0 1 0
vn 0 1 0
vn 0 1 0
vn 0 1 0
vn 0 1 0
vn 0 1 0
vn 0 1 0
vn 0 1 0
vn 0 1 0
vn 0 1 0
vn 0 1 0
vn 0 1 0
vn 0 1 0
vn 0 1 0
vn 0 1 0
vn 0 1 0
vn 0 1 0
vn 0 1 0
vn 0 1 0
vn 0 1 0
vn 0 1 0
vn 0 1 0
vn 0 1 0
vn 0 1 0
vn 0 1 0
vn 0 1 0
vn 0 1 0
vn 0 1 0
vn 0 1 0
vn 0 1 0
vn 0 1 0
vn 0 1 0
vn 0 1 0
vn 0 1 0
vn 0 1 0
vn 0 1 0
vn 0 1 0

vt 0 7
vt 4 7
vt 3 4
vt 0 0
vt 3 0
vt 0 12
vt 6 0
vt 0 0
vt 6 12
vt 0 0
vt 1 3
vt 3 0
vt 3 3
vt 8 0
vt 0 2
vt 8 2
vt 0 0
vt 0 1
vt 0 9
vt 10 9
vt 5 0
vt 10 7
vt 7 0
vt 8 0
vt 0 0
vt 3 7
vt 11 7
vt 4 0
vt 0 0
vt 3 7
vt 7 7
vt 3 7
vt 6 7
vt 6 0
vt 0 0
vt 0 1
vt 7 0
vt 0 0
vt 7 1
vt 7 10
vt 12 10
vt 9 0
vt 12 0
vt 0 10
vt 3 0
vt 0 0
vt 6 6
vt 6 0
vt 0 0
vt 0 6
vt 0 6
vt 6 6
vt 5 3
vt 0 3
vt 5 0
vt 2 0
vt 5 3
vt 2 3

g Floor-detach_765_29
usemtl Floor-detach_765_29
usemap Floor-detach_765_29
f 1/1/1 3/3/3 2/2/2
f 1/1/1 4/4/4 3/3/3
f 3/3/3 4/4/4 5/5/5
f 6/6/6 8/8/8 7/7/7
f 6/6/6 7/7/7 9/9/9
f 10/10/10 12/12/12 11/11/11
f 11/11/11 12/12/12 13/13/13
f 14/14/14 16/16/16 15/15/15
f 14/14/14 15/15/15 17/17/17
f 18/18/18 20/20/20 19/19/19
f 21/21/21 22/22/22 18/18/18
f 18/18/18 22/22/22 20/20/20
f 23/23/23 22/22/22 21/21/21
f 24/24/24 26/26/26 25/25/25
f 27/27/27 26/26/26 24/24/24
f 28/28/28 30/30/30 29/29/29
f 28/28/28 31/31/31 30/30/30
f 32/32/32 34/34/34 33/33/33
f 32/32/32 35/35/35 34/34/34
f 36/36/36 38/38/38 37/37/37
f 36/36/36 37/37/37 39/39/39
f 40/40/40 42/42/42 41/41/41
f 41/41/41 42/42/42 43/43/43
f 44/44/44 45/45/45 40/40/40
f 40/40/40 45/45/45 42/42/42
f 46/46/46 45/45/45 44/44/44
f 47/47/47 49/49/49 48/48/48
f 50/50/50 49/49/49 47/47/47
f 51/51/51 53/53/53 52/52/52
f 51/51/51 54/54/54 53/53/53
f 55/55/55 57/57/57 56/56/56
f 57/57/57 58/58/58 56/56/56
