#Floor-detach_1211_52.obj

v 53 -7 -8
v 51 -7 -8
v 51 -7 -12
v 62 -7 -12
v 63 -7 -8
v 64 -7 -12
v 64 -7 -8
v 51 -7 -12
v 44 -7 -12
v 35 -7 -28
v 35 -7 -12
v 62 -7 -12
v 62 -7 -28

vn 0 1 0
vn 0 1 0
vn 0 1 0
vn 0 1 0
vn 0 1 0
vn 0 1 0
vn 0 1 0
vn 0 1 0
vn 0 1 0
vn 0 1 0
vn 0 1 0
vn 0 1 0
vn 0 1 0

vt 11 4
vt 13 4
vt 13 0
vt 2 0
vt 1 4
vt 0 0
vt 0 4
vt 11 16
vt 18 16
vt 27 0
vt 27 16
vt 0 16
vt 0 0

g Floor-detach_1211_52
usemtl Floor-detach_1211_52
usemap Floor-detach_1211_52
f 1/1/1 3/3/3 2/2/2
f 1/1/1 4/4/4 3/3/3
f 5/5/5 4/4/4 1/1/1
f 5/5/5 7/7/7 6/6/6
f 6/6/6 4/4/4 5/5/5
f 8/8/8 10/10/10 9/9/9
f 9/9/9 10/10/10 11/11/11
f 8/8/8 12/12/12 10/10/10
f 10/10/10 12/12/12 13/13/13
