#Floor-detach_794_31.obj

v 11 2 -3
v 10 2 0
v 10 2 -3
v 11 2 0
v 13 3 -3
v 11 2 0
v 11 2 -3
v 13 3 0
v 42 2 3
v 39 2 3
v 39 3 1
v 42 3 1
v 45 3 -5
v 45 3 1
v 42 3 1
v 39 3 1
v 37 3 -5
v 37 3 1
v 13 3 6
v 13 3 0
v 20 3 6
v 20 3 -1
v 20 3 -6
v 13 3 -3
v 13 3 -6
v 37 3 -4
v 37 3 -1
v 20 3 -4
v 20 3 -1
v 54 2 4
v 42 2 9
v 42 2 4
v 54 2 9
v 59 2 4
v 54 2 9
v 54 2 4
v 59 2 9
v 42 2 4
v 39 2 3
v 42 2 3
v 39 2 4
v 42 2 4
v 42 2 9
v 38 2 4
v 38 2 9
v 42 2 12
v 38 2 12
v 38 2 9
v 42 2 9

vn 0 1 0
vn 0 1 0
vn 0 1 0
vn 0 1 0
vn -0.4472136 0.8944272 0
vn -0.4472136 0.8944272 0
vn -0.4472136 0.8944272 0
vn -0.4472136 0.8944272 0
vn 0 0.8944272 0.4472136
vn 0 0.8944272 0.4472136
vn 0 0.8944272 0.4472136
vn 0 0.8944272 0.4472136
vn 0 1 0
vn 0 1 0
vn 0 1 0
vn 0 1 0
vn 0 1 0
vn 0 1 0
vn 0 1 0
vn 0 1 0
vn 0 1 0
vn 0 1 0
vn 0 1 0
vn 0 1 0
vn 0 1 0
vn 0 1 0
vn 0 1 0
vn 0 1 0
vn 0 1 0
vn 0 1 0
vn 0 1 0
vn 0 1 0
vn 0 1 0
vn 0 1 0
vn 0 1 0
vn 0 1 0
vn 0 1 0
vn 0 1 0
vn 0 1 0
vn 0 1 0
vn 0 1 0
vn 0 1 0
vn 0 1 0
vn 0 1 0
vn 0 1 0
vn 0 1 0
vn 0 1 0
vn 0 1 0
vn 0 1 0

vt 0 0
vt 1 3
vt 1 0
vt 0 3
vt 0 0
vt 2 3
vt 2 2.384186E-07
vt 0 3
vt -2.384186E-07 2
vt 3 2
vt 3 1.192093E-07
vt 0 1.192093E-07
vt 0 0
vt 0 6
vt 3 6
vt 6 6
vt 8 0
vt 8 6
vt 7 12
vt 7 6
vt 0 12
vt 0 5
vt 0 0
vt 7 3
vt 7 0
vt 0 0
vt 0 3
vt 17 0
vt 17 3
vt 0 0
vt 12 5
vt 12 0
vt 0 5
vt 0 0
vt 5 5
vt 5 0
vt 0 5
vt 0 1
vt 3 0
vt 0 0
vt 3 1
vt 0 0
vt 0 5
vt 4 0
vt 4 5
vt 0 3
vt 4 3
vt 4 0
vt 0 0

g Floor-detach_794_31
usemtl Floor-detach_794_31
usemap Floor-detach_794_31
f 1/1/1 3/3/3 2/2/2
f 1/1/1 2/2/2 4/4/4
f 5/5/5 7/7/7 6/6/6
f 5/5/5 6/6/6 8/8/8
f 9/9/9 11/11/11 10/10/10
f 12/12/12 11/11/11 9/9/9
f 13/13/13 15/15/15 14/14/14
f 13/13/13 16/16/16 15/15/15
f 17/17/17 16/16/16 13/13/13
f 18/18/18 16/16/16 17/17/17
f 19/19/19 21/21/21 20/20/20
f 20/20/20 21/21/21 22/22/22
f 22/22/22 23/23/23 20/20/20
f 20/20/20 23/23/23 24/24/24
f 24/24/24 23/23/23 25/25/25
f 26/26/26 28/28/28 27/27/27
f 27/27/27 28/28/28 29/29/29
f 30/30/30 32/32/32 31/31/31
f 30/30/30 31/31/31 33/33/33
f 34/34/34 36/36/36 35/35/35
f 34/34/34 35/35/35 37/37/37
f 38/38/38 40/40/40 39/39/39
f 38/38/38 39/39/39 41/41/41
f 42/42/42 44/44/44 43/43/43
f 44/44/44 45/45/45 43/43/43
f 46/46/46 48/48/48 47/47/47
f 49/49/49 48/48/48 46/46/46
