#Floor-detach_903_32.obj

v -3 6 -16
v -9 6 -21
v 4 6 -16
v 4 6 -21
v 4 6 -16
v 4 6 -21
v 7 6 -16
v 7 6 -21
v 7 6 -21
v 4 6 -21
v 7 6 -36
v 4 6 -36
v -21 8 11
v -21 8 2
v -9 8 11
v -9 8 2
v -9 8 11
v -9 8 2
v -3 8 11
v -3 8 2
v -3 8 2
v -9 8 2
v -3 8 -11
v -9 8 -11
v -3 8 -11
v -6 8 -11
v -3 6 -14
v -6 6 -14
v -9 6 -11
v -6 6 -11
v -9 8 -11
v -6 8 -11
v -6 6 -14
v -6 8 -11
v -6 6 -11
v -6 6 -11
v -9 6 -21
v -6 6 -14
v -9 6 -11
v -6 6 -14
v -9 6 -21
v -3 6 -16
v -3 6 -14
v -27 8 2
v -21 8 2
v -27 8 12
v -21 8 11
v -21 8 12

vn 0 1 0
vn 0 1 0
vn 0 1 0
vn 0 1 0
vn 0 1 0
vn 0 1 0
vn 0 1 0
vn 0 1 0
vn 0 1 0
vn 0 1 0
vn 0 1 0
vn 0 1 0
vn 0 1 0
vn 0 1 0
vn 0 1 0
vn 0 1 0
vn 0 1 0
vn 0 1 0
vn 0 1 0
vn 0 1 0
vn 0 1 0
vn 0 1 0
vn 0 1 0
vn 0 1 0
vn 0 0.8320503 -0.5547002
vn 0 0.8320503 -0.5547002
vn 0 0.8320503 -0.5547002
vn 0 0.8320503 -0.5547002
vn 0 0 -1
vn 0 0 -1
vn 0 0 -1
vn 0 0 -1
vn -1 0 0
vn -1 0 0
vn -1 0 0
vn 0 1 0
vn 0 1 0
vn 0 1 0
vn 0 1 0
vn 0 1 0
vn 0 1 0
vn 0 1 0
vn 0 1 0
vn 0 1 0
vn 0 1 0
vn 0 1 0
vn 0 1 0
vn 0 1 0

vt 7 5
vt 13 0
vt 0 5
vt 0 0
vt 3 5
vt 3 0
vt 0 5
vt 0 0
vt 0 15
vt 3 15
vt 0 0
vt 3 0
vt 12 9
vt 12 0
vt 0 9
vt 0 0
vt 6 9
vt 6 0
vt 0 9
vt 0 0
vt 0 13
vt 6 13
vt 0 0
vt 6 0
vt 0 3
vt 3 3
vt 0 0
vt 3 0
vt 3 0
vt 0 0
vt 3 2
vt 0 2
vt 0 0
vt 3 2
vt 3 0
vt 0 10
vt 3 0
vt 0 7
vt 3 10
vt 3 7
vt 6 0
vt 0 5
vt 0 7
vt 6 0
vt 0 0
vt 6 10
vt 0 9
vt 0 10

g Floor-detach_903_32
usemtl Floor-detach_903_32
usemap Floor-detach_903_32
f 1/1/1 3/3/3 2/2/2
f 2/2/2 3/3/3 4/4/4
f 5/5/5 7/7/7 6/6/6
f 6/6/6 7/7/7 8/8/8
f 9/9/9 11/11/11 10/10/10
f 10/10/10 11/11/11 12/12/12
f 13/13/13 15/15/15 14/14/14
f 14/14/14 15/15/15 16/16/16
f 17/17/17 19/19/19 18/18/18
f 18/18/18 19/19/19 20/20/20
f 21/21/21 23/23/23 22/22/22
f 22/22/22 23/23/23 24/24/24
f 25/25/25 27/27/27 26/26/26
f 26/26/26 27/27/27 28/28/28
f 29/29/29 31/31/31 30/30/30
f 30/30/30 31/31/31 32/32/32
f 33/33/33 35/35/35 34/34/34
f 36/36/36 38/38/38 37/37/37
f 36/36/36 37/37/37 39/39/39
f 40/40/40 42/42/42 41/41/41
f 43/43/43 42/42/42 40/40/40
f 44/44/44 46/46/46 45/45/45
f 45/45/45 46/46/46 47/47/47
f 47/47/47 46/46/46 48/48/48
