#Floor-detach_804_30.obj

v 42 2 12
v 42 2 17
v 37 2 16
v 37 2 12
v 37 2 37
v 37 2 33
v 42 2 37
v 42 2 33
v 37 2 16
v 42 2 17
v 37 2 28
v 42 2 26
v 37 2 33
v 42 2 26
v 42 2 33
v 37 2 28
v 37 2 28
v 37 2 33
v 21 2 28
v 21 2 33
v 21 2 33
v 19 2 33
v 21 2 29
v 19 2 29
v 37 2 12
v 37 2 16
v 21 2 16
v 19 2 12

vn 0 1 0
vn 0 1 0
vn 0 1 0
vn 0 1 0
vn 0 1 0
vn 0 1 0
vn 0 1 0
vn 0 1 0
vn 0 1 0
vn 0 1 0
vn 0 1 0
vn 0 1 0
vn 0 1 0
vn 0 1 0
vn 0 1 0
vn 0 1 0
vn 0 1 0
vn 0 1 0
vn 0 1 0
vn 0 1 0
vn 0 1 0
vn 0 1 0
vn 0 1 0
vn 0 1 0
vn 0 1 0
vn 0 1 0
vn 0 1 0
vn 0 1 0

vt 0 0
vt 0 5
vt 5 4
vt 5 0
vt 5 4
vt 5 0
vt 0 4
vt 0 0
vt 5 0
vt 0 1
vt 5 12
vt 0 10
vt 5 7
vt 0 0
vt 0 7
vt 5 2
vt 0 0
vt 0 5
vt 16 0
vt 16 5
vt 0 4
vt 2 4
vt 0 0
vt 2 0
vt 0 0
vt 0 4
vt 16 4
vt 18 0

g Floor-detach_804_30
usemtl Floor-detach_804_30
usemap Floor-detach_804_30
f 1/1/1 3/3/3 2/2/2
f 4/4/4 3/3/3 1/1/1
f 5/5/5 7/7/7 6/6/6
f 6/6/6 7/7/7 8/8/8
f 9/9/9 11/11/11 10/10/10
f 10/10/10 11/11/11 12/12/12
f 13/13/13 15/15/15 14/14/14
f 14/14/14 16/16/16 13/13/13
f 17/17/17 19/19/19 18/18/18
f 18/18/18 19/19/19 20/20/20
f 21/21/21 23/23/23 22/22/22
f 22/22/22 23/23/23 24/24/24
f 25/25/25 27/27/27 26/26/26
f 28/28/28 27/27/27 25/25/25
