#Floor-detach_1222_38.obj

v -6 -2 28
v -2 -2 28
v -6 -2 34
v -2 -2 34
v 4 -2 28
v 4 -2 24
v 16 -2 28
v 16 -2 24
v 4 -2 24
v 4 -2 28
v -2 -2 28
v -6 -2 28
v -6 -2 14
v 4 -2 14

vn 0 1 0
vn 0 1 0
vn 0 1 0
vn 0 1 0
vn 0 1 0
vn 0 1 0
vn 0 1 0
vn 0 1 0
vn 0 1 0
vn 0 1 0
vn 0 1 0
vn 0 1 0
vn 0 1 0
vn 0 1 0

vt 4 0
vt 0 0
vt 4 6
vt 0 6
vt 13 4
vt 13 0
vt 1 4
vt 1 0
vt 0 10
vt 0 14
vt 6 14
vt 10 14
vt 10 0
vt 0 0

g Floor-detach_1222_38
usemtl Floor-detach_1222_38
usemap Floor-detach_1222_38
f 1/1/1 3/3/3 2/2/2
f 2/2/2 3/3/3 4/4/4
f 5/5/5 7/7/7 6/6/6
f 6/6/6 7/7/7 8/8/8
f 9/9/9 11/11/11 10/10/10
f 12/12/12 11/11/11 9/9/9
f 13/13/13 12/12/12 14/14/14
f 14/14/14 12/12/12 9/9/9
