#Floor-detach_680_2.obj

v 18 1 14
v -7 0 12
v 18 0 12
v -7 1 14
v 18 0 26
v 18 1 26
v 18 1 14
v 18 0 14
v 18 0 12
v -7 1 26
v -7 1 14
v 18 1 14
v 18 1 26
v 7 0 14
v 18 0 26
v 18 0 14
v 7 0 26
v 18 -3 14
v 7 -3 26
v 7 -3 14
v 18 -3 26
v 20 -2 14
v 18 -3 26
v 18 -3 14
v 20 -2 26
v 20 -1 12
v 18 -1 12
v 18 0 12
v 18 -1 12
v 18 0 14
v 18 0 12
v 18 -3 14
v 18 -1 14
v 20 -2 14
v 18 -3 14
v 20 -1 14
v 18 -1 12
v 20 -1 14
v 18 -1 14
v 20 -1 12
v 20 -2 14
v 20 -1 14
v 20 -1 12
v 20 -1 4
v 18 0 0
v 20 -1 0
v 18 0 4
v 20 -1 12
v 18 0 12
v -7 0 12
v -7 0 4
v -5 0 4
v 18 0 12
v 18 0 4
v 11 0 4
v 7 2 1
v 11 0 0
v 11 0 1
v 7 2 0
v 18 0 0
v 18 0 4
v 11 0 1
v 11 0 0
v 11 0 4
v 6 0 1
v -5 0 4
v 6 0 0
v -7 0 4
v -7 0 0
v 6 2 0
v 7 2 1
v 6 2 1
v 7 2 0

vn 0 0.8944272 -0.4472136
vn 0 0.8944272 -0.4472136
vn 0 0.8944272 -0.4472136
vn 0 0.8944272 -0.4472136
vn 1 0 0
vn 1 0 0
vn 1 0 0
vn 1 0 0
vn 1 0 0
vn 0 1 0
vn 0 1 0
vn 0 1 0
vn 0 1 0
vn 0 -1 0
vn 0 -1 0
vn 0 -1 0
vn 0 -1 0
vn 0 1 0
vn 0 1 0
vn 0 1 0
vn 0 1 0
vn -0.4472136 0.8944272 0
vn -0.4472136 0.8944272 0
vn -0.4472136 0.8944272 0
vn -0.4472136 0.8944272 0
vn 0 0 1
vn 0 0 1
vn 0 0 1
vn 1 0 0
vn 1 0 0
vn 1 0 0
vn 1 0 0
vn 0 0 1
vn 0 0 1
vn 0 0 1
vn 0 0 1
vn 0 1 0
vn 0 1 0
vn 0 1 0
vn 0 1 0
vn 1 0 0
vn 1 0 0
vn 1 0 0
vn 0.4472136 0.8944272 0
vn 0.4472136 0.8944272 0
vn 0.4472136 0.8944272 0
vn 0.4472136 0.8944272 0
vn 0.4472136 0.8944272 0
vn 0.4472136 0.8944272 0
vn 0 1 0
vn 0 1 0
vn 0 1 0
vn 0 1 0
vn 0 1 0
vn 0 1 0
vn 0.4472136 0.8944272 0
vn 0.4472136 0.8944272 0
vn 0.4472136 0.8944272 0
vn 0.4472136 0.8944272 0
vn 0 1 0
vn 0 1 0
vn 0 1 0
vn 0 1 0
vn 0 1 0
vn 0 1 0
vn 0 1 0
vn 0 1 0
vn 0 1 0
vn 0 1 0
vn 0 1 0
vn 0 1 0
vn 0 1 0
vn 0 1 0

vt 0 2
vt 25 0
vt 0 0
vt 25 2
vt 0 0
vt 0 1
vt 12 1
vt 12 0
vt 14 0
vt 25 12
vt 25 0
vt 0 0
vt 0 12
vt 0 0
vt 11 12
vt 11 0
vt 0 12
vt 0 0
vt 11 12
vt 11 0
vt 0 12
vt 0 0
vt 2 12
vt 2 0
vt 0 12
vt 2 0
vt 0 0
vt 0 1
vt 2 2
vt 0 3
vt 2 3
vt 0 0
vt 0 2
vt 2 1
vt 0 0
vt 2 2
vt 2 0
vt 0 2
vt 2 2
vt 0 0
vt 0 0
vt 0 1
vt 2 1
vt 1.907349E-06 4
vt 2 0
vt 1.907349E-06 0
vt 2 4
vt 1.907349E-06 12
vt 2 12
vt 25 8
vt 25 0
vt 23 0
vt 0 8
vt 0 0
vt 7 0
vt 4.5 1
vt 0 0
vt 0 1
vt 4.5 0
vt 0 0
vt 0 4
vt 7 1
vt 7 0
vt 7 4
vt 12 1
vt 23 4
vt 12 0
vt 25 4
vt 25 0
vt 1 0
vt 0 1
vt 1 1
vt 0 0

g Floor-detach_680_2
usemtl Floor-detach_680_2
usemap Floor-detach_680_2
f 1/1/1 3/3/3 2/2/2
f 1/1/1 2/2/2 4/4/4
f 5/5/5 7/7/7 6/6/6
f 5/5/5 8/8/8 7/7/7
f 7/7/7 8/8/8 9/9/9
f 10/10/10 12/12/12 11/11/11
f 13/13/13 12/12/12 10/10/10
f 14/14/14 16/16/16 15/15/15
f 14/14/14 15/15/15 17/17/17
f 18/18/18 20/20/20 19/19/19
f 18/18/18 19/19/19 21/21/21
f 22/22/22 24/24/24 23/23/23
f 22/22/22 23/23/23 25/25/25
f 26/26/26 28/28/28 27/27/27
f 29/29/29 31/31/31 30/30/30
f 29/29/29 30/30/30 32/32/32
f 33/33/33 35/35/35 34/34/34
f 33/33/33 34/34/34 36/36/36
f 37/37/37 39/39/39 38/38/38
f 37/37/37 38/38/38 40/40/40
f 41/41/41 43/43/43 42/42/42
f 44/44/44 46/46/46 45/45/45
f 45/45/45 47/47/47 44/44/44
f 44/44/44 47/47/47 48/48/48
f 48/48/48 47/47/47 49/49/49
f 50/50/50 52/52/52 51/51/51
f 50/50/50 53/53/53 52/52/52
f 54/54/54 55/55/55 53/53/53
f 53/53/53 55/55/55 52/52/52
f 56/56/56 58/58/58 57/57/57
f 56/56/56 57/57/57 59/59/59
f 60/60/60 62/62/62 61/61/61
f 63/63/63 62/62/62 60/60/60
f 61/61/61 62/62/62 64/64/64
f 64/64/64 62/62/62 65/65/65
f 64/64/64 65/65/65 66/66/66
f 67/67/67 66/66/66 65/65/65
f 68/68/68 66/66/66 69/69/69
f 69/69/69 66/66/66 67/67/67
f 70/70/70 72/72/72 71/71/71
f 70/70/70 71/71/71 73/73/73
