#Floor-detach_754_35.obj

v -4 1 45
v -15 1 51
v -15 1 45
v -10 1 51
v -4 1 60
v -10 1 54
v -10 1 54
v -4 1 60
v -15 1 54
v -15 1 60

vn 0 1 0
vn 0 1 0
vn 0 1 0
vn 0 1 0
vn 0 1 0
vn 0 1 0
vn 0 1 0
vn 0 1 0
vn 0 1 0
vn 0 1 0

vt 0 0
vt 11 6
vt 11 0
vt 6 6
vt 0 15
vt 6 9
vt 6 0
vt 0 6
vt 11 0
vt 11 6

g Floor-detach_754_35
usemtl Floor-detach_754_35
usemap Floor-detach_754_35
f 1/1/1 3/3/3 2/2/2
f 1/1/1 2/2/2 4/4/4
f 5/5/5 1/1/1 4/4/4
f 5/5/5 4/4/4 6/6/6
f 7/7/7 9/9/9 8/8/8
f 9/9/9 10/10/10 8/8/8
