#Floor-detach_1283_36.obj

v 0 -2 -44
v -2 -2 -50
v 17 -2 -50
v 15 -2 -44
v -5 -2 -44
v -8 -2 -50
v -8 -2 -44
v -8 -2 -47
v 23 -2 -50
v 20 -2 -44
v 23 -2 -44
v 23 -2 -47
v -2 -2 -57
v 17 -2 -50
v -2 -2 -50
v 17 -2 -57
v 19 -2 -42
v 19 -2 -41
v 16 -2 -41
v 16 -2 -42
v 20 -2 -44
v 20 -2 -42
v 15 -2 -44
v 15 -2 -42
v -4 -2 -42
v -4 -2 -41
v -5 -2 -42
v -5 -2 -41
v -1 -2 -41
v -1 -2 -42
v -5 -2 -44
v 0 -2 -44
v 0 -2 -42

vn 0 1 0
vn 0 1 0
vn 0 1 0
vn 0 1 0
vn 0 1 0
vn 0 1 0
vn 0 1 0
vn 0 1 0
vn 0 1 0
vn 0 1 0
vn 0 1 0
vn 0 1 0
vn 0 1 0
vn 0 1 0
vn 0 1 0
vn 0 1 0
vn 0 1 0
vn 0 1 0
vn 0 1 0
vn 0 1 0
vn 0 1 0
vn 0 1 0
vn 0 1 0
vn 0 1 0
vn 0 1 0
vn 0 1 0
vn 0 1 0
vn 0 1 0
vn 0 1 0
vn 0 1 0
vn 0 1 0
vn 0 1 0
vn 0 1 0

vt 23 6
vt 25 0
vt 6 0
vt 8 6
vt 28 6
vt 31 0
vt 31 6
vt 31 3
vt 0 0
vt 3 6
vt 0 6
vt 0 3
vt 19 0
vt 0 7
vt 19 7
vt 0 0
vt 1 2
vt 1 3
vt 4 3
vt 4 2
vt 0 0
vt 0 2
vt 5 0
vt 5 2
vt 4 2
vt 4 3
vt 5 2
vt 5 3
vt 1 3
vt 1 2
vt 5 0
vt 0 0
vt 0 2

g Floor-detach_1283_36
usemtl Floor-detach_1283_36
usemap Floor-detach_1283_36
f 1/1/1 3/3/3 2/2/2
f 1/1/1 4/4/4 3/3/3
f 5/5/5 2/2/2 6/6/6
f 5/5/5 1/1/1 2/2/2
f 5/5/5 8/8/8 7/7/7
f 9/9/9 3/3/3 10/10/10
f 3/3/3 4/4/4 10/10/10
f 11/11/11 12/12/12 10/10/10
f 6/6/6 8/8/8 5/5/5
f 10/10/10 12/12/12 9/9/9
f 13/13/13 15/15/15 14/14/14
f 13/13/13 14/14/14 16/16/16
f 17/17/17 19/19/19 18/18/18
f 20/20/20 19/19/19 17/17/17
f 17/17/17 22/22/22 21/21/21
f 23/23/23 20/20/20 21/21/21
f 21/21/21 20/20/20 17/17/17
f 24/24/24 20/20/20 23/23/23
f 25/25/25 27/27/27 26/26/26
f 26/26/26 27/27/27 28/28/28
f 29/29/29 25/25/25 26/26/26
f 29/29/29 30/30/30 25/25/25
f 31/31/31 27/27/27 25/25/25
f 31/31/31 30/30/30 32/32/32
f 25/25/25 30/30/30 31/31/31
f 32/32/32 30/30/30 33/33/33
