#Floor-detach_672_10.obj

v -34 6 -5
v -28 6 -5
v -34 6 1
v -28 6 1
v -34 6 1
v -28 6 1
v -34 6 3
v -28 6 3
v -34 6 3
v -28 6 3
v -34 9 12
v -28 9 12
v -34 9 12
v -28 9 12
v -34 9 19
v -28 9 19
v -28 9 19
v -28 9 12
v -21 9 19
v -21 9 12
v -28 9 12
v -21 8 12
v -21 9 12
v -28 8 12
v -9 1 1
v 4 1 1
v -9 1 7
v 4 1 7
v -9 1 1
v -10 1 1
v -10 1 -5
v 4 1 1
v 8 1 -5
v 8 1 1
v -10 1 1
v -28 6 1
v -10 1 -5
v -28 6 -5

vn 0 1 0
vn 0 1 0
vn 0 1 0
vn 0 1 0
vn 0 1 0
vn 0 1 0
vn 0 1 0
vn 0 1 0
vn 0 0.9486833 -0.3162278
vn 0 0.9486833 -0.3162278
vn 0 0.9486833 -0.3162278
vn 0 0.9486833 -0.3162278
vn 0 1 0
vn 0 1 0
vn 0 1 0
vn 0 1 0
vn 0 1 0
vn 0 1 0
vn 0 1 0
vn 0 1 0
vn 0 0 -1
vn 0 0 -1
vn 0 0 -1
vn 0 0 -1
vn 0 1 0
vn 0 1 0
vn 0 1 0
vn 0 1 0
vn 0 1 0
vn 0 1 0
vn 0 1 0
vn 0 1 0
vn 0 1 0
vn 0 1 0
vn 0.2676439 0.9635179 0
vn 0.2676439 0.9635179 0
vn 0.2676439 0.9635179 0
vn 0.2676439 0.9635179 0

vt 6 0
vt 0 0
vt 6 6
vt 0 6
vt 6 0
vt 0 0
vt 6 2
vt 0 2
vt 6 -4.768372E-07
vt 0 -4.768372E-07
vt 6 9
vt 0 9
vt 6 0
vt 0 0
vt 6 7
vt 0 7
vt 7 7
vt 7 0
vt 0 7
vt 0 0
vt 6.999827 1.001208
vt 0.0001728535 -0.00120765
vt -0.0001723766 0.9987923
vt 7.000173 0.001207709
vt 13 0
vt 0 0
vt 13 6
vt 0 6
vt 17 6
vt 18 6
vt 18 0
vt 4 6
vt 0 0
vt 0 6
vt 0 6
vt 19 6
vt 0 0
vt 19 0

g Floor-detach_672_10
usemtl Floor-detach_672_10
usemap Floor-detach_672_10
f 1/1/1 3/3/3 2/2/2
f 2/2/2 3/3/3 4/4/4
f 5/5/5 7/7/7 6/6/6
f 6/6/6 7/7/7 8/8/8
f 9/9/9 11/11/11 10/10/10
f 10/10/10 11/11/11 12/12/12
f 13/13/13 15/15/15 14/14/14
f 14/14/14 15/15/15 16/16/16
f 17/17/17 19/19/19 18/18/18
f 18/18/18 19/19/19 20/20/20
f 21/21/21 23/23/23 22/22/22
f 21/21/21 22/22/22 24/24/24
f 25/25/25 27/27/27 26/26/26
f 26/26/26 27/27/27 28/28/28
f 29/29/29 31/31/31 30/30/30
f 29/29/29 32/32/32 31/31/31
f 31/31/31 32/32/32 33/33/33
f 33/33/33 32/32/32 34/34/34
f 35/35/35 37/37/37 36/36/36
f 36/36/36 37/37/37 38/38/38
