#Floor-detach_738_32.obj

v 25 -1 20
v 25 -1 24
v 19 -1 24
v 19 -1 20
v 28 -1 44
v 14 -1 44
v 14 -1 41
v 17 -1 38
v 14 -1 38
v 28 -1 44
v 17 -1 38
v 28 -1 38
v 17 -1 32
v 17 -1 32
v 25 -1 24
v 28 -1 38
v 28 -1 24
v 16 -1 24
v 16 -1 32
v 29 -1 38
v 28 -1 44
v 28 -1 38
v 29 -1 44

vn 0 1 0
vn 0 1 0
vn 0 1 0
vn 0 1 0
vn 0 1 0
vn 0 1 0
vn 0 1 0
vn 0 1 0
vn 0 1 0
vn 0 1 0
vn 0 1 0
vn 0 1 0
vn 0 1 0
vn 0 1 0
vn 0 1 0
vn 0 1 0
vn 0 1 0
vn 0 1 0
vn 0 1 0
vn 0 1 0
vn 0 1 0
vn 0 1 0
vn 0 1 0

vt 0 0
vt 0 4
vt 6 4
vt 6 0
vt 0 6
vt 14 6
vt 14 3
vt 11 0
vt 14 0
vt 0 12
vt 11 6
vt 0 6
vt 11 0
vt 11 8
vt 3 0
vt 0 14
vt 0 0
vt 12 0
vt 12 8
vt 0 0
vt 1 6
vt 1 0
vt 0 6

g Floor-detach_738_32
usemtl Floor-detach_738_32
usemap Floor-detach_738_32
f 1/1/1 3/3/3 2/2/2
f 4/4/4 3/3/3 1/1/1
f 5/5/5 7/7/7 6/6/6
f 5/5/5 8/8/8 7/7/7
f 7/7/7 8/8/8 9/9/9
f 10/10/10 12/12/12 11/11/11
f 11/11/11 12/12/12 13/13/13
f 14/14/14 16/16/16 15/15/15
f 16/16/16 17/17/17 15/15/15
f 15/15/15 18/18/18 14/14/14
f 18/18/18 19/19/19 14/14/14
f 20/20/20 22/22/22 21/21/21
f 20/20/20 21/21/21 23/23/23
