#Floor-detach_680_3.obj

v 7 -3 14
v 7 0 26
v 7 0 14
v 7 -3 26
v 7 0 14
v 18 -3 14
v 7 -3 14
v 18 0 14
v 6 0 1
v 6 2 0
v 6 2 1
v 6 0 0
v 11 0 1
v 6 2 1
v 7 2 1
v 6 0 1

vn 1 0 0
vn 1 0 0
vn 1 0 0
vn 1 0 0
vn 0 0 1
vn 0 0 1
vn 0 0 1
vn 0 0 1
vn -1 0 0
vn -1 0 0
vn -1 0 0
vn -1 0 0
vn 0 0 1
vn 0 0 1
vn 0 0 1
vn 0 0 1

vt 12 0
vt 0 3
vt 12 3
vt 0 0
vt 0 3
vt 11 0
vt 0 0
vt 11 3
vt 1 0
vt 0 2
vt 1 2
vt 0 0
vt 5 0
vt 0 2
vt 1 2
vt 0 0

g Floor-detach_680_3
usemtl Floor-detach_680_3
usemap Floor-detach_680_3
f 1/1/1 3/3/3 2/2/2
f 1/1/1 2/2/2 4/4/4
f 5/5/5 7/7/7 6/6/6
f 5/5/5 6/6/6 8/8/8
f 9/9/9 11/11/11 10/10/10
f 9/9/9 10/10/10 12/12/12
f 13/13/13 15/15/15 14/14/14
f 13/13/13 14/14/14 16/16/16
