#Floor-detach_951_31.obj

v 38 6 2
v 38 7 2
v 38 6 11
v 38 7 11
v 38 6 11
v 31 6 -13
v 38 6 -13
v 31 6 11
v 38 6 2
v 46 6 -9
v 46 6 2
v 38 6 -9

vn -1 0 0
vn -1 0 0
vn -1 0 0
vn -1 0 0
vn 0 1 0
vn 0 1 0
vn 0 1 0
vn 0 1 0
vn 0 1 0
vn 0 1 0
vn 0 1 0
vn 0 1 0

vt 0 0
vt 0 1
vt 9 0
vt 9 1
vt 0 24
vt 7 0
vt 0 0
vt 7 24
vt 8 11
vt 0 0
vt 0 11
vt 8 0

g Floor-detach_951_31
usemtl Floor-detach_951_31
usemap Floor-detach_951_31
f 1/1/1 3/3/3 2/2/2
f 2/2/2 3/3/3 4/4/4
f 5/5/5 7/7/7 6/6/6
f 5/5/5 6/6/6 8/8/8
f 9/9/9 11/11/11 10/10/10
f 9/9/9 10/10/10 12/12/12
