#Floor-detach_760_30.obj

v -12 -1 17
v -18 1 12
v -12 1 12
v -18 -1 17
v -5 -1 18
v -11 -1 24
v -11 -1 18
v -5 -1 24
v 3 -1 18
v -5 -1 24
v -5 -1 18
v 3 -1 24
v -18 -1 24
v -18 -1 17
v -12 -1 18
v -12 -1 17
v -11 -1 18
v -11 -1 24
v -12 -1 18
v -18 -1 24

vn 0 0.9284766 0.3713907
vn 0 0.9284766 0.3713907
vn 0 0.9284766 0.3713907
vn 0 0.9284766 0.3713907
vn 0 1 0
vn 0 1 0
vn 0 1 0
vn 0 1 0
vn 0 1 0
vn 0 1 0
vn 0 1 0
vn 0 1 0
vn 0 1 0
vn 0 1 0
vn 0 1 0
vn 0 1 0
vn 0 1 0
vn 0 1 0
vn 0 1 0
vn 0 1 0

vt -4.768372E-07 5
vt 6 9.536743E-07
vt 0 9.536743E-07
vt 6 5
vt 0 0
vt 6 6
vt 6 0
vt 0 6
vt 0 0
vt 8 6
vt 8 0
vt 0 6
vt 6 7
vt 6 0
vt 0 1
vt 0 0
vt 0 0
vt 0 6
vt 1 0
vt 7 6

g Floor-detach_760_30
usemtl Floor-detach_760_30
usemap Floor-detach_760_30
f 1/1/1 3/3/3 2/2/2
f 1/1/1 2/2/2 4/4/4
f 5/5/5 7/7/7 6/6/6
f 5/5/5 6/6/6 8/8/8
f 9/9/9 11/11/11 10/10/10
f 9/9/9 10/10/10 12/12/12
f 13/13/13 15/15/15 14/14/14
f 14/14/14 15/15/15 16/16/16
f 17/17/17 19/19/19 18/18/18
f 18/18/18 19/19/19 20/20/20
