#Floor-detach_740_33.obj

v -12 1 8
v -8 1 2
v -8 1 8
v -18 1 2
v -12 1 12
v -18 1 2
v -12 1 8
v -18 1 12
v 12 1 -4
v 12 1 8
v 6 1 8
v 4 1 8
v 4 1 -4

vn 0 1 0
vn 0 1 0
vn 0 1 0
vn 0 1 0
vn 0 1 0
vn 0 1 0
vn 0 1 0
vn 0 1 0
vn 0 1 0
vn 0 1 0
vn 0 1 0
vn 0 1 0
vn 0 1 0

vt 4 6
vt 0 0
vt 0 6
vt 10 0
vt 0 10
vt 6 0
vt 0 6
vt 6 10
vt 0 0
vt 0 12
vt 6 12
vt 8 12
vt 8 0

g Floor-detach_740_33
usemtl Floor-detach_740_33
usemap Floor-detach_740_33
f 1/1/1 3/3/3 2/2/2
f 1/1/1 2/2/2 4/4/4
f 5/5/5 7/7/7 6/6/6
f 5/5/5 6/6/6 8/8/8
f 9/9/9 11/11/11 10/10/10
f 12/12/12 11/11/11 9/9/9
f 12/12/12 9/9/9 13/13/13
