#Floor_736_1.obj

v 25 -2 0
v 25 -1 8
v 25 -1 0
v 25 -2 8
v 33 -2 0
v 25 -2 8
v 25 -2 0
v 33 -2 8
v 33 -1 0
v 33 -2 8
v 33 -2 0
v 33 -1 8
v 54 -2 0
v 54 -2 8
v 42 -2 8
v 42 -2 0
v 54 0 0
v 54 0 8
v 54 -2 0
v 54 -2 8
v 54 0 8
v 42 0 8
v 54 -2 8
v 42 -2 8
v 42 0 0
v 54 0 0
v 42 -2 0
v 54 -2 0
v 42 0 8
v 42 0 0
v 42 -2 8
v 42 -2 0

vn 1 0 0
vn 1 0 0
vn 1 0 0
vn 1 0 0
vn 0 1 0
vn 0 1 0
vn 0 1 0
vn 0 1 0
vn -1 0 0
vn -1 0 0
vn -1 0 0
vn -1 0 0
vn 0 1 0
vn 0 1 0
vn 0 1 0
vn 0 1 0
vn -1 0 0
vn -1 0 0
vn -1 0 0
vn -1 0 0
vn 0 0 -1
vn 0 0 -1
vn 0 0 -1
vn 0 0 -1
vn 0 0 1
vn 0 0 1
vn 0 0 1
vn 0 0 1
vn 1 0 0
vn 1 0 0
vn 1 0 0
vn 1 0 0

vt 8 0
vt 0 1
vt 8 1
vt 0 0
vt 0 0
vt 8 8
vt 8 0
vt 0 8
vt 0 1
vt 8 0
vt 0 0
vt 8 1
vt 0 0
vt 0 8
vt 12 8
vt 12 0
vt 0 2
vt 8 2
vt 0 0
vt 8 0
vt 0 2
vt 12 2
vt 0 0
vt 12 0
vt 0 2
vt 12 2
vt 0 0
vt 12 0
vt 0 2
vt 8 2
vt 0 0
vt 8 0

g Floor_736_1
usemtl Floor_736_1
usemap Floor_736_1
f 1/1/1 3/3/3 2/2/2
f 1/1/1 2/2/2 4/4/4
f 5/5/5 7/7/7 6/6/6
f 5/5/5 6/6/6 8/8/8
f 9/9/9 11/11/11 10/10/10
f 9/9/9 10/10/10 12/12/12
f 13/13/13 15/15/15 14/14/14
f 16/16/16 15/15/15 13/13/13
f 17/17/17 19/19/19 18/18/18
f 18/18/18 19/19/19 20/20/20
f 21/21/21 23/23/23 22/22/22
f 22/22/22 23/23/23 24/24/24
f 25/25/25 27/27/27 26/26/26
f 26/26/26 27/27/27 28/28/28
f 29/29/29 31/31/31 30/30/30
f 30/30/30 31/31/31 32/32/32
