#Floor-detach_690_9.obj

v -5 6 -69
v -5 6 -73
v 9 6 -69
v 13 6 -73
v 13 6 -48
v 9 6 -48
v 14 1 -21
v 8 1 -22
v 14 1 -24
v 8 1 -24
v 14 1 -24
v 8 1 -24
v 14 6 -36
v 8 6 -36
v -5 6 -48
v -10 6 -48
v -5 6 -50
v -10 6 -50
v -5 6 -50
v -20 6 -50
v -5 6 -66
v -20 6 -66
v -5 6 -69
v -5 6 -66
v -10 6 -66
v -10 6 -74
v -5 6 -73
v -5 6 -74
v -10 6 -48
v -5 6 -48
v -10 6 -43
v 4 6 -48
v 4 6 -43
v 14 6 -48
v 17 6 -48
v 14 6 -40
v 17 6 -40
v 13 6 -48
v 8 6 -36
v 9 6 -48
v 14 6 -36
v 4 6 -43
v 8 6 -48
v 4 6 -36
v 4 6 -48
v 13 1 -10
v 9 1 -10
v 9 1 -11
v 13 1 -11
v 15 1 -20
v 15 1 -17
v 14 1 -20
v 14 1 -17
v 14 1 -20
v 8 1 -22
v 14 1 -21
v 9 1 -11
v 8 1 -11
v 13 1 -11
v 14 1 -17
v 14 1 -11

vn 0 1 0
vn 0 1 0
vn 0 1 0
vn 0 1 0
vn 0 1 0
vn 0 1 0
vn 0 1 0
vn 0 1 0
vn 0 1 0
vn 0 1 0
vn 0 0.9230769 0.3846154
vn 0 0.9230769 0.3846154
vn 0 0.9230769 0.3846154
vn 0 0.9230769 0.3846154
vn 0 1 0
vn 0 1 0
vn 0 1 0
vn 0 1 0
vn 0 1 0
vn 0 1 0
vn 0 1 0
vn 0 1 0
vn 0 1 0
vn 0 1 0
vn 0 0.9999999 0
vn 0 1 0
vn 0 1 0
vn 0 1 0
vn 0 1 0
vn 0 1 0
vn 0 1 0
vn 0 1 0
vn 0 0.9999999 0
vn 0 1 0
vn 0 1 0
vn 0 1 0
vn 0 1 0
vn 0 1 0
vn 0 1 0
vn 0 1 0
vn 0 1 0
vn 0 1 0
vn 0 1 0
vn 0 1 0
vn 0 1 0
vn 0 1 0
vn 0 1 0
vn 0 1 0
vn 0 1 0
vn 0 1 0
vn 0 1 0
vn 0 1 0
vn 0 1 0
vn 0 1 0
vn 0 1 0
vn 0 1 0
vn 0 1 0
vn 0 1 0
vn 0 1 0
vn 0 0.9999999 0
vn 0 1 0

vt 18 4
vt 18 0
vt 4 4
vt 0 0
vt 0 25
vt 4 25
vt 0 3
vt 6 2
vt 0 0
vt 6 0
vt 0 13
vt 6 13
vt 0 0
vt 6 0
vt 0 2
vt 5 2
vt 0 0
vt 5 0
vt 0 16
vt 15 16
vt 0 0
vt 15 0
vt 0 5
vt 0 8
vt 5 8
vt 5 0
vt 0 1
vt 0 0
vt 14 0
vt 9 0
vt 14 5
vt 0 0
vt 0 5
vt 3 0
vt 0 0
vt 3 8
vt 0 8
vt 4 0
vt 9 12
vt 8 0
vt 3 12
vt 13 5
vt 9 0
vt 13 12
vt 13 0
vt 0 1
vt 4 1
vt 4 0
vt 0 0
vt 0 0
vt 0 3
vt 1 0
vt 1 3
vt 0 2
vt 6 0
vt 0 1
vt 5 11
vt 6 11
vt 1 11
vt 0 5
vt 0 11

g Floor-detach_690_9
usemtl Floor-detach_690_9
usemap Floor-detach_690_9
f 1/1/1 3/3/3 2/2/2
f 2/2/2 3/3/3 4/4/4
f 5/5/5 4/4/4 6/6/6
f 6/6/6 4/4/4 3/3/3
f 7/7/7 9/9/9 8/8/8
f 8/8/8 9/9/9 10/10/10
f 11/11/11 13/13/13 12/12/12
f 12/12/12 13/13/13 14/14/14
f 15/15/15 17/17/17 16/16/16
f 16/16/16 17/17/17 18/18/18
f 19/19/19 21/21/21 20/20/20
f 20/20/20 21/21/21 22/22/22
f 23/23/23 25/25/25 24/24/24
f 23/23/23 26/26/26 25/25/25
f 27/27/27 26/26/26 23/23/23
f 28/28/28 26/26/26 27/27/27
f 29/29/29 31/31/31 30/30/30
f 32/32/32 30/30/30 33/33/33
f 33/33/33 30/30/30 31/31/31
f 34/34/34 36/36/36 35/35/35
f 35/35/35 36/36/36 37/37/37
f 38/38/38 36/36/36 34/34/34
f 38/38/38 39/39/39 36/36/36
f 40/40/40 39/39/39 38/38/38
f 36/36/36 39/39/39 41/41/41
f 42/42/42 39/39/39 43/43/43
f 43/43/43 39/39/39 40/40/40
f 44/44/44 39/39/39 42/42/42
f 45/45/45 42/42/42 43/43/43
f 46/46/46 48/48/48 47/47/47
f 49/49/49 48/48/48 46/46/46
f 50/50/50 52/52/52 51/51/51
f 52/52/52 53/53/53 51/51/51
f 54/54/54 56/56/56 55/55/55
f 55/55/55 58/58/58 57/57/57
f 59/59/59 60/60/60 57/57/57
f 57/57/57 60/60/60 55/55/55
f 55/55/55 60/60/60 54/54/54
f 61/61/61 60/60/60 59/59/59
