#Floor_706_64.obj

v 2.000028 0 -5.999991
v 2.765656E-05 0 -6
v 3.71933E-05 0 -8
v 2.000037 0 -7.999991
v -5.999981 0 -4.000028
v -9.999981 0 -4.000046
v -9.999962 0 -8.000047
v -5.999962 0 -8.000028
v 2.765656E-05 0 -6
v 1.811981E-05 0 -4
v -5.999981 0 -4.000028
v -5.999962 0 -8.000028
v 3.71933E-05 0 -8
v 0.9999905 0 2.000005
v -9.536743E-06 0 2
v 4.768372E-06 0 -1
v 1.000005 0 -0.9999954
v -3.999987 0 -3.000019
v 1.430511E-05 0 -3
v 4.768372E-06 0 -1
v -9.536743E-06 0 2
v -4.000019 0 3.999981
v -1.811981E-05 0 4
v -4.000004 0 0.9999814
v -5.999987 0 -3.000028
v -5.000004 0 0.9999768
v -10 0 0.9999535
v -9.999985 0 -3.000046
v -5.999987 0 -3.000028
v -9.999985 0 -3.000046
v -9.999981 0 -4.000046
v -5.999981 0 -4.000028
v -5.000004 0 0.9999768
v -5.000055 0 11.99998
v -10.00006 0 11.99995
v -10 0 0.9999535
v -5.000055 0 11.99998
v -5.000069 0 14.99998
v -10.00007 0 14.99995
v -10.00006 0 11.99995
v -4.000055 0 11.99998
v -4.000069 0 14.99998
v -5.000069 0 14.99998
v -5.000055 0 11.99998
v 0.9999352 0 14
v -6.484985E-05 0 14
v -5.149841E-05 0 11
v 0.9999485 0 11
v -6.961823E-05 0 15
v -4.000055 0 11.99998
v -6.484985E-05 0 14
v -4.000069 0 14.99998
v -5.149841E-05 0 11
v -4.196167E-05 0 9
v -4.000042 0 8.999982
v -6.961823E-05 0 15
v -7.915497E-05 0 17
v -4.00008 0 16.99998
v -4.000069 0 14.99998
v 1 0 15
v -7.915497E-05 0 17
v -6.961823E-05 0 15
v 1 0 17
v 2 0 -8
v 6 0 -8
v 6 0 -5
v 2 0 -4
v 4 0 -4
v 6 0 -4
v 8 0 -5
v 9 0 -7
v 9 0 -5
v 8 0 -7
v 8 0 -5
v 6 0 -5
v 8 0 -7
v 6 0 -8
v 8 0 -8

vn 0 1 0
vn 0 1 0
vn 0 1 0
vn 0 1 0
vn 0 1 0
vn 0 1 0
vn 0 1 0
vn 0 1 0
vn 0 0.9999999 0
vn 0 0.9999999 0
vn 0 1 0
vn 0 1 0
vn 0 0.9999999 0
vn 0 1 0
vn 0 1 0
vn 0 1 0
vn 0 1 0
vn 0 1 0
vn 0 1 0
vn 0 1 0
vn 0 1 0
vn 0 1 0
vn 0 1 0
vn 0 1 0
vn 0 0.9999999 0
vn 0 1 0
vn 0 1 0
vn 0 1 0
vn 0 1 0
vn 0 1 0
vn 0 1 0
vn 0 1 0
vn 0 0.9999999 0
vn 0 0.9999999 0
vn 0 0.9999999 0
vn 0 0.9999999 0
vn 0 1 0
vn 0 1 0
vn 0 1 0
vn 0 1 0
vn 0 1 0
vn 0 1 0
vn 0 1 0
vn 0 1 0
vn 0 1 0
vn 0 1 0
vn 0 1 0
vn 0 1 0
vn 0 1 0
vn 0 0.9999999 0
vn 0 1 0
vn 0 0.9999999 0
vn 0 1 0
vn 0 1 0
vn 0 1 0
vn 0 1 0
vn 0 1 0
vn 0 1 0
vn 0 1 0
vn 0 1 0
vn 0 1 0
vn 0 1 0
vn 0 1 0
vn 0 1 0
vn 0 1 0
vn 0 1 0
vn 0 1 0
vn 0 1 0
vn 0 1 0
vn 0 1 0
vn 0 1 0
vn 0 1 0
vn 0 1 0
vn 0 1 0
vn 0 1 0
vn 0 1 0
vn 0 1 0
vn 0 1 0

vt 9.536743E-06 2.000009
vt 2.00001 2
vt 2 0
vt 0 9.059906E-06
vt 1.907349E-05 4.000019
vt 4.000019 4
vt 4 0
vt 0 1.907349E-05
vt 9.536743E-06 2.000028
vt 1.907349E-05 4.000028
vt 6.000018 4
vt 5.999999 0
vt 0 2.765656E-05
vt 1.430511E-05 3.000005
vt 1.000014 3
vt 1 0
vt 0 4.649162E-06
vt 28.99999 2.813339E-05
vt 24.99998 4.673004E-05
vt 25 2.000047
vt 25.00001 5.000047
vt 29.00002 7.000028
vt 25.00002 7.000047
vt 29 4.000028
vt 30.99999 1.883507E-05
vt 30 4.000023
vt 35 4
vt 34.99998 2.384186E-07
vt 30.99999 1.000018
vt 34.99998 0.9999998
vt 34.99998 0
vt 30.99998 1.859665E-05
vt 0 2.336502E-05
vt 5.149841E-05 11.00002
vt 5.000051 11
vt 5 4.768372E-07
vt 0 2.288818E-05
vt 1.335144E-05 3.000023
vt 5.000013 2.999999
vt 5 -9.536743E-07
vt 24.00006 4.768372E-06
vt 24.00007 3.000005
vt 25.00007 3
vt 25.00006 0
vt 1.335144E-05 3.000005
vt 1.000013 3
vt 1 0
vt 0 4.768372E-06
vt 19.00007 6.000019
vt 23.00006 3.000001
vt 19.00006 5.000019
vt 23.00007 6.000001
vt 19.00005 2.000019
vt 19.00004 1.907349E-05
vt 23.00004 9.536743E-07
vt 0 1.907349E-05
vt 9.536743E-06 2.000019
vt 4.00001 2
vt 3.999999 9.536743E-07
vt 0 0
vt 1.000079 2
vt 1.00007 0
vt 0 2
vt 4 0
vt 0 0
vt 0 3
vt 4 4
vt 2 4
vt 0 4
vt 1 2
vt 0 0
vt 0 2
vt 1 0
vt 0 3
vt 2 3
vt 0 1
vt 2 0
vt 0 0

g Floor_706_64
usemtl Floor_706_64
usemap Floor_706_64
f 1/1/1 3/3/3 2/2/2
f 4/4/4 3/3/3 1/1/1
f 5/5/5 7/7/7 6/6/6
f 8/8/8 7/7/7 5/5/5
f 9/9/9 11/11/11 10/10/10
f 9/9/9 12/12/12 11/11/11
f 13/13/13 12/12/12 9/9/9
f 14/14/14 16/16/16 15/15/15
f 17/17/17 16/16/16 14/14/14
f 18/18/18 20/20/20 19/19/19
f 18/18/18 22/22/22 21/21/21
f 18/18/18 21/21/21 20/20/20
f 22/22/22 23/23/23 21/21/21
f 18/18/18 25/25/25 24/24/24
f 25/25/25 27/27/27 26/26/26
f 25/25/25 28/28/28 27/27/27
f 26/26/26 24/24/24 25/25/25
f 29/29/29 31/31/31 30/30/30
f 29/29/29 32/32/32 31/31/31
f 33/33/33 35/35/35 34/34/34
f 36/36/36 35/35/35 33/33/33
f 37/37/37 39/39/39 38/38/38
f 40/40/40 39/39/39 37/37/37
f 41/41/41 43/43/43 42/42/42
f 41/41/41 44/44/44 43/43/43
f 45/45/45 47/47/47 46/46/46
f 48/48/48 47/47/47 45/45/45
f 49/49/49 51/51/51 50/50/50
f 49/49/49 50/50/50 52/52/52
f 51/51/51 53/53/53 50/50/50
f 54/54/54 55/55/55 50/50/50
f 54/54/54 50/50/50 53/53/53
f 56/56/56 58/58/58 57/57/57
f 59/59/59 58/58/58 56/56/56
f 60/60/60 62/62/62 61/61/61
f 60/60/60 61/61/61 63/63/63
f 64/64/64 66/66/66 65/65/65
f 67/67/67 68/68/68 64/64/64
f 64/64/64 68/68/68 66/66/66
f 66/66/66 68/68/68 69/69/69
f 70/70/70 72/72/72 71/71/71
f 70/70/70 71/71/71 73/73/73
f 74/74/74 76/76/76 75/75/75
f 75/75/75 78/78/78 77/77/77
f 76/76/76 78/78/78 75/75/75
