#Floor-detach_1281_163.obj

v 23 -2 -23
v 18 -2 -17
v 18 -2 -23
v 23 -2 -17
v 28 -2 -23
v 23 -2 -17
v 23 -2 -23
v 28 -2 -17
v 34 -2 -27
v 28 -2 -15
v 28 -2 -27
v 34 -2 -15
v 18 -2 -8
v 23 -2 7
v 18 -2 6
v 23 -2 -17
v 18 -2 -13
v 18 -2 -17
v 18 -2 -12
v 18 -2 -9
v 12 -2 -17
v 18 -2 -23
v 18 -2 -17
v 12 -2 -23
v 7 -2 -17
v 12 -2 -23
v 12 -2 -17
v 7 -2 -23

vn 0 1 0
vn 0 1 0
vn 0 1 0
vn 0 1 0
vn 0 1 0
vn 0 1 0
vn 0 1 0
vn 0 1 0
vn 0 1 0
vn 0 1 0
vn 0 1 0
vn 0 1 0
vn 0 1 0
vn 0 1 0
vn 0 1 0
vn 0 0.9999999 0
vn 0 1 0
vn 0 1 0
vn 0 1 0
vn 0 1 0
vn 0 1 0
vn 0 1 0
vn 0 1 0
vn 0 1 0
vn 0 1 0
vn 0 1 0
vn 0 1 0
vn 0 1 0

vt 0 0
vt 5 6
vt 5 0
vt 0 6
vt 0 0
vt 5 6
vt 5 0
vt 0 6
vt 0 0
vt 6 12
vt 6 0
vt 0 12
vt 5 9
vt 0 24
vt 5 23
vt 0 0
vt 5 4
vt 5 0
vt 5 5
vt 5 8
vt 6 6
vt 0 0
vt 0 6
vt 6 0
vt 5 6
vt 0 0
vt 0 6
vt 5 0

g Floor-detach_1281_163
usemtl Floor-detach_1281_163
usemap Floor-detach_1281_163
f 1/1/1 3/3/3 2/2/2
f 1/1/1 2/2/2 4/4/4
f 5/5/5 7/7/7 6/6/6
f 5/5/5 6/6/6 8/8/8
f 9/9/9 11/11/11 10/10/10
f 9/9/9 10/10/10 12/12/12
f 13/13/13 15/15/15 14/14/14
f 14/14/14 16/16/16 13/13/13
f 16/16/16 18/18/18 17/17/17
f 17/17/17 19/19/19 16/16/16
f 16/16/16 20/20/20 13/13/13
f 19/19/19 20/20/20 16/16/16
f 21/21/21 23/23/23 22/22/22
f 21/21/21 22/22/22 24/24/24
f 25/25/25 27/27/27 26/26/26
f 25/25/25 26/26/26 28/28/28
