#Floor-detach_839_33.obj

v 59 2 18
v 54 2 9
v 59 2 9
v 54 2 18
v 59 2 23
v 54 2 18
v 59 2 18
v 54 2 23
v 49 2 23
v 54 2 18
v 54 2 23
v 49 2 18
v 54 2 32
v 49 2 23
v 54 2 23
v 49 2 33
v 49 2 33
v 49 2 36
v 42 2 36
v 42 2 33
v 49 2 33
v 54 2 32
v 54 2 37
v 49 2 37

vn 0 1 0
vn 0 1 0
vn 0 1 0
vn 0 1 0
vn 0 1 0
vn 0 1 0
vn 0 1 0
vn 0 1 0
vn 0 1 0
vn 0 1 0
vn 0 1 0
vn 0 1 0
vn 0 1 0
vn 0 1 0
vn 0 1 0
vn 0 1 0
vn 0 1 0
vn 0 1 0
vn 0 1 0
vn 0 1 0
vn 0 1 0
vn 0 1 0
vn 0 1 0
vn 0 1 0

vt 0 9
vt 5 0
vt 0 0
vt 5 9
vt 0 5
vt 5 0
vt 0 0
vt 5 5
vt 5 5
vt 0 0
vt 0 5
vt 5 0
vt 0 9
vt 5 0
vt 0 0
vt 5 10
vt 0 0
vt 0 3
vt 7 3
vt 7 0
vt 5 1
vt 0 0
vt 0 5
vt 5 5

g Floor-detach_839_33
usemtl Floor-detach_839_33
usemap Floor-detach_839_33
f 1/1/1 3/3/3 2/2/2
f 1/1/1 2/2/2 4/4/4
f 5/5/5 7/7/7 6/6/6
f 5/5/5 6/6/6 8/8/8
f 9/9/9 11/11/11 10/10/10
f 9/9/9 10/10/10 12/12/12
f 13/13/13 15/15/15 14/14/14
f 13/13/13 14/14/14 16/16/16
f 17/17/17 19/19/19 18/18/18
f 20/20/20 19/19/19 17/17/17
f 21/21/21 23/23/23 22/22/22
f 24/24/24 23/23/23 21/21/21
