#Floor_736_2.obj

v 59 0 -1
v 59 0 0
v -28 0 0
v -28 0 -1
v -29 4 0
v -29 4 -1
v -28 4 -1
v -28 4 0
v -29 0 0
v -29 0 -1
v -29 4 0
v -29 4 -1
v -29 0 -1
v -28 0 -1
v -29 4 -1
v -28 4 -1
v -28 0 0
v -29 0 0
v -28 4 0
v -29 4 0
v -28 0 -1
v -28 0 0
v -28 4 -1
v -28 4 0
v -62 0 0
v -29 0 -1
v -29 0 0
v -62 0 -1
v -62 -6 -1
v -29 0 -1
v -62 0 -1
v -29 -6 -1
v -28 -6 -1
v -29 0 -1
v -29 -6 -1
v -28 0 -1
v 59 -6 -1
v -28 0 -1
v -28 -6 -1
v 59 0 -1

vn 0 1 0
vn 0 1 0
vn 0 1 0
vn 0 1 0
vn 0 1 0
vn 0 1 0
vn 0 1 0
vn 0 1 0
vn -1 0 0
vn -1 0 0
vn -1 0 0
vn -1 0 0
vn 0 0 -1
vn 0 0 -1
vn 0 0 -1
vn 0 0 -1
vn 0 0 1
vn 0 0 1
vn 0 0 1
vn 0 0 1
vn 1 0 0
vn 1 0 0
vn 1 0 0
vn 1 0 0
vn 0 1 0
vn 0 1 0
vn 0 1 0
vn 0 1 0
vn 0 0 -1
vn 0 0 -1
vn 0 0 -1
vn 0 0 -1
vn 0 0 -1
vn 0 0 -1
vn 0 0 -1
vn 0 0 -1
vn 0 0 -1
vn 0 0 -1
vn 0 0 -1
vn 0 0 -1

vt 0 0
vt 0 1
vt 87 1
vt 87 0
vt 1 1
vt 1 0
vt 0 0
vt 0 1
vt 1 0
vt 0 0
vt 1 4
vt 0 4
vt 1 0
vt 0 0
vt 1 4
vt 0 4
vt 1 0
vt 0 0
vt 1 4
vt 0 4
vt 1 0
vt 0 0
vt 1 4
vt 0 4
vt 33 1
vt 0 0
vt 0 1
vt 33 0
vt 33 0
vt 0 6
vt 33 6
vt 0 0
vt 0 0
vt 1 6
vt 1 0
vt 0 6
vt 0 0
vt 87 6
vt 87 0
vt 0 6

g Floor_736_2
usemtl Floor_736_2
usemap Floor_736_2
f 1/1/1 3/3/3 2/2/2
f 1/1/1 4/4/4 3/3/3
f 5/5/5 7/7/7 6/6/6
f 8/8/8 7/7/7 5/5/5
f 9/9/9 11/11/11 10/10/10
f 10/10/10 11/11/11 12/12/12
f 13/13/13 15/15/15 14/14/14
f 14/14/14 15/15/15 16/16/16
f 17/17/17 19/19/19 18/18/18
f 18/18/18 19/19/19 20/20/20
f 21/21/21 23/23/23 22/22/22
f 22/22/22 23/23/23 24/24/24
f 25/25/25 27/27/27 26/26/26
f 25/25/25 26/26/26 28/28/28
f 29/29/29 31/31/31 30/30/30
f 29/29/29 30/30/30 32/32/32
f 33/33/33 35/35/35 34/34/34
f 33/33/33 34/34/34 36/36/36
f 37/37/37 39/39/39 38/38/38
f 37/37/37 38/38/38 40/40/40
