#Floor-detach_751_31.obj

v -27 1 60
v -28 1 66
v -28 1 60
v -27 1 66
v -28 1 60
v -28 1 68
v -32 1 57
v -35 1 68
v -28 1 57
v -32 1 57
v -38 1 45
v -32 1 51
v -38 1 68
v -35 1 68
v -21 1 45
v -32 1 51
v -38 1 45
v -21 1 51

vn 0 1 0
vn 0 1 0
vn 0 1 0
vn 0 1 0
vn 0 1 0
vn 0 0.9999999 0
vn 0 0.9999999 0
vn 0 1 0
vn 0 1 0
vn 0 1 0
vn 0 1 0
vn 0 1 0
vn 0 1 0
vn 0 1 0
vn 0 1 0
vn 0 1 0
vn 0 1 0
vn 0 1 0

vt 0 0
vt 1 6
vt 1 0
vt 0 6
vt 0 3
vt 0 11
vt 4 0
vt 7 11
vt 0 0
vt 0 12
vt 6 0
vt 0 6
vt 6 23
vt 3 23
vt 0 0
vt 11 6
vt 17 0
vt 0 6

g Floor-detach_751_31
usemtl Floor-detach_751_31
usemap Floor-detach_751_31
f 1/1/1 3/3/3 2/2/2
f 1/1/1 2/2/2 4/4/4
f 5/5/5 7/7/7 6/6/6
f 6/6/6 7/7/7 8/8/8
f 5/5/5 9/9/9 7/7/7
f 10/10/10 12/12/12 11/11/11
f 13/13/13 10/10/10 11/11/11
f 14/14/14 10/10/10 13/13/13
f 15/15/15 17/17/17 16/16/16
f 15/15/15 16/16/16 18/18/18
