#Floor-detach_764_28.obj

v -27 1 79
v -15 1 76
v 0 1 76
v -1 1 79
v -15 1 54
v -15 1 60
v -27 1 60
v -27 1 54
v -27 1 66
v -15 1 76
v -27 1 79

vn 0 0.9999999 0
vn 0 1 0
vn 0 0.9999999 0
vn 0 1 0
vn 0 1 0
vn 0 1 0
vn 0 1 0
vn 0 1 0
vn 0 1 0
vn 0 1 0
vn 0 1 0

vt 27 3
vt 15 0
vt 0 0
vt 1 3
vt 0 0
vt 0 6
vt 12 6
vt 12 0
vt 12 12
vt 0 22
vt 12 25

g Floor-detach_764_28
usemtl Floor-detach_764_28
usemap Floor-detach_764_28
f 1/1/1 3/3/3 2/2/2
f 4/4/4 3/3/3 1/1/1
f 5/5/5 7/7/7 6/6/6
f 5/5/5 8/8/8 7/7/7
f 9/9/9 10/10/10 6/6/6
f 9/9/9 11/11/11 10/10/10
f 6/6/6 7/7/7 9/9/9
