#Floor-detach_770_69.obj

v 0 -1 44
v 6 -1 41
v 6 -1 44
v 0 -1 41
v 6 -1 41
v 0 -1 41
v 0 -1 34
v 6 -1 29
v 0 -1 31
v 0 -1 29
v 6 -1 47
v 0 -1 44
v 6 -1 44
v 0 -1 47
v 6 1 52
v 0 -1 47
v 6 -1 47
v 0 1 52

vn 0 1 0
vn 0 1 0
vn 0 1 0
vn 0 1 0
vn 0 1 0
vn 0 1 0
vn 0 1 0
vn 0 1 0
vn 0 1 0
vn 0 1 0
vn 0 1 0
vn 0 1 0
vn 0 1 0
vn 0 1 0
vn 0 0.9284766 -0.3713907
vn 0 0.9284766 -0.3713907
vn 0 0.9284766 -0.3713907
vn 0 0.9284766 -0.3713907

vt 6 3
vt 0 0
vt 0 3
vt 6 0
vt 0 12
vt 6 12
vt 6 5
vt 0 0
vt 6 2
vt 6 0
vt 0 3
vt 6 0
vt 0 0
vt 6 3
vt 0 5
vt 6 0
vt 0 0
vt 6 5

g Floor-detach_770_69
usemtl Floor-detach_770_69
usemap Floor-detach_770_69
f 1/1/1 3/3/3 2/2/2
f 1/1/1 2/2/2 4/4/4
f 5/5/5 7/7/7 6/6/6
f 5/5/5 8/8/8 7/7/7
f 8/8/8 9/9/9 7/7/7
f 10/10/10 9/9/9 8/8/8
f 11/11/11 13/13/13 12/12/12
f 11/11/11 12/12/12 14/14/14
f 15/15/15 17/17/17 16/16/16
f 15/15/15 16/16/16 18/18/18
