#Floor-detach_767_38.obj

v -21 -1 37
v -15 -1 32
v -15 -1 37
v -21 -1 32
v -15 -1 38
v -21 -1 37
v -15 -1 37
v -21 -1 38
v -15 1 43
v -21 -1 38
v -15 -1 38
v -21 1 43
v -15 1 45
v -21 1 43
v -15 1 43
v -21 1 45
v -15 1 51
v -21 1 45
v -15 1 45
v -21 1 51

vn 0 1 0
vn 0 1 0
vn 0 1 0
vn 0 1 0
vn 0 1 0
vn 0 1 0
vn 0 1 0
vn 0 1 0
vn 0 0.9284766 -0.3713907
vn 0 0.9284766 -0.3713907
vn 0 0.9284766 -0.3713907
vn 0 0.9284766 -0.3713907
vn 0 1 0
vn 0 1 0
vn 0 1 0
vn 0 1 0
vn 0 1 0
vn 0 1 0
vn 0 1 0
vn 0 1 0

vt 6 5
vt 0 0
vt 0 5
vt 6 0
vt 0 1
vt 6 0
vt 0 0
vt 6 1
vt 2.384186E-07 6
vt 6 0
vt 0 0
vt 6 6
vt 0 2
vt 6 0
vt 0 0
vt 6 2
vt 0 6
vt 6 0
vt 0 0
vt 6 6

g Floor-detach_767_38
usemtl Floor-detach_767_38
usemap Floor-detach_767_38
f 1/1/1 3/3/3 2/2/2
f 1/1/1 2/2/2 4/4/4
f 5/5/5 7/7/7 6/6/6
f 5/5/5 6/6/6 8/8/8
f 9/9/9 11/11/11 10/10/10
f 9/9/9 10/10/10 12/12/12
f 13/13/13 15/15/15 14/14/14
f 13/13/13 14/14/14 16/16/16
f 17/17/17 19/19/19 18/18/18
f 17/17/17 18/18/18 20/20/20
