#Floor_933_24.obj

v 30 7 -39
v 30 7 -44
v 35 7 -44
v 35 7 -39
v 30 7 -44
v 30 6 -44
v 35 6 -44
v 35 7 -44
v 43 6 -44
v 43 7 -44
v 38 6 -44
v 38 7 -44
v 35 7 -39
v 35 6 -41
v 38 7 -39
v 38 6 -41
v 43 7 -44
v 43 7 -39
v 38 7 -39
v 38 7 -44
v 35 6 -44
v 38 6 -41
v 35 6 -41
v 38 6 -44
v 35 6 -44
v 35 7 -39
v 35 7 -44
v 35 6 -41
v 38 6 -41
v 38 7 -44
v 38 7 -39
v 38 6 -44

vn 0 1 0
vn 0 1 0
vn 0 1 0
vn 0 1 0
vn 0 0 -1
vn 0 0 -1
vn 0 0 -1
vn 0 0 -1
vn 0 0 -1
vn 0 0 -1
vn 0 0 -1
vn 0 0 -1
vn 0 0.8944272 -0.4472136
vn 0 0.8944272 -0.4472136
vn 0 0.8944272 -0.4472136
vn 0 0.8944272 -0.4472136
vn 0 1 0
vn 0 1 0
vn 0 1 0
vn 0 1 0
vn 0 1 0
vn 0 1 0
vn 0 1 0
vn 0 1 0
vn 1 0 0
vn 1 0 0
vn 1 0 0
vn 1 0 0
vn -1 0 0
vn -1 0 0
vn -1 0 0
vn -1 0 0

vt 13 5
vt 13 0
vt 8 0
vt 8 5
vt 13 1
vt 13 0
vt 8 0
vt 8 1
vt 0 0
vt 0 1
vt 5 0
vt 5 1
vt 8 4.94136
vt 8 3
vt 5 4.94136
vt 5 3
vt 0 0
vt 0 5
vt 5 5
vt 5 0
vt 3 0
vt 0 3
vt 3 3
vt 0 0
vt 5 0
vt 0 1
vt 5 1
vt 2 0
vt 3 0
vt 0 1
vt 5 1
vt 0 0

g Floor_933_24
usemtl Floor_933_24
usemap Floor_933_24
f 1/1/1 3/3/3 2/2/2
f 4/4/4 3/3/3 1/1/1
f 5/5/5 7/7/7 6/6/6
f 8/8/8 7/7/7 5/5/5
f 9/9/9 11/11/11 10/10/10
f 11/11/11 12/12/12 10/10/10
f 13/13/13 15/15/15 14/14/14
f 14/14/14 15/15/15 16/16/16
f 17/17/17 19/19/19 18/18/18
f 20/20/20 19/19/19 17/17/17
f 21/21/21 23/23/23 22/22/22
f 21/21/21 22/22/22 24/24/24
f 25/25/25 27/27/27 26/26/26
f 25/25/25 26/26/26 28/28/28
f 29/29/29 31/31/31 30/30/30
f 29/29/29 30/30/30 32/32/32
