#Floor-detach_921_28.obj

v 37 10 -75
v 37 10 -81
v 44 10 -75
v 44 10 -81
v -5 6 -74
v -10 6 -74
v -5 6 -81
v -10 6 -80
v 37 10 -81
v 37 10 -67
v 13 10 -67
v 13 10 -81
v 13 10 -81
v -5 6 -74
v -5 6 -81
v 13 10 -74
v 44 6 -66
v 37 10 -75
v 44 10 -75
v 37 6 -66

vn 0 1 0
vn 0 1 0
vn 0 1 0
vn 0 1 0
vn 0 1 0
vn 0 1 0
vn 0 1 0
vn 0 1 0
vn 0 1 0
vn 0 1 0
vn 0 1 0
vn 0 1 0
vn -0.2169305 0.9761871 0
vn -0.2169305 0.9761871 0
vn -0.2169305 0.9761871 0
vn -0.2169305 0.9761871 0
vn 0 0.9138116 0.4061385
vn 0 0.9138116 0.4061385
vn 0 0.9138116 0.4061385
vn 0 0.9138116 0.4061385

vt 7 6
vt 7 0
vt 0 6
vt 0 0
vt 0 7
vt 5 7
vt 0 0
vt 5 1
vt 0 0
vt 0 14
vt 24 14
vt 24 0
vt 0 0
vt 17.99913 7
vt 17.99913 0
vt 0 7
vt 1.907349E-06 10
vt 7 0
vt 0 0
vt 7.000002 10

g Floor-detach_921_28
usemtl Floor-detach_921_28
usemap Floor-detach_921_28
f 1/1/1 3/3/3 2/2/2
f 2/2/2 3/3/3 4/4/4
f 5/5/5 7/7/7 6/6/6
f 6/6/6 7/7/7 8/8/8
f 9/9/9 11/11/11 10/10/10
f 12/12/12 11/11/11 9/9/9
f 13/13/13 15/15/15 14/14/14
f 13/13/13 14/14/14 16/16/16
f 17/17/17 19/19/19 18/18/18
f 17/17/17 18/18/18 20/20/20
