#Floor_706_65.obj

v 14 0 2
v 14 0 11
v 12 0 0
v 12 0 10
v 1 0 14
v 5 0 10
v 4 0 14
v 1 0 11
v 5 0 0
v 9 0 -4
v 12 0 0
v 6 0 -4
v 14 0 2
v 12 0 0
v 14 0 -1
v 13 0 -4
v 14 0 -4
v 9 0 -4
v 14 0 14
v 11 0 14
v 12 0 10
v 14 0 11
v 14 0 15
v 14 0 17
v 13 0 15
v 13 0 17
v 12 0 21
v 10 0 21
v 9 0 20.5
v 12 0 20.5
v 11 0 15
v 12 0 15
v 9 0 17.5
v 12 0 17.5
v 12 0 15
v 13 0 15
v 13 0 17
v 12 0 20.5
v 13 0 21
v 12 0 21
v 12 0 17.5
v 9 0 20.5
v 10 0 21
v 8 0 21
v 9 0 17.5
v 8 0 15
v 11 0 15
v 12 0 10
v 11 0 14
v 5 0 10
v 8 0 14
v 4 0 14
v 8 0 14
v 11 0 15
v 8 0 15
v 11 0 14
v 6 0 -4
v 5 0 0
v 4 0 -4
v 2 0 -4
v 1 0 2
v 1 0 -1
v 1 0 -4
v 2 0 15
v 8 0 15
v 2 0 17
v 8 0 21
v 2 0 21
v 1 0 17
v 2 0 15
v 2 0 17
v 1 0 15
v 1 0 2
v 5 0 10
v 1 0 11
v 5 0 0

vn 0 1 0
vn 0 1 0
vn 0 1 0
vn 0 1 0
vn 0 1 0
vn 0 1 0
vn 0 1 0
vn 0 1 0
vn 0 1 0
vn 0 1 0
vn 0 1 0
vn 0 1 0
vn 0 1 0
vn 0 1 0
vn 0 1 0
vn 0 1 0
vn 0 1 0
vn 0 1 0
vn 0 1 0
vn 0 1 0
vn 0 1 0
vn 0 1 0
vn 0 1 0
vn 0 1 0
vn 0 1 0
vn 0 1 0
vn 0 1 0
vn 0 1 0
vn 0 1 0
vn 0 1 0
vn 0 1 0
vn 0 1 0
vn 0 1 0
vn 0 1 0
vn 0 1 0
vn 0 1 0
vn 0 1 0
vn 0 1 0
vn 0 1 0
vn 0 1 0
vn 0 1 0
vn 0 1 0
vn 0 1 0
vn 0 1 0
vn 0 1 0
vn 0 1 0
vn 0 1 0
vn 0 1 0
vn 0 1 0
vn 0 1 0
vn 0 1 0
vn 0 1 0
vn 0 1 0
vn 0 1 0
vn 0 1 0
vn 0 1 0
vn 0 1 0
vn 0 0.9999999 0
vn 0 1 0
vn 0 1 0
vn 0 1 0
vn 0 1 0
vn 0 1 0
vn 0 1 0
vn 0 1 0
vn 0 1 0
vn 0 1 0
vn 0 1 0
vn 0 1 0
vn 0 1 0
vn 0 1 0
vn 0 1 0
vn 0 1 0
vn 0 1 0
vn 0 1 0
vn 0 1 0

vt 0 2
vt 0 11
vt 2 0
vt 2 10
vt 4 4
vt 0 0
vt 1 4
vt 4 1
vt 7 4
vt 3 0
vt 0 4
vt 6 0
vt 0 6
vt 2 4
vt 0 3
vt 1 0
vt 0 0
vt 5 0
vt 0 4
vt 3 4
vt 2 0
vt 0 1
vt 0 0
vt 0 2
vt 1 0
vt 1 2
vt 0 6
vt 2 6
vt 3 5.5
vt 0 5.5
vt 1 0
vt 0 0
vt 3 2.5
vt 0 2.5
vt 1 0
vt 0 0
vt 0 2
vt 1 5.5
vt 0 6
vt 1 6
vt 1 2.5
vt 2 5.5
vt 1 6
vt 3 6
vt 2 2.5
vt 3 0
vt 0 0
vt 0 0
vt 1 4
vt 7 0
vt 4 4
vt 8 4
vt 3 0
vt 0 1
vt 3 1
vt 0 0
vt 0 0
vt 1 4
vt 2 0
vt 4 0
vt 5 6
vt 5 3
vt 5 0
vt 6 0
vt 0 0
vt 6 2
vt 0 6
vt 6 6
vt 1 2
vt 0 0
vt 0 2
vt 1 0
vt 4 2
vt 0 10
vt 4 11
vt 0 0

g Floor_706_65
usemtl Floor_706_65
usemap Floor_706_65
f 1/1/1 3/3/3 2/2/2
f 2/2/2 3/3/3 4/4/4
f 5/5/5 7/7/7 6/6/6
f 5/5/5 6/6/6 8/8/8
f 9/9/9 11/11/11 10/10/10
f 9/9/9 10/10/10 12/12/12
f 13/13/13 15/15/15 14/14/14
f 14/14/14 15/15/15 16/16/16
f 16/16/16 15/15/15 17/17/17
f 14/14/14 16/16/16 18/18/18
f 19/19/19 21/21/21 20/20/20
f 21/21/21 19/19/19 22/22/22
f 23/23/23 25/25/25 24/24/24
f 25/25/25 26/26/26 24/24/24
f 27/27/27 29/29/29 28/28/28
f 30/30/30 29/29/29 27/27/27
f 31/31/31 33/33/33 32/32/32
f 32/32/32 33/33/33 34/34/34
f 35/35/35 37/37/37 36/36/36
f 38/38/38 39/39/39 37/37/37
f 38/38/38 40/40/40 39/39/39
f 35/35/35 41/41/41 37/37/37
f 37/37/37 41/41/41 38/38/38
f 42/42/42 44/44/44 43/43/43
f 42/42/42 45/45/45 44/44/44
f 44/44/44 45/45/45 46/46/46
f 46/46/46 45/45/45 47/47/47
f 48/48/48 50/50/50 49/49/49
f 49/49/49 50/50/50 51/51/51
f 52/52/52 51/51/51 50/50/50
f 53/53/53 55/55/55 54/54/54
f 53/53/53 54/54/54 56/56/56
f 57/57/57 59/59/59 58/58/58
f 58/58/58 59/59/59 60/60/60
f 61/61/61 58/58/58 62/62/62
f 60/60/60 62/62/62 58/58/58
f 63/63/63 62/62/62 60/60/60
f 64/64/64 66/66/66 65/65/65
f 65/65/65 68/68/68 67/67/67
f 66/66/66 68/68/68 65/65/65
f 69/69/69 71/71/71 70/70/70
f 69/69/69 70/70/70 72/72/72
f 73/73/73 75/75/75 74/74/74
f 74/74/74 76/76/76 73/73/73
