#Floor-detach_752_39.obj

v 0 -1 31
v 0 -1 34
v -3 -1 31
v -3 -1 34
v -13 -1 37
v -15 -1 37
v -13 -1 32
v -15 -1 32
v -3 -1 34
v -3 -1 37
v -13 -1 37
v -13 -1 32
v -3 -1 31
v -3 -1 26
v -5 -1 26
v -13 -1 26
v -11 -1 26
v -11 -1 24
v -5 -1 24
v -11 -1 26
v -5 -1 26

vn 0 1 0
vn 0 1 0
vn 0 1 0
vn 0 1 0
vn 0 1 0
vn 0 1 0
vn 0 1 0
vn 0 1 0
vn 0 0.9999999 0
vn 0 1 0
vn 0 1 0
vn 0 1 0
vn 0 1 0
vn 0 1 0
vn 0 1 0
vn 0 1 0
vn 0 1 0
vn 0 1 0
vn 0 1 0
vn 0 1 0
vn 0 1 0

vt 0 0
vt 0 3
vt 3 0
vt 3 3
vt 0 5
vt 2 5
vt 0 0
vt 2 0
vt 0 8
vt 0 11
vt 10 11
vt 10 6
vt 0 5
vt 0 0
vt 2 0
vt 10 0
vt 8 0
vt 6 0
vt 0 0
vt 6 2
vt 0 2

g Floor-detach_752_39
usemtl Floor-detach_752_39
usemap Floor-detach_752_39
f 1/1/1 3/3/3 2/2/2
f 3/3/3 4/4/4 2/2/2
f 5/5/5 7/7/7 6/6/6
f 6/6/6 7/7/7 8/8/8
f 9/9/9 11/11/11 10/10/10
f 9/9/9 12/12/12 11/11/11
f 13/13/13 12/12/12 9/9/9
f 14/14/14 15/15/15 13/13/13
f 13/13/13 16/16/16 12/12/12
f 15/15/15 17/17/17 13/13/13
f 13/13/13 17/17/17 16/16/16
f 18/18/18 20/20/20 19/19/19
f 19/19/19 20/20/20 21/21/21
