#Floor-detach_975_22.obj

v 41 6 -9
v 44 7 -11
v 44 6 -9
v 41 7 -11
v 30 7 -28
v 30 7 -25
v 26 4 -28
v 26 4 -25
v 48 7 -19
v 33 7 -19
v 48 7 -29
v 33 7 -29
v 39 7 -29
v 34 7 -29
v 39 7 -30
v 34 7 -30
v 38 7 -30
v 35 7 -30
v 38 7 -39
v 35 7 -39
v 44 7 -11
v 41 7 -11
v 44 7 -19
v 41 7 -19
v 33 7 -28
v 33 7 -23
v 30 7 -28
v 30 7 -23
v 30 7 -25
v 30 7 -23
v 26 7 -25
v 26 7 -23
v 26 4 -28
v 26 4 -25
v 23 4 -28
v 23 4 -25
v 14 1 -21
v 28 1 -21
v 14 1 -16
v 28 1 -16
v 26 4 -25
v 26 7 -25
v 26 7 -23
v 26 2.5 -23
v 23 1 -21
v 23 4 -25
v 26 4 -25
v 26 1 -21
v 30 7 -25
v 26 7 -25
v 26 4 -25

vn 0 0.8944272 0.4472136
vn 0 0.8944272 0.4472136
vn 0 0.8944272 0.4472136
vn 0 0.8944272 0.4472136
vn -0.6 0.8000001 0
vn -0.6 0.8000001 0
vn -0.6 0.8000001 0
vn -0.6 0.8000001 0
vn 0 1 0
vn 0 1 0
vn 0 1 0
vn 0 1 0
vn 0 1 0
vn 0 1 0
vn 0 1 0
vn 0 1 0
vn 0 1 0
vn 0 1 0
vn 0 1 0
vn 0 1 0
vn 0 1 0
vn 0 1 0
vn 0 1 0
vn 0 1 0
vn 0 1 0
vn 0 1 0
vn 0 1 0
vn 0 1 0
vn 0 1 0
vn 0 1 0
vn 0 1 0
vn 0 1 0
vn 0 1 0
vn 0 1 0
vn 0 1 0
vn 0 1 0
vn 0 1 0
vn 0 1 0
vn 0 1 0
vn 0 1 0
vn -1 0 0
vn -1 0 0
vn -1 0 0
vn -1 0 0
vn 0 0.8000001 0.6
vn 0 0.8000001 0.6
vn 0 0.8000001 0.6
vn 0 0.8000001 0.6
vn 0 0 -1
vn 0 0 -1
vn 0 0 -1

vt 3 0
vt -3.576279E-07 2
vt 3.576279E-07 0
vt 3 2
vt 0 0
vt 0 3
vt 5 0
vt 5 3
vt 0 20
vt 15 20
vt 0 10
vt 15 10
vt 9 10
vt 14 10
vt 9 9
vt 14 9
vt 10 9
vt 13 9
vt 10 0
vt 13 0
vt 4 30
vt 7 30
vt 4 20
vt 7 20
vt 15 11
vt 15 16
vt 18 11
vt 18 16
vt 18 14
vt 18 16
vt 22 14
vt 22 16
vt 0 0
vt 0 3
vt 3 0
vt 3 3
vt 14 0
vt 0 0
vt 14 5
vt 0 5
vt 0 1.5
vt 0 4.5
vt 2 4.5
vt 2 0
vt 3 5
vt 3 0
vt 0 0
vt 0 5
vt 0 3
vt 4 3
vt 4 0

g Floor-detach_975_22
usemtl Floor-detach_975_22
usemap Floor-detach_975_22
f 1/1/1 3/3/3 2/2/2
f 1/1/1 2/2/2 4/4/4
f 5/5/5 7/7/7 6/6/6
f 6/6/6 7/7/7 8/8/8
f 9/9/9 11/11/11 10/10/10
f 10/10/10 11/11/11 12/12/12
f 13/13/13 15/15/15 14/14/14
f 14/14/14 15/15/15 16/16/16
f 17/17/17 19/19/19 18/18/18
f 18/18/18 19/19/19 20/20/20
f 21/21/21 23/23/23 22/22/22
f 22/22/22 23/23/23 24/24/24
f 25/25/25 27/27/27 26/26/26
f 26/26/26 27/27/27 28/28/28
f 29/29/29 31/31/31 30/30/30
f 30/30/30 31/31/31 32/32/32
f 33/33/33 35/35/35 34/34/34
f 34/34/34 35/35/35 36/36/36
f 37/37/37 39/39/39 38/38/38
f 38/38/38 39/39/39 40/40/40
f 41/41/41 43/43/43 42/42/42
f 41/41/41 44/44/44 43/43/43
f 45/45/45 47/47/47 46/46/46
f 48/48/48 47/47/47 45/45/45
f 49/49/49 51/51/51 50/50/50
