#Floor_844_37.obj

v 36 3 27
v 21 1 27
v 36 1 27
v 21 3 27
v 37 3 28
v 21 3 27
v 36 3 27
v 21 3 28
v 37 2 28
v 21 3 28
v 37 3 28
v 21 2 28
v 37 3 16
v 37 2 28
v 37 3 28
v 37 2 16
v 21 3 16
v 37 2 16
v 37 3 16
v 21 2 16
v 36 3 17
v 21 3 16
v 37 3 16
v 21 3 17
v 36 3 27
v 37 3 28
v 36 1 17
v 21 3 17
v 36 3 17
v 21 1 17
v 21 1 30
v 36 1 27
v 21 1 27
v 36 1 30
v 36 1 4
v 21 1 17
v 36 1 17
v 21 1 4
v 36 1 27
v 36 3 17
v 36 3 27
v 36 1 17

vn 0 0 -1
vn 0 0 -1
vn 0 0 -1
vn 0 0 -1
vn 0 1 0
vn 0 1 0
vn 0 1 0
vn 0 1 0
vn 0 0 1
vn 0 0 1
vn 0 0 1
vn 0 0 1
vn 1 0 0
vn 1 0 0
vn 1 0 0
vn 1 0 0
vn 0 0 -1
vn 0 0 -1
vn 0 0 -1
vn 0 0 -1
vn 0 0.9999999 0
vn 0 1 0
vn 0 1 0
vn 0 1 0
vn 0 1 0
vn 0 1 0
vn 0 0 1
vn 0 0 1
vn 0 0 1
vn 0 0 1
vn 0 -1 0
vn 0 -1 0
vn 0 -1 0
vn 0 -1 0
vn 0 -1 0
vn 0 -1 0
vn 0 -1 0
vn 0 -1 0
vn -1 0 0
vn -1 0 0
vn -1 0 0
vn -1 0 0

vt 0 2
vt 15 0
vt 0 0
vt 15 2
vt 0 1
vt 16 0
vt 1 0
vt 16 1
vt 16 0
vt 0 1
vt 16 1
vt 0 0
vt 12 1
vt 0 0
vt 0 1
vt 12 0
vt 16 1
vt 0 0
vt 0 1
vt 16 0
vt 1 1
vt 16 0
vt 0 0
vt 16 1
vt 1 11
vt 0 12
vt 15 0
vt 0 2
vt 15 2
vt 0 0
vt 0 3
vt 15 0
vt 0 0
vt 15 3
vt 15 0
vt 0 13
vt 15 13
vt 0 0
vt 10 0
vt 0 2
vt 10 2
vt 0 0

g Floor_844_37
usemtl Floor_844_37
usemap Floor_844_37
f 1/1/1 3/3/3 2/2/2
f 1/1/1 2/2/2 4/4/4
f 5/5/5 7/7/7 6/6/6
f 5/5/5 6/6/6 8/8/8
f 9/9/9 11/11/11 10/10/10
f 9/9/9 10/10/10 12/12/12
f 13/13/13 15/15/15 14/14/14
f 13/13/13 14/14/14 16/16/16
f 17/17/17 19/19/19 18/18/18
f 17/17/17 18/18/18 20/20/20
f 21/21/21 23/23/23 22/22/22
f 21/21/21 22/22/22 24/24/24
f 23/23/23 21/21/21 25/25/25
f 23/23/23 25/25/25 26/26/26
f 27/27/27 29/29/29 28/28/28
f 27/27/27 28/28/28 30/30/30
f 31/31/31 33/33/33 32/32/32
f 31/31/31 32/32/32 34/34/34
f 35/35/35 37/37/37 36/36/36
f 35/35/35 36/36/36 38/38/38
f 39/39/39 41/41/41 40/40/40
f 39/39/39 40/40/40 42/42/42
