#Floor-detach_738_23.obj

v 59 -6 -1
v -62 0 -1
v 59 0 -1
v -62 -6 -1
v 59 -6 2
v -62 -6 -1
v 59 -6 -1
v -62 -6 2
v -62 0 -6
v 59 0 -1
v -62 0 -1
v 59 0 -6

vn 0 0 1
vn 0 0 1
vn 0 0 1
vn 0 0 1
vn 0 1 0
vn 0 1 0
vn 0 1 0
vn 0 1 0
vn 0 1 0
vn 0 1 0
vn 0 1 0
vn 0 1 0

vt 121 0
vt 0 6
vt 121 6
vt 0 0
vt 0 3
vt 121 0
vt 0 0
vt 121 3
vt 121 0
vt 0 5
vt 121 5
vt 0 0

g Floor-detach_738_23
usemtl Floor-detach_738_23
usemap Floor-detach_738_23
f 1/1/1 3/3/3 2/2/2
f 1/1/1 2/2/2 4/4/4
f 5/5/5 7/7/7 6/6/6
f 5/5/5 6/6/6 8/8/8
f 9/9/9 11/11/11 10/10/10
f 9/9/9 10/10/10 12/12/12
