#Floor_537_5.obj

v -1 -3 -7
v -1 -3 -14
v -1 1 0
v -1 1 -21
v 4 1 -23
v -1 1 -21
v -1 1 -23
v -1 1 0
v 4 1 2
v -1 1 2
v -6 1 -21
v -1 1 -23
v -1 1 -21
v -6 1 -23
v -1 -3 -14
v -6 1 -21
v -1 1 -21
v -6 -3 -14
v -6 1 0
v -1 -3 -7
v -1 1 0
v -6 -3 -7
v -6 1 2
v -1 1 0
v -1 1 2
v -6 1 0
v -6 -3 2
v -6 1 0
v -6 1 2
v -6 -3 -7
v -6 -3 -14
v -6 1 -23
v -6 1 -21
v -6 -3 -23
v -29 1 -21
v -24 -3 -14
v -29 -3 -14
v -24 1 -21
v -29 1 -23
v -24 1 -21
v -29 1 -21
v -24 1 -23
v -24 -3 -23
v -24 1 -21
v -24 1 -23
v -24 -3 -14
v -24 1 0
v -29 -3 -7
v -24 -3 -7
v -29 1 0
v -24 1 2
v -29 1 0
v -24 1 0
v -29 1 2
v -24 -3 -7
v -24 1 2
v -24 1 0
v -24 -3 2
v -29 1 0
v -29 -3 -14
v -29 -3 -7
v -29 1 -21
v -34 1 2
v -29 1 -23
v -29 1 2
v -34 1 -23

vn -1 0 0
vn -1 0 0
vn -1 0 0
vn -1 0 0
vn 0 1 0
vn 0 0.9999999 0
vn 0 1 0
vn 0 1 0
vn 0 1 0
vn 0 1 0
vn 0 1 0
vn 0 1 0
vn 0 1 0
vn 0 1 0
vn 0 0.8682432 0.496139
vn 0 0.8682432 0.496139
vn 0 0.8682432 0.496139
vn 0 0.8682432 0.496139
vn 0 0.8682432 -0.496139
vn 0 0.8682432 -0.496139
vn 0 0.8682432 -0.496139
vn 0 0.8682432 -0.496139
vn 0 1 0
vn 0 1 0
vn 0 1 0
vn 0 1 0
vn -1 0 0
vn -1 0 0
vn -1 0 0
vn -1 0 0
vn -1 0 0
vn -1 0 0
vn -1 0 0
vn -1 0 0
vn 0 0.8682432 0.496139
vn 0 0.8682432 0.496139
vn 0 0.8682432 0.496139
vn 0 0.8682432 0.496139
vn 0 1 0
vn 0 1 0
vn 0 1 0
vn 0 1 0
vn 1 0 0
vn 1 0 0
vn 1 0 0
vn 1 0 0
vn 0 0.8682432 -0.496139
vn 0 0.8682432 -0.496139
vn 0 0.8682432 -0.496139
vn 0 0.8682432 -0.496139
vn 0 1 0
vn 0 1 0
vn 0 1 0
vn 0 1 0
vn 1 0 0
vn 1 0 0
vn 1 0 0
vn 1 0 0
vn 1 0 0
vn 1 0 0
vn 1 0 0
vn 1 0 0
vn 0 1 0
vn 0 1 0
vn 0 1 0
vn 0 1 0

vt 14 0
vt 7 0
vt 21 4
vt 0 4
vt 0 0
vt 5 2
vt 5 0
vt 5 23
vt 0 25
vt 5 25
vt 5 2
vt 0 0
vt 0 2
vt 5 0
vt 0 8.062259
vt 5 0
vt 0 0
vt 5 8.062259
vt 5 8
vt 0 0
vt 2.384186E-07 8
vt 5 0
vt 5 2
vt 0 0
vt 0 2
vt 5 0
vt 9 0
vt 7 4
vt 9 4
vt 0 0
vt 9 0
vt 0 4
vt 2 4
vt 0 0
vt 5 0
vt 0 7.999879
vt 5 7.999879
vt 0 0
vt 5 0
vt 0 2
vt 5 2
vt 0 0
vt 9 0
vt 7 4
vt 9 4
vt 0 0
vt 0 8.062258
vt 5 0
vt 0 0
vt 5 8.062258
vt 0 2
vt 5 0
vt 0 0
vt 5 2
vt 9 0
vt 0 4
vt 2 4
vt 0 0
vt 0 4
vt 14 0
vt 7 0
vt 21 4
vt 5 25
vt 0 0
vt 0 25
vt 5 0

g Floor_537_5
usemtl Floor_537_5
usemap Floor_537_5
f 1/1/1 3/3/3 2/2/2
f 2/2/2 3/3/3 4/4/4
f 5/5/5 7/7/7 6/6/6
f 6/6/6 8/8/8 5/5/5
f 5/5/5 8/8/8 9/9/9
f 9/9/9 8/8/8 10/10/10
f 11/11/11 13/13/13 12/12/12
f 11/11/11 12/12/12 14/14/14
f 15/15/15 17/17/17 16/16/16
f 15/15/15 16/16/16 18/18/18
f 19/19/19 21/21/21 20/20/20
f 19/19/19 20/20/20 22/22/22
f 23/23/23 25/25/25 24/24/24
f 23/23/23 24/24/24 26/26/26
f 27/27/27 29/29/29 28/28/28
f 27/27/27 28/28/28 30/30/30
f 31/31/31 33/33/33 32/32/32
f 31/31/31 32/32/32 34/34/34
f 35/35/35 37/37/37 36/36/36
f 35/35/35 36/36/36 38/38/38
f 39/39/39 41/41/41 40/40/40
f 39/39/39 40/40/40 42/42/42
f 43/43/43 45/45/45 44/44/44
f 43/43/43 44/44/44 46/46/46
f 47/47/47 49/49/49 48/48/48
f 47/47/47 48/48/48 50/50/50
f 51/51/51 53/53/53 52/52/52
f 51/51/51 52/52/52 54/54/54
f 55/55/55 57/57/57 56/56/56
f 55/55/55 56/56/56 58/58/58
f 59/59/59 61/61/61 60/60/60
f 59/59/59 60/60/60 62/62/62
f 63/63/63 65/65/65 64/64/64
f 63/63/63 64/64/64 66/66/66
