#Floor-detach_1167_18.obj

v 28 -4 7
v 25 -2 11
v 25 -2 7
v 28 -4 11
v 31 -6 16
v 34 -4 12
v 34 -4 16
v 31 -6 12
v 29 -6 16
v 31 -6 12
v 31 -6 16
v 29 -6 12
v 24 -6 16
v 24 -6 12
v 29 -6 16
v 29 -6 12
v 38 -4 7
v 28 -4 11
v 28 -4 7
v 34 -4 11
v 38 -4 16
v 34 -4 12
v 34 -4 16

vn 0.5547002 0.8320503 0
vn 0.5547002 0.8320503 0
vn 0.5547002 0.8320503 0
vn 0.5547002 0.8320503 0
vn -0.5547002 0.8320503 0
vn -0.5547002 0.8320503 0
vn -0.5547002 0.8320503 0
vn -0.5547002 0.8320503 0
vn 0 1 0
vn 0 1 0
vn 0 1 0
vn 0 1 0
vn 0 1 0
vn 0 1 0
vn 0 1 0
vn 0 1 0
vn 0 1 0
vn 0 1 0
vn 0 1 0
vn 0 1 0
vn 0 1 0
vn 0 1 0
vn 0 1 0

vt 0 0
vt 4 4
vt 4 0
vt 0 4
vt 4 4
vt 1.907349E-06 0
vt 1.907349E-06 4
vt 4 2.384186E-07
vt 2 4
vt 0 0
vt 0 4
vt 2 0
vt 5 4
vt 5 0
vt 0 4
vt 0 0
vt 0 0
vt 10 4
vt 10 0
vt 4 4
vt 0 9
vt 4 5
vt 4 9

g Floor-detach_1167_18
usemtl Floor-detach_1167_18
usemap Floor-detach_1167_18
f 1/1/1 3/3/3 2/2/2
f 1/1/1 2/2/2 4/4/4
f 5/5/5 7/7/7 6/6/6
f 5/5/5 6/6/6 8/8/8
f 9/9/9 11/11/11 10/10/10
f 9/9/9 10/10/10 12/12/12
f 13/13/13 15/15/15 14/14/14
f 14/14/14 15/15/15 16/16/16
f 17/17/17 19/19/19 18/18/18
f 17/17/17 18/18/18 20/20/20
f 21/21/21 17/17/17 20/20/20
f 21/21/21 20/20/20 22/22/22
f 21/21/21 22/22/22 23/23/23
