#Floor-detach_845_29.obj

v -1 1 6
v -1 2 8
v -6 1 6
v -6 2 8
v -6 1 8
v -6 1 6
v -6 2 8
v -1 1 6
v -1 1 8
v -1 2 8
v 0 1 6
v -1 1 8
v -1 1 6
v 0 1 8
v 0 1 8
v -1 2 8
v -1 1 8
v 0 2 8
v -7 2 8
v -6 1 8
v -6 2 8
v -7 1 8
v -7 1 8
v -6 1 6
v -6 1 8
v -7 1 6
v 9 2 2
v 5 2 2
v 10 2 0
v 10 2 2
v 10 2 -8
v 3 2 -5
v 3 2 -8
v 3 2 2
v 3 2 0
v 1 1 0
v 1 1 -5
v 3 2 0
v 3 2 -5
v 0 1 6
v -7 1 6
v 0 1 2
v -7 1 -7
v 0 1 -7
v 3 1 -5
v 3 2 -8
v 3 2 -5
v 3 1 -8
v 1 1 -5
v 3 1 -8
v 3 1 -5
v 0 1 -8
v 3 2 -5
v 1 1 -5
v 3 1 -5
v 3 1 2
v 3 2 0
v 3 2 2
v 3 1 0
v 0 1 2
v 3 1 0
v 3 1 2
v 1 1 0
v 1 1 0
v 3 2 0
v 3 1 0
v 0 1 2
v 0 1 -8
v 1 1 -5
v 1 1 -5
v 1 1 0
v 0 1 2

vn 0 0.8944272 -0.4472136
vn 0 0.8944272 -0.4472136
vn 0 0.8944272 -0.4472136
vn 0 0.8944272 -0.4472136
vn -1 0 0
vn -1 0 0
vn -1 0 0
vn 1 0 0
vn 1 0 0
vn 1 0 0
vn 0 1 0
vn 0 1 0
vn 0 1 0
vn 0 1 0
vn 0 0 -1
vn 0 0 -1
vn 0 0 -1
vn 0 0 -1
vn 0 0 -1
vn 0 0 -1
vn 0 0 -1
vn 0 0 -1
vn 0 1 0
vn 0 1 0
vn 0 1 0
vn 0 1 0
vn 0 1 0
vn 0 1 0
vn 0 1 0
vn 0 1 0
vn 0 1 0
vn 0 1 0
vn 0 1 0
vn 0 1 0
vn 0 1 0
vn -0.4472136 0.8944272 0
vn -0.4472136 0.8944272 0
vn -0.4472136 0.8944272 0
vn -0.4472136 0.8944272 0
vn 0 1 0
vn 0 1 0
vn 0 1 0
vn 0 1 0
vn 0 1 0
vn -1 0 0
vn -1 0 0
vn -1 0 0
vn -1 0 0
vn 0 1 0
vn 0 1 0
vn 0 1 0
vn 0 1 0
vn 0 0 -1
vn 0 0 -1
vn 0 0 -1
vn -1 0 0
vn -1 0 0
vn -1 0 0
vn -1 0 0
vn 0 1 0
vn 0 1 0
vn 0 1 0
vn 0 1 0
vn 0 0 1
vn 0 0 1
vn 0 0 1
vn 0 1 0
vn 0 1 0
vn 0 1 0
vn 0 1 0
vn 0 1 0
vn 0 1 0

vt -2.384186E-07 4.768372E-07
vt 9.536743E-07 2
vt 5 -4.768372E-07
vt 5.000001 2
vt 2 0
vt 0 0
vt 2 1
vt 2 0
vt 0 0
vt 0 1
vt 0 0
vt 1 2
vt 1 0
vt 0 2
vt 0 0
vt 1 1
vt 1 0
vt 0 1
vt 1 1
vt 0 0
vt 0 1
vt 1 0
vt 1 2
vt 0 0
vt 0 2
vt 1 0
vt 1 10
vt 5 10
vt 0 8
vt 0 10
vt 0 0
vt 7 3
vt 7 0
vt 7 10
vt 7 8
vt 2 5.000009
vt 2 8.583069E-06
vt 0 5
vt 0 0
vt 0 13
vt 7 13
vt 0 9
vt 7 0
vt 0 0
vt 3 0
vt 0 1
vt 3 1
vt 0 0
vt 2 3
vt 0 0
vt 0 3
vt 3 0
vt 0 1
vt 2 0
vt 0 0
vt 2 0
vt 0 1
vt 2 1
vt 0 0
vt 3 2
vt 0 0
vt 0 2
vt 2 0
vt 0 0
vt 2 1
vt 2 0
vt 1 10
vt 1 0
vt 0 3
vt 0 0
vt 0 5
vt 1 7

g Floor-detach_845_29
usemtl Floor-detach_845_29
usemap Floor-detach_845_29
f 1/1/1 3/3/3 2/2/2
f 2/2/2 3/3/3 4/4/4
f 5/5/5 7/7/7 6/6/6
f 8/8/8 10/10/10 9/9/9
f 11/11/11 13/13/13 12/12/12
f 11/11/11 12/12/12 14/14/14
f 15/15/15 17/17/17 16/16/16
f 15/15/15 16/16/16 18/18/18
f 19/19/19 21/21/21 20/20/20
f 19/19/19 20/20/20 22/22/22
f 23/23/23 25/25/25 24/24/24
f 23/23/23 24/24/24 26/26/26
f 27/27/27 29/29/29 28/28/28
f 27/27/27 30/30/30 29/29/29
f 31/31/31 32/32/32 29/29/29
f 33/33/33 32/32/32 31/31/31
f 29/29/29 34/34/34 28/28/28
f 32/32/32 35/35/35 29/29/29
f 29/29/29 35/35/35 34/34/34
f 36/36/36 38/38/38 37/37/37
f 37/37/37 38/38/38 39/39/39
f 40/40/40 42/42/42 41/41/41
f 42/42/42 43/43/43 41/41/41
f 44/44/44 43/43/43 42/42/42
f 45/45/45 47/47/47 46/46/46
f 45/45/45 46/46/46 48/48/48
f 49/49/49 51/51/51 50/50/50
f 49/49/49 50/50/50 52/52/52
f 53/53/53 55/55/55 54/54/54
f 56/56/56 58/58/58 57/57/57
f 56/56/56 57/57/57 59/59/59
f 60/60/60 62/62/62 61/61/61
f 60/60/60 61/61/61 63/63/63
f 64/64/64 66/66/66 65/65/65
f 67/67/67 69/69/69 68/68/68
f 70/70/70 72/72/72 71/71/71
