#Floor-detach_1212_9.obj

v 1 -6 41
v -11 -6 41
v 1 -6 36
v -11 -6 36
v 1 -7 41
v -11 -7 41
v 1 -6 41
v -11 -6 41
v 1 -7 36
v 1 -7 41
v 1 -6 36
v 1 -6 41
v -11 -7 41
v 1 -7 41
v -11 -7 46
v 18 -7 36
v 18 -7 46
v 1 -7 36
v 31 -7 46
v 18 -7 46
v 31 -7 36
v 18 -7 36
v 34 -7 44
v 34 -7 38
v 37 -7 38
v 37 -7 44
v 34 -7 44
v 34 -7 46
v 31 -7 46
v 31 -7 36
v 34 -7 38
v 34 -7 36

vn 0 1 0
vn 0 1 0
vn 0 1 0
vn 0 1 0
vn 0 0 1
vn 0 0 1
vn 0 0 1
vn 0 0 1
vn 1 0 0
vn 1 0 0
vn 1 0 0
vn 1 0 0
vn 0 1 0
vn 0 0.9999999 0
vn 0 1 0
vn 0 1 0
vn 0 1 0
vn 0 1 0
vn 0 1 0
vn 0 1 0
vn 0 1 0
vn 0 1 0
vn 0 1 0
vn 0 1 0
vn 0 1 0
vn 0 1 0
vn 0 1 0
vn 0 1 0
vn 0 1 0
vn 0 1 0
vn 0 1 0
vn 0 1 0

vt 0 5
vt 12 5
vt 0 0
vt 12 0
vt 12 0
vt 0 0
vt 12 1
vt 0 1
vt 5 0
vt 0 0
vt 5 1
vt 0 1
vt 29 5
vt 17 5
vt 29 10
vt 0 0
vt 0 10
vt 17 0
vt 0 10
vt 13 10
vt 0 0
vt 13 0
vt 3 6
vt 3 0
vt 0 0
vt 0 6
vt 0 8
vt 0 10
vt 3 10
vt 3 0
vt 0 2
vt 0 0

g Floor-detach_1212_9
usemtl Floor-detach_1212_9
usemap Floor-detach_1212_9
f 1/1/1 3/3/3 2/2/2
f 2/2/2 3/3/3 4/4/4
f 5/5/5 7/7/7 6/6/6
f 6/6/6 7/7/7 8/8/8
f 9/9/9 11/11/11 10/10/10
f 10/10/10 11/11/11 12/12/12
f 13/13/13 15/15/15 14/14/14
f 16/16/16 14/14/14 17/17/17
f 18/18/18 14/14/14 16/16/16
f 17/17/17 14/14/14 15/15/15
f 19/19/19 21/21/21 20/20/20
f 20/20/20 21/21/21 22/22/22
f 23/23/23 25/25/25 24/24/24
f 23/23/23 26/26/26 25/25/25
f 27/27/27 29/29/29 28/28/28
f 27/27/27 30/30/30 29/29/29
f 31/31/31 30/30/30 27/27/27
f 32/32/32 30/30/30 31/31/31
