#Floor-detach_951_30.obj

v 38 6 2
v 46 6 2
v 38 7 2
v 46 7 2
v 41 7 11
v 46 7 11
v 41 7 17
v 46 7 17
v 38 7 2
v 46 7 2
v 38 7 11
v 46 7 11

vn 0 0 -1
vn 0 0 -1
vn 0 0 -1
vn 0 0 -1
vn 0 1 0
vn 0 1 0
vn 0 1 0
vn 0 1 0
vn 0 1 0
vn 0 1 0
vn 0 1 0
vn 0 1 0

vt 8 0
vt 0 0
vt 8 1
vt 0 1
vt 5 9
vt 0 9
vt 5 15
vt 0 15
vt 8 0
vt 0 0
vt 8 9
vt 0 9

g Floor-detach_951_30
usemtl Floor-detach_951_30
usemap Floor-detach_951_30
f 1/1/1 3/3/3 2/2/2
f 2/2/2 3/3/3 4/4/4
f 5/5/5 7/7/7 6/6/6
f 6/6/6 7/7/7 8/8/8
f 9/9/9 11/11/11 10/10/10
f 10/10/10 11/11/11 12/12/12
