#Floor-detach_799_34.obj

v 6 2 27
v 6 2 26
v 13 2 26
v 13 2 27
v 6 2 22
v 13 2 21
v 6 2 21
v 13 2 26
v 13 2 22
v 14 2 22
v 14 2 26
v 6 2 26
v 4 2 26
v 4 2 22
v 6 2 22
v 15 2 35
v 15 2 34
v 18 2 35
v 18 2 34
v 19 2 35
v 19 2 40
v 18 2 35
v 15 2 40
v 15 2 35
v 3 2 40
v 15 2 35
v 15 2 40
v 3 2 35
v 19 2 29
v 14 2 26
v 19 2 21
v 14 2 22
v 14 2 21
v 15 2 34
v 14 2 34
v 19 2 33
v 18 2 34

vn 0 1 0
vn 0 1 0
vn 0 1 0
vn 0 1 0
vn 0 1 0
vn 0 1 0
vn 0 1 0
vn 0 1 0
vn 0 1 0
vn 0 1 0
vn 0 1 0
vn 0 1 0
vn 0 1 0
vn 0 1 0
vn 0 1 0
vn 0 1 0
vn 0 1 0
vn 0 1 0
vn 0 1 0
vn 0 1 0
vn 0 1 0
vn 0 1 0
vn 0 1 0
vn 0 1 0
vn 0 1 0
vn 0 1 0
vn 0 1 0
vn 0 1 0
vn 0 1 0
vn 0 1 0
vn 0 1 0
vn 0 1 0
vn 0 1 0
vn 0 1 0
vn 0 1 0
vn 0 1 0
vn 0 1 0

vt 7 6
vt 7 5
vt 0 5
vt 0 6
vt 7 1
vt 0 0
vt 7 0
vt 1 4
vt 1 0
vt 0 0
vt 0 4
vt 0 4
vt 2 4
vt 2 0
vt 0 0
vt 3 1
vt 3 0
vt 0 1
vt 0 0
vt 0 0
vt 0 5
vt 1 0
vt 4 5
vt 4 0
vt 12 5
vt 0 0
vt 0 5
vt 12 0
vt 0 8
vt 5 5
vt 0 0
vt 5 1
vt 5 0
vt 4 13
vt 5 13
vt 0 12
vt 1 13

g Floor-detach_799_34
usemtl Floor-detach_799_34
usemap Floor-detach_799_34
f 1/1/1 3/3/3 2/2/2
f 4/4/4 3/3/3 1/1/1
f 2/2/2 6/6/6 5/5/5
f 3/3/3 6/6/6 2/2/2
f 6/6/6 7/7/7 5/5/5
f 8/8/8 10/10/10 9/9/9
f 11/11/11 10/10/10 8/8/8
f 12/12/12 14/14/14 13/13/13
f 15/15/15 14/14/14 12/12/12
f 16/16/16 18/18/18 17/17/17
f 17/17/17 18/18/18 19/19/19
f 20/20/20 22/22/22 21/21/21
f 21/21/21 22/22/22 23/23/23
f 23/23/23 22/22/22 24/24/24
f 25/25/25 27/27/27 26/26/26
f 25/25/25 26/26/26 28/28/28
f 29/29/29 31/31/31 30/30/30
f 31/31/31 32/32/32 30/30/30
f 31/31/31 33/33/33 32/32/32
f 30/30/30 34/34/34 29/29/29
f 35/35/35 34/34/34 30/30/30
f 34/34/34 36/36/36 29/29/29
f 37/37/37 36/36/36 34/34/34
