#Floor-detach_665_13.obj

v -5 6 -74
v -10 6 -74
v -5 6 -81
v -10 6 -80
v 13 10 -81
v 14 10 -81
v 13 10 -75
v 14 10 -75
v -5 6 -74
v -5 6 -81
v 13 10 -75
v 13 10 -74
v 13 10 -81

vn 0 1 0
vn 0 1 0
vn 0 1 0
vn 0 1 0
vn 0 1 0
vn 0 1 0
vn 0 1 0
vn 0 1 0
vn -0.2169305 0.9761871 0
vn -0.2169304 0.976187 0
vn -0.2169305 0.9761871 0
vn -0.2169305 0.9761871 0
vn -0.2169304 0.976187 0

vt 0 7
vt 5 7
vt 0 0
vt 5 1
vt 1 0
vt 0 0
vt 1 6
vt 0 6
vt 18 7
vt 18 0
vt 0 6
vt 0 7
vt 0 0

g Floor-detach_665_13
usemtl Floor-detach_665_13
usemap Floor-detach_665_13
f 1/1/1 3/3/3 2/2/2
f 2/2/2 3/3/3 4/4/4
f 5/5/5 7/7/7 6/6/6
f 6/6/6 7/7/7 8/8/8
f 9/9/9 11/11/11 10/10/10
f 12/12/12 11/11/11 9/9/9
f 10/10/10 11/11/11 13/13/13
