#Floor-detach_1292_162.obj

v -8 -2 -26
v -8 -2 -30
v 2 -2 -23
v -6 -2 -30
v -8 -2 -23
v -5 -2 -41
v 0 -2 -41
v -6 -2 -41
v 2 -2 -41

vn 0 1 0
vn 0 1 0
vn 0 1 0
vn 0 1 0
vn 0 1 0
vn 0 1 0
vn 0 1 0
vn 0 1 0
vn 0 1 0

vt 10 15
vt 10 11
vt 0 18
vt 8 11
vt 10 18
vt 7 0
vt 2 0
vt 8 0
vt 0 0

g Floor-detach_1292_162
usemtl Floor-detach_1292_162
usemap Floor-detach_1292_162
f 1/1/1 3/3/3 2/2/2
f 2/2/2 3/3/3 4/4/4
f 5/5/5 3/3/3 1/1/1
f 6/6/6 4/4/4 7/7/7
f 8/8/8 4/4/4 6/6/6
f 7/7/7 3/3/3 9/9/9
f 4/4/4 3/3/3 7/7/7
