#Floor-detach_1265_164.obj

v 2 -2 -12
v 3 -2 -12
v 2 -2 -9
v 3 -2 -9
v 3 -2 -8
v 17 -2 -8
v 3 -2 -13
v 17 -2 -12
v 17 -2 -13
v 17 -2 -9
v 18 -2 -12
v 18 -2 -9
v -3 -2 -8
v 2 -2 -13
v 2 -2 -9
v 2 -2 -8
v -33 -2 -8
v -29 -2 -13
v -32 -2 -13
v -33 -2 -13

vn 0 1 0
vn 0 1 0
vn 0 1 0
vn 0 1 0
vn 0 1 0
vn 0 1 0
vn 0 1 0
vn 0 1 0
vn 0 1 0
vn 0 1 0
vn 0 1 0
vn 0 1 0
vn 0 1 0
vn 0 1 0
vn 0 1 0
vn 0 1 0
vn 0 1 0
vn 0 1 0
vn 0 1 0
vn 0 1 0

vt 16 1
vt 15 1
vt 16 4
vt 15 4
vt 15 5
vt 1 5
vt 15 0
vt 1 1
vt 1 0
vt 1 4
vt 0 1
vt 0 4
vt 5 5
vt 0 0
vt 0 4
vt 0 5
vt 35 5
vt 31 0
vt 34 0
vt 35 0

g Floor-detach_1265_164
usemtl Floor-detach_1265_164
usemap Floor-detach_1265_164
f 1/1/1 3/3/3 2/2/2
f 3/3/3 4/4/4 2/2/2
f 5/5/5 6/6/6 4/4/4
f 2/2/2 8/8/8 7/7/7
f 7/7/7 8/8/8 9/9/9
f 6/6/6 10/10/10 4/4/4
f 4/4/4 10/10/10 2/2/2
f 2/2/2 10/10/10 8/8/8
f 8/8/8 10/10/10 11/11/11
f 10/10/10 12/12/12 11/11/11
f 13/13/13 15/15/15 14/14/14
f 16/16/16 15/15/15 13/13/13
f 17/17/17 13/13/13 14/14/14
f 17/17/17 14/14/14 18/18/18
f 19/19/19 20/20/20 17/17/17
f 17/17/17 18/18/18 19/19/19
