#Floor-detach_670_11.obj

v -27 6 -36
v -27 6 -25
v -34 6 -36
v -34 6 -25
v -28 2 -45
v -34 2 -45
v -28 2 -50
v -34 2 -50
v -28 2 -45
v -34 6 -36
v -34 2 -45
v -27 6 -36
v -34 6 -25
v -28 6 -25
v -34 6 -5
v -28 6 -5

vn 0 1 0
vn 0 1 0
vn 0 1 0
vn 0 1 0
vn 0 1 0
vn 0 1 0
vn 0 1 0
vn 0 1 0
vn 0 0.9138115 -0.4061384
vn 0 0.9138115 -0.4061384
vn 0 0.9138116 -0.4061385
vn 0 0.9138116 -0.4061385
vn 0 1 0
vn 0 1 0
vn 0 1 0
vn 0 1 0

vt 0 0
vt 0 11
vt 7 0
vt 7 11
vt 0 5
vt 6 5
vt 0 0
vt 6 0
vt 0.9982998 0.0008635521
vt 7.001699 9.998791
vt 6.9983 -0.001208305
vt 0.001700163 10.00121
vt 6 0
vt 0 0
vt 6 20
vt 0 20

g Floor-detach_670_11
usemtl Floor-detach_670_11
usemap Floor-detach_670_11
f 1/1/1 3/3/3 2/2/2
f 2/2/2 3/3/3 4/4/4
f 5/5/5 7/7/7 6/6/6
f 6/6/6 7/7/7 8/8/8
f 9/9/9 11/11/11 10/10/10
f 9/9/9 10/10/10 12/12/12
f 13/13/13 15/15/15 14/14/14
f 14/14/14 15/15/15 16/16/16
