#Floor_537_6.obj

v -6 -3 -7
v -1 -3 -14
v -1 -3 -7
v -6 -3 -14
v -12 -3 -7
v -6 -3 -14
v -6 -3 -7
v -12 -3 -14
v -6 -3 2
v -12 -3 -7
v -6 -3 -7
v -12 -3 2
v -12 -3 -23
v -6 -3 -14
v -12 -3 -14
v -6 -3 -23
v -18 -3 -7
v -12 -3 -14
v -12 -3 -7
v -18 -3 -14
v -18 -4 -14
v -12 -3 -14
v -18 -3 -14
v -12 -4 -14
v -18 -4 -23
v -12 -4 -14
v -18 -4 -14
v -12 -4 -23
v -12 -3 -23
v -12 -4 -14
v -12 -4 -23
v -12 -3 -14
v -18 -3 -14
v -18 -4 -23
v -18 -4 -14
v -18 -3 -23
v -24 -3 -14
v -18 -3 -23
v -18 -3 -14
v -24 -3 -23
v -24 -3 -7
v -18 -3 -14
v -18 -3 -7
v -24 -3 -14
v -12 -4 -7
v -18 -3 -7
v -12 -3 -7
v -18 -4 -7
v -12 -4 2
v -18 -4 -7
v -12 -4 -7
v -18 -4 2
v -12 -3 -7
v -12 -4 2
v -12 -4 -7
v -12 -3 2
v -18 -3 2
v -18 -4 -7
v -18 -4 2
v -18 -3 -7
v -24 -3 2
v -18 -3 -7
v -18 -3 2
v -24 -3 -7
v -29 -3 -7
v -24 -3 -14
v -24 -3 -7
v -29 -3 -14

vn 0 1 0
vn 0 1 0
vn 0 1 0
vn 0 1 0
vn 0 1 0
vn 0 1 0
vn 0 1 0
vn 0 1 0
vn 0 1 0
vn 0 1 0
vn 0 1 0
vn 0 1 0
vn 0 1 0
vn 0 1 0
vn 0 1 0
vn 0 1 0
vn 0 1 0
vn 0 1 0
vn 0 1 0
vn 0 1 0
vn 0 0 -1
vn 0 0 -1
vn 0 0 -1
vn 0 0 -1
vn 0 1 0
vn 0 1 0
vn 0 1 0
vn 0 1 0
vn -1 0 0
vn -1 0 0
vn -1 0 0
vn -1 0 0
vn 1 0 0
vn 1 0 0
vn 1 0 0
vn 1 0 0
vn 0 1 0
vn 0 1 0
vn 0 1 0
vn 0 1 0
vn 0 1 0
vn 0 1 0
vn 0 1 0
vn 0 1 0
vn 0 0 1
vn 0 0 1
vn 0 0 1
vn 0 0 1
vn 0 1 0
vn 0 1 0
vn 0 1 0
vn 0 1 0
vn -1 0 0
vn -1 0 0
vn -1 0 0
vn -1 0 0
vn 1 0 0
vn 1 0 0
vn 1 0 0
vn 1 0 0
vn 0 1 0
vn 0 1 0
vn 0 1 0
vn 0 1 0
vn 0 1 0
vn 0 1 0
vn 0 1 0
vn 0 1 0

vt 5 7
vt 0 0
vt 0 7
vt 5 0
vt 6 7
vt 0 0
vt 0 7
vt 6 0
vt 0 9
vt 6 0
vt 0 0
vt 6 9
vt 6 0
vt 0 9
vt 6 9
vt 0 0
vt 6 7
vt 0 0
vt 0 7
vt 6 0
vt 6 0
vt 0 1
vt 6 1
vt 0 0
vt 6 0
vt 0 9
vt 6 9
vt 0 0
vt 0 1
vt 9 0
vt 0 0
vt 9 1
vt 0 1
vt 9 0
vt 0 0
vt 9 1
vt 6 9
vt 0 0
vt 0 9
vt 6 0
vt 6 7
vt 0 0
vt 0 7
vt 6 0
vt 6 0
vt 0 1
vt 6 1
vt 0 0
vt 0 9
vt 6 0
vt 0 0
vt 6 9
vt 0 1
vt 9 0
vt 0 0
vt 9 1
vt 0 1
vt 9 0
vt 0 0
vt 9 1
vt 6 9
vt 0 0
vt 0 9
vt 6 0
vt 5 7
vt 0 0
vt 0 7
vt 5 0

g Floor_537_6
usemtl Floor_537_6
usemap Floor_537_6
f 1/1/1 3/3/3 2/2/2
f 1/1/1 2/2/2 4/4/4
f 5/5/5 7/7/7 6/6/6
f 5/5/5 6/6/6 8/8/8
f 9/9/9 11/11/11 10/10/10
f 9/9/9 10/10/10 12/12/12
f 13/13/13 15/15/15 14/14/14
f 13/13/13 14/14/14 16/16/16
f 17/17/17 19/19/19 18/18/18
f 17/17/17 18/18/18 20/20/20
f 21/21/21 23/23/23 22/22/22
f 21/21/21 22/22/22 24/24/24
f 25/25/25 27/27/27 26/26/26
f 25/25/25 26/26/26 28/28/28
f 29/29/29 31/31/31 30/30/30
f 29/29/29 30/30/30 32/32/32
f 33/33/33 35/35/35 34/34/34
f 33/33/33 34/34/34 36/36/36
f 37/37/37 39/39/39 38/38/38
f 37/37/37 38/38/38 40/40/40
f 41/41/41 43/43/43 42/42/42
f 41/41/41 42/42/42 44/44/44
f 45/45/45 47/47/47 46/46/46
f 45/45/45 46/46/46 48/48/48
f 49/49/49 51/51/51 50/50/50
f 49/49/49 50/50/50 52/52/52
f 53/53/53 55/55/55 54/54/54
f 53/53/53 54/54/54 56/56/56
f 57/57/57 59/59/59 58/58/58
f 57/57/57 58/58/58 60/60/60
f 61/61/61 63/63/63 62/62/62
f 61/61/61 62/62/62 64/64/64
f 65/65/65 67/67/67 66/66/66
f 65/65/65 66/66/66 68/68/68
