#Floor-detach_847_35.obj

v 14 2 8
v 17 2 9
v 14 2 9
v 17 2 8
v 10 2 9
v 9 2 6
v 10 2 6
v 5 2 6
v 4 2 9
v 4 2 6
v 10 2 16
v 4 2 16
v 4 2 9
v 10 2 9
v 9 2 6
v 5 2 6
v 9 2 2
v 5 2 2
v 17 2 8
v 14 2 8
v 17 3 6
v 14 3 6
v 19 2 12
v 14 2 9
v 19 2 9
v 10 2 9
v 10 2 16
v 21 2 16

vn 0 1 0
vn 0 1 0
vn 0 1 0
vn 0 1 0
vn 0 1 0
vn 0 1 0
vn 0 1 0
vn 0 1 0
vn 0 1 0
vn 0 1 0
vn 0 1 0
vn 0 1 0
vn 0 1 0
vn 0 1 0
vn 0 1 0
vn 0 1 0
vn 0 1 0
vn 0 1 0
vn 0 0.8944272 0.4472136
vn 0 0.8944272 0.4472136
vn 0 0.8944272 0.4472136
vn 0 0.8944272 0.4472136
vn 0 1 0
vn 0 1 0
vn 0 1 0
vn 0 1 0
vn 0 1 0
vn 0 1 0

vt 3 0
vt 0 1
vt 3 1
vt 0 0
vt 0 3
vt 1 0
vt 0 0
vt 5 0
vt 6 3
vt 6 0
vt 0 7
vt 6 7
vt 6 0
vt 0 0
vt 0 4
vt 4 4
vt 0 0
vt 4 0
vt 0 2
vt 3 2
vt 0 0
vt 3 0
vt 2 3
vt 7 0
vt 2 0
vt 11 0
vt 11 7
vt 0 7

g Floor-detach_847_35
usemtl Floor-detach_847_35
usemap Floor-detach_847_35
f 1/1/1 3/3/3 2/2/2
f 1/1/1 2/2/2 4/4/4
f 5/5/5 7/7/7 6/6/6
f 8/8/8 9/9/9 6/6/6
f 10/10/10 9/9/9 8/8/8
f 6/6/6 9/9/9 5/5/5
f 11/11/11 13/13/13 12/12/12
f 14/14/14 13/13/13 11/11/11
f 15/15/15 17/17/17 16/16/16
f 16/16/16 17/17/17 18/18/18
f 19/19/19 21/21/21 20/20/20
f 20/20/20 21/21/21 22/22/22
f 23/23/23 25/25/25 24/24/24
f 26/26/26 27/27/27 24/24/24
f 24/24/24 28/28/28 23/23/23
f 27/27/27 28/28/28 24/24/24
