#Floor_736_0.obj

v 23 0 0
v 23 0 8
v -1 0 0
v -1 0 8
v -30 0 5
v -32 0 5
v -32 0 3
v -30 0 3
v -32 0 8
v -42 0 8
v -32 0 0
v -42 0 0
v -25 0 0
v -15 0 0
v -25 0 3
v -15 0 8
v -25 0 8
v -27 0 3
v -25 0 3
v -25 0 5
v -27 0 5
v 25 -1 0
v 23 0 8
v 23 0 0
v 25 -1 8
v 35 0 0
v 33 -1 8
v 33 -1 0
v 35 0 8
v 59 0 0
v 59 0 8
v 54 0 8
v 54 0 0
v 35 0 8
v 35 0 0
v 42 0 8
v 42 0 0

vn 0 1 0
vn 0 1 0
vn 0 1 0
vn 0 1 0
vn 0 1 0
vn 0 1 0
vn 0 1 0
vn 0 1 0
vn 0 1 0
vn 0 1 0
vn 0 1 0
vn 0 1 0
vn 0 1 0
vn 0 1 0
vn 0 1 0
vn 0 1 0
vn 0 1 0
vn 0 1 0
vn 0 1 0
vn 0 1 0
vn 0 1 0
vn 0.4472136 0.8944272 0
vn 0.4472136 0.8944272 0
vn 0.4472136 0.8944272 0
vn 0.4472136 0.8944272 0
vn -0.4472136 0.8944272 0
vn -0.4472136 0.8944272 0
vn -0.4472136 0.8944272 0
vn -0.4472136 0.8944272 0
vn 0 1 0
vn 0 1 0
vn 0 1 0
vn 0 1 0
vn 0 1 0
vn 0 1 0
vn 0 1 0
vn 0 1 0

vt 0 0
vt 0 8
vt 24 0
vt 24 8
vt 0 2
vt 2 2
vt 2 0
vt 0 0
vt 17 8
vt 27 8
vt 17 0
vt 27 0
vt 10 0
vt 0 0
vt 10 3
vt 0 8
vt 10 8
vt 2 0
vt 0 0
vt 0 2
vt 2 2
vt 0 0
vt 2 8
vt 2 0
vt 0 8
vt 0 0
vt 2 8
vt 2 0
vt 0 8
vt 0 0
vt 0 8
vt 5 8
vt 5 0
vt 24 8
vt 24 0
vt 17 8
vt 17 0

g Floor_736_0
usemtl Floor_736_0
usemap Floor_736_0
f 1/1/1 3/3/3 2/2/2
f 2/2/2 3/3/3 4/4/4
f 5/5/5 7/7/7 6/6/6
f 8/8/8 7/7/7 5/5/5
f 9/9/9 11/11/11 10/10/10
f 10/10/10 11/11/11 12/12/12
f 13/13/13 15/15/15 14/14/14
f 14/14/14 17/17/17 16/16/16
f 15/15/15 17/17/17 14/14/14
f 18/18/18 20/20/20 19/19/19
f 21/21/21 20/20/20 18/18/18
f 22/22/22 24/24/24 23/23/23
f 22/22/22 23/23/23 25/25/25
f 26/26/26 28/28/28 27/27/27
f 26/26/26 27/27/27 29/29/29
f 30/30/30 32/32/32 31/31/31
f 33/33/33 32/32/32 30/30/30
f 34/34/34 36/36/36 35/35/35
f 35/35/35 36/36/36 37/37/37
