#Floor-detach_756_36.obj

v 33 -1 49
v 29 -1 38
v 33 -1 38
v 29 -1 49
v 33 1 54
v 29 -1 49
v 33 -1 49
v 29 1 54
v 33 1 59
v 29 1 54
v 33 1 54
v 29 1 59
v 33 1 64
v 29 1 59
v 33 1 59
v 29 1 64
v 25 1 64
v 29 1 59
v 29 1 64
v 25 1 59
v 25 1 59
v 25 1 64
v 20 1 63
v 20 1 59

vn 0 1 0
vn 0 1 0
vn 0 1 0
vn 0 1 0
vn 0 0.9284767 -0.3713907
vn 0 0.9284767 -0.3713907
vn 0 0.9284767 -0.3713907
vn 0 0.9284767 -0.3713907
vn 0 1 0
vn 0 1 0
vn 0 1 0
vn 0 1 0
vn 0 1 0
vn 0 1 0
vn 0 1 0
vn 0 1 0
vn 0 1 0
vn 0 1 0
vn 0 1 0
vn 0 1 0
vn 0 1 0
vn 0 1 0
vn 0 1 0
vn 0 1 0

vt 0 11
vt 4 0
vt 0 0
vt 4 11
vt 0 5
vt 4 -3.814697E-06
vt 0 -3.814697E-06
vt 4 5
vt 0 5
vt 4 0
vt 0 0
vt 4 5
vt 0 5
vt 4 0
vt 0 0
vt 4 5
vt 4 5
vt 0 0
vt 0 5
vt 4 0
vt 0 0
vt 0 5
vt 5 4
vt 5 0

g Floor-detach_756_36
usemtl Floor-detach_756_36
usemap Floor-detach_756_36
f 1/1/1 3/3/3 2/2/2
f 1/1/1 2/2/2 4/4/4
f 5/5/5 7/7/7 6/6/6
f 5/5/5 6/6/6 8/8/8
f 9/9/9 11/11/11 10/10/10
f 9/9/9 10/10/10 12/12/12
f 13/13/13 15/15/15 14/14/14
f 13/13/13 14/14/14 16/16/16
f 17/17/17 19/19/19 18/18/18
f 17/17/17 18/18/18 20/20/20
f 21/21/21 23/23/23 22/22/22
f 24/24/24 23/23/23 21/21/21
