#Floor-detach_1253_37.obj

v 12 -2 -33
v 15 -2 -38
v 15 -2 -33
v 7 -2 -38
v 12 -2 -23
v 7 -2 -23
v 15 -2 -38
v 15 -2 -41
v 20 -2 -41
v 15 -2 -33
v 25 -2 -41
v 25 -2 -33

vn 0 1 0
vn 0 0.9999999 0
vn 0 1 0
vn 0 0.9999999 0
vn 0 1 0
vn 0 1 0
vn 0 1 0
vn 0 1 0
vn 0 1 0
vn 0 1 0
vn 0 1 0
vn 0 1 0

vt 3 5
vt 0 0
vt 0 5
vt 8 0
vt 3 15
vt 8 15
vt 10 3
vt 10 0
vt 5 0
vt 10 8
vt 0 0
vt 0 8

g Floor-detach_1253_37
usemtl Floor-detach_1253_37
usemap Floor-detach_1253_37
f 1/1/1 3/3/3 2/2/2
f 1/1/1 2/2/2 4/4/4
f 5/5/5 1/1/1 4/4/4
f 5/5/5 4/4/4 6/6/6
f 7/7/7 9/9/9 8/8/8
f 7/7/7 10/10/10 9/9/9
f 9/9/9 12/12/12 11/11/11
f 10/10/10 12/12/12 9/9/9
