#Floor-detach_1274_54.obj

v 42 -6 -4
v 39 -4 0
v 39 -4 -4
v 42 -6 0
v 44 -6 -4
v 42 -6 0
v 42 -6 -4
v 44 -6 0
v 51 -6 -4
v 48 -6 0
v 48 -6 -4
v 51 -6 0
v 53 -7 -4
v 51 -6 0
v 51 -6 -4
v 53 -7 0
v 48 -6 3
v 44 -6 3
v 48 -6 0
v 44 -6 0
v 48 -6 -4
v 44 -6 -4

vn 0.5547002 0.8320503 0
vn 0.5547002 0.8320503 0
vn 0.5547002 0.8320503 0
vn 0.5547002 0.8320503 0
vn 0 1 0
vn 0 1 0
vn 0 1 0
vn 0 1 0
vn 0 1 0
vn 0 1 0
vn 0 1 0
vn 0 1 0
vn 0.4472136 0.8944272 0
vn 0.4472136 0.8944272 0
vn 0.4472136 0.8944272 0
vn 0.4472136 0.8944272 0
vn 0 1 0
vn 0 1 0
vn 0 1 0
vn 0 1 0
vn 0 1 0
vn 0 1 0

vt 0 0
vt 4 4
vt 4 -2.384186E-07
vt 0 4
vt 0 0
vt 2 4
vt 2 0
vt 0 4
vt 0 0
vt 3 4
vt 3 0
vt 0 4
vt 0 0
vt 2 4
vt 2 0
vt 0 4
vt 0 7
vt 4 7
vt 0 4
vt 4 4
vt 0 0
vt 4 0

g Floor-detach_1274_54
usemtl Floor-detach_1274_54
usemap Floor-detach_1274_54
f 1/1/1 3/3/3 2/2/2
f 1/1/1 2/2/2 4/4/4
f 5/5/5 7/7/7 6/6/6
f 5/5/5 6/6/6 8/8/8
f 9/9/9 11/11/11 10/10/10
f 9/9/9 10/10/10 12/12/12
f 13/13/13 15/15/15 14/14/14
f 13/13/13 14/14/14 16/16/16
f 17/17/17 19/19/19 18/18/18
f 18/18/18 19/19/19 20/20/20
f 19/19/19 21/21/21 20/20/20
f 20/20/20 21/21/21 22/22/22
