#MetalBox_716_76.obj

v -1 0 1.999999
v -5.047345E-07 0 1.999999
v -1 2 1.999999
v -5.047345E-07 2 1.999999
v -5.047345E-07 0 1.999999
v -1.647362E-06 0 6.999999
v -5.047345E-07 2 1.999999
v -1.647362E-06 2 6.999999
v -1.647362E-06 2 6.999999
v -1.000002 2 6.999999
v -5.047345E-07 2 1.999999
v -1 2 1.999999

vn 0.9999999 0 -1.192093E-07
vn 0.9999999 0 -1.192093E-07
vn 0.9999999 0 -1.192093E-07
vn 0.9999999 0 -1.192093E-07
vn -1.192093E-07 0 0.9999999
vn -1.192093E-07 0 0.9999999
vn -1.192093E-07 0 0.9999999
vn -1.192093E-07 0 0.9999999
vn 0 1 0
vn 0 1 0
vn 0 1 0
vn 0 1 0

vt 0.9999999 0
vt 0 0
vt 0.9999999 2
vt 0 2
vt 5.000001 0
vt 0 0
vt 5.000001 2
vt 0 2
vt 0 5.000001
vt 1 5.000001
vt 0 0
vt 0.9999999 2.384186E-07

g MetalBox_716_76
usemtl MetalBox_716_76
usemap MetalBox_716_76
f 1/1/1 3/3/3 2/2/2
f 2/2/2 3/3/3 4/4/4
f 5/5/5 7/7/7 6/6/6
f 6/6/6 7/7/7 8/8/8
f 9/9/9 11/11/11 10/10/10
f 10/10/10 11/11/11 12/12/12
