#MetalBox_685_77.obj

v -2.384186E-07 0 3.999999
v -1 0 3.999999
v -2.384186E-07 2 3.999999
v -1 2 3.999999
v -1 0 3.999999
v -1 0 -2.384186E-07
v -1 2 3.999999
v -1 2 -2.384186E-07
v -2.384186E-07 0 -2.384186E-07
v -2.384186E-07 0 3.999999
v -2.384186E-07 2 -2.384186E-07
v -2.384186E-07 2 3.999999
v -2.384186E-07 2 3.999999
v -1 2 3.999999
v -2.384186E-07 2 -2.384186E-07
v -1 2 -2.384186E-07

vn 0 0 1
vn 0 0 1
vn 0 0 1
vn 0 0 1
vn -1 0 0
vn -1 0 0
vn -1 0 0
vn -1 0 0
vn 1 0 0
vn 1 0 0
vn 1 0 0
vn 1 0 0
vn 0 1 0
vn 0 1 0
vn 0 1 0
vn 0 1 0

vt 1 0
vt 0 0
vt 1 2
vt 0 2
vt 4 0
vt 0 0
vt 4 2
vt 0 2
vt 4 0
vt 0 0
vt 4 2
vt 0 2
vt 0 4
vt 1 4
vt 0 0
vt 1 0

g MetalBox_685_77
usemtl MetalBox_685_77
usemap MetalBox_685_77
f 1/1/1 3/3/3 2/2/2
f 2/2/2 3/3/3 4/4/4
f 5/5/5 7/7/7 6/6/6
f 6/6/6 7/7/7 8/8/8
f 9/9/9 11/11/11 10/10/10
f 10/10/10 11/11/11 12/12/12
f 13/13/13 15/15/15 14/14/14
f 14/14/14 15/15/15 16/16/16
