#MetalBox_720_80.obj

v 2.384186E-07 0 7
v -0.9999998 0 7
v 2.384186E-07 2 7
v -0.9999998 2 7
v -0.9999998 0 0.9999997
v 2.384186E-07 0 0.9999997
v -0.9999998 2 0.9999997
v 2.384186E-07 2 0.9999997
v 2.384186E-07 0 0.9999997
v 2.384186E-07 0 7
v 2.384186E-07 2 0.9999997
v 2.384186E-07 2 7
v 2.384186E-07 2 7
v -0.9999998 2 7
v 2.384186E-07 2 0.9999997
v -0.9999998 2 0.9999997

vn 0 0 1
vn 0 0 1
vn 0 0 1
vn 0 0 1
vn 0 0 -1
vn 0 0 -1
vn 0 0 -1
vn 0 0 -1
vn 1 0 0
vn 1 0 0
vn 1 0 0
vn 1 0 0
vn 0 1 0
vn 0 1 0
vn 0 1 0
vn 0 1 0

vt 1 0
vt 0 0
vt 1 2
vt 0 2
vt 1 0
vt 0 0
vt 1 2
vt 0 2
vt 6 0
vt 0 0
vt 6 2
vt 0 2
vt 0 6
vt 1 6
vt 0 0
vt 1 0

g MetalBox_720_80
usemtl MetalBox_720_80
usemap MetalBox_720_80
f 1/1/1 3/3/3 2/2/2
f 2/2/2 3/3/3 4/4/4
f 5/5/5 7/7/7 6/6/6
f 6/6/6 7/7/7 8/8/8
f 9/9/9 11/11/11 10/10/10
f 10/10/10 11/11/11 12/12/12
f 13/13/13 15/15/15 14/14/14
f 14/14/14 15/15/15 16/16/16
