#MetalBox_708_79.obj

v -2.384186E-07 0 7
v -1 0 7
v -2.384186E-07 2 7
v -1 2 7
v -1 0 -5.960464E-08
v -2.384186E-07 0 -5.960464E-08
v -1 2 -5.960464E-08
v -2.384186E-07 2 -5.960464E-08
v -2.384186E-07 0 -5.960464E-08
v -2.384186E-07 0 7
v -2.384186E-07 2 -5.960464E-08
v -2.384186E-07 2 7
v -2.384186E-07 2 7
v -1 2 7
v -2.384186E-07 2 -5.960464E-08
v -1 2 -5.960464E-08

vn 0 0 1
vn 0 0 1
vn 0 0 1
vn 0 0 1
vn 0 0 -1
vn 0 0 -1
vn 0 0 -1
vn 0 0 -1
vn 1 0 0
vn 1 0 0
vn 1 0 0
vn 1 0 0
vn 0 1 0
vn 0 1 0
vn 0 1 0
vn 0 1 0

vt 1 0
vt 0 0
vt 1 2
vt 0 2
vt 1 0
vt 0 0
vt 1 2
vt 0 2
vt 7 0
vt 0 0
vt 7 2
vt 0 2
vt 0 7
vt 1 7
vt 0 0
vt 1 0

g MetalBox_708_79
usemtl MetalBox_708_79
usemap MetalBox_708_79
f 1/1/1 3/3/3 2/2/2
f 2/2/2 3/3/3 4/4/4
f 5/5/5 7/7/7 6/6/6
f 6/6/6 7/7/7 8/8/8
f 9/9/9 11/11/11 10/10/10
f 10/10/10 11/11/11 12/12/12
f 13/13/13 15/15/15 14/14/14
f 14/14/14 15/15/15 16/16/16
