#pb-Cube-240026_617_14.obj

v 0 12 109.5
v -30 12 109.5
v -30 -3 109.5
v 0 -3 109.5
v -30 16 95
v -30 16 -15
v -30 1 -15
v -30 1 95
v -30 16 -15
v 0 16 -15
v 0 1 -15
v -30 1 -15
v 0 16 -15
v 0 16 95
v 0 1 95
v 0 1 -15
v -30 16 95
v -30 1 95
v -30 12 101.5
v -30 -3 101.5
v 0 1 95
v 0 16 95
v 0 -3 101.5
v 0 12 101.5
v -30 12 101.5
v -30 -3 101.5
v -30 12 109.5
v -30 -3 109.5
v 0 -3 101.5
v 0 12 101.5
v 0 -3 109.5
v 0 12 109.5

vn 0 0 -1
vn 0 0 -1
vn 0 0 -1
vn 0 0 -1
vn 1 0 0
vn 1 0 0
vn 1 0 0
vn 1 0 0
vn 0 0 1
vn 0 0 1
vn 0 0 1
vn 0 0 1
vn -1 0 0
vn -1 0 0
vn -1 0 0
vn -1 0 0
vn 1 0 0
vn 1 0 0
vn 1 0 0
vn 1 0 0
vn -1 0 0
vn -1 0 0
vn -1 0 0
vn -1 0 0
vn 1 0 0
vn 1 0 0
vn 1 0 0
vn 1 0 0
vn -1 0 0
vn -1 0 0
vn -1 0 0
vn -1 0 0

vt 0 15
vt 30 15
vt 30 0
vt 0 0
vt 0 15
vt 110 15
vt 110 0
vt 0 0
vt 0 15
vt 30 15
vt 30 0
vt 0 0
vt 0 15
vt 110 15
vt 110 0
vt 0 0
vt 6.5 19
vt 6.5 4
vt 0 15
vt 0 0
vt 0 4
vt 0 19
vt 6.5 0
vt 6.5 15
vt 8 15
vt 8 0
vt 0 15
vt 0 0
vt 0 0
vt 0 15
vt 8 0
vt 8 15

g pb-Cube-240026_617_14
usemtl pb-Cube-240026_617_14
usemap pb-Cube-240026_617_14
f 1/1/1 3/3/3 2/2/2
f 1/1/1 4/4/4 3/3/3
f 5/5/5 7/7/7 6/6/6
f 5/5/5 8/8/8 7/7/7
f 9/9/9 11/11/11 10/10/10
f 9/9/9 12/12/12 11/11/11
f 13/13/13 15/15/15 14/14/14
f 13/13/13 16/16/16 15/15/15
f 17/17/17 19/19/19 18/18/18
f 18/18/18 19/19/19 20/20/20
f 21/21/21 23/23/23 22/22/22
f 22/22/22 23/23/23 24/24/24
f 25/25/25 27/27/27 26/26/26
f 26/26/26 27/27/27 28/28/28
f 29/29/29 31/31/31 30/30/30
f 30/30/30 31/31/31 32/32/32
