#pb-Cube-717414_1534_7.obj

v 19 0 10
v -28 0 10
v 19 1 10
v -28 1 10
v -28 0 -4
v 19 0 -4
v -28 1 -4
v 19 1 -4
v 19 0 -4
v -28 0 -4
v 19 0 10
v -28 0 10
v -28 1 -4
v 19 1 -4
v -28 1 9
v 19 1 9
v 19 12 10
v -28 12 10
v -28 12 9
v 19 12 9
v 20 0 -4
v 20 0 10
v 20 1 9
v 20 1 10
v 20 1 -4
v -28 0 10
v -28 0 -4
v -28 1 9
v -28 1 -4
v -28 1 10
v 19 1 10
v -28 1 10
v 19 12 10
v -28 12 10
v -28 1 10
v -28 1 9
v -28 12 10
v -28 12 9
v 19 0 -4
v 19 0 10
v 20 0 -4
v 20 0 10
v 19 0 10
v 19 1 10
v 20 0 10
v 20 1 10
v 19 12 10
v 19 12 9
v 20 12 10
v 20 12 9
v 19 1 -4
v 19 0 -4
v 20 1 -4
v 20 0 -4
v 19 12 9
v 19 12 -4
v 20 12 9
v 20 12 -4
v 19 1 9
v 19 1 -4
v 19 12 9
v 19 12 -4
v 19 1 -4
v 20 1 -4
v 19 12 -4
v 20 12 -4
v 20 1 -4
v 20 1 9
v 20 12 -4
v 20 12 9
v 20 1 10
v 19 1 10
v 20 12 10
v 19 12 10
v 20 1 9
v 20 1 10
v 20 12 9
v 20 12 10

vn 0 0 0.9999999
vn 0 0 0.9999999
vn 0 0 0.9999999
vn 0 0 0.9999999
vn 0 0 -0.9999999
vn 0 0 -0.9999999
vn 0 0 -0.9999999
vn 0 0 -0.9999999
vn 0 -1 0
vn 0 -1 0
vn 0 -1 0
vn 0 -1 0
vn 0 1 0
vn 0 1 0
vn 0 1 0
vn 0 1 0
vn 0 0.9999999 0
vn 0 0.9999999 0
vn 0 0.9999999 0
vn 0 0.9999999 0
vn 1 0 0
vn 1 0 0
vn 1 0 0
vn 1 0 0
vn 1 0 0
vn -1 0 0
vn -1 0 0
vn -1 0 0
vn -1 0 0
vn -1 0 0
vn 0 0 1
vn 0 0 1
vn 0 0 1
vn 0 0 1
vn -1 0 0
vn -1 0 0
vn -1 0 0
vn -1 0 0
vn 0 -1 0
vn 0 -1 0
vn 0 -1 0
vn 0 -1 0
vn 0 0 1
vn 0 0 1
vn 0 0 1
vn 0 0 1
vn 0 1 0
vn 0 1 0
vn 0 1 0
vn 0 1 0
vn 0 0 -1
vn 0 0 -1
vn 0 0 -1
vn 0 0 -1
vn 0 1 0
vn 0 1 0
vn 0 1 0
vn 0 1 0
vn -1 0 0
vn -1 0 0
vn -1 0 0
vn -1 0 0
vn 0 0 -1
vn 0 0 -1
vn 0 0 -1
vn 0 0 -1
vn 1 0 0
vn 1 0 0
vn 1 0 0
vn 1 0 0
vn 0 0 1
vn 0 0 1
vn 0 0 1
vn 0 0 1
vn 1 0 0
vn 1 0 0
vn 1 0 0
vn 1 0 0

vt 47 0
vt 0 0
vt 47 1
vt 0 1
vt 47 0
vt 0 0
vt 47 1
vt 0 1
vt 47 0
vt 0 0
vt 47 14
vt 0 14
vt 47 0
vt 0 0
vt 47 13
vt 0 13
vt 0 1
vt 47 1
vt 47 0
vt 0 0
vt 14 0
vt 0 0
vt 1 1
vt 0 1
vt 14 1
vt 14 0
vt 0 0
vt 13 1
vt 0 1
vt 14 1
vt 47 0
vt 0 0
vt 47 11
vt 0 11
vt 1 0
vt 0 0
vt 1 11
vt 0 11
vt 0 0
vt 0 14
vt 1 0
vt 1 14
vt 0 0
vt 0 1
vt 1 0
vt 1 1
vt 1 1
vt 1 0
vt 0 1
vt 0 0
vt 1 1
vt 1 0
vt 0 1
vt 0 0
vt 1 13
vt 1 0
vt 0 13
vt 0 0
vt 13 0
vt 0 0
vt 13 11
vt 0 11
vt 1 0
vt 0 0
vt 1 11
vt 0 11
vt 13 0
vt 0 0
vt 13 11
vt 0 11
vt 1 0
vt 0 0
vt 1 11
vt 0 11
vt 1 0
vt 0 0
vt 1 11
vt 0 11

g pb-Cube-717414_1534_7
usemtl pb-Cube-717414_1534_7
usemap pb-Cube-717414_1534_7
f 1/1/1 3/3/3 2/2/2
f 2/2/2 3/3/3 4/4/4
f 5/5/5 7/7/7 6/6/6
f 6/6/6 7/7/7 8/8/8
f 9/9/9 11/11/11 10/10/10
f 10/10/10 11/11/11 12/12/12
f 13/13/13 15/15/15 14/14/14
f 14/14/14 15/15/15 16/16/16
f 17/17/17 19/19/19 18/18/18
f 20/20/20 19/19/19 17/17/17
f 21/21/21 23/23/23 22/22/22
f 22/22/22 23/23/23 24/24/24
f 25/25/25 23/23/23 21/21/21
f 26/26/26 28/28/28 27/27/27
f 27/27/27 28/28/28 29/29/29
f 30/30/30 28/28/28 26/26/26
f 31/31/31 33/33/33 32/32/32
f 32/32/32 33/33/33 34/34/34
f 35/35/35 37/37/37 36/36/36
f 36/36/36 37/37/37 38/38/38
f 39/39/39 41/41/41 40/40/40
f 40/40/40 41/41/41 42/42/42
f 43/43/43 45/45/45 44/44/44
f 44/44/44 45/45/45 46/46/46
f 47/47/47 49/49/49 48/48/48
f 48/48/48 49/49/49 50/50/50
f 51/51/51 53/53/53 52/52/52
f 52/52/52 53/53/53 54/54/54
f 55/55/55 57/57/57 56/56/56
f 56/56/56 57/57/57 58/58/58
f 59/59/59 61/61/61 60/60/60
f 60/60/60 61/61/61 62/62/62
f 63/63/63 65/65/65 64/64/64
f 64/64/64 65/65/65 66/66/66
f 67/67/67 69/69/69 68/68/68
f 68/68/68 69/69/69 70/70/70
f 71/71/71 73/73/73 72/72/72
f 72/72/72 73/73/73 74/74/74
f 75/75/75 77/77/77 76/76/76
f 76/76/76 77/77/77 78/78/78
