#pb-Cube-897374_649_2.obj

v 5 -3.5 5
v -25 -3.5 5
v 5 -3.5 1
v -25 -3.5 1
v 5 4.5 5
v -25 4.5 5
v 5 4.5 4
v -25 4.5 4
v -25 3.5 -5
v 5 3.5 -5
v 5 3.5 4
v -25 3.5 4
v -25 3.5 4
v 5 3.5 4
v -25 4.5 4
v 5 4.5 4

vn 0 1 0
vn 0 1 0
vn 0 1 0
vn 0 1 0
vn 0 1 0
vn 0 1 0
vn 0 1 0
vn 0 1 0
vn 0 1 0
vn 0 1 0
vn 0 1 0
vn 0 1 0
vn 0 0 -1
vn 0 0 -1
vn 0 0 -1
vn 0 0 -1

vt 0 4
vt 30 4
vt 0 0
vt 30 0
vt 0 1
vt 30 1
vt 0 0
vt 30 0
vt 30 0
vt 0 0
vt 0 9
vt 30 9
vt 30 0
vt 0 0
vt 30 1
vt 0 1

g pb-Cube-897374_649_2
usemtl pb-Cube-897374_649_2
usemap pb-Cube-897374_649_2
f 1/1/1 3/3/3 2/2/2
f 2/2/2 3/3/3 4/4/4
f 5/5/5 7/7/7 6/6/6
f 6/6/6 7/7/7 8/8/8
f 9/9/9 11/11/11 10/10/10
f 12/12/12 11/11/11 9/9/9
f 13/13/13 15/15/15 14/14/14
f 14/14/14 15/15/15 16/16/16
