#pb-Cube-315616_622_28.obj

v -1 8 -1
v 29 8 -1
v -1 8 8
v 29 8 8
v 29 9 9
v -1 9 9
v -1 9 8
v 29 9 8
v -1 8 8
v 29 8 8
v -1 9 8
v 29 9 8

vn 0 1 0
vn 0 1 0
vn 0 1 0
vn 0 1 0
vn 0 1 0
vn 0 1 0
vn 0 1 0
vn 0 1 0
vn 0 0 -1
vn 0 0 -1
vn 0 0 -1
vn 0 0 -1

vt 30 0
vt 0 0
vt 30 9
vt 0 9
vt 0 1
vt 30 1
vt 30 0
vt 0 0
vt 30 0
vt 0 0
vt 30 1
vt 0 1

g pb-Cube-315616_622_28
usemtl pb-Cube-315616_622_28
usemap pb-Cube-315616_622_28
f 1/1/1 3/3/3 2/2/2
f 2/2/2 3/3/3 4/4/4
f 5/5/5 7/7/7 6/6/6
f 8/8/8 7/7/7 5/5/5
f 9/9/9 11/11/11 10/10/10
f 10/10/10 11/11/11 12/12/12
