#pb-Cube-2444662_(27)_674_10.obj

v 3 0 0
v -1 0 0
v 3 3.971739 -0.05050219
v -1 3.971739 -0.05050219
v -1 0 0
v -1 0.0391381 -3.998041
v -1 3.971739 -0.05050219
v -1 4.010879 -4.048543
v -1 0.0391381 -3.998041
v 3 0.0391381 -3.998041
v -1 4.010879 -4.048543
v 3 4.010879 -4.048543
v 3 0.0391381 -3.998041
v 3 0 0
v 3 4.010879 -4.048543
v 3 3.971739 -0.05050219
v 3 3.971739 -0.05050219
v -1 3.971739 -0.05050219
v 3 4.010879 -4.048543
v -1 4.010879 -4.048543
v 3 0.0391381 -3.998041
v -1 0.0391381 -3.998041
v 3 0 0
v -1 0 0

vn 0 0.3293358 0.9442128
vn 0 0.3293358 0.9442128
vn 0 0.3293358 0.9442128
vn 0 0.3293358 0.9442128
vn -0.9999999 0 0
vn -1 0 0
vn -1 0 0
vn -1 0 0
vn 0 -0.3293358 -0.9442129
vn 0 -0.3293358 -0.9442129
vn 0 -0.3293358 -0.9442129
vn 0 -0.3293358 -0.9442129
vn 1 0 0
vn 1 0 0
vn 1 0 0
vn 0.9999999 0 0
vn 0 0.9513845 -0.3080057
vn 0 0.9513845 -0.3080057
vn 0 0.9513845 -0.3080057
vn 0 0.9513845 -0.3080057
vn 0 -0.9513844 0.3080061
vn 0 -0.9513844 0.3080061
vn 0 -0.9513844 0.3080061
vn 0 -0.9513844 0.3080061

vt 4 0
vt 0 0
vt 4 3.972059
vt 0 3.972059
vt 4.048544 0
vt 0.05050015 0.03913963
vt 3.998044 3.971738
vt 0 4.01088
vt 4 1.192093E-07
vt 0 1.192093E-07
vt 4 3.972061
vt 0 3.972061
vt 3.998044 0.03913963
vt 0 0
vt 4.048544 4.01088
vt 0.05050004 3.971738
vt 0 3.998236
vt 4 3.998236
vt 0 0
vt 4 0
vt 4 0
vt 0 0
vt 4 3.998235
vt 0 3.998235

g pb-Cube-2444662_(27)_674_10
usemtl pb-Cube-2444662_(27)_674_10
usemap pb-Cube-2444662_(27)_674_10
f 1/1/1 3/3/3 2/2/2
f 2/2/2 3/3/3 4/4/4
f 5/5/5 7/7/7 6/6/6
f 6/6/6 7/7/7 8/8/8
f 9/9/9 11/11/11 10/10/10
f 10/10/10 11/11/11 12/12/12
f 13/13/13 15/15/15 14/14/14
f 14/14/14 15/15/15 16/16/16
f 17/17/17 19/19/19 18/18/18
f 18/18/18 19/19/19 20/20/20
f 21/21/21 23/23/23 22/22/22
f 22/22/22 23/23/23 24/24/24
