#pb-Cube-2444662_(22)_653_32.obj

v 3 0 0
v -1 0 0
v 3 3.868257 -0.03152004
v -1 3.868257 -0.03152004
v -1 0 0
v -1 2.168367E-07 -1
v -1 3.868257 -0.03152004
v -1 3.868256 -1.031521
v -1 2.168367E-07 -1
v 3 2.168367E-07 -1
v -1 3.868256 -1.031521
v 3 3.868256 -1.031521
v 3 2.168367E-07 -1
v 3 0 0
v 3 3.868256 -1.031521
v 3 3.868257 -0.03152004
v 3 3.868257 -0.03152004
v -1 3.868257 -0.03152004
v 3 3.868256 -1.031521
v -1 3.868256 -1.031521
v 3 2.168367E-07 -1
v -1 2.168367E-07 -1
v 3 0 0
v -1 0 0

vn 0 0.3250213 0.9457067
vn 0 0.3250213 0.9457067
vn 0 0.3250213 0.9457067
vn 0 0.3250213 0.9457067
vn -1 0 0
vn -0.9999999 0 0
vn -0.9999999 0 0
vn -1 0 0
vn 0 -0.3250214 -0.9457067
vn 0 -0.3250214 -0.9457067
vn 0 -0.3250214 -0.9457067
vn 0 -0.3250214 -0.9457067
vn 1 0 0
vn 0.9999999 0 0
vn 0.9999999 0 0
vn 1 0 0
vn 0 0.9483237 -0.3173046
vn 0 0.9483237 -0.3173046
vn 0 0.9483237 -0.3173046
vn 0 0.9483237 -0.3173046
vn 0 -0.9483237 0.3173046
vn 0 -0.9483237 0.3173046
vn 0 -0.9483237 0.3173046
vn 0 -0.9483237 0.3173046

vt 4 0
vt 0 0
vt 4 3.868385
vt 0 3.868385
vt 1.031521 0
vt 0.03152108 0
vt 1.000001 3.868257
vt 0 3.868257
vt 4 0
vt 0 0
vt 4 3.868385
vt 0 3.868385
vt 1 0
vt 0 0
vt 1.031521 3.868257
vt 0.0315204 3.868257
vt 0 1.000001
vt 4 1.000001
vt 0 0
vt 4 0
vt 4 0
vt 0 0
vt 4 1
vt 0 1

g pb-Cube-2444662_(22)_653_32
usemtl pb-Cube-2444662_(22)_653_32
usemap pb-Cube-2444662_(22)_653_32
f 1/1/1 3/3/3 2/2/2
f 2/2/2 3/3/3 4/4/4
f 5/5/5 7/7/7 6/6/6
f 6/6/6 7/7/7 8/8/8
f 9/9/9 11/11/11 10/10/10
f 10/10/10 11/11/11 12/12/12
f 13/13/13 15/15/15 14/14/14
f 14/14/14 15/15/15 16/16/16
f 17/17/17 19/19/19 18/18/18
f 18/18/18 19/19/19 20/20/20
f 21/21/21 23/23/23 22/22/22
f 22/22/22 23/23/23 24/24/24
