#pb-Cube-897374_649_1.obj

v 5 -3.5 1
v -25 -3.5 1
v 5 1.5 1
v -25 1.5 1
v -25 4.5 5
v 5 4.5 5
v 5 1.5 5
v -25 1.5 5
v -25 1.5 5
v 5 1.5 5
v -25 1.5 1
v 5 1.5 1

vn 0 0 1
vn 0 0 1
vn 0 0 1
vn 0 0 1
vn 0 0 1
vn 0 0 1
vn 0 0 1
vn 0 0 1
vn 0 -1 0
vn 0 -1 0
vn 0 -1 0
vn 0 -1 0

vt 30 0
vt 0 0
vt 30 5
vt 0 5
vt 0 3
vt 30 3
vt 30 0
vt 0 0
vt 0 4
vt 30 4
vt 0 0
vt 30 0

g pb-Cube-897374_649_1
usemtl pb-Cube-897374_649_1
usemap pb-Cube-897374_649_1
f 1/1/1 3/3/3 2/2/2
f 2/2/2 3/3/3 4/4/4
f 5/5/5 7/7/7 6/6/6
f 8/8/8 7/7/7 5/5/5
f 9/9/9 11/11/11 10/10/10
f 10/10/10 11/11/11 12/12/12
