#pb-Cube-1148804_644_20.obj

v 9 50.75 109.5
v -21 50.75 109.5
v -21 33.75 109.5
v 9 33.75 109.5
v -21 50.75 99.5
v -21 17.25 -1
v -21 0 -1
v -21 33.75 99.5
v 9 17.25 -1
v 9 50.75 99.5
v 9 33.75 99.5
v 9 0 -1
v -21 50.75 99.5
v -21 33.75 99.5
v -21 50.75 109.5
v -21 33.75 109.5
v 9 33.75 99.5
v 9 50.75 99.5
v 9 33.75 109.5
v 9 50.75 109.5
v 9 0 -11
v 9 17.25 -1
v 9 0 -1
v 9 17.25 -11
v -21 0 -11
v 9 17.25 -11
v 9 0 -11
v -21 17.25 -11
v -21 0 -1
v -21 17.25 -11
v -21 0 -11
v -21 17.25 -1

vn 0 0 -1
vn 0 0 -1
vn 0 0 -1
vn 0 0 -1
vn 1 0 0
vn 0.9999999 0 0
vn 1 0 0
vn 1 0 0
vn -1 0 0
vn -1 0 0
vn -1 0 0
vn -0.9999999 0 0
vn 1 0 0
vn 1 0 0
vn 1 0 0
vn 1 0 0
vn -1 0 0
vn -1 0 0
vn -1 0 0
vn -1 0 0
vn -1 0 0
vn -1 0 0
vn -1 0 0
vn -1 0 0
vn 0 0 1
vn 0 0 1
vn 0 0 1
vn 0 0 1
vn 1 0 0
vn 1 0 0
vn 1 0 0
vn 1 0 0

vt 0 17
vt 30 17
vt 30 0
vt 0 0
vt 0 50.75
vt 100.5 17.25
vt 100.5 0
vt 0 33.75
vt 0 17.25
vt 100.5 50.75
vt 100.5 33.75
vt 0 0
vt 10 17
vt 10 0
vt 0 17
vt 0 0
vt 0 0
vt 0 17
vt 10 0
vt 10 17
vt 0 0
vt 10 17.25
vt 10 0
vt 0 17.25
vt 0 0
vt 30 17.25
vt 30 0
vt 0 17.25
vt 0 0
vt 10 17.25
vt 10 0
vt 0 17.25

g pb-Cube-1148804_644_20
usemtl pb-Cube-1148804_644_20
usemap pb-Cube-1148804_644_20
f 1/1/1 3/3/3 2/2/2
f 1/1/1 4/4/4 3/3/3
f 5/5/5 7/7/7 6/6/6
f 5/5/5 8/8/8 7/7/7
f 9/9/9 11/11/11 10/10/10
f 9/9/9 12/12/12 11/11/11
f 13/13/13 15/15/15 14/14/14
f 14/14/14 15/15/15 16/16/16
f 17/17/17 19/19/19 18/18/18
f 18/18/18 19/19/19 20/20/20
f 21/21/21 23/23/23 22/22/22
f 21/21/21 22/22/22 24/24/24
f 25/25/25 27/27/27 26/26/26
f 25/25/25 26/26/26 28/28/28
f 29/29/29 31/31/31 30/30/30
f 29/29/29 30/30/30 32/32/32
