#pb-Cube-240026_617_15.obj

v 0 1 95
v -30 1 95
v -30 1 -15
v 0 1 -15
v -30 1 95
v 0 1 95
v -30 -3 101.5
v 0 -3 101.5
v -30 -3 101.5
v 0 -3 101.5
v -30 -3 109.5
v 0 -3 109.5

vn 0 1 0
vn 0 1 0
vn 0 1 0
vn 0 1 0
vn 0 0.8516583 0.5240974
vn 0 0.8516583 0.5240974
vn 0 0.8516583 0.5240974
vn 0 0.8516583 0.5240974
vn 0 1 0
vn 0 1 0
vn 0 1 0
vn 0 1 0

vt 0 110
vt 30 110
vt 30 0
vt 0 0
vt 30 0
vt 0 0
vt 30 7.632172
vt 0 7.632172
vt 30 0
vt 0 0
vt 30 8
vt 0 8

g pb-Cube-240026_617_15
usemtl pb-Cube-240026_617_15
usemap pb-Cube-240026_617_15
f 1/1/1 3/3/3 2/2/2
f 1/1/1 4/4/4 3/3/3
f 5/5/5 7/7/7 6/6/6
f 6/6/6 7/7/7 8/8/8
f 9/9/9 11/11/11 10/10/10
f 10/10/10 11/11/11 12/12/12
