#pb-Cube-932316_(4)_667_5.obj

v 0 0 81
v -9 0 81
v 0 1 81
v -9 1 81
v -9 0 81
v -9 0 -26
v -9 1 81
v -9 1 -26
v -9 0 -26
v 0 0 -26
v -9 1 -26
v 0 1 -26
v 0 0 -26
v 0 0 81
v 0 1 -26
v 0 1 81
v 0 1 81
v -9 1 81
v 0 1 -26
v -9 1 -26
v 0 0 -26
v -9 0 -26
v 0 0 81
v -9 0 81

vn 0 0 1
vn 0 0 1
vn 0 0 1
vn 0 0 1
vn -0.9999999 0 0
vn -0.9999999 0 0
vn -0.9999999 0 0
vn -0.9999999 0 0
vn 0 0 -1
vn 0 0 -1
vn 0 0 -1
vn 0 0 -1
vn 0.9999999 0 0
vn 0.9999999 0 0
vn 0.9999999 0 0
vn 0.9999999 0 0
vn 0 1 0
vn 0 1 0
vn 0 1 0
vn 0 1 0
vn 0 -1 0
vn 0 -1 0
vn 0 -1 0
vn 0 -1 0

vt 9 0
vt 0 0
vt 9 1
vt 0 1
vt 107 0
vt 0 0
vt 107 1
vt 0 1
vt 9 0
vt 0 0
vt 9 1
vt 0 1
vt 107 0
vt 0 0
vt 107 1
vt 0 1
vt 0 107
vt 9 107
vt 0 0
vt 9 0
vt 9 0
vt 0 0
vt 9 107
vt 0 107

g pb-Cube-932316_(4)_667_5
usemtl pb-Cube-932316_(4)_667_5
usemap pb-Cube-932316_(4)_667_5
f 1/1/1 3/3/3 2/2/2
f 2/2/2 3/3/3 4/4/4
f 5/5/5 7/7/7 6/6/6
f 6/6/6 7/7/7 8/8/8
f 9/9/9 11/11/11 10/10/10
f 10/10/10 11/11/11 12/12/12
f 13/13/13 15/15/15 14/14/14
f 14/14/14 15/15/15 16/16/16
f 17/17/17 19/19/19 18/18/18
f 18/18/18 19/19/19 20/20/20
f 21/21/21 23/23/23 22/22/22
f 22/22/22 23/23/23 24/24/24
