#pb-Cube-2626382_663_6.obj

v 25 16.5 0.5
v -9 16.5 0.5
v -9 2.75 0.5
v 25 2.75 0.5
v -9 16.5 0.5
v -9 16.5 -122.5
v -9 2.75 -122.5
v -9 2.75 0.5
v -9 16.5 -122.5
v 25 16.5 -122.5
v 25 2.75 -122.5
v -9 2.75 -122.5
v 25 16.5 -122.5
v 25 16.5 0.5
v 25 2.75 0.5
v 25 2.75 -122.5
v 25 2.75 0.5
v -9 2.75 0.5
v -9 2.75 -122.5
v 25 2.75 -122.5

vn 0 0 -1
vn 0 0 -1
vn 0 0 -1
vn 0 0 -1
vn 1 0 0
vn 1 0 0
vn 1 0 0
vn 1 0 0
vn 0 0 1
vn 0 0 1
vn 0 0 1
vn 0 0 1
vn -1 0 0
vn -1 0 0
vn -1 0 0
vn -1 0 0
vn 0 1 0
vn 0 1 0
vn 0 1 0
vn 0 1 0

vt 0 13.75
vt 34 13.75
vt 34 0
vt 0 0
vt 0 13.75
vt 123 13.75
vt 123 0
vt 0 0
vt 0 13.75
vt 34 13.75
vt 34 0
vt 0 0
vt 0 13.75
vt 123 13.75
vt 123 0
vt 0 0
vt 0 123
vt 34 123
vt 34 0
vt 0 0

g pb-Cube-2626382_663_6
usemtl pb-Cube-2626382_663_6
usemap pb-Cube-2626382_663_6
f 1/1/1 3/3/3 2/2/2
f 1/1/1 4/4/4 3/3/3
f 5/5/5 7/7/7 6/6/6
f 5/5/5 8/8/8 7/7/7
f 9/9/9 11/11/11 10/10/10
f 9/9/9 12/12/12 11/11/11
f 13/13/13 15/15/15 14/14/14
f 13/13/13 16/16/16 15/15/15
f 17/17/17 19/19/19 18/18/18
f 17/17/17 20/20/20 19/19/19
