#pb-Cube-1148804_644_21.obj

v 9 33.75 99.5
v -21 33.75 99.5
v -21 0 -1
v 9 0 -1
v -21 33.75 99.5
v 9 33.75 99.5
v -21 33.75 109.5
v 9 33.75 109.5

vn 0 0.9479735 -0.3183493
vn 0 0.9479735 -0.3183493
vn 0 0.9479735 -0.3183493
vn 0 0.9479735 -0.3183493
vn 0 1 0
vn 0 1 0
vn 0 1 0
vn 0 1 0

vt 0 106.0156
vt 30 106.0156
vt 30 0
vt 0 0
vt 30 0
vt 0 0
vt 30 10
vt 0 10

g pb-Cube-1148804_644_21
usemtl pb-Cube-1148804_644_21
usemap pb-Cube-1148804_644_21
f 1/1/1 3/3/3 2/2/2
f 1/1/1 4/4/4 3/3/3
f 5/5/5 7/7/7 6/6/6
f 6/6/6 7/7/7 8/8/8
