#Props_521_1.obj

v -6 0 1
v -6 0 0
v -6 3 1
v -6 3 0
v 0 3 1
v -6 0 1
v -6 3 1
v 0 0 1
v 0 0 0
v -6 3 0
v -6 0 0
v 0 3 0
v 0 3 1
v -6 3 0
v 0 3 0
v -6 3 1
v -26 0 0
v -26 0 1
v -26 3 0
v -26 3 1
v -32 3 0
v -26 0 0
v -26 3 0
v -32 0 0
v -32 0 1
v -26 3 1
v -26 0 1
v -32 3 1
v -32 3 0
v -26 3 1
v -32 3 1
v -26 3 0
v -6 0 9
v -6 0 8
v -6 3 9
v -6 3 8
v 0 3 9
v -6 0 9
v -6 3 9
v 0 0 9
v 0 0 8
v -6 3 8
v -6 0 8
v 0 3 8
v 0 3 9
v -6 3 8
v 0 3 8
v -6 3 9
v -26 0 8
v -26 0 9
v -26 3 8
v -26 3 9
v -32 3 8
v -26 0 8
v -26 3 8
v -32 0 8
v -32 0 9
v -26 3 9
v -26 0 9
v -32 3 9
v -32 3 8
v -26 3 9
v -32 3 9
v -26 3 8
v -6 0 16
v -6 0 15
v -6 3 16
v -6 3 15
v 0 3 16
v -6 0 16
v -6 3 16
v 0 0 16
v 0 0 15
v -6 3 15
v -6 0 15
v 0 3 15
v 0 3 16
v -6 3 15
v 0 3 15
v -6 3 16
v -26 0 15
v -26 0 16
v -26 3 15
v -26 3 16
v -32 3 15
v -26 0 15
v -26 3 15
v -32 0 15
v -32 0 16
v -26 3 16
v -26 0 16
v -32 3 16
v -32 3 15
v -26 3 16
v -32 3 16
v -26 3 15
v -6 0 24
v -6 0 23
v -6 3 24
v -6 3 23
v 0 3 24
v -6 0 24
v -6 3 24
v 0 0 24
v 0 0 23
v -6 3 23
v -6 0 23
v 0 3 23
v 0 3 24
v -6 3 23
v 0 3 23
v -6 3 24
v -26 0 23
v -26 0 24
v -26 3 23
v -26 3 24
v -32 3 23
v -26 0 23
v -26 3 23
v -32 0 23
v -32 0 24
v -26 3 24
v -26 0 24
v -32 3 24
v -32 3 23
v -26 3 24
v -32 3 24
v -26 3 23

vn -1 0 0
vn -1 0 0
vn -1 0 0
vn -1 0 0
vn 0 0 1
vn 0 0 1
vn 0 0 1
vn 0 0 1
vn 0 0 -1
vn 0 0 -1
vn 0 0 -1
vn 0 0 -1
vn 0 1 0
vn 0 1 0
vn 0 1 0
vn 0 1 0
vn 1 0 0
vn 1 0 0
vn 1 0 0
vn 1 0 0
vn 0 0 -1
vn 0 0 -1
vn 0 0 -1
vn 0 0 -1
vn 0 0 1
vn 0 0 1
vn 0 0 1
vn 0 0 1
vn 0 1 0
vn 0 1 0
vn 0 1 0
vn 0 1 0
vn -1 0 0
vn -1 0 0
vn -1 0 0
vn -1 0 0
vn 0 0 1
vn 0 0 1
vn 0 0 1
vn 0 0 1
vn 0 0 -1
vn 0 0 -1
vn 0 0 -1
vn 0 0 -1
vn 0 1 0
vn 0 1 0
vn 0 1 0
vn 0 1 0
vn 1 0 0
vn 1 0 0
vn 1 0 0
vn 1 0 0
vn 0 0 -1
vn 0 0 -1
vn 0 0 -1
vn 0 0 -1
vn 0 0 1
vn 0 0 1
vn 0 0 1
vn 0 0 1
vn 0 1 0
vn 0 1 0
vn 0 1 0
vn 0 1 0
vn -1 0 0
vn -1 0 0
vn -1 0 0
vn -1 0 0
vn 0 0 1
vn 0 0 1
vn 0 0 1
vn 0 0 1
vn 0 0 -1
vn 0 0 -1
vn 0 0 -1
vn 0 0 -1
vn 0 1 0
vn 0 1 0
vn 0 1 0
vn 0 1 0
vn 1 0 0
vn 1 0 0
vn 1 0 0
vn 1 0 0
vn 0 0 -1
vn 0 0 -1
vn 0 0 -1
vn 0 0 -1
vn 0 0 1
vn 0 0 1
vn 0 0 1
vn 0 0 1
vn 0 1 0
vn 0 1 0
vn 0 1 0
vn 0 1 0
vn -1 0 0
vn -1 0 0
vn -1 0 0
vn -1 0 0
vn 0 0 1
vn 0 0 1
vn 0 0 1
vn 0 0 1
vn 0 0 -1
vn 0 0 -1
vn 0 0 -1
vn 0 0 -1
vn 0 1 0
vn 0 1 0
vn 0 1 0
vn 0 1 0
vn 1 0 0
vn 1 0 0
vn 1 0 0
vn 1 0 0
vn 0 0 -1
vn 0 0 -1
vn 0 0 -1
vn 0 0 -1
vn 0 0 1
vn 0 0 1
vn 0 0 1
vn 0 0 1
vn 0 1 0
vn 0 1 0
vn 0 1 0
vn 0 1 0

vt 1 0
vt 0 0
vt 1 3
vt 0 3
vt 6 3
vt 0 0
vt 0 3
vt 6 0
vt 0 0
vt 6 3
vt 6 0
vt 0 3
vt 0 1
vt 6 0
vt 0 5.066395E-07
vt 6 1
vt 1 0
vt 0 0
vt 1 3
vt 0 3
vt 6 3
vt 0 0
vt 0 3
vt 6 0
vt 0 0
vt 6 3
vt 6 0
vt 0 3
vt 6 0
vt 0 1
vt 6 1
vt 0 0
vt 1 0
vt 0 0
vt 1 3
vt 0 3
vt 6 3
vt 0 0
vt 0 3
vt 6 0
vt 0 0
vt 6 3
vt 6 0
vt 0 3
vt 0 1
vt 6 0
vt 0 5.066395E-07
vt 6 1
vt 1 0
vt 0 0
vt 1 3
vt 0 3
vt 6 3
vt 0 0
vt 0 3
vt 6 0
vt 0 0
vt 6 3
vt 6 0
vt 0 3
vt 6 0
vt 0 1
vt 6 1
vt 0 0
vt 1 0
vt 0 0
vt 1 3
vt 0 3
vt 6 3
vt 0 0
vt 0 3
vt 6 0
vt 0 0
vt 6 3
vt 6 0
vt 0 3
vt 0 1
vt 6 0
vt 0 5.066395E-07
vt 6 1
vt 1 0
vt 0 0
vt 1 3
vt 0 3
vt 6 3
vt 0 0
vt 0 3
vt 6 0
vt 0 0
vt 6 3
vt 6 0
vt 0 3
vt 6 0
vt 0 1
vt 6 1
vt 0 0
vt 1 0
vt 0 0
vt 1 3
vt 0 3
vt 6 3
vt 0 0
vt 0 3
vt 6 0
vt 0 0
vt 6 3
vt 6 0
vt 0 3
vt 0 1
vt 6 0
vt 0 5.066395E-07
vt 6 1
vt 1 0
vt 0 0
vt 1 3
vt 0 3
vt 6 3
vt 0 0
vt 0 3
vt 6 0
vt 0 0
vt 6 3
vt 6 0
vt 0 3
vt 6 0
vt 0 1
vt 6 1
vt 0 0

g Props_521_1
usemtl Props_521_1
usemap Props_521_1
f 1/1/1 3/3/3 2/2/2
f 2/2/2 3/3/3 4/4/4
f 5/5/5 7/7/7 6/6/6
f 5/5/5 6/6/6 8/8/8
f 9/9/9 11/11/11 10/10/10
f 9/9/9 10/10/10 12/12/12
f 13/13/13 15/15/15 14/14/14
f 13/13/13 14/14/14 16/16/16
f 17/17/17 19/19/19 18/18/18
f 18/18/18 19/19/19 20/20/20
f 21/21/21 23/23/23 22/22/22
f 21/21/21 22/22/22 24/24/24
f 25/25/25 27/27/27 26/26/26
f 25/25/25 26/26/26 28/28/28
f 29/29/29 31/31/31 30/30/30
f 29/29/29 30/30/30 32/32/32
f 33/33/33 35/35/35 34/34/34
f 34/34/34 35/35/35 36/36/36
f 37/37/37 39/39/39 38/38/38
f 37/37/37 38/38/38 40/40/40
f 41/41/41 43/43/43 42/42/42
f 41/41/41 42/42/42 44/44/44
f 45/45/45 47/47/47 46/46/46
f 45/45/45 46/46/46 48/48/48
f 49/49/49 51/51/51 50/50/50
f 50/50/50 51/51/51 52/52/52
f 53/53/53 55/55/55 54/54/54
f 53/53/53 54/54/54 56/56/56
f 57/57/57 59/59/59 58/58/58
f 57/57/57 58/58/58 60/60/60
f 61/61/61 63/63/63 62/62/62
f 61/61/61 62/62/62 64/64/64
f 65/65/65 67/67/67 66/66/66
f 66/66/66 67/67/67 68/68/68
f 69/69/69 71/71/71 70/70/70
f 69/69/69 70/70/70 72/72/72
f 73/73/73 75/75/75 74/74/74
f 73/73/73 74/74/74 76/76/76
f 77/77/77 79/79/79 78/78/78
f 77/77/77 78/78/78 80/80/80
f 81/81/81 83/83/83 82/82/82
f 82/82/82 83/83/83 84/84/84
f 85/85/85 87/87/87 86/86/86
f 85/85/85 86/86/86 88/88/88
f 89/89/89 91/91/91 90/90/90
f 89/89/89 90/90/90 92/92/92
f 93/93/93 95/95/95 94/94/94
f 93/93/93 94/94/94 96/96/96
f 97/97/97 99/99/99 98/98/98
f 98/98/98 99/99/99 100/100/100
f 101/101/101 103/103/103 102/102/102
f 101/101/101 102/102/102 104/104/104
f 105/105/105 107/107/107 106/106/106
f 105/105/105 106/106/106 108/108/108
f 109/109/109 111/111/111 110/110/110
f 109/109/109 110/110/110 112/112/112
f 113/113/113 115/115/115 114/114/114
f 114/114/114 115/115/115 116/116/116
f 117/117/117 119/119/119 118/118/118
f 117/117/117 118/118/118 120/120/120
f 121/121/121 123/123/123 122/122/122
f 121/121/121 122/122/122 124/124/124
f 125/125/125 127/127/127 126/126/126
f 125/125/125 126/126/126 128/128/128
