#Red_Platform_714_6.obj

v 5 0 0
v -1 0 0
v 5 1 0
v -1 1 0
v -1 0 0
v -1 0 -115
v -1 1 0
v -1 1 -115
v -1 0 -115
v 5 0 -115
v -1 1 -115
v 5 1 -115
v 5 0 -115
v 5 0 0
v 5 1 -115
v 5 1 0
v 5 1 0
v -1 1 0
v 5 1 -115
v -1 1 -115
v 5 0 -115
v -1 0 -115
v 5 0 0
v -1 0 0

vn 0 0 1
vn 0 0 1
vn 0 0 1
vn 0 0 1
vn -0.9999999 0 0
vn -0.9999999 0 0
vn -0.9999999 0 0
vn -0.9999999 0 0
vn 0 0 -1
vn 0 0 -1
vn 0 0 -1
vn 0 0 -1
vn 0.9999999 0 0
vn 0.9999999 0 0
vn 0.9999999 0 0
vn 0.9999999 0 0
vn 0 1 0
vn 0 1 0
vn 0 1 0
vn 0 1 0
vn 0 -1 0
vn 0 -1 0
vn 0 -1 0
vn 0 -1 0

vt 6 0
vt 0 0
vt 6 1
vt 0 1
vt 115 0
vt 0 0
vt 115 1
vt 0 1
vt 6 0
vt 0 0
vt 6 1
vt 0 1
vt 115 0
vt 0 0
vt 115 1
vt 0 1
vt 0 115
vt 6 115
vt 0 0
vt 6 0
vt 6 0
vt 0 0
vt 6 115
vt 0 115

g Red_Platform_714_6
usemtl Red_Platform_714_6
usemap Red_Platform_714_6
f 1/1/1 3/3/3 2/2/2
f 2/2/2 3/3/3 4/4/4
f 5/5/5 7/7/7 6/6/6
f 6/6/6 7/7/7 8/8/8
f 9/9/9 11/11/11 10/10/10
f 10/10/10 11/11/11 12/12/12
f 13/13/13 15/15/15 14/14/14
f 14/14/14 15/15/15 16/16/16
f 17/17/17 19/19/19 18/18/18
f 18/18/18 19/19/19 20/20/20
f 21/21/21 23/23/23 22/22/22
f 22/22/22 23/23/23 24/24/24
