#Red_Platform_658_5.obj

v 3 0 3
v 4 1 3
v 5 0 3
v 3 1 3
v -3 0 3
v -1 1 3
v -1 0 3
v -2 1 3
v -2 2 3
v -3 2 3
v -2 2 -4
v -2 2 3
v -3 2 -5
v -3 2 3
v -2 1 -4
v -2 1 3
v -2 2 -4
v -2 2 3
v -3 0 3
v -3 0 -5
v -3 2 3
v -3 2 -5
v 4 2 3
v 4 2 -4
v 5 2 3
v 5 2 -5
v -2 2 -4
v -3 2 -5
v 4 1 3
v 4 1 -4
v 4 2 3
v 4 2 -4
v 5 0 3
v 4 1 3
v 5 2 3
v 4 2 3
v 5 0 -5
v 5 0 3
v 5 2 -5
v 5 2 3
v 4 1 -4
v -2 1 -4
v 4 2 -4
v -2 2 -4
v 5 0 3
v -3 0 -5
v -3 0 3
v 5 0 -5

vn 0 0 1
vn 0 0 1
vn 0 0 1
vn 0 0 1
vn 0 0 1
vn 0 0 1
vn 0 0 1
vn 0 0 1
vn 0 0 1
vn 0 0 1
vn 0 1 0
vn 0 1 0
vn 0 1 0
vn 0 1 0
vn 1 0 0
vn 1 0 0
vn 1 0 0
vn 1 0 0
vn -1 0 0
vn -1 0 0
vn -1 0 0
vn -1 0 0
vn 0 1 0
vn 0 1 0
vn 0 1 0
vn 0 1 0
vn 0 1 0
vn 0 1 0
vn -1 0 0
vn -1 0 0
vn -1 0 0
vn -1 0 0
vn 0 0 1
vn 0 0 1
vn 0 0 1
vn 0 0 1
vn 1 0 0
vn 1 0 0
vn 1 0 0
vn 1 0 0
vn 0 0 1
vn 0 0 1
vn 0 0 1
vn 0 0 1
vn 0 -1 0
vn 0 -1 0
vn 0 -1 0
vn 0 -1 0

vt 0 0
vt 1 1
vt 2 0
vt 0 1
vt 0 0
vt 2 1
vt 2 0
vt 1 1
vt 1 2
vt 0 2
vt 0 1
vt 0 8
vt 1 0
vt 1 8
vt 7 0
vt 0 0
vt 7 1
vt 0 1
vt 8 0
vt 0 0
vt 8 2
vt 0 2
vt 1 8
vt 1 1
vt 0 8
vt 0 0
vt 7 1
vt 8 0
vt 7 0
vt 0 0
vt 7 1
vt 0 1
vt 1 0
vt 0 1
vt 1 2
vt 0 2
vt 8 0
vt 0 0
vt 8 2
vt 0 2
vt 6 0
vt 0 0
vt 6 1
vt 0 1
vt 8 8
vt 0 0
vt 0 8
vt 8 0

g Red_Platform_658_5
usemtl Red_Platform_658_5
usemap Red_Platform_658_5
f 1/1/1 3/3/3 2/2/2
f 1/1/1 2/2/2 4/4/4
f 5/5/5 7/7/7 6/6/6
f 5/5/5 6/6/6 8/8/8
f 8/8/8 9/9/9 5/5/5
f 5/5/5 9/9/9 10/10/10
f 11/11/11 13/13/13 12/12/12
f 12/12/12 13/13/13 14/14/14
f 15/15/15 17/17/17 16/16/16
f 16/16/16 17/17/17 18/18/18
f 19/19/19 21/21/21 20/20/20
f 20/20/20 21/21/21 22/22/22
f 23/23/23 25/25/25 24/24/24
f 24/24/24 25/25/25 26/26/26
f 24/24/24 26/26/26 27/27/27
f 27/27/27 26/26/26 28/28/28
f 29/29/29 31/31/31 30/30/30
f 30/30/30 31/31/31 32/32/32
f 33/33/33 35/35/35 34/34/34
f 34/34/34 35/35/35 36/36/36
f 37/37/37 39/39/39 38/38/38
f 38/38/38 39/39/39 40/40/40
f 41/41/41 43/43/43 42/42/42
f 42/42/42 43/43/43 44/44/44
f 45/45/45 47/47/47 46/46/46
f 45/45/45 46/46/46 48/48/48
