#Shelf_725_43.obj

v 1.999999 0 2.384186E-07
v -2.000001 0 2.384186E-07
v 1.999999 0.1 2.384186E-07
v -2.000001 0.1 2.384186E-07
v 1.999999 0.1 2.384186E-07
v -2.000001 0.1 2.384186E-07
v 1.999999 0.1 -0.9999998
v -2.000001 0.1 -0.9999998
v 1.999999 0 -0.9999998
v -2.000001 0 -0.9999998
v 1.999999 0 2.384186E-07
v -2.000001 0 2.384186E-07

vn 0 0 1
vn 0 0 1
vn 0 0 1
vn 0 0 1
vn 0 1 0
vn 0 1 0
vn 0 1 0
vn 0 1 0
vn 0 -1 0
vn 0 -1 0
vn 0 -1 0
vn 0 -1 0

vt 4 0.2244802
vt 0 0.2244802
vt 4 0.3244802
vt 0 0.3244802
vt 0 1
vt 4 1
vt 0 0
vt 4 0
vt 4 0
vt 0 0
vt 4 1
vt 0 1

g Shelf_725_43
usemtl Shelf_725_43
usemap Shelf_725_43
f 1/1/1 3/3/3 2/2/2
f 2/2/2 3/3/3 4/4/4
f 5/5/5 7/7/7 6/6/6
f 6/6/6 7/7/7 8/8/8
f 9/9/9 11/11/11 10/10/10
f 10/10/10 11/11/11 12/12/12
