#Static_660_1.obj

v -1 0 -1
v -1 0 -9
v -1 1 -1
v -1 1 -9
v -1 0 -9
v 2 0 -9
v -1 1 -9
v 2 1 -9
v 2 1 -1
v -1 1 -1
v 2 1 -9
v -1 1 -9
v 2 0 -9
v -1 0 -9
v 2 0 -1
v -1 0 -1
v -1 0 11
v -1 1 11
v -1 0 16
v -1 1 16
v -1 1 11
v 2 1 11
v -1 1 16
v 2 1 19
v 2 1 11
v 2 0 11
v 2 1 19
v 2 0 19
v 2 0 11
v -1 0 11
v 2 0 19
v -1 0 16
v -1 0 16
v -1 1 16
v -19 0 16
v -19 1 16
v 2 0 19
v -1 0 16
v -16 0 19
v -19 0 16
v -16 0 37
v -19 0 37
v -1 1 16
v 2 1 19
v -19 1 16
v -16 1 19
v 2 1 19
v 2 0 19
v -16 1 19
v -16 0 19
v -16 1 19
v -16 0 19
v -16 1 37
v -16 0 37
v -19 1 16
v -16 1 19
v -19 1 37
v -16 1 37
v -19 0 16
v -19 1 16
v -19 0 37
v -19 1 37
v 2 1 -9
v 2 0 -9
v 2 1 -1
v 2 0 -1

vn -1 0 0
vn -1 0 0
vn -1 0 0
vn -1 0 0
vn 0 0 -1
vn 0 0 -1
vn 0 0 -1
vn 0 0 -1
vn 0 1 0
vn 0 1 0
vn 0 1 0
vn 0 1 0
vn 0 -1 0
vn 0 -1 0
vn 0 -1 0
vn 0 -1 0
vn -1 0 0
vn -1 0 0
vn -1 0 0
vn -1 0 0
vn 0 1 0
vn 0 1 0
vn 0 1 0
vn 0 1 0
vn 1 0 0
vn 1 0 0
vn 1 0 0
vn 1 0 0
vn 0 -1 0
vn 0 -1 0
vn 0 -1 0
vn 0 -1 0
vn 0 0 -1
vn 0 0 -1
vn 0 0 -1
vn 0 0 -1
vn 0 -1 0
vn 0 -1 0
vn 0 -1 0
vn 0 -1 0
vn 0 -1 0
vn 0 -1 0
vn 0 1 0
vn 0 1 0
vn 0 1 0
vn 0 1 0
vn 0 0 1
vn 0 0 1
vn 0 0 1
vn 0 0 1
vn 1 0 0
vn 1 0 0
vn 1 0 0
vn 1 0 0
vn 0 1 0
vn 0 1 0
vn 0 1 0
vn 0 1 0
vn -1 0 0
vn -1 0 0
vn -1 0 0
vn -1 0 0
vn 1 0 0
vn 1 0 0
vn 1 0 0
vn 1 0 0

vt 8 0
vt 0 0
vt 8 1
vt 0 1
vt 3 0
vt 0 0
vt 3 1
vt 0 1
vt 0 8
vt 3 8
vt 0 0
vt 3 0
vt 3 0
vt 0 0
vt 3 8
vt 0 8
vt 0 0
vt 0 1
vt 5 0
vt 5 1
vt 3 0
vt 0 0
vt 3 5
vt 0 8
vt 8 1
vt 8 0
vt 0 1
vt 0 0
vt 3 0
vt 0 0
vt 3 8
vt 0 5
vt 0 0
vt 0 1
vt 18 0
vt 18 1
vt 21 3
vt 18 0
vt 3 3
vt 0 0
vt 3 21
vt 0 21
vt 3 0
vt 0 3
vt 21 0
vt 18 3
vt 18 1
vt 18 0
vt 0 1
vt 0 0
vt 18 1
vt 18 0
vt 0 1
vt 0 0
vt 3 0
vt 0 3
vt 3 21
vt 0 21
vt 0 0
vt 0 1
vt 21 0
vt 21 1
vt 8 1
vt 8 0
vt 0 1
vt 0 0

g Static_660_2
usemtl Static_660_2
usemap Static_660_2
f 1/1/1 3/3/3 2/2/2
f 2/2/2 3/3/3 4/4/4
f 5/5/5 7/7/7 6/6/6
f 6/6/6 7/7/7 8/8/8
f 9/9/9 11/11/11 10/10/10
f 10/10/10 11/11/11 12/12/12
f 13/13/13 15/15/15 14/14/14
f 14/14/14 15/15/15 16/16/16
f 17/17/17 19/19/19 18/18/18
f 18/18/18 19/19/19 20/20/20
f 21/21/21 23/23/23 22/22/22
f 22/22/22 23/23/23 24/24/24
f 25/25/25 27/27/27 26/26/26
f 26/26/26 27/27/27 28/28/28
f 29/29/29 31/31/31 30/30/30
f 30/30/30 31/31/31 32/32/32
f 33/33/33 35/35/35 34/34/34
f 34/34/34 35/35/35 36/36/36
f 37/37/37 39/39/39 38/38/38
f 38/38/38 39/39/39 40/40/40
f 39/39/39 41/41/41 40/40/40
f 40/40/40 41/41/41 42/42/42
f 43/43/43 45/45/45 44/44/44
f 44/44/44 45/45/45 46/46/46
f 47/47/47 49/49/49 48/48/48
f 48/48/48 49/49/49 50/50/50
f 51/51/51 53/53/53 52/52/52
f 52/52/52 53/53/53 54/54/54
f 55/55/55 57/57/57 56/56/56
f 56/56/56 57/57/57 58/58/58
f 59/59/59 61/61/61 60/60/60
f 60/60/60 61/61/61 62/62/62
f 63/63/63 65/65/65 64/64/64
f 65/65/65 66/66/66 64/64/64
