#Static_809_6.obj

v 2 0 0
v -1 0 0
v 2 1 0
v -1 1 0
v -1 0 0
v -1 0 -4
v -1 1 0
v -1 1 -4
v 2 0 -4
v 2 0 0
v 2 1 -4
v 2 1 0
v -1 1 -4
v -1 0 -4
v 0 0 -4
v 0 1 -4
v 2 0 -4
v 2 1 -4
v 1 0 -4
v 1 1 -4
v 0 1 -16
v 0 0 -16
v 1 0 -16
v 1 1 -16
v -1 0 -4
v -1 0 0
v 0 0 -4
v 1 0 -4
v 2 0 0
v 2 0 -4
v 0 1 -4
v 0 0 -4
v 0 1 -16
v 0 0 -16
v 0 0 -4
v 1 0 -4
v 0 0 -16
v 1 0 -16
v 1 0 -4
v 1 1 -4
v 1 0 -16
v 1 1 -16

vn 0 0 1
vn 0 0 1
vn 0 0 1
vn 0 0 1
vn -1 0 0
vn -1 0 0
vn -1 0 0
vn -1 0 0
vn 1 0 0
vn 1 0 0
vn 1 0 0
vn 1 0 0
vn 0 0 -1
vn 0 0 -1
vn 0 0 -1
vn 0 0 -1
vn 0 0 -1
vn 0 0 -1
vn 0 0 -1
vn 0 0 -1
vn 0 0 -1
vn 0 0 -1
vn 0 0 -1
vn 0 0 -1
vn 0 -1 0
vn 0 -1 0
vn 0 -1 0
vn 0 -1 0
vn 0 -1 0
vn 0 -1 0
vn -1 0 0
vn -1 0 0
vn -1 0 0
vn -1 0 0
vn 0 -1 0
vn 0 -1 0
vn 0 -1 0
vn 0 -1 0
vn 1 0 0
vn 1 0 0
vn 1 0 0
vn 1 0 0

vt 3 0
vt 0 0
vt 3 1
vt 0 1
vt 4 0
vt 0 0
vt 4 1
vt 0 1
vt 4 0
vt 0 0
vt 4 1
vt 0 1
vt 3 1
vt 3 0
vt 2 0
vt 2 1
vt 0 0
vt 0 1
vt 1 0
vt 1 1
vt 1 1
vt 1 0
vt 0 0
vt 0 1
vt 0 0
vt 0 4
vt 1 0
vt 2 0
vt 3 4
vt 3 0
vt 12 1
vt 12 0
vt 0 1
vt 0 0
vt 0 12
vt 1 12
vt 0 0
vt 1 0
vt 0 0
vt 0 1
vt 12 0
vt 12 1

g Static_809_6
usemtl Static_809_6
usemap Static_809_6
f 1/1/1 3/3/3 2/2/2
f 2/2/2 3/3/3 4/4/4
f 5/5/5 7/7/7 6/6/6
f 6/6/6 7/7/7 8/8/8
f 9/9/9 11/11/11 10/10/10
f 10/10/10 11/11/11 12/12/12
f 13/13/13 15/15/15 14/14/14
f 16/16/16 15/15/15 13/13/13
f 17/17/17 19/19/19 18/18/18
f 18/18/18 19/19/19 20/20/20
f 21/21/21 23/23/23 22/22/22
f 24/24/24 23/23/23 21/21/21
f 25/25/25 27/27/27 26/26/26
f 27/27/27 28/28/28 26/26/26
f 26/26/26 28/28/28 29/29/29
f 29/29/29 28/28/28 30/30/30
f 31/31/31 33/33/33 32/32/32
f 32/32/32 33/33/33 34/34/34
f 35/35/35 37/37/37 36/36/36
f 36/36/36 37/37/37 38/38/38
f 39/39/39 41/41/41 40/40/40
f 40/40/40 41/41/41 42/42/42
