#Static_671_7.obj

v -2 -1 13
v -5 -1 13
v -2 0 13
v -5 0 13
v -5 -1 13
v -5 -1 6
v -5 0 13
v -5 0 6
v -2 -1 6
v -2 -1 13
v -2 0 6
v -2 0 13
v -2 -1 6
v -5 -1 6
v -2 -1 13
v -5 -1 13
v -2 0 13
v -5 0 13
v -2 0 5
v -5 0 5

vn 0 0 1
vn 0 0 1
vn 0 0 1
vn 0 0 1
vn -1 0 0
vn -1 0 0
vn -1 0 0
vn -1 0 0
vn 1 0 0
vn 1 0 0
vn 1 0 0
vn 1 0 0
vn 0 -1 0
vn 0 -1 0
vn 0 -1 0
vn 0 -1 0
vn 0 1 0
vn 0 1 0
vn 0 1 0
vn 0 1 0

vt 3 0
vt 0 0
vt 3 1
vt 0 1
vt 7 0
vt 0 0
vt 7 1
vt 0 1
vt 7 0
vt 0 0
vt 7 1
vt 0 1
vt 3 0
vt 0 0
vt 3 7
vt 0 7
vt 0 8
vt 3 8
vt 0 0
vt 3 0

g Static_671_7
usemtl Static_671_7
usemap Static_671_7
f 1/1/1 3/3/3 2/2/2
f 2/2/2 3/3/3 4/4/4
f 5/5/5 7/7/7 6/6/6
f 6/6/6 7/7/7 8/8/8
f 9/9/9 11/11/11 10/10/10
f 10/10/10 11/11/11 12/12/12
f 13/13/13 15/15/15 14/14/14
f 14/14/14 15/15/15 16/16/16
f 17/17/17 19/19/19 18/18/18
f 18/18/18 19/19/19 20/20/20
