#Static_659_11.obj

v 0 0 -1
v -1 0 -1
v 0 0 2
v -1 0 2
v -1 0 -1
v 0 0 -1
v -1 1 -1
v 0 1 -1
v 0 1 -1
v 0 0 -1
v 0 1 3
v 0 0 2
v -1 0 -1
v -1 1 -1
v -1 0 2
v -1 1 3
v -1 1 -1
v 0 1 -1
v -1 1 3
v 0 1 3
v 0 0 2
v -1 0 2
v 0 -4 2
v -1 -4 2
v 0 1 3
v 0 0 2
v 0 -3 3
v 0 -4 2
v -1 0 2
v -1 1 3
v -1 -4 2
v -1 -3 3
v -1 -4 5
v -1 -3 5
v -1 1 3
v 0 1 3
v -1 -3 3
v 0 -3 3
v -1 -3 3
v 0 -3 3
v -1 -3 5
v 0 -3 5
v 0 -3 3
v 0 -4 2
v 0 -3 5
v 0 -4 5
v 0 -4 2
v -1 -4 2
v 0 -4 5
v -1 -4 5

vn 0 -1 0
vn 0 -1 0
vn 0 -1 0
vn 0 -1 0
vn 0 0 -1
vn 0 0 -1
vn 0 0 -1
vn 0 0 -1
vn 1 0 0
vn 1 0 0
vn 1 0 0
vn 1 0 0
vn -1 0 0
vn -1 0 0
vn -1 0 0
vn -1 0 0
vn 0 1 0
vn 0 1 0
vn 0 1 0
vn 0 1 0
vn 0 0 -1
vn 0 0 -1
vn 0 0 -1
vn 0 0 -1
vn 1 0 0
vn 1 0 0
vn 1 0 0
vn 1 0 0
vn -1 0 0
vn -1 0 0
vn -1 0 0
vn -1 0 0
vn -1 0 0
vn -1 0 0
vn 0 0 1
vn 0 0 1
vn 0 0 1
vn 0 0 1
vn 0 1 0
vn 0 1 0
vn 0 1 0
vn 0 1 0
vn 1 0 0
vn 1 0 0
vn 1 0 0
vn 1 0 0
vn 0 -1 0
vn 0 -1 0
vn 0 -1 0
vn 0 -1 0

vt 1 0
vt 0 0
vt 1 3
vt 0 3
vt 1 0
vt 0 0
vt 1 1
vt 0 1
vt 4 1
vt 4 0
vt 0 1
vt 1 0
vt 0 0
vt 0 1
vt 3 0
vt 4 1
vt 1 0
vt 0 0
vt 1 4
vt 0 4
vt 0 4
vt 1 4
vt 0 0
vt 1 0
vt 0 5
vt 1 4
vt 0 1
vt 1 0
vt 0 4
vt 1 5
vt 0 0
vt 1 1
vt 3 0
vt 3 1
vt 0 4
vt 1 4
vt 0 0
vt 1 0
vt 1 0
vt 0 0
vt 1 2
vt 0 2
vt 2 1
vt 3 0
vt 0 1
vt 0 0
vt 1 0
vt 0 0
vt 1 3
vt 0 3

g Static_659_11
usemtl Static_659_11
usemap Static_659_11
f 1/1/1 3/3/3 2/2/2
f 2/2/2 3/3/3 4/4/4
f 5/5/5 7/7/7 6/6/6
f 6/6/6 7/7/7 8/8/8
f 9/9/9 11/11/11 10/10/10
f 10/10/10 11/11/11 12/12/12
f 13/13/13 15/15/15 14/14/14
f 14/14/14 15/15/15 16/16/16
f 17/17/17 19/19/19 18/18/18
f 18/18/18 19/19/19 20/20/20
f 21/21/21 23/23/23 22/22/22
f 22/22/22 23/23/23 24/24/24
f 25/25/25 27/27/27 26/26/26
f 26/26/26 27/27/27 28/28/28
f 29/29/29 31/31/31 30/30/30
f 30/30/30 31/31/31 32/32/32
f 31/31/31 33/33/33 32/32/32
f 32/32/32 33/33/33 34/34/34
f 35/35/35 37/37/37 36/36/36
f 36/36/36 37/37/37 38/38/38
f 39/39/39 41/41/41 40/40/40
f 40/40/40 41/41/41 42/42/42
f 43/43/43 45/45/45 44/44/44
f 44/44/44 45/45/45 46/46/46
f 47/47/47 49/49/49 48/48/48
f 48/48/48 49/49/49 50/50/50
