#Static_718_3.obj

v 7 0 7
v -1 0 7
v 7 1 7
v -1 1 7
v -1 0 7
v -1 0 -19
v -1 1 7
v -1 1 -19
v 7 0 -19
v 7 0 7
v 7 1 -19
v 7 1 7
v 7 1 7
v -1 1 7
v 7 1 -19
v -1 1 -19
v 7 0 -19
v -1 0 -19
v 7 0 7
v -1 0 7
v 7 1 -19
v 6 1 -20
v 7 1 -33
v 6 1 -32
v 0 1 -32
v -1 1 -33
v 6 1 -20
v 6 -4 -20
v 6 1 -32
v 6 -4 -32
v 6 -4 -32
v 6 -4 -20
v 0 -4 -32
v 0 -4 -20
v 0 1 -20
v -1 1 -19
v 0 1 -32
v -1 1 -33
v 6 1 -32
v 6 -4 -32
v 0 1 -32
v 0 -4 -32
v 0 1 -20
v 0 -4 -32
v 0 -4 -20
v 0 1 -32
v -1 -5 -19
v 7 0 -19
v 7 -5 -19
v -1 0 -19
v 6 -4 -20
v 0 1 -20
v 0 -4 -20
v 6 1 -20
v -1 1 -19
v 6 1 -20
v 7 1 -19
v 0 1 -20
v -1 -5 -33
v 7 -5 -33
v -1 0 -33
v 7 0 -33
v 7 1 -19
v 7 1 -33
v 7 0 -33
v 7 -5 -33
v 7 -5 -19
v -1 1 -33
v -1 1 -19
v -1 0 -33
v -1 -5 -19
v -1 -5 -33
v 7 1 -33
v -1 1 -33
v 7 1 -40
v -1 1 -40
v -1 1 -33
v -1 0 -33
v -1 1 -40
v -1 0 -40
v 7 0 -33
v 7 1 -33
v 7 0 -40
v 7 1 -40
v -1 0 -33
v 7 0 -33
v -1 0 -40
v 7 0 -40
v 7 -5 -33
v -1 -5 -19
v 7 -5 -19
v -1 -5 -33
v -1 0 -40
v 7 1 -40
v -1 1 -40
v 7 0 -40

vn 0 0 1
vn 0 0 1
vn 0 0 1
vn 0 0 1
vn -1 0 0
vn -1 0 0
vn -1 0 0
vn -1 0 0
vn 1 0 0
vn 1 0 0
vn 1 0 0
vn 1 0 0
vn 0 1 0
vn 0 1 0
vn 0 1 0
vn 0 1 0
vn 0 -1 0
vn 0 -1 0
vn 0 -1 0
vn 0 -1 0
vn 0 1 0
vn 0 1 0
vn 0 1 0
vn 0 1 0
vn 0 1 0
vn 0 1 0
vn -1 0 0
vn -1 0 0
vn -1 0 0
vn -1 0 0
vn 0 1 0
vn 0 1 0
vn 0 1 0
vn 0 1 0
vn 0 1 0
vn 0 1 0
vn 0 1 0
vn 0 1 0
vn 0 0 1
vn 0 0 1
vn 0 0 1
vn 0 0 1
vn 1 0 0
vn 1 0 0
vn 1 0 0
vn 1 0 0
vn 0 0 1
vn 0 0 1
vn 0 0 1
vn 0 0 1
vn 0 0 -1
vn 0 0 -1
vn 0 0 -1
vn 0 0 -1
vn 0 1 0
vn 0 1 0
vn 0 1 0
vn 0 1 0
vn 0 0 -1
vn 0 0 -1
vn 0 0 -1
vn 0 0 -1
vn 1 0 0
vn 1 0 0
vn 1 0 0
vn 1 0 0
vn 1 0 0
vn -1 0 0
vn -1 0 0
vn -1 0 0
vn -1 0 0
vn -1 0 0
vn 0 1 0
vn 0 1 0
vn 0 1 0
vn 0 1 0
vn -1 0 0
vn -1 0 0
vn -1 0 0
vn -1 0 0
vn 1 0 0
vn 1 0 0
vn 1 0 0
vn 1 0 0
vn 0 -1 0
vn 0 -1 0
vn 0 -1 0
vn 0 -1 0
vn 0 -1 0
vn 0 -1 0
vn 0 -1 0
vn 0 -1 0
vn 0 0 -1
vn 0 0 -1
vn 0 0 -1
vn 0 0 -1

vt 8 0
vt 0 0
vt 8 1
vt 0 1
vt 26 0
vt 0 0
vt 26 1
vt 0 1
vt 26 0
vt 0 0
vt 26 1
vt 0 1
vt 0 26
vt 8 26
vt 0 0
vt 8 0
vt 8 0
vt 0 0
vt 8 26
vt 0 26
vt 0 14
vt 1 13
vt 0 0
vt 1 1
vt 7 1
vt 8 0
vt 12 5
vt 12 0
vt 0 5
vt 0 0
vt 0 0
vt 0 12
vt 6 0
vt 6 12
vt 0 13
vt 1 14
vt 0 1
vt 1 0
vt 6 5
vt 6 0
vt 0 5
vt 0 0
vt 0 5
vt 12 0
vt 0 0
vt 12 5
vt 0 0
vt 8 5
vt 8 0
vt 0 5
vt 0 0
vt 6 5
vt 6 0
vt 0 5
vt 8 1
vt 1 0
vt 0 1
vt 7 0
vt 8 0
vt 0 0
vt 8 5
vt 0 5
vt 0 6
vt 14 6
vt 14 5
vt 14 0
vt 0 0
vt 0 6
vt 14 6
vt 0 5
vt 14 0
vt 0 0
vt 0 7
vt 8 7
vt 0 0
vt 8 0
vt 7 1
vt 7 0
vt 0 1
vt 0 0
vt 0 0
vt 0 1
vt 7 0
vt 7 1
vt 0 7
vt 8 7
vt 0 0
vt 8 0
vt 8 0
vt 0 14
vt 8 14
vt 0 0
vt 8 0
vt 0 1
vt 8 1
vt 0 0

g Static_718_3
usemtl Static_718_3
usemap Static_718_3
f 1/1/1 3/3/3 2/2/2
f 2/2/2 3/3/3 4/4/4
f 5/5/5 7/7/7 6/6/6
f 6/6/6 7/7/7 8/8/8
f 9/9/9 11/11/11 10/10/10
f 10/10/10 11/11/11 12/12/12
f 13/13/13 15/15/15 14/14/14
f 14/14/14 15/15/15 16/16/16
f 17/17/17 19/19/19 18/18/18
f 18/18/18 19/19/19 20/20/20
f 21/21/21 23/23/23 22/22/22
f 22/22/22 23/23/23 24/24/24
f 23/23/23 26/26/26 25/25/25
f 23/23/23 25/25/25 24/24/24
f 27/27/27 29/29/29 28/28/28
f 28/28/28 29/29/29 30/30/30
f 31/31/31 33/33/33 32/32/32
f 32/32/32 33/33/33 34/34/34
f 35/35/35 37/37/37 36/36/36
f 36/36/36 37/37/37 38/38/38
f 39/39/39 41/41/41 40/40/40
f 40/40/40 41/41/41 42/42/42
f 43/43/43 45/45/45 44/44/44
f 43/43/43 44/44/44 46/46/46
f 47/47/47 49/49/49 48/48/48
f 47/47/47 48/48/48 50/50/50
f 51/51/51 53/53/53 52/52/52
f 51/51/51 52/52/52 54/54/54
f 55/55/55 57/57/57 56/56/56
f 55/55/55 56/56/56 58/58/58
f 59/59/59 61/61/61 60/60/60
f 60/60/60 61/61/61 62/62/62
f 63/63/63 65/65/65 64/64/64
f 66/66/66 65/65/65 67/67/67
f 67/67/67 65/65/65 63/63/63
f 68/68/68 70/70/70 69/69/69
f 69/69/69 70/70/70 71/71/71
f 71/71/71 70/70/70 72/72/72
f 73/73/73 75/75/75 74/74/74
f 74/74/74 75/75/75 76/76/76
f 77/77/77 79/79/79 78/78/78
f 78/78/78 79/79/79 80/80/80
f 81/81/81 83/83/83 82/82/82
f 82/82/82 83/83/83 84/84/84
f 85/85/85 87/87/87 86/86/86
f 86/86/86 87/87/87 88/88/88
f 89/89/89 91/91/91 90/90/90
f 89/89/89 90/90/90 92/92/92
f 93/93/93 95/95/95 94/94/94
f 93/93/93 94/94/94 96/96/96
