#Static_801_8.obj

v -3 0 0
v -3 0 -2
v -3 1 0
v -3 1 -2
v -3 0 -2
v 3 0 -2
v -3 1 -2
v 3 1 -2
v 3 0 -2
v 3 0 0
v 3 1 -2
v 3 1 0
v 3 1 0
v 3 0 0
v 1 0 0
v 1 1 0
v -3 0 0
v -3 1 0
v -1 0 0
v -1 1 0
v 1 1 4
v 1 0 4
v -2 0 4
v -2 1 4
v 3 0 -2
v 1 0 0
v 3 0 0
v -3 0 -2
v -1 0 0
v -3 0 0
v 1 1 0
v 1 0 0
v 1 1 4
v 1 0 4
v -1 0 0
v -1 1 0
v -1 0 3
v -1 1 3
v 1 0 0
v -1 0 0
v -1 0 3
v 1 0 4
v -2 0 4
v -1 0 3
v -1 1 3
v -3 0 3
v -3 1 3
v -1 0 3
v -3 0 3
v -2 0 4
v -2 0 8
v -3 0 8
v -3 0 3
v -3 1 3
v -3 0 8
v -3 1 8
v -2 1 4
v -2 0 4
v -2 0 8
v -2 1 8
v 2 0 9
v 2 1 9
v 2 0 13
v 2 1 13
v 3 0 9
v 2 0 9
v 3 0 14
v 2 0 13
v 3 1 9
v 3 0 9
v 3 1 14
v 3 0 14
v -1 0 13
v -1 1 13
v -1 0 14
v -1 1 14
v 3 0 14
v 2 0 13
v 1 0 14
v 3 1 14
v 3 0 14
v 1 1 14
v 1 0 14
v 2 0 13
v 2 1 13
v -1 0 13
v -1 1 13
v 1 0 14
v 2 0 13
v -1 0 14
v -1 0 13
v 1 1 17
v 1 0 17
v -1 1 17
v -1 0 17
v 1 1 14
v 1 0 14
v 1 1 17
v 1 0 17
v 1 0 14
v -1 0 14
v 1 0 17
v -1 0 17
v -1 0 14
v -1 1 14
v -1 0 17
v -1 1 17
v -2 0 8
v -3 1 8
v -2 1 8
v -3 0 8
v 2 0 9
v 3 1 9
v 2 1 9
v 3 0 9

vn -1 0 0
vn -1 0 0
vn -1 0 0
vn -1 0 0
vn 0 0 -1
vn 0 0 -1
vn 0 0 -1
vn 0 0 -1
vn 1 0 0
vn 1 0 0
vn 1 0 0
vn 1 0 0
vn 0 0 1
vn 0 0 1
vn 0 0 1
vn 0 0 1
vn 0 0 1
vn 0 0 1
vn 0 0 1
vn 0 0 1
vn 0 0 1
vn 0 0 1
vn 0 0 1
vn 0 0 1
vn 0 -1 0
vn 0 -1 0
vn 0 -1 0
vn 0 -1 0
vn 0 -1 0
vn 0 -1 0
vn 1 0 0
vn 1 0 0
vn 1 0 0
vn 1 0 0
vn -1 0 0
vn -1 0 0
vn -1 0 0
vn -1 0 0
vn 0 -1 0
vn 0 -1 0
vn 0 -1 0
vn 0 -1 0
vn 0 -1 0
vn 0 0 -1
vn 0 0 -1
vn 0 0 -1
vn 0 0 -1
vn 0 -1 0
vn 0 -1 0
vn 0 -1 0
vn 0 -1 0
vn 0 -1 0
vn -1 0 0
vn -1 0 0
vn -1 0 0
vn -1 0 0
vn 1 0 0
vn 1 0 0
vn 1 0 0
vn 1 0 0
vn -1 0 0
vn -1 0 0
vn -1 0 0
vn -1 0 0
vn 0 -1 0
vn 0 -1 0
vn 0 -1 0
vn 0 -1 0
vn 1 0 0
vn 1 0 0
vn 1 0 0
vn 1 0 0
vn -1 0 0
vn -1 0 0
vn -1 0 0
vn -1 0 0
vn 0 -1 0
vn 0 -1 0
vn 0 -1 0
vn 0 0 1
vn 0 0 1
vn 0 0 1
vn 0 0 1
vn 0 0 -1
vn 0 0 -1
vn 0 0 -1
vn 0 0 -1
vn 0 -1 0
vn 0 -1 0
vn 0 -1 0
vn 0 -1 0
vn 0 0 1
vn 0 0 1
vn 0 0 1
vn 0 0 1
vn 1 0 0
vn 1 0 0
vn 1 0 0
vn 1 0 0
vn 0 -1 0
vn 0 -1 0
vn 0 -1 0
vn 0 -1 0
vn -1 0 0
vn -1 0 0
vn -1 0 0
vn -1 0 0
vn 0 0 1
vn 0 0 1
vn 0 0 1
vn 0 0 1
vn 0 0 -1
vn 0 0 -1
vn 0 0 -1
vn 0 0 -1

vt 2 0
vt 0 0
vt 2 1
vt 0 1
vt 6 0
vt 0 0
vt 6 1
vt 0 1
vt 2 0
vt 0 0
vt 2 1
vt 0 1
vt 6 1
vt 6 0
vt 4 0
vt 4 1
vt 0 0
vt 0 1
vt 2 0
vt 2 1
vt 3 1
vt 3 0
vt 0 0
vt 0 1
vt 6 0
vt 4 2
vt 6 2
vt 0 0
vt 2 2
vt 0 2
vt 4 1
vt 4 0
vt 0 1
vt 0 0
vt 0 0
vt 0 1
vt 3 0
vt 3 1
vt 3 0
vt 1 0
vt 1 3
vt 3 4
vt 0 4
vt 0 0
vt 0 1
vt 2 0
vt 2 1
vt 2 0
vt 0 0
vt 1 1
vt 1 5
vt 0 5
vt 0 0
vt 0 1
vt 5 0
vt 5 1
vt 4 1
vt 4 0
vt 0 0
vt 0 1
vt 0 0
vt 0 1
vt 4 0
vt 4 1
vt 1 0
vt 0 0
vt 1 5
vt 0 4
vt 5 1
vt 5 0
vt 0 1
vt 0 0
vt 0 0
vt 0 1
vt 1 0
vt 1 1
vt 2 1
vt 1 0
vt 0 1
vt 2 1
vt 2 0
vt 0 1
vt 0 0
vt 0 0
vt 0 1
vt 3 0
vt 3 1
vt 2 1
vt 3 0
vt 0 1
vt 0 0
vt 2 1
vt 2 0
vt 0 1
vt 0 0
vt 3 1
vt 3 0
vt 0 1
vt 0 0
vt 2 0
vt 0 0
vt 2 3
vt 0 3
vt 0 0
vt 0 1
vt 3 0
vt 3 1
vt 1 0
vt 0 1
vt 1 1
vt 0 0
vt 1 0
vt 0 1
vt 1 1
vt 0 0

g Static_801_8
usemtl Static_801_8
usemap Static_801_8
f 1/1/1 3/3/3 2/2/2
f 2/2/2 3/3/3 4/4/4
f 5/5/5 7/7/7 6/6/6
f 6/6/6 7/7/7 8/8/8
f 9/9/9 11/11/11 10/10/10
f 10/10/10 11/11/11 12/12/12
f 13/13/13 15/15/15 14/14/14
f 16/16/16 15/15/15 13/13/13
f 17/17/17 19/19/19 18/18/18
f 18/18/18 19/19/19 20/20/20
f 21/21/21 23/23/23 22/22/22
f 24/24/24 23/23/23 21/21/21
f 25/25/25 27/27/27 26/26/26
f 25/25/25 29/29/29 28/28/28
f 26/26/26 29/29/29 25/25/25
f 28/28/28 29/29/29 30/30/30
f 31/31/31 33/33/33 32/32/32
f 32/32/32 33/33/33 34/34/34
f 35/35/35 37/37/37 36/36/36
f 36/36/36 37/37/37 38/38/38
f 39/39/39 41/41/41 40/40/40
f 42/42/42 41/41/41 39/39/39
f 43/43/43 41/41/41 42/42/42
f 44/44/44 46/46/46 45/45/45
f 45/45/45 46/46/46 47/47/47
f 48/48/48 50/50/50 49/49/49
f 50/50/50 51/51/51 49/49/49
f 49/49/49 51/51/51 52/52/52
f 53/53/53 55/55/55 54/54/54
f 54/54/54 55/55/55 56/56/56
f 57/57/57 59/59/59 58/58/58
f 60/60/60 59/59/59 57/57/57
f 61/61/61 63/63/63 62/62/62
f 62/62/62 63/63/63 64/64/64
f 65/65/65 67/67/67 66/66/66
f 66/66/66 67/67/67 68/68/68
f 69/69/69 71/71/71 70/70/70
f 70/70/70 71/71/71 72/72/72
f 73/73/73 75/75/75 74/74/74
f 74/74/74 75/75/75 76/76/76
f 77/77/77 79/79/79 78/78/78
f 80/80/80 82/82/82 81/81/81
f 81/81/81 82/82/82 83/83/83
f 84/84/84 86/86/86 85/85/85
f 85/85/85 86/86/86 87/87/87
f 88/88/88 90/90/90 89/89/89
f 89/89/89 90/90/90 91/91/91
f 92/92/92 94/94/94 93/93/93
f 93/93/93 94/94/94 95/95/95
f 96/96/96 98/98/98 97/97/97
f 97/97/97 98/98/98 99/99/99
f 100/100/100 102/102/102 101/101/101
f 101/101/101 102/102/102 103/103/103
f 104/104/104 106/106/106 105/105/105
f 105/105/105 106/106/106 107/107/107
f 108/108/108 110/110/110 109/109/109
f 108/108/108 109/109/109 111/111/111
f 112/112/112 114/114/114 113/113/113
f 112/112/112 113/113/113 115/115/115
