#Static_671_6.obj

v -2 4 6
v -5 3 6
v -5 4 6
v -2 3 6
v 0 4 6
v -2 3 6
v -2 4 6
v 0 -1 6
v -2 -1 6
v -7 4 6
v -5 4 6
v -5 3 6
v -7 -1 6
v -5 -1 6
v 0 4 -2
v -7 4 6
v -7 4 -2
v 0 4 6
v 0 4 6
v 0 4 -2
v 0 -1 6
v 0 -1 -2
v 0 -1 -2
v -2 -1 6
v 0 -1 6
v -7 -1 6
v -7 -1 -2
v -7 4 -2
v -7 4 6
v -7 -1 6
v -7 -1 -2

vn 0 0 1
vn 0 0 1
vn 0 0 1
vn 0 0 1
vn 0 0 1
vn 0 0 1
vn 0 0 1
vn 0 0 1
vn 0 0 1
vn 0 0 1
vn 0 0 1
vn 0 0 1
vn 0 0 1
vn 0 0 1
vn 0 1 0
vn 0 1 0
vn 0 1 0
vn 0 1 0
vn 1 0 0
vn 1 0 0
vn 1 0 0
vn 1 0 0
vn 0 -1 0
vn 0 -1 0
vn 0 -1 0
vn 0 -1 0
vn 0 -1 0
vn -1 0 0
vn -1 0 0
vn -1 0 0
vn -1 0 0

vt 3 1
vt 0 0
vt 0 1
vt 3 0
vt 2 5
vt 0 4
vt 0 5
vt 2 0
vt 0 0
vt 0 5
vt 2 5
vt 2 4
vt 0 0
vt 2 0
vt 0 0
vt 7 8
vt 7 0
vt 0 8
vt 0 5
vt 8 5
vt 0 0
vt 8 0
vt 7 0
vt 5 8
vt 7 8
vt 0 8
vt 0 0
vt 0 5
vt 8 5
vt 8 0
vt 0 0

g Static_671_6
usemtl Static_671_6
usemap Static_671_6
f 1/1/1 3/3/3 2/2/2
f 1/1/1 2/2/2 4/4/4
f 5/5/5 7/7/7 6/6/6
f 6/6/6 8/8/8 5/5/5
f 9/9/9 8/8/8 6/6/6
f 10/10/10 12/12/12 11/11/11
f 10/10/10 13/13/13 12/12/12
f 12/12/12 13/13/13 14/14/14
f 15/15/15 17/17/17 16/16/16
f 15/15/15 16/16/16 18/18/18
f 19/19/19 21/21/21 20/20/20
f 20/20/20 21/21/21 22/22/22
f 23/23/23 25/25/25 24/24/24
f 24/24/24 26/26/26 23/23/23
f 23/23/23 26/26/26 27/27/27
f 28/28/28 30/30/30 29/29/29
f 31/31/31 30/30/30 28/28/28
