#Static_788_19.obj

v -1 0 -6.999996
v 1 0 -6.999996
v -1 1 -6.999996
v 1 1 -6.999996
v 3 1 9
v 3 0 9
v 3 1 14
v 3 0 14
v -3 0 9
v -3 1 9
v -3 0 14
v -3 1 14
v -1 0 -6.999996
v -1 1 -6.999996
v -1 0 9
v -1 1 9
v -3 1 9
v -3 0 9
v -1 0 9
v -1 1 9
v 3 0 9
v 3 1 9
v 1 0 9
v 1 1 9
v 1 1 -6.999996
v 1 0 -6.999996
v 1 0 9
v 1 1 9
v 1 0 -6.999996
v -1 0 -6.999996
v 1 0 9
v -1 0 9
v -3 0 14
v -3 1 14
v 2 0 14
v 2 1 14
v 3 0 9
v -3 0 9
v 2 0 14
v -3 0 14
v 3 0 14

vn 0 0 -1
vn 0 0 -1
vn 0 0 -1
vn 0 0 -1
vn 1 0 0
vn 1 0 0
vn 1 0 0
vn 1 0 0
vn -1 0 0
vn -1 0 0
vn -1 0 0
vn -1 0 0
vn -1 0 0
vn -1 0 0
vn -1 0 0
vn -1 0 0
vn 0 0 -1
vn 0 0 -1
vn 0 0 -1
vn 0 0 -1
vn 0 0 -1
vn 0 0 -1
vn 0 0 -1
vn 0 0 -1
vn 1 0 0
vn 1 0 0
vn 1 0 0
vn 1 0 0
vn 0 -1 0
vn 0 -1 0
vn 0 -1 0
vn 0 -1 0
vn 0 0 1
vn 0 0 1
vn 0 0 1
vn 0 0 1
vn 0 -1 0
vn 0 -0.9999999 0
vn 0 -1 0
vn 0 -1 0
vn 0 -1 0

vt 2 0
vt 0 0
vt 2 1
vt 0 1
vt 5 1
vt 5 0
vt 0 1
vt 0 0
vt 0 0
vt 0 1
vt 5 0
vt 5 1
vt -4.768372E-07 0
vt -4.768372E-07 1
vt 11.31371 0
vt 11.31371 1
vt 12.72792 1
vt 12.72792 0
vt 11.31371 0
vt 11.31371 1
vt 0 0
vt 0 1
vt 1.414213 0
vt 1.414213 1
vt 12.72792 1
vt 12.72792 0
vt 1.414213 0
vt 1.414213 1
vt 2 0
vt 0 0
vt 2 16
vt 0 16
vt 0 0
vt 0 1
vt 5 0
vt 5 1
vt 6 0
vt 0 0
vt 5 5
vt 0 5
vt 6 5

g Static_788_19
usemtl Static_788_19
usemap Static_788_19
f 1/1/1 3/3/3 2/2/2
f 2/2/2 3/3/3 4/4/4
f 5/5/5 7/7/7 6/6/6
f 6/6/6 7/7/7 8/8/8
f 9/9/9 11/11/11 10/10/10
f 10/10/10 11/11/11 12/12/12
f 13/13/13 15/15/15 14/14/14
f 14/14/14 15/15/15 16/16/16
f 17/17/17 19/19/19 18/18/18
f 20/20/20 19/19/19 17/17/17
f 21/21/21 23/23/23 22/22/22
f 22/22/22 23/23/23 24/24/24
f 25/25/25 27/27/27 26/26/26
f 28/28/28 27/27/27 25/25/25
f 29/29/29 31/31/31 30/30/30
f 30/30/30 31/31/31 32/32/32
f 33/33/33 35/35/35 34/34/34
f 34/34/34 35/35/35 36/36/36
f 37/37/37 39/39/39 38/38/38
f 38/38/38 39/39/39 40/40/40
f 41/41/41 39/39/39 37/37/37
