#Static_801_9.obj

v 1 1 0
v 3 1 -2
v 3 1 0
v -3 1 -2
v -1 1 0
v -3 1 0
v -1 1 0
v 1 1 0
v -1 1 3
v 1 1 4
v -2 1 4
v -3 1 3
v -1 1 3
v -2 1 4
v -3 1 3
v -2 1 4
v -2 1 8
v -3 1 8
v 2 1 9
v 3 1 9
v 2 1 13
v 3 1 14
v 3 1 14
v 1 1 14
v 2 1 13
v 2 1 13
v 1 1 14
v -1 1 13
v -1 1 14
v -1 1 14
v 1 1 14
v -1 1 17
v 1 1 17

vn 0 1 0
vn 0 1 0
vn 0 1 0
vn 0 1 0
vn 0 1 0
vn 0 1 0
vn 0 1 0
vn 0 1 0
vn 0 1 0
vn 0 1 0
vn 0 1 0
vn 0 1 0
vn 0 1 0
vn 0 1 0
vn 0 1 0
vn 0 1 0
vn 0 1 0
vn 0 1 0
vn 0 1 0
vn 0 1 0
vn 0 1 0
vn 0 1 0
vn 0 1 0
vn 0 1 0
vn 0 1 0
vn 0 1 0
vn 0 1 0
vn 0 1 0
vn 0 1 0
vn 0 1 0
vn 0 1 0
vn 0 1 0
vn 0 1 0

vt 2 2
vt 0 0
vt 0 2
vt 6 0
vt 4 2
vt 6 2
vt 2 0
vt 0 0
vt 2 3
vt 0 4
vt 3 4
vt 2 0
vt 0 0
vt 1 1
vt 1 0
vt 0 1
vt 0 5
vt 1 5
vt 1 0
vt 0 0
vt 1 4
vt 0 5
vt 0 1
vt 2 1
vt 1 0
vt 0 0
vt 1 1
vt 3 0
vt 3 1
vt 2 0
vt 0 0
vt 2 3
vt 0 3

g Static_801_9
usemtl Static_801_9
usemap Static_801_9
f 1/1/1 3/3/3 2/2/2
f 4/4/4 5/5/5 2/2/2
f 2/2/2 5/5/5 1/1/1
f 6/6/6 5/5/5 4/4/4
f 7/7/7 9/9/9 8/8/8
f 8/8/8 9/9/9 10/10/10
f 10/10/10 9/9/9 11/11/11
f 12/12/12 14/14/14 13/13/13
f 15/15/15 17/17/17 16/16/16
f 18/18/18 17/17/17 15/15/15
f 19/19/19 21/21/21 20/20/20
f 20/20/20 21/21/21 22/22/22
f 23/23/23 25/25/25 24/24/24
f 26/26/26 28/28/28 27/27/27
f 27/27/27 28/28/28 29/29/29
f 30/30/30 32/32/32 31/31/31
f 31/31/31 32/32/32 33/33/33
