#Static_785_24.obj

v 0 1 0
v -1 1 0
v 0 1 -2
v -1 1 -2
v -3 1 -3
v 0 1 -2
v -1 1 -2
v 2 1 -3
v -3 1 -3
v -4 1 -2
v -4 1 -3
v -1 1 -2
v 3 1 -3
v 0 1 -2
v 2 1 -3
v 3 1 -2
v 3 1 -3
v 2 1 -3
v 3 1 -12
v 2 1 -11
v -3 1 -3
v -4 1 -3
v -3 1 -11
v -4 1 -12
v -3 1 -11
v -4 1 -12
v -1 1 -12
v 0 1 -12
v 3 1 -16
v -4 1 -16
v 3 1 -32
v -4 1 -32
v 0 1 -12
v -1 1 -12
v 0 1 -16
v -1 1 -16

vn 0 1 0
vn 0 1 0
vn 0 1 0
vn 0 1 0
vn 0 1 0
vn 0 1 0
vn 0 1 0
vn 0 1 0
vn 0 1 0
vn 0 1 0
vn 0 1 0
vn 0 1 0
vn 0 1 0
vn 0 1 0
vn 0 1 0
vn 0 1 0
vn 0 1 0
vn 0 1 0
vn 0 1 0
vn 0 1 0
vn 0 1 0
vn 0 1 0
vn 0 1 0
vn 0 1 0
vn 0 1 0
vn 0 1 0
vn 0 1 0
vn 0 1 0
vn 0 1 0
vn 0 1 0
vn 0 1 0
vn 0 1 0
vn 0 1 0
vn 0 1 0
vn 0 1 0
vn 0 1 0

vt 0 2
vt 1 2
vt 0 0
vt 1 0
vt 5 0
vt 2 1
vt 3 1
vt 0 0
vt 2 0
vt 3 1
vt 3 0
vt 0 1
vt 0 0
vt 3 1
vt 1 0
vt 0 1
vt 0 9
vt 1 9
vt 0 0
vt 1 1
vt 0 9
vt 1 9
vt 0 1
vt 1 0
vt 6 1
vt 7 0
vt 4 0
vt 3 0
vt 0 16
vt 7 16
vt 0 0
vt 7 0
vt 0 4
vt 1 4
vt 0 0
vt 1 0

g Static_785_24
usemtl Static_785_24
usemap Static_785_24
f 1/1/1 3/3/3 2/2/2
f 2/2/2 3/3/3 4/4/4
f 5/5/5 7/7/7 6/6/6
f 5/5/5 6/6/6 8/8/8
f 9/9/9 11/11/11 10/10/10
f 9/9/9 10/10/10 12/12/12
f 13/13/13 15/15/15 14/14/14
f 13/13/13 14/14/14 16/16/16
f 17/17/17 19/19/19 18/18/18
f 18/18/18 19/19/19 20/20/20
f 21/21/21 23/23/23 22/22/22
f 22/22/22 23/23/23 24/24/24
f 25/25/25 27/27/27 26/26/26
f 25/25/25 20/20/20 27/27/27
f 20/20/20 28/28/28 27/27/27
f 19/19/19 28/28/28 20/20/20
f 29/29/29 31/31/31 30/30/30
f 30/30/30 31/31/31 32/32/32
f 33/33/33 35/35/35 34/34/34
f 35/35/35 36/36/36 34/34/34
