#Static_790_4.obj

v 0 0 0
v -1 0 0
v 0 1 0
v -1 1 0
v -1 0 0
v -1 0 -1
v -1 1 0
v -1 1 -1
v -1 0 -1
v 0 0 -1
v -1 1 -1
v 0 1 -1
v 0 0 -1
v 0 0 0
v 0 1 -1
v 0 1 0
v 0 0 -1
v -1 0 -1
v 0 0 0
v -1 0 0
v 3 0 -3
v 2 0 -3
v 3 1 -3
v 2 1 -3
v 2 0 -3
v 2 0 -4
v 2 1 -3
v 2 1 -4
v 2 0 -4
v 3 0 -4
v 2 1 -4
v 3 1 -4
v 3 0 -4
v 3 0 -3
v 3 1 -4
v 3 1 -3
v 3 0 -4
v 2 0 -4
v 3 0 -3
v 2 0 -3
v 4 0 -4
v 3 0 -4
v 4 1 -4
v 3 1 -4
v 3 0 -4
v 3 0 -5
v 3 1 -4
v 3 1 -5
v 4 0 -5
v 4 0 -4
v 4 1 -5
v 4 1 -4
v 4 0 -5
v 3 0 -5
v 4 0 -4
v 3 0 -4
v 1 0 -1
v 0 0 -1
v 1 1 -1
v 0 1 -1
v 0 0 -1
v 0 0 -2
v 0 1 -1
v 0 1 -2
v 0 0 -2
v 1 0 -2
v 0 1 -2
v 1 1 -2
v 1 0 -2
v 1 0 -1
v 1 1 -2
v 1 1 -1
v 1 0 -2
v 0 0 -2
v 1 0 -1
v 0 0 -1
v -2 0 1
v -2 0 0
v -2 1 1
v -2 1 0
v -2 0 0
v -1 0 0
v -2 1 0
v -1 1 0
v -1 0 0
v -1 0 1
v -1 1 0
v -1 1 1
v -1 0 0
v -2 0 0
v -1 0 1
v -2 0 1
v 2 0 -2
v 1 0 -2
v 2 1 -2
v 1 1 -2
v 1 0 -2
v 1 0 -3
v 1 1 -2
v 1 1 -3
v 1 0 -3
v 2 0 -3
v 1 1 -3
v 2 1 -3
v 2 0 -3
v 2 0 -2
v 2 1 -3
v 2 1 -2
v 2 0 -3
v 1 0 -3
v 2 0 -2
v 1 0 -2

vn 0 0 1
vn 0 0 1
vn 0 0 1
vn 0 0 1
vn -1 0 0
vn -1 0 0
vn -1 0 0
vn -1 0 0
vn 0 0 -1
vn 0 0 -1
vn 0 0 -1
vn 0 0 -1
vn 1 0 0
vn 1 0 0
vn 1 0 0
vn 1 0 0
vn 0 -1 0
vn 0 -1 0
vn 0 -1 0
vn 0 -1 0
vn 0 0 1
vn 0 0 1
vn 0 0 1
vn 0 0 1
vn -1 0 0
vn -1 0 0
vn -1 0 0
vn -1 0 0
vn 0 0 -1
vn 0 0 -1
vn 0 0 -1
vn 0 0 -1
vn 1 0 0
vn 1 0 0
vn 1 0 0
vn 1 0 0
vn 0 -1 0
vn 0 -1 0
vn 0 -1 0
vn 0 -1 0
vn 0 0 1
vn 0 0 1
vn 0 0 1
vn 0 0 1
vn -1 0 0
vn -1 0 0
vn -1 0 0
vn -1 0 0
vn 1 0 0
vn 1 0 0
vn 1 0 0
vn 1 0 0
vn 0 -1 0
vn 0 -1 0
vn 0 -1 0
vn 0 -1 0
vn 0 0 1
vn 0 0 1
vn 0 0 1
vn 0 0 1
vn -1 0 0
vn -1 0 0
vn -1 0 0
vn -1 0 0
vn 0 0 -1
vn 0 0 -1
vn 0 0 -1
vn 0 0 -1
vn 1 0 0
vn 1 0 0
vn 1 0 0
vn 1 0 0
vn 0 -1 0
vn 0 -1 0
vn 0 -1 0
vn 0 -1 0
vn -1 0 0
vn -1 0 0
vn -1 0 0
vn -1 0 0
vn 0 0 -1
vn 0 0 -1
vn 0 0 -1
vn 0 0 -1
vn 1 0 0
vn 1 0 0
vn 1 0 0
vn 1 0 0
vn 0 -1 0
vn 0 -1 0
vn 0 -1 0
vn 0 -1 0
vn 0 0 1
vn 0 0 1
vn 0 0 1
vn 0 0 1
vn -1 0 0
vn -1 0 0
vn -1 0 0
vn -1 0 0
vn 0 0 -1
vn 0 0 -1
vn 0 0 -1
vn 0 0 -1
vn 1 0 0
vn 1 0 0
vn 1 0 0
vn 1 0 0
vn 0 -1 0
vn 0 -1 0
vn 0 -1 0
vn 0 -1 0

vt 1 0
vt 0 0
vt 1 1
vt 0 1
vt 1 0
vt 0 0
vt 1 1
vt 0 1
vt 1 0
vt 0 0
vt 1 1
vt 0 1
vt 1 0
vt 0 0
vt 1 1
vt 0 1
vt 1 0
vt 0 0
vt 1 1
vt 0 1
vt 1 0
vt 0 0
vt 1 1
vt 0 1
vt 1 0
vt 0 0
vt 1 1
vt 0 1
vt 1 0
vt 0 0
vt 1 1
vt 0 1
vt 1 0
vt 0 0
vt 1 1
vt 0 1
vt 1 0
vt 0 0
vt 1 1
vt 0 1
vt 1 0
vt 0 0
vt 1 1
vt 0 1
vt 1 0
vt 0 0
vt 1 1
vt 0 1
vt 1 0
vt 0 0
vt 1 1
vt 0 1
vt 1 0
vt 0 0
vt 1 1
vt 0 1
vt 1 0
vt 0 0
vt 1 1
vt 0 1
vt 1 0
vt 0 0
vt 1 1
vt 0 1
vt 1 0
vt 0 0
vt 1 1
vt 0 1
vt 1 0
vt 0 0
vt 1 1
vt 0 1
vt 1 0
vt 0 0
vt 1 1
vt 0 1
vt 1 0
vt 0 0
vt 1 1
vt 0 1
vt 1 0
vt 0 0
vt 1 1
vt 0 1
vt 1 0
vt 0 0
vt 1 1
vt 0 1
vt 1 0
vt 0 0
vt 1 1
vt 0 1
vt 1 0
vt 0 0
vt 1 1
vt 0 1
vt 1 0
vt 0 0
vt 1 1
vt 0 1
vt 1 0
vt 0 0
vt 1 1
vt 0 1
vt 1 0
vt 0 0
vt 1 1
vt 0 1
vt 1 0
vt 0 0
vt 1 1
vt 0 1

g Static_790_4
usemtl Static_790_4
usemap Static_790_4
f 1/1/1 3/3/3 2/2/2
f 2/2/2 3/3/3 4/4/4
f 5/5/5 7/7/7 6/6/6
f 6/6/6 7/7/7 8/8/8
f 9/9/9 11/11/11 10/10/10
f 10/10/10 11/11/11 12/12/12
f 13/13/13 15/15/15 14/14/14
f 14/14/14 15/15/15 16/16/16
f 17/17/17 19/19/19 18/18/18
f 18/18/18 19/19/19 20/20/20
f 21/21/21 23/23/23 22/22/22
f 22/22/22 23/23/23 24/24/24
f 25/25/25 27/27/27 26/26/26
f 26/26/26 27/27/27 28/28/28
f 29/29/29 31/31/31 30/30/30
f 30/30/30 31/31/31 32/32/32
f 33/33/33 35/35/35 34/34/34
f 34/34/34 35/35/35 36/36/36
f 37/37/37 39/39/39 38/38/38
f 38/38/38 39/39/39 40/40/40
f 41/41/41 43/43/43 42/42/42
f 42/42/42 43/43/43 44/44/44
f 45/45/45 47/47/47 46/46/46
f 46/46/46 47/47/47 48/48/48
f 49/49/49 51/51/51 50/50/50
f 50/50/50 51/51/51 52/52/52
f 53/53/53 55/55/55 54/54/54
f 54/54/54 55/55/55 56/56/56
f 57/57/57 59/59/59 58/58/58
f 58/58/58 59/59/59 60/60/60
f 61/61/61 63/63/63 62/62/62
f 62/62/62 63/63/63 64/64/64
f 65/65/65 67/67/67 66/66/66
f 66/66/66 67/67/67 68/68/68
f 69/69/69 71/71/71 70/70/70
f 70/70/70 71/71/71 72/72/72
f 73/73/73 75/75/75 74/74/74
f 74/74/74 75/75/75 76/76/76
f 77/77/77 79/79/79 78/78/78
f 78/78/78 79/79/79 80/80/80
f 81/81/81 83/83/83 82/82/82
f 82/82/82 83/83/83 84/84/84
f 85/85/85 87/87/87 86/86/86
f 86/86/86 87/87/87 88/88/88
f 89/89/89 91/91/91 90/90/90
f 90/90/90 91/91/91 92/92/92
f 93/93/93 95/95/95 94/94/94
f 94/94/94 95/95/95 96/96/96
f 97/97/97 99/99/99 98/98/98
f 98/98/98 99/99/99 100/100/100
f 101/101/101 103/103/103 102/102/102
f 102/102/102 103/103/103 104/104/104
f 105/105/105 107/107/107 106/106/106
f 106/106/106 107/107/107 108/108/108
f 109/109/109 111/111/111 110/110/110
f 110/110/110 111/111/111 112/112/112
