#Static_797_10.obj

v -1 5 3
v -1 5 -2
v -1 -4 -2
v -1 -4 3
v -1 5 -2
v 7 5 -2
v 7 -4 -2
v -1 -4 -2
v 7 -4 3
v -1 -4 3
v -1 -4 -2
v 7 -4 -2

vn 1 0 0
vn 1 0 0
vn 1 0 0
vn 1 0 0
vn 0 0 1
vn 0 0 1
vn 0 0 1
vn 0 0 1
vn 0 1 0
vn 0 1 0
vn 0 1 0
vn 0 1 0

vt 0 9
vt 5 9
vt 5 0
vt 0 0
vt 0 9
vt 8 9
vt 8 0
vt 0 0
vt 0 5
vt 8 5
vt 8 0
vt 0 0

g Static_797_10
usemtl Static_797_10
usemap Static_797_10
f 1/1/1 3/3/3 2/2/2
f 1/1/1 4/4/4 3/3/3
f 5/5/5 7/7/7 6/6/6
f 5/5/5 8/8/8 7/7/7
f 9/9/9 11/11/11 10/10/10
f 9/9/9 12/12/12 11/11/11
