#Static_792_2.obj

v -4 0 3
v -4 0 -1
v -4 1 3
v -4 1 -1
v -4 0 -1
v 2 0 -1
v -4 1 -1
v 2 1 -1
v -4 0 3
v -4 1 3
v 10 0 3
v -4 1 3
v 10 1 3
v 10 0 3
v 10 0 3
v 10 1 3
v -4 0 3
v -4 1 3
v 10 1 1
v 10 0 1
v 10 0 3
v 10 1 3
v -4 0 3
v -4 1 3
v 10 0 3
v -4 1 3
v 10 1 3
v 10 0 3
v 10 0 1
v 10 1 1
v 2 0 1
v 2 1 1
v 2 1 -1
v 2 0 -1
v 2 0 1
v 2 1 1
v 2 0 1
v -4 0 -1
v -4 0 3
v 2 0 -1
v 10 0 3
v 2 0 1
v -4 0 3
v 10 0 1

vn -1 0 0
vn -1 0 0
vn -1 0 0
vn -1 0 0
vn 0 0 -1
vn 0 0 -1
vn 0 0 -1
vn 0 0 -1
vn 0 0 1
vn 0 0 1
vn 0 0 1
vn 0 0 1
vn 0 0 1
vn 0 0 1
vn 0 0 -1
vn 0 0 -1
vn 0 0 -1
vn 0 0 -1
vn 1 0 0
vn 1 0 0
vn 1 0 0
vn 1 0 0
vn 0 0 1
vn 0 0 1
vn 0 0 1
vn 0 0 1
vn 0 0 1
vn 0 0 1
vn 0 0 -1
vn 0 0 -1
vn 0 0 -1
vn 0 0 -1
vn 1 0 0
vn 1 0 0
vn 1 0 0
vn 1 0 0
vn 0 -1 0
vn 0 -1 0
vn 0 -1 0
vn 0 -1 0
vn 0 -1 0
vn 0 -1 0
vn 0 -1 0
vn 0 -1 0

vt 4 0
vt 0 0
vt 4 1
vt 0 1
vt 6 0
vt 0 0
vt 6 1
vt 0 1
vt 0 0
vt 0 1
vt 14 0
vt 0 1
vt 14 1
vt 14 0
vt 0 0
vt 0 1
vt 14 0
vt 14 1
vt 2 1
vt 2 0
vt 0 0
vt 0 1
vt 0 0
vt 0 1
vt 14 0
vt 0 1
vt 14 1
vt 14 0
vt 0 0
vt 0 1
vt 5.656854 0
vt 5.656854 1
vt 7.071068 1
vt 7.071068 0
vt 5.656854 0
vt 5.656854 1
vt 6 2
vt 0 0
vt 0 4
vt 6 0
vt 14 2
vt 6 0
vt 0 2
vt 14 0

g Static_792_2
usemtl Static_792_2
usemap Static_792_2
f 1/1/1 3/3/3 2/2/2
f 2/2/2 3/3/3 4/4/4
f 5/5/5 7/7/7 6/6/6
f 6/6/6 7/7/7 8/8/8
f 9/9/9 11/11/11 10/10/10
f 12/12/12 14/14/14 13/13/13
f 15/15/15 17/17/17 16/16/16
f 16/16/16 17/17/17 18/18/18
f 19/19/19 21/21/21 20/20/20
f 22/22/22 21/21/21 19/19/19
f 23/23/23 25/25/25 24/24/24
f 26/26/26 28/28/28 27/27/27
f 29/29/29 31/31/31 30/30/30
f 30/30/30 31/31/31 32/32/32
f 33/33/33 35/35/35 34/34/34
f 36/36/36 35/35/35 33/33/33
f 37/37/37 39/39/39 38/38/38
f 37/37/37 38/38/38 40/40/40
f 41/41/41 43/43/43 42/42/42
f 41/41/41 42/42/42 44/44/44
