#Static_660_2.obj

v -1 0 11
v -2 0 -1
v -2 0 11
v 2 0 -1
v 4 0 11
v 4 0 -1
v 2 1 10
v 2 1 0
v 3 1 0
v 3 1 10
v -1 1 11
v 2 1 11
v 2 1 -1
v -1 1 0
v -1 1 10
v 4 0 11
v 2 0 11
v 4 1 11
v 2 1 11
v -2 0 -1
v -1 0 -1
v -1 1 -1
v -2 1 -1
v -2 0 11
v -2 1 11
v -1 1 11
v -1 0 11
v -2 1 0
v -2 1 10
v -1 1 -1
v -2 0 -1
v -2 1 -1
v -2 1 0
v -2 1 10
v -2 0 11
v -2 1 11
v 4 1 -1
v 2 1 -1
v 2 0 -1
v 4 0 -1
v 4 1 11
v 4 0 -1
v 4 0 11
v 4 1 -1

vn 0 -1 0
vn 0 -1 0
vn 0 -1 0
vn 0 -1 0
vn 0 -1 0
vn 0 -1 0
vn 0 1 0
vn 0 1 0
vn 0 1 0
vn 0 1 0
vn 0 1 0
vn 0 1 0
vn 0 1 0
vn 0 1 0
vn 0 1 0
vn 0 0 1
vn 0 0 1
vn 0 0 1
vn 0 0 1
vn 0 0 -1
vn 0 0 -1
vn 0 0 -1
vn 0 0 -1
vn 0 0 1
vn 0 0 1
vn 0 0 1
vn 0 0 1
vn 0 1 0
vn 0 1 0
vn 0 1 0
vn -1 0 0
vn -1 0 0
vn -1 0 0
vn -1 0 0
vn -1 0 0
vn -1 0 0
vn 0 0 -1
vn 0 0 -1
vn 0 0 -1
vn 0 0 -1
vn 1 0 0
vn 1 0 0
vn 1 0 0
vn 1 0 0

vt 1 12
vt 0 0
vt 0 12
vt 4 0
vt 6 12
vt 6 0
vt 1 11
vt 1 1
vt 0 1
vt 0 11
vt 4 12
vt 1 12
vt 1 0
vt 4 1
vt 4 11
vt 2 0
vt 0 0
vt 2 1
vt 0 1
vt 1 0
vt 0 0
vt 0 1
vt 1 1
vt 0 0
vt 0 1
vt 1 1
vt 1 0
vt 5 1
vt 5 11
vt 4 0
vt 0 0
vt 0 1
vt 1 1
vt 11 1
vt 12 0
vt 12 1
vt 0 1
vt 2 1
vt 2 0
vt 0 0
vt 0 1
vt 12 0
vt 0 0
vt 12 1

g Static_660_3
usemtl Static_660_3
usemap Static_660_3
f 1/1/1 3/3/3 2/2/2
f 4/4/4 5/5/5 2/2/2
f 2/2/2 5/5/5 1/1/1
f 6/6/6 5/5/5 4/4/4
f 7/7/7 9/9/9 8/8/8
f 10/10/10 9/9/9 7/7/7
f 11/11/11 12/12/12 7/7/7
f 13/13/13 14/14/14 8/8/8
f 8/8/8 15/15/15 7/7/7
f 14/14/14 15/15/15 8/8/8
f 7/7/7 15/15/15 11/11/11
f 16/16/16 18/18/18 17/17/17
f 17/17/17 18/18/18 19/19/19
f 20/20/20 22/22/22 21/21/21
f 23/23/23 22/22/22 20/20/20
f 24/24/24 26/26/26 25/25/25
f 27/27/27 26/26/26 24/24/24
f 28/28/28 29/29/29 14/14/14
f 14/14/14 29/29/29 15/15/15
f 30/30/30 14/14/14 13/13/13
f 31/31/31 33/33/33 32/32/32
f 31/31/31 34/34/34 33/33/33
f 35/35/35 34/34/34 31/31/31
f 36/36/36 34/34/34 35/35/35
f 37/37/37 39/39/39 38/38/38
f 40/40/40 39/39/39 37/37/37
f 41/41/41 43/43/43 42/42/42
f 41/41/41 42/42/42 44/44/44
