#Static_662_10.obj

v -20 9 1
v 0 0 1
v -20 0 1
v 0 9 1
v 0 9 72
v 0 0 1
v 0 9 1
v 0 0 72
v -18 9 72
v 0 0 72
v 0 9 72
v -18 0 72
v -18 9 87
v -18 0 72
v -18 9 72
v -18 0 87
v -38 9 87
v -18 0 87
v -18 9 87
v -38 0 87
v -38 9 55
v -38 0 87
v -38 9 87
v -38 0 55
v -20 9 55
v -38 0 55
v -38 9 55
v -20 0 55
v -20 9 1
v -20 0 55
v -20 9 55
v -20 0 1
v 0 -2 72
v 0 0 1
v 0 0 72
v 0 -2 1
v -20 -2 1
v 0 0 1
v 0 -2 1
v -20 0 1
v -20 -2 55
v -20 0 1
v -20 -2 1
v -20 0 55
v -38 -2 55
v -20 0 55
v -20 -2 55
v -38 0 55
v -38 -2 87
v -38 0 55
v -38 -2 55
v -38 0 87
v -18 -2 87
v -38 0 87
v -38 -2 87
v -18 0 87
v -18 -2 72
v -18 0 87
v -18 -2 87
v -18 0 72
v 0 -2 72
v -18 0 72
v -18 -2 72
v 0 0 72
v 0 -2 1
v -20 -2 55
v -20 -2 1
v 0 -2 72
v 0 -2 72
v -18 -2 72
v -20 -2 55
v -38 -2 87
v -20 -2 55
v -18 -2 72
v -38 -2 55
v -18 -2 87
v -38 -2 87
v -18 -2 72

vn 0 0 1
vn 0 0 1
vn 0 0 1
vn 0 0 1
vn -1 0 0
vn -1 0 0
vn -1 0 0
vn -1 0 0
vn 0 0 -1
vn 0 0 -1
vn 0 0 -1
vn 0 0 -1
vn -1 0 0
vn -1 0 0
vn -1 0 0
vn -1 0 0
vn 0 0 -1
vn 0 0 -1
vn 0 0 -1
vn 0 0 -1
vn 1 0 0
vn 1 0 0
vn 1 0 0
vn 1 0 0
vn 0 0 1
vn 0 0 1
vn 0 0 1
vn 0 0 1
vn 0.9999999 0 0
vn 0.9999999 0 0
vn 0.9999999 0 0
vn 0.9999999 0 0
vn -1 0 0
vn -1 0 0
vn -1 0 0
vn -1 0 0
vn 0 0 1
vn 0 0 1
vn 0 0 1
vn 0 0 1
vn 1 0 0
vn 1 0 0
vn 1 0 0
vn 1 0 0
vn 0 0 1
vn 0 0 1
vn 0 0 1
vn 0 0 1
vn 1 0 0
vn 1 0 0
vn 1 0 0
vn 1 0 0
vn 0 0 -1
vn 0 0 -1
vn 0 0 -1
vn 0 0 -1
vn -1 0 0
vn -1 0 0
vn -1 0 0
vn -1 0 0
vn 0 0 -1
vn 0 0 -1
vn 0 0 -1
vn 0 0 -1
vn 0 1 0
vn 0 1 0
vn 0 1 0
vn 0 0.9999999 0
vn 0 1 0
vn 0 1 0
vn 0 1 0
vn 0 1 0
vn 0 1 0
vn 0 1 0
vn 0 1 0
vn 0 1 0
vn 0 1 0
vn 0 1 0

vt 0 9
vt 20 0
vt 0 0
vt 20 9
vt 71 9
vt 0 0
vt 0 9
vt 71 0
vt 18 9
vt 0 0
vt 0 9
vt 18 0
vt 15 9
vt 0 0
vt 0 9
vt 15 0
vt 20 9
vt 0 0
vt 0 9
vt 20 0
vt 32 9
vt 0 0
vt 0 9
vt 32 0
vt 18 9
vt 0 0
vt 0 9
vt 18 0
vt 54 9
vt 0 0
vt 0 9
vt 54 0
vt 71 0
vt 0 2
vt 71 2
vt 0 0
vt 0 0
vt 20 2
vt 20 0
vt 0 2
vt 0 0
vt 54 2
vt 54 0
vt 0 2
vt 0 0
vt 18 2
vt 18 0
vt 0 2
vt 0 0
vt 32 2
vt 32 0
vt 0 2
vt 0 0
vt 20 2
vt 20 0
vt 0 2
vt 0 0
vt 15 2
vt 15 0
vt 0 2
vt 0 0
vt 18 2
vt 18 0
vt 0 2
vt 0 0
vt 20 54
vt 20 0
vt 0 71
vt 0 17
vt 18 17
vt 20 0
vt 20 32
vt 2 0
vt 0 17
vt 20 0
vt 0 15
vt 20 15
vt 0 0

g Static_662_10
usemtl Static_662_10
usemap Static_662_10
f 1/1/1 3/3/3 2/2/2
f 1/1/1 2/2/2 4/4/4
f 5/5/5 7/7/7 6/6/6
f 5/5/5 6/6/6 8/8/8
f 9/9/9 11/11/11 10/10/10
f 9/9/9 10/10/10 12/12/12
f 13/13/13 15/15/15 14/14/14
f 13/13/13 14/14/14 16/16/16
f 17/17/17 19/19/19 18/18/18
f 17/17/17 18/18/18 20/20/20
f 21/21/21 23/23/23 22/22/22
f 21/21/21 22/22/22 24/24/24
f 25/25/25 27/27/27 26/26/26
f 25/25/25 26/26/26 28/28/28
f 29/29/29 31/31/31 30/30/30
f 29/29/29 30/30/30 32/32/32
f 33/33/33 35/35/35 34/34/34
f 33/33/33 34/34/34 36/36/36
f 37/37/37 39/39/39 38/38/38
f 37/37/37 38/38/38 40/40/40
f 41/41/41 43/43/43 42/42/42
f 41/41/41 42/42/42 44/44/44
f 45/45/45 47/47/47 46/46/46
f 45/45/45 46/46/46 48/48/48
f 49/49/49 51/51/51 50/50/50
f 49/49/49 50/50/50 52/52/52
f 53/53/53 55/55/55 54/54/54
f 53/53/53 54/54/54 56/56/56
f 57/57/57 59/59/59 58/58/58
f 57/57/57 58/58/58 60/60/60
f 61/61/61 63/63/63 62/62/62
f 61/61/61 62/62/62 64/64/64
f 65/65/65 67/67/67 66/66/66
f 65/65/65 66/66/66 68/68/68
f 69/69/69 71/71/71 70/70/70
f 72/72/72 74/74/74 73/73/73
f 72/72/72 73/73/73 75/75/75
f 76/76/76 78/78/78 77/77/77
