#Static_787_21.obj

v -7 0 0
v -7 0 -7
v -7 1 0
v -7 1 -7
v -1 0 -7
v -1 0 0
v -1 1 -7
v -1 1 0
v -1 1 0
v -1 0 0
v -3 0 0
v -3 1 0
v -7 0 0
v -7 1 0
v -5 0 0
v -5 1 0
v -3 1 1
v -3 0 1
v -5 0 1
v -5 1 1
v -1 0 -7
v -3 0 0
v -1 0 0
v -7 0 -7
v -5 0 0
v -7 0 0
v -3 1 0
v -3 0 0
v -3 1 1
v -3 0 1
v -3 0 0
v -5 0 0
v -3 0 1
v -5 0 1
v -5 0 0
v -5 1 0
v -5 0 1
v -5 1 1

vn -1 0 0
vn -1 0 0
vn -1 0 0
vn -1 0 0
vn 1 0 0
vn 1 0 0
vn 1 0 0
vn 1 0 0
vn 0 0 1
vn 0 0 1
vn 0 0 1
vn 0 0 1
vn 0 0 1
vn 0 0 1
vn 0 0 1
vn 0 0 1
vn 0 0 1
vn 0 0 1
vn 0 0 1
vn 0 0 1
vn 0 -1 0
vn 0 -1 0
vn 0 -1 0
vn 0 -1 0
vn 0 -1 0
vn 0 -1 0
vn 1 0 0
vn 1 0 0
vn 1 0 0
vn 1 0 0
vn 0 -1 0
vn 0 -1 0
vn 0 -1 0
vn 0 -1 0
vn -1 0 0
vn -1 0 0
vn -1 0 0
vn -1 0 0

vt 7 0
vt 0 0
vt 7 1
vt 0 1
vt 7 0
vt 0 0
vt 7 1
vt 0 1
vt 6 1
vt 6 0
vt 4 0
vt 4 1
vt 0 0
vt 0 1
vt 2 0
vt 2 1
vt 2 1
vt 2 0
vt 0 0
vt 0 1
vt 6 0
vt 4 7
vt 6 7
vt 0 0
vt 2 7
vt 0 7
vt 1 1
vt 1 0
vt 0 1
vt 0 0
vt 2 0
vt 0 0
vt 2 1
vt 0 1
vt 0 0
vt 0 1
vt 1 0
vt 1 1

g Static_787_21
usemtl Static_787_21
usemap Static_787_21
f 1/1/1 3/3/3 2/2/2
f 2/2/2 3/3/3 4/4/4
f 5/5/5 7/7/7 6/6/6
f 6/6/6 7/7/7 8/8/8
f 9/9/9 11/11/11 10/10/10
f 12/12/12 11/11/11 9/9/9
f 13/13/13 15/15/15 14/14/14
f 14/14/14 15/15/15 16/16/16
f 17/17/17 19/19/19 18/18/18
f 20/20/20 19/19/19 17/17/17
f 21/21/21 23/23/23 22/22/22
f 21/21/21 25/25/25 24/24/24
f 22/22/22 25/25/25 21/21/21
f 24/24/24 25/25/25 26/26/26
f 27/27/27 29/29/29 28/28/28
f 28/28/28 29/29/29 30/30/30
f 31/31/31 33/33/33 32/32/32
f 32/32/32 33/33/33 34/34/34
f 35/35/35 37/37/37 36/36/36
f 36/36/36 37/37/37 38/38/38
