#Trap_745_10.obj

v 0 0 7.000001
v -1 0 7.000001
v 0 4 7.000001
v -1 4 7.000001
v -1 0 7.000001
v -1 0 -1
v -1 4 7.000001
v -1 4 -1
v 0 4 7.000001
v -1 4 7.000001
v 0 4 -1
v -1 4 -1
v 0 4 -1
v 0 0 7.000001
v 0 4 7.000001
v 0 0 -1
v -1 4 -1
v 0 0 -1
v 0 4 -1
v -1 0 -1
v -1 0 7.000001
v 0 0 -1
v -1 0 -1
v 0 0 7.000001

vn 0 0 1
vn 0 0 1
vn 0 0 1
vn 0 0 1
vn -1 0 0
vn -1 0 0
vn -1 0 0
vn -1 0 0
vn 0 1 0
vn 0 1 0
vn 0 1 0
vn 0 1 0
vn 1 0 0
vn 1 0 0
vn 1 0 0
vn 1 0 0
vn 0 0 -1
vn 0 0 -1
vn 0 0 -1
vn 0 0 -1
vn 0 -1 0
vn 0 -1 0
vn 0 -1 0
vn 0 -1 0

vt 1 0
vt 0 0
vt 1 4
vt 0 4
vt 8 0
vt 0 0
vt 8 4
vt 0 4
vt 0 8
vt 1 8
vt 0 0
vt 1 0
vt 8 4
vt 0 0
vt 0 4
vt 8 0
vt 1 4
vt 0 0
vt 0 4
vt 1 0
vt 0 8
vt 1 0
vt 0 0
vt 1 8

g Trap_745_10
usemtl Trap_745_10
usemap Trap_745_10
f 1/1/1 3/3/3 2/2/2
f 2/2/2 3/3/3 4/4/4
f 5/5/5 7/7/7 6/6/6
f 6/6/6 7/7/7 8/8/8
f 9/9/9 11/11/11 10/10/10
f 10/10/10 11/11/11 12/12/12
f 13/13/13 15/15/15 14/14/14
f 13/13/13 14/14/14 16/16/16
f 17/17/17 19/19/19 18/18/18
f 17/17/17 18/18/18 20/20/20
f 21/21/21 23/23/23 22/22/22
f 21/21/21 22/22/22 24/24/24
