#Trap_730_3.obj

v -1 0 -5.5
v 11 0 -5.5
v -1 1 -5.5
v 11 1 -5.5
v 11 1 2.5
v -1 1 2.5
v 11 1 -5.5
v -1 1 -5.5
v 11 0 -5.5
v -1 0 -5.5
v 11 0 2.5
v -1 0 2.5

vn 0 0 -1
vn 0 0 -1
vn 0 0 -1
vn 0 0 -1
vn 0 1 0
vn 0 1 0
vn 0 1 0
vn 0 1 0
vn 0 -1 0
vn 0 -1 0
vn 0 -1 0
vn 0 -1 0

vt 12 0
vt 0 0
vt 12 1
vt 0 1
vt 0 8
vt 12 8
vt 0 0
vt 12 0
vt 12 0
vt 0 0
vt 12 8
vt 0 8

g Trap_730_3
usemtl Trap_730_3
usemap Trap_730_3
f 1/1/1 3/3/3 2/2/2
f 2/2/2 3/3/3 4/4/4
f 5/5/5 7/7/7 6/6/6
f 6/6/6 7/7/7 8/8/8
f 9/9/9 11/11/11 10/10/10
f 10/10/10 11/11/11 12/12/12
