#Wall-detach_694_24.obj

v 29 6 -17
v 31 6 -17
v 31 3 -17
v 31 -6 -17
v 29 -6 -17
v 22 -6 -17
v 29 6 -17
v 29 -6 -17
v 20 1 -17
v 7 -6 -17
v 11 1 -17
v 11 -6 -17
v 7 3 -17
v 20 1 -17
v 22 -6 -17
v 11 -6 -17
v 11 1 -17

vn 0 0 1
vn 0 0 1
vn 0 0 1
vn 0 0 1
vn 0 0 1
vn 0 0 1
vn 0 0 1
vn 0 0 1
vn 0 0 1
vn 0 0 1
vn 0 0 1
vn 0 0 1
vn 0 0 1
vn 0 0 1
vn 0 0 1
vn 0 0 1
vn 0 0 1

vt 0 12
vt 2 12
vt 2 9
vt 2 0
vt 0 0
vt 2 0
vt 9 12
vt 9 0
vt 0 7
vt 0 0
vt 4 7
vt 4 0
vt 0 9
vt 9 7
vt 11 0
vt 0 0
vt 0 7

g Wall-detach_694_24
usemtl Wall-detach_694_24
usemap Wall-detach_694_24
f 1/1/1 3/3/3 2/2/2
f 4/4/4 3/3/3 5/5/5
f 5/5/5 3/3/3 1/1/1
f 6/6/6 8/8/8 7/7/7
f 6/6/6 7/7/7 9/9/9
f 10/10/10 12/12/12 11/11/11
f 10/10/10 11/11/11 13/13/13
f 14/14/14 16/16/16 15/15/15
f 17/17/17 16/16/16 14/14/14
