#Wall_575_15.obj

v 3 4 -9
v -3 4 -9
v 3 4 -15
v -3 4 -15
v 3 -1 -9
v -3 -1 -9
v 3 1 -9
v -3 1 -9
v -3 -1 -9
v -3 -1 -15
v -3 1 -15
v -3 1 -9
v 3 -1 -15
v 3 -1 -9
v 3 1 -9
v 3 1 -15
v -3 -1 -15
v 3 -1 -15
v -3 1 -15
v 3 1 -15
v -3 4 -9
v 3 4 -9
v 3 3 -9
v -3 3 -9
v -3 4 -15
v -3 4 -9
v -3 3 -15
v -3 3 -9
v 3 4 -9
v 3 4 -15
v 3 3 -15
v 3 3 -9
v 3 4 -15
v -3 4 -15
v -3 3 -15
v 3 3 -15

vn 0 1 0
vn 0 1 0
vn 0 1 0
vn 0 1 0
vn 0 0 1
vn 0 0 1
vn 0 0 1
vn 0 0 1
vn -1 0 0
vn -1 0 0
vn -1 0 0
vn -1 0 0
vn 1 0 0
vn 1 0 0
vn 1 0 0
vn 1 0 0
vn 0 0 -1
vn 0 0 -1
vn 0 0 -1
vn 0 0 -1
vn 0 0 1
vn 0 0 1
vn 0 0 1
vn 0 0 1
vn -1 0 0
vn -1 0 0
vn -1 0 0
vn -1 0 0
vn 1 0 0
vn 1 0 0
vn 1 0 0
vn 1 0 0
vn 0 0 -1
vn 0 0 -1
vn 0 0 -1
vn 0 0 -1

vt -13 14
vt -7 14
vt -13 8
vt -7 8
vt 13 -3.5
vt 7 -3.5
vt 13 -1.5
vt 7 -1.5
vt 14 -3.5
vt 8 -3.5
vt 8 -1.5
vt 14 -1.5
vt -8 -3.5
vt -14 -3.5
vt -14 -1.5
vt -8 -1.5
vt -7 -3.5
vt -13 -3.5
vt -7 -1.5
vt -13 -1.5
vt 7 4
vt 13 4
vt 13 3
vt 7 3
vt 8 4
vt 14 4
vt 8 3
vt 14 3
vt -14 4
vt -8 4
vt -8 3
vt -14 3
vt -13 4
vt -7 4
vt -7 3
vt -13 3

g Wall_575_15
usemtl Wall_575_15
usemap Wall_575_15
f 1/1/1 3/3/3 2/2/2
f 2/2/2 3/3/3 4/4/4
f 5/5/5 7/7/7 6/6/6
f 6/6/6 7/7/7 8/8/8
f 9/9/9 11/11/11 10/10/10
f 12/12/12 11/11/11 9/9/9
f 13/13/13 15/15/15 14/14/14
f 13/13/13 16/16/16 15/15/15
f 17/17/17 19/19/19 18/18/18
f 18/18/18 19/19/19 20/20/20
f 21/21/21 23/23/23 22/22/22
f 24/24/24 23/23/23 21/21/21
f 25/25/25 27/27/27 26/26/26
f 26/26/26 27/27/27 28/28/28
f 29/29/29 31/31/31 30/30/30
f 32/32/32 31/31/31 29/29/29
f 33/33/33 35/35/35 34/34/34
f 36/36/36 35/35/35 33/33/33
