#Wall-detach_781_48.obj

v 6 -3 20
v 6 4 16
v 6 -3 16
v 6 4 20
v 11 2 16
v 11 4 19
v 11 2 19
v 11 4 16
v 11 4 20
v 11 2 19
v 11 4 19
v 11 -3 20
v 11 -3 19
v 6 4 20
v 6 -3 20
v 11 -3 20
v 11 4 20
v 11 4 -5
v 11 4 16
v 11 -3 16
v 11 -3 -5
v 11 2 16
v 18 2 19
v 18 2 16
v 11 2 19
v 11 2 19
v 18 -3 19
v 18 2 19
v 11 -3 19
v 18 -3 16
v 11 2 16
v 18 2 16
v 11 -3 16

vn 1 0 0
vn 1 0 0
vn 1 0 0
vn 1 0 0
vn -1 0 0
vn -1 0 0
vn -1 0 0
vn -1 0 0
vn -1 0 0
vn -1 0 0
vn -1 0 0
vn -1 0 0
vn -1 0 0
vn 0 0 -1
vn 0 0 -1
vn 0 0 -1
vn 0 0 -1
vn -1 0 0
vn -1 0 0
vn -1 0 0
vn -1 0 0
vn 0 -1 0
vn 0 -1 0
vn 0 -1 0
vn 0 -1 0
vn 0 0 -1
vn 0 0 -1
vn 0 0 -1
vn 0 0 -1
vn 0 0 1
vn 0 0 1
vn 0 0 1
vn 0 0 1

vt 0 0
vt 4 7
vt 4 0
vt 0 7
vt 0 0
vt 3 2
vt 3 0
vt 0 2
vt 1 7
vt 0 5
vt 0 7
vt 1 0
vt 0 0
vt 5 7
vt 5 0
vt 0 0
vt 0 7
vt 0 7
vt 21 7
vt 21 0
vt 0 0
vt 0 0
vt 7 3
vt 7 0
vt 0 3
vt 7 5
vt 0 0
vt 0 5
vt 7 0
vt 7 0
vt 0 5
vt 7 5
vt 0 0

g Wall-detach_781_48
usemtl Wall-detach_781_48
usemap Wall-detach_781_48
f 1/1/1 3/3/3 2/2/2
f 1/1/1 2/2/2 4/4/4
f 5/5/5 7/7/7 6/6/6
f 5/5/5 6/6/6 8/8/8
f 9/9/9 11/11/11 10/10/10
f 10/10/10 12/12/12 9/9/9
f 13/13/13 12/12/12 10/10/10
f 14/14/14 16/16/16 15/15/15
f 17/17/17 16/16/16 14/14/14
f 18/18/18 20/20/20 19/19/19
f 21/21/21 20/20/20 18/18/18
f 22/22/22 24/24/24 23/23/23
f 22/22/22 23/23/23 25/25/25
f 26/26/26 28/28/28 27/27/27
f 26/26/26 27/27/27 29/29/29
f 30/30/30 32/32/32 31/31/31
f 30/30/30 31/31/31 33/33/33
