#Wall-detach_952_45.obj

v -51 0 -40
v -51 0 -33
v -51 8 -40
v -51 8 -33
v -51 8 -33
v -37 0 -33
v -37 8 -33
v -51 0 -33
v -46 8 -38
v -46 0 -59
v -46 8 -59
v -46 0 -38
v -32 8 -38
v -46 0 -38
v -46 8 -38
v -32 0 -38

vn 1 0 0
vn 1 0 0
vn 1 0 0
vn 1 0 0
vn 0 0 -1
vn 0 0 -1
vn 0 0 -1
vn 0 0 -1
vn -1 0 0
vn -1 0 0
vn -1 0 0
vn -1 0 0
vn 0 0 1
vn 0 0 1
vn 0 0 1
vn 0 0 1

vt 7 0
vt 0 0
vt 7 8
vt 0 8
vt 14.00138 7.997583
vt -0.001380444 0.002417088
vt 0.001381397 8.002417
vt 13.99862 -0.002416611
vt 20.99862 8.003623
vt 0.00138092 -0.003623009
vt -0.001379967 7.996377
vt 21.00138 0.003623247
vt 14.00138 7.997583
vt -0.001380444 0.002417088
vt 0.001381397 8.002417
vt 13.99862 -0.002416611

g Wall-detach_952_45
usemtl Wall-detach_952_45
usemap Wall-detach_952_45
f 1/1/1 3/3/3 2/2/2
f 2/2/2 3/3/3 4/4/4
f 5/5/5 7/7/7 6/6/6
f 5/5/5 6/6/6 8/8/8
f 9/9/9 11/11/11 10/10/10
f 9/9/9 10/10/10 12/12/12
f 13/13/13 15/15/15 14/14/14
f 13/13/13 14/14/14 16/16/16
