#Wall-detach_838_39.obj

v -14 4 -11
v -17 2 -11
v -14 2 -11
v -17 4 -11
v -14 4 -11
v -14 2 -11
v -11 4 -11
v -11 -2 -11
v -14 -2 -11
v -18 4 -20
v -18 2 -17
v -18 4 -17
v -18 2 -20
v -18 4 -11
v -18 4 -17
v -18 2 -17
v -18 -2 -17
v -18 -2 -11
v -18 4 -11
v -17 2 -11
v -17 4 -11
v -18 -2 -11
v -17 -2 -11
v -18 4 -23
v -18 2 -20
v -18 4 -20
v -18 -2 -23
v -18 -2 -20
v -11 -2 -21
v 6 3 -21
v 6 -2 -21
v -11 3 -21
v -11 3 -18
v 6 -2 -18
v 6 3 -18
v -11 -2 -18
v -11 4 -21
v -11 3 -18
v -11 3 -21
v -11 4 -18
v -11 4 -23
v -18 -2 -23
v -18 4 -23
v -11 -2 -23
v -11 4 -21
v -11 -2 -23
v -11 4 -23
v -11 -2 -21
v -11 4 -11
v -11 3 -18
v -11 4 -18
v -11 -2 -18
v -11 -2 -11

vn 0 0 -1
vn 0 0 -1
vn 0 0 -1
vn 0 0 -1
vn 0 0 -1
vn 0 0 -1
vn 0 0 -1
vn 0 0 -1
vn 0 0 -1
vn 1 0 0
vn 1 0 0
vn 1 0 0
vn 1 0 0
vn 1 0 0
vn 1 0 0
vn 1 0 0
vn 1 0 0
vn 1 0 0
vn 0 0 -1
vn 0 0 -1
vn 0 0 -1
vn 0 0 -1
vn 0 0 -1
vn 1 0 0
vn 1 0 0
vn 1 0 0
vn 1 0 0
vn 1 0 0
vn 0 0 1
vn 0 0 1
vn 0 0 1
vn 0 0 1
vn 0 0 -1
vn 0 0 -1
vn 0 0 -1
vn 0 0 -1
vn -1 0 0
vn -1 0 0
vn -1 0 0
vn -1 0 0
vn 0 0 1
vn 0 0 1
vn 0 0 1
vn 0 0 1
vn -1 0 0
vn -1 0 0
vn -1 0 0
vn -1 0 0
vn -1 0 0
vn -1 0 0
vn -1 0 0
vn -1 0 0
vn -1 0 0

vt 0 2
vt 3 0
vt 0 0
vt 3 2
vt 3 6
vt 3 4
vt 0 6
vt 0 0
vt 3 0
vt 3 2
vt 0 0
vt 0 2
vt 3 0
vt 0 6
vt 6 6
vt 6 4
vt 6 0
vt 0 0
vt 1 6
vt 0 4
vt 0 6
vt 1 0
vt 0 0
vt 3 6
vt 0 4
vt 0 6
vt 3 0
vt 0 0
vt 0 0
vt 17 5
vt 17 0
vt 0 5
vt 17 5
vt 0 0
vt 0 5
vt 17 0
vt 0 1
vt 3 0
vt 0 0
vt 3 1
vt 7 6
vt 0 0
vt 0 6
vt 7 0
vt 2 6
vt 0 0
vt 0 6
vt 2 0
vt 7 6
vt 0 5
vt 0 6
vt 0 0
vt 7 0

g Wall-detach_838_39
usemtl Wall-detach_838_39
usemap Wall-detach_838_39
f 1/1/1 3/3/3 2/2/2
f 1/1/1 2/2/2 4/4/4
f 5/5/5 7/7/7 6/6/6
f 7/7/7 8/8/8 6/6/6
f 6/6/6 8/8/8 9/9/9
f 10/10/10 12/12/12 11/11/11
f 10/10/10 11/11/11 13/13/13
f 14/14/14 16/16/16 15/15/15
f 14/14/14 17/17/17 16/16/16
f 14/14/14 18/18/18 17/17/17
f 19/19/19 21/21/21 20/20/20
f 20/20/20 22/22/22 19/19/19
f 23/23/23 22/22/22 20/20/20
f 24/24/24 26/26/26 25/25/25
f 25/25/25 27/27/27 24/24/24
f 28/28/28 27/27/27 25/25/25
f 29/29/29 31/31/31 30/30/30
f 29/29/29 30/30/30 32/32/32
f 33/33/33 35/35/35 34/34/34
f 33/33/33 34/34/34 36/36/36
f 37/37/37 39/39/39 38/38/38
f 37/37/37 38/38/38 40/40/40
f 41/41/41 43/43/43 42/42/42
f 41/41/41 42/42/42 44/44/44
f 45/45/45 47/47/47 46/46/46
f 45/45/45 46/46/46 48/48/48
f 49/49/49 51/51/51 50/50/50
f 50/50/50 52/52/52 49/49/49
f 52/52/52 53/53/53 49/49/49
