#Wall-detach_676_45.obj

v 0 -6 -17
v 7 3 -17
v 7 -6 -17
v 0 3 -17
v 21 -3 -18
v 11 -1 -18
v 21 5 -18
v 11 5 -18
v 7 3 -18
v 11 5 -18
v 11 -1 -18

vn 0 0 1
vn 0 0 1
vn 0 0 1
vn 0 0 1
vn 0 0 1
vn 0 0 1
vn 0 0 1
vn 0 0 1
vn 0 0 1
vn 0 0 1
vn 0 0 1

vt 0 0
vt 7 9
vt 7 0
vt 0 9
vt 10 0
vt 0 2
vt 10 8
vt 0 8
vt 0 4
vt 4 6
vt 4 0

g Wall-detach_676_45
usemtl Wall-detach_676_45
usemap Wall-detach_676_45
f 1/1/1 3/3/3 2/2/2
f 1/1/1 2/2/2 4/4/4
f 5/5/5 7/7/7 6/6/6
f 6/6/6 7/7/7 8/8/8
f 9/9/9 11/11/11 10/10/10
