#Wall-detach_1228_85.obj

v -3 -2 36
v -3 1 35
v -3 -2 35
v -3 1 36
v 1 -2 35
v 1 1 36
v 1 -2 36
v 1 1 35
v 1 1 36
v -3 1 35
v -3 1 36
v 1 1 35
v 20 1 28
v 21 -2 28
v 21 1 28
v 20 -2 28
v 20 -2 24
v 21 1 24
v 21 -2 24
v 20 1 24
v 20 1 28
v 21 1 24
v 20 1 24
v 21 1 28

vn 1 0 0
vn 1 0 0
vn 1 0 0
vn 1 0 0
vn -1 0 0
vn -1 0 0
vn -1 0 0
vn -1 0 0
vn 0 -1 0
vn 0 -1 0
vn 0 -1 0
vn 0 -1 0
vn 0 0 -1
vn 0 0 -1
vn 0 0 -1
vn 0 0 -1
vn 0 0 1
vn 0 0 1
vn 0 0 1
vn 0 0 1
vn 0 -1 0
vn 0 -1 0
vn 0 -1 0
vn 0 -1 0

vt 0 0
vt 1 3
vt 1 0
vt 0 3
vt 0 0
vt 1 3
vt 1 0
vt 0 3
vt 4 1
vt 0 0
vt 0 1
vt 4 0
vt 1 3
vt 0 0
vt 0 3
vt 1 0
vt 0 0
vt 1 3
vt 1 0
vt 0 3
vt 0 4
vt 1 0
vt 0 0
vt 1 4

g Wall-detach_1228_85
usemtl Wall-detach_1228_85
usemap Wall-detach_1228_85
f 1/1/1 3/3/3 2/2/2
f 1/1/1 2/2/2 4/4/4
f 5/5/5 7/7/7 6/6/6
f 5/5/5 6/6/6 8/8/8
f 9/9/9 11/11/11 10/10/10
f 9/9/9 10/10/10 12/12/12
f 13/13/13 15/15/15 14/14/14
f 13/13/13 14/14/14 16/16/16
f 17/17/17 19/19/19 18/18/18
f 17/17/17 18/18/18 20/20/20
f 21/21/21 23/23/23 22/22/22
f 21/21/21 22/22/22 24/24/24
