#Wall_700_11.obj

v 0 2 7
v -1 0 7
v -1 2 7
v 0 0 7
v 0 2 5
v 0 0 7
v 0 2 7
v 0 0 5
v 4 2 5
v 0 0 5
v 0 2 5
v 4 0 5
v 4 2 8
v 4 0 5
v 4 2 5
v 4 0 8
v 5 2 8
v 4 0 8
v 4 2 8
v 5 0 8
v 5 2 -3
v 5 0 8
v 5 2 8
v 5 0 -3
v 4 2 -3
v 5 0 -3
v 5 2 -3
v 4 0 -3
v 4 2 0
v 4 0 -3
v 4 2 -3
v 4 0 0
v 0 2 0
v 4 0 0
v 4 2 0
v 0 0 0
v 0 2 -2
v 0 0 0
v 0 2 0
v 0 0 -2
v -1 2 -2
v 0 0 -2
v 0 2 -2
v -1 0 -2
v 2.20934E-06 4 7
v -0.9999978 3 7
v -0.9999978 4 7
v 2.20934E-06 3 7
v 1.557657E-06 4 5
v 2.20934E-06 3 7
v 2.20934E-06 4 7
v 1.557657E-06 3 5
v 4.000001 4 4.999998
v 1.557657E-06 3 5
v 1.557657E-06 4 5
v 4.000001 3 4.999998
v 4.000002 4 7.999998
v 4.000001 3 4.999998
v 4.000001 4 4.999998
v 4.000002 3 7.999998
v 5.000002 4 7.999998
v 4.000002 3 7.999998
v 4.000002 4 7.999998
v 5.000002 3 7.999998
v 4.999999 4 -3.000002
v 5.000002 3 7.999998
v 5.000002 4 7.999998
v 4.999999 3 -3.000002
v 3.999999 4 -3.000001
v 4.999999 3 -3.000002
v 4.999999 4 -3.000002
v 3.999999 3 -3.000001
v 4 4 -1.430511E-06
v 3.999999 3 -3.000001
v 3.999999 4 -3.000001
v 4 3 -1.430511E-06
v -7.154938E-08 4 -2.384186E-07
v 4 3 -1.430511E-06
v 4 4 -1.430511E-06
v -7.154938E-08 3 -2.384186E-07
v -7.232321E-07 4 -2
v -7.154938E-08 3 -2.384186E-07
v -7.154938E-08 4 -2.384186E-07
v -7.232321E-07 3 -2
v -1.000001 4 -2
v -7.232321E-07 3 -2
v -7.232321E-07 4 -2
v -1.000001 3 -2

vn 0 0 1
vn 0 0 1
vn 0 0 1
vn 0 0 1
vn 1 0 0
vn 1 0 0
vn 1 0 0
vn 1 0 0
vn 0 0 1
vn 0 0 1
vn 0 0 1
vn 0 0 1
vn -1 0 0
vn -1 0 0
vn -1 0 0
vn -1 0 0
vn 0 0 1
vn 0 0 1
vn 0 0 1
vn 0 0 1
vn 1 0 0
vn 1 0 0
vn 1 0 0
vn 1 0 0
vn 0 0 -1
vn 0 0 -1
vn 0 0 -1
vn 0 0 -1
vn -1 0 0
vn -1 0 0
vn -1 0 0
vn -1 0 0
vn 0 0 -1
vn 0 0 -1
vn 0 0 -1
vn 0 0 -1
vn 1 0 0
vn 1 0 0
vn 1 0 0
vn 1 0 0
vn 0 0 -1
vn 0 0 -1
vn 0 0 -1
vn 0 0 -1
vn 0 0 1
vn 0 0 1
vn 0 0 1
vn 0 0 1
vn 1 0 -3.258414E-07
vn 1 0 -3.258414E-07
vn 1 0 -3.258414E-07
vn 1 0 -3.258414E-07
vn 3.576279E-07 0 1
vn 3.576279E-07 0 1
vn 3.576279E-07 0 1
vn 3.576279E-07 0 1
vn -1 0 3.178914E-07
vn -1 0 3.178914E-07
vn -1 0 3.178914E-07
vn -1 0 3.178914E-07
vn 4.768372E-07 0 1
vn 4.768372E-07 0 1
vn 4.768372E-07 0 1
vn 4.768372E-07 0 1
vn 1 0 -3.034418E-07
vn 1 0 -3.034418E-07
vn 1 0 -3.034418E-07
vn 1 0 -3.034418E-07
vn -2.384186E-07 0 -1
vn -2.384186E-07 0 -1
vn -2.384186E-07 0 -1
vn -2.384186E-07 0 -1
vn -1 0 3.178914E-07
vn -1 0 3.178914E-07
vn -1 0 3.178914E-07
vn -1 0 3.178914E-07
vn -3.258414E-07 0 -1
vn -3.258414E-07 0 -1
vn -3.258414E-07 0 -1
vn -3.258414E-07 0 -1
vn 1 0 -3.258414E-07
vn 1 0 -3.258414E-07
vn 1 0 -3.258414E-07
vn 1 0 -3.258414E-07
vn -4.768372E-07 0 -1
vn -4.768372E-07 0 -1
vn -4.768372E-07 0 -1
vn -4.768372E-07 0 -1

vt 1 2
vt 0 0
vt 0 2
vt 1 0
vt 2 2
vt 0 0
vt 0 2
vt 2 0
vt 4 2
vt 0 0
vt 0 2
vt 4 0
vt 3 2
vt 0 0
vt 0 2
vt 3 0
vt 1 2
vt 0 0
vt 0 2
vt 1 0
vt 11 2
vt 0 0
vt 0 2
vt 11 0
vt 1 2
vt 0 0
vt 0 2
vt 1 0
vt 3 2
vt 0 0
vt 0 2
vt 3 0
vt 4 2
vt 0 0
vt 0 2
vt 4 0
vt 2 2
vt 0 0
vt 0 2
vt 2 0
vt 1 2
vt 0 0
vt 0 2
vt 1 0
vt 1 1
vt 0 0
vt 0 1
vt 1 0
vt 2 1
vt 0 0
vt 0 1
vt 2 0
vt 4 1
vt 0 0
vt 0 1
vt 4 0
vt 3 1
vt 0 0
vt 0 1
vt 3 0
vt 1 1
vt 0 0
vt 0 1
vt 1 0
vt 11 1
vt 0 0
vt 0 1
vt 11 0
vt 1 1
vt 0 0
vt 0 1
vt 1 0
vt 3 1
vt 0 0
vt 0 1
vt 3 0
vt 4 1
vt 0 0
vt 0 1
vt 4 0
vt 2 1
vt -5.960464E-08 0
vt -5.960464E-08 1
vt 2 0
vt 1 1
vt 0 0
vt 0 1
vt 1 0

g Wall_700_11
usemtl Wall_700_11
usemap Wall_700_11
f 1/1/1 3/3/3 2/2/2
f 1/1/1 2/2/2 4/4/4
f 5/5/5 7/7/7 6/6/6
f 5/5/5 6/6/6 8/8/8
f 9/9/9 11/11/11 10/10/10
f 9/9/9 10/10/10 12/12/12
f 13/13/13 15/15/15 14/14/14
f 13/13/13 14/14/14 16/16/16
f 17/17/17 19/19/19 18/18/18
f 17/17/17 18/18/18 20/20/20
f 21/21/21 23/23/23 22/22/22
f 21/21/21 22/22/22 24/24/24
f 25/25/25 27/27/27 26/26/26
f 25/25/25 26/26/26 28/28/28
f 29/29/29 31/31/31 30/30/30
f 29/29/29 30/30/30 32/32/32
f 33/33/33 35/35/35 34/34/34
f 33/33/33 34/34/34 36/36/36
f 37/37/37 39/39/39 38/38/38
f 37/37/37 38/38/38 40/40/40
f 41/41/41 43/43/43 42/42/42
f 41/41/41 42/42/42 44/44/44
f 45/45/45 47/47/47 46/46/46
f 45/45/45 46/46/46 48/48/48
f 49/49/49 51/51/51 50/50/50
f 49/49/49 50/50/50 52/52/52
f 53/53/53 55/55/55 54/54/54
f 53/53/53 54/54/54 56/56/56
f 57/57/57 59/59/59 58/58/58
f 57/57/57 58/58/58 60/60/60
f 61/61/61 63/63/63 62/62/62
f 61/61/61 62/62/62 64/64/64
f 65/65/65 67/67/67 66/66/66
f 65/65/65 66/66/66 68/68/68
f 69/69/69 71/71/71 70/70/70
f 69/69/69 70/70/70 72/72/72
f 73/73/73 75/75/75 74/74/74
f 73/73/73 74/74/74 76/76/76
f 77/77/77 79/79/79 78/78/78
f 77/77/77 78/78/78 80/80/80
f 81/81/81 83/83/83 82/82/82
f 81/81/81 82/82/82 84/84/84
f 85/85/85 87/87/87 86/86/86
f 85/85/85 86/86/86 88/88/88
