#Wall-detach_679_48.obj

v 65 1 0
v 58 4 0
v 58 1 0
v 61 4 0
v 65 6 0
v 63 6 -15
v 65 8 -15
v 65 6 -15
v 63 8 -15
v 65 6 -12
v 65 6 -5
v 65 1 -12
v 65 6 -15
v 65 7 -7
v 65 7 -11
v 65 8 -13
v 65 8 -15
v 65 6 0
v 65 1 0
v 65 6 -12
v 59 3 -12
v 59 6 -12
v 65 1 -12
v 59 1 -12
v 63 6 -15
v 63 8 -16
v 63 8 -15
v 63 6 -16
v 59 6 -16
v 63 8 -16
v 63 6 -16

vn 0 0 -1
vn 0 0 -1
vn 0 0 -1
vn 0 0 -1
vn 0 0 -1
vn 0 0 1
vn 0 0 1
vn 0 0 1
vn 0 0 1
vn -1 0 0
vn -1 0 0
vn -1 0 0
vn -1 0 0
vn -1 0 0
vn -1 0 0
vn -1 0 0
vn -1 0 0
vn -1 0 0
vn -1 0 0
vn 0 0 1
vn 0 0 1
vn 0 0 1
vn 0 0 1
vn 0 0 1
vn -1 0 0
vn -1 0 0
vn -1 0 0
vn -1 0 0
vn 0 0 1
vn 0 0 1
vn 0 0 1

vt 0 0
vt 7 3
vt 7 0
vt 4 3
vt 0 5
vt 0 0
vt 2 2
vt 2 0
vt 0 2
vt 3 5
vt 10 5
vt 3 0
vt 0 5
vt 8 6
vt 4 6
vt 2 7
vt 0 7
vt 15 5
vt 15 0
vt 6 5
vt 0 2
vt 0 5
vt 6 0
vt 0 0
vt 1 0
vt 0 2
vt 1 2
vt 0 0
vt 0 0
vt 4 2
vt 4 0

g Wall-detach_679_48
usemtl Wall-detach_679_48
usemap Wall-detach_679_48
f 1/1/1 3/3/3 2/2/2
f 1/1/1 2/2/2 4/4/4
f 1/1/1 4/4/4 5/5/5
f 6/6/6 8/8/8 7/7/7
f 6/6/6 7/7/7 9/9/9
f 10/10/10 12/12/12 11/11/11
f 13/13/13 10/10/10 14/14/14
f 14/14/14 10/10/10 11/11/11
f 13/13/13 14/14/14 15/15/15
f 13/13/13 15/15/15 16/16/16
f 13/13/13 16/16/16 17/17/17
f 18/18/18 11/11/11 19/19/19
f 11/11/11 12/12/12 19/19/19
f 20/20/20 22/22/22 21/21/21
f 20/20/20 21/21/21 23/23/23
f 23/23/23 21/21/21 24/24/24
f 25/25/25 27/27/27 26/26/26
f 25/25/25 26/26/26 28/28/28
f 29/29/29 31/31/31 30/30/30
