#Wall_1225_89.obj

v 54 -3 -9
v 57 -7 -9
v 57 -3 -9
v 54 -7 -9
v 54 -3 -12
v 54 -7 -9
v 54 -3 -9
v 54 -7 -12
v 54 -3 -9
v 54 2 -12
v 54 -3 -12
v 54 2 -9
v 57 -3 -9
v 54 2 -9
v 54 -3 -9
v 57 2 -9
v 65 2 -28
v 38 -7 -28
v 38 2 -28
v 65 -7 -28
v 65 2 -12
v 65 -7 -28
v 65 2 -28
v 65 -7 -12
v 67 2 -12
v 65 -7 -12
v 65 2 -12
v 67 -7 -12
v 57 2 -9
v 65 -3 -9
v 65 2 -9
v 57 -3 -9
v 67 2 -9
v 65 2 -9
v 67 -7 -9
v 65 -3 -9
v 65 -7 -9
v 67 -7 -12
v 67 2 -12
v 67 -7 -9
v 67 2 -9

vn 0 0 -1
vn 0 0 -1
vn 0 0 -1
vn 0 0 -1
vn 1 0 0
vn 1 0 0
vn 1 0 0
vn 1 0 0
vn 1 0 0
vn 1 0 0
vn 1 0 0
vn 1 0 0
vn 0 0 -1
vn 0 0 -1
vn 0 0 -1
vn 0 0 -1
vn 0 0 0.9999999
vn 0 0 0.9999999
vn 0 0 0.9999999
vn 0 0 0.9999999
vn -1 0 0
vn -1 0 0
vn -1 0 0
vn -1 0 0
vn 0 0 1
vn 0 0 1
vn 0 0 1
vn 0 0 1
vn 0 0 -1
vn 0 0 -1
vn 0 0 -1
vn 0 0 -1
vn 0 0 -1
vn 0 0 -1
vn 0 0 -1
vn 0 0 -1
vn 0 0 -1
vn -1 0 0
vn -1 0 0
vn -1 0 0
vn -1 0 0

vt 3 4
vt 0 0
vt 0 4
vt 3 0
vt 3 4
vt 0 0
vt 0 4
vt 3 0
vt 0 0
vt 3 5
vt 3 0
vt 0 5
vt 0 0
vt 3 5
vt 3 0
vt 0 5
vt 27 9
vt 0 0
vt 0 9
vt 27 0
vt 16 9
vt 0 0
vt 0 9
vt 16 0
vt 2 9
vt 0 0
vt 0 9
vt 2 0
vt 8 5
vt 0 0
vt 0 5
vt 8 0
vt 0 9
vt 2 9
vt 0 0
vt 2 4
vt 2 0
vt 0 0
vt 0 9
vt 3 0
vt 3 9

g Wall_1225_89
usemtl Wall_1225_89
usemap Wall_1225_89
f 1/1/1 3/3/3 2/2/2
f 1/1/1 2/2/2 4/4/4
f 5/5/5 7/7/7 6/6/6
f 5/5/5 6/6/6 8/8/8
f 9/9/9 11/11/11 10/10/10
f 9/9/9 10/10/10 12/12/12
f 13/13/13 15/15/15 14/14/14
f 13/13/13 14/14/14 16/16/16
f 17/17/17 19/19/19 18/18/18
f 17/17/17 18/18/18 20/20/20
f 21/21/21 23/23/23 22/22/22
f 21/21/21 22/22/22 24/24/24
f 25/25/25 27/27/27 26/26/26
f 25/25/25 26/26/26 28/28/28
f 29/29/29 31/31/31 30/30/30
f 29/29/29 30/30/30 32/32/32
f 33/33/33 35/35/35 34/34/34
f 34/34/34 35/35/35 36/36/36
f 36/36/36 35/35/35 37/37/37
f 38/38/38 40/40/40 39/39/39
f 39/39/39 40/40/40 41/41/41
