#Wall-detach_1288_78.obj

v -5 -2 -21
v -5 1 -23
v -5 -2 -23
v -5 1 -21
v -4 -2 -21
v -5 1 -21
v -5 -2 -21
v -4 1 -21
v -4 -2 -20
v -4 1 -21
v -4 -2 -21
v -4 1 -20
v -3 -2 -20
v -4 1 -20
v -4 -2 -20
v -3 1 -20
v -3 -2 -19
v -3 1 -20
v -3 -2 -20
v -3 1 -19
v -2 -2 -19
v -3 1 -19
v -3 -2 -19
v -2 1 -19
v -2 -2 -18
v -2 1 -19
v -2 -2 -19
v -2 1 -18
v 0 -2 -18
v -2 1 -18
v -2 -2 -18
v 0 1 -18
v 0 -2 -17
v 0 1 -18
v 0 -2 -18
v 0 1 -17
v 0 1 -17
v 0 -2 -17
v 21 -2 -17
v 21 1 -17

vn 1 0 0
vn 1 0 0
vn 1 0 0
vn 1 0 0
vn 0 0 -1
vn 0 0 -1
vn 0 0 -1
vn 0 0 -1
vn 1 0 0
vn 1 0 0
vn 1 0 0
vn 1 0 0
vn 0 0 -1
vn 0 0 -1
vn 0 0 -1
vn 0 0 -1
vn 1 0 0
vn 1 0 0
vn 1 0 0
vn 1 0 0
vn 0 0 -1
vn 0 0 -1
vn 0 0 -1
vn 0 0 -1
vn 1 0 0
vn 1 0 0
vn 1 0 0
vn 1 0 0
vn 0 0 -1
vn 0 0 -1
vn 0 0 -1
vn 0 0 -1
vn 1 0 0
vn 1 0 0
vn 1 0 0
vn 1 0 0
vn 0 0 -1
vn 0 0 -1
vn 0 0 -1
vn 0 0 -1

vt 0 0
vt 2 3
vt 2 0
vt 0 3
vt 0 0
vt 1 3
vt 1 0
vt 0 3
vt 0 0
vt 1 3
vt 1 0
vt 0 3
vt 0 0
vt 1 3
vt 1 0
vt 0 3
vt 0 0
vt 1 3
vt 1 0
vt 0 3
vt 0 0
vt 1 3
vt 1 0
vt 0 3
vt 0 0
vt 1 3
vt 1 0
vt 0 3
vt 0 0
vt 2 3
vt 2 0
vt 0 3
vt 0 0
vt 1 3
vt 1 0
vt 0 3
vt 21 3
vt 21 0
vt 0 0
vt 0 3

g Wall-detach_1288_78
usemtl Wall-detach_1288_78
usemap Wall-detach_1288_78
f 1/1/1 3/3/3 2/2/2
f 1/1/1 2/2/2 4/4/4
f 5/5/5 7/7/7 6/6/6
f 5/5/5 6/6/6 8/8/8
f 9/9/9 11/11/11 10/10/10
f 9/9/9 10/10/10 12/12/12
f 13/13/13 15/15/15 14/14/14
f 13/13/13 14/14/14 16/16/16
f 17/17/17 19/19/19 18/18/18
f 17/17/17 18/18/18 20/20/20
f 21/21/21 23/23/23 22/22/22
f 21/21/21 22/22/22 24/24/24
f 25/25/25 27/27/27 26/26/26
f 25/25/25 26/26/26 28/28/28
f 29/29/29 31/31/31 30/30/30
f 29/29/29 30/30/30 32/32/32
f 33/33/33 35/35/35 34/34/34
f 33/33/33 34/34/34 36/36/36
f 37/37/37 39/39/39 38/38/38
f 40/40/40 39/39/39 37/37/37
