#Wall-detach_787_63.obj

v -10 -5 -23
v -10 -2 -13
v -10 -2 -23
v -10 -5 -13
v 15 -2 -23
v 5 -5 -23
v 5 -2 -23
v 15 -5 -23
v 29 -2 -13
v 29 -5 -23
v 29 -2 -23
v 29 -5 -13
v 15 -5 -13
v 28 -2 -13
v 15 -2 -13
v 28 -5 -13
v 29 -5 -13
v 28 -2 -13
v 28 -5 -13
v 29 -2 -13
v 5 -2 -13
v 15 -5 -13
v 15 -2 -13
v 5 -5 -13
v 5 -2 -23
v 5 -5 -23
v -10 -2 -23
v -10 -5 -23
v 15 -5 -23
v 29 -2 -23
v 29 -5 -23
v 15 -2 -23

vn 1 0 0
vn 1 0 0
vn 1 0 0
vn 1 0 0
vn 0 0 1
vn 0 0 1
vn 0 0 1
vn 0 0 1
vn -1 0 0
vn -1 0 0
vn -1 0 0
vn -1 0 0
vn 0 0 -1
vn 0 0 -1
vn 0 0 -1
vn 0 0 -1
vn 0 0 -1
vn 0 0 -1
vn 0 0 -1
vn 0 0 -1
vn 0 0 -1
vn 0 0 -1
vn 0 0 -1
vn 0 0 -1
vn 0 0 1
vn 0 0 1
vn 0 0 1
vn 0 0 1
vn 0 0 1
vn 0 0 1
vn 0 0 1
vn 0 0 1

vt 10 0
vt 0 3
vt 10 3
vt 0 0
vt 10 3
vt 0 0
vt 0 3
vt 10 0
vt 10 3
vt 0 0
vt 0 3
vt 10 0
vt 13 0
vt 0 3
vt 13 3
vt 0 0
vt 0 0
vt 1 3
vt 1 0
vt 0 3
vt 10 3
vt 0 0
vt 0 3
vt 10 0
vt 15 3
vt 15 0
vt 0 3
vt 0 0
vt 0 0
vt 14 3
vt 14 0
vt 0 3

g Wall-detach_787_63
usemtl Wall-detach_787_63
usemap Wall-detach_787_63
f 1/1/1 3/3/3 2/2/2
f 1/1/1 2/2/2 4/4/4
f 5/5/5 7/7/7 6/6/6
f 5/5/5 6/6/6 8/8/8
f 9/9/9 11/11/11 10/10/10
f 9/9/9 10/10/10 12/12/12
f 13/13/13 15/15/15 14/14/14
f 13/13/13 14/14/14 16/16/16
f 17/17/17 19/19/19 18/18/18
f 17/17/17 18/18/18 20/20/20
f 21/21/21 23/23/23 22/22/22
f 21/21/21 22/22/22 24/24/24
f 25/25/25 27/27/27 26/26/26
f 26/26/26 27/27/27 28/28/28
f 29/29/29 31/31/31 30/30/30
f 29/29/29 30/30/30 32/32/32
