#Wall_677_47.obj

v 50 -7 -19
v 51 -7 10
v 59 -7 10
v 66 -7 -19
v 59 -7 1
v 66 -7 1
v 66 -7 -19
v 59 -7 1
v 31 -7 -19
v 51 -7 10
v 50 -7 -19
v 32 -7 10
v 32 -7 20
v 51 -7 10
v 32 -7 10
v 51 -7 20
v -1 -7 -19
v 32 -7 10
v 31 -7 -19
v -1 -7 10

vn 0 -1 0
vn 0 -1 0
vn 0 -1 0
vn 0 -1 0
vn 0 -1 0
vn 0 -1 0
vn 0 -1 0
vn 0 -1 0
vn 0 -1 0
vn 0 -1 0
vn 0 -1 0
vn 0 -1 0
vn 0 -1 0
vn 0 -1 0
vn 0 -1 0
vn 0 -1 0
vn 0 -1 0
vn 0 -1 0
vn 0 -1 0
vn 0 -1 0

vt 0 0
vt 1 29
vt 9 29
vt 16 0
vt 9 20
vt 7 20
vt 7 0
vt 0 20
vt 0 0
vt 20 29
vt 19 0
vt 1 29
vt 0 10
vt 19 0
vt 0 0
vt 19 10
vt 0 0
vt 33 29
vt 32 0
vt 0 29

g Wall_677_47
usemtl Wall_677_47
usemap Wall_677_47
f 1/1/1 3/3/3 2/2/2
f 4/4/4 5/5/5 1/1/1
f 1/1/1 5/5/5 3/3/3
f 6/6/6 8/8/8 7/7/7
f 9/9/9 11/11/11 10/10/10
f 9/9/9 10/10/10 12/12/12
f 13/13/13 15/15/15 14/14/14
f 13/13/13 14/14/14 16/16/16
f 17/17/17 19/19/19 18/18/18
f 17/17/17 18/18/18 20/20/20
