#Wall-detach_820_56.obj

v -21 4 -17
v -21 2 -20
v -21 4 -20
v -21 2 -17
v -26 4 -15
v -22 2 -15
v -22 4 -15
v -26 2 -15
v -21 4 -25
v -21 4 -20
v -21 2 -20
v -21 -3 -20
v -21 -3 -25
v -31 4 -15
v -26 2 -15
v -26 4 -15
v -26 -3 -15
v -31 -3 -15
v -21 4 -15
v -22 4 -15
v -22 2 -15
v -21 -3 -15
v -22 -3 -15
v -21 4 -15
v -21 2 -17
v -21 4 -17
v -21 -3 -15
v -21 -3 -17
v -22 -3 -15
v -22 2 -15
v -22 -3 -11
v -22 2 -11
v -26 2 -15
v -26 -3 -15
v -26 -3 -11
v -26 2 -11
v -22 2 -15
v -26 2 -15
v -26 2 -11
v -22 2 -11
v -18 2 -17
v -21 2 -20
v -21 2 -17
v -18 2 -20
v -18 2 -20
v -21 -3 -20
v -21 2 -20
v -18 -3 -20
v -18 -3 -17
v -21 2 -17
v -21 -3 -17
v -18 2 -17

vn -1 0 0
vn -1 0 0
vn -1 0 0
vn -1 0 0
vn 0 0 -1
vn 0 0 -1
vn 0 0 -1
vn 0 0 -1
vn -1 0 0
vn -1 0 0
vn -1 0 0
vn -1 0 0
vn -1 0 0
vn 0 0 -1
vn 0 0 -1
vn 0 0 -1
vn 0 0 -1
vn 0 0 -1
vn 0 0 -1
vn 0 0 -1
vn 0 0 -1
vn 0 0 -1
vn 0 0 -1
vn -1 0 0
vn -1 0 0
vn -1 0 0
vn -1 0 0
vn -1 0 0
vn -1 0 0
vn -1 0 0
vn -1 0 0
vn -1 0 0
vn 1 0 0
vn 1 0 0
vn 1 0 0
vn 1 0 0
vn 0 -1 0
vn 0 -1 0
vn 0 -1 0
vn 0 -1 0
vn 0 -1 0
vn 0 -1 0
vn 0 -1 0
vn 0 -1 0
vn 0 0 1
vn 0 0 1
vn 0 0 1
vn 0 0 1
vn 0 0 -1
vn 0 0 -1
vn 0 0 -1
vn 0 0 -1

vt 3 2
vt 0 0
vt 0 2
vt 3 0
vt 4 2
vt 0 0
vt 0 2
vt 4 0
vt 0 7
vt 5 7
vt 5 5
vt 5 0
vt 0 0
vt 5 7
vt 0 5
vt 0 7
vt 0 0
vt 5 0
vt 0 7
vt 1 7
vt 1 5
vt 0 0
vt 1 0
vt 2 7
vt 0 5
vt 0 7
vt 2 0
vt 0 0
vt 0 0
vt 0 5
vt 4 0
vt 4 5
vt 4 5
vt 4 0
vt 0 0
vt 0 5
vt 4 0
vt 0 0
vt 0 4
vt 4 4
vt 3 3
vt 0 0
vt 0 3
vt 3 0
vt 3 5
vt 0 0
vt 0 5
vt 3 0
vt 0 0
vt 3 5
vt 3 0
vt 0 5

g Wall-detach_820_56
usemtl Wall-detach_820_56
usemap Wall-detach_820_56
f 1/1/1 3/3/3 2/2/2
f 1/1/1 2/2/2 4/4/4
f 5/5/5 7/7/7 6/6/6
f 5/5/5 6/6/6 8/8/8
f 9/9/9 11/11/11 10/10/10
f 9/9/9 12/12/12 11/11/11
f 9/9/9 13/13/13 12/12/12
f 14/14/14 16/16/16 15/15/15
f 15/15/15 17/17/17 14/14/14
f 17/17/17 18/18/18 14/14/14
f 19/19/19 21/21/21 20/20/20
f 19/19/19 22/22/22 21/21/21
f 21/21/21 22/22/22 23/23/23
f 24/24/24 26/26/26 25/25/25
f 25/25/25 27/27/27 24/24/24
f 28/28/28 27/27/27 25/25/25
f 29/29/29 31/31/31 30/30/30
f 31/31/31 32/32/32 30/30/30
f 33/33/33 35/35/35 34/34/34
f 33/33/33 36/36/36 35/35/35
f 37/37/37 39/39/39 38/38/38
f 40/40/40 39/39/39 37/37/37
f 41/41/41 43/43/43 42/42/42
f 41/41/41 42/42/42 44/44/44
f 45/45/45 47/47/47 46/46/46
f 45/45/45 46/46/46 48/48/48
f 49/49/49 51/51/51 50/50/50
f 49/49/49 50/50/50 52/52/52
