#Wall-detach_787_61.obj

v 15 0 -13
v 15 0 -23
v 15 -2 -13
v 15 -2 -23
v 28 -1 -13
v 15 -1 -13
v 28 0 -13
v 15 0 -13
v 28 0 -13
v 15 0 -13
v 28 0 -14
v 15 0 -14
v 5 -2 -23
v 15 -2 -13
v 15 -2 -23
v 5 -2 -13
v 29 -2 -13
v 28 -2 -23
v 28 -2 -13
v 29 -2 -23
v 15 -2 -14
v 28 0 -14
v 15 0 -14
v 28 -2 -14
v 15 -2 -13
v 28 -2 -14
v 15 -2 -14
v 28 -2 -13
v 5 -2 -13
v 5 -2 -23
v -10 -2 -13
v -10 -2 -23
v 28 -2 -23
v 28 0 -14
v 28 -2 -14
v 28 0 -23
v 28 0 -23
v 15 -2 -23
v 15 0 -23
v 28 -2 -23

vn 1 0 0
vn 1 0 0
vn 1 0 0
vn 1 0 0
vn 0 0 1
vn 0 0 1
vn 0 0 1
vn 0 0 1
vn 0 1 0
vn 0 1 0
vn 0 1 0
vn 0 1 0
vn 0 -1 0
vn 0 -1 0
vn 0 -1 0
vn 0 -1 0
vn 0 -1 0
vn 0 -1 0
vn 0 -1 0
vn 0 -1 0
vn 0 0 -1
vn 0 0 -1
vn 0 0 -1
vn 0 0 -1
vn 0 -1 0
vn 0 -1 0
vn 0 -1 0
vn 0 -1 0
vn 0 -1 0
vn 0 -1 0
vn 0 -1 0
vn 0 -1 0
vn -1 0 0
vn -1 0 0
vn -1 0 0
vn -1 0 0
vn 0 0 1
vn 0 0 1
vn 0 0 1
vn 0 0 1

vt 0 2
vt 10 2
vt 0 0
vt 10 0
vt 13 0
vt 0 0
vt 13 1
vt 0 1
vt 0 1
vt 13 1
vt 0 0
vt 13 0
vt 0 0
vt 10 10
vt 10 0
vt 0 10
vt 1 10
vt 0 0
vt 0 10
vt 1 0
vt 13 0
vt 0 2
vt 13 2
vt 0 0
vt 0 1
vt 13 0
vt 0 0
vt 13 1
vt 15 10
vt 15 0
vt 0 10
vt 0 0
vt 0 0
vt 9 2
vt 9 0
vt 0 2
vt 13 2
vt 0 0
vt 0 2
vt 13 0

g Wall-detach_787_61
usemtl Wall-detach_787_61
usemap Wall-detach_787_61
f 1/1/1 3/3/3 2/2/2
f 2/2/2 3/3/3 4/4/4
f 5/5/5 7/7/7 6/6/6
f 6/6/6 7/7/7 8/8/8
f 9/9/9 11/11/11 10/10/10
f 10/10/10 11/11/11 12/12/12
f 13/13/13 15/15/15 14/14/14
f 13/13/13 14/14/14 16/16/16
f 17/17/17 19/19/19 18/18/18
f 17/17/17 18/18/18 20/20/20
f 21/21/21 23/23/23 22/22/22
f 21/21/21 22/22/22 24/24/24
f 25/25/25 27/27/27 26/26/26
f 25/25/25 26/26/26 28/28/28
f 29/29/29 31/31/31 30/30/30
f 30/30/30 31/31/31 32/32/32
f 33/33/33 35/35/35 34/34/34
f 33/33/33 34/34/34 36/36/36
f 37/37/37 39/39/39 38/38/38
f 37/37/37 38/38/38 40/40/40
