#Wall-detach_1165_71.obj

v 26 1 7
v 41 1 7
v 26 -2 7
v 41 -6 7
v 26 -6 7
v 27 1 16
v 32 -3 16
v 32 1 16
v 27 -3 16
v 41 1 16
v 32 1 16
v 32 -6 16
v 41 -6 16
v 41 -6 7
v 41 1 7
v 41 -6 16
v 41 1 16
v 32 -6 16
v 32 -3 16
v 32 -6 17
v 32 -3 17
v 27 -3 16
v 27 -6 16
v 27 -3 17
v 27 -6 17
v 32 -3 17
v 32 -3 16
v 27 -3 17
v 27 -3 16
v 27 1 12
v 28 1 12
v 27 -6 12
v 28 -2 12
v 28 -6 12
v 27 1 16
v 27 1 12
v 27 -6 12
v 27 -6 16
v 30 -2 11
v 28 -2 12
v 28 -2 11
v 30 -2 12
v 30 -3 11
v 30 -2 12
v 30 -2 11
v 30 -3 12
v 37 -3 11
v 30 -3 12
v 30 -3 11
v 37 -3 12
v 37 -6 11
v 37 -3 12
v 37 -3 11
v 37 -6 12
v 28 1 11
v 26 1 11
v 26 -2 11
v 28 -2 11
v 28 1 11
v 28 -2 12
v 28 1 12
v 28 -2 11
v 37 -3 12
v 28 -6 12
v 30 -3 12
v 37 -6 12
v 30 -2 12
v 28 -2 12
v 28 -2 11
v 30 -3 11
v 30 -2 11
v 28 -6 11
v 37 -6 11
v 37 -3 11

vn 0 0 1
vn 0 0 1
vn 0 0 1
vn 0 0 0.9999999
vn 0 0 1
vn 0 0 -1
vn 0 0 -1
vn 0 0 -1
vn 0 0 -1
vn 0 0 -1
vn 0 0 -1
vn 0 0 -1
vn 0 0 -1
vn -1 0 0
vn -1 0 0
vn -1 0 0
vn -1 0 0
vn -1 0 0
vn -1 0 0
vn -1 0 0
vn -1 0 0
vn 1 0 0
vn 1 0 0
vn 1 0 0
vn 1 0 0
vn 0 -1 0
vn 0 -1 0
vn 0 -1 0
vn 0 -1 0
vn 0 0 1
vn 0 0 1
vn 0 0 1
vn 0 0 1
vn 0 0 1
vn 1 0 0
vn 1 0 0
vn 1 0 0
vn 1 0 0
vn 0 1 0
vn 0 1 0
vn 0 1 0
vn 0 1 0
vn 1 0 0
vn 1 0 0
vn 1 0 0
vn 1 0 0
vn 0 1 0
vn 0 1 0
vn 0 1 0
vn 0 1 0
vn 1 0 0
vn 1 0 0
vn 1 0 0
vn 1 0 0
vn 0 0 -1
vn 0 0 -1
vn 0 0 -1
vn 0 0 -1
vn 1 0 0
vn 1 0 0
vn 1 0 0
vn 1 0 0
vn 0 0 1
vn 0 0 1
vn 0 0 1
vn 0 0 1
vn 0 0 1
vn 0 0 1
vn 0 0 -1
vn 0 0 -1
vn 0 0 -1
vn 0 0 -1
vn 0 0 -1
vn 0 0 -1

vt 0 7
vt 15 7
vt 0 4
vt 15 0
vt 0 0
vt 5 4
vt 0 0
vt 0 4
vt 5 0
vt 0 7
vt 9 7
vt 9 0
vt 0 0
vt 0 0
vt 0 7
vt 9 0
vt 9 7
vt 0 0
vt 0 3
vt 1 0
vt 1 3
vt 1 3
vt 1 0
vt 0 3
vt 0 0
vt 5 1
vt 5 0
vt 0 1
vt 0 0
vt 0 7
vt 1 7
vt 0 0
vt 1 4
vt 1 0
vt 0 7
vt 4 7
vt 4 0
vt 0 0
vt 0 0
vt 2 1
vt 2 0
vt 0 1
vt 1 0
vt 0 1
vt 1 1
vt 0 0
vt 0 0
vt 7 1
vt 7 0
vt 0 1
vt 1 0
vt 0 3
vt 1 3
vt 0 0
vt 0 3
vt 2 3
vt 2 0
vt 0 0
vt 1 3
vt 0 0
vt 0 3
vt 1 0
vt 9 3
vt 0 0
vt 2 3
vt 9 0
vt 2 4
vt 0 4
vt 9 4
vt 7 3
vt 7 4
vt 9 0
vt 0 0
vt 0 3

g Wall-detach_1165_71
usemtl Wall-detach_1165_71
usemap Wall-detach_1165_71
f 1/1/1 3/3/3 2/2/2
f 2/2/2 3/3/3 4/4/4
f 4/4/4 3/3/3 5/5/5
f 6/6/6 8/8/8 7/7/7
f 6/6/6 7/7/7 9/9/9
f 10/10/10 12/12/12 11/11/11
f 10/10/10 13/13/13 12/12/12
f 14/14/14 16/16/16 15/15/15
f 15/15/15 16/16/16 17/17/17
f 18/18/18 20/20/20 19/19/19
f 19/19/19 20/20/20 21/21/21
f 22/22/22 24/24/24 23/23/23
f 24/24/24 25/25/25 23/23/23
f 26/26/26 28/28/28 27/27/27
f 27/27/27 28/28/28 29/29/29
f 30/30/30 32/32/32 31/31/31
f 31/31/31 32/32/32 33/33/33
f 33/33/33 32/32/32 34/34/34
f 35/35/35 37/37/37 36/36/36
f 38/38/38 37/37/37 35/35/35
f 39/39/39 41/41/41 40/40/40
f 39/39/39 40/40/40 42/42/42
f 43/43/43 45/45/45 44/44/44
f 43/43/43 44/44/44 46/46/46
f 47/47/47 49/49/49 48/48/48
f 47/47/47 48/48/48 50/50/50
f 51/51/51 53/53/53 52/52/52
f 51/51/51 52/52/52 54/54/54
f 55/55/55 57/57/57 56/56/56
f 58/58/58 57/57/57 55/55/55
f 59/59/59 61/61/61 60/60/60
f 59/59/59 60/60/60 62/62/62
f 63/63/63 65/65/65 64/64/64
f 63/63/63 64/64/64 66/66/66
f 64/64/64 65/65/65 67/67/67
f 64/64/64 67/67/67 68/68/68
f 69/69/69 71/71/71 70/70/70
f 69/69/69 70/70/70 72/72/72
f 73/73/73 72/72/72 70/70/70
f 73/73/73 70/70/70 74/74/74
