#Wall-detach_958_44.obj

v -14 -6 18
v -33 8 18
v -33 -6 18
v -14 8 18
v -14 -6 21
v -14 8 18
v -14 -6 18
v -14 8 21
v -11 -6 21
v -14 8 21
v -14 -6 21
v -11 8 21
v -11 -6 20
v -11 -6 18
v -11 2 20
v -11 2 18
v -11 8 18
v -11 8 20
v -11 4 20
v -11 4 18
v -11 2 20
v -11 -6 21
v -11 -6 20
v -11 8 21
v -11 4 20
v -11 8 20
v -10 4 20
v -11 4 18
v -11 4 20
v -10 4 18
v -10 2 18
v -11 2 20
v -11 2 18
v -10 2 20
v -11 4 18
v -10 2 18
v -11 2 18
v -10 4 18
v -10 4 20
v -11 2 20
v -10 2 20
v -11 4 20

vn 0 0 -1
vn 0 0 -1
vn 0 0 -1
vn 0 0 -1
vn 1 0 0
vn 1 0 0
vn 1 0 0
vn 1 0 0
vn 0 0 -1
vn 0 0 -1
vn 0 0 -1
vn 0 0 -1
vn -1 0 0
vn -1 0 0
vn -1 0 0
vn -1 0 0
vn -1 0 0
vn -1 0 0
vn -1 0 0
vn -1 0 0
vn -1 0 0
vn -1 0 0
vn -1 0 0
vn -1 0 0
vn -1 0 0
vn -1 0 0
vn 0 -1 0
vn 0 -1 0
vn 0 -1 0
vn 0 -1 0
vn 0 1 0
vn 0 1 0
vn 0 1 0
vn 0 1 0
vn 0 0 1
vn 0 0 1
vn 0 0 1
vn 0 0 1
vn 0 0 -1
vn 0 0 -1
vn 0 0 -1
vn 0 0 -1

vt 0 0
vt 19 14
vt 19 0
vt 0 14
vt -0.00241673 0.000518322
vt 3.002417 13.99948
vt 2.997583 -0.0005173683
vt 0.002416968 14.00052
vt -0.00241673 0.000518322
vt 3.002417 13.99948
vt 2.997583 -0.0005173683
vt 0.002416968 14.00052
vt 2 0
vt 0 0
vt 2 8
vt 0 8
vt 0 4
vt 2 4
vt 2 0
vt 0 0
vt 0.0003452897 8.000173
vt 0.9975831 -0.0001721382
vt -0.002416849 0.0001730919
vt 1.002417 13.99983
vt 0.001035839 10.00017
vt 0.002416909 14.00017
vt 1 2
vt 0 0
vt 0 2
vt 1 0
vt 0 0
vt 1 2
vt 1 0
vt 0 2
vt 0 2
vt 1 0
vt 0 0
vt 1 2
vt 0 2
vt 1 0
vt 0 0
vt 1 2

g Wall-detach_958_44
usemtl Wall-detach_958_44
usemap Wall-detach_958_44
f 1/1/1 3/3/3 2/2/2
f 1/1/1 2/2/2 4/4/4
f 5/5/5 7/7/7 6/6/6
f 5/5/5 6/6/6 8/8/8
f 9/9/9 11/11/11 10/10/10
f 9/9/9 10/10/10 12/12/12
f 13/13/13 15/15/15 14/14/14
f 14/14/14 15/15/15 16/16/16
f 17/17/17 19/19/19 18/18/18
f 20/20/20 19/19/19 17/17/17
f 21/21/21 23/23/23 22/22/22
f 24/24/24 25/25/25 22/22/22
f 22/22/22 25/25/25 21/21/21
f 26/26/26 25/25/25 24/24/24
f 27/27/27 29/29/29 28/28/28
f 27/27/27 28/28/28 30/30/30
f 31/31/31 33/33/33 32/32/32
f 31/31/31 32/32/32 34/34/34
f 35/35/35 37/37/37 36/36/36
f 35/35/35 36/36/36 38/38/38
f 39/39/39 41/41/41 40/40/40
f 39/39/39 40/40/40 42/42/42
