#Wall_690_70.obj

v 12 2 26
v 12 3 22
v 12 2 22
v 12 3 26
v 23 2 26
v 12 3 26
v 12 2 26
v 23 3 26
v 23 2 22
v 23 3 26
v 23 2 26
v 23 3 22

vn 1 0 0
vn 1 0 0
vn 1 0 0
vn 1 0 0
vn 0 0 -1
vn 0 0 -1
vn 0 0 -1
vn 0 0 -1
vn -1 0 0
vn -1 0 0
vn -1 0 0
vn -1 0 0

vt 0 0
vt 4 1
vt 4 0
vt 0 1
vt 0 0
vt 11 1
vt 11 0
vt 0 1
vt 0 0
vt 4 1
vt 4 0
vt 0 1

g Wall_690_70
usemtl Wall_690_70
usemap Wall_690_70
f 1/1/1 3/3/3 2/2/2
f 1/1/1 2/2/2 4/4/4
f 5/5/5 7/7/7 6/6/6
f 5/5/5 6/6/6 8/8/8
f 9/9/9 11/11/11 10/10/10
f 9/9/9 10/10/10 12/12/12
