#Wall-detach_679_20.obj

v -55 8 -15
v -55 -6 -26
v -55 8 -26
v -55 -6 -15
v -69 8 -15
v -55 -6 -15
v -55 8 -15
v -69 -6 -15
v -69 8 5
v -69 -6 -15
v -69 8 -15
v -69 -6 5

vn -1 0 0
vn -1 0 0
vn -1 0 0
vn -1 0 0
vn 0 0 -1
vn 0 0 -1
vn 0 0 -1
vn 0 0 -1
vn -1 0 0
vn -1 0 0
vn -1 0 0
vn -1 0 0

vt 11 14
vt 0 0
vt 0 14
vt 11 0
vt 14.00242 13.99758
vt -0.002416611 0.002417088
vt 0.002417088 14.00242
vt 13.99758 -0.002416611
vt 20 14
vt -9.536743E-07 1.907349E-06
vt 9.536743E-07 14
vt 20 -1.907349E-06

g Wall-detach_679_20
usemtl Wall-detach_679_20
usemap Wall-detach_679_20
f 1/1/1 3/3/3 2/2/2
f 1/1/1 2/2/2 4/4/4
f 5/5/5 7/7/7 6/6/6
f 5/5/5 6/6/6 8/8/8
f 9/9/9 11/11/11 10/10/10
f 9/9/9 10/10/10 12/12/12
