#Wall-detach_1302_88.obj

v 32 -3 24
v 27 -3 24
v 27 -2 24
v 32 -2 24
v 26 -7 24
v 27 -3 24
v 27 -7 24
v 26 -2 24
v 27 -2 24
v 26 -7 24
v 26 -7 22
v 26 -2 22
v 26 -2 24
v 26 -7 22
v 21 -7 22
v 21 -2 22
v 26 -2 22
v 21 -7 22
v 21 -7 24
v 21 -2 24
v 21 -2 22
v 21 -7 28
v 21 -2 28
v 21 -7 36
v 21 -2 36
v 21 -2 28
v 20 -2 24
v 21 -2 24
v 20 -2 28
v 32 -3 24
v 32 -2 24
v 34 -2 24
v 32 -7 24
v 34 -7 24
v 34 -1 26
v 34 -2 24
v 34 -1 24
v 34 -7 24
v 34 -3 26
v 34 -7 26
v 34 -1 36
v 34 -3 36
v 34 -3 34
v 34 -1 34
v 34 -7 36
v 34 -7 26
v 34 -3 26
v 35 -3 26
v 34 -3 34
v 34 -3 26
v 35 -3 34
v 35 -3 26
v 34 -1 26
v 35 -1 26
v 34 -3 26
v 34 -3 34
v 35 -1 34
v 34 -1 34
v 35 -3 34
v 32 -3 24
v 32 -7 24
v 32 -6 22
v 32 -3 23
v 32 -6 17
v 32 -3 17
v 27 -7 24
v 27 -3 24
v 27 -6 17
v 27 -3 17

vn 0 0 1
vn 0 0 1
vn 0 0 1
vn 0 0 1
vn 0 0 1
vn 0 0 1
vn 0 0 1
vn 0 0 1
vn 0 0 1
vn -1 0 0
vn -1 0 0
vn -1 0 0
vn -1 0 0
vn 0 0 1
vn 0 0 1
vn 0 0 1
vn 0 0 1
vn 1 0 0
vn 1 0 0
vn 1 0 0
vn 1 0 0
vn 1 0 0
vn 1 0 0
vn 1 0 0
vn 1 0 0
vn 0 1 0
vn 0 1 0
vn 0 1 0
vn 0 1 0
vn 0 0 1
vn 0 0 1
vn 0 0 1
vn 0 0 1
vn 0 0 1
vn -1 0 0
vn -1 0 0
vn -1 0 0
vn -1 0 0
vn -1 0 0
vn -1 0 0
vn -1 0 0
vn -1 0 0
vn -1 0 0
vn -1 0 0
vn -1 0 0
vn -1 0 0
vn -1 0 0
vn 0 1 0
vn 0 1 0
vn 0 1 0
vn 0 1 0
vn 0 0 1
vn 0 0 1
vn 0 0 1
vn 0 0 1
vn 0 0 -1
vn 0 0 -1
vn 0 0 -1
vn 0 0 -1
vn -1 0 0
vn -1 0 0
vn -1 0 0
vn -1 0 0
vn -1 0 0
vn -1 0 0
vn 1 0 0
vn 1 0 0
vn 1 0 0
vn 1 0 0

vt 16.26346 4
vt 12.72792 4
vt 12.72792 5
vt 16.26346 5
vt 0 0
vt 1 4
vt 1 0
vt 0 5
vt 1 5
vt 12.02081 0
vt 13.43503 0
vt 13.43503 5
vt 12.02081 5
vt 13.43503 0
vt 9.899495 0
vt 9.899495 5
vt 13.43503 5
vt 9.899495 0
vt 8.485281 0
vt 8.485281 5
vt 9.899495 5
vt 5.656854 0
vt 5.656854 5
vt 0 0
vt 0 5
vt 0 4
vt 1 0
vt 0 0
vt 1 4
vt 0 4
vt 0 5
vt 2 5
vt 0 0
vt 2 0
vt 2 6
vt 0 5
vt 0 6
vt 0 0
vt 2 4
vt 2 0
vt 10 6
vt 10 4
vt 8 4
vt 8 6
vt 10 0
vt 0 0
vt 0 4
vt 0 0
vt 1 8
vt 1 0
vt 0 8
vt 1 0
vt 0 2
vt 1 2
vt 0 0
vt 1 0
vt 0 2
vt 1 2
vt 0 0
vt 7 4
vt 7 0
vt 5 1
vt 6 4
vt 0 1
vt 0 4
vt 0 0
vt 0 4
vt 7 1
vt 7 4

g Wall-detach_1302_88
usemtl Wall-detach_1302_88
usemap Wall-detach_1302_88
f 1/1/1 3/3/3 2/2/2
f 4/4/4 3/3/3 1/1/1
f 5/5/5 7/7/7 6/6/6
f 6/6/6 8/8/8 5/5/5
f 9/9/9 8/8/8 6/6/6
f 10/10/10 12/12/12 11/11/11
f 13/13/13 12/12/12 10/10/10
f 14/14/14 16/16/16 15/15/15
f 17/17/17 16/16/16 14/14/14
f 18/18/18 20/20/20 19/19/19
f 21/21/21 20/20/20 18/18/18
f 19/19/19 23/23/23 22/22/22
f 20/20/20 23/23/23 19/19/19
f 22/22/22 25/25/25 24/24/24
f 23/23/23 25/25/25 22/22/22
f 26/26/26 28/28/28 27/27/27
f 26/26/26 27/27/27 29/29/29
f 30/30/30 32/32/32 31/31/31
f 33/33/33 32/32/32 30/30/30
f 34/34/34 32/32/32 33/33/33
f 35/35/35 37/37/37 36/36/36
f 38/38/38 39/39/39 36/36/36
f 36/36/36 39/39/39 35/35/35
f 40/40/40 39/39/39 38/38/38
f 41/41/41 43/43/43 42/42/42
f 44/44/44 43/43/43 41/41/41
f 45/45/45 43/43/43 46/46/46
f 42/42/42 43/43/43 45/45/45
f 46/46/46 43/43/43 47/47/47
f 48/48/48 50/50/50 49/49/49
f 48/48/48 49/49/49 51/51/51
f 52/52/52 54/54/54 53/53/53
f 52/52/52 53/53/53 55/55/55
f 56/56/56 58/58/58 57/57/57
f 56/56/56 57/57/57 59/59/59
f 60/60/60 62/62/62 61/61/61
f 63/63/63 62/62/62 60/60/60
f 62/62/62 65/65/65 64/64/64
f 63/63/63 65/65/65 62/62/62
f 66/66/66 68/68/68 67/67/67
f 67/67/67 68/68/68 69/69/69
