#Wall-detach_768_48.obj

v 3 3 63
v 1 2 63
v 1 2 66
v 3 3 66
v 1 2 63
v -2 2 63
v -2 2 66
v 1 2 66
v 1 2 63
v 1 -1 57
v -2 -1 57
v -2 2 63
v -2 -1 56
v -6 -1 53
v -3 -1 56
v 3 -1 53
v 1 -1 56
v 3 -1 56
v -6 -1 63
v -3 -1 66
v 5 3 66
v 5 3 63
v 3 3 63
v 3 3 66
v -2 -1 56
v -2 -1 57
v 1 -1 57
v 1 -1 56

vn 0.4472136 -0.8944272 0
vn 0.4472136 -0.8944272 0
vn 0.4472136 -0.8944272 0
vn 0.4472136 -0.8944272 0
vn 0 -1 0
vn 0 -1 0
vn 0 -1 0
vn 0 -1 0
vn 0 -0.8944272 0.4472136
vn 0 -0.8944272 0.4472136
vn 0 -0.8944272 0.4472136
vn 0 -0.8944272 0.4472136
vn 0 -1 0
vn 0 -1 0
vn 0 -1 0
vn 0 -1 0
vn 0 -1 0
vn 0 -1 0
vn 0 -1 0
vn 0 -1 0
vn 0 -1 0
vn 0 -1 0
vn 0 -1 0
vn 0 -1 0
vn 0 -1 0
vn 0 -1 0
vn 0 -1 0
vn 0 -1 0

vt 3 0
vt -1.192093E-07 0
vt -1.192093E-07 3
vt 3 3
vt 3 0
vt 0 0
vt 0 3
vt 3 3
vt 3 6.5
vt 3 0
vt 0 0
vt 1.192093E-07 6.5
vt 4 3
vt 0 0
vt 3 3
vt 9 0
vt 7 3
vt 9 3
vt 0 10
vt 3 13
vt 2 3
vt 2 0
vt 0 0
vt 0 3
vt 0 0
vt 0 1
vt 3 1
vt 3 0

g Wall-detach_768_48
usemtl Wall-detach_768_48
usemap Wall-detach_768_48
f 1/1/1 3/3/3 2/2/2
f 4/4/4 3/3/3 1/1/1
f 5/5/5 7/7/7 6/6/6
f 8/8/8 7/7/7 5/5/5
f 9/9/9 11/11/11 10/10/10
f 12/12/12 11/11/11 9/9/9
f 13/13/13 15/15/15 14/14/14
f 13/13/13 14/14/14 16/16/16
f 13/13/13 16/16/16 17/17/17
f 17/17/17 16/16/16 18/18/18
f 14/14/14 20/20/20 19/19/19
f 15/15/15 20/20/20 14/14/14
f 21/21/21 23/23/23 22/22/22
f 21/21/21 24/24/24 23/23/23
f 25/25/25 27/27/27 26/26/26
f 28/28/28 27/27/27 25/25/25
