#Wall-detach_730_54.obj

v 28 5 51
v 28 -7 55
v 28 5 55
v 28 -7 51
v 37 5 30
v 37 0 36
v 37 5 36
v 37 0 30
v 37 5 30
v 41 5 30
v 37 0 30
v 41 -7 30
v 37 -7 30
v 41 5 56
v 41 -7 30
v 41 5 30
v 41 -7 56
v 33 5 56
v 41 -7 56
v 41 5 56
v 33 -7 56
v 33 5 64
v 33 -7 56
v 33 5 56
v 33 -7 64
v 28 -7 51
v 28 5 51
v 37 5 51
v 37 -7 51
v 37 5 36
v 37 0 36
v 37 5 51
v 37 -7 36
v 37 -7 51

vn 1 0 0
vn 1 0 0
vn 1 0 0
vn 1 0 0
vn 1 0 0
vn 1 0 0
vn 1 0 0
vn 1 0 0
vn 0 0 1
vn 0 0 1
vn 0 0 1
vn 0 0 1
vn 0 0 1
vn -1 0 0
vn -1 0 0
vn -1 0 0
vn -1 0 0
vn 0 0 -1
vn 0 0 -1
vn 0 0 -1
vn 0 0 -1
vn -1 0 0
vn -1 0 0
vn -1 0 0
vn -1 0 0
vn 0 0 1
vn 0 0 1
vn 0 0 1
vn 0 0 1
vn 1 0 0
vn 1 0 0
vn 1 0 0
vn 1 0 0
vn 1 0 0

vt 4 12
vt 0 0
vt 0 12
vt 4 0
vt 6 5
vt 0 0
vt 0 5
vt 6 0
vt 0 12
vt 4 12
vt 0 7
vt 4 0
vt 0 0
vt 26 12
vt 0 0
vt 0 12
vt 26 0
vt 8 12
vt 0 0
vt 0 12
vt 8 0
vt 8 12
vt 0 0
vt 0 12
vt 8 0
vt 0 0
vt 0 12
vt 9 12
vt 9 0
vt 15 12
vt 15 7
vt 0 12
vt 15 0
vt 0 0

g Wall-detach_730_54
usemtl Wall-detach_730_54
usemap Wall-detach_730_54
f 1/1/1 3/3/3 2/2/2
f 1/1/1 2/2/2 4/4/4
f 5/5/5 7/7/7 6/6/6
f 6/6/6 8/8/8 5/5/5
f 9/9/9 11/11/11 10/10/10
f 10/10/10 11/11/11 12/12/12
f 12/12/12 11/11/11 13/13/13
f 14/14/14 16/16/16 15/15/15
f 14/14/14 15/15/15 17/17/17
f 18/18/18 20/20/20 19/19/19
f 18/18/18 19/19/19 21/21/21
f 22/22/22 24/24/24 23/23/23
f 22/22/22 23/23/23 25/25/25
f 26/26/26 28/28/28 27/27/27
f 29/29/29 28/28/28 26/26/26
f 30/30/30 32/32/32 31/31/31
f 33/33/33 32/32/32 34/34/34
f 31/31/31 32/32/32 33/33/33
