#Wall-detach_892_57.obj

v -60 0 -40
v -60 0 -39
v -60 4 -40
v -60 4 -39
v -56 0 -39
v -56 0 -40
v -56 4 -39
v -56 4 -40
v -56 4 -40
v -56 8 -40
v -60 4 -40
v -60 8 -40
v -56 4 -39
v -56 4 -40
v -60 4 -39
v -60 4 -40
v -61 0 -40
v -60 0 -40
v -61 8 -40
v -60 4 -40
v -60 8 -40
v -61 0 -56
v -61 0 -40
v -61 8 -40
v -61 8 -56
v -56 8 -40
v -56 4 -40
v -55 8 -40
v -56 0 -40
v -55 0 -40
v -51 0 -40
v -51 8 -40
v -55 8 -40
v -55 0 -40

vn 1 0 0
vn 1 0 0
vn 1 0 0
vn 1 0 0
vn -1 0 0
vn -1 0 0
vn -1 0 0
vn -1 0 0
vn 0 0 -1
vn 0 0 -1
vn 0 0 -1
vn 0 0 -1
vn 0 -1 0
vn 0 -1 0
vn 0 -1 0
vn 0 -1 0
vn 0 0 -1
vn 0 0 -1
vn 0 0 -1
vn 0 0 -1
vn 0 0 -1
vn 1 0 0
vn 1 0 0
vn 1 0 0
vn 1 0 0
vn 0 0 -1
vn 0 0 -1
vn 0 0 -1
vn 0 0 -1
vn 0 0 -1
vn 0 0 -1
vn 0 0 -1
vn 0 0 -1
vn 0 0 -1

vt 1 0
vt 0 0
vt 1 4
vt 0 4
vt 1 0
vt 0 0
vt 1 4
vt 0 4
vt 0 0
vt 0 4
vt 4 0
vt 4 4
vt 4 1
vt 4 0
vt 0 1
vt 0 0
vt 0.9999993 0
vt -7.152557E-07 0
vt 1.000001 8
vt 0 4
vt 6.854534E-07 8
vt 16 0
vt 0 0
vt 0 8
vt 16 8
vt 1.000001 8
vt 1 4
vt 6.854534E-07 8
vt 0.9999993 0
vt -7.152557E-07 0
vt -7.152557E-07 2.384186E-07
vt 7.152557E-07 8
vt 4.000001 8
vt 3.999999 -4.768372E-07

g Wall-detach_892_57
usemtl Wall-detach_892_57
usemap Wall-detach_892_57
f 1/1/1 3/3/3 2/2/2
f 2/2/2 3/3/3 4/4/4
f 5/5/5 7/7/7 6/6/6
f 6/6/6 7/7/7 8/8/8
f 9/9/9 11/11/11 10/10/10
f 10/10/10 11/11/11 12/12/12
f 13/13/13 15/15/15 14/14/14
f 14/14/14 15/15/15 16/16/16
f 17/17/17 19/19/19 18/18/18
f 18/18/18 19/19/19 20/20/20
f 20/20/20 19/19/19 21/21/21
f 22/22/22 24/24/24 23/23/23
f 25/25/25 24/24/24 22/22/22
f 26/26/26 28/28/28 27/27/27
f 29/29/29 28/28/28 30/30/30
f 27/27/27 28/28/28 29/29/29
f 31/31/31 33/33/33 32/32/32
f 34/34/34 33/33/33 31/31/31
