#Wall-detach_1290_79.obj

v -30 1 -8
v 0 -2 -8
v 0 1 -8
v -30 -2 -8
v -30 1 -13
v -30 -2 -8
v -30 1 -8
v -30 -2 -13
v -29 1 -13
v -30 -2 -13
v -30 1 -13
v -29 -2 -13
v -29 1 -14
v -29 -2 -13
v -29 1 -13
v -29 -2 -14
v 5 -2 -13
v 5 1 -12
v 5 -2 -12
v 5 1 -13
v -26 -2 -13
v 5 1 -13
v 5 -2 -13
v -26 1 -13
v -26 -2 -14
v -26 1 -13
v -26 -2 -13
v -26 1 -14

vn 0 0 -1
vn 0 0 -1
vn 0 0 -1
vn 0 0 -1
vn 1 0 0
vn 1 0 0
vn 1 0 0
vn 1 0 0
vn 0 0 1
vn 0 0 1
vn 0 0 1
vn 0 0 1
vn 1 0 0
vn 1 0 0
vn 1 0 0
vn 1 0 0
vn -1 0 0
vn -1 0 0
vn -1 0 0
vn -1 0 0
vn 0 0 1
vn 0 0 1
vn 0 0 1
vn 0 0 1
vn -1 0 0
vn -1 0 0
vn -1 0 0
vn -1 0 0

vt 30 3
vt 0 0
vt 0 3
vt 30 0
vt 5 3
vt 0 0
vt 0 3
vt 5 0
vt 1 3
vt 0 0
vt 0 3
vt 1 0
vt 1 3
vt 0 0
vt 0 3
vt 1 0
vt 0 0
vt 1 3
vt 1 0
vt 0 3
vt 0 0
vt 31 3
vt 31 0
vt 0 3
vt 0 0
vt 1 3
vt 1 0
vt 0 3

g Wall-detach_1290_79
usemtl Wall-detach_1290_79
usemap Wall-detach_1290_79
f 1/1/1 3/3/3 2/2/2
f 1/1/1 2/2/2 4/4/4
f 5/5/5 7/7/7 6/6/6
f 5/5/5 6/6/6 8/8/8
f 9/9/9 11/11/11 10/10/10
f 9/9/9 10/10/10 12/12/12
f 13/13/13 15/15/15 14/14/14
f 13/13/13 14/14/14 16/16/16
f 17/17/17 19/19/19 18/18/18
f 17/17/17 18/18/18 20/20/20
f 21/21/21 23/23/23 22/22/22
f 21/21/21 22/22/22 24/24/24
f 25/25/25 27/27/27 26/26/26
f 25/25/25 26/26/26 28/28/28
