#Wall-detach_689_24.obj

v -28 -1 -1
v -28 8 -1
v -32 -1 -1
v -32 8 -1
v -33 -6 -1
v -32 -6 -1
v -33 8 -1
v -32 -1 -1
v -32 8 -1
v -28 8 -1
v -28 -1 -1
v -27 8 -1
v -28 -6 -1
v -27 -6 -1
v -32 -1 -1
v -32 -6 -1
v -32 -1 0
v -32 -6 0
v -28 -6 -1
v -28 -1 -1
v -28 -6 0
v -28 -1 0
v -28 -1 -1
v -32 -1 -1
v -28 -1 0
v -32 -1 0

vn 0 0 -1
vn 0 0 -1
vn 0 0 -1
vn 0 0 -1
vn 0 0 -1
vn 0 0 -1
vn 0 0 -1
vn 0 0 -1
vn 0 0 -1
vn 0 0 -1
vn 0 0 -1
vn 0 0 -1
vn 0 0 -1
vn 0 0 -1
vn 1 0 0
vn 1 0 0
vn 1 0 0
vn 1 0 0
vn -1 0 0
vn -1 0 0
vn -1 0 0
vn -1 0 0
vn 0 -1 0
vn 0 -1 0
vn 0 -1 0
vn 0 -1 0

vt 0 0
vt 0 9
vt 4 0
vt 4 9
vt 0.9999988 0
vt -1.251698E-06 0
vt 1.000001 14
vt -3.576279E-07 5
vt 1.221895E-06 14
vt 1.000001 14
vt 0.9999996 5
vt 1.221895E-06 14
vt 0.9999988 0
vt -1.251698E-06 0
vt 1 5
vt 1 0
vt 0 5
vt 0 0
vt 0 0
vt 0 5
vt 1 0
vt 1 5
vt 4 0
vt 0 0
vt 4 1
vt 0 1

g Wall-detach_689_24
usemtl Wall-detach_689_24
usemap Wall-detach_689_24
f 1/1/1 3/3/3 2/2/2
f 2/2/2 3/3/3 4/4/4
f 5/5/5 7/7/7 6/6/6
f 6/6/6 7/7/7 8/8/8
f 8/8/8 7/7/7 9/9/9
f 10/10/10 12/12/12 11/11/11
f 13/13/13 12/12/12 14/14/14
f 11/11/11 12/12/12 13/13/13
f 15/15/15 17/17/17 16/16/16
f 16/16/16 17/17/17 18/18/18
f 19/19/19 21/21/21 20/20/20
f 20/20/20 21/21/21 22/22/22
f 23/23/23 25/25/25 24/24/24
f 24/24/24 25/25/25 26/26/26
