#Wall-detach_1192_72.obj

v 21 -2 -9
v 21 -2 6
v 21 1 -9
v 21 1 6
v 21 -2 -17
v 21 -2 -12
v 21 1 -17
v 21 1 -12
v 21 1 11
v 21 -2 11
v 21 -2 20
v 21 1 20
v 26 -2 -17
v 26 1 -17
v 26 -2 7
v 26 1 7
v 26 1 11
v 26 1 20
v 26 -2 11
v 26 -2 20

vn 1 0 0
vn 1 0 0
vn 1 0 0
vn 1 0 0
vn 1 0 0
vn 1 0 0
vn 1 0 0
vn 1 0 0
vn 1 0 0
vn 1 0 0
vn 1 0 0
vn 1 0 0
vn -1 0 0
vn -1 0 0
vn -1 0 0
vn -1 0 0
vn -1 0 0
vn -1 0 0
vn -1 0 0
vn -1 0 0

vt 15 0
vt 0 0
vt 15 3
vt 0 3
vt 5 0
vt 0 0
vt 5 3
vt 0 3
vt 10 3
vt 10 0
vt 1 0
vt 1 3
vt 0 0
vt 0 3
vt 24 0
vt 24 3
vt 0 3
vt 9 3
vt 0 0
vt 9 0

g Wall-detach_1192_72
usemtl Wall-detach_1192_72
usemap Wall-detach_1192_72
f 1/1/1 3/3/3 2/2/2
f 2/2/2 3/3/3 4/4/4
f 5/5/5 7/7/7 6/6/6
f 6/6/6 7/7/7 8/8/8
f 9/9/9 11/11/11 10/10/10
f 12/12/12 11/11/11 9/9/9
f 13/13/13 15/15/15 14/14/14
f 14/14/14 15/15/15 16/16/16
f 17/17/17 19/19/19 18/18/18
f 18/18/18 19/19/19 20/20/20
