#Wall_575_16.obj

v 3 1 -9
v -3 1 -9
v 3 3 -9
v -3 3 -9
v -3 1 -9
v -3 1 -15
v -3 3 -15
v -3 3 -9
v 3 1 -15
v 3 1 -9
v 3 3 -15
v 3 3 -9
v -3 1 -15
v 3 1 -15
v -3 3 -15
v 3 3 -15

vn 0 0 1
vn 0 0 1
vn 0 0 1
vn 0 0 1
vn -1 0 0
vn -1 0 0
vn -1 0 0
vn -1 0 0
vn 1 0 0
vn 1 0 0
vn 1 0 0
vn 1 0 0
vn 0 0 -1
vn 0 0 -1
vn 0 0 -1
vn 0 0 -1

vt 13 -1
vt 7 -1
vt 13 1
vt 7 1
vt 14 -1
vt 8 -1
vt 8 1
vt 14 1
vt -8 -1
vt -14 -1
vt -8 1
vt -14 1
vt -7 -1
vt -13 -1
vt -7 1
vt -13 1

g Wall_575_16
usemtl Wall_575_16
usemap Wall_575_16
f 1/1/1 3/3/3 2/2/2
f 2/2/2 3/3/3 4/4/4
f 5/5/5 7/7/7 6/6/6
f 8/8/8 7/7/7 5/5/5
f 9/9/9 11/11/11 10/10/10
f 10/10/10 11/11/11 12/12/12
f 13/13/13 15/15/15 14/14/14
f 14/14/14 15/15/15 16/16/16
