#Wall_553_9.obj

v 26 0 -25
v 25 0 -24.99999
v 26 3 -25
v 25 3 -24.99999
v 25.00002 3 -21.99999
v 26 3 -25
v 25 3 -24.99999
v 26.00002 3 -22
v 25.00002 0 -21.99999
v 26.00002 3 -22
v 25.00002 3 -21.99999
v 26.00002 0 -22
v 24.99998 0 -28.99999
v 25 3 -24.99999
v 25 0 -24.99999
v 24.99998 3 -28.99999
v 22.00013 5 4.000019
v 22.99998 5 -28.99998
v 23.00013 5 4.000015
v 21.99998 5 -28.99998
v 26.00005 0 -14
v 25.00005 0 -13.99999
v 26.00005 3 -14
v 25.00005 3 -13.99999
v 25.00007 3 -10.99999
v 26.00005 3 -14
v 25.00005 3 -13.99999
v 26.00007 3 -11
v 25.00006 0 -10.99999
v 26.00007 3 -11
v 25.00007 3 -10.99999
v 26.00006 0 -11
v 26.0001 0 -2.999998
v 25.0001 0 -2.999994
v 26.0001 3 -2.999997
v 25.0001 3 -2.999994
v 25.00011 3 5.722046E-06
v 26.0001 3 -2.999997
v 25.0001 3 -2.999994
v 26.00011 3 1.907349E-06
v 26.00007 3 -11
v 26.0001 0 -2.999998
v 26.0001 3 -2.999997
v 26.00006 0 -11
v 26.00002 3 -22
v 26.00005 0 -14
v 26.00005 3 -14
v 26.00002 0 -22
v 25.00013 3 4.000006
v 25.00011 0 5.722046E-06
v 25.00011 3 5.722046E-06
v 25.00013 0 4.000006
v 25.00006 0 -10.99999
v 25.0001 3 -2.999994
v 25.0001 0 -2.999994
v 25.00007 3 -10.99999
v 25.00002 0 -21.99999
v 25.00005 3 -13.99999
v 25.00005 0 -13.99999
v 25.00002 3 -21.99999
v 33 0 -29
v 26 4 -25
v 26 4 -29
v 33 0 -25
v 26 4 -14
v 26 3 -14
v 26 3 -11
v 26 4 -11
v 26 4 -11
v 26 3 -11
v 26 3 -2.999998
v 26 4 -2.999997
v 26 4 -2.999997
v 26 3 -2.999998
v 26 3 1.907349E-06
v 26 4 1.907349E-06
v 26 3 -14
v 26 4 -14
v 26 3 -22
v 26 4 -22
v 26 3 -22
v 26 4 -22
v 26 3 -25
v 26 4 -25
v 22 3 4.000002
v 21.99998 5 -28.99998
v 22.00013 5 4.000019
v 22 3 -29
v 25 3 -14
v 22 3 -29
v 22 3 4.000002
v 25 3 -11
v 25 3 -22
v 25 3 -25
v 24.99998 3 -28.99999
v 21.99998 3 -28.99998
v 25 3 -2.999998
v 25 3 1.907349E-06
v 21.99998 3 -28.99998
v 22 3 -29
v 25 3 -25
v 25.00013 3 4.000006
v 26.00013 4 4.000002
v 23.00013 4 4.000015
v 26 4 1.907349E-06
v 25 0 1.907349E-06
v 26.00011 3 1.907349E-06
v 25.00011 3 5.722046E-06
v 26 0 1.907349E-06
v 33 0 2.861023E-06
v 26.00013 4 4.000002
v 26 4 1.907349E-06
v 33 0 4.000003
v 33 0 2.861023E-06
v 26.00011 3 1.907349E-06
v 26 0 1.907349E-06
v 26 4 1.907349E-06
v 22.99998 4 -28.99998
v 25.99998 4 -29
v 26 4 -25
v 26 4 -14
v 23 4 -29
v 22.99998 4 -28.99998
v 26 4 -25
v 23 4 -29
v 23 4 4.000002
v 26 4 -2.999997
v 26 4 1.907349E-06
v 23 4 -29
v 23.00013 5 4.000015
v 22.99998 5 -28.99998
v 23 4 4.000002
v 26 0 -25
v 26 4 -25
v 33 0 -25
v 0 0 0
v 1 0 -3.814697E-06
v 0 3 0
v 1 3 -5.722046E-06
v 0.9999866 3 -3.000006
v 0 3 0
v 1 3 -5.722046E-06
v -1.335144E-05 3 -3
v 0.9999866 0 -3.000004
v -1.335144E-05 3 -3
v 0.9999866 3 -3.000006
v -1.335144E-05 0 -3
v 1.000017 0 3.999996
v 1 3 -5.722046E-06
v 1 0 -3.814697E-06
v 1.000017 3 3.999994
v 3.999868 5 -29.00002
v 3.000019 5 3.999987
v 2.999868 5 -29.00001
v 4.000019 5 3.999981
v -4.959106E-05 0 -11
v 0.9999504 0 -11
v -5.149841E-05 3 -11
v 0.9999485 3 -11
v 0.9999371 3 -14
v -5.149841E-05 3 -11
v 0.9999485 3 -11
v -6.29425E-05 3 -14
v 0.9999371 0 -14
v -6.29425E-05 3 -14
v 0.9999371 3 -14
v -6.29425E-05 0 -14
v -9.918213E-05 0 -22
v 0.9999008 0 -22
v -9.918213E-05 3 -22
v 0.9999008 3 -22.00001
v 0.9998875 3 -25.00001
v -9.918213E-05 3 -22
v 0.9999008 3 -22.00001
v -0.0001125336 3 -25
v -6.29425E-05 3 -14
v -9.918213E-05 0 -22
v -9.918213E-05 3 -22
v -6.29425E-05 0 -14
v -1.335144E-05 3 -3
v -4.959106E-05 0 -11
v -5.149841E-05 3 -11
v -1.335144E-05 0 -3
v 0.9998684 3 -29
v 0.9998875 0 -25
v 0.9998875 3 -25.00001
v 0.9998684 0 -29
v 0.9999371 0 -14
v 0.9999008 3 -22.00001
v 0.9999008 0 -22
v 0.9999371 3 -14
v 0.9999866 0 -3.000004
v 0.9999485 3 -11
v 0.9999504 0 -11
v 0.9999866 3 -3.000006
v -7 0 4
v 0 4 0
v 0 4 4
v -7 0 0
v 0 4 -11
v 0 3 -11
v 0 3 -14
v 0 4 -14
v 0 4 -14
v 0 3 -14
v 0 3 -22
v 0 4 -22
v 0 4 -22
v 0 3 -22
v 0 3 -25
v 0 4 -25
v 0 3 -11
v 0 4 -11
v 0 3 -3
v 0 4 -3
v 0 3 -3
v 0 4 -3
v 0 3 0
v 0 4 0
v 4 3 -29
v 4.000019 5 3.999981
v 3.999868 5 -29.00002
v 4 3 4
v 1 3 -11
v 4 3 4
v 4 3 -29
v 1 3 -14
v 1 3 -3
v 1 3 0
v 1.000017 3 3.999994
v 4.000021 3 3.999979
v 1 3 -22
v 1 3 -25
v 4.000021 3 3.999979
v 4 3 4
v 1 3 0
v 3.999868 3 -29.00002
v 0.9998684 3 -29
v 1 3 -25
v 3.999868 3 -29.00002
v 1 0 -25
v -0.0001125336 3 -25
v 0.9998875 3 -25.00001
v 0 0 -25
v -7 0 -25
v -0.0001316071 4 -29
v 0 4 -25
v -7 0 -29
v -7 0 -25
v -0.0001125336 3 -25
v 0 0 -25
v 0 4 -25
v 3.000021 4 3.999987
v 1.716614E-05 4 4
v 0 4 0
v 3.000021 4 3.999987
v 0 4 0
v 3 4 4
v 3 4 -29
v 0 4 -22
v 0 4 -25
v 0 4 -11
v 3 4 4
v 0 4 0
v -0.0001316071 4 -29
v 3 4 4
v 2.999868 5 -29.00001
v 3.000019 5 3.999987
v 3 4 -29
v 0 0 0
v 0 4 0
v -7 0 0

vn 3.814697E-06 0 1
vn 4.768372E-06 -3.178914E-07 1
vn 4.768372E-06 -3.178914E-07 1
vn 5.722046E-06 -6.357829E-07 1
vn 0 -1 0
vn 0 -1 0
vn 0 -1 0
vn 0 -1 0
vn -4.768372E-06 3.178914E-07 -1
vn -4.768372E-06 3.178914E-07 -1
vn -5.722046E-06 6.357829E-07 -1
vn -3.814697E-06 0 -1
vn -1 -2.576902E-12 4.291534E-06
vn -1 -2.576902E-12 4.291534E-06
vn -1 -2.425319E-12 4.291534E-06
vn -1 -2.728484E-12 4.291534E-06
vn 0 1 0
vn 0 1 0
vn 0 1 0
vn 0 1 0
vn 4.768372E-06 -3.178945E-07 1
vn 4.291534E-06 -1.589485E-07 1
vn 4.291534E-06 -1.589485E-07 1
vn 3.814697E-06 -2.425319E-12 1
vn 0 -1 0
vn 0 -1 0
vn 0 -1 0
vn 0 -1 0
vn -4.291534E-06 1.589485E-07 -1
vn -4.291534E-06 1.589485E-07 -1
vn -3.814697E-06 2.425319E-12 -1
vn -4.768372E-06 3.178945E-07 -1
vn 3.33786E-06 -7.947286E-08 1
vn 3.218651E-06 -3.973643E-08 1
vn 3.218651E-06 -3.973643E-08 1
vn 3.099442E-06 0 1
vn 0 -0.9999999 0
vn 0 -0.9999999 0
vn 0 -1 0
vn 0 -0.9999999 0
vn 1 -3.178902E-07 -4.172325E-06
vn 1 -3.178902E-07 -4.172325E-06
vn 1 1.21266E-12 -4.053116E-06
vn 1 -6.357816E-07 -4.291534E-06
vn 1 -3.178908E-07 -4.649162E-06
vn 1 -3.178908E-07 -4.649162E-06
vn 1 -6.357816E-07 -4.768371E-06
vn 1 0 -4.529953E-06
vn -1 0 4.768372E-06
vn -1 0 4.768372E-06
vn -1 0 4.768372E-06
vn -1 0 4.768372E-06
vn -0.9999999 3.178914E-07 4.172326E-06
vn -0.9999999 3.178914E-07 4.172326E-06
vn -0.9999999 0 4.291535E-06
vn -0.9999999 6.357829E-07 4.053116E-06
vn -1 3.178899E-07 4.649162E-06
vn -1 3.178899E-07 4.649162E-06
vn -1 6.357828E-07 4.529953E-06
vn -1 -3.031649E-12 4.768372E-06
vn 0.4961389 0.8682432 -1.182887E-07
vn 0.4961389 0.8682432 -1.182887E-07
vn 0.4961388 0.8682432 -2.365774E-07
vn 0.4961389 0.8682431 0
vn 0.9999999 0 0
vn 1 0 0
vn 0.9999999 0 0
vn 1 0 0
vn 1 -2.842171E-14 2.384186E-07
vn 1 0 2.384186E-07
vn 1 -2.842171E-14 2.384186E-07
vn 1 -5.684341E-14 2.384186E-07
vn 0.9999999 0 0
vn 0.9999999 0 0
vn 0.9999999 0 0
vn 0.9999999 0 0
vn 1 0 0
vn 1 0 0
vn 1 0 0
vn 1 0 0
vn 1 0 0
vn 1 -9.536743E-07 3.178914E-07
vn 1 -9.536743E-07 3.178914E-07
vn 1 -1.907349E-06 6.357829E-07
vn -1 2.813337E-05 2.22524E-06
vn -1 2.813337E-05 2.22524E-06
vn -1 6.580348E-05 4.508279E-06
vn -1 -9.536742E-06 -5.779845E-08
vn 0 -1 0
vn 0 -1 0
vn 0 -1 0
vn 0 -1 0
vn 0 -1 0
vn 0 -1 0
vn 0 -0.9999999 0
vn 0 -0.9999999 0
vn 0 -1 0
vn 0 -1 0
vn 0 1 0
vn 0 1 0
vn 0 1 0
vn 0 -1 0
vn 0 1 0
vn 0 1 0
vn 0 1 0
vn -1.907349E-06 6.358545E-07 -1
vn -1.907349E-06 6.358545E-07 -1
vn -3.814697E-06 1.271709E-06 -1
vn 0 0 -1
vn 0.4961424 0.8682411 -8.161981E-06
vn 0.4961424 0.8682411 -8.161981E-06
vn 0.496139 0.8682432 -1.632385E-05
vn 0.496146 0.8682392 0
vn 1.362414E-07 0 -1
vn 1.362414E-07 0 -1
vn 1.362392E-07 -5.110494E-12 -1
vn 1.362479E-07 1.533247E-11 -1
vn 0 0.9999999 0
vn 0 0.9999999 0
vn 0 1 0
vn 0 1 0
vn 0 1 0
vn 0 -1 0
vn 0 -1 0
vn 0 -1 0
vn 0 0.9999999 0
vn 0 1 0
vn 0 1 0
vn 1 -5.626676E-05 -2.22524E-06
vn 1 -5.626676E-05 -2.22524E-06
vn 1 1.907355E-05 -4.508279E-06
vn 1 -0.0001316071 5.779845E-08
vn -2.724783E-07 1.299278E-13 1
vn -2.724783E-07 1.299278E-13 1
vn -2.724783E-07 1.299278E-13 1
vn -3.814697E-06 0 -1
vn -4.768372E-06 -3.178914E-07 -1
vn -4.768372E-06 -3.178914E-07 -1
vn -5.722046E-06 -6.357829E-07 -1
vn 0 -1 0
vn 0 -1 0
vn 0 -1 0
vn 0 -1 0
vn 4.768372E-06 3.178914E-07 1
vn 4.768372E-06 3.178914E-07 1
vn 5.722046E-06 6.357829E-07 1
vn 3.814697E-06 0 1
vn 1 -2.576902E-12 -4.291534E-06
vn 1 -2.576902E-12 -4.291534E-06
vn 1 -2.425319E-12 -4.291534E-06
vn 1 -2.728484E-12 -4.291534E-06
vn 0 1 0
vn 0 1 0
vn 0 1 0
vn 0 1 0
vn -4.768372E-06 -3.031649E-12 -1
vn -4.768372E-06 -3.031649E-12 -1
vn -4.768372E-06 -3.031649E-12 -1
vn -4.768372E-06 -3.031649E-12 -1
vn 0 -1 0
vn 0 -1 0
vn 0 -1 0
vn 0 -1 0
vn 4.768372E-06 0 1
vn 4.768372E-06 0 1
vn 4.768372E-06 0 1
vn 4.768372E-06 0 1
vn -3.814697E-06 0 -1
vn -4.768372E-06 -3.178914E-07 -1
vn -4.768372E-06 -3.178914E-07 -1
vn -5.722046E-06 -6.357829E-07 -1
vn 0 -1 0
vn 0 -1 0
vn 0 -1 0
vn 0 -1 0
vn -1 0 4.529953E-06
vn -1 0 4.529953E-06
vn -1 0 4.529953E-06
vn -1 0 4.529953E-06
vn -1 -3.178914E-07 4.649162E-06
vn -1 -3.178914E-07 4.649162E-06
vn -1 -6.357829E-07 4.768372E-06
vn -1 0 4.529953E-06
vn 0.9999999 -1.515825E-12 -4.768372E-06
vn 0.9999999 -1.515825E-12 -4.768372E-06
vn 1 -3.03165E-12 -4.768374E-06
vn 1 0 -4.768372E-06
vn 1 -1.21266E-12 -4.529953E-06
vn 1 -1.21266E-12 -4.529953E-06
vn 0.9999999 -2.425319E-12 -4.529953E-06
vn 1 0 -4.529953E-06
vn 1 3.178899E-07 -4.649162E-06
vn 1 3.178899E-07 -4.649162E-06
vn 1 6.357828E-07 -4.529953E-06
vn 1 -3.031649E-12 -4.768372E-06
vn -0.4961389 0.8682431 0
vn -0.4961389 0.8682431 0
vn -0.4961389 0.8682431 0
vn -0.4961389 0.8682431 0
vn -1 0 0
vn -1 0 0
vn -1 0 0
vn -1 0 0
vn -1 0 0
vn -1 0 0
vn -1 0 0
vn -1 0 0
vn -1 0 0
vn -1 0 0
vn -1 0 0
vn -1 0 0
vn -1 0 0
vn -1 0 0
vn -1 0 0
vn -1 0 0
vn -1 0 0
vn -1 0 0
vn -1 0 0
vn -1 0 0
vn 1 2.813337E-05 -2.283039E-06
vn 1 2.813337E-05 -2.283039E-06
vn 1 6.580348E-05 -4.566077E-06
vn 1 -9.536743E-06 0
vn 0 -1 0
vn 0 -1 0
vn 0 -0.9999999 0
vn 0 -1 0
vn 0 -1 0
vn 0 -1 0
vn 0 -0.9999999 0
vn 0 -0.9999999 0
vn 0 -1 0
vn 0 -1 0
vn 0 1 0
vn 0 1 0
vn 0 1 0
vn 0 -1 0
vn 0 -1 0
vn 0 -1 0
vn 0 -1 0
vn 2.861023E-06 9.537816E-07 1
vn 2.861023E-06 9.537816E-07 1
vn 5.722046E-06 1.907563E-06 1
vn 0 0 1
vn -0.4961424 0.8682411 8.161981E-06
vn -0.4961424 0.8682411 8.161981E-06
vn -0.4961389 0.8682431 1.632385E-05
vn -0.496146 0.8682392 0
vn 0 0 1
vn 0 0 1
vn 0 0 1
vn 0 0 1
vn 0 0.9999999 0
vn 0 0.9999999 0
vn 0 0.9999999 0
vn 0 -1 0
vn 0 -1 0
vn 0 -1 0
vn 0 0.9999999 0
vn 0 0.9999999 0
vn 0 1 0
vn 0 1 0
vn 0 0.9999999 0
vn 0 1 0
vn 0 1 0
vn -1 -5.626676E-05 2.283039E-06
vn -1 -5.626676E-05 2.283039E-06
vn -1 1.907355E-05 4.566077E-06
vn -1 -0.0001316071 0
vn 0 0 -1
vn 0 0 -1
vn 0 0 -1

vt 1 0
vt 0 0
vt 1 3
vt 0 3
vt 1.525879E-05 3.000008
vt 1.000002 1.907349E-06
vt 1.907349E-06 7.629395E-06
vt 1.000015 3.000002
vt 1 1.192093E-07
vt 0 3
vt 1 3
vt 0 1.192093E-07
vt -1.907349E-06 0
vt 4 3
vt 3.999998 0
vt 0 3
vt 1 33
vt 0.0001487732 0
vt 0 33
vt 1.000149 5.722046E-06
vt 1 1.192093E-07
vt 0 1.192093E-07
vt 1.000002 3
vt 1.907349E-06 3
vt 1.335144E-05 3.000004
vt 1 0
vt 0 3.814697E-06
vt 1.000013 3
vt 1 0
vt -1.907349E-06 3
vt 0.9999981 3
vt 0 0
vt 1 0
vt 0 0
vt 1 3
vt 0 3
vt 1.335144E-05 3.000003
vt 1 0
vt 0 3.099442E-06
vt 1.000013 2.999999
vt 7.999999 3
vt 0 0
vt 0 3
vt 8 0
vt 8 3
vt 0 1.192093E-07
vt -9.536743E-07 3
vt 8 1.192093E-07
vt 4 3
vt 0 0
vt 0 3
vt 4 0
vt 0 0
vt 7.999999 3
vt 7.999999 0
vt 0 3
vt 0 -1.192093E-07
vt 8.000002 3
vt 8.000002 -1.192093E-07
vt 1.907349E-06 3
vt 0 0
vt 7.999999 4
vt 8.000001 0
vt 0 4
vt 2.999999 1
vt 3 0
vt 0 0
vt 0 1
vt 8.000001 1
vt 8.000001 0
vt 0 0
vt -4.768372E-07 1
vt 2.999999 1
vt 3 0
vt 0 0
vt 0 1
vt 0 0
vt -9.536743E-07 1
vt 8 0
vt 8 1
vt 0 0
vt 0 1
vt 3 0
vt 3 1
vt 33 0
vt 1.716614E-05 2
vt 33.00002 2
vt -1.907349E-06 0
vt 3.000021 15
vt 2.098083E-05 -1.907349E-06
vt 1.907349E-05 33
vt 3.000021 18
vt 3.000021 6.999998
vt 3.000021 3.999998
vt 3.000004 3.814697E-06
vt 0 1.907349E-05
vt 3.000019 26
vt 3.000019 29
vt 0 1.907349E-05
vt 2.098083E-05 -1.907349E-06
vt 3.000021 3.999998
vt 3.000151 33
vt -1.907349E-06 4
vt 2.999998 4.000013
vt 0.0001296997 0
vt 1.000114 0
vt 1.907349E-06 3
vt 1.000002 3
vt 0.0001144409 0
vt 0 1.192093E-06
vt 7.999943 4
vt 8.000057 2.384186E-07
vt 0 4.000001
vt 0 0
vt 6.999887 3
vt 7 0
vt 7 4
vt 3.000023 1.335144E-05
vt 1.907349E-05 0
vt 0 4
vt 1.907349E-06 15
vt 3.000002 0
vt 3.000023 1.335144E-05
vt 0 4
vt 3.000002 0
vt 3.000004 33
vt 3.814697E-06 26
vt 3.814697E-06 29
vt 33.00002 0
vt 0 1
vt 33 1
vt 1.335144E-05 0
vt -1.907349E-06 0
vt 0 4
vt 7 0
vt 1 0
vt 0 0
vt 1 3
vt 0 3
vt 1 0
vt 1.335144E-05 3.000006
vt 1.000013 3
vt 0 5.722046E-06
vt 1 0
vt 0 3
vt 1 3
vt 0 0
vt 0 0
vt 4.000002 3
vt 4 0
vt 1.907349E-06 3
vt 0.0001506805 0
vt 1 33
vt 1.000151 3.814697E-06
vt 0 33
vt 1 0
vt 0 0
vt 1.000002 3
vt 1.907349E-06 3
vt 1 -9.536743E-07
vt 1.144409E-05 3.000004
vt 1.000011 2.999999
vt 0 3.814697E-06
vt 1 0
vt 0 3
vt 1 3
vt 0 0
vt 1 0
vt 0 0
vt 1 3
vt 0 3
vt 1 1.907349E-06
vt 1.335144E-05 3.000008
vt 1.000013 3.000002
vt 0 7.629395E-06
vt 8 3
vt 0 0
vt 0 3
vt 8 0
vt 8 3
vt 0 0
vt 0 3
vt 8 0
vt 4 3
vt 0 0
vt 1.907349E-06 3
vt 4 0
vt 9.536743E-07 0
vt 8.000003 3
vt 8.000001 0
vt 9.536743E-07 3
vt 4.768372E-07 1.192093E-07
vt 8.000001 3
vt 8.000001 1.192093E-07
vt 2.145767E-06 3
vt 8 4
vt 0 0
vt 0 4
vt 8 0
vt 3 1
vt 3 0
vt 0 0
vt 0 1
vt 8 1
vt 8 0
vt 0 0
vt 0 1
vt 3 1
vt 3 0
vt 0 0
vt 0 1
vt 0 0
vt 0 1
vt 8 0
vt 8 1
vt 0 0
vt 0 1
vt 3 0
vt 3 1
vt 33 0
vt 1.716614E-05 2
vt 33.00002 2
vt 0 0
vt 0.0001316071 18.00002
vt 3.000132 33.00002
vt 3.000132 1.525879E-05
vt 0.0001316071 15.00002
vt 0.0001316071 26.00002
vt 0.0001316071 29.00002
vt 0.0001487732 33.00001
vt 3.000153 32.99999
vt 0.0001316071 7.000015
vt 0.0001316071 4.000015
vt 3.000153 32.99999
vt 3.000132 33.00002
vt 0.0001316071 29.00002
vt 3 -1.907349E-06
vt 0 1.144409E-05
vt 0.0001316071 4.000015
vt 3 -1.907349E-06
vt 1.000113 0
vt 0 3
vt 1 3
vt 0.0001125336 0
vt 8 4
vt 0.0001144409 0
vt 0 4
vt 8 0
vt 0 0
vt 6.999887 3
vt 7 0
vt 7 4
vt 0 3.999987
vt 3.000004 4
vt 3.000021 0
vt 0 3.999987
vt 3.000021 0
vt 2.098083E-05 4
vt 0 0
vt 3 7
vt 3 4
vt 3 18
vt 0 33
vt 3 29
vt 3.000132 0
vt 33.00002 0
vt 0 1
vt 33 1
vt 1.335144E-05 0
vt 0 0
vt 0 4
vt 7 0

g Wall_553_9
usemtl Wall_553_9
usemap Wall_553_9
f 1/1/1 3/3/3 2/2/2
f 2/2/2 3/3/3 4/4/4
f 5/5/5 7/7/7 6/6/6
f 5/5/5 6/6/6 8/8/8
f 9/9/9 11/11/11 10/10/10
f 9/9/9 10/10/10 12/12/12
f 13/13/13 15/15/15 14/14/14
f 13/13/13 14/14/14 16/16/16
f 17/17/17 19/19/19 18/18/18
f 17/17/17 18/18/18 20/20/20
f 21/21/21 23/23/23 22/22/22
f 22/22/22 23/23/23 24/24/24
f 25/25/25 27/27/27 26/26/26
f 25/25/25 26/26/26 28/28/28
f 29/29/29 31/31/31 30/30/30
f 29/29/29 30/30/30 32/32/32
f 33/33/33 35/35/35 34/34/34
f 34/34/34 35/35/35 36/36/36
f 37/37/37 39/39/39 38/38/38
f 37/37/37 38/38/38 40/40/40
f 41/41/41 43/43/43 42/42/42
f 41/41/41 42/42/42 44/44/44
f 45/45/45 47/47/47 46/46/46
f 45/45/45 46/46/46 48/48/48
f 49/49/49 51/51/51 50/50/50
f 49/49/49 50/50/50 52/52/52
f 53/53/53 55/55/55 54/54/54
f 53/53/53 54/54/54 56/56/56
f 57/57/57 59/59/59 58/58/58
f 57/57/57 58/58/58 60/60/60
f 61/61/61 63/63/63 62/62/62
f 61/61/61 62/62/62 64/64/64
f 65/65/65 67/67/67 66/66/66
f 68/68/68 67/67/67 65/65/65
f 69/69/69 71/71/71 70/70/70
f 72/72/72 71/71/71 69/69/69
f 73/73/73 75/75/75 74/74/74
f 76/76/76 75/75/75 73/73/73
f 77/77/77 79/79/79 78/78/78
f 78/78/78 79/79/79 80/80/80
f 81/81/81 83/83/83 82/82/82
f 82/82/82 83/83/83 84/84/84
f 85/85/85 87/87/87 86/86/86
f 85/85/85 86/86/86 88/88/88
f 89/89/89 91/91/91 90/90/90
f 92/92/92 91/91/91 89/89/89
f 93/93/93 89/89/89 90/90/90
f 90/90/90 94/94/94 93/93/93
f 95/95/95 94/94/94 96/96/96
f 92/92/92 97/97/97 91/91/91
f 97/97/97 98/98/98 91/91/91
f 99/99/99 101/101/101 100/100/100
f 91/91/91 98/98/98 102/102/102
f 91/91/91 98/98/98 91/91/91
f 103/103/103 105/105/105 104/104/104
f 105/105/105 104/104/104 104/104/104
f 106/106/106 108/108/108 107/107/107
f 106/106/106 107/107/107 109/109/109
f 110/110/110 112/112/112 111/111/111
f 110/110/110 111/111/111 113/113/113
f 114/114/114 116/116/116 115/115/115
f 114/114/114 115/115/115 117/117/117
f 118/118/118 120/120/120 119/119/119
f 120/120/120 122/122/122 121/121/121
f 123/123/123 125/125/125 124/124/124
f 126/126/126 128/128/128 127/127/127
f 121/121/121 122/122/122 127/127/127
f 127/127/127 122/122/122 126/126/126
f 129/129/129 131/131/131 130/130/130
f 129/129/129 130/130/130 132/132/132
f 133/133/133 135/135/135 134/134/134
f 136/136/136 138/138/138 137/137/137
f 137/137/137 138/138/138 139/139/139
f 140/140/140 142/142/142 141/141/141
f 140/140/140 141/141/141 143/143/143
f 144/144/144 146/146/146 145/145/145
f 144/144/144 145/145/145 147/147/147
f 148/148/148 150/150/150 149/149/149
f 148/148/148 149/149/149 151/151/151
f 152/152/152 154/154/154 153/153/153
f 152/152/152 153/153/153 155/155/155
f 156/156/156 158/158/158 157/157/157
f 157/157/157 158/158/158 159/159/159
f 160/160/160 162/162/162 161/161/161
f 160/160/160 161/161/161 163/163/163
f 164/164/164 166/166/166 165/165/165
f 164/164/164 165/165/165 167/167/167
f 168/168/168 170/170/170 169/169/169
f 169/169/169 170/170/170 171/171/171
f 172/172/172 174/174/174 173/173/173
f 172/172/172 173/173/173 175/175/175
f 176/176/176 178/178/178 177/177/177
f 176/176/176 177/177/177 179/179/179
f 180/180/180 182/182/182 181/181/181
f 180/180/180 181/181/181 183/183/183
f 184/184/184 186/186/186 185/185/185
f 184/184/184 185/185/185 187/187/187
f 188/188/188 190/190/190 189/189/189
f 188/188/188 189/189/189 191/191/191
f 192/192/192 194/194/194 193/193/193
f 192/192/192 193/193/193 195/195/195
f 196/196/196 198/198/198 197/197/197
f 196/196/196 197/197/197 199/199/199
f 200/200/200 202/202/202 201/201/201
f 203/203/203 202/202/202 200/200/200
f 204/204/204 206/206/206 205/205/205
f 207/207/207 206/206/206 204/204/204
f 208/208/208 210/210/210 209/209/209
f 211/211/211 210/210/210 208/208/208
f 212/212/212 214/214/214 213/213/213
f 213/213/213 214/214/214 215/215/215
f 216/216/216 218/218/218 217/217/217
f 217/217/217 218/218/218 219/219/219
f 220/220/220 222/222/222 221/221/221
f 220/220/220 221/221/221 223/223/223
f 224/224/224 226/226/226 225/225/225
f 227/227/227 226/226/226 224/224/224
f 228/228/228 224/224/224 225/225/225
f 225/225/225 229/229/229 228/228/228
f 230/230/230 229/229/229 231/231/231
f 227/227/227 232/232/232 226/226/226
f 232/232/232 233/233/233 226/226/226
f 234/234/234 236/236/236 235/235/235
f 237/237/237 239/239/239 238/238/238
f 226/226/226 233/233/233 240/240/240
f 241/241/241 243/243/243 242/242/242
f 241/241/241 242/242/242 244/244/244
f 245/245/245 247/247/247 246/246/246
f 245/245/245 246/246/246 248/248/248
f 249/249/249 251/251/251 250/250/250
f 249/249/249 250/250/250 252/252/252
f 253/253/253 255/255/255 254/254/254
f 256/256/256 258/258/258 257/257/257
f 259/259/259 261/261/261 260/260/260
f 262/262/262 263/263/263 260/260/260
f 260/260/260 263/263/263 259/259/259
f 264/264/264 263/263/263 262/262/262
f 265/265/265 261/261/261 259/259/259
f 266/266/266 268/268/268 267/267/267
f 266/266/266 267/267/267 269/269/269
f 270/270/270 272/272/272 271/271/271
