#Wall-detach_980_64.obj

v -34 -6 -6
v -34 -6 -26
v -34 1 -6
v -34 1 -26
v -34 -6 -26
v -33 -6 -26
v -34 1 -26
v -33 1 -26
v -33 -6 -26
v -33 -6 -6
v -33 1 -26
v -33 1 -6
v -33 1 -6
v -34 1 -6
v -33 1 -26
v -34 1 -26
v -50 8 -11
v -50 -6 5
v -50 8 5
v -50 -6 -11
v -44 -6 21
v -62 8 21
v -62 -6 21
v -44 8 21
v -44 1 3
v -44 8 21
v -44 1 21
v -44 8 -6
v -37 8 -11
v -50 -6 -11
v -50 8 -11
v -37 -6 -11
v -37 8 -33
v -37 -6 -11
v -37 8 -11
v -37 -6 -33
v -44 8 -6
v -44 1 3
v -44 -1 -6
v -33 8 -6
v -33 1 -6
v -33 8 -1
v -33 -6 -6
v -33 -6 -1
v -44 -6 -6
v -33 -6 -6
v -44 -1 -6
v -33 1 -6
v -33 8 -6
v -44 8 -6

vn -1 0 0
vn -1 0 0
vn -1 0 0
vn -1 0 0
vn 0 0 -1
vn 0 0 -1
vn 0 0 -1
vn 0 0 -1
vn 1 0 0
vn 1 0 0
vn 1 0 0
vn 1 0 0
vn 0 1 0
vn 0 1 0
vn 0 1 0
vn 0 1 0
vn 1 0 0
vn 1 0 0
vn 1 0 0
vn 1 0 0
vn 0 0 -1
vn 0 0 -1
vn 0 0 -1
vn 0 0 -1
vn -1 0 0
vn -1 0 0
vn -1 0 0
vn -0.9999999 0 0
vn 0 0 1
vn 0 0 1
vn 0 0 1
vn 0 0 1
vn 1 0 0
vn 1 0 0
vn 1 0 0
vn 1 0 0
vn -1 0 0
vn -1 0 0
vn -1 0 0
vn 1 0 0
vn 1 0 0
vn 1 0 0
vn 1 0 0
vn 1 0 0
vn 0 0 -0.9999999
vn 0 0 -1
vn 0 0 -1
vn 0 0 -1
vn 0 0 -1
vn 0 0 -1

vt 20 0
vt 0 0
vt 20 7
vt 0 7
vt 1 0
vt 0 0
vt 1 7
vt 0 7
vt 20 0
vt 0 0
vt 20 7
vt 0 7
vt 0 20
vt 1 20
vt 0 0
vt 1 0
vt 16 14
vt 0 0
vt 0 14
vt 16 0
vt 0 0
vt 18 14
vt 18 0
vt 0 14
vt 9 0
vt 27 7
vt 27 0
vt 0 7
vt 13 14
vt 0 0
vt 0 14
vt 13 0
vt 22 14
vt 0 0
vt 0 14
vt 22 0
vt 0 9
vt 9 2
vt 0 0
vt 5 14
vt 5 7
vt 0 14
vt 5 0
vt 0 0
vt 11 0
vt 0 0
vt 11 5
vt 0 7
vt 0 14
vt 11 14

g Wall-detach_980_64
usemtl Wall-detach_980_64
usemap Wall-detach_980_64
f 1/1/1 3/3/3 2/2/2
f 2/2/2 3/3/3 4/4/4
f 5/5/5 7/7/7 6/6/6
f 6/6/6 7/7/7 8/8/8
f 9/9/9 11/11/11 10/10/10
f 10/10/10 11/11/11 12/12/12
f 13/13/13 15/15/15 14/14/14
f 14/14/14 15/15/15 16/16/16
f 17/17/17 19/19/19 18/18/18
f 17/17/17 18/18/18 20/20/20
f 21/21/21 23/23/23 22/22/22
f 21/21/21 22/22/22 24/24/24
f 25/25/25 27/27/27 26/26/26
f 25/25/25 26/26/26 28/28/28
f 29/29/29 31/31/31 30/30/30
f 29/29/29 30/30/30 32/32/32
f 33/33/33 35/35/35 34/34/34
f 33/33/33 34/34/34 36/36/36
f 37/37/37 39/39/39 38/38/38
f 40/40/40 42/42/42 41/41/41
f 43/43/43 42/42/42 44/44/44
f 41/41/41 42/42/42 43/43/43
f 45/45/45 47/47/47 46/46/46
f 47/47/47 48/48/48 46/46/46
f 49/49/49 48/48/48 50/50/50
f 50/50/50 48/48/48 47/47/47
