#Wall_581_26.obj

v 34 1 9
v 31 1 9
v 34 1 -10
v 31 1 -10
v 34 0 9
v 31 0 9
v 34 1 9
v 31 1 9
v 31 0 9
v 31 0 -10
v 31 1 9
v 31 1 -10
v 31 0 -10
v 34 0 -10
v 31 1 -10
v 34 1 -10

vn 0 1 0
vn 0 1 0
vn 0 1 0
vn 0 1 0
vn 0 0 1
vn 0 0 1
vn 0 0 1
vn 0 0 1
vn -1 0 0
vn -1 0 0
vn -1 0 0
vn -1 0 0
vn 0 0 -1
vn 0 0 -1
vn 0 0 -1
vn 0 0 -1

vt 0 19
vt 3 19
vt 0 0
vt 3 0
vt 3 0
vt 0 0
vt 3 1
vt 0 1
vt 19 0
vt 0 0
vt 19 1
vt 0 1
vt 3 0
vt 0 0
vt 3 1
vt 0 1

g Wall_581_26
usemtl Wall_581_26
usemap Wall_581_26
f 1/1/1 3/3/3 2/2/2
f 2/2/2 3/3/3 4/4/4
f 5/5/5 7/7/7 6/6/6
f 6/6/6 7/7/7 8/8/8
f 9/9/9 11/11/11 10/10/10
f 10/10/10 11/11/11 12/12/12
f 13/13/13 15/15/15 14/14/14
f 14/14/14 15/15/15 16/16/16
