#Wall-detach_686_71.obj

v 0 0 -3
v 0 0 20
v 0 2 -3
v 0 2 20
v 0 4 20
v 0 4 -3
v 0 3 20
v 0 3 -3
v 0 3 -3
v 19 4 -3
v 19 3 -3
v 0 4 -3
v 0 0 -3
v 19 2 -3
v 19 0 -3
v 0 2 -3

vn 1 0 0
vn 1 0 0
vn 1 0 0
vn 1 0 0
vn 1 0 0
vn 1 0 0
vn 1 0 0
vn 1 0 0
vn 0 0 1
vn 0 0 1
vn 0 0 1
vn 0 0 1
vn 0 0 1
vn 0 0 1
vn 0 0 1
vn 0 0 1

vt 23 0
vt 0 0
vt 23 2
vt 0 2
vt 0 4
vt 23 4
vt 0 3
vt 23 3
vt 0 0
vt 19 1
vt 19 0
vt 0 1
vt 0 0
vt 19 2
vt 19 0
vt 0 2

g Wall-detach_686_71
usemtl Wall-detach_686_71
usemap Wall-detach_686_71
f 1/1/1 3/3/3 2/2/2
f 2/2/2 3/3/3 4/4/4
f 5/5/5 7/7/7 6/6/6
f 6/6/6 7/7/7 8/8/8
f 9/9/9 11/11/11 10/10/10
f 9/9/9 10/10/10 12/12/12
f 13/13/13 15/15/15 14/14/14
f 13/13/13 14/14/14 16/16/16
