#Wall_722_30.obj

v 1 4 -4
v 1 0 -2
v 1 4 -2
v 1 0 -4
v -1 0 -2
v -7 4 -2
v -7 0 -2
v -1 4 -2
v -1 0 -4
v -1 4 -2
v -1 0 -2
v -1 4 -4
v 1 0 -4
v -1 4 -4
v -1 0 -4
v 1 4 -4

vn 1 0 0
vn 1 0 0
vn 1 0 0
vn 1 0 0
vn 0 0 -1
vn 0 0 -1
vn 0 0 -1
vn 0 0 -1
vn -1 0 0
vn -1 0 0
vn -1 0 0
vn -1 0 0
vn 0 0 -1
vn 0 0 -1
vn 0 0 -1
vn 0 0 -1

vt 2 4
vt 0 0
vt 0 4
vt 2 0
vt 0 0
vt 6 4
vt 6 0
vt 0 4
vt 0 0
vt 2 4
vt 2 0
vt 0 4
vt 0 0
vt 2 4
vt 2 0
vt 0 4

g Wall_722_30
usemtl Wall_722_30
usemap Wall_722_30
f 1/1/1 3/3/3 2/2/2
f 1/1/1 2/2/2 4/4/4
f 5/5/5 7/7/7 6/6/6
f 5/5/5 6/6/6 8/8/8
f 9/9/9 11/11/11 10/10/10
f 9/9/9 10/10/10 12/12/12
f 13/13/13 15/15/15 14/14/14
f 13/13/13 14/14/14 16/16/16
