#Wall-detach_1147_50.obj

v 57 -7 11
v 55 -2 11
v 55 -7 11
v 57 -2 11
v 57 -7 24
v 57 -2 11
v 57 -7 11
v 57 -2 24
v 55 -7 24
v 57 -2 24
v 57 -7 24
v 55 -2 24
v 55 -7 37
v 55 -2 24
v 55 -7 24
v 55 -2 37
v 57 -7 37
v 55 -2 37
v 55 -7 37
v 57 -2 37
v 65 -2 5
v 66 -7 5
v 66 -2 5
v 65 -7 5
v 65 -2 30
v 65 -7 5
v 65 -2 5
v 65 -7 30
v 66 -2 30
v 65 -7 30
v 65 -2 30
v 66 -7 30
v 57 -2 37
v 57 -7 37
v 57 -7 38
v 57 -2 38
v 66 -7 30
v 66 -2 30
v 66 -7 44
v 66 -2 44
v 55 -7 11
v 55 -2 1
v 55 -7 1
v 55 -2 11

vn 0 0 -1
vn 0 0 -1
vn 0 0 -1
vn 0 0 -1
vn 1 0 0
vn 1 0 0
vn 1 0 0
vn 1 0 0
vn 0 0 1
vn 0 0 1
vn 0 0 1
vn 0 0 1
vn 1 0 0
vn 1 0 0
vn 1 0 0
vn 1 0 0
vn 0 0 -1
vn 0 0 -1
vn 0 0 -1
vn 0 0 -1
vn 0 0 -1
vn 0 0 -1
vn 0 0 -1
vn 0 0 -1
vn -1 0 0
vn -1 0 0
vn -1 0 0
vn -1 0 0
vn 0 0 1
vn 0 0 1
vn 0 0 1
vn 0 0 1
vn 1 0 0
vn 1 0 0
vn 1 0 0
vn 1 0 0
vn -1 0 0
vn -1 0 0
vn -1 0 0
vn -1 0 0
vn 1 0 0
vn 1 0 0
vn 1 0 0
vn 1 0 0

vt 0 0
vt 2 5
vt 2 0
vt 0 5
vt 0 0
vt 13 5
vt 13 0
vt 0 5
vt 0 0
vt 2 5
vt 2 0
vt 0 5
vt 0 0
vt 13 5
vt 13 0
vt 0 5
vt 0 0
vt 2 5
vt 2 0
vt 0 5
vt 1 5
vt 0 0
vt 0 5
vt 1 0
vt 25 5
vt 0 0
vt 0 5
vt 25 0
vt 1 5
vt 0 0
vt 0 5
vt 1 0
vt 1 5
vt 1 0
vt 0 0
vt 0 5
vt 0 0
vt 0 5
vt 14 0
vt 14 5
vt 0 0
vt 10 5
vt 10 0
vt 0 5

g Wall-detach_1147_50
usemtl Wall-detach_1147_50
usemap Wall-detach_1147_50
f 1/1/1 3/3/3 2/2/2
f 1/1/1 2/2/2 4/4/4
f 5/5/5 7/7/7 6/6/6
f 5/5/5 6/6/6 8/8/8
f 9/9/9 11/11/11 10/10/10
f 9/9/9 10/10/10 12/12/12
f 13/13/13 15/15/15 14/14/14
f 13/13/13 14/14/14 16/16/16
f 17/17/17 19/19/19 18/18/18
f 17/17/17 18/18/18 20/20/20
f 21/21/21 23/23/23 22/22/22
f 21/21/21 22/22/22 24/24/24
f 25/25/25 27/27/27 26/26/26
f 25/25/25 26/26/26 28/28/28
f 29/29/29 31/31/31 30/30/30
f 29/29/29 30/30/30 32/32/32
f 33/33/33 35/35/35 34/34/34
f 36/36/36 35/35/35 33/33/33
f 37/37/37 39/39/39 38/38/38
f 38/38/38 39/39/39 40/40/40
f 41/41/41 43/43/43 42/42/42
f 41/41/41 42/42/42 44/44/44
