#Wall-detach_676_46.obj

v 0 3 -17
v 7 3 -19
v 7 3 -17
v -1 3 -19
v 7 3 -19
v 11 5 -18
v 7 3 -18
v 11 5 -19
v 21 5 -19
v 11 5 -18
v 11 5 -19
v 21 5 -18
v 21 8 -19
v 21 5 -18
v 21 5 -19
v 21 8 -18

vn 0 1 0
vn 0 1 0
vn 0 1 0
vn 0 1 0
vn -0.4472136 0.8944272 0
vn -0.4472136 0.8944272 0
vn -0.4472136 0.8944272 0
vn -0.4472136 0.8944272 0
vn 0 1 0
vn 0 1 0
vn 0 1 0
vn 0 1 0
vn -1 0 0
vn -1 0 0
vn -1 0 0
vn -1 0 0

vt 7 2
vt 0 0
vt 0 2
vt 8 0
vt 4.472136 0
vt 0 1
vt 4.472136 1
vt 0 0
vt 0 0
vt 10 1
vt 10 0
vt 0 1
vt 0 3
vt 1 0
vt 0 0
vt 1 3

g Wall-detach_676_46
usemtl Wall-detach_676_46
usemap Wall-detach_676_46
f 1/1/1 3/3/3 2/2/2
f 1/1/1 2/2/2 4/4/4
f 5/5/5 7/7/7 6/6/6
f 5/5/5 6/6/6 8/8/8
f 9/9/9 11/11/11 10/10/10
f 9/9/9 10/10/10 12/12/12
f 13/13/13 15/15/15 14/14/14
f 13/13/13 14/14/14 16/16/16
