#Wall-detach_789_57.obj

v -14 4 -8
v -17 2 -8
v -17 4 -8
v -14 2 -8
v -10 2 -5
v -10 -3 -5
v -12 4 -5
v -12 -3 -5
v -10 4 -5
v -14 2 -8
v -14 4 -8
v -12 4 -8
v -12 -3 -8
v -14 -3 -8
v -12 4 -8
v -12 4 -5
v -12 -3 -8
v -12 -3 -5
v -21 4 -8
v -17 4 -8
v -17 2 -8
v -21 -3 -8
v -17 -3 -8
v -17 2 -11
v -17 -3 -8
v -17 2 -8
v -17 -3 -11
v -14 2 -8
v -17 2 -11
v -17 2 -8
v -14 2 -11
v -14 -3 -11
v -14 2 -8
v -14 -3 -8
v -14 2 -11

vn 0 0 1
vn 0 0 1
vn 0 0 1
vn 0 0 1
vn 0 0 1
vn 0 0 1
vn 0 0 1
vn 0 0 1
vn 0 0 1
vn 0 0 1
vn 0 0 1
vn 0 0 1
vn 0 0 1
vn 0 0 1
vn -1 0 0
vn -1 0 0
vn -1 0 0
vn -1 0 0
vn 0 0 1
vn 0 0 1
vn 0 0 1
vn 0 0 1
vn 0 0 1
vn 1 0 0
vn 1 0 0
vn 1 0 0
vn 1 0 0
vn 0 -1 0
vn 0 -1 0
vn 0 -1 0
vn 0 -1 0
vn -1 0 0
vn -1 0 0
vn -1 0 0
vn -1 0 0

vt 3 2
vt 0 0
vt 0 2
vt 3 0
vt 2 5
vt 2 0
vt 0 7
vt 0 0
vt 2 7
vt 0 5
vt 0 7
vt 2 7
vt 2 0
vt 0 0
vt 0 7
vt 3 7
vt 0 0
vt 3 0
vt 0 7
vt 4 7
vt 4 5
vt 0 0
vt 4 0
vt 3 5
vt 0 0
vt 0 5
vt 3 0
vt 3 3
vt 0 0
vt 0 3
vt 3 0
vt 0 0
vt 3 5
vt 3 0
vt 0 5

g Wall-detach_789_57
usemtl Wall-detach_789_57
usemap Wall-detach_789_57
f 1/1/1 3/3/3 2/2/2
f 1/1/1 2/2/2 4/4/4
f 5/5/5 7/7/7 6/6/6
f 6/6/6 7/7/7 8/8/8
f 9/9/9 7/7/7 5/5/5
f 10/10/10 12/12/12 11/11/11
f 10/10/10 13/13/13 12/12/12
f 14/14/14 13/13/13 10/10/10
f 15/15/15 17/17/17 16/16/16
f 16/16/16 17/17/17 18/18/18
f 19/19/19 21/21/21 20/20/20
f 19/19/19 22/22/22 21/21/21
f 21/21/21 22/22/22 23/23/23
f 24/24/24 26/26/26 25/25/25
f 24/24/24 25/25/25 27/27/27
f 28/28/28 30/30/30 29/29/29
f 28/28/28 29/29/29 31/31/31
f 32/32/32 34/34/34 33/33/33
f 32/32/32 33/33/33 35/35/35
