#Wall_726_27.obj

v -2 0 -1
v 1 0 -1
v -2 4 -1
v 1 4 -1
v 1 0 0
v 1 4 -1
v 1 0 -1
v 1 4 0
v -2 4 0
v -2 0 -1
v -2 4 -1
v -2 0 0

vn 0 0 -1
vn 0 0 -1
vn 0 0 -1
vn 0 0 -1
vn 1 0 0
vn 1 0 0
vn 1 0 0
vn 1 0 0
vn -1 0 0
vn -1 0 0
vn -1 0 0
vn -1 0 0

vt 3 0
vt 0 0
vt 3 4
vt 0 4
vt 0 0
vt 1 4
vt 1 0
vt 0 4
vt 1 4
vt 0 0
vt 0 4
vt 1 0

g Wall_726_27
usemtl Wall_726_27
usemap Wall_726_27
f 1/1/1 3/3/3 2/2/2
f 2/2/2 3/3/3 4/4/4
f 5/5/5 7/7/7 6/6/6
f 5/5/5 6/6/6 8/8/8
f 9/9/9 11/11/11 10/10/10
f 9/9/9 10/10/10 12/12/12
