#Wall-detach_1288_76.obj

v 31 1 -27
v 31 -2 -23
v 31 1 -23
v 31 -2 -27
v 37 1 -27
v 31 -2 -27
v 31 1 -27
v 37 -2 -27
v 31 -2 -15
v 31 1 -17
v 31 -2 -17
v 31 1 -15
v 32 -2 -15
v 31 1 -15
v 31 -2 -15
v 32 1 -15
v 32 1 -15
v 32 -2 -15
v 32 1 -14
v 32 -6 -15
v 32 -6 -14
v 36 -6 -15
v 36 -2 -15
v 36 -6 -14
v 36 1 -15
v 36 1 -14
v 37 -2 -15
v 36 1 -15
v 36 -2 -15
v 37 1 -15
v 31 1 -23
v 15 -2 -23
v 15 1 -23
v 31 -2 -23
v 31 -2 -17
v 26 1 -17
v 26 -2 -17
v 31 1 -17
v 10 1 -23
v 5 -2 -23
v 5 1 -23
v 10 -2 -23

vn 1 0 0
vn 1 0 0
vn 1 0 0
vn 1 0 0
vn 0 0 1
vn 0 0 1
vn 0 0 1
vn 0 0 1
vn 1 0 0
vn 1 0 0
vn 1 0 0
vn 1 0 0
vn 0 0 -1
vn 0 0 -1
vn 0 0 -1
vn 0 0 -1
vn 1 0 0
vn 1 0 0
vn 1 0 0
vn 1 0 0
vn 1 0 0
vn -1 0 0
vn -1 0 0
vn -1 0 0
vn -1 0 0
vn -1 0 0
vn 0 0 -1
vn 0 0 -1
vn 0 0 -1
vn 0 0 -1
vn 0 0 1
vn 0 0 1
vn 0 0 1
vn 0 0 1
vn 0 0 -1
vn 0 0 -1
vn 0 0 -1
vn 0 0 -1
vn 0 0 1
vn 0 0 1
vn 0 0 1
vn 0 0 1

vt 4 3
vt 0 0
vt 0 3
vt 4 0
vt 6 3
vt 0 0
vt 0 3
vt 6 0
vt 0 0
vt 2 3
vt 2 0
vt 0 3
vt 0 0
vt 1 3
vt 1 0
vt 0 3
vt 15 7
vt 15 4
vt 14 7
vt 15 0
vt 14 0
vt 0 0
vt 0 4
vt 1 0
vt 0 7
vt 1 7
vt 0 0
vt 1 3
vt 1 0
vt 0 3
vt 16 3
vt 0 0
vt 0 3
vt 16 0
vt 0 0
vt 5 3
vt 5 0
vt 0 3
vt 5 3
vt 0 0
vt 0 3
vt 5 0

g Wall-detach_1288_76
usemtl Wall-detach_1288_76
usemap Wall-detach_1288_76
f 1/1/1 3/3/3 2/2/2
f 1/1/1 2/2/2 4/4/4
f 5/5/5 7/7/7 6/6/6
f 5/5/5 6/6/6 8/8/8
f 9/9/9 11/11/11 10/10/10
f 9/9/9 10/10/10 12/12/12
f 13/13/13 15/15/15 14/14/14
f 13/13/13 14/14/14 16/16/16
f 17/17/17 19/19/19 18/18/18
f 18/18/18 21/21/21 20/20/20
f 19/19/19 21/21/21 18/18/18
f 22/22/22 24/24/24 23/23/23
f 23/23/23 26/26/26 25/25/25
f 24/24/24 26/26/26 23/23/23
f 27/27/27 29/29/29 28/28/28
f 27/27/27 28/28/28 30/30/30
f 31/31/31 33/33/33 32/32/32
f 31/31/31 32/32/32 34/34/34
f 35/35/35 37/37/37 36/36/36
f 35/35/35 36/36/36 38/38/38
f 39/39/39 41/41/41 40/40/40
f 39/39/39 40/40/40 42/42/42
