#Wall-detach_1197_96.obj

v 44 0 25
v 44 -7 25
v 35 0 25
v 35 -7 25
v 39 -7 35
v 35 0 35
v 35 -7 35
v 39 0 35
v 39 -7 29
v 39 0 35
v 39 -7 35
v 39 0 29
v 40 -7 29
v 39 0 29
v 39 -7 29
v 40 0 29
v 40 0 29
v 40 -7 29
v 40 0 37
v 40 -7 37
v 40 -3 37
v 44 -3 37
v 44 -7 25
v 44 0 25
v 44 0 37
v 44 -7 37

vn 0 0 1
vn 0 0 1
vn 0 0 1
vn 0 0 1
vn 0 0 -1
vn 0 0 -1
vn 0 0 -1
vn 0 0 -1
vn -1 0 0
vn -1 0 0
vn -1 0 0
vn -1 0 0
vn 0 0 -1
vn 0 0 -1
vn 0 0 -1
vn 0 0 -1
vn 1 0 0
vn 1 0 0
vn 1 0 0
vn 1 0 0
vn 1 0 0
vn -1 0 0
vn -1 0 0
vn -1 0 0
vn -1 0 0
vn -1 0 0

vt 9 7
vt 9 0
vt 0 7
vt 0 0
vt 0 0
vt 4 7
vt 4 0
vt 0 7
vt 0 0
vt 6 7
vt 6 0
vt 0 7
vt 0 0
vt 1 7
vt 1 0
vt 0 7
vt 8 7
vt 8 0
vt 0 7
vt 0 0
vt 0 4
vt 12 4
vt 0 0
vt 0 7
vt 12 7
vt 12 0

g Wall-detach_1197_96
usemtl Wall-detach_1197_96
usemap Wall-detach_1197_96
f 1/1/1 3/3/3 2/2/2
f 2/2/2 3/3/3 4/4/4
f 5/5/5 7/7/7 6/6/6
f 5/5/5 6/6/6 8/8/8
f 9/9/9 11/11/11 10/10/10
f 9/9/9 10/10/10 12/12/12
f 13/13/13 15/15/15 14/14/14
f 13/13/13 14/14/14 16/16/16
f 17/17/17 19/19/19 18/18/18
f 18/18/18 21/21/21 20/20/20
f 19/19/19 21/21/21 18/18/18
f 22/22/22 24/24/24 23/23/23
f 25/25/25 24/24/24 22/22/22
f 23/23/23 26/26/26 22/22/22
