#Wall-detach_1302_87.obj

v 27 2 24
v 32 2 24
v 27 -2 24
v 32 -2 24
v 26 2 24
v 27 2 24
v 27 -2 24
v 26 -2 24
v 21 2 22
v 26 2 22
v 26 1 22
v 21 1 22
v 26 2 22
v 26 2 24
v 26 1 22
v 26 -2 24
v 26 -2 22
v 21 2 28
v 21 2 24
v 21 1 28
v 21 1 24
v 21 2 22
v 21 1 22
v 21 -2 22
v 21 -2 24
v 21 2 36
v 21 -2 36
v 21 -2 28
v 34 2 24
v 34 2 26
v 34 -1 26
v 34 -1 24
v 32 2 24
v 34 2 24
v 34 -1 24
v 34 -2 24
v 32 -2 24
v 34 2 26
v 34 2 36
v 34 -1 34
v 34 -1 36
v 34 -1 26

vn 0 0 1
vn 0 0 1
vn 0 0 1
vn 0 0 1
vn 0 0 1
vn 0 0 1
vn 0 0 1
vn 0 0 1
vn 0 0 1
vn 0 0 1
vn 0 0 1
vn 0 0 1
vn -1 0 0
vn -1 0 0
vn -1 0 0
vn -1 0 0
vn -1 0 0
vn 1 0 0
vn 1 0 0
vn 1 0 0
vn 1 0 0
vn 1 0 0
vn 1 0 0
vn 1 0 0
vn 1 0 0
vn 1 0 0
vn 1 0 0
vn 1 0 0
vn -1 0 0
vn -1 0 0
vn -1 0 0
vn -1 0 0
vn 0 0 1
vn 0 0 1
vn 0 0 1
vn 0 0 1
vn 0 0 1
vn -1 0 0
vn -1 0 0
vn -1 0 0
vn -1 0 0
vn -1 0 0

vt 12.72792 9
vt 16.26346 9
vt 12.72792 5
vt 16.26346 5
vt 0 9
vt 1 9
vt 1 5
vt 0 5
vt 9.899495 9
vt 13.43503 9
vt 13.43503 8
vt 9.899495 8
vt 13.43503 9
vt 12.02081 9
vt 13.43503 8
vt 12.02081 5
vt 13.43503 5
vt 5.656854 9
vt 8.485281 9
vt 5.656854 8
vt 8.485281 8
vt 9.899495 9
vt 9.899495 8
vt 9.899495 5
vt 8.485281 5
vt 0 9
vt 0 5
vt 5.656854 5
vt 0 9
vt 2 9
vt 2 6
vt 0 6
vt 0 4
vt 2 4
vt 2 1
vt 2 0
vt 0 0
vt 0 9
vt 10 9
vt 8 6
vt 10 6
vt 0 6

g Wall-detach_1302_87
usemtl Wall-detach_1302_87
usemap Wall-detach_1302_87
f 1/1/1 3/3/3 2/2/2
f 2/2/2 3/3/3 4/4/4
f 5/5/5 7/7/7 6/6/6
f 5/5/5 8/8/8 7/7/7
f 9/9/9 11/11/11 10/10/10
f 12/12/12 11/11/11 9/9/9
f 13/13/13 15/15/15 14/14/14
f 14/14/14 15/15/15 16/16/16
f 16/16/16 15/15/15 17/17/17
f 18/18/18 20/20/20 19/19/19
f 19/19/19 20/20/20 21/21/21
f 19/19/19 23/23/23 22/22/22
f 19/19/19 21/21/21 23/23/23
f 23/23/23 21/21/21 24/24/24
f 24/24/24 21/21/21 25/25/25
f 26/26/26 20/20/20 18/18/18
f 27/27/27 20/20/20 26/26/26
f 28/28/28 20/20/20 27/27/27
f 29/29/29 31/31/31 30/30/30
f 32/32/32 31/31/31 29/29/29
f 33/33/33 35/35/35 34/34/34
f 33/33/33 36/36/36 35/35/35
f 37/37/37 36/36/36 33/33/33
f 38/38/38 40/40/40 39/39/39
f 39/39/39 40/40/40 41/41/41
f 42/42/42 40/40/40 38/38/38
