#Wall_707_75.obj

v 1 3 0
v 1 3 1
v 1 4 1
v 1 4 0
v 1 2 1
v 8 2 1
v 8 0 1
v 1 0 1
v 8 2 1
v 8 2 0
v 8 0 0
v 8 0 1
v 8 2 0
v 1 2 0
v 1 0 0
v 8 0 0
v 8 2 0
v 8 2 1
v 1 2 1
v 1 2 0

vn 1 0 0
vn 1 0 0
vn 1 0 0
vn 1 0 0
vn 0 0 1
vn 0 0 1
vn 0 0 1
vn 0 0 1
vn 1 0 0
vn 1 0 0
vn 1 0 0
vn 1 0 0
vn 0 0 -1
vn 0 0 -1
vn 0 0 -1
vn 0 0 -1
vn 0 1 0
vn 0 1 0
vn 0 1 0
vn 0 1 0

vt 1 0
vt 0 0
vt 0 1
vt 1 1
vt 0 2
vt 7 2
vt 7 0
vt 0 0
vt 0 2
vt 1 2
vt 1 0
vt 0 0
vt 0 2
vt 7 2
vt 7 0
vt 0 0
vt 0 0
vt 0 1
vt 7 1
vt 7 0

g Wall_707_75
usemtl Wall_707_75
usemap Wall_707_75
f 1/1/1 3/3/3 2/2/2
f 4/4/4 3/3/3 1/1/1
f 5/5/5 7/7/7 6/6/6
f 8/8/8 7/7/7 5/5/5
f 9/9/9 11/11/11 10/10/10
f 12/12/12 11/11/11 9/9/9
f 13/13/13 15/15/15 14/14/14
f 16/16/16 15/15/15 13/13/13
f 17/17/17 19/19/19 18/18/18
f 20/20/20 19/19/19 17/17/17
