#Wall-detach_744_65.obj

v 14 0 36
v 8 0 37
v 14 0 37
v 8 0 36
v 14 -7 37
v 14 0 36
v 14 0 37
v 14 -7 36
v 8 0 36
v 8 -7 37
v 8 0 37
v 8 -7 36

vn 0 -1 0
vn 0 -1 0
vn 0 -1 0
vn 0 -1 0
vn -1 0 0
vn -1 0 0
vn -1 0 0
vn -1 0 0
vn 1 0 0
vn 1 0 0
vn 1 0 0
vn 1 0 0

vt 6 0
vt 0 1
vt 6 1
vt 0 0
vt 1 0
vt 0 7
vt 1 7
vt 0 0
vt 1 7
vt 0 0
vt 0 7
vt 1 0

g Wall-detach_744_65
usemtl Wall-detach_744_65
usemap Wall-detach_744_65
f 1/1/1 3/3/3 2/2/2
f 1/1/1 2/2/2 4/4/4
f 5/5/5 7/7/7 6/6/6
f 5/5/5 6/6/6 8/8/8
f 9/9/9 11/11/11 10/10/10
f 9/9/9 10/10/10 12/12/12
