#Wall-detach_925_66.obj

v 0 0 -9
v 0 0 1
v 0 5 -9
v 0 5 1
v -8 5 -9
v 0 0 -9
v 0 5 -9
v -8 0 -9
v 3 5 -9
v 7 -6 -9
v 7 5 -9
v 3 -6 -9
v 3 5 1
v 3 -6 -9
v 3 5 -9
v 3 -6 1
v 0 5 -9
v 3 5 1
v 3 5 -9
v 0 5 1

vn 1 0 0
vn 1 0 0
vn 1 0 0
vn 1 0 0
vn 0 0 -1
vn 0 0 -1
vn 0 0 -1
vn 0 0 -1
vn 0 0 -1
vn 0 0 -1
vn 0 0 -1
vn 0 0 -1
vn -0.9999999 0 0
vn -0.9999999 0 0
vn -0.9999999 0 0
vn -0.9999999 0 0
vn 0 -1 0
vn 0 -1 0
vn 0 -1 0
vn 0 -1 0

vt 10 0
vt 0 0
vt 10 5
vt 0 5
vt 8 4.999999
vt -4.768372E-07 7.152557E-07
vt 4.768372E-07 5.000001
vt 8 -7.152557E-07
vt 4 11
vt 0 0
vt 0 11
vt 4 0
vt 10 11
vt 0 0
vt 0 11
vt 10 0
vt -0.00172627 0.000518322
vt 3.001726 9.999481
vt 2.998274 -0.0005173683
vt 0.001726389 10.00052

g Wall-detach_925_66
usemtl Wall-detach_925_66
usemap Wall-detach_925_66
f 1/1/1 3/3/3 2/2/2
f 2/2/2 3/3/3 4/4/4
f 5/5/5 7/7/7 6/6/6
f 5/5/5 6/6/6 8/8/8
f 9/9/9 11/11/11 10/10/10
f 9/9/9 10/10/10 12/12/12
f 13/13/13 15/15/15 14/14/14
f 13/13/13 14/14/14 16/16/16
f 17/17/17 19/19/19 18/18/18
f 17/17/17 18/18/18 20/20/20
