#Wall-detach_733_57.obj

v 14 5 37
v 8 0 37
v 8 5 37
v 14 0 37
v 14 -7 55
v 14 -7 37
v 14 0 37
v 14 5 37
v 14 5 55
v 8 -7 37
v 8 -7 55
v 8 5 37
v 8 5 55

vn 0 0 1
vn 0 0 1
vn 0 0 1
vn 0 0 1
vn -1 0 0
vn -1 0 0
vn -1 0 0
vn -1 0 0
vn -1 0 0
vn 1 0 0
vn 1 0 0
vn 1 0 0
vn 1 0 0

vt 6 5
vt 0 0
vt 0 5
vt 6 0
vt 18 0
vt 0 0
vt 0 7
vt 0 12
vt 18 12
vt 18 0
vt 0 0
vt 18 12
vt 0 12

g Wall-detach_733_57
usemtl Wall-detach_733_57
usemap Wall-detach_733_57
f 1/1/1 3/3/3 2/2/2
f 2/2/2 4/4/4 1/1/1
f 5/5/5 7/7/7 6/6/6
f 8/8/8 7/7/7 9/9/9
f 9/9/9 7/7/7 5/5/5
f 10/10/10 12/12/12 11/11/11
f 12/12/12 13/13/13 11/11/11
