#Wall-detach_734_40.obj

v 10 6 -2
v 12 6 -12
v 10 6 -10
v 12 6 0
v 2 6 -2
v 12 6 0
v 10 6 -2
v 0 6 0
v 2 6 -10
v 0 6 0
v 2 6 -2
v 0 6 -12
v 10 6 -10
v 12 6 -12
v 10 7 -10
v 10 6 -2
v 10 6 -10
v 10 7 -2
v 10 7 -2
v 2 6 -2
v 10 6 -2
v 2 7 -2
v 2 7 -2
v 2 6 -10
v 2 6 -2
v 2 7 -10
v 2 7 -10
v 10 6 -10
v 2 6 -10
v 10 7 -10

vn 0 -1 0
vn 0 -1 0
vn 0 -1 0
vn 0 -1 0
vn 0 -1 0
vn 0 -1 0
vn 0 -1 0
vn 0 -1 0
vn 0 -1 0
vn 0 -1 0
vn 0 -1 0
vn 0 -1 0
vn 0 -1 0
vn 0 -1 0
vn -1 0 0
vn -1 0 0
vn -1 0 0
vn -1 0 0
vn 0 0 -1
vn 0 0 -1
vn 0 0 -1
vn 0 0 -1
vn 1 0 0
vn 1 0 0
vn 1 0 0
vn 1 0 0
vn 0 0 1
vn 0 0 1
vn 0 0 1
vn 0 0 1

vt 0 10
vt 2 0
vt 0 2
vt 2 12
vt 2 0
vt 12 2
vt 10 0
vt 0 2
vt 2 2
vt 0 12
vt 2 10
vt 0 0
vt 10 2
vt 12 0
vt 0 1
vt 8 0
vt 0 0
vt 8 1
vt 0 1
vt 8 0
vt 0 0
vt 8 1
vt 0 1
vt 8 0
vt 0 0
vt 8 1
vt 0 1
vt 8 0
vt 0 0
vt 8 1

g Wall-detach_734_40
usemtl Wall-detach_734_40
usemap Wall-detach_734_40
f 1/1/1 3/3/3 2/2/2
f 1/1/1 2/2/2 4/4/4
f 5/5/5 7/7/7 6/6/6
f 5/5/5 6/6/6 8/8/8
f 9/9/9 11/11/11 10/10/10
f 9/9/9 10/10/10 12/12/12
f 13/13/13 12/12/12 14/14/14
f 9/9/9 12/12/12 13/13/13
f 15/15/15 17/17/17 16/16/16
f 15/15/15 16/16/16 18/18/18
f 19/19/19 21/21/21 20/20/20
f 19/19/19 20/20/20 22/22/22
f 23/23/23 25/25/25 24/24/24
f 23/23/23 24/24/24 26/26/26
f 27/27/27 29/29/29 28/28/28
f 27/27/27 28/28/28 30/30/30
