#Wall_701_15.obj

v -1 0 1
v 0 2 1
v 0 0 1
v -1 2 1
v -1 0 -1
v -1 2 1
v -1 0 1
v -1 2 -1
v -7 0 -1
v -1 2 -1
v -1 0 -1
v -7 2 -1
v -7 0 -2
v -7 2 -1
v -7 0 -1
v -7 2 -2
v -1 3 1
v 0 4 1
v 0 3 1
v -1 4 1
v -1 3 -1
v -1 4 1
v -1 3 1
v -1 4 -1
v -7 3 -1
v -1 4 -1
v -1 3 -1
v -7 4 -1
v -7 3 -2
v -7 4 -1
v -7 3 -1
v -7 4 -2
v -1 0 -2
v -7 4 -2
v -7 0 -2
v -1 4 -2
v -1 0 -4
v -1 4 -2
v -1 0 -2
v -1 4 -4
v 1 0 -4
v -1 4 -4
v -1 0 -4
v 1 4 -4

vn 0 0 1
vn 0 0 1
vn 0 0 1
vn 0 0 1
vn -1 0 0
vn -1 0 0
vn -1 0 0
vn -1 0 0
vn 0 0 1
vn 0 0 1
vn 0 0 1
vn 0 0 1
vn -1 0 0
vn -1 0 0
vn -1 0 0
vn -1 0 0
vn 0 0 1
vn 0 0 1
vn 0 0 1
vn 0 0 1
vn -1 0 0
vn -1 0 0
vn -1 0 0
vn -1 0 0
vn 0 0 1
vn 0 0 1
vn 0 0 1
vn 0 0 1
vn -1 0 0
vn -1 0 0
vn -1 0 0
vn -1 0 0
vn 0 0 -1
vn 0 0 -1
vn 0 0 -1
vn 0 0 -1
vn -1 0 0
vn -1 0 0
vn -1 0 0
vn -1 0 0
vn 0 0 -1
vn 0 0 -1
vn 0 0 -1
vn 0 0 -1

vt 0 0
vt 1 2
vt 1 0
vt 0 2
vt 0 0
vt 2 2
vt 2 0
vt 0 2
vt 0 0
vt 6 2
vt 6 0
vt 0 2
vt 0 0
vt 1 2
vt 1 0
vt 0 2
vt 0 0
vt 1 1
vt 1 0
vt 0 1
vt 0 0
vt 2 1
vt 2 0
vt 0 1
vt 0 0
vt 6 1
vt 6 0
vt 0 1
vt 0 0
vt 1 1
vt 1 0
vt 0 1
vt 0 0
vt 6 4
vt 6 0
vt 0 4
vt 0 0
vt 2 4
vt 2 0
vt 0 4
vt 0 0
vt 2 4
vt 2 0
vt 0 4

g Wall_701_15
usemtl Wall_701_15
usemap Wall_701_15
f 1/1/1 3/3/3 2/2/2
f 1/1/1 2/2/2 4/4/4
f 5/5/5 7/7/7 6/6/6
f 5/5/5 6/6/6 8/8/8
f 9/9/9 11/11/11 10/10/10
f 9/9/9 10/10/10 12/12/12
f 13/13/13 15/15/15 14/14/14
f 13/13/13 14/14/14 16/16/16
f 17/17/17 19/19/19 18/18/18
f 17/17/17 18/18/18 20/20/20
f 21/21/21 23/23/23 22/22/22
f 21/21/21 22/22/22 24/24/24
f 25/25/25 27/27/27 26/26/26
f 25/25/25 26/26/26 28/28/28
f 29/29/29 31/31/31 30/30/30
f 29/29/29 30/30/30 32/32/32
f 33/33/33 35/35/35 34/34/34
f 33/33/33 34/34/34 36/36/36
f 37/37/37 39/39/39 38/38/38
f 37/37/37 38/38/38 40/40/40
f 41/41/41 43/43/43 42/42/42
f 41/41/41 42/42/42 44/44/44
