#Wall-detach_688_28.obj

v 53 3 -18
v 58 6 -17
v 53 3 -17
v 58 6 -18
v 51 3 -17
v 53 3 -18
v 53 3 -17
v 51 3 -18
v 46 0 -17
v 51 3 -18
v 51 3 -17
v 46 0 -18
v 38 0 -17
v 46 0 -18
v 46 0 -17
v 38 0 -18
v 33 3 -17
v 38 0 -18
v 38 0 -17
v 33 3 -18
v 31 3 -17
v 33 3 -18
v 33 3 -17
v 31 3 -18

vn -0.5144958 0.857493 0
vn -0.5144958 0.857493 0
vn -0.5144958 0.857493 0
vn -0.5144958 0.857493 0
vn 0 1 0
vn 0 1 0
vn 0 1 0
vn 0 1 0
vn -0.5144958 0.857493 0
vn -0.5144958 0.857493 0
vn -0.5144958 0.857493 0
vn -0.5144958 0.857493 0
vn 0 1 0
vn 0 1 0
vn 0 1 0
vn 0 1 0
vn 0.5144958 0.857493 0
vn 0.5144958 0.857493 0
vn 0.5144958 0.857493 0
vn 0.5144958 0.857493 0
vn 0 1 0
vn 0 1 0
vn 0 1 0
vn 0 1 0

vt 5.830948 0
vt -3.814697E-06 1
vt 5.830948 1
vt -3.814697E-06 0
vt 2 1
vt 0 0
vt 0 1
vt 2 0
vt 5.830956 1
vt 0 0
vt 0 1
vt 5.830956 0
vt 8 1
vt 0 0
vt 0 1
vt 8 0
vt 5.830952 1
vt 0 0
vt 0 1
vt 5.830952 0
vt 2 1
vt 0 0
vt 0 1
vt 2 0

g Wall-detach_688_28
usemtl Wall-detach_688_28
usemap Wall-detach_688_28
f 1/1/1 3/3/3 2/2/2
f 1/1/1 2/2/2 4/4/4
f 5/5/5 7/7/7 6/6/6
f 5/5/5 6/6/6 8/8/8
f 9/9/9 11/11/11 10/10/10
f 9/9/9 10/10/10 12/12/12
f 13/13/13 15/15/15 14/14/14
f 13/13/13 14/14/14 16/16/16
f 17/17/17 19/19/19 18/18/18
f 17/17/17 18/18/18 20/20/20
f 21/21/21 23/23/23 22/22/22
f 21/21/21 22/22/22 24/24/24
