#Wall-detach_663_41.obj

v 21 8 -19
v 66 -7 -19
v 66 8 -19
v 21 -7 -19
v 11 -7 -19
v 21 -7 -19
v 11 5 -19
v 21 5 -19
v 7 3 -19
v 11 -7 -19
v 11 5 -19
v 7 -7 -19
v -1 3 -19
v 7 -7 -19
v 7 3 -19
v -1 -7 -19

vn 0 0 -1
vn 0 0 -1
vn 0 0 -1
vn 0 0 -1
vn 0 0 -1
vn 0 0 -1
vn 0 0 -1
vn 0 0 -1
vn 0 0 -1
vn 0 0 -1
vn 0 0 -1
vn 0 0 -1
vn 0 0 -1
vn 0 0 -1
vn 0 0 -1
vn 0 0 -1

vt 45 15
vt 0 0
vt 0 15
vt 45 0
vt 10 0
vt 0 0
vt 10 12
vt 0 12
vt 4 10
vt 0 0
vt 0 12
vt 4 0
vt 8 10
vt 0 0
vt 0 10
vt 8 0

g Wall-detach_663_41
usemtl Wall-detach_663_41
usemap Wall-detach_663_41
f 1/1/1 3/3/3 2/2/2
f 1/1/1 2/2/2 4/4/4
f 5/5/5 7/7/7 6/6/6
f 7/7/7 8/8/8 6/6/6
f 9/9/9 11/11/11 10/10/10
f 9/9/9 10/10/10 12/12/12
f 13/13/13 15/15/15 14/14/14
f 13/13/13 14/14/14 16/16/16
