#Wall_705_37.obj

v 3.71933E-05 0 -8
v 2.000028 0 -5.999991
v 2.000037 0 -7.999991
v 2.765656E-05 0 -6
v -9.999962 0 -8.000047
v -5.999981 0 -4.000028
v -10 0 -8
v -9.999962 0 -8.000047
v -9.999981 0 -4.000046
v -5.999981 0 -4.000028
v -10 0 -8
v 2.765656E-05 0 -6
v 3.71933E-05 0 -8
v -5.999981 0 -4.000028
v 1.811981E-05 0 -4
v 4.768372E-06 0 -1
v 0.9999905 0 2.000005
v 1.000005 0 -0.9999954
v -9.536743E-06 0 2
v -1.811981E-05 0 4
v -9.536743E-06 0 2
v -4.000019 0 3.999981
v 4.768372E-06 0 -1
v -3.999987 0 -3.000019
v 1.430511E-05 0 -3
v -9.999985 0 -3.000046
v -10 0 -3
v -5.999987 0 -3.000028
v -5.000004 0 0.9999768
v -4.000004 0 0.9999814
v -3.999987 0 -3.000019
v -10 0 15
v -5.000055 0 11.99998
v -5.999981 0 -4.000028
v -9.999981 0 -4.000046
v -5.999987 0 -3.000028
v -9.999985 0 -3.000046
v -10.00007 0 14.99995
v -5.000055 0 11.99998
v -10 0 15
v -10.00007 0 14.99995
v -5.000069 0 14.99998
v -5.000055 0 11.99998
v -4.000055 0 11.99998
v -4.000069 0 14.99998
v -5.149841E-05 0 11
v 0.9999352 0 14
v 0.9999485 0 11
v -6.484985E-05 0 14
v -4.000055 0 11.99998
v -5.149841E-05 0 11
v -4.196167E-05 0 9
v -4.000042 0 8.999982
v -6.484985E-05 0 14
v -4.000069 0 14.99998
v -6.961823E-05 0 15
v -4.00008 0 16.99998
v -6.961823E-05 0 15
v -4.000069 0 14.99998
v -7.915497E-05 0 17
v -7.915497E-05 0 17
v 1 0 17
v 1 0 15
v -6.961823E-05 0 15
v 13 0 -3
v 13 0 14
v 14 0 14
v 14 0 2
v 9 0 -4
v 6 0 -4
v 2 0 -3
v 13 0 -3
v 13 0 -6
v 15 0 -6
v 15 0 -8
v 13 0 -8
v 21 0 -4
v 25 0 -4
v 25 0 -8
v 15 0 -6
v 15 0 -4
v 21 0 -4
v 25 0 -8
v 15 0 -8
v 14 0 -1
v 13 0 -4
v 13 0 -3
v 14 0 2
v 14 0 -4
v 9 0 -4
v 14 0 2
v 15 0 2
v 15 0 -1
v 14 0 -1
v 19 0 -3
v 15 0 -3
v 15 0 -1
v 15 0 2
v 19 0 4
v 15 0 4
v 19 0 1
v 21 0 -3
v 20 0 1
v 25 0 -3
v 21 0 -3
v 25 0 -3
v 25 0 -4
v 21 0 -4
v 20 0 1
v 20 0 12
v 25 0 15
v 25 0 -3
v 20 0 12
v 20 0 15
v 25 0 15
v 19 0 12
v 19 0 15
v 20 0 15
v 20 0 12
v 14 0 14
v 15 0 14
v 15 0 11
v 14 0 11
v 15 0 15
v 19 0 12
v 15 0 14
v 19 0 15
v 15 0 11
v 15 0 9
v 19 0 9
v 15 0 15
v 15 0 17
v 19 0 17
v 19 0 15
v 15 0 15
v 14 0 15
v 14 0 17
v 15 0 17
v 13 0 17
v 14 0 17
v 13 0 15
v 14 0 15
v 4 0 -4
v 6 0 -5
v 2 0 -8
v 2 0 -4
v 6 0 -8
v 6 0 -4
v 4 0 -4
v 2 0 -4
v 2 0 -3
v 6 0 -4
v 1 0 -1
v 1 0 2
v 1 0 -4
v 9 0 -5
v 13 0 -6
v 13 0 -8
v 9 0 -8
v 9 0 -5
v 13 0 -4
v 13 0 -6
v 9 0 -4
v 9 0 -8
v 6 0 -8
v 6 0 -5
v 9 0 -5
v 2 0 15
v 1 0 15
v 1 0 17
v 2 0 17
v 2 0 -3
v 1 0 2
v 2 0 14
v 1 0 14
v 2 0 15
v 2 0 14
v 1 0 14
v 1 0 15
v 14 0 14
v 13 0 15
v 14 0 15
v 13 0 14

vn 0 -1 0
vn 0 -1 0
vn 0 -1 0
vn 0 -1 0
vn 0 1 0
vn 0 1 0
vn 0 1 0
vn 0 -1 0
vn 0 -1 0
vn 0 -1 0
vn 0 -0.9999999 0
vn 0 -1 0
vn 0 -1 0
vn 0 -1 0
vn 0 -0.9999999 0
vn 0 -1 0
vn 0 -1 0
vn 0 -1 0
vn 0 -1 0
vn 0 -1 0
vn 0 -1 0
vn 0 -1 0
vn 0 -1 0
vn 0 -1 0
vn 0 -1 0
vn 0 -1 0
vn 0 -1 0
vn 0 -1 0
vn 0 -1 0
vn 0 -1 0
vn 0 -1 0
vn 0 -1 0
vn 0 -0.9999999 0
vn 0 -1 0
vn 0 -1 0
vn 0 -1 0
vn 0 -1 0
vn 0 1 0
vn 0 1 0
vn 0 1 0
vn 0 -1 0
vn 0 -1 0
vn 0 -1 0
vn 0 -1 0
vn 0 -1 0
vn 0 -1 0
vn 0 -1 0
vn 0 -1 0
vn 0 -1 0
vn 0 -0.9999999 0
vn 0 -1 0
vn 0 -1 0
vn 0 -1 0
vn 0 -1 0
vn 0 -0.9999999 0
vn 0 -1 0
vn 0 -1 0
vn 0 -1 0
vn 0 -1 0
vn 0 -1 0
vn 0 -1 0
vn 0 -1 0
vn 0 -1 0
vn 0 -1 0
vn 0 -1 0
vn 0 -1 0
vn 0 -1 0
vn 0 -1 0
vn 0 -1 0
vn 0 -1 0
vn 0 -1 0
vn 0 -1 0
vn 0 -1 0
vn 0 -1 0
vn 0 -1 0
vn 0 -1 0
vn 0 -1 0
vn 0 -1 0
vn 0 -1 0
vn 0 -1 0
vn 0 -1 0
vn 0 -1 0
vn 0 -1 0
vn 0 -1 0
vn 0 -1 0
vn 0 -1 0
vn 0 -1 0
vn 0 -1 0
vn 0 -1 0
vn 0 -1 0
vn 0 -1 0
vn 0 -1 0
vn 0 -1 0
vn 0 -1 0
vn 0 -1 0
vn 0 -1 0
vn 0 -1 0
vn 0 -1 0
vn 0 -1 0
vn 0 -1 0
vn 0 -1 0
vn 0 -1 0
vn 0 -1 0
vn 0 -1 0
vn 0 -1 0
vn 0 -1 0
vn 0 -1 0
vn 0 -1 0
vn 0 -1 0
vn 0 -0.9999999 0
vn 0 -1 0
vn 0 -1 0
vn 0 -1 0
vn 0 -1 0
vn 0 -1 0
vn 0 -1 0
vn 0 -1 0
vn 0 -1 0
vn 0 -1 0
vn 0 -1 0
vn 0 -1 0
vn 0 -1 0
vn 0 -1 0
vn 0 -1 0
vn 0 -1 0
vn 0 -1 0
vn 0 -1 0
vn 0 -1 0
vn 0 -1 0
vn 0 -1 0
vn 0 -1 0
vn 0 -1 0
vn 0 -1 0
vn 0 -1 0
vn 0 -1 0
vn 0 -1 0
vn 0 -1 0
vn 0 -1 0
vn 0 -1 0
vn 0 -1 0
vn 0 -1 0
vn 0 -1 0
vn 0 -1 0
vn 0 -1 0
vn 0 -1 0
vn 0 -1 0
vn 0 -1 0
vn 0 -1 0
vn 0 -1 0
vn 0 -1 0
vn 0 -1 0
vn 0 -1 0
vn 0 -1 0
vn 0 -1 0
vn 0 -1 0
vn 0 -1 0
vn 0 -1 0
vn 0 -1 0
vn 0 -1 0
vn 0 -1 0
vn 0 -1 0
vn 0 -1 0
vn 0 -1 0
vn 0 -1 0
vn 0 -1 0
vn 0 -1 0
vn 0 -1 0
vn 0 -1 0
vn 0 -1 0
vn 0 -1 0
vn 0 -1 0
vn 0 -1 0
vn 0 -1 0
vn 0 -1 0
vn 0 -1 0
vn 0 -1 0
vn 0 -1 0
vn 0 -1 0
vn 0 -1 0
vn 0 -1 0
vn 0 -1 0
vn 0 -1 0
vn 0 -1 0

vt 9.536743E-06 0
vt 2 2.000009
vt 2.00001 9.059906E-06
vt 0 2
vt 3.999981 0
vt 0 4.000019
vt 4.000019 4.673004E-05
vt 3.999981 0
vt 4 4
vt 0 4.000019
vt 0 0
vt 10.00003 2
vt 10.00004 0
vt 4.000019 3.999972
vt 10.00002 4
vt 1.430511E-05 0
vt 1 3.000005
vt 1.000014 4.649162E-06
vt 0 3
vt 9.999982 7.000047
vt 9.99999 5.000047
vt 5.999981 7.000028
vt 10 2.000047
vt 6.000013 2.813339E-05
vt 10.00001 4.673004E-05
vt 1.525879E-05 2.384186E-07
vt 0 4.673004E-05
vt 4.000013 1.883507E-05
vt 4.999996 4.000023
vt 5.999996 4.000028
vt 6.000013 2.813339E-05
vt 0 18
vt 4.999945 14.99998
vt 4.000004 1.859665E-05
vt 3.814697E-06 0
vt 3.999998 1.000018
vt 0 0.9999998
vt 5.000013 2.999976
vt 0 0
vt 4.999945 3.000023
vt 5.000013 2.999976
vt 1.335144E-05 3
vt 0 0
vt 1.000013 4.768372E-06
vt 1 3.000005
vt 1.335144E-05 0
vt 1 3.000005
vt 1.000013 4.768372E-06
vt 0 3
vt 1.335144E-05 3.000001
vt 4.000017 2.000019
vt 4.000027 1.907349E-05
vt 2.670288E-05 9.536743E-07
vt 4.000004 5.000019
vt 0 6.000001
vt 3.999999 6.000019
vt 0 2
vt 4.00001 1.907349E-05
vt 1.144409E-05 9.536743E-07
vt 4.000001 2.000019
vt 0 2
vt 1.000079 2
vt 1.000079 0
vt 9.536743E-06 0
vt 0 0
vt 0 17
vt 1 17
vt 1 5
vt 7 0
vt 4 0
vt 0 1
vt 11 1
vt 0 2
vt 2 2
vt 2 0
vt 0 0
vt 0 4
vt 4 4
vt 4 0
vt 0 2
vt 0 4
vt 6 4
vt 10 0
vt 0 0
vt 5 3
vt 4 0
vt 4 1
vt 5 6
vt 5 0
vt 0 0
vt 0 3
vt 1 3
vt 1 0
vt 0 0
vt 29 4.673004E-05
vt 25 4.673004E-05
vt 25 2.000047
vt 25 5.000047
vt 29 7.000047
vt 25 7.000047
vt 29 4.000047
vt 31 4.673004E-05
vt 30 4.000047
vt 35 4.673004E-05
vt 30.99998 1.000046
vt 34.99998 1.000046
vt 34.99998 4.62532E-05
vt 30.99998 4.62532E-05
vt 0 4
vt 0 15
vt 5 18
vt 5 0
vt 0 0
vt 0 3
vt 5 3
vt 24.00007 2.288818E-05
vt 24.00007 3.000023
vt 25.00007 3.000023
vt 25.00007 2.288818E-05
vt 0 3
vt 1 3
vt 1 0
vt 0 0
vt 19.00007 6.000019
vt 23.00007 3.000019
vt 19.00007 5.000019
vt 23.00007 6.000019
vt 19.00007 2.000019
vt 19.00007 1.907349E-05
vt 23.00007 1.907349E-05
vt 0 0
vt 0 2
vt 4 2
vt 4 0
vt 1 0
vt 0 0
vt 0 2
vt 1 2
vt 0 2
vt 1 2
vt 0 0
vt 1 0
vt 2 4
vt 4 3
vt 0 0
vt 0 4
vt 4 0
vt 4 4
vt 3 0
vt 1 0
vt 1 1
vt 5 0
vt 0 3
vt 0 6
vt 0 0
vt 0 3
vt 4 2
vt 4 0
vt 0 0
vt 0 1
vt 4 2
vt 4 0
vt 0 2
vt 3 0
vt 0 0
vt 0 3
vt 3 3
vt 1 0
vt 0 0
vt 0 2
vt 1 2
vt 1 0
vt 0 5
vt 1 17
vt 0 17
vt 1 1
vt 1 0
vt 0 0
vt 0 1
vt 1 0
vt 0 1
vt 1 1
vt 0 0

g Wall_705_37
usemtl Wall_705_37
usemap Wall_705_37
f 1/1/1 3/3/3 2/2/2
f 1/1/1 2/2/2 4/4/4
f 5/5/5 7/7/7 6/6/6
f 8/8/8 10/10/10 9/9/9
f 11/11/11 13/13/13 12/12/12
f 11/11/11 12/12/12 14/14/14
f 14/14/14 12/12/12 15/15/15
f 16/16/16 18/18/18 17/17/17
f 16/16/16 17/17/17 19/19/19
f 20/20/20 22/22/22 21/21/21
f 21/21/21 24/24/24 23/23/23
f 22/22/22 24/24/24 21/21/21
f 23/23/23 24/24/24 25/25/25
f 26/26/26 28/28/28 27/27/27
f 27/27/27 28/28/28 29/29/29
f 28/28/28 31/31/31 30/30/30
f 30/30/30 29/29/29 28/28/28
f 32/32/32 27/27/27 29/29/29
f 32/32/32 29/29/29 33/33/33
f 34/34/34 36/36/36 35/35/35
f 35/35/35 36/36/36 37/37/37
f 38/38/38 40/40/40 39/39/39
f 41/41/41 43/43/43 42/42/42
f 43/43/43 44/44/44 42/42/42
f 42/42/42 44/44/44 45/45/45
f 46/46/46 48/48/48 47/47/47
f 46/46/46 47/47/47 49/49/49
f 50/50/50 52/52/52 51/51/51
f 53/53/53 52/52/52 50/50/50
f 51/51/51 54/54/54 50/50/50
f 50/50/50 56/56/56 55/55/55
f 54/54/54 56/56/56 50/50/50
f 57/57/57 59/59/59 58/58/58
f 57/57/57 58/58/58 60/60/60
f 61/61/61 63/63/63 62/62/62
f 64/64/64 63/63/63 61/61/61
f 65/65/65 67/67/67 66/66/66
f 65/65/65 68/68/68 67/67/67
f 69/69/69 71/71/71 70/70/70
f 72/72/72 71/71/71 69/69/69
f 73/73/73 75/75/75 74/74/74
f 76/76/76 75/75/75 73/73/73
f 77/77/77 79/79/79 78/78/78
f 80/80/80 82/82/82 81/81/81
f 80/80/80 83/83/83 82/82/82
f 84/84/84 83/83/83 80/80/80
f 85/85/85 87/87/87 86/86/86
f 85/85/85 88/88/88 87/87/87
f 85/85/85 86/86/86 89/89/89
f 86/86/86 87/87/87 90/90/90
f 91/91/91 93/93/93 92/92/92
f 94/94/94 93/93/93 91/91/91
f 95/95/95 97/97/97 96/96/96
f 95/95/95 99/99/99 98/98/98
f 95/95/95 98/98/98 97/97/97
f 99/99/99 100/100/100 98/98/98
f 95/95/95 102/102/102 101/101/101
f 102/102/102 104/104/104 103/103/103
f 103/103/103 101/101/101 102/102/102
f 105/105/105 107/107/107 106/106/106
f 105/105/105 108/108/108 107/107/107
f 109/109/109 111/111/111 110/110/110
f 112/112/112 111/111/111 109/109/109
f 113/113/113 115/115/115 114/114/114
f 116/116/116 118/118/118 117/117/117
f 116/116/116 119/119/119 118/118/118
f 120/120/120 122/122/122 121/121/121
f 123/123/123 122/122/122 120/120/120
f 124/124/124 126/126/126 125/125/125
f 124/124/124 125/125/125 127/127/127
f 126/126/126 128/128/128 125/125/125
f 129/129/129 130/130/130 125/125/125
f 129/129/129 125/125/125 128/128/128
f 131/131/131 133/133/133 132/132/132
f 134/134/134 133/133/133 131/131/131
f 135/135/135 137/137/137 136/136/136
f 138/138/138 137/137/137 135/135/135
f 139/139/139 141/141/141 140/140/140
f 141/141/141 142/142/142 140/140/140
f 143/143/143 145/145/145 144/144/144
f 143/143/143 146/146/146 145/145/145
f 144/144/144 145/145/145 147/147/147
f 143/143/143 144/144/144 148/148/148
f 149/149/149 151/151/151 150/150/150
f 149/149/149 152/152/152 151/151/151
f 151/151/151 154/154/154 153/153/153
f 153/153/153 155/155/155 150/150/150
f 153/153/153 150/150/150 151/151/151
f 156/156/156 158/158/158 157/157/157
f 156/156/156 159/159/159 158/158/158
f 160/160/160 162/162/162 161/161/161
f 160/160/160 161/161/161 163/163/163
f 164/164/164 166/166/166 165/165/165
f 164/164/164 167/167/167 166/166/166
f 168/168/168 170/170/170 169/169/169
f 171/171/171 170/170/170 168/168/168
f 172/172/172 174/174/174 173/173/173
f 175/175/175 173/173/173 174/174/174
f 176/176/176 178/178/178 177/177/177
f 179/179/179 178/178/178 176/176/176
f 180/180/180 182/182/182 181/181/181
f 180/180/180 181/181/181 183/183/183
