#Wall-detach_686_59.obj

v 51 3 9
v 51 -6 9
v 55 3 9
v 55 -6 9
v 55 3 9
v 58 6 9
v 55 6 9
v 55 -6 9
v 58 -6 9
v 58 6 9
v 58 4 4
v 58 6 4
v 58 -6 9
v 58 -6 4

vn 0 0 -1
vn 0 0 -1
vn 0 0 -1
vn 0 0 -1
vn 0 0 -1
vn 0 0 -1
vn 0 0 -1
vn 0 0 -1
vn 0 0 -1
vn -1 0 0
vn -1 0 0
vn -1 0 0
vn -0.9999999 0 0
vn -1 0 0

vt 4 9
vt 4 0
vt 0 9
vt 0 0
vt 3 9
vt 0 12
vt 3 12
vt 3 0
vt 0 0
vt 5 12
vt 0 10
vt 0 12
vt 5 0
vt 0 0

g Wall-detach_686_59
usemtl Wall-detach_686_59
usemap Wall-detach_686_59
f 1/1/1 3/3/3 2/2/2
f 2/2/2 3/3/3 4/4/4
f 5/5/5 7/7/7 6/6/6
f 8/8/8 6/6/6 9/9/9
f 5/5/5 6/6/6 8/8/8
f 10/10/10 12/12/12 11/11/11
f 13/13/13 11/11/11 14/14/14
f 10/10/10 11/11/11 13/13/13
