#Wall-detach_909_60.obj

v -3 -1 -65
v -3 -1 -56
v -3 5 -65
v -3 5 -56
v -15 -1 -56
v -3 5 -56
v -3 -1 -56
v -15 5 -56
v -4 5 -65
v -3 -1 -65
v -3 5 -65
v -4 -1 -65
v -4 5 -57
v -4 -1 -65
v -4 5 -65
v -4 -1 -57
v -15 5 -57
v -4 -1 -57
v -4 5 -57
v -15 -1 -57
v -4 5 -57
v -3 5 -65
v -3 5 -56
v -4 5 -65
v -15 5 -57
v -3 5 -56
v -15 5 -56
v -4 5 -57

vn 1 0 0
vn 1 0 0
vn 1 0 0
vn 1 0 0
vn 0 0 1
vn 0 0 1
vn 0 0 1
vn 0 0 1
vn 0 0 -1
vn 0 0 -1
vn 0 0 -1
vn 0 0 -1
vn -1 0 0
vn -1 0 0
vn -1 0 0
vn -1 0 0
vn 0 0 -1
vn 0 0 -1
vn 0 0 -1
vn 0 0 -1
vn 0 1 0
vn 0 1 0
vn 0 1 0
vn 0 1 0
vn 0 1 0
vn 0 1 0
vn 0 1 0
vn 0 1 0

vt 9 0
vt 0 0
vt 9 6
vt 0 6
vt 0 0
vt 12 6
vt 12 0
vt 0 6
vt 1.001465 5.999756
vt -0.001464784 0.000244379
vt 0.001464903 6.000244
vt 0.9985351 -0.0002436638
vt 8 5.999999
vt -4.768372E-07 7.152557E-07
vt 4.768372E-07 6.000001
vt 8 -7.152557E-07
vt 10.99896 6.001898
vt 0.00103569 -0.001897573
vt -0.001034737 5.998102
vt 11.00103 0.00189805
vt 1.001208 7.999827
vt -0.001553655 0.0001730919
vt 0.001553744 9.000172
vt 0.9984462 -0.0001721382
vt 12 0
vt 0 1
vt 12 1
vt 1 0

g Wall-detach_909_60
usemtl Wall-detach_909_60
usemap Wall-detach_909_60
f 1/1/1 3/3/3 2/2/2
f 2/2/2 3/3/3 4/4/4
f 5/5/5 7/7/7 6/6/6
f 5/5/5 6/6/6 8/8/8
f 9/9/9 11/11/11 10/10/10
f 9/9/9 10/10/10 12/12/12
f 13/13/13 15/15/15 14/14/14
f 13/13/13 14/14/14 16/16/16
f 17/17/17 19/19/19 18/18/18
f 17/17/17 18/18/18 20/20/20
f 21/21/21 23/23/23 22/22/22
f 21/21/21 22/22/22 24/24/24
f 25/25/25 27/27/27 26/26/26
f 25/25/25 26/26/26 28/28/28
