#Wall-detach_670_51.obj

v 59 8 -19
v 21 8 -18
v 21 8 -19
v 59 8 -18
v 63 8 -19
v 59 8 -18
v 59 8 -19
v 63 8 -17
v 63 8 -17
v 59 8 -17
v 59 8 -18
v 63 8 -19
v 66 8 -15
v 63 8 -17
v 66 8 -19
v 63 8 -17
v 66 8 -15
v 63 8 -16
v 63 8 -15

vn 0 1 0
vn 0 1 0
vn 0 1 0
vn 0 1 0
vn 0 1 0
vn 0 1 0
vn 0 1 0
vn 0 1 0
vn 0 1 0
vn 0 1 0
vn 0 1 0
vn 0 1 0
vn 0 1 0
vn 0 1 0
vn 0 1 0
vn 0 1 0
vn 0 1 0
vn 0 1 0
vn 0 1 0

vt 0 0
vt 38 1
vt 38 0
vt 0 1
vt 0 0
vt 4 1
vt 4 0
vt 0 2
vt 0 1
vt 4 1
vt 4 0
vt 3 0
vt 0 4
vt 3 2
vt 0 0
vt 3 0
vt 0 2
vt 3 1
vt 3 2

g Wall-detach_670_51
usemtl Wall-detach_670_51
usemap Wall-detach_670_51
f 1/1/1 3/3/3 2/2/2
f 1/1/1 2/2/2 4/4/4
f 5/5/5 7/7/7 6/6/6
f 5/5/5 6/6/6 8/8/8
f 9/9/9 11/11/11 10/10/10
f 12/12/12 14/14/14 13/13/13
f 12/12/12 13/13/13 15/15/15
f 16/16/16 18/18/18 17/17/17
f 17/17/17 18/18/18 19/19/19
