#Wall-detach_695_26.obj

v -1 3 -8
v -1 -7 -19
v -1 3 -19
v -1 -7 -8
v -1 4 -6
v -1 -7 -8
v -1 3 -8
v -1 -7 -6
v -1 8 10
v -1 -7 10
v -1 8 1
v -1 -7 1
v -1 4 1
v -1 -7 -6
v -1 4 -6
v -1 4 1
v -1 -7 1

vn -0.9999999 0 0
vn -0.9999999 0 0
vn -0.9999999 0 0
vn -0.9999999 0 0
vn -1 0 0
vn -1 0 0
vn -1 0 0
vn -1 0 0
vn -1 0 0
vn -1 0 0
vn -1 0 0
vn -1 0 0
vn -1 0 0
vn -1 0 0
vn -1 0 0
vn -1 0 0
vn -1 0 0

vt 11 10
vt 0 0
vt 0 10
vt 11 0
vt 2 11
vt 0 0
vt 0 10
vt 2 0
vt 9 15
vt 9 0
vt 0 15
vt 0 0
vt 0 11
vt 0 0
vt 0 11
vt 7 11
vt 7 0

g Wall-detach_695_26
usemtl Wall-detach_695_26
usemap Wall-detach_695_26
f 1/1/1 3/3/3 2/2/2
f 1/1/1 2/2/2 4/4/4
f 5/5/5 7/7/7 6/6/6
f 5/5/5 6/6/6 8/8/8
f 9/9/9 11/11/11 10/10/10
f 10/10/10 13/13/13 12/12/12
f 11/11/11 13/13/13 10/10/10
f 14/14/14 16/16/16 15/15/15
f 17/17/17 16/16/16 14/14/14
