#Wall-detach_850_46.obj

v 28 -3 -13
v 28 0 -13
v 28 -3 6
v 28 4 -13
v 28 4 6
v 23 4 6
v 28 -3 6
v 28 4 6
v 23 -3 6
v 23 4 -8
v 23 -3 1
v 23 4 1
v 23 -3 -8
v 18 4 1
v 23 4 1
v 18 -3 1
v 23 -3 1

vn -1 0 0
vn -1 0 0
vn -1 0 0
vn -0.9999999 0 0
vn -1 0 0
vn 0 0 -1
vn 0 0 -1
vn 0 0 -1
vn 0 0 -1
vn 1 0 0
vn 1 0 0
vn 1 0 0
vn 1 0 0
vn 0 0 1
vn 0 0 1
vn 0 0 1
vn 0 0 1

vt 0 0
vt 0 3
vt 19 0
vt 0 7
vt 19 7
vt 5 7
vt 0 0
vt 0 7
vt 5 0
vt 9 7
vt 0 0
vt 0 7
vt 9 0
vt 0 7
vt 5 7
vt 0 0
vt 5 0

g Wall-detach_850_46
usemtl Wall-detach_850_46
usemap Wall-detach_850_46
f 1/1/1 3/3/3 2/2/2
f 4/4/4 3/3/3 5/5/5
f 4/4/4 2/2/2 3/3/3
f 6/6/6 8/8/8 7/7/7
f 6/6/6 7/7/7 9/9/9
f 10/10/10 12/12/12 11/11/11
f 10/10/10 11/11/11 13/13/13
f 14/14/14 16/16/16 15/15/15
f 15/15/15 16/16/16 17/17/17
