#Wall-detach_953_40.obj

v 5 -1 12
v 2 -1 12
v 5 2 12
v 2 2 12
v 2 -1 12
v 2 -1 11
v 2 2 12
v 2 2 11
v 2 -1 11
v 5 -1 11
v 2 2 11
v 5 2 11
v 5 2 12
v 2 2 12
v 5 2 11
v 2 2 11
v -4 -1 21
v -4 -1 11
v -4 2 21
v -4 2 11
v -3 -1 12
v -3 -1 21
v -3 2 12
v -3 2 21
v -1 -1 12
v -1 2 12
v -1 -1 11
v -1 2 11
v -3 -1 12
v -3 2 12
v -1 -1 12
v -1 2 12
v -4 2 11
v -4 -1 11
v -1 2 11
v -1 -1 11
v -1 2 12
v -4 2 11
v -1 2 11
v -3 2 12
v -3 2 12
v -4 2 21
v -4 2 11
v -3 2 21

vn 0 0 1
vn 0 0 1
vn 0 0 1
vn 0 0 1
vn -1 0 0
vn -1 0 0
vn -1 0 0
vn -1 0 0
vn 0 0 -1
vn 0 0 -1
vn 0 0 -1
vn 0 0 -1
vn 0 1 0
vn 0 1 0
vn 0 1 0
vn 0 1 0
vn -1 0 0
vn -1 0 0
vn -1 0 0
vn -1 0 0
vn 1 0 0
vn 1 0 0
vn 1 0 0
vn 1 0 0
vn 1 0 0
vn 1 0 0
vn 1 0 0
vn 1 0 0
vn 0 0 1
vn 0 0 1
vn 0 0 1
vn 0 0 1
vn 0 0 -1
vn 0 0 -1
vn 0 0 -1
vn 0 0 -1
vn 0 1 0
vn 0 1 0
vn 0 1 0
vn 0 1 0
vn 0 1 0
vn 0 1 0
vn 0 1 0
vn 0 1 0

vt 3 0
vt 0 0
vt 3 3
vt 0 3
vt 1 0
vt 0 0
vt 1 3
vt 0 3
vt 3 0
vt 0 0
vt 3 3
vt 0 3
vt 0 1
vt 3 1
vt 0 0
vt 3 0
vt 10 0
vt 0 0
vt 10 3
vt 0 3
vt 9 0
vt 0 0
vt 9 3
vt 0 3
vt 0 0
vt 0 3
vt 1 0
vt 1 3
vt 0 0
vt 0 3
vt 2 0
vt 2 3
vt 3 3
vt 3 0
vt 0 3
vt 0 0
vt 0.0001727343 1.000518
vt 2.999827 -0.0005178452
vt -0.0001724958 0.0005179346
vt 2.000173 0.9998273
vt -0.001953065 1.000245
vt 1.002441 9.999756
vt 0.9975585 -0.0002436638
vt 0.002441466 10.00024

g Wall-detach_953_40
usemtl Wall-detach_953_40
usemap Wall-detach_953_40
f 1/1/1 3/3/3 2/2/2
f 2/2/2 3/3/3 4/4/4
f 5/5/5 7/7/7 6/6/6
f 6/6/6 7/7/7 8/8/8
f 9/9/9 11/11/11 10/10/10
f 10/10/10 11/11/11 12/12/12
f 13/13/13 15/15/15 14/14/14
f 14/14/14 15/15/15 16/16/16
f 17/17/17 19/19/19 18/18/18
f 18/18/18 19/19/19 20/20/20
f 21/21/21 23/23/23 22/22/22
f 22/22/22 23/23/23 24/24/24
f 25/25/25 27/27/27 26/26/26
f 26/26/26 27/27/27 28/28/28
f 29/29/29 31/31/31 30/30/30
f 30/30/30 31/31/31 32/32/32
f 33/33/33 35/35/35 34/34/34
f 34/34/34 35/35/35 36/36/36
f 37/37/37 39/39/39 38/38/38
f 37/37/37 38/38/38 40/40/40
f 41/41/41 43/43/43 42/42/42
f 41/41/41 42/42/42 44/44/44
