#Wall_536_4.obj

v -1 -2 -5.9
v -1 -1 0.1000004
v -1 -1 -5.9
v -1 -2 0.1000004
v 5 -2 -5.9
v -1 -2 0.1000004
v -1 -2 -5.9
v 5 -2 0.1000004
v 5 -1 -5.9
v 5 -2 0.1000004
v 5 -2 -5.9
v 5 -1 0.1000004
v 5 -2 -5.9
v -1 -1 -5.9
v 5 -1 -5.9
v -1 -2 -5.9
v -1 -2 25.1
v -1 -1 31.1
v -1 -1 25.1
v -1 -2 31.1
v 5 -2 25.1
v -1 -2 31.1
v -1 -2 25.1
v 5 -2 31.1
v 5 -1 25.1
v 5 -2 31.1
v 5 -2 25.1
v 5 -1 31.1
v 5 -1 31.1
v -1 -2 31.1
v 5 -2 31.1
v -1 -1 31.1

vn 1 0 0
vn 1 0 0
vn 1 0 0
vn 1 0 0
vn 0 1 0
vn 0 1 0
vn 0 1 0
vn 0 1 0
vn -1 0 0
vn -1 0 0
vn -1 0 0
vn -1 0 0
vn 0 0 1
vn 0 0 1
vn 0 0 1
vn 0 0 1
vn 1 0 0
vn 1 0 0
vn 1 0 0
vn 1 0 0
vn 0 1 0
vn 0 1 0
vn 0 1 0
vn 0 1 0
vn -1 0 0
vn -1 0 0
vn -1 0 0
vn -1 0 0
vn 0 0 -1
vn 0 0 -1
vn 0 0 -1
vn 0 0 -1

vt 6 0
vt 0 1
vt 6 1
vt 0 0
vt 0 0
vt 6 6
vt 6 0
vt 0 6
vt 0 1
vt 6 0
vt 0 0
vt 6 1
vt 6 0
vt 0 1
vt 6 1
vt 0 0
vt 6 0
vt 0 1
vt 6 1
vt 0 0
vt 0 0
vt 6 6
vt 6 0
vt 0 6
vt 0 1
vt 6 0
vt 0 0
vt 6 1
vt 0 1
vt 6 0
vt 0 0
vt 6 1

g Wall_536_4
usemtl Wall_536_4
usemap Wall_536_4
f 1/1/1 3/3/3 2/2/2
f 1/1/1 2/2/2 4/4/4
f 5/5/5 7/7/7 6/6/6
f 5/5/5 6/6/6 8/8/8
f 9/9/9 11/11/11 10/10/10
f 9/9/9 10/10/10 12/12/12
f 13/13/13 15/15/15 14/14/14
f 13/13/13 14/14/14 16/16/16
f 17/17/17 19/19/19 18/18/18
f 17/17/17 18/18/18 20/20/20
f 21/21/21 23/23/23 22/22/22
f 21/21/21 22/22/22 24/24/24
f 25/25/25 27/27/27 26/26/26
f 25/25/25 26/26/26 28/28/28
f 29/29/29 31/31/31 30/30/30
f 29/29/29 30/30/30 32/32/32
