#Wall-detach_923_53.obj

v -6 -6 -29
v -6 5 -20
v -6 5 -29
v -6 -6 -20
v -3 -6 -20
v -3 5 -29
v -3 5 -20
v -3 -6 -29
v -2 5 -20
v -3 -6 -20
v -3 5 -20
v -2 -6 -20
v -2 5 -19
v -2 -6 -20
v -2 5 -20
v -2 -6 -19
v 7 5 -19
v -2 -6 -19
v -2 5 -19
v 7 -6 -19
v -3 5 -20
v -6 5 -29
v -6 5 -20
v -3 5 -29
v -7 -6 -20
v -6 5 -20
v -6 -6 -20
v -7 5 -20
v -7 -6 -19
v -7 5 -20
v -7 -6 -20
v -7 5 -19
v -8 -6 -19
v -7 5 -19
v -7 -6 -19
v -8 5 -19
v -8 -6 -18
v -8 5 -19
v -8 -6 -19
v -8 5 -18
v -18 -6 -18
v -8 5 -18
v -8 -6 -18
v -18 5 -18
v -18 -6 -13
v -18 5 -18
v -18 -6 -18
v -18 5 -13
v -8 5 -13
v -8 0 -9
v -8 5 -9
v -8 0 -13
v -18 5 -13
v -18 0 -13
v -15 5 -13
v -15 0 -13
v -8 0 -13
v -8 5 -13
v -15 5 -13
v -15 0 -13
v -8 5 -18
v -18 5 -18
v -15 5 -13
v -18 5 -13
v -8 5 -13
v -6 5 -20
v -7 5 -19
v -8 5 -9
v -7 5 -20
v -8 5 -19
v -3 5 -20
v 0 5 -9
v -2 5 -19
v -2 5 -20
v 3 5 -9
v 7 5 -9
v 7 5 -19
v 7 5 -9
v 7 -6 -9
v 7 5 -19
v 7 -6 -19

vn 1 0 0
vn 1 0 0
vn 1 0 0
vn 1 0 0
vn -1 0 0
vn -1 0 0
vn -1 0 0
vn -1 0 0
vn 0 0 1
vn 0 0 1
vn 0 0 1
vn 0 0 1
vn -1 0 0
vn -1 0 0
vn -1 0 0
vn -1 0 0
vn 0 0 1
vn 0 0 1
vn 0 0 1
vn 0 0 1
vn 0 -1 0
vn 0 -1 0
vn 0 -1 0
vn 0 -1 0
vn 0 0 1
vn 0 0 1
vn 0 0 1
vn 0 0 1
vn 1 0 0
vn 1 0 0
vn 1 0 0
vn 1 0 0
vn 0 0 1
vn 0 0 1
vn 0 0 1
vn 0 0 1
vn 1 0 0
vn 1 0 0
vn 1 0 0
vn 1 0 0
vn 0 0 0.9999999
vn 0 0 0.9999999
vn 0 0 0.9999999
vn 0 0 0.9999999
vn 0.9999999 0 0
vn 0.9999999 0 0
vn 0.9999999 0 0
vn 0.9999999 0 0
vn 1 0 0
vn 1 0 0
vn 1 0 0
vn 1 0 0
vn 0 0 -1
vn 0 0 -1
vn 0 0 -1
vn 0 0 -1
vn 0 0 -1
vn 0 0 -1
vn 0 0 -1
vn 0 0 -1
vn 0 -1 0
vn 0 -1 0
vn 0 -1 0
vn 0 -1 0
vn 0 -1 0
vn 0 -1 0
vn 0 -1 0
vn 0 -1 0
vn 0 -1 0
vn 0 -1 0
vn 0 -1 0
vn 0 -1 0
vn 0 -1 0
vn 0 -1 0
vn 0 -1 0
vn 0 -1 0
vn 0 -1 0
vn -0.9999999 0 0
vn -0.9999999 0 0
vn -0.9999999 0 0
vn -0.9999999 0 0

vt 9 0
vt 0 11
vt 9 11
vt 0 0
vt 9 0
vt 0 11
vt 9 11
vt 0 0
vt 1 11
vt 0 0
vt 0 11
vt 1 0
vt 1 11
vt 0 0
vt 0 11
vt 1 0
vt 9 11
vt 0 0
vt 0 11
vt 9 0
vt 3 9
vt 0 0
vt 0 9
vt 3 0
vt 0 0
vt 1 11
vt 1 0
vt 0 11
vt 0 0
vt 1 11
vt 1 0
vt 0 11
vt 0 0
vt 1 11
vt 1 0
vt 0 11
vt 0 0
vt 1 11
vt 1 0
vt 0 11
vt 0 0
vt 10 11
vt 10 0
vt 0 11
vt 0 0
vt 5 11
vt 5 0
vt 0 11
vt 4 5
vt 0 0
vt 0 5
vt 4 0
vt 3 5
vt 3 0
vt 0 5
vt 0 0
vt 0 0
vt 0 5
vt 7 5
vt 7 0
vt 10 0
vt 0 0
vt 3 5
vt 0 5
vt 10 5
vt 2 0
vt 1 1
vt 0 11
vt 1 0
vt 0 1
vt 5 0
vt 8 11
vt 6 1
vt 6 0
vt 11 11
vt 15 11
vt 15 1
vt 10 11
vt 10 0
vt 0 11
vt 0 0

g Wall-detach_923_53
usemtl Wall-detach_923_53
usemap Wall-detach_923_53
f 1/1/1 3/3/3 2/2/2
f 1/1/1 2/2/2 4/4/4
f 5/5/5 7/7/7 6/6/6
f 5/5/5 6/6/6 8/8/8
f 9/9/9 11/11/11 10/10/10
f 9/9/9 10/10/10 12/12/12
f 13/13/13 15/15/15 14/14/14
f 13/13/13 14/14/14 16/16/16
f 17/17/17 19/19/19 18/18/18
f 17/17/17 18/18/18 20/20/20
f 21/21/21 23/23/23 22/22/22
f 21/21/21 22/22/22 24/24/24
f 25/25/25 27/27/27 26/26/26
f 25/25/25 26/26/26 28/28/28
f 29/29/29 31/31/31 30/30/30
f 29/29/29 30/30/30 32/32/32
f 33/33/33 35/35/35 34/34/34
f 33/33/33 34/34/34 36/36/36
f 37/37/37 39/39/39 38/38/38
f 37/37/37 38/38/38 40/40/40
f 41/41/41 43/43/43 42/42/42
f 41/41/41 42/42/42 44/44/44
f 45/45/45 47/47/47 46/46/46
f 45/45/45 46/46/46 48/48/48
f 49/49/49 51/51/51 50/50/50
f 49/49/49 50/50/50 52/52/52
f 53/53/53 55/55/55 54/54/54
f 54/54/54 55/55/55 56/56/56
f 57/57/57 59/59/59 58/58/58
f 60/60/60 59/59/59 57/57/57
f 61/61/61 63/63/63 62/62/62
f 62/62/62 63/63/63 64/64/64
f 65/65/65 63/63/63 61/61/61
f 66/66/66 68/68/68 67/67/67
f 67/67/67 69/69/69 66/66/66
f 67/67/67 68/68/68 70/70/70
f 71/71/71 68/68/68 66/66/66
f 71/71/71 73/73/73 72/72/72
f 71/71/71 72/72/72 68/68/68
f 73/73/73 71/71/71 74/74/74
f 73/73/73 75/75/75 72/72/72
f 73/73/73 77/77/77 76/76/76
f 73/73/73 76/76/76 75/75/75
f 78/78/78 80/80/80 79/79/79
f 80/80/80 81/81/81 79/79/79
