#Wall-detach_739_63.obj

v -3 0 18
v 3 0 16
v -3 0 16
v 3 0 18
v 3 0 18
v 3 -7 16
v 3 0 16
v 3 -7 18
v -3 -7 18
v -3 0 16
v -3 -7 16
v -3 0 18
v -5 1 29
v -5 0 24
v -5 0 29
v -5 1 24
v 3 -7 18
v 3 0 18
v 5 1 18
v 5 -7 18
v 3 1 18
v -3 0 18
v 3 1 18
v 3 0 18
v -3 1 18
v -5 -7 18
v -5 -7 24
v -5 1 18
v -5 0 24
v -5 1 24
v -3 0 18
v -5 1 18
v -3 1 18
v -3 -7 18
v -5 -7 18
v 5 1 26
v 5 1 29
v 5 -7 29
v 5 -7 26
v -5 0 29
v 5 1 29
v -5 1 29
v -5 -7 29
v 5 -7 29
v 5 -7 23
v 5 -7 18
v 5 1 23
v 5 1 18
v 8 1 26
v 5 1 23
v 5 1 26
v 8 1 23
v 8 -2 23
v 5 1 23
v 8 1 23
v 5 -2 23
v -5 1 23
v -5 1 24
v -3 1 24
v -3 1 23
v -2 1 23
v -2 1 24
v 2 1 24
v 2 1 23
v 5 1 24
v 5 1 23
v 3 1 24
v 3 1 23
v -3 1 23
v -5 1 18
v -5 1 23
v -2 1 23
v 5 1 18
v 2 1 23
v 3 1 23
v 5 1 23
v -5 1 29
v -3 1 24
v -5 1 24
v -2 1 24
v 5 1 29
v 2 1 24
v 3 1 24
v 5 1 24
v -3 1 23
v -3 1 24
v -3 -7 23
v -3 -7 24
v -3 1 24
v -2 1 24
v -3 -7 24
v -2 -7 24
v -2 1 23
v -3 1 23
v -2 -7 23
v -3 -7 23
v -2 1 24
v -2 1 23
v -2 -7 24
v -2 -7 23
v 2 1 23
v 2 1 24
v 2 -7 23
v 2 -7 24
v 2 1 24
v 3 1 24
v 2 -7 24
v 3 -7 24
v 3 1 23
v 2 1 23
v 3 -7 23
v 2 -7 23
v 3 1 24
v 3 1 23
v 3 -7 24
v 3 -7 23
v 8 1 26
v 5 1 26
v 8 -2 26
v 5 -2 26

vn 0 -1 0
vn 0 -1 0
vn 0 -1 0
vn 0 -1 0
vn -1 0 0
vn -1 0 0
vn -1 0 0
vn -1 0 0
vn 1 0 0
vn 1 0 0
vn 1 0 0
vn 1 0 0
vn 1 0 0
vn 1 0 0
vn 1 0 0
vn 1 0 0
vn 0 0 1
vn 0 0 1
vn 0 0 1
vn 0 0 1
vn 0 0 1
vn 0 0 1
vn 0 0 1
vn 0 0 1
vn 0 0 1
vn 1 0 0
vn 1 0 0
vn 1 0 0
vn 1 0 0
vn 1 0 0
vn 0 0 1
vn 0 0 1
vn 0 0 1
vn 0 0 1
vn 0 0 1
vn -1 0 0
vn -1 0 0
vn -1 0 0
vn -1 0 0
vn 0 0 -1
vn 0 0 -1
vn 0 0 -1
vn 0 0 -1
vn 0 0 -1
vn -1 0 0
vn -1 0 0
vn -1 0 0
vn -1 0 0
vn 0 -1 0
vn 0 -1 0
vn 0 -1 0
vn 0 -1 0
vn 0 0 1
vn 0 0 1
vn 0 0 1
vn 0 0 1
vn 0 -1 0
vn 0 -1 0
vn 0 -1 0
vn 0 -1 0
vn 0 -1 0
vn 0 -1 0
vn 0 -1 0
vn 0 -1 0
vn 0 -1 0
vn 0 -1 0
vn 0 -1 0
vn 0 -1 0
vn 0 -1 0
vn 0 -1 0
vn 0 -1 0
vn 0 -1 0
vn 0 -1 0
vn 0 -1 0
vn 0 -1 0
vn 0 -1 0
vn 0 -1 0
vn 0 -1 0
vn 0 -1 0
vn 0 -1 0
vn 0 -1 0
vn 0 -1 0
vn 0 -1 0
vn 0 -1 0
vn -1 0 0
vn -1 0 0
vn -1 0 0
vn -1 0 0
vn 0 0 1
vn 0 0 1
vn 0 0 1
vn 0 0 1
vn 0 0 -1
vn 0 0 -1
vn 0 0 -1
vn 0 0 -1
vn 1 0 0
vn 1 0 0
vn 1 0 0
vn 1 0 0
vn -1 0 0
vn -1 0 0
vn -1 0 0
vn -1 0 0
vn 0 0 1
vn 0 0 1
vn 0 0 1
vn 0 0 1
vn 0 0 -1
vn 0 0 -1
vn 0 0 -1
vn 0 0 -1
vn 1 0 0
vn 1 0 0
vn 1 0 0
vn 1 0 0
vn 0 0 -1
vn 0 0 -1
vn 0 0 -1
vn 0 0 -1

vt 0 2
vt 6 0
vt 0 0
vt 6 2
vt 2 7
vt 0 0
vt 0 7
vt 2 0
vt 0 0
vt 2 7
vt 2 0
vt 0 7
vt 0 1
vt 5 0
vt 0 0
vt 5 1
vt 0 0
vt 0 7
vt 2 8
vt 2 0
vt 0 8
vt 0 0
vt 6 1
vt 6 0
vt 0 1
vt 6 0
vt 0 0
vt 6 8
vt 0 7
vt 0 8
vt 2 7
vt 0 8
vt 2 8
vt 2 0
vt 0 0
vt 0 8
vt 3 8
vt 3 0
vt 0 0
vt 10 7
vt 0 8
vt 10 8
vt 10 0
vt 0 0
vt 5 0
vt 0 0
vt 5 8
vt 0 8
vt 3 3
vt 0 0
vt 0 3
vt 3 0
vt 3 0
vt 0 3
vt 3 3
vt 0 0
vt 0 0
vt 0 1
vt 2 1
vt 2 0
vt 0 0
vt 0 1
vt 4 1
vt 4 0
vt 2 1
vt 2 0
vt 0 1
vt 0 0
vt 2 5
vt 0 0
vt 0 5
vt 3 5
vt 10 0
vt 7 5
vt 8 5
vt 10 5
vt 0 5
vt 2 0
vt 0 0
vt 3 0
vt 10 5
vt 7 0
vt 8 0
vt 10 0
vt 0 8
vt 1 8
vt 0 0
vt 1 0
vt 0 8
vt 1 8
vt 0 0
vt 1 0
vt 0 8
vt 1 8
vt 0 0
vt 1 0
vt 0 8
vt 1 8
vt 0 0
vt 1 0
vt 0 8
vt 1 8
vt 0 0
vt 1 0
vt 0 8
vt 1 8
vt 0 0
vt 1 0
vt 0 8
vt 1 8
vt 0 0
vt 1 0
vt 0 8
vt 1 8
vt 0 0
vt 1 0
vt 0 3
vt 3 3
vt 0 0
vt 3 0

g Wall-detach_739_63
usemtl Wall-detach_739_63
usemap Wall-detach_739_63
f 1/1/1 3/3/3 2/2/2
f 1/1/1 2/2/2 4/4/4
f 5/5/5 7/7/7 6/6/6
f 5/5/5 6/6/6 8/8/8
f 9/9/9 11/11/11 10/10/10
f 9/9/9 10/10/10 12/12/12
f 13/13/13 15/15/15 14/14/14
f 13/13/13 14/14/14 16/16/16
f 17/17/17 19/19/19 18/18/18
f 20/20/20 19/19/19 17/17/17
f 18/18/18 19/19/19 21/21/21
f 22/22/22 24/24/24 23/23/23
f 22/22/22 23/23/23 25/25/25
f 26/26/26 28/28/28 27/27/27
f 27/27/27 28/28/28 29/29/29
f 29/29/29 28/28/28 30/30/30
f 31/31/31 33/33/33 32/32/32
f 31/31/31 32/32/32 34/34/34
f 34/34/34 32/32/32 35/35/35
f 36/36/36 38/38/38 37/37/37
f 39/39/39 38/38/38 36/36/36
f 40/40/40 42/42/42 41/41/41
f 40/40/40 44/44/44 43/43/43
f 41/41/41 44/44/44 40/40/40
f 45/45/45 47/47/47 46/46/46
f 46/46/46 47/47/47 48/48/48
f 49/49/49 51/51/51 50/50/50
f 49/49/49 50/50/50 52/52/52
f 53/53/53 55/55/55 54/54/54
f 53/53/53 54/54/54 56/56/56
f 57/57/57 59/59/59 58/58/58
f 60/60/60 59/59/59 57/57/57
f 61/61/61 63/63/63 62/62/62
f 64/64/64 63/63/63 61/61/61
f 65/65/65 67/67/67 66/66/66
f 66/66/66 67/67/67 68/68/68
f 69/69/69 71/71/71 70/70/70
f 70/70/70 72/72/72 69/69/69
f 70/70/70 73/73/73 72/72/72
f 73/73/73 74/74/74 72/72/72
f 73/73/73 75/75/75 74/74/74
f 76/76/76 75/75/75 73/73/73
f 77/77/77 79/79/79 78/78/78
f 78/78/78 80/80/80 77/77/77
f 80/80/80 81/81/81 77/77/77
f 80/80/80 82/82/82 81/81/81
f 82/82/82 83/83/83 81/81/81
f 81/81/81 83/83/83 84/84/84
f 85/85/85 87/87/87 86/86/86
f 86/86/86 87/87/87 88/88/88
f 89/89/89 91/91/91 90/90/90
f 90/90/90 91/91/91 92/92/92
f 93/93/93 95/95/95 94/94/94
f 94/94/94 95/95/95 96/96/96
f 97/97/97 99/99/99 98/98/98
f 98/98/98 99/99/99 100/100/100
f 101/101/101 103/103/103 102/102/102
f 102/102/102 103/103/103 104/104/104
f 105/105/105 107/107/107 106/106/106
f 106/106/106 107/107/107 108/108/108
f 109/109/109 111/111/111 110/110/110
f 110/110/110 111/111/111 112/112/112
f 113/113/113 115/115/115 114/114/114
f 114/114/114 115/115/115 116/116/116
f 117/117/117 119/119/119 118/118/118
f 118/118/118 119/119/119 120/120/120
