#Wall-detach_1272_45.obj

v 47 -6 0
v 32 1 0
v 32 -6 0
v 47 1 0
v 47 -6 3
v 47 1 0
v 47 -6 0
v 47 1 3
v 51 -6 3
v 47 1 3
v 47 -6 3
v 51 1 3
v 47 1 -4
v 51 1 -4
v 51 -3 -4
v 47 -3 -4
v 51 1 -4
v 51 1 0
v 51 -3 -4
v 51 -3 0
v 47 -6 -4
v 36 -6 -4
v 47 -3 -4
v 36 1 -4
v 47 1 -4
v 32 -6 0
v 32 1 0
v 32 -6 -14
v 32 1 -14
v 36 1 -4
v 36 -6 -4
v 36 1 -14
v 36 -6 -14
v 51 1 3
v 51 -6 3
v 51 -3 0
v 51 1 0
v 51 -6 0
v 51 -6 -4
v 56 -7 -4
v 51 -7 -4
v 51 -3 -4
v 56 -3 -4
v 51 -7 0
v 56 -7 0
v 51 -6 0
v 56 -3 0
v 51 -3 0
v 66 -2 5
v 66 -7 -7
v 66 -2 -7
v 66 -7 5
v 47 -6 -11
v 47 -7 -11
v 47 -6 -10
v 47 -6 -4
v 47 -3 -4
v 47 -3 -5
v 47 -6 -10
v 47 -3 -11
v 47 -6 -11
v 51 -7 -11
v 51 -6 -11
v 51 -6 -10
v 51 -3 -4
v 51 -6 -4
v 51 -3 -5
v 51 -6 -10
v 51 -6 -11
v 51 -3 -11

vn 0 0 -1
vn 0 0 -1
vn 0 0 -1
vn 0 0 -1
vn 1 0 0
vn 1 0 0
vn 1 0 0
vn 1 0 0
vn 0 0 -1
vn 0 0 -1
vn 0 0 -1
vn 0 0 -1
vn 0 0 1
vn 0 0 1
vn 0 0 1
vn 0 0 1
vn -1 0 0
vn -1 0 0
vn -1 0 0
vn -1 0 0
vn 0 0 1
vn 0 0 0.9999999
vn 0 0 1
vn 0 0 0.9999999
vn 0 0 1
vn 1 0 0
vn 1 0 0
vn 1 0 0
vn 1 0 0
vn -1 0 0
vn -1 0 0
vn -1 0 0
vn -1 0 0
vn -1 0 0
vn -1 0 0
vn -1 0 0
vn -1 0 0
vn -1 0 0
vn 0 0 1
vn 0 0 1
vn 0 0 1
vn 0 0 1
vn 0 0 1
vn 0 0 -1
vn 0 0 -1
vn 0 0 -1
vn 0 0 -1
vn 0 0 -1
vn -1 0 0
vn -1 0 0
vn -1 0 0
vn -1 0 0
vn 1 0 0
vn 1 0 0
vn 1 0 0
vn 1 0 0
vn 1 0 0
vn 1 0 0
vn 1 0 0
vn 1 0 0
vn 1 0 0
vn -1 0 0
vn -1 0 0
vn -1 0 0
vn -1 0 0
vn -1 0 0
vn -1 0 0
vn -1 0 0
vn -1 0 0
vn -1 0 0

vt 0 0
vt 15 7
vt 15 0
vt 0 7
vt 0 0
vt 3 7
vt 3 0
vt 0 7
vt 0 0
vt 4 7
vt 4 0
vt 0 7
vt 0 4
vt 4 4
vt 4 0
vt 0 0
vt 0 4
vt 4 4
vt 0 0
vt 4 0
vt 11 0
vt 0 0
vt 11 3
vt 0 7
vt 11 7
vt 0 0
vt 0 7
vt 14 0
vt 14 7
vt 10 7
vt 10 0
vt 0 7
vt 0 0
vt 3 7
vt 3 0
vt 0 3
vt 0 7
vt 0 0
vt 0 1
vt 5 0
vt 0 0
vt 0 4
vt 5 4
vt 5 0
vt 0 0
vt 5 1
vt 0 4
vt 5 4
vt 12 5
vt 0 0
vt 0 5
vt 12 0
vt 1 1
vt 1 0
vt 0 1
vt 0 0
vt 0 3
vt 1 3
vt 6 0
vt 7 3
vt 7 0
vt 0 0
vt 0 1
vt 1 1
vt 7 3
vt 7 0
vt 6 3
vt 1 0
vt 0 0
vt 0 3

g Wall-detach_1272_45
usemtl Wall-detach_1272_45
usemap Wall-detach_1272_45
f 1/1/1 3/3/3 2/2/2
f 1/1/1 2/2/2 4/4/4
f 5/5/5 7/7/7 6/6/6
f 5/5/5 6/6/6 8/8/8
f 9/9/9 11/11/11 10/10/10
f 9/9/9 10/10/10 12/12/12
f 13/13/13 15/15/15 14/14/14
f 13/13/13 16/16/16 15/15/15
f 17/17/17 19/19/19 18/18/18
f 18/18/18 19/19/19 20/20/20
f 21/21/21 23/23/23 22/22/22
f 22/22/22 23/23/23 24/24/24
f 24/24/24 23/23/23 25/25/25
f 26/26/26 28/28/28 27/27/27
f 27/27/27 28/28/28 29/29/29
f 30/30/30 32/32/32 31/31/31
f 31/31/31 32/32/32 33/33/33
f 34/34/34 36/36/36 35/35/35
f 34/34/34 37/37/37 36/36/36
f 36/36/36 38/38/38 35/35/35
f 39/39/39 41/41/41 40/40/40
f 39/39/39 43/43/43 42/42/42
f 40/40/40 43/43/43 39/39/39
f 44/44/44 46/46/46 45/45/45
f 46/46/46 47/47/47 45/45/45
f 48/48/48 47/47/47 46/46/46
f 49/49/49 51/51/51 50/50/50
f 49/49/49 50/50/50 52/52/52
f 53/53/53 55/55/55 54/54/54
f 56/56/56 58/58/58 57/57/57
f 56/56/56 59/59/59 58/58/58
f 58/58/58 59/59/59 60/60/60
f 60/60/60 59/59/59 61/61/61
f 62/62/62 64/64/64 63/63/63
f 65/65/65 67/67/67 66/66/66
f 67/67/67 68/68/68 66/66/66
f 69/69/69 68/68/68 70/70/70
f 70/70/70 68/68/68 67/67/67
