#Wall-detach_809_66.obj

v -38 4 -24
v -38 -3 -1
v -38 4 -1
v -38 -3 -24
v -31 4 -24
v -38 -3 -24
v -38 4 -24
v -31 -3 -24
v -31 4 -25
v -31 -3 -24
v -31 4 -24
v -31 -3 -25
v -31 -3 -25
v -31 4 -25
v -21 -3 -25
v -21 4 -25

vn 1 0 0
vn 1 0 0
vn 1 0 0
vn 1 0 0
vn 0 0 1
vn 0 0 1
vn 0 0 1
vn 0 0 1
vn 1 0 0
vn 1 0 0
vn 1 0 0
vn 1 0 0
vn 0 0 1
vn 0 0 1
vn 0 0 1
vn 0 0 1

vt 23 7
vt 0 0
vt 0 7
vt 23 0
vt 7 7
vt 0 0
vt 0 7
vt 7 0
vt 1 7
vt 0 0
vt 0 7
vt 1 0
vt 0 0
vt 0 7
vt 10 0
vt 10 7

g Wall-detach_809_66
usemtl Wall-detach_809_66
usemap Wall-detach_809_66
f 1/1/1 3/3/3 2/2/2
f 1/1/1 2/2/2 4/4/4
f 5/5/5 7/7/7 6/6/6
f 5/5/5 6/6/6 8/8/8
f 9/9/9 11/11/11 10/10/10
f 9/9/9 10/10/10 12/12/12
f 13/13/13 15/15/15 14/14/14
f 14/14/14 15/15/15 16/16/16
