#Wall-detach_1299_69.obj

v 40 0 47
v 40 0 45
v 40 -3 45
v 40 -7 45
v 40 -7 47
v 44 -7 47
v 44 -7 45
v 44 -3 45
v 44 0 45
v 44 0 47
v 47 0 47
v 44 -7 47
v 44 0 47
v 47 -7 47
v 47 0 55
v 47 -7 47
v 47 0 47
v 47 -7 55
v 40 0 55
v 47 -7 55
v 47 0 55
v 40 -7 55
v 40 0 51
v 40 -7 55
v 40 0 55
v 40 -7 51

vn 1 0 0
vn 1 0 0
vn 1 0 0
vn 1 0 0
vn 1 0 0
vn -1 0 0
vn -1 0 0
vn -1 0 0
vn -1 0 0
vn -1 0 0
vn 0 0 1
vn 0 0 1
vn 0 0 1
vn 0 0 1
vn -1 0 0
vn -1 0 0
vn -1 0 0
vn -1 0 0
vn 0 0 -1
vn 0 0 -1
vn 0 0 -1
vn 0 0 -1
vn 1 0 0
vn 1 0 0
vn 1 0 0
vn 1 0 0

vt 0 7
vt 2 7
vt 2 4
vt 2 0
vt 0 0
vt 2 0
vt 0 0
vt 0 4
vt 0 7
vt 2 7
vt 3 7
vt 0 0
vt 0 7
vt 3 0
vt 8 7
vt 0 0
vt 0 7
vt 8 0
vt 7 7
vt 0 0
vt 0 7
vt 7 0
vt 4 7
vt 0 0
vt 0 7
vt 4 0

g Wall-detach_1299_69
usemtl Wall-detach_1299_69
usemap Wall-detach_1299_69
f 1/1/1 3/3/3 2/2/2
f 4/4/4 3/3/3 5/5/5
f 5/5/5 3/3/3 1/1/1
f 6/6/6 8/8/8 7/7/7
f 9/9/9 8/8/8 10/10/10
f 10/10/10 8/8/8 6/6/6
f 11/11/11 13/13/13 12/12/12
f 11/11/11 12/12/12 14/14/14
f 15/15/15 17/17/17 16/16/16
f 15/15/15 16/16/16 18/18/18
f 19/19/19 21/21/21 20/20/20
f 19/19/19 20/20/20 22/22/22
f 23/23/23 25/25/25 24/24/24
f 23/23/23 24/24/24 26/26/26
