#Wall-detach_663_27.obj

v -75 -6 29
v -75 8 -37
v -75 -6 -37
v -75 8 29
v -62 -6 29
v -75 8 29
v -75 -6 29
v -62 8 29
v -62 -6 21
v -62 8 29
v -62 -6 29
v -62 8 21

vn 1 0 0
vn 1 0 0
vn 1 0 0
vn 1 0 0
vn 0 0 -1
vn 0 0 -1
vn 0 0 -1
vn 0 0 -1
vn -1 0 0
vn -1 0 0
vn -1 0 0
vn -1 0 0

vt 0 0
vt 66 14
vt 66 0
vt 0 14
vt -1.430511E-06 9.536743E-07
vt 13 14
vt 13 -9.536743E-07
vt 1.430511E-06 14
vt -1.430511E-06 4.768372E-07
vt 8.000002 14
vt 7.999999 -4.768372E-07
vt 1.192093E-06 14

g Wall-detach_663_27
usemtl Wall-detach_663_27
usemap Wall-detach_663_27
f 1/1/1 3/3/3 2/2/2
f 1/1/1 2/2/2 4/4/4
f 5/5/5 7/7/7 6/6/6
f 5/5/5 6/6/6 8/8/8
f 9/9/9 11/11/11 10/10/10
f 9/9/9 10/10/10 12/12/12
