#Wall-detach_981_42.obj

v -32 -6 -1
v -32 -6 0
v -32 -1 -1
v -32 -1 0
v -28 -6 0
v -28 -6 -1
v -28 -1 0
v -28 -1 -1
v -28 8 0
v -28 -1 0
v -32 8 0
v -32 -1 0
v -28 -1 0
v -28 -1 -1
v -32 -1 0
v -32 -1 -1
v -28 -1 -1
v -28 8 -1
v -32 -1 -1
v -32 8 -1
v -33 8 0
v -32 8 0
v -33 -6 0
v -32 -1 0
v -32 -6 0
v -28 -6 0
v -28 -1 0
v -27 -6 0
v -28 8 0
v -27 8 0
v -33 -6 -1
v -32 -6 -1
v -33 8 -1
v -32 -1 -1
v -32 8 -1
v -28 8 -1
v -28 -1 -1
v -27 8 -1
v -28 -6 -1
v -27 -6 -1

vn 1 0 0
vn 1 0 0
vn 1 0 0
vn 1 0 0
vn -1 0 0
vn -1 0 0
vn -1 0 0
vn -1 0 0
vn 0 0 1
vn 0 0 1
vn 0 0 1
vn 0 0 1
vn 0 -1 0
vn 0 -1 0
vn 0 -1 0
vn 0 -1 0
vn 0 0 -1
vn 0 0 -1
vn 0 0 -1
vn 0 0 -1
vn 0 0 1
vn 0 0 1
vn 0 0 1
vn 0 0 1
vn 0 0 1
vn 0 0 1
vn 0 0 1
vn 0 0 1
vn 0 0 1
vn 0 0 1
vn 0 0 -1
vn 0 0 -1
vn 0 0 -1
vn 0 0 -1
vn 0 0 -1
vn 0 0 -1
vn 0 0 -1
vn 0 0 -1
vn 0 0 -1
vn 0 0 -1

vt 1 0
vt 0 0
vt 1 5
vt 0 5
vt 1 0
vt 0 0
vt 1 5
vt 0 5
vt 4 9
vt 4 0
vt 0 9
vt 0 0
vt 4 1
vt 4 0
vt 0 1
vt 0 0
vt 0 0
vt 0 9
vt 4 0
vt 4 9
vt 1.221895E-06 14
vt 1.000001 14
vt -1.251698E-06 0
vt 0.9999996 5
vt 0.9999988 0
vt -1.251698E-06 0
vt -3.576279E-07 5
vt 0.9999988 0
vt 1.221895E-06 14
vt 1.000001 14
vt 0.9999988 0
vt -1.251698E-06 0
vt 1.000001 14
vt -3.576279E-07 5
vt 1.221895E-06 14
vt 1.000001 14
vt 0.9999996 5
vt 1.221895E-06 14
vt 0.9999988 0
vt -1.251698E-06 0

g Wall-detach_981_42
usemtl Wall-detach_981_42
usemap Wall-detach_981_42
f 1/1/1 3/3/3 2/2/2
f 2/2/2 3/3/3 4/4/4
f 5/5/5 7/7/7 6/6/6
f 6/6/6 7/7/7 8/8/8
f 9/9/9 11/11/11 10/10/10
f 10/10/10 11/11/11 12/12/12
f 13/13/13 15/15/15 14/14/14
f 14/14/14 15/15/15 16/16/16
f 17/17/17 19/19/19 18/18/18
f 18/18/18 19/19/19 20/20/20
f 21/21/21 23/23/23 22/22/22
f 22/22/22 23/23/23 24/24/24
f 24/24/24 23/23/23 25/25/25
f 26/26/26 28/28/28 27/27/27
f 29/29/29 28/28/28 30/30/30
f 27/27/27 28/28/28 29/29/29
f 31/31/31 33/33/33 32/32/32
f 32/32/32 33/33/33 34/34/34
f 34/34/34 33/33/33 35/35/35
f 36/36/36 38/38/38 37/37/37
f 39/39/39 38/38/38 40/40/40
f 37/37/37 38/38/38 39/39/39
