#Wall-detach_690_19.obj

v 46 -1 18
v 37 3 18
v 37 -1 18
v 46 3 18
v 46 3 19
v 37 3 18
v 46 3 18
v 37 3 19
v 46 6 19
v 46 3 18
v 46 6 18
v 46 3 19
v 37 3 19
v 37 6 18
v 37 3 18
v 37 6 19
v 46 3 19
v 37 6 19
v 37 3 19
v 46 6 19
v 33 6 18
v 37 3 18
v 37 6 18
v 37 -1 18
v 33 -1 18
v 46 3 18
v 50 6 18
v 46 6 18
v 46 -1 18
v 50 -1 18

vn 0 0 -1
vn 0 0 -1
vn 0 0 -1
vn 0 0 -1
vn 0 1 0
vn 0 1 0
vn 0 1 0
vn 0 1 0
vn -1 0 0
vn -1 0 0
vn -1 0 0
vn -1 0 0
vn 1 0 0
vn 1 0 0
vn 1 0 0
vn 1 0 0
vn 0 0 -1
vn 0 0 -1
vn 0 0 -1
vn 0 0 -1
vn 0 0 -1
vn 0 0 -1
vn 0 0 -1
vn 0 0 -1
vn 0 0 -1
vn 0 0 -1
vn 0 0 -1
vn 0 0 -1
vn 0 0 -1
vn 0 0 -1

vt 0 0
vt 9 4
vt 9 0
vt 0 4
vt 0 1
vt 9 0
vt 0 0
vt 9 1
vt 1 3
vt 0 0
vt 0 3
vt 1 0
vt 0 0
vt 1 3
vt 1 0
vt 0 3
vt 0 0
vt 9 3
vt 9 0
vt 0 3
vt 4 7
vt 0 4
vt 0 7
vt 0 0
vt 4 0
vt 4 4
vt 0 7
vt 4 7
vt 4 0
vt 0 0

g Wall-detach_690_19
usemtl Wall-detach_690_19
usemap Wall-detach_690_19
f 1/1/1 3/3/3 2/2/2
f 1/1/1 2/2/2 4/4/4
f 5/5/5 7/7/7 6/6/6
f 5/5/5 6/6/6 8/8/8
f 9/9/9 11/11/11 10/10/10
f 9/9/9 10/10/10 12/12/12
f 13/13/13 15/15/15 14/14/14
f 13/13/13 14/14/14 16/16/16
f 17/17/17 19/19/19 18/18/18
f 17/17/17 18/18/18 20/20/20
f 21/21/21 23/23/23 22/22/22
f 24/24/24 25/25/25 22/22/22
f 22/22/22 25/25/25 21/21/21
f 26/26/26 28/28/28 27/27/27
f 26/26/26 30/30/30 29/29/29
f 27/27/27 30/30/30 26/26/26
