#Wall_582_21.obj

v -2 0 -10
v 1 0 -10
v -2.000001 1 -10
v 0.999999 1 -10
v 1 0 -10
v 1 0 11
v 0.999999 1 -10
v 1.000001 1 11
v 1 0 11
v -2 0 11
v 1.000001 1 11
v -1.999999 1 11
v 1.000001 1 11
v -1.999999 1 11
v 1 1 -10
v -2 1 -10

vn 0 0 -1
vn 0 0 -1
vn 0 0 -1
vn 0 0 -1
vn 1 9.536743E-07 0
vn 1 0 -4.541306E-08
vn 1 0 -4.541306E-08
vn 1 -9.536743E-07 -9.082613E-08
vn 0 0 1
vn 0 0 1
vn 0 0 1
vn 0 0 1
vn 0 1 0
vn 0 1 0
vn 0 1 0
vn 0 1 0

vt 3 0
vt 0 0
vt 3.000001 1
vt 9.536743E-07 1
vt 21 0
vt 0 0
vt 21 1
vt 0 1
vt 3 0
vt 0 0
vt 3.000001 1
vt 9.536743E-07 1
vt 0 21
vt 3 21
vt 9.536743E-07 0
vt 3.000001 0

g Wall_582_21
usemtl Wall_582_21
usemap Wall_582_21
f 1/1/1 3/3/3 2/2/2
f 2/2/2 3/3/3 4/4/4
f 5/5/5 7/7/7 6/6/6
f 6/6/6 7/7/7 8/8/8
f 9/9/9 11/11/11 10/10/10
f 10/10/10 11/11/11 12/12/12
f 13/13/13 15/15/15 14/14/14
f 14/14/14 15/15/15 16/16/16
