#Wall-detach_712_4.obj

v 35 3 -3
v 35 4 20
v 35 3 20
v 35 4 -3
v 35 0 -3
v 35 2 20
v 35 0 20
v 35 2 -3
v 19 0 -3
v 35 2 -3
v 35 0 -3
v 19 2 -3
v 19 3 -3
v 35 4 -3
v 35 3 -3
v 19 4 -3

vn -1 0 0
vn -1 0 0
vn -1 0 0
vn -1 0 0
vn -1 0 0
vn -1 0 0
vn -1 0 0
vn -1 0 0
vn 0 0 1
vn 0 0 1
vn 0 0 1
vn 0 0 1
vn 0 0 1
vn 0 0 1
vn 0 0 1
vn 0 0 1

vt 0 0
vt 23 1
vt 23 0
vt 0 1
vt 0 0
vt 23 2
vt 23 0
vt 0 2
vt 0 0
vt 16 2
vt 16 0
vt 0 2
vt 0 0
vt 16 1
vt 16 0
vt 0 1

g Wall-detach_712_4
usemtl Wall-detach_712_4
usemap Wall-detach_712_4
f 1/1/1 3/3/3 2/2/2
f 1/1/1 2/2/2 4/4/4
f 5/5/5 7/7/7 6/6/6
f 5/5/5 6/6/6 8/8/8
f 9/9/9 11/11/11 10/10/10
f 9/9/9 10/10/10 12/12/12
f 13/13/13 15/15/15 14/14/14
f 13/13/13 14/14/14 16/16/16
