#Wall-detach_744_66.obj

v 14 1 36
v 8 0 36
v 14 0 36
v 8 1 36
v 14 -2 33
v 14 1 21
v 14 1 33
v 14 -2 21
v 22 -7 36
v 14 1 36
v 14 -7 36
v 22 1 36
v 22 -2 33
v 14 1 33
v 22 1 33
v 14 -2 33
v 8 -2 23
v 8 1 21
v 8 -2 21
v 8 1 23
v 8 1 36
v 8 1 26
v 8 -2 26
v 8 0 36
v 8 -2 36
v 14 1 21
v 14 -2 21
v 8 1 21
v 8 -2 21

vn 0 0 -1
vn 0 0 -1
vn 0 0 -1
vn 0 0 -1
vn -1 0 0
vn -1 0 0
vn -1 0 0
vn -1 0 0
vn 0 0 -1
vn 0 0 -1
vn 0 0 -1
vn 0 0 -1
vn 0 0 1
vn 0 0 1
vn 0 0 1
vn 0 0 1
vn 1 0 0
vn 1 0 0
vn 1 0 0
vn 1 0 0
vn 1 0 0
vn 1 0 0
vn 1 0 0
vn 1 0 0
vn 1 0 0
vn 0 0 1
vn 0 0 1
vn 0 0 1
vn 0 0 1

vt 0 1
vt 6 0
vt 0 0
vt 6 1
vt 12 0
vt 0 3
vt 12 3
vt 0 0
vt 0 0
vt 8 8
vt 8 0
vt 0 8
vt 8 0
vt 0 3
vt 8 3
vt 0 0
vt 0 0
vt 2 3
vt 2 0
vt 0 3
vt 0 3
vt 10 3
vt 10 0
vt 0 2
vt 0 0
vt 6 3
vt 6 0
vt 0 3
vt 0 0

g Wall-detach_744_66
usemtl Wall-detach_744_66
usemap Wall-detach_744_66
f 1/1/1 3/3/3 2/2/2
f 1/1/1 2/2/2 4/4/4
f 5/5/5 7/7/7 6/6/6
f 5/5/5 6/6/6 8/8/8
f 9/9/9 11/11/11 10/10/10
f 9/9/9 10/10/10 12/12/12
f 13/13/13 15/15/15 14/14/14
f 13/13/13 14/14/14 16/16/16
f 17/17/17 19/19/19 18/18/18
f 17/17/17 18/18/18 20/20/20
f 21/21/21 23/23/23 22/22/22
f 24/24/24 23/23/23 21/21/21
f 25/25/25 23/23/23 24/24/24
f 26/26/26 28/28/28 27/27/27
f 27/27/27 28/28/28 29/29/29
