#Wall_710_33.obj

v 0 2 1
v 1 2 1
v 1 0 1
v 0 0 1
v 1 2 1
v 1 2 -1
v 1 0 -1
v 1 0 1
v 1 2 -1
v 7 2 -1
v 7 0 -1
v 1 0 -1
v 7 2 -1
v 7 2 -2
v 7 0 -2
v 7 0 -1
v -1 0 -2
v -1 0 -4
v -1 4 -4
v -1 4 -2
v 0 4 1
v 1 4 1
v 1 3 1
v 0 3 1
v 1 4 1
v 1 4 -1
v 1 3 -1
v 1 3 1
v 1 4 -1
v 7 4 -1
v 7 3 -1
v 1 3 -1
v 7 4 -1
v 7 4 -2
v 7 3 -2
v 7 3 -1
v 7 4 -2
v 1 4 -2
v 1 0 -2
v 7 0 -2
v 1 4 -2
v 1 4 -4
v 1 0 -4
v 1 0 -2
v 1 4 -4
v -1 4 -4
v -1 0 -4
v 1 0 -4

vn 0 0 1
vn 0 0 1
vn 0 0 1
vn 0 0 1
vn 1 0 0
vn 1 0 0
vn 1 0 0
vn 1 0 0
vn 0 0 1
vn 0 0 1
vn 0 0 1
vn 0 0 1
vn 1 0 0
vn 1 0 0
vn 1 0 0
vn 1 0 0
vn -1 0 0
vn -1 0 0
vn -1 0 0
vn -1 0 0
vn 0 0 1
vn 0 0 1
vn 0 0 1
vn 0 0 1
vn 1 0 0
vn 1 0 0
vn 1 0 0
vn 1 0 0
vn 0 0 1
vn 0 0 1
vn 0 0 1
vn 0 0 1
vn 1 0 0
vn 1 0 0
vn 1 0 0
vn 1 0 0
vn 0 0 -1
vn 0 0 -1
vn 0 0 -1
vn 0 0 -1
vn 1 0 0
vn 1 0 0
vn 1 0 0
vn 1 0 0
vn 0 0 -1
vn 0 0 -1
vn 0 0 -1
vn 0 0 -1

vt 0 2
vt 1 2
vt 1 0
vt 0 0
vt 0 2
vt 2 2
vt 2 0
vt 0 0
vt 0 2
vt 6 2
vt 6 0
vt 0 0
vt 0 2
vt 1 2
vt 1 0
vt 0 0
vt 2 0
vt 0 0
vt 0 4
vt 2 4
vt 0 1
vt 1 1
vt 1 0
vt 0 0
vt 0 1
vt 2 1
vt 2 0
vt 0 0
vt 0 1
vt 6 1
vt 6 0
vt 0 0
vt 0 1
vt 1 1
vt 1 0
vt 0 0
vt 0 4
vt 6 4
vt 6 0
vt 0 0
vt 0 4
vt 2 4
vt 2 0
vt 0 0
vt 0 4
vt 2 4
vt 2 0
vt 0 0

g Wall_710_33
usemtl Wall_710_33
usemap Wall_710_33
f 1/1/1 3/3/3 2/2/2
f 4/4/4 3/3/3 1/1/1
f 5/5/5 7/7/7 6/6/6
f 8/8/8 7/7/7 5/5/5
f 9/9/9 11/11/11 10/10/10
f 12/12/12 11/11/11 9/9/9
f 13/13/13 15/15/15 14/14/14
f 16/16/16 15/15/15 13/13/13
f 17/17/17 19/19/19 18/18/18
f 20/20/20 19/19/19 17/17/17
f 21/21/21 23/23/23 22/22/22
f 24/24/24 23/23/23 21/21/21
f 25/25/25 27/27/27 26/26/26
f 28/28/28 27/27/27 25/25/25
f 29/29/29 31/31/31 30/30/30
f 32/32/32 31/31/31 29/29/29
f 33/33/33 35/35/35 34/34/34
f 36/36/36 35/35/35 33/33/33
f 37/37/37 39/39/39 38/38/38
f 40/40/40 39/39/39 37/37/37
f 41/41/41 43/43/43 42/42/42
f 44/44/44 43/43/43 41/41/41
f 45/45/45 47/47/47 46/46/46
f 48/48/48 47/47/47 45/45/45
