#Wall_578_13.obj

v 12 4 0
v 6 4 0
v 12 4 -6
v 6 4 -6
v 6 -1 0
v 6 -1 -6
v 6 1 0
v 6 1 -6
v 6 -1 -6
v 12 -1 -6
v 12 1 -6
v 6 1 -6
v 12 -1 0
v 6 -1 0
v 6 1 0
v 12 1 0
v 12 -1 -6
v 12 -1 0
v 12 1 -6
v 12 1 0
v 6 4 -6
v 6 4 0
v 6 3 0
v 6 3 -6
v 12 4 -6
v 6 4 -6
v 12 3 -6
v 6 3 -6
v 6 4 0
v 12 4 0
v 12 3 0
v 6 3 0
v 12 4 0
v 12 4 -6
v 12 3 -6
v 12 3 0

vn 0 1 0
vn 0 1 0
vn 0 1 0
vn 0 1 0
vn -1 0 0
vn -1 0 0
vn -1 0 0
vn -1 0 0
vn 0 0 -1
vn 0 0 -1
vn 0 0 -1
vn 0 0 -1
vn 0 0 1
vn 0 0 1
vn 0 0 1
vn 0 0 1
vn 1 0 0
vn 1 0 0
vn 1 0 0
vn 1 0 0
vn -1 0 0
vn -1 0 0
vn -1 0 0
vn -1 0 0
vn 0 0 -1
vn 0 0 -1
vn 0 0 -1
vn 0 0 -1
vn 0 0 1
vn 0 0 1
vn 0 0 1
vn 0 0 1
vn 1 0 0
vn 1 0 0
vn 1 0 0
vn 1 0 0

vt 0 6
vt 6 6
vt 0 0
vt 6 0
vt 6 0
vt 0 0
vt 6 2
vt 0 2
vt 6 0
vt 0 0
vt 0 2
vt 6 2
vt 6 0
vt 0 0
vt 0 2
vt 6 2
vt 6 0
vt 0 0
vt 6 2
vt 0 2
vt 0 1
vt 6 1
vt 6 0
vt 0 0
vt 0 1
vt 6 1
vt 0 0
vt 6 0
vt 0 1
vt 6 1
vt 6 0
vt 0 0
vt 0 1
vt 6 1
vt 6 0
vt 0 0

g Wall_578_13
usemtl Wall_578_13
usemap Wall_578_13
f 1/1/1 3/3/3 2/2/2
f 2/2/2 3/3/3 4/4/4
f 5/5/5 7/7/7 6/6/6
f 6/6/6 7/7/7 8/8/8
f 9/9/9 11/11/11 10/10/10
f 12/12/12 11/11/11 9/9/9
f 13/13/13 15/15/15 14/14/14
f 13/13/13 16/16/16 15/15/15
f 17/17/17 19/19/19 18/18/18
f 18/18/18 19/19/19 20/20/20
f 21/21/21 23/23/23 22/22/22
f 24/24/24 23/23/23 21/21/21
f 25/25/25 27/27/27 26/26/26
f 26/26/26 27/27/27 28/28/28
f 29/29/29 31/31/31 30/30/30
f 32/32/32 31/31/31 29/29/29
f 33/33/33 35/35/35 34/34/34
f 36/36/36 35/35/35 33/33/33
