#Wall-detach_824_53.obj

v 11 4 -8
v 7 2 -8
v 11 2 -8
v 7 4 -8
v 11 4 -13
v 8 2 -13
v 8 4 -13
v 11 2 -13
v 7 4 -13
v 8 4 -13
v 8 2 -13
v 7 -2 -13
v 8 -2 -13
v 7 4 -13
v 7 2 -8
v 7 4 -8
v 7 -2 -13
v 7 -2 -8
v 15 4 -13
v 11 2 -13
v 11 4 -13
v 15 0 -13
v 11 -2 -13
v 15 -2 -13
v 11 4 -8
v 23 -2 -8
v 23 4 -8
v 11 -2 -8
v 11 2 -16
v 8 2 -13
v 11 2 -13
v 8 2 -16
v 8 -2 -16
v 8 2 -13
v 8 2 -16
v 8 -2 -13
v 11 -2 -13
v 11 2 -16
v 11 2 -13
v 11 -2 -16

vn 0 0 -1
vn 0 0 -1
vn 0 0 -1
vn 0 0 -1
vn 0 0 1
vn 0 0 1
vn 0 0 1
vn 0 0 1
vn 0 0 1
vn 0 0 1
vn 0 0 1
vn 0 0 1
vn 0 0 1
vn 1 0 0
vn 1 0 0
vn 1 0 0
vn 1 0 0
vn 1 0 0
vn 0 0 1
vn 0 0 1
vn 0 0 1
vn 0 0 1
vn 0 0 1
vn 0 0 1
vn 0 0 -1
vn 0 0 -1
vn 0 0 -1
vn 0 0 -1
vn 0 -1 0
vn 0 -1 0
vn 0 -1 0
vn 0 -1 0
vn 1 0 0
vn 1 0 0
vn 1 0 0
vn 1 0 0
vn -1 0 0
vn -1 0 0
vn -1 0 0
vn -1 0 0

vt 0 2
vt 4 0
vt 0 0
vt 4 2
vt 3 2
vt 0 0
vt 0 2
vt 3 0
vt 0 6
vt 1 6
vt 1 4
vt 0 0
vt 1 0
vt 5 6
vt 0 4
vt 0 6
vt 5 0
vt 0 0
vt 4 6
vt 0 4
vt 0 6
vt 4 2
vt 0 0
vt 4 0
vt 12 6
vt 0 0
vt 0 6
vt 12 0
vt 3 0
vt 0 3
vt 3 3
vt 0 0
vt 3 0
vt 0 4
vt 3 4
vt 0 0
vt 3 0
vt 0 4
vt 3 4
vt 0 0

g Wall-detach_824_53
usemtl Wall-detach_824_53
usemap Wall-detach_824_53
f 1/1/1 3/3/3 2/2/2
f 1/1/1 2/2/2 4/4/4
f 5/5/5 7/7/7 6/6/6
f 5/5/5 6/6/6 8/8/8
f 9/9/9 11/11/11 10/10/10
f 9/9/9 12/12/12 11/11/11
f 11/11/11 12/12/12 13/13/13
f 14/14/14 16/16/16 15/15/15
f 15/15/15 17/17/17 14/14/14
f 18/18/18 17/17/17 15/15/15
f 19/19/19 21/21/21 20/20/20
f 20/20/20 22/22/22 19/19/19
f 20/20/20 23/23/23 22/22/22
f 23/23/23 24/24/24 22/22/22
f 25/25/25 27/27/27 26/26/26
f 25/25/25 26/26/26 28/28/28
f 29/29/29 31/31/31 30/30/30
f 29/29/29 30/30/30 32/32/32
f 33/33/33 35/35/35 34/34/34
f 33/33/33 34/34/34 36/36/36
f 37/37/37 39/39/39 38/38/38
f 37/37/37 38/38/38 40/40/40
