#Wall-detach_700_33.obj

v 32 6 20
v 32 -7 10
v 32 6 13
v 32 -7 20
v 51 -7 20
v 51 6 20
v 51 6 18
v 51 5 16
v 51 -7 10
v 51 5 12
v 51 6 10
v 51 3 10
v 51 -7 20
v 32 6 20
v 51 6 20
v 32 -7 20

vn -1 0 0
vn -1 0 0
vn -1 0 0
vn -1 0 0
vn 1 0 0
vn 1 0 0
vn 1 0 0
vn 1 0 0
vn 1 0 0
vn 0.9999999 0 0
vn 1 0 0
vn 1 0 0
vn 0 0 1
vn 0 0 1
vn 0 0 1
vn 0 0 1

vt 10 13
vt 0 0
vt 3 13
vt 10 0
vt 0 0
vt 0 13
vt 2 13
vt 4 12
vt 10 0
vt 8 12
vt 10 13
vt 10 10
vt 19 0
vt 0 13
vt 19 13
vt 0 0

g Wall-detach_700_33
usemtl Wall-detach_700_33
usemap Wall-detach_700_33
f 1/1/1 3/3/3 2/2/2
f 1/1/1 2/2/2 4/4/4
f 5/5/5 7/7/7 6/6/6
f 8/8/8 7/7/7 5/5/5
f 9/9/9 10/10/10 5/5/5
f 11/11/11 10/10/10 12/12/12
f 5/5/5 10/10/10 8/8/8
f 12/12/12 10/10/10 9/9/9
f 13/13/13 15/15/15 14/14/14
f 13/13/13 14/14/14 16/16/16
