#Wall-detach_785_41.obj

v -17 2 9
v -18 2 5
v -18 2 9
v -17 2 5
v -17 -3 9
v -18 2 9
v -18 -3 9
v -17 2 9
v -17 2 5
v -18 -3 5
v -18 2 5
v -17 -3 5
v -17 3 9
v -17 2 5
v -17 2 9
v -17 3 5
v -17 3 4
v -17 2 5
v -17 3 5
v -17 -3 4
v -17 -3 5
v -17 3 9
v -17 2 9
v -17 3 17
v -17 -3 17
v -17 -3 9
v -12 3 16
v -12 2 12
v -12 3 12
v -12 2 16
v -12 3 4
v -12 3 12
v -12 -2 12
v -12 -3 4
v -17 -3 4
v -17 3 4
v -12 -3 4
v -12 3 4
v -12 3 17
v -12 2 16
v -12 3 16
v -12 2 17
v -12 -3 17
v -12 -3 16
v -17 -3 17
v -16 2 17
v -17 2 17
v -16 -3 17
v -13 -3 17
v -12 -3 17
v -13 2 17
v -12 2 17
v -16 2 17
v -17 3 17
v -17 2 17
v -12 3 17
v -13 2 17
v -12 2 17
v -16 2 18
v -13 2 17
v -16 2 17
v -13 2 18
v -16 -3 18
v -16 2 17
v -16 -3 17
v -16 2 18
v -13 2 18
v -13 -3 17
v -13 2 17
v -13 -3 18

vn 0 -1 0
vn 0 -1 0
vn 0 -1 0
vn 0 -1 0
vn 0 0 -1
vn 0 0 -1
vn 0 0 -1
vn 0 0 -1
vn 0 0 1
vn 0 0 1
vn 0 0 1
vn 0 0 1
vn 1 0 0
vn 1 0 0
vn 1 0 0
vn 1 0 0
vn 1 0 0
vn 1 0 0
vn 1 0 0
vn 1 0 0
vn 1 0 0
vn 1 0 0
vn 1 0 0
vn 1 0 0
vn 1 0 0
vn 1 0 0
vn -1 0 0
vn -1 0 0
vn -1 0 0
vn -1 0 0
vn -1 0 0
vn -1 0 0
vn -1 0 0
vn -1 0 0
vn 0 0 1
vn 0 0 1
vn 0 0 1
vn 0 0 1
vn -1 0 0
vn -1 0 0
vn -1 0 0
vn -1 0 0
vn -1 0 0
vn -1 0 0
vn 0 0 -1
vn 0 0 -1
vn 0 0 -1
vn 0 0 -1
vn 0 0 -1
vn 0 0 -1
vn 0 0 -1
vn 0 0 -1
vn 0 0 -1
vn 0 0 -1
vn 0 0 -1
vn 0 0 -1
vn 0 0 -1
vn 0 0 -1
vn 0 -1 0
vn 0 -1 0
vn 0 -1 0
vn 0 -1 0
vn 1 0 0
vn 1 0 0
vn 1 0 0
vn 1 0 0
vn -1 0 0
vn -1 0 0
vn -1 0 0
vn -1 0 0

vt 1 4
vt 0 0
vt 0 4
vt 1 0
vt 0 0
vt 1 5
vt 1 0
vt 0 5
vt 1 5
vt 0 0
vt 0 5
vt 1 0
vt 0 1
vt 4 0
vt 0 0
vt 4 1
vt 1 6
vt 0 5
vt 0 6
vt 1 0
vt 0 0
vt 8 6
vt 8 5
vt 0 6
vt 0 0
vt 8 0
vt 4 1
vt 0 0
vt 0 1
vt 4 0
vt 0 6
vt 8 6
vt 8 1
vt 0 0
vt 0 0
vt 0 6
vt 5 0
vt 5 6
vt 1 6
vt 0 5
vt 0 6
vt 1 5
vt 1 0
vt 0 0
vt 1 0
vt 0 5
vt 1 5
vt 0 0
vt 1 0
vt 0 0
vt 1 5
vt 0 5
vt 4 0
vt 5 1
vt 5 0
vt 0 1
vt 1 0
vt 0 0
vt 0 1
vt 3 0
vt 0 0
vt 3 1
vt 0 0
vt 1 5
vt 1 0
vt 0 5
vt 1 5
vt 0 0
vt 0 5
vt 1 0

g Wall-detach_785_41
usemtl Wall-detach_785_41
usemap Wall-detach_785_41
f 1/1/1 3/3/3 2/2/2
f 1/1/1 2/2/2 4/4/4
f 5/5/5 7/7/7 6/6/6
f 5/5/5 6/6/6 8/8/8
f 9/9/9 11/11/11 10/10/10
f 9/9/9 10/10/10 12/12/12
f 13/13/13 15/15/15 14/14/14
f 13/13/13 14/14/14 16/16/16
f 17/17/17 19/19/19 18/18/18
f 18/18/18 20/20/20 17/17/17
f 21/21/21 20/20/20 18/18/18
f 22/22/22 24/24/24 23/23/23
f 24/24/24 25/25/25 23/23/23
f 23/23/23 25/25/25 26/26/26
f 27/27/27 29/29/29 28/28/28
f 27/27/27 28/28/28 30/30/30
f 31/31/31 33/33/33 32/32/32
f 31/31/31 34/34/34 33/33/33
f 35/35/35 37/37/37 36/36/36
f 36/36/36 37/37/37 38/38/38
f 39/39/39 41/41/41 40/40/40
f 40/40/40 42/42/42 39/39/39
f 40/40/40 43/43/43 42/42/42
f 40/40/40 44/44/44 43/43/43
f 45/45/45 47/47/47 46/46/46
f 45/45/45 46/46/46 48/48/48
f 49/49/49 51/51/51 50/50/50
f 50/50/50 51/51/51 52/52/52
f 53/53/53 55/55/55 54/54/54
f 56/56/56 57/57/57 54/54/54
f 54/54/54 57/57/57 53/53/53
f 58/58/58 57/57/57 56/56/56
f 59/59/59 61/61/61 60/60/60
f 59/59/59 60/60/60 62/62/62
f 63/63/63 65/65/65 64/64/64
f 63/63/63 64/64/64 66/66/66
f 67/67/67 69/69/69 68/68/68
f 67/67/67 68/68/68 70/70/70
