#Wall-detach_1170_66.obj

v 21 -2 -9
v 21 1 -9
v 20 -2 -9
v 20 1 -9
v 20 1 -8
v 20 -2 -8
v 20 1 -9
v 20 -2 -9
v 20 -2 -8
v 20 1 -8
v 6 -2 -8
v 6 1 -8
v 5 1 -9
v 5 -2 -9
v 6 -2 -9
v 6 1 -9
v 6 -2 -8
v 6 1 -8
v 6 -2 -9
v 6 1 -9
v 20 -2 -12
v 21 1 -12
v 21 -2 -12
v 20 1 -12
v 20 -2 -13
v 20 1 -12
v 20 -2 -12
v 20 1 -13
v 6 -2 -13
v 20 1 -13
v 20 -2 -13
v 6 1 -13
v 6 -2 -12
v 6 1 -13
v 6 -2 -13
v 6 1 -12
v 5 -2 -12
v 6 1 -12
v 6 -2 -12
v 5 1 -12

vn 0 0 -1
vn 0 0 -1
vn 0 0 -1
vn 0 0 -1
vn -1 0 0
vn -1 0 0
vn -1 0 0
vn -1 0 0
vn 0 0 -1
vn 0 0 -1
vn 0 0 -1
vn 0 0 -1
vn 0 0 -1
vn 0 0 -1
vn 0 0 -1
vn 0 0 -1
vn 1 0 0
vn 1 0 0
vn 1 0 0
vn 1 0 0
vn 0 0 1
vn 0 0 1
vn 0 0 1
vn 0 0 1
vn -1 0 0
vn -1 0 0
vn -1 0 0
vn -1 0 0
vn 0 0 1
vn 0 0 1
vn 0 0 1
vn 0 0 1
vn 1 0 0
vn 1 0 0
vn 1 0 0
vn 1 0 0
vn 0 0 1
vn 0 0 1
vn 0 0 1
vn 0 0 1

vt 0 0
vt 0 3
vt 1 0
vt 1 3
vt 1 3
vt 1 0
vt 0 3
vt 0 0
vt 0 0
vt 0 3
vt 14 0
vt 14 3
vt 1 3
vt 1 0
vt 0 0
vt 0 3
vt 0 0
vt 0 3
vt 1 0
vt 1 3
vt 0 0
vt 1 3
vt 1 0
vt 0 3
vt 0 0
vt 1 3
vt 1 0
vt 0 3
vt 0 0
vt 14 3
vt 14 0
vt 0 3
vt 0 0
vt 1 3
vt 1 0
vt 0 3
vt 0 0
vt 1 3
vt 1 0
vt 0 3

g Wall-detach_1170_66
usemtl Wall-detach_1170_66
usemap Wall-detach_1170_66
f 1/1/1 3/3/3 2/2/2
f 2/2/2 3/3/3 4/4/4
f 5/5/5 7/7/7 6/6/6
f 6/6/6 7/7/7 8/8/8
f 9/9/9 11/11/11 10/10/10
f 10/10/10 11/11/11 12/12/12
f 13/13/13 15/15/15 14/14/14
f 16/16/16 15/15/15 13/13/13
f 17/17/17 19/19/19 18/18/18
f 18/18/18 19/19/19 20/20/20
f 21/21/21 23/23/23 22/22/22
f 21/21/21 22/22/22 24/24/24
f 25/25/25 27/27/27 26/26/26
f 25/25/25 26/26/26 28/28/28
f 29/29/29 31/31/31 30/30/30
f 29/29/29 30/30/30 32/32/32
f 33/33/33 35/35/35 34/34/34
f 33/33/33 34/34/34 36/36/36
f 37/37/37 39/39/39 38/38/38
f 37/37/37 38/38/38 40/40/40
