#Wall_701_17.obj

v 0 3 -2
v 1 2 -2
v 0 2 -2
v 1 3 -2
v 0 3 1
v 0 2 -2
v 0 2 1
v 0 3 -2
v -1 3 1
v 0 2 1
v -1 2 1
v 0 3 1
v -1 3 -1
v -1 2 1
v -1 2 -1
v -1 3 1
v -7 3 -1
v -1 2 -1
v -7 2 -1
v -1 3 -1
v -7 3 -2
v -7 2 -1
v -7 2 -2
v -7 3 -1

vn 0 0 1
vn 0 0 1
vn 0 0 1
vn 0 0 1
vn 1 0 0
vn 1 0 0
vn 1 0 0
vn 1 0 0
vn 0 0 1
vn 0 0 1
vn 0 0 1
vn 0 0 1
vn -1 0 0
vn -1 0 0
vn -1 0 0
vn -1 0 0
vn 0 0 1
vn 0 0 1
vn 0 0 1
vn 0 0 1
vn -1 0 0
vn -1 0 0
vn -1 0 0
vn -1 0 0

vt 0 1
vt 1 0
vt 0 0
vt 1 1
vt 0 1
vt 3 0
vt 0 0
vt 3 1
vt 0 1
vt 1 0
vt 0 0
vt 1 1
vt 0 1
vt 2 0
vt 0 0
vt 2 1
vt 0 1
vt 6 0
vt 0 0
vt 6 1
vt 0 1
vt 1 0
vt 0 0
vt 1 1

g Wall_701_17
usemtl Wall_701_17
usemap Wall_701_17
f 1/1/1 3/3/3 2/2/2
f 1/1/1 2/2/2 4/4/4
f 5/5/5 7/7/7 6/6/6
f 5/5/5 6/6/6 8/8/8
f 9/9/9 11/11/11 10/10/10
f 9/9/9 10/10/10 12/12/12
f 13/13/13 15/15/15 14/14/14
f 13/13/13 14/14/14 16/16/16
f 17/17/17 19/19/19 18/18/18
f 17/17/17 18/18/18 20/20/20
f 21/21/21 23/23/23 22/22/22
f 21/21/21 22/22/22 24/24/24
