#Wall_523_0.obj

v 0 0 0
v 0 0 55
v 0 11 0
v 0 11 55
v 75 0 55
v 0 11 55
v 0 0 55
v 75 11 55
v 75 0 0
v 75 11 55
v 75 0 55
v 75 11 0
v 0 0 0
v 75 11 0
v 75 0 0
v 0 11 0

vn 1 0 0
vn 1 0 0
vn 1 0 0
vn 1 0 0
vn 0 0 -1
vn 0 0 -1
vn 0 0 -1
vn 0 0 -1
vn -1 0 0
vn -1 0 0
vn -1 0 0
vn -1 0 0
vn 0 0 1
vn 0 0 1
vn 0 0 1
vn 0 0 1

vt 55 0
vt 0 0
vt 55 11
vt 0 11
vt 0 0
vt 75 11
vt 75 0
vt 0 11
vt 0 0
vt 55 11
vt 55 0
vt 0 11
vt 0 0
vt 75 11
vt 75 0
vt 0 11

g Wall_523_0
usemtl Wall_523_0
usemap Wall_523_0
f 1/1/1 3/3/3 2/2/2
f 2/2/2 3/3/3 4/4/4
f 5/5/5 7/7/7 6/6/6
f 5/5/5 6/6/6 8/8/8
f 9/9/9 11/11/11 10/10/10
f 9/9/9 10/10/10 12/12/12
f 13/13/13 15/15/15 14/14/14
f 13/13/13 14/14/14 16/16/16
