#Wall-detach_670_50.obj

v 59 6 -17
v 59 8 -17
v 63 8 -17
v 59 8 -17
v 59 6 -17
v 59 6 -18
v 59 8 -18
v 59 8 -18
v 59 6 -18
v 21 8 -18
v 59 -1 -18
v 21 -3 -18

vn 0 0 1
vn 0 0 1
vn 0 0 1
vn -1 0 0
vn -1 0 0
vn -1 0 0
vn -1 0 0
vn 0 0 1
vn 0 0 1
vn 0 0 1
vn 0 0 1
vn 0 0 0.9999999

vt 0 0
vt 0 2
vt 4 2
vt 1 2
vt 1 0
vt 0 0
vt 0 2
vt 38 11
vt 38 9
vt 0 11
vt 38 2
vt 0 0

g Wall-detach_670_50
usemtl Wall-detach_670_50
usemap Wall-detach_670_50
f 1/1/1 3/3/3 2/2/2
f 4/4/4 6/6/6 5/5/5
f 7/7/7 6/6/6 4/4/4
f 8/8/8 10/10/10 9/9/9
f 9/9/9 10/10/10 11/11/11
f 11/11/11 10/10/10 12/12/12
