#Wall-detach_768_47.obj

v -6 -1 53
v -6 -4 63
v -6 -1 63
v -6 -4 53
v 3 -1 53
v -6 -4 53
v -6 -1 53
v 3 -4 53
v 3 -1 56
v 3 -4 53
v 3 -1 53
v 3 -4 56
v 1 -1 56
v 3 -4 56
v 3 -1 56
v 1 -6 56
v -3 -4 66
v -3 -4 56
v -3 -1 66
v -3 -1 56
v -2 -4 56
v -2 -1 56
v -3 -1 56
v -3 -4 56
v 5 3 63
v 5 3 66
v 5 -3 63
v 5 -3 66
v 1 2 63
v 3 2 63
v 1 -6 63
v 3 -7 63
v 1 -7 63
v 5 -3 66
v 5 3 66
v 3 3 66
v -2 -4 66
v -2 2 66
v 1 2 66
v 4 2 63
v 5 3 63
v 5 -3 63
v 4 -7 63
v 5 -7 63
v 4 3 63
v 3 3 63
v 4 2 63
v 3 2 63
v 4 3 63
v 1 -1 57
v 1 2 63
v 1 -1 63
v 1 -6 56
v 1 -1 57
v 1 -6 63
v 1 -1 56
v 1 -1 63
v -2 2 66
v -2 2 63
v -2 -4 66
v -2 -4 56
v -2 -1 57
v -2 -1 56
v 1 2 63
v 3 3 63
v 3 2 63

vn 1 0 0
vn 1 0 0
vn 1 0 0
vn 1 0 0
vn 0 0 1
vn 0 0 1
vn 0 0 1
vn 0 0 1
vn -1 0 0
vn -1 0 0
vn -1 0 0
vn -1 0 0
vn 0 0 -1
vn 0 0 -1
vn 0 0 -1
vn 0 0 -1
vn -1 0 0
vn -1 0 0
vn -1 0 0
vn -1 0 0
vn 0 0 -1
vn 0 0 -1
vn 0 0 -1
vn 0 0 -1
vn -1 0 0
vn -1 0 0
vn -1 0 0
vn -1 0 0
vn 0 0 1
vn 0 0 1
vn 0 0 1
vn 0 0 1
vn 0 0 1
vn 0 0 -0.9999999
vn 0 0 -1
vn 0 0 -1
vn 0 0 -1
vn 0 0 -1
vn 0 0 -1
vn 0 0 1
vn 0 0 1
vn 0 0 1
vn 0 0 1
vn 0 0 1
vn 0 0 1
vn 0 0 1
vn 0 0 1
vn 0 0 1
vn 0 0 1
vn -1 0 0
vn -1 0 0
vn -1 0 0
vn -1 0 0
vn -1 0 0
vn -1 0 0
vn -1 0 0
vn -1 0 0
vn 1 0 0
vn 1 0 0
vn 1 0 0
vn 1 0 0
vn 1 0 0
vn 1 0 0
vn 0 0 1
vn 0 0 1
vn 0 0 1

vt 10 3
vt 0 0
vt 0 3
vt 10 0
vt 9 3
vt 0 0
vt 0 3
vt 9 0
vt 3 3
vt 0 0
vt 0 3
vt 3 0
vt 2 5
vt 0 2
vt 0 5
vt 2 0
vt 10 0
vt 0 0
vt 10 3
vt 0 3
vt 0 0
vt 0 3
vt 1 3
vt 1 0
vt 0 6
vt 3 6
vt 0 0
vt 3 0
vt 0 9
vt 2 9
vt 0 1
vt 2 0
vt 0 0
vt 0 1
vt 0 7
vt 2 7
vt 7 0
vt 7 6
vt 4 6
vt 0 9
vt 1 10
vt 1 4
vt 0 0
vt 1 0
vt 0 10
vt 0 1
vt 1 0
vt 0 0
vt 1 1
vt 0 0
vt 6 3
vt 6 0
vt 0 0
vt 1 5
vt 7 0
vt 0 5
vt 7 5
vt 0 6
vt 3 6
vt 0 0
vt 10 0
vt 9 3
vt 10 3
vt 0 0
vt 2 1
vt 2 0

g Wall-detach_768_47
usemtl Wall-detach_768_47
usemap Wall-detach_768_47
f 1/1/1 3/3/3 2/2/2
f 1/1/1 2/2/2 4/4/4
f 5/5/5 7/7/7 6/6/6
f 5/5/5 6/6/6 8/8/8
f 9/9/9 11/11/11 10/10/10
f 9/9/9 10/10/10 12/12/12
f 13/13/13 15/15/15 14/14/14
f 13/13/13 14/14/14 16/16/16
f 17/17/17 19/19/19 18/18/18
f 19/19/19 20/20/20 18/18/18
f 21/21/21 23/23/23 22/22/22
f 24/24/24 23/23/23 21/21/21
f 25/25/25 27/27/27 26/26/26
f 26/26/26 27/27/27 28/28/28
f 29/29/29 31/31/31 30/30/30
f 31/31/31 32/32/32 30/30/30
f 33/33/33 32/32/32 31/31/31
f 34/34/34 36/36/36 35/35/35
f 37/37/37 38/38/38 34/34/34
f 34/34/34 39/39/39 36/36/36
f 38/38/38 39/39/39 34/34/34
f 40/40/40 42/42/42 41/41/41
f 40/40/40 43/43/43 42/42/42
f 42/42/42 43/43/43 44/44/44
f 41/41/41 45/45/45 40/40/40
f 46/46/46 48/48/48 47/47/47
f 46/46/46 47/47/47 49/49/49
f 50/50/50 52/52/52 51/51/51
f 53/53/53 55/55/55 54/54/54
f 54/54/54 56/56/56 53/53/53
f 57/57/57 54/54/54 55/55/55
f 58/58/58 60/60/60 59/59/59
f 61/61/61 62/62/62 60/60/60
f 60/60/60 62/62/62 59/59/59
f 61/61/61 63/63/63 62/62/62
f 64/64/64 66/66/66 65/65/65
