#Wall-detach_1197_95.obj

v 35 -7 25
v 35 -7 26
v 35 0 25
v 35 -3 26
v 35 0 26
v 35 -3 26
v 35 -7 26
v 35 -3 34
v 35 -7 34
v 35 -1 34
v 35 0 35
v 35 0 34
v 35 -7 35
v 35 -7 34

vn 1 0 0
vn 1 0 0
vn 1 0 0
vn 1 0 0
vn 1 0 0
vn 1 0 0
vn 1 0 0
vn 1 0 0
vn 1 0 0
vn 1 0 0
vn 1 0 0
vn 1 0 0
vn 1 0 0
vn 1 0 0

vt 1 0
vt 0 0
vt 1 7
vt 0 4
vt 0 7
vt 8 4
vt 8 0
vt 0 4
vt 0 0
vt 1 6
vt 0 7
vt 1 7
vt 0 0
vt 1 0

g Wall-detach_1197_95
usemtl Wall-detach_1197_95
usemap Wall-detach_1197_95
f 1/1/1 3/3/3 2/2/2
f 2/2/2 3/3/3 4/4/4
f 4/4/4 3/3/3 5/5/5
f 6/6/6 8/8/8 7/7/7
f 7/7/7 8/8/8 9/9/9
f 10/10/10 12/12/12 11/11/11
f 11/11/11 13/13/13 10/10/10
f 13/13/13 14/14/14 10/10/10
