#Wall_710_32.obj

v 0 2 -2
v 0 2 1
v 0 0 1
v 0 0 -2
v 0 0 -2
v -1 0 -2
v -1 2 -2
v 0 2 -2
v -1 3 -2
v -1 4 -2
v 0 4 -2
v 0 3 -2
v 0 4 -2
v 0 4 1
v 0 3 1
v 0 3 -2

vn -1 0 0
vn -1 0 0
vn -1 0 0
vn -1 0 0
vn 0 0 1
vn 0 0 1
vn 0 0 1
vn 0 0 1
vn 0 0 1
vn 0 0 1
vn 0 0 1
vn 0 0 1
vn -1 0 0
vn -1 0 0
vn -1 0 0
vn -1 0 0

vt 0 2
vt 3 2
vt 3 0
vt 0 0
vt 1 0
vt 0 0
vt 0 2
vt 1 2
vt 0 0
vt 0 1
vt 1 1
vt 1 0
vt 0 1
vt 3 1
vt 3 0
vt 0 0

g Wall_710_32
usemtl Wall_710_32
usemap Wall_710_32
f 1/1/1 3/3/3 2/2/2
f 1/1/1 4/4/4 3/3/3
f 5/5/5 7/7/7 6/6/6
f 8/8/8 7/7/7 5/5/5
f 9/9/9 11/11/11 10/10/10
f 12/12/12 11/11/11 9/9/9
f 13/13/13 15/15/15 14/14/14
f 16/16/16 15/15/15 13/13/13
