#Wall-detach_1194_49.obj

v 57 -3 -9
v 57 -7 -8
v 57 -3 -8
v 57 -7 -9
v 57 -3 -8
v 65 -3 -9
v 57 -3 -9
v 65 -3 -8
v 65 -7 -9
v 65 -3 -9
v 65 -3 -8
v 65 -7 -8
v 57 -2 -8
v 65 -3 -8
v 57 -3 -8
v 65 -2 -8

vn 1 0 0
vn 1 0 0
vn 1 0 0
vn 1 0 0
vn 0 -1 0
vn 0 -1 0
vn 0 -1 0
vn 0 -1 0
vn -1 0 0
vn -1 0 0
vn -1 0 0
vn -1 0 0
vn 0 0 1
vn 0 0 1
vn 0 0 1
vn 0 0 1

vt 1 4
vt 0 0
vt 0 4
vt 1 0
vt 0 1
vt 8 0
vt 0 0
vt 8 1
vt 0 0
vt 0 4
vt 1 4
vt 1 0
vt 0 1
vt 8 0
vt 0 0
vt 8 1

g Wall-detach_1194_49
usemtl Wall-detach_1194_49
usemap Wall-detach_1194_49
f 1/1/1 3/3/3 2/2/2
f 1/1/1 2/2/2 4/4/4
f 5/5/5 7/7/7 6/6/6
f 5/5/5 6/6/6 8/8/8
f 9/9/9 11/11/11 10/10/10
f 12/12/12 11/11/11 9/9/9
f 13/13/13 15/15/15 14/14/14
f 13/13/13 14/14/14 16/16/16
