#Wall-detach_784_47.obj

v 23 4 20
v 23 -3 6
v 23 4 6
v 23 -3 20
v 18 4 16
v 18 2 19
v 18 4 19
v 18 2 16
v 18 4 20
v 18 4 19
v 18 2 19
v 18 -3 20
v 18 -3 19
v 23 -3 20
v 23 4 20
v 18 -3 20
v 18 4 20
v 18 4 16
v 18 4 1
v 18 -3 16
v 18 -3 1

vn -1 0 0
vn -1 0 0
vn -1 0 0
vn -1 0 0
vn 1 0 0
vn 1 0 0
vn 1 0 0
vn 1 0 0
vn 1 0 0
vn 1 0 0
vn 1 0 0
vn 1 0 0
vn 1 0 0
vn 0 0 -1
vn 0 0 -1
vn 0 0 -1
vn 0 0 -1
vn 1 0 0
vn 1 0 0
vn 1 0 0
vn 1 0 0

vt 14 7
vt 0 0
vt 0 7
vt 14 0
vt 3 2
vt 0 0
vt 0 2
vt 3 0
vt 0 7
vt 1 7
vt 1 5
vt 0 0
vt 1 0
vt 0 0
vt 0 7
vt 5 0
vt 5 7
vt 0 7
vt 15 7
vt 0 0
vt 15 0

g Wall-detach_784_47
usemtl Wall-detach_784_47
usemap Wall-detach_784_47
f 1/1/1 3/3/3 2/2/2
f 1/1/1 2/2/2 4/4/4
f 5/5/5 7/7/7 6/6/6
f 5/5/5 6/6/6 8/8/8
f 9/9/9 11/11/11 10/10/10
f 9/9/9 12/12/12 11/11/11
f 11/11/11 12/12/12 13/13/13
f 14/14/14 16/16/16 15/15/15
f 15/15/15 16/16/16 17/17/17
f 18/18/18 20/20/20 19/19/19
f 20/20/20 21/21/21 19/19/19
