#Wall-detach_729_55.obj

v -6 -7 24
v -5 0 24
v -5 -7 24
v -6 0 24
v -6 0 29
v -5 0 24
v -6 0 24
v -5 0 29
v -6 -7 29
v -5 0 29
v -6 0 29
v -5 -7 29
v -6 0 24
v -6 -7 24
v -13 5 24
v -13 -7 24
v -6 5 24
v -6 5 24
v -6 0 29
v -6 0 24
v -6 5 29
v -7 5 29
v -6 0 29
v -6 5 29
v -7 -7 29
v -6 -7 29
v -7 5 37
v -7 -7 29
v -7 5 29
v -7 -7 37
v -13 5 24
v -13 -7 24
v -13 0 37
v -13 -7 37
v -13 5 37

vn 0 0 1
vn 0 0 1
vn 0 0 1
vn 0 0 1
vn 0 -1 0
vn 0 -1 0
vn 0 -1 0
vn 0 -1 0
vn 0 0 -1
vn 0 0 -1
vn 0 0 -1
vn 0 0 -1
vn 0 0 1
vn 0 0 1
vn 0 0 1
vn 0 0 1
vn 0 0 1
vn -1 0 0
vn -1 0 0
vn -1 0 0
vn -1 0 0
vn 0 0 -1
vn 0 0 -1
vn 0 0 -1
vn 0 0 -1
vn 0 0 -1
vn -1 0 0
vn -1 0 0
vn -1 0 0
vn -1 0 0
vn 1 0 0
vn 1 0 0
vn 1 0 0
vn 1 0 0
vn 1 0 0

vt 0 0
vt 1 7
vt 1 0
vt 0 7
vt 0 5
vt 1 0
vt 0 0
vt 1 5
vt 1 0
vt 0 7
vt 1 7
vt 0 0
vt 7 7
vt 7 0
vt 0 12
vt 0 0
vt 7 12
vt 0 5
vt 5 0
vt 0 0
vt 5 5
vt 1 12
vt 0 7
vt 0 12
vt 1 0
vt 0 0
vt 8 12
vt 0 0
vt 0 12
vt 8 0
vt 13 12
vt 13 0
vt 0 7
vt 0 0
vt 0 12

g Wall-detach_729_55
usemtl Wall-detach_729_55
usemap Wall-detach_729_55
f 1/1/1 3/3/3 2/2/2
f 1/1/1 2/2/2 4/4/4
f 5/5/5 7/7/7 6/6/6
f 5/5/5 6/6/6 8/8/8
f 9/9/9 11/11/11 10/10/10
f 9/9/9 10/10/10 12/12/12
f 13/13/13 15/15/15 14/14/14
f 14/14/14 15/15/15 16/16/16
f 17/17/17 15/15/15 13/13/13
f 18/18/18 20/20/20 19/19/19
f 18/18/18 19/19/19 21/21/21
f 22/22/22 24/24/24 23/23/23
f 23/23/23 25/25/25 22/22/22
f 26/26/26 25/25/25 23/23/23
f 27/27/27 29/29/29 28/28/28
f 27/27/27 28/28/28 30/30/30
f 31/31/31 33/33/33 32/32/32
f 32/32/32 33/33/33 34/34/34
f 35/35/35 33/33/33 31/31/31
