#Wall-detach_1228_84.obj

v 1 1 35
v 1 -2 35
v 1 -2 34
v 1 1 34
v -3 -2 35
v -3 1 35
v -3 -2 34
v -3 1 34
v 20 1 24
v 20 -2 24
v 19 -2 24
v 19 1 24
v 20 -2 28
v 20 1 28
v 19 -2 28
v 19 1 28

vn -1 0 0
vn -1 0 0
vn -1 0 0
vn -1 0 0
vn 1 0 0
vn 1 0 0
vn 1 0 0
vn 1 0 0
vn 0 0 1
vn 0 0 1
vn 0 0 1
vn 0 0 1
vn 0 0 -1
vn 0 0 -1
vn 0 0 -1
vn 0 0 -1

vt 7 3
vt 7 0
vt 6 0
vt 6 3
vt 0 0
vt 0 3
vt 1 0
vt 1 3
vt 13 3
vt 13 0
vt 12 0
vt 12 3
vt 0 0
vt 0 3
vt 1 0
vt 1 3

g Wall-detach_1228_84
usemtl Wall-detach_1228_84
usemap Wall-detach_1228_84
f 1/1/1 3/3/3 2/2/2
f 4/4/4 3/3/3 1/1/1
f 5/5/5 7/7/7 6/6/6
f 7/7/7 8/8/8 6/6/6
f 9/9/9 11/11/11 10/10/10
f 12/12/12 11/11/11 9/9/9
f 13/13/13 15/15/15 14/14/14
f 14/14/14 15/15/15 16/16/16
