#Wall-detach_1192_74.obj

v 21 -2 22
v 21 1 21
v 21 -2 21
v 21 1 22
v 26 -2 21
v 26 1 22
v 26 -2 22
v 26 1 21
v 26 1 22
v 21 1 21
v 21 1 22
v 26 1 21

vn 1 0 0
vn 1 0 0
vn 1 0 0
vn 1 0 0
vn -1 0 0
vn -1 0 0
vn -1 0 0
vn -1 0 0
vn 0 -1 0
vn 0 -1 0
vn 0 -1 0
vn 0 -1 0

vt 0 0
vt 1 3
vt 1 0
vt 0 3
vt 0 0
vt 1 3
vt 1 0
vt 0 3
vt 5 1
vt 0 0
vt 0 1
vt 5 0

g Wall-detach_1192_74
usemtl Wall-detach_1192_74
usemap Wall-detach_1192_74
f 1/1/1 3/3/3 2/2/2
f 1/1/1 2/2/2 4/4/4
f 5/5/5 7/7/7 6/6/6
f 5/5/5 6/6/6 8/8/8
f 9/9/9 11/11/11 10/10/10
f 9/9/9 10/10/10 12/12/12
