#Wall-detach_679_49.obj

v 61 4 0
v 59 4 1
v 58 4 0
v 61 4 1
v 65 6 0
v 61 4 1
v 61 4 0
v 65 6 1
v 66 6 0
v 65 6 1
v 65 6 0
v 66 6 1
v 65 7 -7
v 66 6 -5
v 65 6 -5
v 66 7 -7
v 65 7 -11
v 66 7 -7
v 65 7 -7
v 66 7 -11
v 65 8 -13
v 66 7 -11
v 65 7 -11
v 66 8 -13
v 65 8 -15
v 66 8 -13
v 65 8 -13
v 66 8 -15
v 59 6 -17
v 63 8 -17
v 63 8 -16
v 59 6 -16
v 66 6 0
v 65 6 0
v 65 6 -5
v 66 6 -5
v 63 6 -15
v 59 6 -12
v 59 6 -16
v 63 6 -16
v 65 6 -12
v 65 6 -15

vn 0 1 0
vn 0 1 0
vn 0 1 0
vn 0 1 0
vn -0.4472136 0.8944272 0
vn -0.4472136 0.8944272 0
vn -0.4472136 0.8944272 0
vn -0.4472136 0.8944272 0
vn 0 1 0
vn 0 1 0
vn 0 1 0
vn 0 1 0
vn 0 0.8944272 0.4472136
vn 0 0.8944272 0.4472136
vn 0 0.8944272 0.4472136
vn 0 0.8944272 0.4472136
vn 0 1 0
vn 0 1 0
vn 0 1 0
vn 0 1 0
vn 0 0.8944272 0.4472136
vn 0 0.8944272 0.4472136
vn 0 0.8944272 0.4472136
vn 0 0.8944272 0.4472136
vn 0 1 0
vn 0 1 0
vn 0 1 0
vn 0 1 0
vn -0.4472136 0.8944272 0
vn -0.4472136 0.8944272 0
vn -0.4472136 0.8944272 0
vn -0.4472136 0.8944272 0
vn 0 1 0
vn 0 1 0
vn 0 1 0
vn 0 1 0
vn 0 1 0
vn 0 1 0
vn 0 1 0
vn 0 1 0
vn 0 1 0
vn 0 1 0

vt 0 0
vt 2 1
vt 3 0
vt 0 1
vt 0 0
vt 4.472137 1
vt 4.472137 0
vt 0 1
vt 0 0
vt 1 1
vt 1 0
vt 0 1
vt 1 0
vt 0 2.236068
vt 1 2.236068
vt 0 0
vt 1 0
vt 0 4
vt 1 4
vt 0 0
vt 1 9.536743E-07
vt 0 2.236069
vt 1 2.236069
vt 0 9.536743E-07
vt 1 0
vt 0 2
vt 1 2
vt 0 0
vt 4.472134 0
vt 0 0
vt 0 1
vt 4.472134 1
vt 0 5
vt 1 5
vt 1 0
vt 0 0
vt 2 1
vt 6 4
vt 6 0
vt 2 0
vt 0 4
vt 0 1

g Wall-detach_679_49
usemtl Wall-detach_679_49
usemap Wall-detach_679_49
f 1/1/1 3/3/3 2/2/2
f 1/1/1 2/2/2 4/4/4
f 5/5/5 7/7/7 6/6/6
f 5/5/5 6/6/6 8/8/8
f 9/9/9 11/11/11 10/10/10
f 9/9/9 10/10/10 12/12/12
f 13/13/13 15/15/15 14/14/14
f 13/13/13 14/14/14 16/16/16
f 17/17/17 19/19/19 18/18/18
f 17/17/17 18/18/18 20/20/20
f 21/21/21 23/23/23 22/22/22
f 21/21/21 22/22/22 24/24/24
f 25/25/25 27/27/27 26/26/26
f 25/25/25 26/26/26 28/28/28
f 29/29/29 31/31/31 30/30/30
f 32/32/32 31/31/31 29/29/29
f 33/33/33 35/35/35 34/34/34
f 36/36/36 35/35/35 33/33/33
f 37/37/37 39/39/39 38/38/38
f 37/37/37 40/40/40 39/39/39
f 41/41/41 42/42/42 37/37/37
f 41/41/41 37/37/37 38/38/38
