#Wall-detach_732_56.obj

v 8 -7 68
v 8 5 68
v 8 -7 62
v 8 5 62
v 11 5 68
v 11 -7 62
v 11 5 62
v 11 -7 68
v 13 5 68
v 11 -7 68
v 11 5 68
v 13 -7 68
v 13 5 77
v 13 -7 68
v 13 5 68
v 13 -7 77
v 16 5 77
v 13 -7 77
v 13 5 77
v 16 -7 77
v 16 5 88
v 16 -7 77
v 16 5 77
v 16 -7 88
v 9 5 88
v 16 -7 88
v 16 5 88
v 9 -7 88
v 9 5 87
v 9 -7 88
v 9 5 88
v 9 -7 87
v 4 5 87
v 9 -7 87
v 9 5 87
v 4 -7 87
v 4 5 78
v 4 -7 87
v 4 5 87
v 4 -7 78
v 7 5 78
v 4 -7 78
v 4 5 78
v 7 -7 78
v 7 -7 78
v 7 5 78
v 7 -7 71
v 7 5 71

vn 1 0 0
vn 1 0 0
vn 1 0 0
vn 1 0 0
vn -1 0 0
vn -1 0 0
vn -1 0 0
vn -1 0 0
vn 0 0 1
vn 0 0 1
vn 0 0 1
vn 0 0 1
vn -1 0 0
vn -1 0 0
vn -1 0 0
vn -1 0 0
vn 0 0 1
vn 0 0 1
vn 0 0 1
vn 0 0 1
vn -1 0 0
vn -1 0 0
vn -1 0 0
vn -1 0 0
vn 0 0 -1
vn 0 0 -1
vn 0 0 -1
vn 0 0 -1
vn 1 0 0
vn 1 0 0
vn 1 0 0
vn 1 0 0
vn 0 0 -1
vn 0 0 -1
vn 0 0 -1
vn 0 0 -1
vn 1 0 0
vn 1 0 0
vn 1 0 0
vn 1 0 0
vn 0 0 1
vn 0 0 1
vn 0 0 1
vn 0 0 1
vn 1 0 0
vn 1 0 0
vn 1 0 0
vn 1 0 0

vt 0 0
vt 0 12
vt 6 0
vt 6 12
vt 6 12
vt 0 0
vt 0 12
vt 6 0
vt 2 12
vt 0 0
vt 0 12
vt 2 0
vt 9 12
vt 0 0
vt 0 12
vt 9 0
vt 3 12
vt 0 0
vt 0 12
vt 3 0
vt 11 12
vt 0 0
vt 0 12
vt 11 0
vt 7 12
vt 0 0
vt 0 12
vt 7 0
vt 1 12
vt 0 0
vt 0 12
vt 1 0
vt 5 12
vt 0 0
vt 0 12
vt 5 0
vt 9 12
vt 0 0
vt 0 12
vt 9 0
vt 3 12
vt 0 0
vt 0 12
vt 3 0
vt 0 0
vt 0 12
vt 7 0
vt 7 12

g Wall-detach_732_56
usemtl Wall-detach_732_56
usemap Wall-detach_732_56
f 1/1/1 3/3/3 2/2/2
f 2/2/2 3/3/3 4/4/4
f 5/5/5 7/7/7 6/6/6
f 5/5/5 6/6/6 8/8/8
f 9/9/9 11/11/11 10/10/10
f 9/9/9 10/10/10 12/12/12
f 13/13/13 15/15/15 14/14/14
f 13/13/13 14/14/14 16/16/16
f 17/17/17 19/19/19 18/18/18
f 17/17/17 18/18/18 20/20/20
f 21/21/21 23/23/23 22/22/22
f 21/21/21 22/22/22 24/24/24
f 25/25/25 27/27/27 26/26/26
f 25/25/25 26/26/26 28/28/28
f 29/29/29 31/31/31 30/30/30
f 29/29/29 30/30/30 32/32/32
f 33/33/33 35/35/35 34/34/34
f 33/33/33 34/34/34 36/36/36
f 37/37/37 39/39/39 38/38/38
f 37/37/37 38/38/38 40/40/40
f 41/41/41 43/43/43 42/42/42
f 41/41/41 42/42/42 44/44/44
f 45/45/45 47/47/47 46/46/46
f 46/46/46 47/47/47 48/48/48
