#Wall-detach_899_46.obj

v -24 8 -38
v -28 -6 -38
v -28 8 -38
v -24 -6 -38
v -24 8 -30
v -24 -6 -38
v -24 8 -38
v -24 -6 -30
v -27 8 -7
v -27 -1 -10
v -27 8 -10
v -27 -1 -7
v -27 -6 -1
v -27 -6 -7
v -27 8 -1
v -27 -1 -7
v -27 8 -7
v -27 8 -10
v -27 -1 -10
v -27 8 -30
v -27 -6 -10
v -27 -6 -30
v -24 -6 -30
v -24 8 -30
v -27 8 -30
v -27 -6 -30

vn 0 0 1
vn 0 0 1
vn 0 0 1
vn 0 0 1
vn -1 0 0
vn -1 0 0
vn -1 0 0
vn -1 0 0
vn -1 0 0
vn -1 0 0
vn -1 0 0
vn -1 0 0
vn -1 0 0
vn -1 0 0
vn -1 0 0
vn -1 0 0
vn -1 0 0
vn -1 0 0
vn -1 0 0
vn -1 0 0
vn -1 0 0
vn -1 0 0
vn 0 0 -1
vn 0 0 -1
vn 0 0 -1
vn 0 0 -1

vt 4.000001 14
vt -1.192093E-06 4.768372E-07
vt 1.192093E-06 14
vt 3.999999 -4.768372E-07
vt 8.000002 14
vt -1.430511E-06 4.768372E-07
vt 1.192093E-06 14
vt 7.999999 -4.768372E-07
vt 3.000001 9
vt -8.34465E-07 4.768372E-07
vt 8.34465E-07 9
vt 2.999999 -4.768372E-07
vt 5.999999 -4.768372E-07
vt -1.192093E-06 4.768372E-07
vt 6.000001 14
vt -2.384186E-07 5
vt 1.192093E-06 14
vt 20 14
vt 20 4.999998
vt 9.536743E-07 14
vt 20 -1.907349E-06
vt -9.536743E-07 1.907349E-06
vt -0.00241673 0.000518322
vt 0.002416968 14.00052
vt 3.002417 13.99948
vt 2.997583 -0.0005173683

g Wall-detach_899_46
usemtl Wall-detach_899_46
usemap Wall-detach_899_46
f 1/1/1 3/3/3 2/2/2
f 1/1/1 2/2/2 4/4/4
f 5/5/5 7/7/7 6/6/6
f 5/5/5 6/6/6 8/8/8
f 9/9/9 11/11/11 10/10/10
f 9/9/9 10/10/10 12/12/12
f 13/13/13 15/15/15 14/14/14
f 14/14/14 15/15/15 16/16/16
f 16/16/16 15/15/15 17/17/17
f 18/18/18 20/20/20 19/19/19
f 21/21/21 20/20/20 22/22/22
f 19/19/19 20/20/20 21/21/21
f 23/23/23 25/25/25 24/24/24
f 26/26/26 25/25/25 23/23/23
