#Wall-detach_686_22.obj

v -33 -1 11
v -37 -1 5
v -37 -1 11
v -33 -1 5
v -37 -6 11
v -33 -1 11
v -37 -1 11
v -33 -6 11
v -33 -6 5
v -37 -1 5
v -33 -1 5
v -37 -6 5

vn 0 -1 0
vn 0 -1 0
vn 0 -1 0
vn 0 -1 0
vn 0 0 -1
vn 0 0 -1
vn 0 0 -1
vn 0 0 -1
vn 0 0 1
vn 0 0 1
vn 0 0 1
vn 0 0 1

vt 4 6
vt -4.768372E-07 2.384186E-07
vt 4.768372E-07 6
vt 4 -2.384186E-07
vt 4.000863 0.0006902218
vt -0.0008625984 4.99931
vt 3.999137 5.00069
vt 0.0008627176 -0.0006899834
vt 4.000863 0.0006902218
vt -0.0008625984 4.99931
vt 3.999137 5.00069
vt 0.0008627176 -0.0006899834

g Wall-detach_686_22
usemtl Wall-detach_686_22
usemap Wall-detach_686_22
f 1/1/1 3/3/3 2/2/2
f 1/1/1 2/2/2 4/4/4
f 5/5/5 7/7/7 6/6/6
f 5/5/5 6/6/6 8/8/8
f 9/9/9 11/11/11 10/10/10
f 9/9/9 10/10/10 12/12/12
