#Wall-detach_819_55.obj

v -22 4 -11
v -26 2 -11
v -26 4 -11
v -22 2 -11
v -21 4 -11
v -22 2 -11
v -22 4 -11
v -21 -3 -11
v -22 -3 -11
v -27 4 -11
v -26 4 -11
v -26 2 -11
v -27 -2 -11
v -26 -2 -11
v -27 -2 -1
v -27 4 -1
v -27 -2 -11
v -27 4 -11
v -21 4 -11
v -21 4 -8
v -21 -3 -8
v -21 -3 -11
v -27 4 -1
v -27 -2 -1
v -20 2 -1
v -20 4 -1
v -20 -2 -1
v -10 -2 -1
v -10 4 -1
v -18 2 -1
v -18 4 -1
v -18 -2 -1
v -20 2 -1
v -20 -2 -1
v -20 2 3
v -20 -2 3
v -18 2 1
v -18 -2 -1
v -18 2 -1
v -18 -2 1
v -10 4 3
v -10 2 1
v -10 2 3
v -10 4 1
v -10 -2 3
v -20 2 3
v -20 -2 3
v -10 2 3
v -10 2 1
v -18 -2 1
v -18 2 1
v -10 -2 1
v -18 2 -1
v -20 4 -1
v -20 2 -1
v -18 4 -1
v -20 2 1
v -18 2 -1
v -20 2 -1
v -18 2 1
v -20 4 1
v -18 2 1
v -20 2 1
v -18 4 1
v -11 2 1
v -10 2 3
v -10 2 1
v -11 2 3
v -11 4 1
v -11 2 3
v -11 2 1
v -11 4 3
v -11 4 1
v -18 2 1
v -18 4 1
v -11 2 1
v -20 4 3
v -11 2 3
v -11 4 3
v -20 2 3
v -20 4 1
v -20 2 3
v -20 4 3
v -20 2 1
v -10 4 0
v -10 2 1
v -10 4 1
v -10 2 0
v -10 2 0
v -10 -2 1
v -10 2 1
v -10 -2 0

vn 0 0 1
vn 0 0 1
vn 0 0 1
vn 0 0 1
vn 0 0 1
vn 0 0 1
vn 0 0 1
vn 0 0 1
vn 0 0 1
vn 0 0 1
vn 0 0 1
vn 0 0 1
vn 0 0 1
vn 0 0 1
vn 1 0 0
vn 1 0 0
vn 1 0 0
vn 1 0 0
vn -1 0 0
vn -1 0 0
vn -1 0 0
vn -1 0 0
vn 0 0 -1
vn 0 0 -1
vn 0 0 -1
vn 0 0 -1
vn 0 0 -1
vn 0 0 -1
vn 0 0 -1
vn 0 0 -1
vn 0 0 -1
vn 0 0 -1
vn 1 0 0
vn 1 0 0
vn 1 0 0
vn 1 0 0
vn -1 0 0
vn -1 0 0
vn -1 0 0
vn -1 0 0
vn 1 0 0
vn 1 0 0
vn 1 0 0
vn 1 0 0
vn 0 0 -1
vn 0 0 -1
vn 0 0 -1
vn 0 0 -1
vn 0 0 1
vn 0 0 1
vn 0 0 1
vn 0 0 1
vn 0 0 -1
vn 0 0 -1
vn 0 0 -1
vn 0 0 -1
vn 0 -1 0
vn 0 -1 0
vn 0 -1 0
vn 0 -1 0
vn 0 0 1
vn 0 0 1
vn 0 0 1
vn 0 0 1
vn 0 -1 0
vn 0 -1 0
vn 0 -1 0
vn 0 -1 0
vn -1 0 0
vn -1 0 0
vn -1 0 0
vn -1 0 0
vn 0 0 1
vn 0 0 1
vn 0 0 1
vn 0 0 1
vn 0 0 -1
vn 0 0 -1
vn 0 0 -1
vn 0 0 -1
vn 1 0 0
vn 1 0 0
vn 1 0 0
vn 1 0 0
vn 1 0 0
vn 1 0 0
vn 1 0 0
vn 1 0 0
vn 1 0 0
vn 1 0 0
vn 1 0 0
vn 1 0 0

vt 4 2
vt 0 0
vt 0 2
vt 4 0
vt 1 7
vt 0 5
vt 0 7
vt 1 0
vt 0 0
vt 0 6
vt 1 6
vt 1 4
vt 0 0
vt 1 0
vt 0 0
vt 0 6
vt 10 0
vt 10 6
vt 0 7
vt 3 7
vt 3 0
vt 0 0
vt 17 6
vt 17 0
vt 10 4
vt 10 6
vt 10 0
vt 0 0
vt 0 6
vt 8 4
vt 8 6
vt 8 0
vt 4 4
vt 4 0
vt 0 4
vt 0 0
vt 2 4
vt 0 0
vt 0 4
vt 2 0
vt 0 2
vt 2 0
vt 0 0
vt 2 2
vt 0 0
vt 10 4
vt 10 0
vt 0 4
vt 8 4
vt 0 0
vt 0 4
vt 8 0
vt 0 0
vt 2 2
vt 2 0
vt 0 2
vt 0 2
vt 2 0
vt 0 0
vt 2 2
vt 0 2
vt 2 0
vt 0 0
vt 2 2
vt 0 0
vt 1 2
vt 1 0
vt 0 2
vt 0 2
vt 2 0
vt 0 0
vt 2 2
vt 7 2
vt 0 0
vt 0 2
vt 7 0
vt 9 2
vt 0 0
vt 0 2
vt 9 0
vt 2 2
vt 0 0
vt 0 2
vt 2 0
vt 1 2
vt 0 0
vt 0 2
vt 1 0
vt 1 4
vt 0 0
vt 0 4
vt 1 0

g Wall-detach_819_55
usemtl Wall-detach_819_55
usemap Wall-detach_819_55
f 1/1/1 3/3/3 2/2/2
f 1/1/1 2/2/2 4/4/4
f 5/5/5 7/7/7 6/6/6
f 6/6/6 8/8/8 5/5/5
f 9/9/9 8/8/8 6/6/6
f 10/10/10 12/12/12 11/11/11
f 10/10/10 13/13/13 12/12/12
f 12/12/12 13/13/13 14/14/14
f 15/15/15 17/17/17 16/16/16
f 16/16/16 17/17/17 18/18/18
f 19/19/19 21/21/21 20/20/20
f 22/22/22 21/21/21 19/19/19
f 23/23/23 25/25/25 24/24/24
f 26/26/26 25/25/25 23/23/23
f 24/24/24 25/25/25 27/27/27
f 28/28/28 30/30/30 29/29/29
f 29/29/29 30/30/30 31/31/31
f 32/32/32 30/30/30 28/28/28
f 33/33/33 35/35/35 34/34/34
f 34/34/34 35/35/35 36/36/36
f 37/37/37 39/39/39 38/38/38
f 37/37/37 38/38/38 40/40/40
f 41/41/41 43/43/43 42/42/42
f 41/41/41 42/42/42 44/44/44
f 45/45/45 47/47/47 46/46/46
f 45/45/45 46/46/46 48/48/48
f 49/49/49 51/51/51 50/50/50
f 49/49/49 50/50/50 52/52/52
f 53/53/53 55/55/55 54/54/54
f 53/53/53 54/54/54 56/56/56
f 57/57/57 59/59/59 58/58/58
f 57/57/57 58/58/58 60/60/60
f 61/61/61 63/63/63 62/62/62
f 61/61/61 62/62/62 64/64/64
f 65/65/65 67/67/67 66/66/66
f 65/65/65 66/66/66 68/68/68
f 69/69/69 71/71/71 70/70/70
f 69/69/69 70/70/70 72/72/72
f 73/73/73 75/75/75 74/74/74
f 73/73/73 74/74/74 76/76/76
f 77/77/77 79/79/79 78/78/78
f 77/77/77 78/78/78 80/80/80
f 81/81/81 83/83/83 82/82/82
f 81/81/81 82/82/82 84/84/84
f 85/85/85 87/87/87 86/86/86
f 85/85/85 86/86/86 88/88/88
f 89/89/89 91/91/91 90/90/90
f 89/89/89 90/90/90 92/92/92
