#Wall-detach_822_51.obj

v -16 3 18
v -13 2 18
v -16 2 18
v -13 3 18
v -12 3 18
v -13 2 18
v -13 3 18
v -12 -3 18
v -13 -3 18
v -12 3 23
v -12 -3 18
v -12 3 18
v -12 -3 23
v -28 3 19
v -28 1 22
v -28 3 22
v -28 1 19
v -28 3 23
v -28 3 22
v -28 1 22
v -28 -3 23
v -28 -3 22
v -12 -3 23
v -12 3 23
v -28 -3 23
v -28 3 23
v -28 3 18
v -28 1 19
v -28 3 19
v -28 -3 18
v -28 -3 19
v -16 3 18
v -16 2 18
v -28 3 18
v -28 -3 18
v -16 -3 18
v -31 -3 19
v -28 1 19
v -28 -3 19
v -31 1 19
v -28 1 22
v -31 1 19
v -31 1 22
v -28 1 19
v -31 1 22
v -28 -3 22
v -28 1 22
v -31 -3 22

vn 0 0 1
vn 0 0 1
vn 0 0 1
vn 0 0 1
vn 0 0 1
vn 0 0 1
vn 0 0 1
vn 0 0 1
vn 0 0 1
vn -1 0 0
vn -1 0 0
vn -1 0 0
vn -1 0 0
vn 1 0 0
vn 1 0 0
vn 1 0 0
vn 1 0 0
vn 1 0 0
vn 1 0 0
vn 1 0 0
vn 1 0 0
vn 1 0 0
vn 0 0 -1
vn 0 0 -1
vn 0 0 -1
vn 0 0 -1
vn 1 0 0
vn 1 0 0
vn 1 0 0
vn 1 0 0
vn 1 0 0
vn 0 0 1
vn 0 0 1
vn 0 0 1
vn 0 0 1
vn 0 0 1
vn 0 0 1
vn 0 0 1
vn 0 0 1
vn 0 0 1
vn 0 -1 0
vn 0 -1 0
vn 0 -1 0
vn 0 -1 0
vn 0 0 -1
vn 0 0 -1
vn 0 0 -1
vn 0 0 -1

vt 0 1
vt 3 0
vt 0 0
vt 3 1
vt 1 6
vt 0 5
vt 0 6
vt 1 0
vt 0 0
vt 5 6
vt 0 0
vt 0 6
vt 5 0
vt 3 2
vt 0 0
vt 0 2
vt 3 0
vt 0 6
vt 1 6
vt 1 4
vt 0 0
vt 1 0
vt 0 0
vt 0 6
vt 16 0
vt 16 6
vt 1 6
vt 0 4
vt 0 6
vt 1 0
vt 0 0
vt 12 6
vt 12 5
vt 0 6
vt 0 0
vt 12 0
vt 0 0
vt 3 4
vt 3 0
vt 0 4
vt 3 3
vt 0 0
vt 0 3
vt 3 0
vt 3 4
vt 0 0
vt 0 4
vt 3 0

g Wall-detach_822_51
usemtl Wall-detach_822_51
usemap Wall-detach_822_51
f 1/1/1 3/3/3 2/2/2
f 1/1/1 2/2/2 4/4/4
f 5/5/5 7/7/7 6/6/6
f 6/6/6 8/8/8 5/5/5
f 9/9/9 8/8/8 6/6/6
f 10/10/10 12/12/12 11/11/11
f 10/10/10 11/11/11 13/13/13
f 14/14/14 16/16/16 15/15/15
f 14/14/14 15/15/15 17/17/17
f 18/18/18 20/20/20 19/19/19
f 18/18/18 21/21/21 20/20/20
f 20/20/20 21/21/21 22/22/22
f 23/23/23 25/25/25 24/24/24
f 24/24/24 25/25/25 26/26/26
f 27/27/27 29/29/29 28/28/28
f 28/28/28 30/30/30 27/27/27
f 31/31/31 30/30/30 28/28/28
f 32/32/32 34/34/34 33/33/33
f 34/34/34 35/35/35 33/33/33
f 33/33/33 35/35/35 36/36/36
f 37/37/37 39/39/39 38/38/38
f 37/37/37 38/38/38 40/40/40
f 41/41/41 43/43/43 42/42/42
f 41/41/41 42/42/42 44/44/44
f 45/45/45 47/47/47 46/46/46
f 45/45/45 46/46/46 48/48/48
