#Wall-detach_821_50.obj

v -38 4 26
v -31 -3 26
v -31 4 26
v -38 -3 26
v -32 4 4
v -36 2 4
v -36 4 4
v -32 2 4
v -38 4 4
v -36 4 4
v -36 2 4
v -38 -3 4
v -36 -3 4
v -38 -3 26
v -38 4 26
v -38 -3 4
v -38 4 4
v -27 4 4
v -32 2 4
v -32 4 4
v -27 -3 4
v -32 -3 4
v -31 4 22
v -31 1 19
v -31 4 19
v -31 1 22
v -31 4 26
v -31 1 22
v -31 4 22
v -31 -3 26
v -31 -3 22
v -31 4 10
v -31 4 19
v -31 -3 19
v -31 -3 10
v -27 4 10
v -31 4 10
v -31 -3 10
v -27 -3 10

vn 0 0 -1
vn 0 0 -1
vn 0 0 -1
vn 0 0 -1
vn 0 0 1
vn 0 0 1
vn 0 0 1
vn 0 0 1
vn 0 0 1
vn 0 0 1
vn 0 0 1
vn 0 0 1
vn 0 0 1
vn 1 0 0
vn 1 0 0
vn 1 0 0
vn 1 0 0
vn 0 0 1
vn 0 0 1
vn 0 0 1
vn 0 0 1
vn 0 0 1
vn -1 0 0
vn -1 0 0
vn -1 0 0
vn -1 0 0
vn -1 0 0
vn -1 0 0
vn -1 0 0
vn -1 0 0
vn -1 0 0
vn -1 0 0
vn -1 0 0
vn -1 0 0
vn -1 0 0
vn 0 0 -1
vn 0 0 -1
vn 0 0 -1
vn 0 0 -1

vt 7 7
vt 0 0
vt 0 7
vt 7 0
vt 4 2
vt 0 0
vt 0 2
vt 4 0
vt 0 7
vt 2 7
vt 2 5
vt 0 0
vt 2 0
vt 0 0
vt 0 7
vt 22 0
vt 22 7
vt 5 7
vt 0 5
vt 0 7
vt 5 0
vt 0 0
vt 3 3
vt 0 0
vt 0 3
vt 3 0
vt 4 7
vt 0 4
vt 0 7
vt 4 0
vt 0 0
vt 0 7
vt 9 7
vt 9 0
vt 0 0
vt 0 7
vt 4 7
vt 4 0
vt 0 0

g Wall-detach_821_50
usemtl Wall-detach_821_50
usemap Wall-detach_821_50
f 1/1/1 3/3/3 2/2/2
f 1/1/1 2/2/2 4/4/4
f 5/5/5 7/7/7 6/6/6
f 5/5/5 6/6/6 8/8/8
f 9/9/9 11/11/11 10/10/10
f 9/9/9 12/12/12 11/11/11
f 11/11/11 12/12/12 13/13/13
f 14/14/14 16/16/16 15/15/15
f 15/15/15 16/16/16 17/17/17
f 18/18/18 20/20/20 19/19/19
f 19/19/19 21/21/21 18/18/18
f 22/22/22 21/21/21 19/19/19
f 23/23/23 25/25/25 24/24/24
f 23/23/23 24/24/24 26/26/26
f 27/27/27 29/29/29 28/28/28
f 28/28/28 30/30/30 27/27/27
f 31/31/31 30/30/30 28/28/28
f 32/32/32 34/34/34 33/33/33
f 32/32/32 35/35/35 34/34/34
f 36/36/36 38/38/38 37/37/37
f 39/39/39 38/38/38 36/36/36
