#Wall_710_35.obj

v 0 2 1
v 0 3 1
v 1 3 1
v 1 2 1
v 1 2 1
v 1 3 1
v 1 3 -1
v 1 2 -1
v 1 2 -1
v 1 3 -1
v 7 3 -1
v 7 2 -1
v 7 2 -1
v 7 3 -1
v 7 3 -2
v 7 2 -2

vn 0 0 1
vn 0 0 1
vn 0 0 1
vn 0 0 1
vn 1 0 0
vn 1 0 0
vn 1 0 0
vn 1 0 0
vn 0 0 1
vn 0 0 1
vn 0 0 1
vn 0 0 1
vn 1 0 0
vn 1 0 0
vn 1 0 0
vn 1 0 0

vt 0 0
vt 0 1
vt 1 1
vt 1 0
vt 0 0
vt 0 1
vt 2 1
vt 2 0
vt 0 0
vt 0 1
vt 6 1
vt 6 0
vt 0 0
vt 0 1
vt 1 1
vt 1 0

g Wall_710_35
usemtl Wall_710_35
usemap Wall_710_35
f 1/1/1 3/3/3 2/2/2
f 4/4/4 3/3/3 1/1/1
f 5/5/5 7/7/7 6/6/6
f 8/8/8 7/7/7 5/5/5
f 9/9/9 11/11/11 10/10/10
f 12/12/12 11/11/11 9/9/9
f 13/13/13 15/15/15 14/14/14
f 16/16/16 15/15/15 13/13/13
