#Wall-detach_673_54.obj

v 51 3 9
v 51 6 10
v 51 6 9
v 51 3 10
v 59 6 10
v 59 -7 10
v 55 6 10
v 55 -7 10
v 55 3 10
v 51 -7 10
v 51 3 10
v 55 3 10
v 55 -7 10
v 59 4 1
v 59 -7 1
v 59 4 4
v 59 -7 10
v 59 6 10
v 59 4 4
v 59 -7 1
v 59 6 4
v 61 4 1
v 59 -7 1
v 59 4 1
v 66 -7 1
v 65 6 1
v 66 -7 1
v 61 4 1
v 66 6 1
v 66 -7 1
v 65 6 1

vn 1 0 0
vn 1 0 0
vn 1 0 0
vn 1 0 0
vn 0 0 1
vn 0 0 1
vn 0 0 1
vn 0 0 1
vn 0 0 1
vn 0 0 1
vn 0 0 1
vn 0 0 1
vn 0 0 1
vn 1 0 0
vn 1 0 0
vn 1 0 0
vn 1 0 0
vn 1 0 0
vn 0.9999999 0 0
vn 1 0 0
vn 1 0 0
vn 0 0 1
vn 0 0 1
vn 0 0 1
vn 0 0 1
vn 0 0 1
vn 0 0 1
vn 0 0 1
vn 0 0 1
vn 0 0 1
vn 0 0 1

vt 1 0
vt 0 3
vt 1 3
vt 0 0
vt 4 13
vt 4 0
vt 0 13
vt 0 0
vt 0 10
vt 0 0
vt 0 10
vt 4 10
vt 4 0
vt 3 11
vt 3 0
vt 0 11
vt 0 0
vt 0 13
vt 6 11
vt 9 0
vt 6 13
vt 2 11
vt 0 0
vt 0 11
vt 7 0
vt 4 13
vt 5 0
vt 0 11
vt 1 13
vt 1 0
vt 0 13

g Wall-detach_673_54
usemtl Wall-detach_673_54
usemap Wall-detach_673_54
f 1/1/1 3/3/3 2/2/2
f 1/1/1 2/2/2 4/4/4
f 5/5/5 7/7/7 6/6/6
f 6/6/6 9/9/9 8/8/8
f 7/7/7 9/9/9 6/6/6
f 10/10/10 12/12/12 11/11/11
f 13/13/13 12/12/12 10/10/10
f 14/14/14 16/16/16 15/15/15
f 17/17/17 19/19/19 18/18/18
f 20/20/20 19/19/19 17/17/17
f 18/18/18 19/19/19 21/21/21
f 22/22/22 24/24/24 23/23/23
f 22/22/22 23/23/23 25/25/25
f 26/26/26 28/28/28 27/27/27
f 29/29/29 31/31/31 30/30/30
