#Wall_584_22.obj

v 10 2 -1
v 9 2 -1
v 9 3 -1
v 10 3 -1
v 10 2 -2
v 10 2 -1
v 10 3 -1
v 10 3 -2
v 14 2 -2
v 10 2 -2
v 10 3 -2
v 14 3 -2
v 15 2 -2
v 15 3 -2
v 19 2 -2
v 19 3 -2
v 20 2 -1
v 19 2 -1
v 19 3 -1
v 20 3 -1
v 20 2 -2
v 20 2 -1
v 20 3 -1
v 20 3 -2
v 9 2 -2
v 5 2 -2
v 5 3 -2
v 9 3 -2
v 9 2 -1
v 9 2 -2
v 9 3 -2
v 9 3 -1
v 19 2 -1
v 19 2 -2
v 19 3 -2
v 19 3 -1
v 24 2 -2
v 20 2 -2
v 20 3 -2
v 24 3 -2
v 9 -2 -2
v 9 -2 -1
v 9 -4 -1
v 9 -4 -2
v 9 -2 -1
v 10 -2 -1
v 10 -4 -1
v 9 -4 -1
v 10 -2 -1
v 10 -2 -2
v 10 -4 -2
v 10 -4 -1
v 10 -2 -2
v 14 -2 -2
v 14 -4 -2
v 10 -4 -2
v 14 -2 3
v 15 -2 3
v 15 -4 3
v 14 -4 3
v 15 -2 -2
v 19 -2 -2
v 19 -4 -2
v 15 -4 -2
v 19 -2 -2
v 19 -2 -1
v 19 -4 -1
v 19 -4 -2
v 19 -2 -1
v 20 -2 -1
v 20 -4 -1
v 19 -4 -1
v 20 -2 -1
v 20 -2 -2
v 20 -4 -2
v 20 -4 -1
v 20 -2 -2
v 24 -2 -2
v 24 -4 -2
v 20 -4 -2
v 14 -2 -2
v 14 -2 3
v 14 -4 3
v 14 -4 -2
v 15 -2 3
v 15 -2 -2
v 15 -4 -2
v 15 -4 3
v 5 -2 -2
v 9 -2 -2
v 9 -4 -2
v 5 -4 -2

vn 0 0 1
vn 0 0 1
vn 0 0 1
vn 0 0 1
vn 1 0 0
vn 1 0 0
vn 1 0 0
vn 1 0 0
vn 0 0 1
vn 0 0 1
vn 0 0 1
vn 0 0 1
vn 0 0 1
vn 0 0 1
vn 0 0 1
vn 0 0 1
vn 0 0 1
vn 0 0 1
vn 0 0 1
vn 0 0 1
vn 1 0 0
vn 1 0 0
vn 1 0 0
vn 1 0 0
vn 0 0 1
vn 0 0 1
vn 0 0 1
vn 0 0 1
vn -1 0 0
vn -1 0 0
vn -1 0 0
vn -1 0 0
vn -1 0 0
vn -1 0 0
vn -1 0 0
vn -1 0 0
vn 0 0 1
vn 0 0 1
vn 0 0 1
vn 0 0 1
vn -1 0 0
vn -1 0 0
vn -1 0 0
vn -1 0 0
vn 0 0 1
vn 0 0 1
vn 0 0 1
vn 0 0 1
vn 1 0 0
vn 1 0 0
vn 1 0 0
vn 1 0 0
vn 0 0 1
vn 0 0 1
vn 0 0 1
vn 0 0 1
vn 0 0 1
vn 0 0 1
vn 0 0 1
vn 0 0 1
vn 0 0 1
vn 0 0 1
vn 0 0 1
vn 0 0 1
vn -1 0 0
vn -1 0 0
vn -1 0 0
vn -1 0 0
vn 0 0 1
vn 0 0 1
vn 0 0 1
vn 0 0 1
vn 1 0 0
vn 1 0 0
vn 1 0 0
vn 1 0 0
vn 0 0 1
vn 0 0 1
vn 0 0 1
vn 0 0 1
vn -1 0 0
vn -1 0 0
vn -1 0 0
vn -1 0 0
vn 1 0 0
vn 1 0 0
vn 1 0 0
vn 1 0 0
vn 0 0 1
vn 0 0 1
vn 0 0 1
vn 0 0 1

vt 12 5
vt 11 5
vt 11 6
vt 12 6
vt 35 5
vt 34 5
vt 34 6
vt 35 6
vt 16 5
vt 12 5
vt 12 6
vt 16 6
vt 17 5
vt 17 6
vt 21 5
vt 21 6
vt 22 5
vt 21 5
vt 21 6
vt 22 6
vt 35 5
vt 34 5
vt 34 6
vt 35 6
vt 11 5
vt 7 5
vt 7 6
vt 11 6
vt -34 5
vt -35 5
vt -35 6
vt -34 6
vt -34 5
vt -35 5
vt -35 6
vt -34 6
vt 26 5
vt 22 5
vt 22 6
vt 26 6
vt -35 1
vt -34 1
vt -34 -1
vt -35 -1
vt 11 1
vt 12 1
vt 12 -1
vt 11 -1
vt 34 1
vt 35 1
vt 35 -1
vt 34 -1
vt 12 1
vt 16 1
vt 16 -1
vt 12 -1
vt 16 1
vt 17 1
vt 17 -1
vt 16 -1
vt 17 1
vt 21 1
vt 21 -1
vt 17 -1
vt -35 1
vt -34 1
vt -34 -1
vt -35 -1
vt 21 1
vt 22 1
vt 22 -1
vt 21 -1
vt 34 1
vt 35 1
vt 35 -1
vt 34 -1
vt 22 1
vt 26 1
vt 26 -1
vt 22 -1
vt -35 1
vt -30 1
vt -30 -1
vt -35 -1
vt 30 1
vt 35 1
vt 35 -1
vt 30 -1
vt 7 1
vt 11 1
vt 11 -1
vt 7 -1

g Wall_584_22
usemtl Wall_584_22
usemap Wall_584_22
f 1/1/1 3/3/3 2/2/2
f 4/4/4 3/3/3 1/1/1
f 5/5/5 7/7/7 6/6/6
f 8/8/8 7/7/7 5/5/5
f 9/9/9 11/11/11 10/10/10
f 12/12/12 11/11/11 9/9/9
f 13/13/13 12/12/12 9/9/9
f 14/14/14 12/12/12 13/13/13
f 15/15/15 14/14/14 13/13/13
f 16/16/16 14/14/14 15/15/15
f 17/17/17 19/19/19 18/18/18
f 20/20/20 19/19/19 17/17/17
f 21/21/21 23/23/23 22/22/22
f 24/24/24 23/23/23 21/21/21
f 25/25/25 27/27/27 26/26/26
f 28/28/28 27/27/27 25/25/25
f 29/29/29 31/31/31 30/30/30
f 32/32/32 31/31/31 29/29/29
f 33/33/33 35/35/35 34/34/34
f 36/36/36 35/35/35 33/33/33
f 37/37/37 39/39/39 38/38/38
f 40/40/40 39/39/39 37/37/37
f 41/41/41 43/43/43 42/42/42
f 44/44/44 43/43/43 41/41/41
f 45/45/45 47/47/47 46/46/46
f 48/48/48 47/47/47 45/45/45
f 49/49/49 51/51/51 50/50/50
f 52/52/52 51/51/51 49/49/49
f 53/53/53 55/55/55 54/54/54
f 56/56/56 55/55/55 53/53/53
f 57/57/57 59/59/59 58/58/58
f 60/60/60 59/59/59 57/57/57
f 61/61/61 63/63/63 62/62/62
f 64/64/64 63/63/63 61/61/61
f 65/65/65 67/67/67 66/66/66
f 68/68/68 67/67/67 65/65/65
f 69/69/69 71/71/71 70/70/70
f 72/72/72 71/71/71 69/69/69
f 73/73/73 75/75/75 74/74/74
f 76/76/76 75/75/75 73/73/73
f 77/77/77 79/79/79 78/78/78
f 80/80/80 79/79/79 77/77/77
f 81/81/81 83/83/83 82/82/82
f 84/84/84 83/83/83 81/81/81
f 85/85/85 87/87/87 86/86/86
f 88/88/88 87/87/87 85/85/85
f 89/89/89 91/91/91 90/90/90
f 92/92/92 91/91/91 89/89/89
