#Walls_520_2.obj

v 2.000027 3 5.99999
v 2.670288E-05 3 6
v 2.288818E-05 3 5
v 2.000023 3 4.99999
v 7 0 5
v 7 0 6
v 2.000027 3 5.99999
v 2.000023 3 4.99999
v 2.000023 3 4.99999
v 2.288818E-05 3 5
v 2.288818E-05 0 5
v 7 0 5
v 30.00002 3 4.999865
v 32.00002 3 4.999855
v 30.00003 3 5.999865
v 32.00003 3 5.999855
v 30.00002 3 4.999865
v 30.00003 3 5.999865
v 25 0 5
v 25 0 6
v 25 0 5
v 32.00002 0 4.999855
v 30.00002 3 4.999865
v 32.00002 3 4.999855
v 32 0 -32
v 32 5 -32
v 32.00002 0 7.999903
v 32 5 8
v 13.99998 6 -10.00003
v 9.999977 -1 -10.00002
v 9.999977 6 -10.00002
v 13.99996 -1 -10.00006
v 13.99998 6 -10.00003
v 14 -1 -10
v 13.99996 -1 -10.00006
v 21.99995 6 -10.0001
v 17.99998 -1 -10.00004
v 17.99998 6 -10.00004
v 21.99995 -1 -10.0001
v 22 6 -14
v 21.99995 -1 -10.0001
v 21.99995 6 -10.0001
v 22 -1 -14
v 9.999991 -1 -2.000046
v 9.999969 -1 -7.000046
v 9.999991 6 -2.000046
v 9.999969 6 -7.000046
v 21.99999 6 -2.000099
v 9.999991 -1 -2.000046
v 9.999991 6 -2.000046
v 21.99999 -1 -2.000099
v 21.99997 6 -7.000099
v 21.99999 -1 -2.000099
v 21.99999 6 -2.000099
v 21.99997 -1 -7.000099
v 9.999969 6 -7.000046
v 21.99997 -1 -7.000099
v 21.99997 6 -7.000099
v 9.999969 -1 -7.000046
v 30 3 -30
v 32 3 -30
v 32 3 -29
v 30 3 -29
v 25 0 -29
v 25 0 -30
v 30 3 -30
v 30 3 -29
v 30 3 -29
v 32 3 -29
v 32 0 -29
v 25 0 -29
v 2 3 -29
v 0 3 -29
v 2 3 -30
v 0 3 -30
v 2 3 -29
v 2 3 -30
v 7 0 -29
v 7 0 -30
v 7 0 -29
v 0 0 -29
v 2 3 -29
v 0 3 -29
v 1.811981E-05 0 8
v 0 5 8
v 0 0 -32
v 0 5 -32
v 18 6 -14
v 22 -1 -14
v 22 6 -14
v 18 -1 -14
v 17.99998 6 -10.00004
v 18 -1 -14
v 18 6 -14
v 17.99998 -1 -10.00004
v 14 -1 -14
v 14 -1 -10
v 14 6 -14
v 13.99998 6 -10.00003
v 10 6 -14
v 14 -1 -14
v 14 6 -14
v 10 -1 -14
v 9.999977 6 -10.00002
v 10 -1 -14
v 10 6 -14
v 9.999977 -1 -10.00002
v 22 -1 -22
v 22 -1 -17
v 22 6 -22
v 22 6 -17
v 10 6 -22
v 22 -1 -22
v 22 6 -22
v 10 -1 -22
v 10 6 -17
v 10 -1 -22
v 10 6 -22
v 10 -1 -17
v 22 6 -17
v 10 -1 -17
v 10 6 -17
v 22 -1 -17
v 0 5 8
v 32.00002 0 7.999903
v 32 5 8
v 1.811981E-05 0 8
v 32 5 -32
v 0 0 -32
v 0 5 -32
v 32 0 -32
v 9.999991 6 -2.000046
v 21.99997 6 -7.000099
v 21.99999 6 -2.000099
v 9.999969 6 -7.000046
v 9.999977 6 -10.00002
v 14 6 -14
v 13.99998 6 -10.00003
v 10 6 -14
v 17.99998 6 -10.00004
v 22 6 -14
v 21.99995 6 -10.0001
v 18 6 -14
v 10 6 -17
v 22 6 -22
v 22 6 -17
v 10 6 -22
v 2 3 -30
v 0 3 -30
v 0 3 -32
v 32 3 -32
v 30 3 -30
v 32 3 -30
v 32.00003 3 5.999855
v 32 3 8
v 30 3 6
v 3.623962E-05 3 8
v 2 3 6
v 2.670288E-05 3 6
v 0 3 8
v 2 3 6
v 2 3 6
v 7 0 6
v 30 3 6
v 25 0 6
v 7 0 -30
v 2 3 -30
v 30 3 -30
v 25 0 -30
v 7 0 -30
v 0 0 -32
v 0 0 -30
v 32 0 -32
v 25 0 -30
v 32 0 -30

vn 0 1 0
vn 0 1 0
vn 0 1 0
vn 0 1 0
vn 0.5144976 0.8574918 -9.813264E-07
vn 0.5144978 0.8574917 0
vn 0.5144976 0.8574918 -9.813264E-07
vn 0.5144975 0.8574919 -1.962652E-06
vn -1.059641E-06 -2.472487E-06 -1
vn -4.768372E-06 0 -1
vn -1.059641E-06 -2.472487E-06 -1
vn 0 -3.178915E-06 -1
vn 0 1 0
vn 0 1 0
vn 0 1 0
vn 0 1 0
vn -0.514494 0.8574939 1.962639E-06
vn -0.5144939 0.8574941 9.813192E-07
vn -0.5144939 0.8574941 9.813192E-07
vn -0.5144937 0.8574941 0
vn -2.070829E-05 -1.062661E-05 -1
vn -1.716609E-05 -8.265148E-06 -1
vn -1.716609E-05 -8.265148E-06 -1
vn -4.768372E-06 0 -1
vn -1 0 4.768383E-07
vn -0.9999999 -1.907351E-06 2.384189E-07
vn -0.9999999 -1.907351E-06 2.384189E-07
vn -1 -3.814697E-06 0
vn 6.079691E-06 -2.247956E-06 1
vn 6.079691E-06 -2.247956E-06 1
vn 2.145767E-06 0 1
vn 1.001363E-05 -4.495925E-06 1
vn -0.8145666 -5.548794E-08 0.5800701
vn -0.8145666 -5.548794E-08 0.5800701
vn -0.8145666 -5.548794E-08 0.5800701
vn 1.478204E-05 0 0.9999999
vn 1.478204E-05 0 0.9999999
vn 1.478204E-05 0 0.9999999
vn 1.478204E-05 0 0.9999999
vn 0.9999999 0 1.144438E-05
vn 0.9999999 0 1.144438E-05
vn 0.9999999 0 1.144438E-05
vn 0.9999999 0 1.144438E-05
vn -1 0 4.577637E-06
vn -1 0 4.577637E-06
vn -1 0 4.577637E-06
vn -1 0 4.577637E-06
vn 4.45048E-06 0 1
vn 4.45048E-06 0 1
vn 4.45048E-06 0 1
vn 4.45048E-06 0 1
vn 1 0 -4.577637E-06
vn 1 0 -4.577637E-06
vn 1 0 -4.577637E-06
vn 1 0 -4.577637E-06
vn -4.45048E-06 0 -1
vn -4.45048E-06 0 -1
vn -4.45048E-06 0 -1
vn -4.45048E-06 0 -1
vn 0 1 0
vn 0 1 0
vn 0 1 0
vn 0 1 0
vn -0.5144958 0.857493 0
vn -0.5144958 0.857493 0
vn -0.5144958 0.857493 0
vn -0.5144958 0.857493 0
vn 0 0 1
vn 0 0 1
vn 0 0 1
vn 0 0 1
vn 0 1 0
vn 0 1 0
vn 0 1 0
vn 0 1 0
vn 0.5144958 0.857493 0
vn 0.5144958 0.857493 0
vn 0.5144958 0.857493 0
vn 0.5144958 0.857493 0
vn 0 0 1
vn 0 0 1
vn 0 0 1
vn 0 0 1
vn 1 3.623962E-06 -4.529953E-07
vn 1 1.811981E-06 -2.264976E-07
vn 1 1.811981E-06 -2.264976E-07
vn 1 0 0
vn 0 0 -1
vn 0 0 -1
vn 0 0 -1
vn 0 0 -1
vn -1 0 -5.722104E-06
vn -1 0 -5.722104E-06
vn -1 0 -5.722104E-06
vn -1 0 -5.722104E-06
vn 1 0 0
vn 0.9999999 1.634877E-06 2.861034E-06
vn 0.9999999 1.634877E-06 2.861034E-06
vn 0.9999999 3.269766E-06 5.722091E-06
vn 0 0 -1
vn 0 0 -1
vn 0 0 -1
vn 0 0 -1
vn -0.9999999 0 -5.722078E-06
vn -0.9999999 0 -5.722078E-06
vn -0.9999999 0 -5.722078E-06
vn -0.9999999 0 -5.722078E-06
vn 1 0 0
vn 1 0 0
vn 1 0 0
vn 1 0 0
vn 0 0 -1
vn 0 0 -1
vn 0 0 -1
vn 0 0 -1
vn -1 0 0
vn -1 0 0
vn -1 0 0
vn -1 0 0
vn 0 0 1
vn 0 0 1
vn 0 0 1
vn 0 0 1
vn -1.512468E-06 9.679788E-06 -1
vn -1.512468E-06 9.679788E-06 -1
vn 0 1.935959E-05 -1
vn -3.024936E-06 -1.096225E-11 -1
vn 0 0 1
vn 0 0 1
vn 0 0 1
vn 0 0 1
vn 0 1 0
vn 0 1 0
vn 0 1 0
vn 0 1 0
vn 0 1 0
vn 0 1 0
vn 0 1 0
vn 0 1 0
vn 0 1 0
vn 0 1 0
vn 0 1 0
vn 0 1 0
vn 0 1 0
vn 0 1 0
vn 0 1 0
vn 0 1 0
vn 0 1 0
vn 0 1 0
vn 0 1 0
vn 0 1 0
vn 0 1 0
vn 0 1 0
vn 0 1 0
vn 0 1 0
vn 0 0.9999999 0
vn 0 1 0
vn 0 0.9999999 0
vn 0 1 0
vn 0 -1 0
vn 0 -1 0
vn 0 0 -1
vn 0 0 -1
vn 0 0 -1
vn 0 0 -1
vn 0 0 1
vn 0 0 1
vn 0 0 1
vn 0 0 1
vn 0 -1 0
vn 0 -1 0
vn 0 -1 0
vn 0 -1 0
vn 0 -1 0
vn 0 -1 0

vt 0 1
vt 2 1.00001
vt 2.000004 9.536743E-06
vt 3.814697E-06 0
vt 0 9.536743E-06
vt 0 1.00001
vt 5.999998 1
vt 6.000001 0
vt 4.999977 3
vt 6.999977 3
vt 6.999977 0
vt 0 0
vt 2.000004 9.536743E-06
vt 3.814697E-06 0
vt 2 1.00001
vt 0 1
vt 3.814697E-06 0
vt 0 1
vt 6 0.0001353621
vt 6 1.000135
vt 7.000023 0
vt 0 0
vt 2 3
vt 0 3
vt 0 0
vt 0 5
vt 39.9999 0
vt 40 5
vt 4 7
vt 0 0
vt 0 7
vt 3.999978 0
vt 3.835745E-05 7
vt 7.726997E-05 0
vt -1.862645E-09 0
vt 3.999977 7
vt 0 0
vt 0 7
vt 3.999977 0
vt 3.999901 7
vt 0 0
vt 0 7
vt 3.999901 0
vt 5 0
vt 0 0
vt 5 7
vt 0 7
vt 12 7
vt 0 0
vt 0 7
vt 12 0
vt 5 7
vt 0 0
vt 0 7
vt 5 0
vt 12 7
vt 0 0
vt 0 7
vt 12 0
vt 2 0
vt 0 0
vt 0 1
vt 2 1
vt 6 1
vt 6 0
vt 0 0
vt 0 1
vt 5 3
vt 7 3
vt 7 0
vt 0 0
vt 0 1
vt 2 1
vt 0 0
vt 2 0
vt 6 1
vt 6 0
vt 0 1
vt 0 0
vt 7 0
vt 0 0
vt 2 3
vt 0 3
vt 0 0
vt 0 5
vt 40 0
vt 40 5
vt 4 7
vt 0 0
vt 0 7
vt 4 0
vt 3.99996 7
vt 0 0
vt 0 7
vt 3.99996 0
vt 4 0
vt 0 0
vt 4 7
vt 3.147125E-05 7
vt 4 7
vt 0 0
vt 0 7
vt 4 0
vt 3.999977 7
vt 0 0
vt 0 7
vt 3.999977 0
vt 5 0
vt 0 0
vt 5 7
vt 0 7
vt 12 7
vt 0 0
vt 0 7
vt 12 0
vt 5 7
vt 0 0
vt 0 7
vt 5 0
vt 12 7
vt 0 0
vt 0 7
vt 12 0
vt 32.00002 5
vt 0 0
vt 1.907349E-05 5
vt 32 0
vt 32 5
vt 0 0
vt 0 5
vt 32 0
vt 12 5.000053
vt 2.288818E-05 0
vt 0 5
vt 12.00002 5.340576E-05
vt 4.000023 3.999977
vt 0 0
vt 2.288818E-05 3.999969
vt 4 0
vt 4.000023 3.99996
vt 0 0
vt 4.577637E-05 3.999901
vt 4 0
vt 12 5
vt 0 0
vt 0 5
vt 12 0
vt 30 2
vt 32 2
vt 32 0
vt 0 0
vt 2 2
vt 0 2
vt 0 0
vt 2.670288E-05 2.000145
vt 2.000027 0.0001449585
vt 31.99999 2.000145
vt 30.00003 0.0001449585
vt 32 0.0001449585
vt 32.00003 2.000145
vt 30.00003 0.0001449585
vt 28 3
vt 23 0
vt 0 3
vt 5 0
vt 5 0
vt 0 3
vt 28 3
vt 23 0
vt 7 2
vt 0 0
vt 0 2
vt 32 0
vt 25 2
vt 32 2

g Walls_520_2
usemtl Walls_520_2
usemap Walls_520_2
f 1/1/1 3/3/3 2/2/2
f 1/1/1 4/4/4 3/3/3
f 5/5/5 7/7/7 6/6/6
f 5/5/5 8/8/8 7/7/7
f 9/9/9 11/11/11 10/10/10
f 9/9/9 12/12/12 11/11/11
f 13/13/13 15/15/15 14/14/14
f 14/14/14 15/15/15 16/16/16
f 17/17/17 19/19/19 18/18/18
f 18/18/18 19/19/19 20/20/20
f 21/21/21 23/23/23 22/22/22
f 22/22/22 23/23/23 24/24/24
f 25/25/25 27/27/27 26/26/26
f 26/26/26 27/27/27 28/28/28
f 29/29/29 31/31/31 30/30/30
f 29/29/29 30/30/30 32/32/32
f 33/33/33 35/35/35 34/34/34
f 36/36/36 38/38/38 37/37/37
f 36/36/36 37/37/37 39/39/39
f 40/40/40 42/42/42 41/41/41
f 40/40/40 41/41/41 43/43/43
f 44/44/44 46/46/46 45/45/45
f 45/45/45 46/46/46 47/47/47
f 48/48/48 50/50/50 49/49/49
f 48/48/48 49/49/49 51/51/51
f 52/52/52 54/54/54 53/53/53
f 52/52/52 53/53/53 55/55/55
f 56/56/56 58/58/58 57/57/57
f 56/56/56 57/57/57 59/59/59
f 60/60/60 62/62/62 61/61/61
f 60/60/60 63/63/63 62/62/62
f 64/64/64 66/66/66 65/65/65
f 64/64/64 67/67/67 66/66/66
f 68/68/68 70/70/70 69/69/69
f 68/68/68 71/71/71 70/70/70
f 72/72/72 74/74/74 73/73/73
f 73/73/73 74/74/74 75/75/75
f 76/76/76 78/78/78 77/77/77
f 77/77/77 78/78/78 79/79/79
f 80/80/80 82/82/82 81/81/81
f 81/81/81 82/82/82 83/83/83
f 84/84/84 86/86/86 85/85/85
f 85/85/85 86/86/86 87/87/87
f 88/88/88 90/90/90 89/89/89
f 88/88/88 89/89/89 91/91/91
f 92/92/92 94/94/94 93/93/93
f 92/92/92 93/93/93 95/95/95
f 96/96/96 98/98/98 97/97/97
f 97/97/97 98/98/98 99/99/99
f 100/100/100 102/102/102 101/101/101
f 100/100/100 101/101/101 103/103/103
f 104/104/104 106/106/106 105/105/105
f 104/104/104 105/105/105 107/107/107
f 108/108/108 110/110/110 109/109/109
f 109/109/109 110/110/110 111/111/111
f 112/112/112 114/114/114 113/113/113
f 112/112/112 113/113/113 115/115/115
f 116/116/116 118/118/118 117/117/117
f 116/116/116 117/117/117 119/119/119
f 120/120/120 122/122/122 121/121/121
f 120/120/120 121/121/121 123/123/123
f 124/124/124 126/126/126 125/125/125
f 124/124/124 125/125/125 127/127/127
f 128/128/128 130/130/130 129/129/129
f 128/128/128 129/129/129 131/131/131
f 132/132/132 134/134/134 133/133/133
f 132/132/132 133/133/133 135/135/135
f 136/136/136 138/138/138 137/137/137
f 136/136/136 137/137/137 139/139/139
f 140/140/140 142/142/142 141/141/141
f 140/140/140 141/141/141 143/143/143
f 144/144/144 146/146/146 145/145/145
f 144/144/144 145/145/145 147/147/147
f 148/148/148 150/150/150 149/149/149
f 148/148/148 152/152/152 151/151/151
f 148/148/148 151/151/151 150/150/150
f 151/151/151 152/152/152 153/153/153
f 154/154/154 156/156/156 155/155/155
f 155/155/155 156/156/156 157/157/157
f 157/157/157 156/156/156 158/158/158
f 157/157/157 158/158/158 159/159/159
f 160/160/160 161/161/161 160/160/160
f 162/162/162 164/164/164 163/163/163
f 164/164/164 165/165/165 163/163/163
f 166/166/166 168/168/168 167/167/167
f 166/166/166 169/169/169 168/168/168
f 170/170/170 172/172/172 171/171/171
f 173/173/173 174/174/174 171/171/171
f 171/171/171 174/174/174 170/170/170
f 175/175/175 174/174/174 173/173/173
