#Wall_536_3.obj

v -17 7 0.1000004
v -17 3 25.1
v -17 7 25.1
v -17 3 0.1000004
v 21 7 25.1
v 21 3 0.1000004
v 21 7 0.1000004
v 21 3 25.1
v 5 1 -5.9
v -1 1 0.1000004
v 5 1 0.1000004
v -1 1 -5.9
v -1 -1 -5.9
v -1 1 0.1000004
v -1 1 -5.9
v -1 -1 0.1000004
v 5 -1 -5.9
v -1 1 -5.9
v 5 1 -5.9
v -1 -1 -5.9
v -1 1 31.1
v 5 1 25.1
v -1 1 25.1
v 5 1 31.1
v 5 1 31.1
v -1 -1 31.1
v 5 -1 31.1
v -1 1 31.1
v 5 -1 -5.9
v 5 1 -5.9
v 5 -1 0.1000004
v 5 1 0.1000004
v 5 -1 0.1000004
v 5 1 0.1000004
v 11 -1 0.1000004
v 5 7 0.1000004
v 11 3 0.1000004
v -1 1 0.1000004
v -1 7 0.1000004
v -17 7 0.1000004
v -7 3 0.1000004
v -7 -1 0.1000004
v -1 -1 0.1000004
v 21 7 0.1000004
v 21 3 0.1000004
v -17 3 0.1000004
v 5 1 25.1
v 5 1 31.1
v 5 -1 25.1
v 5 -1 31.1
v 5 1 25.1
v 5 -1 25.1
v 11 -1 25.1
v 11 3 25.1
v 5 7 25.1
v -1 7 25.1
v -1 1 25.1
v 21 3 25.1
v 21 7 25.1
v -1 1 31.1
v -1 1 25.1
v -1 -1 25.1
v -1 -1 31.1
v -17 7 25.1
v -17 3 25.1
v -7 3 25.1
v -7 -1 25.1
v -1 -1 25.1

vn 1 0 0
vn 1 0 0
vn 1 0 0
vn 1 0 0
vn -1 0 0
vn -1 0 0
vn -1 0 0
vn -1 0 0
vn 0 -1 0
vn 0 -1 0
vn 0 -1 0
vn 0 -1 0
vn 1 0 0
vn 1 0 0
vn 1 0 0
vn 1 0 0
vn 0 0 1
vn 0 0 1
vn 0 0 1
vn 0 0 1
vn 0 -1 0
vn 0 -1 0
vn 0 -1 0
vn 0 -1 0
vn 0 0 -1
vn 0 0 -1
vn 0 0 -1
vn 0 0 -1
vn -1 0 0
vn -1 0 0
vn -1 0 0
vn -1 0 0
vn 0 0 1
vn 0 0 1
vn 0 0 1
vn 0 0 1
vn 0 0 0.9999999
vn 0 0 1
vn 0 0 1
vn 0 0 1
vn 0 0 1
vn 0 0 1
vn 0 0 1
vn 0 0 1
vn 0 0 1
vn 0 0 1
vn -1 0 0
vn -0.9999999 0 0
vn -0.9999999 0 0
vn -1 0 0
vn -1.412851E-07 -1.059638E-07 -1
vn 0 9.536743E-07 -1
vn -2.119276E-07 3.178914E-07 -1
vn -9.304139E-08 -6.978104E-08 -0.9999999
vn -4.435694E-08 -1.996062E-07 -1
vn 5.609849E-08 -1.682955E-07 -1
vn 1.059638E-07 -1.589457E-07 -1
vn 0 0 -1
vn 0 0 -1
vn 0.9999999 0 0
vn 1 0 0
vn 0.9999999 0 0
vn 1 0 0
vn 0 0 -1
vn 0 0 -1
vn 9.304139E-08 -6.978104E-08 -0.9999999
vn 2.119276E-07 3.178914E-07 -1
vn 0 9.536743E-07 -1

vt 25 4
vt 0 0
vt 0 4
vt 25 0
vt 25 4
vt 0 0
vt 0 4
vt 25 0
vt 6 0
vt 0 6
vt 6 6
vt 0 0
vt 6 0
vt 0 2
vt 6 2
vt 0 0
vt 6 0
vt 0 2
vt 6 2
vt 0 0
vt 0 5.999998
vt 6 0
vt 0 0
vt 6 5.999998
vt 0 2
vt 6 0
vt 0 0
vt 6 2
vt 0 0
vt 0 2
vt 6 0
vt 6 2
vt 22 0
vt 22 2
vt 28 0
vt 22 8
vt 28 4
vt 16 2
vt 16 8
vt 0 8
vt 10 4
vt 10 0
vt 16 0
vt 38 8
vt 38 4
vt 0 4
vt 1.907349E-06 2
vt 6 2
vt 0 0
vt 6 0
vt 16 2
vt 16 0
vt 10 0
vt 10 4
vt 16 8
vt 22 8
vt 22 2
vt 0 4
vt 0 8
vt 0 2
vt 5.999998 2
vt 6 0
vt 0 0
vt 38 8
vt 38 4
vt 28 4
vt 28 0
vt 22 0

g Wall_536_3
usemtl Wall_536_3
usemap Wall_536_3
f 1/1/1 3/3/3 2/2/2
f 1/1/1 2/2/2 4/4/4
f 5/5/5 7/7/7 6/6/6
f 5/5/5 6/6/6 8/8/8
f 9/9/9 11/11/11 10/10/10
f 9/9/9 10/10/10 12/12/12
f 13/13/13 15/15/15 14/14/14
f 13/13/13 14/14/14 16/16/16
f 17/17/17 19/19/19 18/18/18
f 17/17/17 18/18/18 20/20/20
f 21/21/21 23/23/23 22/22/22
f 21/21/21 22/22/22 24/24/24
f 25/25/25 27/27/27 26/26/26
f 25/25/25 26/26/26 28/28/28
f 29/29/29 31/31/31 30/30/30
f 30/30/30 31/31/31 32/32/32
f 33/33/33 35/35/35 34/34/34
f 36/36/36 34/34/34 37/37/37
f 34/34/34 35/35/35 37/37/37
f 38/38/38 34/34/34 39/39/39
f 39/39/39 34/34/34 36/36/36
f 40/40/40 41/41/41 39/39/39
f 39/39/39 42/42/42 38/38/38
f 41/41/41 42/42/42 39/39/39
f 38/38/38 42/42/42 43/43/43
f 44/44/44 37/37/37 45/45/45
f 44/44/44 36/36/36 37/37/37
f 46/46/46 41/41/41 40/40/40
f 47/47/47 49/49/49 48/48/48
f 48/48/48 49/49/49 50/50/50
f 51/51/51 53/53/53 52/52/52
f 54/54/54 51/51/51 55/55/55
f 53/53/53 51/51/51 54/54/54
f 55/55/55 57/57/57 56/56/56
f 51/51/51 57/57/57 55/55/55
f 58/58/58 54/54/54 59/59/59
f 54/54/54 55/55/55 59/59/59
f 60/60/60 62/62/62 61/61/61
f 63/63/63 62/62/62 60/60/60
f 64/64/64 66/66/66 65/65/65
f 64/64/64 56/56/56 66/66/66
f 56/56/56 57/57/57 66/66/66
f 66/66/66 57/57/57 67/67/67
f 68/68/68 67/67/67 57/57/57
