#Wall-detach_798_54.obj

v -32 -3 -1
v -32 2 4
v -32 -3 4
v -32 2 -1
v -36 2 -1
v -32 2 4
v -32 2 -1
v -36 2 4
v -36 -3 -1
v -36 2 4
v -36 2 -1
v -36 -3 4
v -32 4 -1
v -36 2 -1
v -32 2 -1
v -36 4 -1
v -38 4 -1
v -36 2 -1
v -36 4 -1
v -38 -3 -1
v -36 -3 -1
v -32 4 -1
v -32 2 -1
v -31 4 -1
v -31 -3 -1
v -32 -3 -1
v -31 4 -1
v -31 -3 -1
v -31 -3 -15
v -31 4 -15

vn -1 0 0
vn -1 0 0
vn -1 0 0
vn -1 0 0
vn 0 -1 0
vn 0 -1 0
vn 0 -1 0
vn 0 -1 0
vn 1 0 0
vn 1 0 0
vn 1 0 0
vn 1 0 0
vn 0 0 -1
vn 0 0 -1
vn 0 0 -1
vn 0 0 -1
vn 0 0 -1
vn 0 0 -1
vn 0 0 -1
vn 0 0 -1
vn 0 0 -1
vn 0 0 -1
vn 0 0 -1
vn 0 0 -1
vn 0 0 -1
vn 0 0 -1
vn -1 0 0
vn -1 0 0
vn -1 0 0
vn -1 0 0

vt 0 0
vt 5 5
vt 5 0
vt 0 5
vt 0 0
vt 4 5
vt 4 0
vt 0 5
vt 5 0
vt 0 5
vt 5 5
vt 0 0
vt 0 2
vt 4 0
vt 0 0
vt 4 2
vt 2 7
vt 0 5
vt 0 7
vt 2 0
vt 0 0
vt 1 7
vt 1 5
vt 0 7
vt 0 0
vt 1 0
vt 14 7
vt 14 0
vt 0 0
vt 0 7

g Wall-detach_798_54
usemtl Wall-detach_798_54
usemap Wall-detach_798_54
f 1/1/1 3/3/3 2/2/2
f 1/1/1 2/2/2 4/4/4
f 5/5/5 7/7/7 6/6/6
f 5/5/5 6/6/6 8/8/8
f 9/9/9 11/11/11 10/10/10
f 9/9/9 10/10/10 12/12/12
f 13/13/13 15/15/15 14/14/14
f 13/13/13 14/14/14 16/16/16
f 17/17/17 19/19/19 18/18/18
f 18/18/18 20/20/20 17/17/17
f 21/21/21 20/20/20 18/18/18
f 22/22/22 24/24/24 23/23/23
f 24/24/24 25/25/25 23/23/23
f 23/23/23 25/25/25 26/26/26
f 27/27/27 29/29/29 28/28/28
f 30/30/30 29/29/29 27/27/27
