#Wall-detach_931_47.obj

v -68 0 -40
v -62 8 -40
v -62 0 -40
v -68 8 -40
v -60 0 -27
v -60 0 -26
v -60 4 -27
v -60 4 -26
v -56 0 -26
v -56 0 -27
v -56 4 -26
v -56 4 -27
v -56 8 -26
v -56 4 -26
v -60 8 -26
v -60 4 -26
v -56 4 -26
v -56 4 -27
v -60 4 -26
v -60 4 -27
v -60 8 -26
v -60 4 -26
v -62 8 -26
v -60 0 -26
v -62 0 -26
v -62 0 -26
v -62 0 -40
v -62 8 -26
v -62 8 -40
v -55 0 -26
v -56 0 -26
v -55 8 -26
v -56 4 -26
v -56 8 -26

vn 0 0 1
vn 0 0 1
vn 0 0 1
vn 0 0 1
vn 1 0 0
vn 1 0 0
vn 1 0 0
vn 1 0 0
vn -1 0 0
vn -1 0 0
vn -1 0 0
vn -1 0 0
vn 0 0 1
vn 0 0 1
vn 0 0 1
vn 0 0 1
vn 0 -1 0
vn 0 -1 0
vn 0 -1 0
vn 0 -1 0
vn 0 0 1
vn 0 0 1
vn 0 0 1
vn 0 0 1
vn 0 0 1
vn -1 0 0
vn -1 0 0
vn -1 0 0
vn -1 0 0
vn 0 0 1
vn 0 0 1
vn 0 0 1
vn 0 0 1
vn 0 0 1

vt -7.152557E-07 4.768372E-07
vt 6.000001 8
vt 5.999999 -4.768372E-07
vt 7.152557E-07 8
vt 1 0
vt 0 0
vt 1 4
vt 0 4
vt 1 0
vt 0 0
vt 1 4
vt 0 4
vt 4 4
vt 4 0
vt 0 4
vt 0 0
vt 4 1
vt 4 0
vt 0 1
vt 0 0
vt 2.001381 7.999655
vt 2 3.999655
vt 0.001381099 8.000345
vt 1.998619 -0.0003452301
vt -0.00138104 0.0003454685
vt 13.99862 -0.002416611
vt -0.001380444 0.002417088
vt 14.00138 7.997583
vt 0.001381397 8.002417
vt 0.9999993 0
vt -7.152557E-07 0
vt 1.000001 8
vt 0 4
vt 6.854534E-07 8

g Wall-detach_931_47
usemtl Wall-detach_931_47
usemap Wall-detach_931_47
f 1/1/1 3/3/3 2/2/2
f 1/1/1 2/2/2 4/4/4
f 5/5/5 7/7/7 6/6/6
f 6/6/6 7/7/7 8/8/8
f 9/9/9 11/11/11 10/10/10
f 10/10/10 11/11/11 12/12/12
f 13/13/13 15/15/15 14/14/14
f 14/14/14 15/15/15 16/16/16
f 17/17/17 19/19/19 18/18/18
f 18/18/18 19/19/19 20/20/20
f 21/21/21 23/23/23 22/22/22
f 24/24/24 23/23/23 25/25/25
f 22/22/22 23/23/23 24/24/24
f 26/26/26 28/28/28 27/27/27
f 27/27/27 28/28/28 29/29/29
f 30/30/30 32/32/32 31/31/31
f 31/31/31 32/32/32 33/33/33
f 33/33/33 32/32/32 34/34/34
