#Wall-detach_659_44.obj

v 58 4 0
v 59 4 4
v 58 4 4
v 59 4 1
v 58 3 -12
v 59 3 -6
v 58 3 -6
v 59 3 -12
v 58 6 -18
v 59 6 -12
v 58 6 -12
v 59 6 -18
v 59 1 -12
v 65 1 -12
v 59 1 -6
v 65 1 -6
v 65 1 0
v 58 1 0
v 59 1 -6
v 65 1 -6
v 58 1 -6

vn 0 1 0
vn 0 1 0
vn 0 1 0
vn 0 1 0
vn 0 1 0
vn 0 1 0
vn 0 1 0
vn 0 1 0
vn 0 1 0
vn 0 1 0
vn 0 1 0
vn 0 1 0
vn 0 1 0
vn 0 1 0
vn 0 1 0
vn 0 1 0
vn 0 1 0
vn 0 1 0
vn 0 1 0
vn 0 1 0
vn 0 1 0

vt 1 0
vt 0 4
vt 1 4
vt 0 1
vt 1 0
vt 0 6
vt 1 6
vt 0 0
vt 1 0
vt 0 6
vt 1 6
vt 0 0
vt 6 0
vt 0 0
vt 6 6
vt 0 6
vt 0 6
vt 7 6
vt 6 0
vt 0 0
vt 7 0

g Wall-detach_659_44
usemtl Wall-detach_659_44
usemap Wall-detach_659_44
f 1/1/1 3/3/3 2/2/2
f 1/1/1 2/2/2 4/4/4
f 5/5/5 7/7/7 6/6/6
f 5/5/5 6/6/6 8/8/8
f 9/9/9 11/11/11 10/10/10
f 9/9/9 10/10/10 12/12/12
f 13/13/13 15/15/15 14/14/14
f 14/14/14 15/15/15 16/16/16
f 17/17/17 19/19/19 18/18/18
f 20/20/20 19/19/19 17/17/17
f 18/18/18 19/19/19 21/21/21
