#Wall_577_11.obj

v -3 2 2
v -3 2 29
v -3 3 29
v -3 3 2
v -2 2 2
v -3 2 2
v -3 3 2
v -2 3 2
v -2 2 1
v -2 2 2
v -2 3 2
v -2 3 1
v -1 2 1
v -2 2 1
v -2 3 1
v -1 3 1
v -1 2 0
v -1 2 1
v -1 3 1
v -1 3 0
v 0 2 0
v -1 2 0
v -1 3 0
v 0 3 0
v 0 2 -1
v 0 2 0
v 0 3 0
v 0 3 -1
v 1 2 -1
v 0 2 -1
v 0 3 -1
v 1 3 -1
v 1 2 -2
v 1 2 -1
v 1 3 -1
v 1 3 -2
v 5 2 -1
v 4 2 -1
v 4 3 -1
v 5 3 -1
v 5 2 -2
v 5 2 -1
v 5 3 -1
v 5 3 -2
v 5 2 32
v 5 2 33
v 5 3 33
v 5 3 32
v 4 2 32
v 5 2 32
v 5 3 32
v 4 3 32
v 0 2 32
v 1 2 32
v 1 3 32
v 0 3 32
v 0 2 31
v 0 2 32
v 0 3 32
v 0 3 31
v -1 2 31
v 0 2 31
v 0 3 31
v -1 3 31
v -1 2 30
v -1 2 31
v -1 3 31
v -1 3 30
v -2 2 30
v -1 2 30
v -1 3 30
v -2 3 30
v -2 2 29
v -2 2 30
v -2 3 30
v -2 3 29
v -3 2 29
v -2 2 29
v -2 3 29
v -3 3 29
v 4 2 -2
v 1 2 -2
v 1 3 -2
v 4 3 -2
v 4 2 -1
v 4 2 -2
v 4 3 -2
v 4 3 -1
v 1 2 33
v 4 2 33
v 4 3 33
v 1 3 33
v 4 2 33
v 4 2 32
v 4 3 32
v 4 3 33
v 1 2 32
v 1 2 33
v 1 3 33
v 1 3 32
v -3 -2 2
v -2 -2 2
v -2 -4 2
v -3 -4 2
v -2 -2 2
v -2 -2 1
v -2 -4 1
v -2 -4 2
v -2 -2 1
v -1 -2 1
v -1 -4 1
v -2 -4 1
v -1 -2 1
v -1 -2 0
v -1 -4 0
v -1 -4 1
v -1 -2 0
v 0 -2 0
v 0 -4 0
v -1 -4 0
v 0 -2 0
v 0 -2 -1
v 0 -4 -1
v 0 -4 0
v 0 -2 -1
v 1 -2 -1
v 1 -4 -1
v 0 -4 -1
v 1 -2 -1
v 1 -2 -2
v 1 -4 -2
v 1 -4 -1
v 1 -2 -2
v 4 -2 -2
v 4 -4 -2
v 1 -4 -2
v 4 -2 -2
v 4 -2 -1
v 4 -4 -1
v 4 -4 -2
v 4 -2 -1
v 5 -2 -1
v 5 -4 -1
v 4 -4 -1
v 5 -2 -1
v 5 -2 -2
v 5 -4 -2
v 5 -4 -1
v 0 -2 31
v -1 -2 31
v -1 -4 31
v 0 -4 31
v 0 -2 32
v 0 -2 31
v 0 -4 31
v 0 -4 32
v 1 -2 33
v 1 -2 32
v 1 -4 32
v 1 -4 33
v 1 -2 32
v 0 -2 32
v 0 -4 32
v 1 -4 32
v 4 -2 33
v 1 -2 33
v 1 -4 33
v 4 -4 33
v 4 -2 32
v 4 -2 33
v 4 -4 33
v 4 -4 32
v 5 -2 32
v 4 -2 32
v 4 -4 32
v 5 -4 32
v 5 -2 33
v 5 -2 32
v 5 -4 32
v 5 -4 33
v -3 -2 29
v -3 -2 2
v -3 -4 2
v -3 -4 29
v -1 -2 31
v -1 -2 30
v -1 -4 30
v -1 -4 31
v -1 -2 30
v -2 -2 30
v -2 -4 30
v -1 -4 30
v -2 -2 30
v -2 -2 29
v -2 -4 29
v -2 -4 30
v -2 -2 29
v -3 -2 29
v -3 -4 29
v -2 -4 29

vn 1 0 0
vn 1 0 0
vn 1 0 0
vn 1 0 0
vn 0 0 1
vn 0 0 1
vn 0 0 1
vn 0 0 1
vn 1 0 0
vn 1 0 0
vn 1 0 0
vn 1 0 0
vn 0 0 1
vn 0 0 1
vn 0 0 1
vn 0 0 1
vn 1 0 0
vn 1 0 0
vn 1 0 0
vn 1 0 0
vn 0 0 1
vn 0 0 1
vn 0 0 1
vn 0 0 1
vn 1 0 0
vn 1 0 0
vn 1 0 0
vn 1 0 0
vn 0 0 1
vn 0 0 1
vn 0 0 1
vn 0 0 1
vn 1 0 0
vn 1 0 0
vn 1 0 0
vn 1 0 0
vn 0 0 1
vn 0 0 1
vn 0 0 1
vn 0 0 1
vn 1 0 0
vn 1 0 0
vn 1 0 0
vn 1 0 0
vn 1 0 0
vn 1 0 0
vn 1 0 0
vn 1 0 0
vn 0 0 -1
vn 0 0 -1
vn 0 0 -1
vn 0 0 -1
vn 0 0 -1
vn 0 0 -1
vn 0 0 -1
vn 0 0 -1
vn 1 0 0
vn 1 0 0
vn 1 0 0
vn 1 0 0
vn 0 0 -1
vn 0 0 -1
vn 0 0 -1
vn 0 0 -1
vn 1 0 0
vn 1 0 0
vn 1 0 0
vn 1 0 0
vn 0 0 -1
vn 0 0 -1
vn 0 0 -1
vn 0 0 -1
vn 1 0 0
vn 1 0 0
vn 1 0 0
vn 1 0 0
vn 0 0 -1
vn 0 0 -1
vn 0 0 -1
vn 0 0 -1
vn 0 0 1
vn 0 0 1
vn 0 0 1
vn 0 0 1
vn -1 0 0
vn -1 0 0
vn -1 0 0
vn -1 0 0
vn 0 0 -1
vn 0 0 -1
vn 0 0 -1
vn 0 0 -1
vn -1 0 0
vn -1 0 0
vn -1 0 0
vn -1 0 0
vn 1 0 0
vn 1 0 0
vn 1 0 0
vn 1 0 0
vn 0 0 1
vn 0 0 1
vn 0 0 1
vn 0 0 1
vn 1 0 0
vn 1 0 0
vn 1 0 0
vn 1 0 0
vn 0 0 1
vn 0 0 1
vn 0 0 1
vn 0 0 1
vn 1 0 0
vn 1 0 0
vn 1 0 0
vn 1 0 0
vn 0 0 1
vn 0 0 1
vn 0 0 1
vn 0 0 1
vn 1 0 0
vn 1 0 0
vn 1 0 0
vn 1 0 0
vn 0 0 1
vn 0 0 1
vn 0 0 1
vn 0 0 1
vn 1 0 0
vn 1 0 0
vn 1 0 0
vn 1 0 0
vn 0 0 1
vn 0 0 1
vn 0 0 1
vn 0 0 1
vn -1 0 0
vn -1 0 0
vn -1 0 0
vn -1 0 0
vn 0 0 1
vn 0 0 1
vn 0 0 1
vn 0 0 1
vn 1 0 0
vn 1 0 0
vn 1 0 0
vn 1 0 0
vn 0 0 -1
vn 0 0 -1
vn 0 0 -1
vn 0 0 -1
vn 1 0 0
vn 1 0 0
vn 1 0 0
vn 1 0 0
vn 1 0 0
vn 1 0 0
vn 1 0 0
vn 1 0 0
vn 0 0 -1
vn 0 0 -1
vn 0 0 -1
vn 0 0 -1
vn 0 0 -1
vn 0 0 -1
vn 0 0 -1
vn 0 0 -1
vn -1 0 0
vn -1 0 0
vn -1 0 0
vn -1 0 0
vn 0 0 -1
vn 0 0 -1
vn 0 0 -1
vn 0 0 -1
vn 1 0 0
vn 1 0 0
vn 1 0 0
vn 1 0 0
vn 1 0 0
vn 1 0 0
vn 1 0 0
vn 1 0 0
vn 1 0 0
vn 1 0 0
vn 1 0 0
vn 1 0 0
vn 0 0 -1
vn 0 0 -1
vn 0 0 -1
vn 0 0 -1
vn 1 0 0
vn 1 0 0
vn 1 0 0
vn 1 0 0
vn 0 0 -1
vn 0 0 -1
vn 0 0 -1
vn 0 0 -1

vt 31 5
vt 4 5
vt 4 6
vt 31 6
vt 0 5
vt -1 5
vt -1 6
vt 0 6
vt 32 5
vt 31 5
vt 31 6
vt 32 6
vt 1 5
vt 0 5
vt 0 6
vt 1 6
vt 33 5
vt 32 5
vt 32 6
vt 33 6
vt 2 5
vt 1 5
vt 1 6
vt 2 6
vt 34 5
vt 33 5
vt 33 6
vt 34 6
vt 3 5
vt 2 5
vt 2 6
vt 3 6
vt 35 5
vt 34 5
vt 34 6
vt 35 6
vt 7 5
vt 6 5
vt 6 6
vt 7 6
vt 35 5
vt 34 5
vt 34 6
vt 35 6
vt 1 5
vt 0 5
vt 0 6
vt 1 6
vt -6 5
vt -7 5
vt -7 6
vt -6 6
vt -2 5
vt -3 5
vt -3 6
vt -2 6
vt 2 5
vt 1 5
vt 1 6
vt 2 6
vt -1 5
vt -2 5
vt -2 6
vt -1 6
vt 3 5
vt 2 5
vt 2 6
vt 3 6
vt 0 5
vt -1 5
vt -1 6
vt 0 6
vt 4 5
vt 3 5
vt 3 6
vt 4 6
vt 1 5
vt 0 5
vt 0 6
vt 1 6
vt 6 5
vt 3 5
vt 3 6
vt 6 6
vt -34 5
vt -35 5
vt -35 6
vt -34 6
vt -3 5
vt -6 5
vt -6 6
vt -3 6
vt 0 5
vt -1 5
vt -1 6
vt 0 6
vt 1 5
vt 0 5
vt 0 6
vt 1 6
vt -1 1
vt 0 1
vt 0 -1
vt -1 -1
vt 31 1
vt 32 1
vt 32 -1
vt 31 -1
vt 0 1
vt 1 1
vt 1 -1
vt 0 -1
vt 32 1
vt 33 1
vt 33 -1
vt 32 -1
vt 1 1
vt 2 1
vt 2 -1
vt 1 -1
vt 33 1
vt 34 1
vt 34 -1
vt 33 -1
vt 2 1
vt 3 1
vt 3 -1
vt 2 -1
vt 34 1
vt 35 1
vt 35 -1
vt 34 -1
vt 3 1
vt 6 1
vt 6 -1
vt 3 -1
vt -35 1
vt -34 1
vt -34 -1
vt -35 -1
vt 6 1
vt 7 1
vt 7 -1
vt 6 -1
vt 34 1
vt 35 1
vt 35 -1
vt 34 -1
vt -2 1
vt -1 1
vt -1 -1
vt -2 -1
vt 1 1
vt 2 1
vt 2 -1
vt 1 -1
vt 0 1
vt 1 1
vt 1 -1
vt 0 -1
vt -3 1
vt -2 1
vt -2 -1
vt -3 -1
vt -6 1
vt -3 1
vt -3 -1
vt -6 -1
vt -1 1
vt 0 1
vt 0 -1
vt -1 -1
vt -7 1
vt -6 1
vt -6 -1
vt -7 -1
vt 0 1
vt 1 1
vt 1 -1
vt 0 -1
vt 4 1
vt 31 1
vt 31 -1
vt 4 -1
vt 2 1
vt 3 1
vt 3 -1
vt 2 -1
vt -1 1
vt 0 1
vt 0 -1
vt -1 -1
vt 3 1
vt 4 1
vt 4 -1
vt 3 -1
vt 0 1
vt 1 1
vt 1 -1
vt 0 -1

g Wall_577_11
usemtl Wall_577_11
usemap Wall_577_11
f 1/1/1 3/3/3 2/2/2
f 4/4/4 3/3/3 1/1/1
f 5/5/5 7/7/7 6/6/6
f 8/8/8 7/7/7 5/5/5
f 9/9/9 11/11/11 10/10/10
f 12/12/12 11/11/11 9/9/9
f 13/13/13 15/15/15 14/14/14
f 16/16/16 15/15/15 13/13/13
f 17/17/17 19/19/19 18/18/18
f 20/20/20 19/19/19 17/17/17
f 21/21/21 23/23/23 22/22/22
f 24/24/24 23/23/23 21/21/21
f 25/25/25 27/27/27 26/26/26
f 28/28/28 27/27/27 25/25/25
f 29/29/29 31/31/31 30/30/30
f 32/32/32 31/31/31 29/29/29
f 33/33/33 35/35/35 34/34/34
f 36/36/36 35/35/35 33/33/33
f 37/37/37 39/39/39 38/38/38
f 40/40/40 39/39/39 37/37/37
f 41/41/41 43/43/43 42/42/42
f 44/44/44 43/43/43 41/41/41
f 45/45/45 47/47/47 46/46/46
f 48/48/48 47/47/47 45/45/45
f 49/49/49 51/51/51 50/50/50
f 52/52/52 51/51/51 49/49/49
f 53/53/53 55/55/55 54/54/54
f 56/56/56 55/55/55 53/53/53
f 57/57/57 59/59/59 58/58/58
f 60/60/60 59/59/59 57/57/57
f 61/61/61 63/63/63 62/62/62
f 64/64/64 63/63/63 61/61/61
f 65/65/65 67/67/67 66/66/66
f 68/68/68 67/67/67 65/65/65
f 69/69/69 71/71/71 70/70/70
f 72/72/72 71/71/71 69/69/69
f 73/73/73 75/75/75 74/74/74
f 76/76/76 75/75/75 73/73/73
f 77/77/77 79/79/79 78/78/78
f 80/80/80 79/79/79 77/77/77
f 81/81/81 83/83/83 82/82/82
f 84/84/84 83/83/83 81/81/81
f 85/85/85 87/87/87 86/86/86
f 88/88/88 87/87/87 85/85/85
f 89/89/89 91/91/91 90/90/90
f 92/92/92 91/91/91 89/89/89
f 93/93/93 95/95/95 94/94/94
f 96/96/96 95/95/95 93/93/93
f 97/97/97 99/99/99 98/98/98
f 100/100/100 99/99/99 97/97/97
f 101/101/101 103/103/103 102/102/102
f 104/104/104 103/103/103 101/101/101
f 105/105/105 107/107/107 106/106/106
f 108/108/108 107/107/107 105/105/105
f 109/109/109 111/111/111 110/110/110
f 112/112/112 111/111/111 109/109/109
f 113/113/113 115/115/115 114/114/114
f 116/116/116 115/115/115 113/113/113
f 117/117/117 119/119/119 118/118/118
f 120/120/120 119/119/119 117/117/117
f 121/121/121 123/123/123 122/122/122
f 124/124/124 123/123/123 121/121/121
f 125/125/125 127/127/127 126/126/126
f 128/128/128 127/127/127 125/125/125
f 129/129/129 131/131/131 130/130/130
f 132/132/132 131/131/131 129/129/129
f 133/133/133 135/135/135 134/134/134
f 136/136/136 135/135/135 133/133/133
f 137/137/137 139/139/139 138/138/138
f 140/140/140 139/139/139 137/137/137
f 141/141/141 143/143/143 142/142/142
f 144/144/144 143/143/143 141/141/141
f 145/145/145 147/147/147 146/146/146
f 148/148/148 147/147/147 145/145/145
f 149/149/149 151/151/151 150/150/150
f 152/152/152 151/151/151 149/149/149
f 153/153/153 155/155/155 154/154/154
f 156/156/156 155/155/155 153/153/153
f 157/157/157 159/159/159 158/158/158
f 160/160/160 159/159/159 157/157/157
f 161/161/161 163/163/163 162/162/162
f 164/164/164 163/163/163 161/161/161
f 165/165/165 167/167/167 166/166/166
f 168/168/168 167/167/167 165/165/165
f 169/169/169 171/171/171 170/170/170
f 172/172/172 171/171/171 169/169/169
f 173/173/173 175/175/175 174/174/174
f 176/176/176 175/175/175 173/173/173
f 177/177/177 179/179/179 178/178/178
f 180/180/180 179/179/179 177/177/177
f 181/181/181 183/183/183 182/182/182
f 184/184/184 183/183/183 181/181/181
f 185/185/185 187/187/187 186/186/186
f 188/188/188 187/187/187 185/185/185
f 189/189/189 191/191/191 190/190/190
f 192/192/192 191/191/191 189/189/189
f 193/193/193 195/195/195 194/194/194
f 196/196/196 195/195/195 193/193/193
f 197/197/197 199/199/199 198/198/198
f 200/200/200 199/199/199 197/197/197
