#Wall-detach_849_43.obj

v -10 2 16
v -12 2 12
v -12 2 16
v -10 2 12
v -10 4 16
v -10 2 12
v -10 2 16
v -10 4 12
v 6 4 16
v -10 4 16
v -10 -3 16
v 6 -3 16
v -10 4 3
v -10 0 10
v -10 4 9
v -10 0 3
v -10 4 9
v -10 2 12
v -10 4 12
v -10 0 10
v -10 -1 12
v -10 -1 11
v -12 2 12
v -10 2 12
v -10 -1 12
v -12 -2 12
v -10 2 16
v -12 2 16
v -12 -3 16
v -10 -3 16

vn 0 -1 0
vn 0 -1 0
vn 0 -1 0
vn 0 -1 0
vn 1 0 0
vn 1 0 0
vn 1 0 0
vn 1 0 0
vn 0 0 -1
vn 0 0 -1
vn 0 0 -1
vn 0 0 -1
vn 1 0 0
vn 1 0 0
vn 1 0 0
vn 1 0 0
vn 1 0 0
vn 1 0 0
vn 1 0 0
vn 1 0 0
vn 1 0 0
vn 1 0 0
vn 0 0 1
vn 0 0 1
vn 0 0 1
vn 0 0 1
vn 0 0 -1
vn 0 0 -1
vn 0 0 -1
vn 0 0 -1

vt 2 4
vt 0 0
vt 0 4
vt 2 0
vt 0 2
vt 4 0
vt 0 0
vt 4 2
vt 0 7
vt 16 7
vt 16 0
vt 0 0
vt 7 4
vt 0 0
vt 1 4
vt 7 0
vt 3 5
vt 0 3
vt 0 5
vt 2 1
vt 0 0
vt 1 0
vt 0 4
vt 2 4
vt 2 1
vt 0 0
vt 0 5
vt 2 5
vt 2 0
vt 0 0

g Wall-detach_849_43
usemtl Wall-detach_849_43
usemap Wall-detach_849_43
f 1/1/1 3/3/3 2/2/2
f 1/1/1 2/2/2 4/4/4
f 5/5/5 7/7/7 6/6/6
f 5/5/5 6/6/6 8/8/8
f 9/9/9 11/11/11 10/10/10
f 9/9/9 12/12/12 11/11/11
f 13/13/13 15/15/15 14/14/14
f 13/13/13 14/14/14 16/16/16
f 17/17/17 19/19/19 18/18/18
f 18/18/18 20/20/20 17/17/17
f 18/18/18 21/21/21 20/20/20
f 20/20/20 21/21/21 22/22/22
f 23/23/23 25/25/25 24/24/24
f 26/26/26 25/25/25 23/23/23
f 27/27/27 29/29/29 28/28/28
f 30/30/30 29/29/29 27/27/27
