#Wall_690_69.obj

v 12 0 26
v 12 2 22
v 12 0 22
v 12 2 26
v 12 3 26
v 12 4 22
v 12 3 22
v 12 4 26
v 23 0 26
v 12 2 26
v 12 0 26
v 23 2 26
v 23 3 26
v 12 4 26
v 12 3 26
v 23 4 26
v 23 0 22
v 23 2 26
v 23 0 26
v 23 2 22
v 23 3 22
v 23 4 26
v 23 3 26
v 23 4 22

vn 1 0 0
vn 1 0 0
vn 1 0 0
vn 1 0 0
vn 1 0 0
vn 1 0 0
vn 1 0 0
vn 1 0 0
vn 0 0 -1
vn 0 0 -1
vn 0 0 -1
vn 0 0 -1
vn 0 0 -1
vn 0 0 -1
vn 0 0 -1
vn 0 0 -1
vn -1 0 0
vn -1 0 0
vn -1 0 0
vn -1 0 0
vn -1 0 0
vn -1 0 0
vn -1 0 0
vn -1 0 0

vt 0 0
vt 4 2
vt 4 0
vt 0 2
vt 0 0
vt 4 1
vt 4 0
vt 0 1
vt 0 0
vt 11 2
vt 11 0
vt 0 2
vt 0 0
vt 11 1
vt 11 0
vt 0 1
vt 0 0
vt 4 2
vt 4 0
vt 0 2
vt 0 0
vt 4 1
vt 4 0
vt 0 1

g Wall_690_69
usemtl Wall_690_69
usemap Wall_690_69
f 1/1/1 3/3/3 2/2/2
f 1/1/1 2/2/2 4/4/4
f 5/5/5 7/7/7 6/6/6
f 5/5/5 6/6/6 8/8/8
f 9/9/9 11/11/11 10/10/10
f 9/9/9 10/10/10 12/12/12
f 13/13/13 15/15/15 14/14/14
f 13/13/13 14/14/14 16/16/16
f 17/17/17 19/19/19 18/18/18
f 17/17/17 18/18/18 20/20/20
f 21/21/21 23/23/23 22/22/22
f 21/21/21 22/22/22 24/24/24
