#Wall_690_68.obj

v 19 0 -2
v 18 0 -2
v 19 2 -2
v 18 2 -2
v 19 2 -3
v 19 0 -3
v 19 2 -2
v 19 0 -2
v 18 0 -3
v 18 2 -3
v 18 0 -2
v 18 2 -2
v 18 2 -3
v 19 2 -3
v 18 2 -2
v 19 2 -2

vn 0 0 1
vn 0 0 1
vn 0 0 1
vn 0 0 1
vn 1 0 0
vn 1 0 0
vn 1 0 0
vn 1 0 0
vn -1 0 0
vn -1 0 0
vn -1 0 0
vn -1 0 0
vn 0 1 0
vn 0 1 0
vn 0 1 0
vn 0 1 0

vt 1 0
vt 0 0
vt 1 2
vt 0 2
vt 1 2
vt 1 0
vt 0 2
vt 0 0
vt 0 0
vt 0 2
vt 1 0
vt 1 2
vt 1 0
vt 0 0
vt 1 1
vt 0 1

g Wall_690_68
usemtl Wall_690_68
usemap Wall_690_68
f 1/1/1 3/3/3 2/2/2
f 2/2/2 3/3/3 4/4/4
f 5/5/5 7/7/7 6/6/6
f 6/6/6 7/7/7 8/8/8
f 9/9/9 11/11/11 10/10/10
f 10/10/10 11/11/11 12/12/12
f 13/13/13 15/15/15 14/14/14
f 14/14/14 15/15/15 16/16/16
