#Wall_700_13.obj

v -7.232321E-07 2 -2
v -1.000001 3 -2
v -1 2 -2
v -7.232321E-07 3 -2
v -7.154938E-08 2 -2.384186E-07
v -7.232321E-07 3 -2
v -7.232321E-07 2 -2
v -7.154938E-08 3 -2.384186E-07
v 4 2 -1.430511E-06
v -7.154938E-08 3 -2.384186E-07
v -7.154938E-08 2 -2.384186E-07
v 4 3 -1.430511E-06
v 3.999999 2 -3.000001
v 4 3 -1.430511E-06
v 4 2 -1.430511E-06
v 3.999999 3 -3.000001
v 4.999999 2 -3.000002
v 3.999999 3 -3.000001
v 3.999999 2 -3.000001
v 4.999999 3 -3.000002
v 5.000002 2 7.999998
v 4.999999 3 -3.000002
v 4.999999 2 -3.000002
v 5.000002 3 7.999998
v 4.000002 2 7.999998
v 5.000002 3 7.999998
v 5.000002 2 7.999998
v 4.000002 3 7.999998
v 4.000001 2 4.999998
v 4.000002 3 7.999998
v 4.000002 2 7.999998
v 4.000001 3 4.999998
v 1.557657E-06 2 5
v 4.000001 3 4.999998
v 4.000001 2 4.999998
v 1.557657E-06 3 5
v 2.20934E-06 2 7
v 1.557657E-06 3 5
v 1.557657E-06 2 5
v 2.20934E-06 3 7
v -0.9999978 2 7
v 2.20934E-06 3 7
v 2.20934E-06 2 7
v -0.9999978 3 7

vn -3.57628E-07 1.192092E-07 -1
vn -3.57628E-07 1.192092E-07 -1
vn -2.384187E-07 2.384184E-07 -1
vn -4.768372E-07 0 -1
vn 1 0 -3.258414E-07
vn 1 0 -3.258414E-07
vn 1 0 -3.258414E-07
vn 1 0 -3.258414E-07
vn -3.258414E-07 0 -1
vn -3.258414E-07 0 -1
vn -3.258414E-07 0 -1
vn -3.258414E-07 0 -1
vn -1 0 3.178914E-07
vn -1 0 3.178914E-07
vn -1 0 3.178914E-07
vn -1 0 3.178914E-07
vn -2.384186E-07 0 -1
vn -2.384186E-07 0 -1
vn -2.384186E-07 0 -1
vn -2.384186E-07 0 -1
vn 1 0 -3.034418E-07
vn 1 0 -3.034418E-07
vn 1 0 -3.034418E-07
vn 1 0 -3.034418E-07
vn 4.768372E-07 0 1
vn 4.768372E-07 0 1
vn 4.768372E-07 0 1
vn 4.768372E-07 0 1
vn -1 0 3.178914E-07
vn -1 0 3.178914E-07
vn -1 0 3.178914E-07
vn -1 0 3.178914E-07
vn 3.576279E-07 0 1
vn 3.576279E-07 0 1
vn 3.576279E-07 0 1
vn 3.576279E-07 0 1
vn 1 0 -3.258414E-07
vn 1 0 -3.258414E-07
vn 1 0 -3.258414E-07
vn 1 0 -3.258414E-07
vn 0 0 1
vn 0 0 1
vn 0 0 1
vn 0 0 1

vt 0 0
vt 1 1
vt 0.9999993 0
vt 0 1
vt -5.960464E-08 0
vt 2 1
vt 2 0
vt -5.960464E-08 1
vt 0 0
vt 4 1
vt 4 0
vt 0 1
vt 0 0
vt 3 1
vt 3 0
vt 0 1
vt 0 0
vt 1 1
vt 1 0
vt 0 1
vt 0 0
vt 11 1
vt 11 0
vt 0 1
vt 0 0
vt 1 1
vt 1 0
vt 0 1
vt 0 0
vt 3 1
vt 3 0
vt 0 1
vt 0 0
vt 4 1
vt 4 0
vt 0 1
vt 0 0
vt 2 1
vt 2 0
vt 0 1
vt 0 0
vt 1 1
vt 1 0
vt 0 1

g Wall_700_13
usemtl Wall_700_13
usemap Wall_700_13
f 1/1/1 3/3/3 2/2/2
f 1/1/1 2/2/2 4/4/4
f 5/5/5 7/7/7 6/6/6
f 5/5/5 6/6/6 8/8/8
f 9/9/9 11/11/11 10/10/10
f 9/9/9 10/10/10 12/12/12
f 13/13/13 15/15/15 14/14/14
f 13/13/13 14/14/14 16/16/16
f 17/17/17 19/19/19 18/18/18
f 17/17/17 18/18/18 20/20/20
f 21/21/21 23/23/23 22/22/22
f 21/21/21 22/22/22 24/24/24
f 25/25/25 27/27/27 26/26/26
f 25/25/25 26/26/26 28/28/28
f 29/29/29 31/31/31 30/30/30
f 29/29/29 30/30/30 32/32/32
f 33/33/33 35/35/35 34/34/34
f 33/33/33 34/34/34 36/36/36
f 37/37/37 39/39/39 38/38/38
f 37/37/37 38/38/38 40/40/40
f 41/41/41 43/43/43 42/42/42
f 41/41/41 42/42/42 44/44/44
