#Wall-detach_665_29.obj

v 0 -6 9
v 8 -6 9
v 0 8 9
v 8 4 9
v 8 8 9
v 8 4 9
v 8 -6 9
v 14 4 9
v 14 -6 9
v 18 6 9
v 14 4 9
v 14 -6 9
v 28 4 9
v 28 -6 9
v 28 6 9

vn 0 0 -1
vn 0 0 -1
vn 0 0 -1
vn 0 0 -1
vn 0 0 -1
vn 0 0 -1
vn 0 0 -1
vn 0 0 -1
vn 0 0 -1
vn 0 0 -0.9999999
vn 0 0 -1
vn 0 0 -1
vn 0 0 -1
vn 0 0 -1
vn 0 0 -1

vt 8 0
vt 0 0
vt 8 14
vt 0 10
vt 0 14
vt 6 10
vt 6 0
vt 0 10
vt 0 0
vt 10 12
vt 14 10
vt 14 0
vt 0 10
vt 0 0
vt 0 12

g Wall-detach_665_29
usemtl Wall-detach_665_29
usemap Wall-detach_665_29
f 1/1/1 3/3/3 2/2/2
f 2/2/2 3/3/3 4/4/4
f 4/4/4 3/3/3 5/5/5
f 6/6/6 8/8/8 7/7/7
f 7/7/7 8/8/8 9/9/9
f 10/10/10 12/12/12 11/11/11
f 10/10/10 13/13/13 12/12/12
f 12/12/12 13/13/13 14/14/14
f 15/15/15 13/13/13 10/10/10
