#Wall-detach_741_64.obj

v 18 5 55
v 14 -7 55
v 14 5 55
v 18 -7 55
v 18 5 53
v 18 -7 55
v 18 5 55
v 18 -7 53
v 26 5 53
v 18 -7 53
v 18 5 53
v 26 -7 53
v 26 5 55
v 26 -7 53
v 26 5 53
v 26 -7 55
v 28 5 55
v 26 -7 55
v 26 5 55
v 28 -7 55
v 23 5 64
v 33 -7 64
v 33 5 64
v 23 -7 64
v 23 5 62
v 23 -7 64
v 23 5 64
v 23 -7 62
v 11 5 62
v 23 -7 62
v 23 5 62
v 11 -7 62

vn 0 0 1
vn 0 0 1
vn 0 0 1
vn 0 0 1
vn 1 0 0
vn 1 0 0
vn 1 0 0
vn 1 0 0
vn 0 0 1
vn 0 0 1
vn 0 0 1
vn 0 0 1
vn -1 0 0
vn -1 0 0
vn -1 0 0
vn -1 0 0
vn 0 0 1
vn 0 0 1
vn 0 0 1
vn 0 0 1
vn 0 0 -1
vn 0 0 -1
vn 0 0 -1
vn 0 0 -1
vn 1 0 0
vn 1 0 0
vn 1 0 0
vn 1 0 0
vn 0 0 -1
vn 0 0 -1
vn 0 0 -1
vn 0 0 -1

vt 4 12
vt 0 0
vt 0 12
vt 4 0
vt 2 12
vt 0 0
vt 0 12
vt 2 0
vt 8 12
vt 0 0
vt 0 12
vt 8 0
vt 2 12
vt 0 0
vt 0 12
vt 2 0
vt 2 12
vt 0 0
vt 0 12
vt 2 0
vt 10 12
vt 0 0
vt 0 12
vt 10 0
vt 2 12
vt 0 0
vt 0 12
vt 2 0
vt 12 12
vt 0 0
vt 0 12
vt 12 0

g Wall-detach_741_64
usemtl Wall-detach_741_64
usemap Wall-detach_741_64
f 1/1/1 3/3/3 2/2/2
f 1/1/1 2/2/2 4/4/4
f 5/5/5 7/7/7 6/6/6
f 5/5/5 6/6/6 8/8/8
f 9/9/9 11/11/11 10/10/10
f 9/9/9 10/10/10 12/12/12
f 13/13/13 15/15/15 14/14/14
f 13/13/13 14/14/14 16/16/16
f 17/17/17 19/19/19 18/18/18
f 17/17/17 18/18/18 20/20/20
f 21/21/21 23/23/23 22/22/22
f 21/21/21 22/22/22 24/24/24
f 25/25/25 27/27/27 26/26/26
f 25/25/25 26/26/26 28/28/28
f 29/29/29 31/31/31 30/30/30
f 29/29/29 30/30/30 32/32/32
