#Wall-detach_895_65.obj

v 3 8 -34
v 3 -6 -71
v 3 8 -71
v 3 -6 -34
v 2 8 -34
v 3 -6 -34
v 3 8 -34
v 2 -6 -34
v -6 8 -29
v -3 5 -29
v -3 8 -29
v -6 5 -29
v -15 8 -34
v -11 -6 -34
v -11 8 -34
v -15 -6 -34
v -11 -6 -29
v -6 -6 -29
v -11 8 -29
v -6 5 -29
v -6 8 -29
v -11 -6 -34
v -11 -6 -29
v -11 8 -29
v -11 8 -34
v -3 8 -29
v -3 5 -29
v 2 8 -29
v -3 -6 -29
v 2 -6 -29
v 2 -6 -34
v 2 8 -34
v 2 8 -29
v 2 -6 -29

vn -1 0 0
vn -1 0 0
vn -1 0 0
vn -1 0 0
vn 0 0 -1
vn 0 0 -1
vn 0 0 -1
vn 0 0 -1
vn 0 0 -1
vn 0 0 -1
vn 0 0 -1
vn 0 0 -1
vn 0 0 -1
vn 0 0 -1
vn 0 0 -1
vn 0 0 -1
vn 0 0 -1
vn 0 0 -1
vn 0 0 -1
vn 0 0 -1
vn 0 0 -1
vn 1 0 0
vn 1 0 0
vn 1 0 0
vn 1 0 0
vn 0 0 -1
vn 0 0 -1
vn 0 0 -1
vn 0 0 -1
vn 0 0 -1
vn -1 0 0
vn -1 0 0
vn -1 0 0
vn -1 0 0

vt 36.99758 14.00638
vt 0.002416611 -0.006382942
vt -0.002414703 13.99362
vt 37.00241 0.006383896
vt 1.000001 14
vt -1.251698E-06 0
vt 1.221895E-06 14
vt 0.9999988 0
vt 3 3
vt 0 0
vt 0 3
vt 3 0
vt 4.000001 14
vt -1.192093E-06 4.768372E-07
vt 1.192093E-06 14
vt 3.999999 -4.768372E-07
vt 4.997583 -0.0008625984
vt -0.002416611 0.0008635521
vt 5.002417 13.99914
vt 0.001381159 11.00086
vt 0.002417088 14.00086
vt 4.997583 -0.0008625984
vt -0.002416611 0.0008635521
vt 0.002417088 14.00086
vt 5.002417 13.99914
vt 5.002417 13.99914
vt 5.001381 10.99914
vt 0.002417088 14.00086
vt 4.997583 -0.0008625984
vt -0.002416611 0.0008635521
vt -0.002416611 0.0008635521
vt 0.002417088 14.00086
vt 5.002417 13.99914
vt 4.997583 -0.0008625984

g Wall-detach_895_65
usemtl Wall-detach_895_65
usemap Wall-detach_895_65
f 1/1/1 3/3/3 2/2/2
f 1/1/1 2/2/2 4/4/4
f 5/5/5 7/7/7 6/6/6
f 5/5/5 6/6/6 8/8/8
f 9/9/9 11/11/11 10/10/10
f 9/9/9 10/10/10 12/12/12
f 13/13/13 15/15/15 14/14/14
f 13/13/13 14/14/14 16/16/16
f 17/17/17 19/19/19 18/18/18
f 18/18/18 19/19/19 20/20/20
f 20/20/20 19/19/19 21/21/21
f 22/22/22 24/24/24 23/23/23
f 25/25/25 24/24/24 22/22/22
f 26/26/26 28/28/28 27/27/27
f 29/29/29 28/28/28 30/30/30
f 27/27/27 28/28/28 29/29/29
f 31/31/31 33/33/33 32/32/32
f 34/34/34 33/33/33 31/31/31
