#Wall-detach_699_42.obj

v 32 -7 10
v 32 4 10
v 32 6 13
v 32 4 10
v 32 4 9
v 32 6 13
v 32 4 10
v 32 -7 10
v 28 4 10
v 32 -7 10
v 14 4 10
v 18 6 10
v -1 -7 10
v -1 8 10
v 8 8 10
v 8 4 10
v 14 4 10
v 32 -7 10
v 18 6 10
v 28 4 10
v 32 -7 10
v 18 6 10
v 28 6 10
v 28 4 10

vn -1 0 0
vn -1 0 0
vn -1 0 0
vn -1 0 0
vn -1 0 0
vn -1 0 0
vn 0 0 1
vn 0 0 1
vn 0 0 1
vn 0 0 1
vn 0 0 1
vn 0 0 1
vn 0 0 1
vn 0 0 1
vn 0 0 1
vn 0 0 1
vn 0 0 1
vn 0 0 1
vn 0 0 1
vn 0 0 1
vn 0 0 1
vn 0 0 1
vn 0 0 1
vn 0 0 1

vt 0 0
vt 0 11
vt 3 13
vt 1 0
vt 0 0
vt 4 2
vt 4 11
vt 4 0
vt 0 11
vt 18 0
vt 0 11
vt 4 13
vt 0 0
vt 0 15
vt 9 15
vt 9 11
vt 15 11
vt 33 0
vt 0 13
vt 10 11
vt 14 0
vt 0 2
vt 10 2
vt 10 0

g Wall-detach_699_42
usemtl Wall-detach_699_42
usemap Wall-detach_699_42
f 1/1/1 3/3/3 2/2/2
f 4/4/4 6/6/6 5/5/5
f 7/7/7 9/9/9 8/8/8
f 10/10/10 12/12/12 11/11/11
f 13/13/13 15/15/15 14/14/14
f 13/13/13 16/16/16 15/15/15
f 17/17/17 16/16/16 18/18/18
f 18/18/18 16/16/16 13/13/13
f 19/19/19 21/21/21 20/20/20
f 22/22/22 24/24/24 23/23/23
