#Wall-detach_825_64.obj

v -27 4 9
v -27 2 5
v -27 4 5
v -27 2 9
v -27 4 4
v -27 4 5
v -27 2 5
v -27 -3 4
v -27 -3 5
v -27 4 10
v -27 2 9
v -27 4 9
v -27 -3 10
v -27 -3 9
v -25 2 9
v -27 2 5
v -27 2 9
v -25 2 5
v -25 2 5
v -27 -3 5
v -27 2 5
v -25 -3 5
v -25 -3 9
v -27 2 9
v -27 -3 9
v -25 2 9
v -25 3 9
v -25 2 5
v -25 2 9
v -25 3 5
v -25 3 4
v -25 2 5
v -25 3 5
v -25 -3 4
v -25 -3 5
v -25 3 9
v -25 2 9
v -25 3 10
v -25 -3 10
v -25 -3 9
v -18 3 9
v -18 2 5
v -18 3 5
v -18 2 9
v -18 3 4
v -18 3 5
v -18 2 5
v -18 -3 4
v -18 -3 5
v -25 -3 4
v -25 3 4
v -18 -3 4
v -18 3 4
v -18 3 10
v -18 2 9
v -18 3 9
v -18 -3 10
v -18 -3 9
v -18 3 10
v -25 3 10
v -18 -3 10
v -25 -3 10

vn -1 0 0
vn -1 0 0
vn -1 0 0
vn -1 0 0
vn -1 0 0
vn -1 0 0
vn -1 0 0
vn -1 0 0
vn -1 0 0
vn -1 0 0
vn -1 0 0
vn -1 0 0
vn -1 0 0
vn -1 0 0
vn 0 -1 0
vn 0 -1 0
vn 0 -1 0
vn 0 -1 0
vn 0 0 1
vn 0 0 1
vn 0 0 1
vn 0 0 1
vn 0 0 -1
vn 0 0 -1
vn 0 0 -1
vn 0 0 -1
vn 1 0 0
vn 1 0 0
vn 1 0 0
vn 1 0 0
vn 1 0 0
vn 1 0 0
vn 1 0 0
vn 1 0 0
vn 1 0 0
vn 1 0 0
vn 1 0 0
vn 1 0 0
vn 1 0 0
vn 1 0 0
vn -1 0 0
vn -1 0 0
vn -1 0 0
vn -1 0 0
vn -1 0 0
vn -1 0 0
vn -1 0 0
vn -1 0 0
vn -1 0 0
vn 0 0 1
vn 0 0 1
vn 0 0 1
vn 0 0 1
vn -1 0 0
vn -1 0 0
vn -1 0 0
vn -1 0 0
vn -1 0 0
vn 0 0 -1
vn 0 0 -1
vn 0 0 -1
vn 0 0 -1

vt 4 2
vt 0 0
vt 0 2
vt 4 0
vt 0 7
vt 1 7
vt 1 5
vt 0 0
vt 1 0
vt 1 7
vt 0 5
vt 0 7
vt 1 0
vt 0 0
vt 2 4
vt 0 0
vt 0 4
vt 2 0
vt 2 5
vt 0 0
vt 0 5
vt 2 0
vt 0 0
vt 2 5
vt 2 0
vt 0 5
vt 0 1
vt 4 0
vt 0 0
vt 4 1
vt 1 6
vt 0 5
vt 0 6
vt 1 0
vt 0 0
vt 1 6
vt 1 5
vt 0 6
vt 0 0
vt 1 0
vt 4 1
vt 0 0
vt 0 1
vt 4 0
vt 0 6
vt 1 6
vt 1 5
vt 0 0
vt 1 0
vt 0 0
vt 0 6
vt 7 0
vt 7 6
vt 1 6
vt 0 5
vt 0 6
vt 1 0
vt 0 0
vt 0 6
vt 7 6
vt 0 0
vt 7 0

g Wall-detach_825_64
usemtl Wall-detach_825_64
usemap Wall-detach_825_64
f 1/1/1 3/3/3 2/2/2
f 1/1/1 2/2/2 4/4/4
f 5/5/5 7/7/7 6/6/6
f 5/5/5 8/8/8 7/7/7
f 7/7/7 8/8/8 9/9/9
f 10/10/10 12/12/12 11/11/11
f 11/11/11 13/13/13 10/10/10
f 14/14/14 13/13/13 11/11/11
f 15/15/15 17/17/17 16/16/16
f 15/15/15 16/16/16 18/18/18
f 19/19/19 21/21/21 20/20/20
f 19/19/19 20/20/20 22/22/22
f 23/23/23 25/25/25 24/24/24
f 23/23/23 24/24/24 26/26/26
f 27/27/27 29/29/29 28/28/28
f 27/27/27 28/28/28 30/30/30
f 31/31/31 33/33/33 32/32/32
f 32/32/32 34/34/34 31/31/31
f 35/35/35 34/34/34 32/32/32
f 36/36/36 38/38/38 37/37/37
f 38/38/38 39/39/39 37/37/37
f 37/37/37 39/39/39 40/40/40
f 41/41/41 43/43/43 42/42/42
f 41/41/41 42/42/42 44/44/44
f 45/45/45 47/47/47 46/46/46
f 45/45/45 48/48/48 47/47/47
f 47/47/47 48/48/48 49/49/49
f 50/50/50 52/52/52 51/51/51
f 51/51/51 52/52/52 53/53/53
f 54/54/54 56/56/56 55/55/55
f 55/55/55 57/57/57 54/54/54
f 58/58/58 57/57/57 55/55/55
f 59/59/59 61/61/61 60/60/60
f 60/60/60 61/61/61 62/62/62
