#Wall_735_52.obj

v -19 -1 66
v -6 -1 63
v -19 -1 63
v -3 -1 66
v -27 3 63
v -30 3 60
v -30 3 66
v -27 3 66
v -27 3 60
v -27 3 66
v -19 -1 66
v -19 -1 63
v -27 3 63

vn 0 -1 0
vn 0 -1 0
vn 0 -1 0
vn 0 -1 0
vn 0 -1 0
vn 0 -1 0
vn 0 -1 0
vn 0 -1 0
vn 0 -1 0
vn -0.4472136 -0.8944272 0
vn -0.4472136 -0.8944272 0
vn -0.4472136 -0.8944272 0
vn -0.4472136 -0.8944272 0

vt 0 3
vt 13 0
vt 0 0
vt 16 3
vt 3 3
vt 0 0
vt 0 6
vt 3 6
vt 3 0
vt 0 3
vt 8.944271 3
vt 8.944271 0
vt 0 0

g Wall_735_52
usemtl Wall_735_52
usemap Wall_735_52
f 1/1/1 3/3/3 2/2/2
f 1/1/1 2/2/2 4/4/4
f 5/5/5 7/7/7 6/6/6
f 5/5/5 8/8/8 7/7/7
f 5/5/5 6/6/6 9/9/9
f 10/10/10 12/12/12 11/11/11
f 13/13/13 12/12/12 10/10/10
