#Wall_794_0.obj

v 0 0 0
v -1 0 0
v 0 3 0
v -1 3 0
v -1 0 0
v -1 0 -1
v -1 3 0
v -1 3 -1
v -1 0 -1
v 0 0 -1
v -1 3 -1
v 0 3 -1
v 0 0 -1
v 0 0 0
v 0 3 -1
v 0 3 0
v -34 0 0
v -35 0 0
v -34 3 0
v -35 3 0
v -35 0 0
v -35 0 -1
v -35 3 0
v -35 3 -1
v -35 0 -1
v -34 0 -1
v -35 3 -1
v -34 3 -1
v -34 0 -1
v -34 0 0
v -34 3 -1
v -34 3 0
v -31 3 -74
v -31 0 -4
v -31 0 -74
v -31 3 -4
v -31 3 -4
v -4 0 -4
v -31 0 -4
v -4 3 -4
v -4 3 -4
v -4 0 -57
v -4 0 -4
v -4 3 -57
v -35 3 0
v -4 3 -4
v -31 3 -4
v 0 3 0
v -35 4 0
v 0 3 0
v -35 3 0
v 0 4 0
v -31 3 -74
v -35 3 0
v -31 3 -4
v -35 3 -74
v -35 4 -74
v -35 3 0
v -35 3 -74
v -35 4 0
v -35 -7 0
v -35 0 -74
v -35 0 0
v -35 -7 -74
v 0 -7 0
v -35 0 0
v 0 0 0
v -35 -7 0
v 0 -7 -57
v 0 0 0
v 0 0 -57
v 0 -7 0
v 0 3 -57
v -4 3 -4
v 0 3 0
v -4 3 -57
v 0 4 0
v 0 3 -57
v 0 3 0
v 0 4 -57
v -4 3 -57
v 0 3 -57
v 13 -7 -57
v -4 -7 -57
v 13 4 -57
v 0 4 -57
v 13 4 8
v 13 -7 -57
v 13 4 -57
v 13 -7 8
v -47 4 8
v 13 -7 8
v 13 4 8
v -47 -7 8
v -47 4 -74
v -47 -7 8
v -47 4 8
v -47 -7 -74
v -35 3 -74
v -47 4 -74
v -35 4 -74
v -47 -7 -74
v -31 -7 -74
v -31 3 -74

vn 0 0 1
vn 0 0 1
vn 0 0 1
vn 0 0 1
vn -1 0 0
vn -1 0 0
vn -1 0 0
vn -1 0 0
vn 0 0 -1
vn 0 0 -1
vn 0 0 -1
vn 0 0 -1
vn 1 0 0
vn 1 0 0
vn 1 0 0
vn 1 0 0
vn 0 0 1
vn 0 0 1
vn 0 0 1
vn 0 0 1
vn -1 0 0
vn -1 0 0
vn -1 0 0
vn -1 0 0
vn 0 0 -1
vn 0 0 -1
vn 0 0 -1
vn 0 0 -1
vn 1 0 0
vn 1 0 0
vn 1 0 0
vn 1 0 0
vn -1 0 0
vn -1 0 0
vn -1 0 0
vn -1 0 0
vn 0 0 1
vn 0 0 1
vn 0 0 1
vn 0 0 1
vn 0.9999999 0 0
vn 0.9999999 0 0
vn 0.9999999 0 0
vn 0.9999999 0 0
vn 0 -1 0
vn 0 -1 0
vn 0 -1 0
vn 0 -1 0
vn 0 0 1
vn 0 0 1
vn 0 0 1
vn 0 0 1
vn 0 -1 0
vn 0 -1 0
vn 0 -1 0
vn 0 -1 0
vn -1 0 0
vn -1 0 0
vn -1 0 0
vn -1 0 0
vn -1 0 0
vn -1 0 0
vn -1 0 0
vn -1 0 0
vn 0 0 0.9999999
vn 0 0 0.9999999
vn 0 0 0.9999999
vn 0 0 0.9999999
vn 1 0 0
vn 1 0 0
vn 1 0 0
vn 1 0 0
vn 0 -0.9999999 0
vn 0 -0.9999999 0
vn 0 -1 0
vn 0 -1 0
vn 1 0 0
vn 1 0 0
vn 1 0 0
vn 1 0 0
vn 0 0 1
vn 0 0 1
vn 0 0 1
vn 0 0 1
vn 0 0 1
vn 0 0 1
vn -1 0 0
vn -1 0 0
vn -1 0 0
vn -1 0 0
vn 0 0 -0.9999999
vn 0 0 -0.9999999
vn 0 0 -0.9999999
vn 0 0 -0.9999999
vn 1 0 0
vn 1 0 0
vn 1 0 0
vn 1 0 0
vn 0 0 1
vn 0 0 1
vn 0 0 1
vn 0 0 1
vn 0 0 0.9999999
vn 0 0 1

vt 1 0
vt 0 0
vt 1 3
vt 0 3
vt 1 0
vt 0 0
vt 1 3
vt 0 3
vt 1 0
vt 0 0
vt 1 3
vt 0 3
vt 1 0
vt 0 0
vt 1 3
vt 0 3
vt 1 0
vt 0 0
vt 1 3
vt 0 3
vt 1 0
vt 0 0
vt 1 3
vt 0 3
vt 1 0
vt 0 0
vt 1 3
vt 0 3
vt 1 0
vt 0 0
vt 1 3
vt 0 3
vt 0 3
vt 70 0
vt 0 0
vt 70 3
vt 0 3
vt 27 0
vt 0 0
vt 27 3
vt 0 3
vt 53 0
vt 0 0
vt 53 3
vt 0 4
vt 31 0
vt 4 0
vt 35 4
vt 0 1
vt 35 0
vt 0 0
vt 35 1
vt 4 0
vt 0 74
vt 4 70
vt 0 0
vt 0 1
vt 74 0
vt 0 0
vt 74 1
vt 74 0
vt 0 7
vt 74 7
vt 0 0
vt 35 0
vt 0 7
vt 35 7
vt 0 0
vt 57 0
vt 0 7
vt 57 7
vt 0 0
vt 4 0
vt 0 53
vt 4 57
vt 0 0
vt 0 1
vt 57 0
vt 0 0
vt 57 1
vt 0 10
vt 4 10
vt 17 0
vt 0 0
vt 17 11
vt 4 11
vt 65 11
vt 0 0
vt 0 11
vt 65 0
vt 60 11
vt 0 0
vt 0 11
vt 60 0
vt 82 11
vt 0 0
vt 0 11
vt 82 0
vt 12 10
vt 0 11
vt 12 11
vt 0 0
vt 16 0
vt 16 10

g Wall_794_0
usemtl Wall_794_0
usemap Wall_794_0
f 1/1/1 3/3/3 2/2/2
f 2/2/2 3/3/3 4/4/4
f 5/5/5 7/7/7 6/6/6
f 6/6/6 7/7/7 8/8/8
f 9/9/9 11/11/11 10/10/10
f 10/10/10 11/11/11 12/12/12
f 13/13/13 15/15/15 14/14/14
f 14/14/14 15/15/15 16/16/16
f 17/17/17 19/19/19 18/18/18
f 18/18/18 19/19/19 20/20/20
f 21/21/21 23/23/23 22/22/22
f 22/22/22 23/23/23 24/24/24
f 25/25/25 27/27/27 26/26/26
f 26/26/26 27/27/27 28/28/28
f 29/29/29 31/31/31 30/30/30
f 30/30/30 31/31/31 32/32/32
f 33/33/33 35/35/35 34/34/34
f 33/33/33 34/34/34 36/36/36
f 37/37/37 39/39/39 38/38/38
f 37/37/37 38/38/38 40/40/40
f 41/41/41 43/43/43 42/42/42
f 41/41/41 42/42/42 44/44/44
f 45/45/45 47/47/47 46/46/46
f 45/45/45 46/46/46 48/48/48
f 49/49/49 51/51/51 50/50/50
f 49/49/49 50/50/50 52/52/52
f 53/53/53 55/55/55 54/54/54
f 53/53/53 54/54/54 56/56/56
f 57/57/57 59/59/59 58/58/58
f 57/57/57 58/58/58 60/60/60
f 61/61/61 63/63/63 62/62/62
f 61/61/61 62/62/62 64/64/64
f 65/65/65 67/67/67 66/66/66
f 65/65/65 66/66/66 68/68/68
f 69/69/69 71/71/71 70/70/70
f 69/69/69 70/70/70 72/72/72
f 73/73/73 75/75/75 74/74/74
f 73/73/73 74/74/74 76/76/76
f 77/77/77 79/79/79 78/78/78
f 77/77/77 78/78/78 80/80/80
f 81/81/81 83/83/83 82/82/82
f 84/84/84 83/83/83 81/81/81
f 82/82/82 83/83/83 85/85/85
f 85/85/85 86/86/86 82/82/82
f 87/87/87 89/89/89 88/88/88
f 87/87/87 88/88/88 90/90/90
f 91/91/91 93/93/93 92/92/92
f 91/91/91 92/92/92 94/94/94
f 95/95/95 97/97/97 96/96/96
f 95/95/95 96/96/96 98/98/98
f 99/99/99 101/101/101 100/100/100
f 102/102/102 103/103/103 100/100/100
f 100/100/100 103/103/103 99/99/99
f 99/99/99 103/103/103 104/104/104
