#Wall-detach_681_16.obj

v 50 0 9
v 50 6 10
v 50 5 12
v 50 6 9
v 50 0 10
v 50 5 16
v 50 5 16
v 50 6 18
v 50 -1.5 18
v 50 0 10
v 50 -1.5 10

vn -1 0 0
vn -1 0 0
vn -1 0 0
vn -1 0 0
vn -1 0 0
vn -1 0 0
vn -1 0 0
vn -1 0 0
vn -1 0 0
vn -0.9999999 0 0
vn -1 0 0

vt 0 0
vt 1 6
vt 3 5
vt 0 6
vt 1 0
vt 7 5
vt 6 6.5
vt 8 7.5
vt 8 0
vt 0 1.5
vt 0 0

g Wall-detach_681_16
usemtl Wall-detach_681_16
usemap Wall-detach_681_16
f 1/1/1 3/3/3 2/2/2
f 2/2/2 4/4/4 1/1/1
f 1/1/1 5/5/5 3/3/3
f 3/3/3 5/5/5 6/6/6
f 7/7/7 9/9/9 8/8/8
f 7/7/7 10/10/10 9/9/9
f 10/10/10 11/11/11 9/9/9
