#Wall-detach_769_46.obj

v -24 5 43
v -2 -7 43
v -2 5 43
v -24 -7 43
v -24 5 49
v -24 -7 43
v -24 5 43
v -24 -7 49
v -20 5 49
v -20 5 52
v -20 2 52
v -20 -7 49
v -20 -7 52
v -24 -7 49
v -24 5 49
v -20 -7 49
v -20 5 49
v -20 2 52
v -20 5 52
v -20 2 58
v -20 5 58
v -20 0 60
v -20 0 58
v -20 2 58
v -20 5 58
v -20 5 60
v -27 5 60
v -20 0 60
v -20 5 60
v -27 0 60
v -27 2 60
v -30 5 60
v -30 2 60
v -27 5 60
v -30 5 60
v -30 5 37
v -30 0 60
v -30 0 37
v -30 5 37
v -13 5 37
v -30 0 37
v -13 0 37
v -30 2 61
v -27 2 60
v -30 2 60
v -27 2 61
v -27 0 61
v -27 2 60
v -27 2 61
v -27 0 60
v -19 2 58
v -20 2 52
v -20 2 58
v -19 2 52
v -20 0 58
v -19 2 58
v -20 2 58
v -19 0 58
v -19 -7 52
v -20 2 52
v -19 2 52
v -20 -7 52

vn 0 0 -1
vn 0 0 -1
vn 0 0 -1
vn 0 0 -1
vn -1 0 0
vn -1 0 0
vn -1 0 0
vn -1 0 0
vn -1 0 0
vn -1 0 0
vn -1 0 0
vn -1 0 0
vn -1 0 0
vn 0 0 1
vn 0 0 1
vn 0 0 1
vn 0 0 1
vn -1 0 0
vn -1 0 0
vn -1 0 0
vn -1 0 0
vn -1 0 0
vn -1 0 0
vn -1 0 0
vn -1 0 0
vn -1 0 0
vn 0 0 -1
vn 0 0 -1
vn 0 0 -1
vn 0 0 -1
vn 0 0 -1
vn 0 0 -1
vn 0 0 -1
vn 0 0 -1
vn 0.9999999 0 0
vn 0.9999999 0 0
vn 0.9999999 0 0
vn 0.9999999 0 0
vn 0 0 1
vn 0 0 1
vn 0 0 1
vn 0 0 1
vn 0 -1 0
vn 0 -1 0
vn 0 -1 0
vn 0 -1 0
vn -1 0 0
vn -1 0 0
vn -1 0 0
vn -1 0 0
vn 0 -1 0
vn 0 -1 0
vn 0 -1 0
vn 0 -1 0
vn 0 0 -1
vn 0 0 -1
vn 0 0 -1
vn 0 0 -1
vn 0 0 1
vn 0 0 1
vn 0 0 1
vn 0 0 1

vt 22 12
vt 0 0
vt 0 12
vt 22 0
vt 6 12
vt 0 0
vt 0 12
vt 6 0
vt 0 12
vt 3 12
vt 3 9
vt 0 0
vt 3 0
vt 0 0
vt 0 12
vt 4 0
vt 4 12
vt 0 0
vt 0 3
vt 6 0
vt 6 3
vt 2 0
vt 0 0
vt 0 2
vt 0 5
vt 2 5
vt 7 5
vt 0 0
vt 0 5
vt 7 0
vt 0 0
vt 3 3
vt 3 0
vt 0 3
vt 0 5
vt 23 5
vt 0 0
vt 23 0
vt 0 5
vt 17 5
vt 0 0
vt 17 0
vt 0 1
vt 3 0
vt 0 0
vt 3 1
vt 1 0
vt 0 2
vt 1 2
vt 0 0
vt 1 6
vt 0 0
vt 0 6
vt 1 0
vt 1 0
vt 0 2
vt 1 2
vt 0 0
vt 1 0
vt 0 9
vt 1 9
vt 0 0

g Wall-detach_769_46
usemtl Wall-detach_769_46
usemap Wall-detach_769_46
f 1/1/1 3/3/3 2/2/2
f 1/1/1 2/2/2 4/4/4
f 5/5/5 7/7/7 6/6/6
f 5/5/5 6/6/6 8/8/8
f 9/9/9 11/11/11 10/10/10
f 9/9/9 12/12/12 11/11/11
f 11/11/11 12/12/12 13/13/13
f 14/14/14 16/16/16 15/15/15
f 15/15/15 16/16/16 17/17/17
f 18/18/18 20/20/20 19/19/19
f 19/19/19 20/20/20 21/21/21
f 22/22/22 24/24/24 23/23/23
f 25/25/25 24/24/24 26/26/26
f 26/26/26 24/24/24 22/22/22
f 27/27/27 29/29/29 28/28/28
f 27/27/27 28/28/28 30/30/30
f 31/31/31 33/33/33 32/32/32
f 31/31/31 32/32/32 34/34/34
f 35/35/35 37/37/37 36/36/36
f 37/37/37 38/38/38 36/36/36
f 39/39/39 41/41/41 40/40/40
f 40/40/40 41/41/41 42/42/42
f 43/43/43 45/45/45 44/44/44
f 43/43/43 44/44/44 46/46/46
f 47/47/47 49/49/49 48/48/48
f 47/47/47 48/48/48 50/50/50
f 51/51/51 53/53/53 52/52/52
f 51/51/51 52/52/52 54/54/54
f 55/55/55 57/57/57 56/56/56
f 55/55/55 56/56/56 58/58/58
f 59/59/59 61/61/61 60/60/60
f 59/59/59 60/60/60 62/62/62
