#Wall-detach_1268_94.obj

v 51 -3 -12
v 54 -7 -12
v 54 -3 -12
v 51 -7 -12
v 51 -7 -12
v 51 -3 -12
v 51 -7 -11
v 51 -3 -11
v 47 -7 -11
v 47 -3 -11
v 47 -7 -12
v 47 -3 -12
v 51 -3 -12
v 47 2 -12
v 47 -3 -12
v 51 2 -12
v 54 -3 -12
v 51 2 -12
v 51 -3 -12
v 54 2 -12
v 38 -7 -12
v 47 -7 -12
v 38 2 -12
v 47 -3 -12
v 47 2 -12
v 37 -2 -27
v 38 1 -27
v 38 -2 -27
v 37 1 -27
v 37 -2 -15
v 38 -2 -27
v 38 -2 -15
v 37 -2 -27
v 38 1 -15
v 37 -2 -15
v 38 -2 -15
v 37 1 -15
v 38 1 -15
v 38 2 -27
v 38 1 -27
v 38 2 -15
v 38 2 -12
v 38 -7 -15
v 38 -7 -12
v 38 -7 -28
v 38 -2 -15
v 38 2 -28
v 38 -2 -27
v 47 -3 -11
v 51 -3 -12
v 47 -3 -12
v 51 -3 -11

vn 0 0 -1
vn 0 0 -1
vn 0 0 -1
vn 0 0 -1
vn -1 0 0
vn -1 0 0
vn -1 0 0
vn -1 0 0
vn 1 0 0
vn 1 0 0
vn 1 0 0
vn 1 0 0
vn 0 0 -1
vn 0 0 -1
vn 0 0 -1
vn 0 0 -1
vn 0 0 -1
vn 0 0 -1
vn 0 0 -1
vn 0 0 -1
vn 0 0 -1
vn 0 0 -1
vn 0 0 -1
vn 0 0 -1
vn 0 0 -1
vn 0 0 1
vn 0 0 1
vn 0 0 1
vn 0 0 1
vn 0 1 0
vn 0 1 0
vn 0 1 0
vn 0 1 0
vn 0 0 -1
vn 0 0 -1
vn 0 0 -1
vn 0 0 -1
vn 1 0 0
vn 1 0 0
vn 1 0 0
vn 1 0 0
vn 1 0 0
vn 1 0 0
vn 1 0 0
vn 1 0 0
vn 1 0 0
vn 1 0 0
vn 1 0 0
vn 0 -1 0
vn 0 -1 0
vn 0 -1 0
vn 0 -1 0

vt 3 4
vt 0 0
vt 0 4
vt 3 0
vt 0 0
vt 0 4
vt 1 0
vt 1 4
vt 0 0
vt 0 4
vt 1 0
vt 1 4
vt 0 0
vt 4 5
vt 4 0
vt 0 5
vt 0 0
vt 3 5
vt 3 0
vt 0 5
vt 9 0
vt 0 0
vt 9 9
vt 0 4
vt 0 9
vt 0 0
vt 1 3
vt 1 0
vt 0 3
vt 1 12
vt 0 0
vt 0 12
vt 1 0
vt 0 3
vt 1 0
vt 0 0
vt 1 3
vt 3 8
vt 15 9
vt 15 8
vt 3 9
vt 0 9
vt 3 0
vt 0 0
vt 16 0
vt 3 5
vt 16 9
vt 15 5
vt 0 1
vt 4 0
vt 0 0
vt 4 1

g Wall-detach_1268_94
usemtl Wall-detach_1268_94
usemap Wall-detach_1268_94
f 1/1/1 3/3/3 2/2/2
f 1/1/1 2/2/2 4/4/4
f 5/5/5 7/7/7 6/6/6
f 6/6/6 7/7/7 8/8/8
f 9/9/9 11/11/11 10/10/10
f 11/11/11 12/12/12 10/10/10
f 13/13/13 15/15/15 14/14/14
f 13/13/13 14/14/14 16/16/16
f 17/17/17 19/19/19 18/18/18
f 17/17/17 18/18/18 20/20/20
f 21/21/21 23/23/23 22/22/22
f 22/22/22 23/23/23 24/24/24
f 24/24/24 23/23/23 25/25/25
f 26/26/26 28/28/28 27/27/27
f 26/26/26 27/27/27 29/29/29
f 30/30/30 32/32/32 31/31/31
f 30/30/30 31/31/31 33/33/33
f 34/34/34 36/36/36 35/35/35
f 34/34/34 35/35/35 37/37/37
f 38/38/38 40/40/40 39/39/39
f 38/38/38 39/39/39 41/41/41
f 42/42/42 38/38/38 41/41/41
f 43/43/43 38/38/38 44/44/44
f 44/44/44 38/38/38 42/42/42
f 45/45/45 46/46/46 43/43/43
f 40/40/40 48/48/48 47/47/47
f 39/39/39 40/40/40 47/47/47
f 48/48/48 45/45/45 47/47/47
f 48/48/48 46/46/46 45/45/45
f 49/49/49 51/51/51 50/50/50
f 49/49/49 50/50/50 52/52/52
