#Wall-detach_1228_83.obj

v -3 -2 14
v 1 1 14
v 1 -2 14
v -3 1 14
v 7 -2 14
v 7 1 24
v 7 -2 24
v 7 1 14
v 4 -2 14
v 7 1 14
v 7 -2 14
v 4 1 14
v 1 -2 28
v 1 1 28
v 1 1 34
v 1 -2 34
v -3 1 14
v -3 -2 14
v -3 1 34
v -3 -2 34
v 7 -2 24
v 7 1 24
v 19 -2 24
v 19 1 24
v 1 1 28
v 1 -2 28
v 19 -2 28
v 19 1 28

vn 0 0 1
vn 0 0 1
vn 0 0 1
vn 0 0 1
vn -1 0 0
vn -1 0 0
vn -1 0 0
vn -1 0 0
vn 0 0 1
vn 0 0 1
vn 0 0 1
vn 0 0 1
vn -1 0 0
vn -1 0 0
vn -1 0 0
vn -1 0 0
vn 1 0 0
vn 1 0 0
vn 1 0 0
vn 1 0 0
vn 0 0 1
vn 0 0 1
vn 0 0 1
vn 0 0 1
vn 0 0 -1
vn 0 0 -1
vn 0 0 -1
vn 0 0 -1

vt 0 0
vt 4 3
vt 4 0
vt 0 3
vt 0 0
vt 10 3
vt 10 0
vt 0 3
vt 0 0
vt 3 3
vt 3 0
vt 0 3
vt 0 0
vt 0 3
vt 6 3
vt 6 0
vt 21 3
vt 21 0
vt 1 3
vt 1 0
vt 0 0
vt 0 3
vt 12 0
vt 12 3
vt 19 3
vt 19 0
vt 1 0
vt 1 3

g Wall-detach_1228_83
usemtl Wall-detach_1228_83
usemap Wall-detach_1228_83
f 1/1/1 3/3/3 2/2/2
f 1/1/1 2/2/2 4/4/4
f 5/5/5 7/7/7 6/6/6
f 5/5/5 6/6/6 8/8/8
f 9/9/9 11/11/11 10/10/10
f 9/9/9 10/10/10 12/12/12
f 13/13/13 15/15/15 14/14/14
f 13/13/13 16/16/16 15/15/15
f 17/17/17 19/19/19 18/18/18
f 18/18/18 19/19/19 20/20/20
f 21/21/21 23/23/23 22/22/22
f 22/22/22 23/23/23 24/24/24
f 25/25/25 27/27/27 26/26/26
f 28/28/28 27/27/27 25/25/25
