#Wall-detach_1301_101.obj

v -3 2 36
v 1 2 36
v 1 1 36
v -3 1 36
v -7 1 36
v -7 2 36
v -3 -2 36
v -7 -2 36
v 21 2 36
v 21 -2 36
v 1 -2 36

vn 0 0 1
vn 0 0 1
vn 0 0 1
vn 0 0 1
vn 0 0 1
vn 0 0 1
vn 0 0 1
vn 0 0 1
vn 0 0 1
vn 0 0 1
vn 0 0 1

vt 4 9
vt 8 9
vt 8 8
vt 4 8
vt 0 8
vt 0 9
vt 4 5
vt 0 5
vt 28 9
vt 28 5
vt 8 5

g Wall-detach_1301_101
usemtl Wall-detach_1301_101
usemap Wall-detach_1301_101
f 1/1/1 3/3/3 2/2/2
f 4/4/4 3/3/3 1/1/1
f 5/5/5 4/4/4 6/6/6
f 6/6/6 4/4/4 1/1/1
f 7/7/7 4/4/4 8/8/8
f 8/8/8 4/4/4 5/5/5
f 2/2/2 3/3/3 9/9/9
f 9/9/9 3/3/3 10/10/10
f 10/10/10 3/3/3 11/11/11
