#Wall-detach_737_49.obj

v 4 5 37
v -7 -7 37
v -7 5 37
v 4 -7 37
v 4 5 52
v -7 5 52
v -7 -7 52
v 4 -7 52
v 4 -7 37
v 4 5 37
v 4 -7 52
v 4 5 52
v -2 5 43
v -2 -7 46
v -2 5 46
v -2 -7 43

vn 0 0 1
vn 0 0 1
vn 0 0 1
vn 0 0 1
vn 0 0 -1
vn 0 0 -1
vn 0 0 -1
vn 0 0 -1
vn -1 0 0
vn -1 0 0
vn -1 0 0
vn -1 0 0
vn 1 0 0
vn 1 0 0
vn 1 0 0
vn 1 0 0

vt 11 12
vt 0 0
vt 0 12
vt 11 0
vt 0 12
vt 11 12
vt 11 0
vt 0 0
vt 0 0
vt 0 12
vt 15 0
vt 15 12
vt 3 12
vt 0 0
vt 0 12
vt 3 0

g Wall-detach_737_49
usemtl Wall-detach_737_49
usemap Wall-detach_737_49
f 1/1/1 3/3/3 2/2/2
f 1/1/1 2/2/2 4/4/4
f 5/5/5 7/7/7 6/6/6
f 5/5/5 8/8/8 7/7/7
f 9/9/9 11/11/11 10/10/10
f 10/10/10 11/11/11 12/12/12
f 13/13/13 15/15/15 14/14/14
f 13/13/13 14/14/14 16/16/16
