#Wall-detach_719_62.obj

v 6 2 20
v 0 3 20
v 0 2 20
v 6 3 20
v 6 2 22
v 6 3 20
v 6 2 20
v 6 3 22
v 11 2 22
v 6 3 22
v 6 2 22
v 11 3 22
v 12 2 22
v 11 3 22
v 11 2 22
v 12 3 22

vn 0 0 -1
vn 0 0 -1
vn 0 0 -1
vn 0 0 -1
vn 1 0 0
vn 1 0 0
vn 1 0 0
vn 1 0 0
vn 0 0 -1
vn 0 0 -1
vn 0 0 -1
vn 0 0 -1
vn 0 0 -1
vn 0 0 -1
vn 0 0 -1
vn 0 0 -1

vt 0 0
vt 6 1
vt 6 0
vt 0 1
vt 0 0
vt 2 1
vt 2 0
vt 0 1
vt 0 0
vt 5 1
vt 5 0
vt 0 1
vt 0 0
vt 1 1
vt 1 0
vt 0 1

g Wall-detach_719_62
usemtl Wall-detach_719_62
usemap Wall-detach_719_62
f 1/1/1 3/3/3 2/2/2
f 1/1/1 2/2/2 4/4/4
f 5/5/5 7/7/7 6/6/6
f 5/5/5 6/6/6 8/8/8
f 9/9/9 11/11/11 10/10/10
f 9/9/9 10/10/10 12/12/12
f 13/13/13 15/15/15 14/14/14
f 13/13/13 14/14/14 16/16/16
