#Wall_579_19.obj

v 3 4 0
v -3 4 0
v 3 4 -6
v -3 4 -6
v -3 -1 -6
v 3 -1 -6
v -3 1 -6
v 3 1 -6
v 3 -1 -6
v 3 -1 0
v 3 1 0
v 3 1 -6
v -3 -1 0
v -3 -1 -6
v -3 1 0
v -3 1 -6
v 3 -1 0
v -3 -1 0
v 3 1 0
v -3 1 0
v 3 4 -6
v -3 4 -6
v 3 3 -6
v -3 3 -6
v -3 4 -6
v -3 4 0
v -3 3 0
v -3 3 -6
v 3 4 0
v 3 4 -6
v 3 3 0
v 3 3 -6
v -3 4 0
v 3 4 0
v -3 3 0
v 3 3 0

vn 0 1 0
vn 0 1 0
vn 0 1 0
vn 0 1 0
vn 0 0 -1
vn 0 0 -1
vn 0 0 -1
vn 0 0 -1
vn 1 0 0
vn 1 0 0
vn 1 0 0
vn 1 0 0
vn -1 0 0
vn -1 0 0
vn -1 0 0
vn -1 0 0
vn 0 0 1
vn 0 0 1
vn 0 0 1
vn 0 0 1
vn 0 0 -1
vn 0 0 -1
vn 0 0 -1
vn 0 0 -1
vn -1 0 0
vn -1 0 0
vn -1 0 0
vn -1 0 0
vn 1 0 0
vn 1 0 0
vn 1 0 0
vn 1 0 0
vn 0 0 1
vn 0 0 1
vn 0 0 1
vn 0 0 1

vt -13 23
vt -7 23
vt -13 17
vt -7 17
vt -7 -3.5
vt -13 -3.5
vt -7 -1.5
vt -13 -1.5
vt -17 -3.5
vt -23 -3.5
vt -23 -1.5
vt -17 -1.5
vt 23 -3.5
vt 17 -3.5
vt 23 -1.5
vt 17 -1.5
vt 13 -3.5
vt 7 -3.5
vt 13 -1.5
vt 7 -1.5
vt -13 4
vt -7 4
vt -13 3
vt -7 3
vt 17 4
vt 23 4
vt 23 3
vt 17 3
vt -23 4
vt -17 4
vt -23 3
vt -17 3
vt 7 4
vt 13 4
vt 7 3
vt 13 3

g Wall_579_19
usemtl Wall_579_19
usemap Wall_579_19
f 1/1/1 3/3/3 2/2/2
f 2/2/2 3/3/3 4/4/4
f 5/5/5 7/7/7 6/6/6
f 6/6/6 7/7/7 8/8/8
f 9/9/9 11/11/11 10/10/10
f 12/12/12 11/11/11 9/9/9
f 13/13/13 15/15/15 14/14/14
f 14/14/14 15/15/15 16/16/16
f 17/17/17 19/19/19 18/18/18
f 18/18/18 19/19/19 20/20/20
f 21/21/21 23/23/23 22/22/22
f 22/22/22 23/23/23 24/24/24
f 25/25/25 27/27/27 26/26/26
f 28/28/28 27/27/27 25/25/25
f 29/29/29 31/31/31 30/30/30
f 30/30/30 31/31/31 32/32/32
f 33/33/33 35/35/35 34/34/34
f 34/34/34 35/35/35 36/36/36
