#Wall-detach_660_37.obj

v 32 4 9
v 28 4 10
v 28 4 9
v 32 4 10
v 33 4 9
v 32 6 13
v 32 4 9
v 33 6 13
v 33 6 18
v 32 6 13
v 33 6 13
v 32 6 20

vn 0 1 0
vn 0 1 0
vn 0 1 0
vn 0 1 0
vn 0 0.8944272 -0.4472136
vn 0 0.8944272 -0.4472136
vn 0 0.8944272 -0.4472136
vn 0 0.8944272 -0.4472136
vn 0 1 0
vn 0 1 0
vn 0 1 0
vn 0 1 0

vt 0 0
vt 4 1
vt 4 0
vt 0 1
vt 0 0
vt 1 4.472136
vt 1 0
vt 0 4.472136
vt 0 5
vt 1 0
vt 0 0
vt 1 7

g Wall-detach_660_37
usemtl Wall-detach_660_37
usemap Wall-detach_660_37
f 1/1/1 3/3/3 2/2/2
f 1/1/1 2/2/2 4/4/4
f 5/5/5 7/7/7 6/6/6
f 5/5/5 6/6/6 8/8/8
f 9/9/9 11/11/11 10/10/10
f 9/9/9 10/10/10 12/12/12
