#Wall-detach_1250_46.obj

v 40 -7 37
v 40 -7 38
v 40 -3 38
v 40 -3 37
v 44 -3 37
v 44 -3 38
v 44 -7 38
v 44 -7 37
v 44 -2 38
v 57 -2 38
v 44 -7 38
v 57 -7 38
v 66 -2 44
v 44 -2 44
v 44 -7 44
v 66 -7 44
v 40 -3 44
v 40 -7 44
v 40 -3 45
v 40 -7 45
v 44 -7 45
v 44 -3 44
v 44 -3 45
v 44 -7 44
v 38 -7 44
v 40 -7 44
v 38 -3 44
v 40 -3 44
v 38 -2 44
v 40 -2 44
v 44 -3 44
v 44 -2 44
v 40 -2 44
v 40 -3 44
v 38 -3 38
v 40 -3 38
v 40 -7 38
v 38 -7 38
v 38 -2 38
v 40 -2 38
v 44 -3 38
v 40 -3 38
v 40 -2 38
v 44 -2 38

vn 1 0 0
vn 1 0 0
vn 1 0 0
vn 1 0 0
vn -1 0 0
vn -1 0 0
vn -1 0 0
vn -1 0 0
vn 0 0 1
vn 0 0 1
vn 0 0 1
vn 0 0 1
vn 0 0 -0.9999999
vn 0 0 -0.9999999
vn 0 0 -0.9999999
vn 0 0 -0.9999999
vn 1 0 0
vn 1 0 0
vn 1 0 0
vn 1 0 0
vn -1 0 0
vn -1 0 0
vn -1 0 0
vn -1 0 0
vn 0 0 -1
vn 0 0 -1
vn 0 0 -1
vn 0 0 -1
vn 0 0 -1
vn 0 0 -1
vn 0 0 -1
vn 0 0 -1
vn 0 0 -1
vn 0 0 -1
vn 0 0 1
vn 0 0 1
vn 0 0 1
vn 0 0 1
vn 0 0 1
vn 0 0 1
vn 0 0 1
vn 0 0 1
vn 0 0 1
vn 0 0 1

vt 1 0
vt 0 0
vt 0 4
vt 1 4
vt 0 4
vt 1 4
vt 1 0
vt 0 0
vt 0 5
vt 13 5
vt 0 0
vt 13 0
vt 0 5
vt 22 5
vt 22 0
vt 0 0
vt 1 4
vt 1 0
vt 0 4
vt 0 0
vt 1 0
vt 0 4
vt 1 4
vt 0 0
vt 2 0
vt 0 0
vt 2 4
vt 0 4
vt 2 5
vt 0 5
vt 0 0
vt 0 1
vt 4 1
vt 4 0
vt 0 4
vt 2 4
vt 2 0
vt 0 0
vt 0 5
vt 2 5
vt 4 0
vt 0 0
vt 0 1
vt 4 1

g Wall-detach_1250_46
usemtl Wall-detach_1250_46
usemap Wall-detach_1250_46
f 1/1/1 3/3/3 2/2/2
f 4/4/4 3/3/3 1/1/1
f 5/5/5 7/7/7 6/6/6
f 5/5/5 8/8/8 7/7/7
f 9/9/9 11/11/11 10/10/10
f 11/11/11 12/12/12 10/10/10
f 13/13/13 15/15/15 14/14/14
f 13/13/13 16/16/16 15/15/15
f 17/17/17 19/19/19 18/18/18
f 18/18/18 19/19/19 20/20/20
f 21/21/21 23/23/23 22/22/22
f 21/21/21 22/22/22 24/24/24
f 25/25/25 27/27/27 26/26/26
f 26/26/26 27/27/27 28/28/28
f 27/27/27 29/29/29 28/28/28
f 29/29/29 30/30/30 28/28/28
f 31/31/31 33/33/33 32/32/32
f 34/34/34 33/33/33 31/31/31
f 35/35/35 37/37/37 36/36/36
f 35/35/35 38/38/38 37/37/37
f 36/36/36 39/39/39 35/35/35
f 36/36/36 40/40/40 39/39/39
f 41/41/41 43/43/43 42/42/42
f 44/44/44 43/43/43 41/41/41
