#Walls_520_3.obj

v 0 6 -32
v 32 5 -32
v 0 5 -32
v 32 6 -32
v 0 6 8
v 0 5 -32
v 0 5 8
v 0 6 -32
v 32 6 8
v 0 5 8
v 32 5 8
v 0 6 8
v 32 6 -32
v 32 5 8
v 32 5 -32
v 32 6 8

vn 0 0 1
vn 0 0 1
vn 0 0 1
vn 0 0 1
vn 1 0 0
vn 1 0 0
vn 1 0 0
vn 1 0 0
vn 0 0 -1
vn 0 0 -1
vn 0 0 -1
vn 0 0 -1
vn -1 0 0
vn -1 0 0
vn -1 0 0
vn -1 0 0

vt 0 1
vt 32 0
vt 0 0
vt 32 1
vt 0 1
vt 40 0
vt 0 0
vt 40 1
vt 0 1
vt 32 0
vt 0 0
vt 32 1
vt 0 1
vt 40 0
vt 0 0
vt 40 1

g Walls_520_3
usemtl Walls_520_3
usemap Walls_520_3
f 1/1/1 3/3/3 2/2/2
f 1/1/1 2/2/2 4/4/4
f 5/5/5 7/7/7 6/6/6
f 5/5/5 6/6/6 8/8/8
f 9/9/9 11/11/11 10/10/10
f 9/9/9 10/10/10 12/12/12
f 13/13/13 15/15/15 14/14/14
f 13/13/13 14/14/14 16/16/16
