#Wall-detach_753_60.obj

v 4 -7 62
v 4 2 63
v 4 -7 63
v 4 2 62
v 4 2 62
v 3 2 63
v 4 2 63
v 3 2 62
v 3 -7 62
v 3 2 63
v 3 2 62
v 3 -7 63

vn -1 0 0
vn -1 0 0
vn -1 0 0
vn -1 0 0
vn 0 -1 0
vn 0 -1 0
vn 0 -1 0
vn 0 -1 0
vn 1 0 0
vn 1 0 0
vn 1 0 0
vn 1 0 0

vt 0 0
vt 1 9
vt 1 0
vt 0 9
vt 1 0
vt 0 1
vt 1 1
vt 0 0
vt 1 0
vt 0 9
vt 1 9
vt 0 0

g Wall-detach_753_60
usemtl Wall-detach_753_60
usemap Wall-detach_753_60
f 1/1/1 3/3/3 2/2/2
f 1/1/1 2/2/2 4/4/4
f 5/5/5 7/7/7 6/6/6
f 5/5/5 6/6/6 8/8/8
f 9/9/9 11/11/11 10/10/10
f 9/9/9 10/10/10 12/12/12
