#Wall-detach_1301_99.obj

v 17 -1 46
v 17 1 46
v -7 1 46
v -7 -7 46
v 17 -3 46
v 17 -7 46
v -8 1 46
v -7 1 36
v -7 1 46
v -8 1 36
v -7 -7 44
v -7 -3 44
v -8 -7 44
v -8 -3 44
v -7 -3 44
v -7 -3 38
v -8 -3 44
v -8 -3 38
v -7 -3 38
v -7 -7 38
v -8 -3 38
v -8 -7 38
v 1 -7 36
v -3 -7 36
v -3 -2 36
v 1 -2 36
v 21 -7 36
v 21 -2 36
v -7 -7 36
v -7 -2 36
v -7 1 38
v -7 -3 44
v -7 1 44
v -7 -3 38
v -7 -3 38
v -7 1 38
v -7 -7 36
v -7 1 36
v -7 -7 38
v -7 1 46
v -7 1 44
v -7 -7 46
v -7 -3 44
v -7 -7 44

vn 0 0 -1
vn 0 0 -1
vn 0 0 -1
vn 0 0 -1
vn 0 0 -1
vn 0 0 -1
vn 0 1 0
vn 0 1 0
vn 0 1 0
vn 0 1 0
vn 0 0 -1
vn 0 0 -1
vn 0 0 -1
vn 0 0 -1
vn 0 -1 0
vn 0 -1 0
vn 0 -1 0
vn 0 -1 0
vn 0 0 1
vn 0 0 1
vn 0 0 1
vn 0 0 1
vn 0 0 1
vn 0 0 1
vn 0 0 1
vn 0 0 1
vn 0 0 1
vn 0 0 1
vn 0 0 1
vn 0 0 1
vn 1 0 0
vn 1 0 0
vn 1 0 0
vn 1 0 0
vn 1 0 0
vn 1 0 0
vn 1 0 0
vn 1 0 0
vn 1 0 0
vn 1 0 0
vn 1 0 0
vn 1 0 0
vn 1 0 0
vn 1 0 0

vt 0 6
vt 0 8
vt 24 8
vt 24 0
vt 0 4
vt 0 0
vt 1 10
vt 0 0
vt 0 10
vt 1 0
vt 0 0
vt 0 4
vt 1 0
vt 1 4
vt 1 6
vt 1 0
vt 0 6
vt 0 0
vt 1 4
vt 1 0
vt 0 4
vt 0 0
vt 8 0
vt 4 0
vt 4 5
vt 8 5
vt 28 0
vt 28 5
vt 0 0
vt 0 5
vt 6 4
vt 0 0
vt 0 4
vt 6 0
vt 0 4
vt 0 8
vt 2 0
vt 2 8
vt 0 0
vt 0 8
vt 2 8
vt 0 0
vt 2 4
vt 2 0

g Wall-detach_1301_99
usemtl Wall-detach_1301_99
usemap Wall-detach_1301_99
f 1/1/1 3/3/3 2/2/2
f 1/1/1 4/4/4 3/3/3
f 5/5/5 4/4/4 1/1/1
f 6/6/6 4/4/4 5/5/5
f 7/7/7 9/9/9 8/8/8
f 7/7/7 8/8/8 10/10/10
f 11/11/11 13/13/13 12/12/12
f 12/12/12 13/13/13 14/14/14
f 15/15/15 17/17/17 16/16/16
f 16/16/16 17/17/17 18/18/18
f 19/19/19 21/21/21 20/20/20
f 20/20/20 21/21/21 22/22/22
f 23/23/23 25/25/25 24/24/24
f 26/26/26 25/25/25 23/23/23
f 27/27/27 28/28/28 23/23/23
f 23/23/23 28/28/28 26/26/26
f 24/24/24 25/25/25 29/29/29
f 25/25/25 30/30/30 29/29/29
f 31/31/31 33/33/33 32/32/32
f 31/31/31 32/32/32 34/34/34
f 35/35/35 37/37/37 36/36/36
f 36/36/36 37/37/37 38/38/38
f 39/39/39 37/37/37 35/35/35
f 40/40/40 42/42/42 41/41/41
f 41/41/41 42/42/42 43/43/43
f 43/43/43 42/42/42 44/44/44
