#Wall-detach_690_20.obj

v 37 6 18
v 32 6 20
v 33 6 18
v 37 6 19
v 50 6 18
v 46 6 19
v 46 6 18
v 51 6 20
v 51 6 18
v 46 6 19
v 32 6 20
v 37 6 19
v 51 6 20

vn 0 1 0
vn 0 1 0
vn 0 1 0
vn 0 1 0
vn 0 1 0
vn 0 1 0
vn 0 1 0
vn 0 1 0
vn 0 1 0
vn 0 1 0
vn 0 1 0
vn 0 1 0
vn 0 1 0

vt 0 0
vt 5 2
vt 4 0
vt 0 1
vt 1 0
vt 5 1
vt 5 0
vt 0 2
vt 0 0
vt 5 0
vt 19 1
vt 14 0
vt 0 1

g Wall-detach_690_20
usemtl Wall-detach_690_20
usemap Wall-detach_690_20
f 1/1/1 3/3/3 2/2/2
f 1/1/1 2/2/2 4/4/4
f 5/5/5 7/7/7 6/6/6
f 5/5/5 6/6/6 8/8/8
f 5/5/5 8/8/8 9/9/9
f 10/10/10 12/12/12 11/11/11
f 10/10/10 11/11/11 13/13/13
