#Wall-detach_976_41.obj

v -33 -1 11
v -37 -1 5
v -37 -1 11
v -33 -1 5
v -37 -6 11
v -33 -1 11
v -37 -1 11
v -33 -6 11
v -33 -6 5
v -37 -1 5
v -33 -1 5
v -37 -6 5
v -33 -1 11
v -33 8 5
v -33 -1 5
v -33 8 11
v -33 -6 11
v -33 -6 18
v -33 8 18
v -33 -1 11
v -33 8 11
v -33 -6 0
v -33 -6 5
v -33 8 0
v -33 -1 5
v -33 8 5

vn 0 -1 0
vn 0 -1 0
vn 0 -1 0
vn 0 -1 0
vn 0 0 -1
vn 0 0 -1
vn 0 0 -1
vn 0 0 -1
vn 0 0 1
vn 0 0 1
vn 0 0 1
vn 0 0 1
vn 1 0 0
vn 1 0 0
vn 1 0 0
vn 1 0 0
vn 1 0 0
vn 1 0 0
vn 1 0 0
vn 1 0 0
vn 1 0 0
vn 1 0 0
vn 1 0 0
vn 1 0 0
vn 1 0 0
vn 1 0 0

vt 4 6
vt -4.768372E-07 2.384186E-07
vt 4.768372E-07 6
vt 4 -2.384186E-07
vt 4.000863 0.0006902218
vt -0.0008625984 4.99931
vt 3.999137 5.00069
vt 0.0008627176 -0.0006899834
vt 4.000863 0.0006902218
vt -0.0008625984 4.99931
vt 3.999137 5.00069
vt 0.0008627176 -0.0006899834
vt -0.001553535 0.001036167
vt 6.001554 8.998964
vt 5.998446 -0.00103569
vt 0.001553774 9.001036
vt 7 0
vt 0 0
vt 0 14
vt 7 5
vt 7 14
vt 5 0
vt 0 0
vt 5 14
vt 0 5
vt 0 14

g Wall-detach_976_41
usemtl Wall-detach_976_41
usemap Wall-detach_976_41
f 1/1/1 3/3/3 2/2/2
f 1/1/1 2/2/2 4/4/4
f 5/5/5 7/7/7 6/6/6
f 5/5/5 6/6/6 8/8/8
f 9/9/9 11/11/11 10/10/10
f 9/9/9 10/10/10 12/12/12
f 13/13/13 15/15/15 14/14/14
f 13/13/13 14/14/14 16/16/16
f 17/17/17 19/19/19 18/18/18
f 17/17/17 20/20/20 19/19/19
f 19/19/19 20/20/20 21/21/21
f 22/22/22 24/24/24 23/23/23
f 23/23/23 24/24/24 25/25/25
f 25/25/25 24/24/24 26/26/26
