#Wall-detach_787_60.obj

v 15 4 -13
v 15 4 -23
v 15 0 -13
v 15 0 -23
v 28 4 -23
v 15 0 -23
v 15 4 -23
v 28 0 -23
v 28 0 -23
v 28 4 -23
v 28 0 -13
v 28 4 -13

vn 1 0 0
vn 1 0 0
vn 1 0 0
vn 1 0 0
vn 0 0 1
vn 0 0 1
vn 0 0 1
vn 0 0 1
vn -1 0 0
vn -1 0 0
vn -1 0 0
vn -1 0 0

vt 0 4
vt 10 4
vt 0 0
vt 10 0
vt 13 4
vt 0 0
vt 0 4
vt 13 0
vt 0 0
vt 0 4
vt 10 0
vt 10 4

g Wall-detach_787_60
usemtl Wall-detach_787_60
usemap Wall-detach_787_60
f 1/1/1 3/3/3 2/2/2
f 2/2/2 3/3/3 4/4/4
f 5/5/5 7/7/7 6/6/6
f 5/5/5 6/6/6 8/8/8
f 9/9/9 11/11/11 10/10/10
f 10/10/10 11/11/11 12/12/12
