#Wall-detach_1166_68.obj

v 31 0 47
v 25 -1 47
v 25 0 47
v 31 -1 47
v 25 -7 47
v 25 -3 47
v 31 -7 47
v 31 -3 47
v 31 -3 47
v 31 0 47
v 32 0 47
v 31 -7 47
v 32 -7 47
v 17 0 47
v 23 0 47
v 17 -1 47
v 23 -1 47
v 23 -7 47
v 17 -7 47
v 23 -3 47
v 17 -3 47
v 23 0 47
v 25 0 47
v 23 -1 47
v 25 -1 47
v 25 -3 47
v 23 -3 47
v 25 -7 47
v 23 -7 47
v 16 0 47
v 17 0 47
v 17 -1 47
v 17 -3 47
v 16 -7 47
v 17 -7 47
v 31 -1 46
v 25 -1 47
v 31 -1 47
v 25 -1 46
v 23 -1 46
v 17 -1 47
v 23 -1 47
v 17 -1 46

vn 0 0 1
vn 0 0 1
vn 0 0 1
vn 0 0 1
vn 0 0 1
vn 0 0 1
vn 0 0 1
vn 0 0 1
vn 0 0 1
vn 0 0 1
vn 0 0 1
vn 0 0 1
vn 0 0 1
vn 0 0 1
vn 0 0 1
vn 0 0 1
vn 0 0 1
vn 0 0 1
vn 0 0 1
vn 0 0 1
vn 0 0 1
vn 0 0 1
vn 0 0 1
vn 0 0 1
vn 0 0 1
vn 0 0 1
vn 0 0 1
vn 0 0 1
vn 0 0 1
vn 0 0 1
vn 0 0 1
vn 0 0 1
vn 0 0 1
vn 0 0 1
vn 0 0 1
vn 0 -1 0
vn 0 -1 0
vn 0 -1 0
vn 0 -1 0
vn 0 -1 0
vn 0 -1 0
vn 0 -1 0
vn 0 -1 0

vt 6 1
vt 0 0
vt 0 1
vt 6 0
vt 0 0
vt 0 4
vt 6 0
vt 6 4
vt 0 4
vt 0 7
vt 1 7
vt 0 0
vt 1 0
vt 0 7
vt 6 7
vt 0 6
vt 6 6
vt 6 0
vt 0 0
vt 6 4
vt 0 4
vt 0 7
vt 2 7
vt 0 6
vt 2 6
vt 2 4
vt 0 4
vt 2 0
vt 0 0
vt 2 7
vt 3 7
vt 3 6
vt 3 4
vt 2 0
vt 3 0
vt 6 0
vt 0 1
vt 6 1
vt 0 0
vt 6 0
vt 0 1
vt 6 1
vt 0 0

g Wall-detach_1166_68
usemtl Wall-detach_1166_68
usemap Wall-detach_1166_68
f 1/1/1 3/3/3 2/2/2
f 1/1/1 2/2/2 4/4/4
f 5/5/5 7/7/7 6/6/6
f 6/6/6 7/7/7 8/8/8
f 9/9/9 11/11/11 10/10/10
f 12/12/12 13/13/13 9/9/9
f 9/9/9 13/13/13 11/11/11
f 14/14/14 16/16/16 15/15/15
f 15/15/15 16/16/16 17/17/17
f 18/18/18 20/20/20 19/19/19
f 20/20/20 21/21/21 19/19/19
f 22/22/22 24/24/24 23/23/23
f 23/23/23 24/24/24 25/25/25
f 24/24/24 26/26/26 25/25/25
f 24/24/24 27/27/27 26/26/26
f 26/26/26 27/27/27 28/28/28
f 28/28/28 27/27/27 29/29/29
f 30/30/30 32/32/32 31/31/31
f 30/30/30 33/33/33 32/32/32
f 34/34/34 33/33/33 30/30/30
f 35/35/35 33/33/33 34/34/34
f 36/36/36 38/38/38 37/37/37
f 36/36/36 37/37/37 39/39/39
f 40/40/40 42/42/42 41/41/41
f 40/40/40 41/41/41 43/43/43
