#Wall_735_51.obj

v -30 3 61
v -27 2 61
v -30 2 61
v -27 3 61
v -30 3 66
v -30 3 60
v -30 0 66
v -30 0 60
v -27 3 63
v -27 0 61
v -27 3 61
v -27 0 63
v -19 -1 63
v -6 -1 63
v -6 -4 63
v -19 -4 63
v -19 -4 63
v -27 0 63
v -19 -1 63
v -27 3 63
v -30 3 66
v -27 0 66
v -27 3 66
v -30 0 66
v -27 0 66
v -19 -4 66
v -19 -1 66
v -3 -4 66
v -3 -1 66
v -27 3 66
v -27 0 66
v -19 -1 66

vn 0 0 1
vn 0 0 1
vn 0 0 1
vn 0 0 1
vn 1 0 0
vn 1 0 0
vn 1 0 0
vn 1 0 0
vn -1 0 0
vn -1 0 0
vn -1 0 0
vn -1 0 0
vn 0 0 1
vn 0 0 1
vn 0 0 1
vn 0 0 1
vn 0 0 1
vn 0 0 1
vn 0 0 1
vn 0 0 1
vn 0 0 -1
vn 0 0 -1
vn 0 0 -1
vn 0 0 -1
vn 0 0 -1
vn 0 0 -1
vn 0 0 -1
vn 0 0 -1
vn 0 0 -1
vn 0 0 -1
vn 0 0 -1
vn 0 0 -1

vt 0 1
vt 3 0
vt 0 0
vt 3 1
vt 0 3
vt 6 3
vt 0 0
vt 6 0
vt 2 3
vt 0 0
vt 0 3
vt 2 0
vt 0 3
vt 13 3
vt 13 0
vt 0 0
vt 8 0
vt 0 4
vt 8 3
vt 0 7
vt 3 3
vt 0 0
vt 0 3
vt 3 0
vt 24 4
vt 16 0
vt 16 3
vt 0 0
vt 0 3
vt 8 4
vt 8 1
vt 0 0

g Wall_735_51
usemtl Wall_735_51
usemap Wall_735_51
f 1/1/1 3/3/3 2/2/2
f 1/1/1 2/2/2 4/4/4
f 5/5/5 7/7/7 6/6/6
f 6/6/6 7/7/7 8/8/8
f 9/9/9 11/11/11 10/10/10
f 10/10/10 12/12/12 9/9/9
f 13/13/13 15/15/15 14/14/14
f 13/13/13 16/16/16 15/15/15
f 17/17/17 19/19/19 18/18/18
f 20/20/20 18/18/18 19/19/19
f 21/21/21 23/23/23 22/22/22
f 21/21/21 22/22/22 24/24/24
f 25/25/25 27/27/27 26/26/26
f 28/28/28 26/26/26 29/29/29
f 29/29/29 26/26/26 27/27/27
f 30/30/30 32/32/32 31/31/31
