#Wall-detach_890_56.obj

v -10 8 7
v -10 4 7
v -10 8 11
v -10 4 11
v -10 -6 18
v -10 -6 20
v -10 2 20
v -10 2 18
v -10 -6 21
v -10 2 20
v -10 -6 20
v -10 8 21
v -10 4 20
v -10 8 20
v -10 -6 -3
v -10 -6 7
v -10 0 -3
v -10 4 7
v -10 8 7
v -10 8 -3
v -10 8 18
v -10 8 11
v -10 4 18
v -10 4 11
v -10 -6 11
v -10 -6 18
v -10 2 18
v -10 8 20
v -10 8 18
v -10 4 18
v -10 4 20

vn 1 0 0
vn 1 0 0
vn 1 0 0
vn 1 0 0
vn 1 0 0
vn 1 0 0
vn 1 0 0
vn 1 0 0
vn 1 0 0
vn 1 0 0
vn 1 0 0
vn 1 0 0
vn 1 0 0
vn 1 0 0
vn 1 0 0
vn 1 0 0
vn 1 0 0
vn 1 0 0
vn 1 0 0
vn 1 0 0
vn 1 0 0
vn 1 0 0
vn 1 0 0
vn 1 0 0
vn 1 0 0
vn 1 0 0
vn 1 0 0
vn 1 0 0
vn 1 0 0
vn 1 0 0
vn 1 0 0

vt 4 4
vt 4 0
vt 0 4
vt 0 0
vt 2 0
vt 0 0
vt 0 8
vt 2 8
vt -0.002416849 0.0001730919
vt 1.000345 7.999827
vt 0.9975831 -0.0001721382
vt 0.002416909 14.00017
vt 1.001036 9.999827
vt 1.002417 13.99983
vt 10 0
vt 0 0
vt 10 6
vt 0 10
vt 0 14
vt 10 14
vt 0 14
vt 7 14
vt 0 10
vt 7 10
vt 7 0
vt 0 0
vt 0 8
vt 0 4
vt 2 4
vt 2 0
vt 0 0

g Wall-detach_890_56
usemtl Wall-detach_890_56
usemap Wall-detach_890_56
f 1/1/1 3/3/3 2/2/2
f 2/2/2 3/3/3 4/4/4
f 5/5/5 7/7/7 6/6/6
f 8/8/8 7/7/7 5/5/5
f 9/9/9 11/11/11 10/10/10
f 9/9/9 13/13/13 12/12/12
f 10/10/10 13/13/13 9/9/9
f 12/12/12 13/13/13 14/14/14
f 15/15/15 17/17/17 16/16/16
f 16/16/16 17/17/17 18/18/18
f 19/19/19 17/17/17 20/20/20
f 18/18/18 17/17/17 19/19/19
f 21/21/21 23/23/23 22/22/22
f 22/22/22 23/23/23 24/24/24
f 25/25/25 24/24/24 26/26/26
f 26/26/26 24/24/24 27/27/27
f 27/27/27 24/24/24 23/23/23
f 28/28/28 30/30/30 29/29/29
f 31/31/31 30/30/30 28/28/28
