#Wall_578_14.obj

v 6 1 0
v 6 1 -6
v 6 3 0
v 6 3 -6
v 6 1 -6
v 12 1 -6
v 12 3 -6
v 6 3 -6
v 12 1 0
v 6 1 0
v 12 3 0
v 6 3 0
v 12 1 -6
v 12 1 0
v 12 3 -6
v 12 3 0

vn -1 0 0
vn -1 0 0
vn -1 0 0
vn -1 0 0
vn 0 0 -1
vn 0 0 -1
vn 0 0 -1
vn 0 0 -1
vn 0 0 1
vn 0 0 1
vn 0 0 1
vn 0 0 1
vn 1 0 0
vn 1 0 0
vn 1 0 0
vn 1 0 0

vt 6 0
vt 0 0
vt 6 2
vt 0 2
vt 6 0
vt 0 0
vt 0 2
vt 6 2
vt 6 0
vt 0 0
vt 6 2
vt 0 2
vt 6 0
vt 0 0
vt 6 2
vt 0 2

g Wall_578_14
usemtl Wall_578_14
usemap Wall_578_14
f 1/1/1 3/3/3 2/2/2
f 2/2/2 3/3/3 4/4/4
f 5/5/5 7/7/7 6/6/6
f 8/8/8 7/7/7 5/5/5
f 9/9/9 11/11/11 10/10/10
f 10/10/10 11/11/11 12/12/12
f 13/13/13 15/15/15 14/14/14
f 14/14/14 15/15/15 16/16/16
