#Wall-detach_786_49.obj

v 6 0 -1
v 6 0 0
v 6 2 -1
v 6 2 0
v 6 2 0
v 6 4 -5
v 6 2 -5
v 6 4 0
v 7 4 -5
v 6 2 -5
v 6 4 -5
v 7 2 -5
v 7 -2 -5
v 6 -2 -5
v 7 2 -5
v 7 4 -5
v 11 2 -5
v 11 4 -5
v 11 2 -8
v 7 2 -5
v 11 2 -5
v 7 2 -8
v 7 2 -8
v 7 -2 -5
v 7 2 -5
v 7 -2 -8
v 11 -2 -5
v 11 2 -8
v 11 2 -5
v 11 -2 -8

vn 1 0 0
vn 1 0 0
vn 1 0 0
vn 1 0 0
vn 1 0 0
vn 1 0 0
vn 1 0 0
vn 1 0 0
vn 0 0 1
vn 0 0 1
vn 0 0 1
vn 0 0 1
vn 0 0 1
vn 0 0 1
vn 0 0 1
vn 0 0 1
vn 0 0 1
vn 0 0 1
vn 0 -1 0
vn 0 -1 0
vn 0 -1 0
vn 0 -1 0
vn 1 0 0
vn 1 0 0
vn 1 0 0
vn 1 0 0
vn -1 0 0
vn -1 0 0
vn -1 0 0
vn -1 0 0

vt 1 0
vt 0 0
vt 1 2
vt 0 2
vt 0 0
vt 5 2
vt 5 0
vt 0 2
vt 1 6
vt 0 4
vt 0 6
vt 1 4
vt 1 0
vt 0 0
vt 0 0
vt 0 2
vt 4 0
vt 4 2
vt 4 0
vt 0 3
vt 4 3
vt 0 0
vt 3 4
vt 0 0
vt 0 4
vt 3 0
vt 3 0
vt 0 4
vt 3 4
vt 0 0

g Wall-detach_786_49
usemtl Wall-detach_786_49
usemap Wall-detach_786_49
f 1/1/1 3/3/3 2/2/2
f 2/2/2 3/3/3 4/4/4
f 5/5/5 7/7/7 6/6/6
f 5/5/5 6/6/6 8/8/8
f 9/9/9 11/11/11 10/10/10
f 10/10/10 12/12/12 9/9/9
f 10/10/10 13/13/13 12/12/12
f 10/10/10 14/14/14 13/13/13
f 15/15/15 17/17/17 16/16/16
f 16/16/16 17/17/17 18/18/18
f 19/19/19 21/21/21 20/20/20
f 19/19/19 20/20/20 22/22/22
f 23/23/23 25/25/25 24/24/24
f 23/23/23 24/24/24 26/26/26
f 27/27/27 29/29/29 28/28/28
f 27/27/27 28/28/28 30/30/30
