#Wall-detach_731_53.obj

v 13 7 10
v -4 -7 10
v -4 7 10
v 13 -7 10
v 11 5 16
v 3 5 16
v 3 0 16
v 11 -7 16
v 3 -7 16
v 11 -7 10
v 11 5 10
v 11 -7 16
v 11 5 16
v -3 5 16
v 3 0 16
v 3 5 16
v -3 0 16
v -10 -7 16
v -3 -7 16
v -3 0 16
v -3 5 16
v -10 5 16

vn 0 0 1
vn 0 0 1
vn 0 0 1
vn 0 0 1
vn 0 0 -1
vn 0 0 -1
vn 0 0 -1
vn 0 0 -1
vn 0 0 -1
vn -1 0 0
vn -1 0 0
vn -1 0 0
vn -1 0 0
vn 0 0 -1
vn 0 0 -1
vn 0 0 -1
vn 0 0 -1
vn 0 0 -1
vn 0 0 -1
vn 0 0 -1
vn 0 0 -1
vn 0 0 -1

vt 17 14
vt 0 0
vt 0 14
vt 17 0
vt 0 12
vt 8 12
vt 8 7
vt 0 0
vt 8 0
vt 0 0
vt 0 12
vt 6 0
vt 6 12
vt 6 5
vt 0 0
vt 0 5
vt 6 0
vt 7 0
vt 0 0
vt 0 7
vt 0 12
vt 7 12

g Wall-detach_731_53
usemtl Wall-detach_731_53
usemap Wall-detach_731_53
f 1/1/1 3/3/3 2/2/2
f 1/1/1 2/2/2 4/4/4
f 5/5/5 7/7/7 6/6/6
f 5/5/5 8/8/8 7/7/7
f 7/7/7 8/8/8 9/9/9
f 10/10/10 12/12/12 11/11/11
f 11/11/11 12/12/12 13/13/13
f 14/14/14 16/16/16 15/15/15
f 15/15/15 17/17/17 14/14/14
f 18/18/18 20/20/20 19/19/19
f 21/21/21 20/20/20 22/22/22
f 22/22/22 20/20/20 18/18/18
