#Wall-detach_659_43.obj

v 58 -6 -6
v 58 1 0
v 58 -6 0
v 58 1 -6
v 58 -6 4
v 58 -6 0
v 58 4 4
v 58 1 0
v 58 4 0
v 58 3 -6
v 58 1 -6
v 58 3 -12
v 58 -6 -6
v 58 -6 -12
v 58 6 -17
v 58 6 -12
v 58 3 -12
v 58 -6 -12
v 58 -6 -17
v 59 3 -6
v 58 1 -6
v 58 3 -6
v 59 1 -6
v 58 6 -12
v 59 3 -12
v 58 3 -12
v 59 6 -12
v 59 1 -12
v 59 3 -6
v 59 3 -12
v 59 1 -6

vn -1 0 0
vn -1 0 0
vn -1 0 0
vn -1 0 0
vn -1 0 0
vn -1 0 0
vn -1 0 0
vn -1 0 0
vn -1 0 0
vn -1 0 0
vn -1 0 0
vn -1 0 0
vn -1 0 0
vn -1 0 0
vn -1 0 0
vn -1 0 0
vn -1 0 0
vn -1 0 0
vn -1 0 0
vn 0 0 1
vn 0 0 1
vn 0 0 1
vn 0 0 1
vn 0 0 1
vn 0 0 1
vn 0 0 1
vn 0 0 1
vn 1 0 0
vn 1 0 0
vn 1 0 0
vn 1 0 0

vt 0 0
vt 6 7
vt 6 0
vt 0 7
vt 4 0
vt 0 0
vt 4 10
vt 0 7
vt 0 10
vt 6 9
vt 6 7
vt 0 9
vt 6 0
vt 0 0
vt 0 12
vt 5 12
vt 5 9
vt 5 0
vt 0 0
vt 1 2
vt 0 0
vt 0 2
vt 1 0
vt 0 3
vt 1 0
vt 0 0
vt 1 3
vt 6 0
vt 0 2
vt 6 2
vt 0 0

g Wall-detach_659_43
usemtl Wall-detach_659_43
usemap Wall-detach_659_43
f 1/1/1 3/3/3 2/2/2
f 1/1/1 2/2/2 4/4/4
f 5/5/5 7/7/7 6/6/6
f 6/6/6 7/7/7 8/8/8
f 8/8/8 7/7/7 9/9/9
f 10/10/10 12/12/12 11/11/11
f 11/11/11 12/12/12 13/13/13
f 13/13/13 12/12/12 14/14/14
f 15/15/15 17/17/17 16/16/16
f 18/18/18 17/17/17 19/19/19
f 19/19/19 17/17/17 15/15/15
f 20/20/20 22/22/22 21/21/21
f 20/20/20 21/21/21 23/23/23
f 24/24/24 26/26/26 25/25/25
f 24/24/24 25/25/25 27/27/27
f 28/28/28 30/30/30 29/29/29
f 28/28/28 29/29/29 31/31/31
