#Wall-detach_662_33.obj

v -50 -6 11
v -50 -6 17
v -50 1 11
v -50 1 17
v -37 -6 17
v -50 1 17
v -50 -6 17
v -37 1 17
v -37 -6 11
v -37 1 17
v -37 -6 17
v -37 1 11
v -37 -1 5
v -37 1 11
v -37 -1 11
v -37 1 5
v -50 -6 5
v -37 1 5
v -37 -6 5
v -50 1 5
v -50 1 5
v -50 -1 11
v -50 1 11
v -50 -1 5
v -37 1 17
v -50 1 11
v -50 1 17
v -37 1 11
v -50 1 11
v -37 1 5
v -50 1 5
v -37 1 11
v -50 8 5
v -69 -6 5
v -69 8 5
v -50 -6 5
v -50 -1 11
v -51 -1 5
v -51 -1 11
v -50 -1 5
v -51 3 11
v -50 -6 11
v -50 1 11
v -51 -6 11

vn 1 0 0
vn 1 0 0
vn 1 0 0
vn 1 0 0
vn 0 0 -1
vn 0 0 -1
vn 0 0 -1
vn 0 0 -1
vn -1 0 0
vn -1 0 0
vn -1 0 0
vn -1 0 0
vn -1 0 0
vn -1 0 0
vn -1 0 0
vn -1 0 0
vn 0 0 1
vn 0 0 1
vn 0 0 1
vn 0 0 1
vn 1 0 0
vn 1 0 0
vn 1 0 0
vn 1 0 0
vn 0 -1 0
vn 0 -1 0
vn 0 -1 0
vn 0 -1 0
vn 0 -1 0
vn 0 -1 0
vn 0 -1 0
vn 0 -1 0
vn 0 0 1
vn 0 0 1
vn 0 0 1
vn 0 0 1
vn 0 -1 0
vn 0 -1 0
vn 0 -1 0
vn 0 -1 0
vn 0 0 -1
vn 0 0 -1
vn 0 0 -1
vn 0 0 -1

vt 6 0
vt 0 0
vt 6 7
vt 0 7
vt 0 0
vt 13 7
vt 13 0
vt 0 7
vt 0.001207829 -0.001034975
vt 5.998792 7.001035
vt 6.001207 0.001035452
vt -0.00120759 6.998964
vt 0.0003452301 -0.001035094
vt 5.999655 2.001035
vt 6.000345 0.001035213
vt -0.0003449917 1.998965
vt 0 0
vt 13 7
vt 13 0
vt 0 7
vt 5.999655 2.001035
vt 0.0003452301 -0.001035094
vt -0.0003449917 1.998965
vt 6.000345 0.001035213
vt 12.99896 6.002243
vt 0.00103569 -0.002242565
vt -0.001034737 5.997757
vt 13.00103 0.002243042
vt 0.001036167 6.002244
vt 12.99896 -0.002243996
vt -0.001035213 0.002244473
vt 13.00104 5.997756
vt 19 14
vt 0 0
vt 0 14
vt 19 0
vt 1.001465 5.999756
vt -0.001464784 0.000244379
vt 0.001464903 6.000244
vt 0.9985351 -0.0002436638
vt 1.002197 8.999756
vt -0.002197206 0.0002446175
vt 0.001220763 7.000244
vt 0.9978027 -0.0002436638

g Wall-detach_662_33
usemtl Wall-detach_662_33
usemap Wall-detach_662_33
f 1/1/1 3/3/3 2/2/2
f 2/2/2 3/3/3 4/4/4
f 5/5/5 7/7/7 6/6/6
f 5/5/5 6/6/6 8/8/8
f 9/9/9 11/11/11 10/10/10
f 9/9/9 10/10/10 12/12/12
f 13/13/13 15/15/15 14/14/14
f 13/13/13 14/14/14 16/16/16
f 17/17/17 19/19/19 18/18/18
f 17/17/17 18/18/18 20/20/20
f 21/21/21 23/23/23 22/22/22
f 21/21/21 22/22/22 24/24/24
f 25/25/25 27/27/27 26/26/26
f 25/25/25 26/26/26 28/28/28
f 29/29/29 31/31/31 30/30/30
f 29/29/29 30/30/30 32/32/32
f 33/33/33 35/35/35 34/34/34
f 33/33/33 34/34/34 36/36/36
f 37/37/37 39/39/39 38/38/38
f 37/37/37 38/38/38 40/40/40
f 41/41/41 43/43/43 42/42/42
f 41/41/41 42/42/42 44/44/44
