#Wall-detach_686_60.obj

v 55 3 9
v 51 3 10
v 51 3 9
v 55 3 10
v 55 6 9
v 55 3 10
v 55 3 9
v 55 6 10
v 58 6 9
v 55 6 10
v 55 6 9
v 59 6 10
v 58 6 4
v 59 6 10
v 58 6 9
v 59 6 4
v 58 4 4
v 59 6 4
v 58 6 4
v 59 4 4

vn 0 1 0
vn 0 1 0
vn 0 1 0
vn 0 1 0
vn -1 0 0
vn -1 0 0
vn -1 0 0
vn -1 0 0
vn 0 1 0
vn 0 1 0
vn 0 1 0
vn 0 1 0
vn 0 1 0
vn 0 1 0
vn 0 1 0
vn 0 1 0
vn 0 0 -1
vn 0 0 -1
vn 0 0 -1
vn 0 0 -1

vt 0 0
vt 4 1
vt 4 0
vt 0 1
vt 0 3
vt 1 0
vt 0 0
vt 1 3
vt 1 0
vt 4 1
vt 4 0
vt 0 1
vt 1 0
vt 0 6
vt 1 5
vt 0 0
vt 1 0
vt 0 2
vt 1 2
vt 0 0

g Wall-detach_686_60
usemtl Wall-detach_686_60
usemap Wall-detach_686_60
f 1/1/1 3/3/3 2/2/2
f 1/1/1 2/2/2 4/4/4
f 5/5/5 7/7/7 6/6/6
f 5/5/5 6/6/6 8/8/8
f 9/9/9 11/11/11 10/10/10
f 9/9/9 10/10/10 12/12/12
f 13/13/13 15/15/15 14/14/14
f 13/13/13 14/14/14 16/16/16
f 17/17/17 19/19/19 18/18/18
f 17/17/17 18/18/18 20/20/20
