#Wall_733_5.obj

v 22 0 12
v 8 4 12
v 8 0 12
v 22 4 12
v 32 0 12
v 22 4 12
v 22 0 12
v 32 4 12
v 39 0 12
v 32 4 12
v 32 0 12
v 38 4 12
v 49 0 12
v 38 4 12
v 39 0 12
v 49 4 12
v 63 0 12
v 49 4 12
v 49 0 12
v 63 4 12
v 63 4 12
v 63 0 12
v 87 0 12
v 87 4 12
v 99 4 12
v 87 4 12
v 99 0 12
v 87 0 12
v 123 0 12
v 123 4 12
v 99 0 12
v 99 4 12
v 123 0 3
v 123 4 12
v 123 0 12
v 123 4 3
v 123 0 0
v 123 4 3
v 123 0 3
v 123 4 0
v 123 -6 3
v 123 0 0
v 123 0 3
v 123 -6 0

vn 0 0 -1
vn 0 0 -1
vn 0 0 -1
vn 0 0 -1
vn 0 0 -1
vn 0 0 -1
vn 0 0 -1
vn 0 0 -1
vn 0 0 -1
vn 0 0 -1
vn 0 0 -1
vn 0 0 -1
vn 0 0 -1
vn 0 0 -1
vn 0 0 -1
vn 0 0 -1
vn 0 0 -1
vn 0 0 -1
vn 0 0 -1
vn 0 0 -1
vn 0 0 -1
vn 0 0 -1
vn 0 0 -1
vn 0 0 -1
vn 0 0 -1
vn 0 0 -1
vn 0 0 -1
vn 0 0 -1
vn 0 0 -1
vn 0 0 -1
vn 0 0 -1
vn 0 0 -1
vn -1 0 0
vn -1 0 0
vn -1 0 0
vn -1 0 0
vn -1 0 0
vn -1 0 0
vn -1 0 0
vn -1 0 0
vn -1 0 0
vn -1 0 0
vn -1 0 0
vn -1 0 0

vt 0 0
vt 14 4
vt 14 0
vt 0 4
vt 0 0
vt 10 4
vt 10 0
vt 0 4
vt 0 0
vt 7 4
vt 7 0
vt 1 4
vt 0 0
vt 11 4
vt 10 0
vt 0 4
vt 0 0
vt 14 4
vt 14 0
vt 0 4
vt 24 4
vt 24 0
vt 0 0
vt 0 4
vt 0 4
vt 12 4
vt 0 0
vt 12 0
vt 0 0
vt 0 4
vt 24 0
vt 24 4
vt 0 0
vt 9 4
vt 9 0
vt 0 4
vt 0 0
vt 3 4
vt 3 0
vt 0 4
vt 3 0
vt 0 6
vt 3 6
vt 0 0

g Wall_733_5
usemtl Wall_733_5
usemap Wall_733_5
f 1/1/1 3/3/3 2/2/2
f 1/1/1 2/2/2 4/4/4
f 5/5/5 7/7/7 6/6/6
f 5/5/5 6/6/6 8/8/8
f 9/9/9 11/11/11 10/10/10
f 9/9/9 10/10/10 12/12/12
f 13/13/13 15/15/15 14/14/14
f 13/13/13 14/14/14 16/16/16
f 17/17/17 19/19/19 18/18/18
f 17/17/17 18/18/18 20/20/20
f 21/21/21 23/23/23 22/22/22
f 24/24/24 23/23/23 21/21/21
f 25/25/25 27/27/27 26/26/26
f 26/26/26 27/27/27 28/28/28
f 29/29/29 31/31/31 30/30/30
f 30/30/30 31/31/31 32/32/32
f 33/33/33 35/35/35 34/34/34
f 33/33/33 34/34/34 36/36/36
f 37/37/37 39/39/39 38/38/38
f 37/37/37 38/38/38 40/40/40
f 41/41/41 43/43/43 42/42/42
f 41/41/41 42/42/42 44/44/44
