#Wall-detach_745_62.obj

v 20 -7 -12
v 20 5 6
v 20 -7 6
v 20 5 -12
v 14 -7 -12
v 20 5 -12
v 20 -7 -12
v 14 5 -12
v -1 -7 0
v -1 7 1
v -1 -7 1
v -1 7 0
v 20 5 16
v 20 -7 12
v 20 5 12
v 20 -7 16
v 14 5 16
v 20 -7 16
v 20 5 16
v 14 -7 16
v 13 7 0
v 13 -7 10
v 13 7 10
v 13 -7 0
v 13 7 -6
v 13 2 0
v 13 7 0
v 13 2 -6
v 13 7 -13
v 13 -7 -6
v 13 7 -6
v 13 -7 -13
v -1 7 -6
v -1 -7 -13
v -1 7 -13
v -1 -7 -6
v -1 7 0
v -1 2 -6
v -1 7 -6
v -1 2 0
v 0 2 0
v -1 2 -6
v -1 2 0
v 0 2 -6
v 0 6 0
v 0 2 -6
v 0 2 0
v 0 6 -6
v 12 2 -6
v 13 2 0
v 13 2 -6
v 12 2 0
v 13 -7 -6
v 12 2 -6
v 13 2 -6
v 12 -7 -6
v 12 6 -6
v 12 2 0
v 12 2 -6
v 12 6 0
v 0 -7 -6
v -1 2 -6
v 0 2 -6
v -1 -7 -6
v 13 5 -12
v 14 5 -6
v 13 5 -6
v 14 5 -12
v 14 5 16
v 13 5 0
v 14 5 0
v 13 5 16
v 14 5 -12
v 14 -7 -12
v 14 5 -6
v 14 -7 -6
v 12 6 0
v 0 6 0
v 12 2 0
v 0 2 0
v 12 -7 -12
v 0 -7 -12
v 12 6 -12
v 0 6 -12
v -4 -7 10
v -4 -7 0
v -4 7 0
v -4 7 10
v -10 -7 16
v -10 5 16
v -10 5 -6
v -10 -7 -6
v 14 -7 16
v 14 5 16
v 14 5 0
v 14 -7 0
v 1 -1 0
v 11 -1 0
v 1 0 0
v 11 0 0
v 12 2 0
v 11 0 0
v 12 0 0
v 0 2 0
v 1 0 0
v 0 0 0
v 12 -7 0
v 13 2 0
v 12 2 0
v 13 -7 0
v -1 -7 0
v 0 2 0
v -1 2 0
v 0 -7 0
v -1 5 -6
v -1 2 -6
v -10 5 -6
v -1 -7 -6
v -10 -7 -6
v -1 2 0
v -1 7 0
v -4 7 0
v -4 -7 0
v -1 -7 0
v 13 5 -6
v 14 5 -6
v 13 2 -6
v 14 -7 -6
v 13 -7 -6
v 13 5 0
v 13 2 0
v 14 5 0
v 13 -7 0
v 14 -7 0
v 0 2 -6
v 0 6 -6
v 0 6 -12
v 0 -7 -12
v 0 -7 -6
v 12 6 -6
v 12 2 -6
v 12 6 -12
v 12 -7 -6
v 12 -7 -12

vn -1 0 0
vn -1 0 0
vn -1 0 0
vn -1 0 0
vn 0 0 1
vn 0 0 1
vn 0 0 1
vn 0 0 1
vn -1 0 0
vn -1 0 0
vn -1 0 0
vn -1 0 0
vn -1 0 0
vn -1 0 0
vn -1 0 0
vn -1 0 0
vn 0 0 -1
vn 0 0 -1
vn 0 0 -1
vn 0 0 -1
vn 1 0 0
vn 1 0 0
vn 1 0 0
vn 1 0 0
vn 1 0 0
vn 1 0 0
vn 1 0 0
vn 1 0 0
vn 1 0 0
vn 1 0 0
vn 1 0 0
vn 1 0 0
vn -1 0 0
vn -1 0 0
vn -1 0 0
vn -1 0 0
vn -1 0 0
vn -1 0 0
vn -1 0 0
vn -1 0 0
vn 0 -1 0
vn 0 -1 0
vn 0 -1 0
vn 0 -1 0
vn 1 0 0
vn 1 0 0
vn 1 0 0
vn 1 0 0
vn 0 -1 0
vn 0 -1 0
vn 0 -1 0
vn 0 -1 0
vn 0 0 1
vn 0 0 1
vn 0 0 1
vn 0 0 1
vn -1 0 0
vn -1 0 0
vn -1 0 0
vn -1 0 0
vn 0 0 1
vn 0 0 1
vn 0 0 1
vn 0 0 1
vn 0 1 0
vn 0 1 0
vn 0 1 0
vn 0 1 0
vn 0 1 0
vn 0 1 0
vn 0 1 0
vn 0 1 0
vn 1 0 0
vn 1 0 0
vn 1 0 0
vn 1 0 0
vn 0 0 -1
vn 0 0 -1
vn 0 0 -1
vn 0 0 -1
vn 0 0 1
vn 0 0 1
vn 0 0 1
vn 0 0 1
vn -1 0 0
vn -1 0 0
vn -1 0 0
vn -1 0 0
vn 1 0 0
vn 1 0 0
vn 1 0 0
vn 1 0 0
vn 1 0 0
vn 1 0 0
vn 1 0 0
vn 1 0 0
vn 0 0 -1
vn 0 0 -1
vn 0 0 -1
vn 0 0 -1
vn 0 0 -1
vn 0 0 -1
vn 0 0 -1
vn 0 0 -1
vn 0 0 -1
vn 0 0 -1
vn 0 0 -1
vn 0 0 -1
vn 0 0 -1
vn 0 0 -1
vn 0 0 -1
vn 0 0 -1
vn 0 0 -1
vn 0 0 -1
vn 0 0 1
vn 0 0 1
vn 0 0 1
vn 0 0 0.9999999
vn 0 0 1
vn 0 0 -1
vn 0 0 -1
vn 0 0 -1
vn 0 0 -1
vn 0 0 -1
vn 0 0 1
vn 0 0 1
vn 0 0 1
vn 0 0 1
vn 0 0 1
vn 0 0 -1
vn 0 0 -1
vn 0 0 -1
vn 0 0 -1
vn 0 0 -1
vn 1 0 0
vn 1 0 0
vn 1 0 0
vn 1 0 0
vn 1 0 0
vn -1 0 0
vn -1 0 0
vn -1 0 0
vn -1 0 0
vn -1 0 0

vt 0 0
vt 18 12
vt 18 0
vt 0 12
vt 0 0
vt 6 12
vt 6 0
vt 0 12
vt 0 0
vt 1 14
vt 1 0
vt 0 14
vt 4 12
vt 0 0
vt 0 12
vt 4 0
vt 6 12
vt 0 0
vt 0 12
vt 6 0
vt 10 14
vt 0 0
vt 0 14
vt 10 0
vt 6 5
vt 0 0
vt 0 5
vt 6 0
vt 7 14
vt 0 0
vt 0 14
vt 7 0
vt 7 14
vt 0 0
vt 0 14
vt 7 0
vt 6 5
vt 0 0
vt 0 5
vt 6 0
vt 1 6
vt 0 0
vt 0 6
vt 1 0
vt 0 4
vt 6 0
vt 0 0
vt 6 4
vt 0 0
vt 1 6
vt 1 0
vt 0 6
vt 1 0
vt 0 9
vt 1 9
vt 0 0
vt 0 4
vt 6 0
vt 0 0
vt 6 4
vt 1 0
vt 0 9
vt 1 9
vt 0 0
vt 1 0
vt 0 6
vt 1 6
vt 0 0
vt 0 16
vt 1 0
vt 0 0
vt 1 16
vt 6 12
vt 6 0
vt 0 12
vt 0 0
vt 0 4
vt 12 4
vt 0 0
vt 12 0
vt 12 0
vt 0 0
vt 12 13
vt 0 13
vt 10 0
vt 0 0
vt 0 14
vt 10 14
vt 0 0
vt 0 12
vt 22 12
vt 22 0
vt 0 0
vt 0 12
vt 16 12
vt 16 0
vt 10 0
vt 0 0
vt 10 1
vt 0 1
vt 0 2
vt 1 0
vt 0 0
vt 12 2
vt 11 0
vt 12 0
vt 1 0
vt 0 9
vt 1 9
vt 0 0
vt 1 0
vt 0 9
vt 1 9
vt 0 0
vt 9 12
vt 9 9
vt 0 12
vt 9 0
vt 0 0
vt 0 9
vt 0 14
vt 3 14
vt 3 0
vt 0 0
vt 0 12
vt 1 12
vt 0 9
vt 1 0
vt 0 0
vt 1 12
vt 1 9
vt 0 12
vt 1 0
vt 0 0
vt 0 9
vt 0 13
vt 6 13
vt 6 0
vt 0 0
vt 6 13
vt 6 9
vt 0 13
vt 6 0
vt 0 0

g Wall-detach_745_62
usemtl Wall-detach_745_62
usemap Wall-detach_745_62
f 1/1/1 3/3/3 2/2/2
f 1/1/1 2/2/2 4/4/4
f 5/5/5 7/7/7 6/6/6
f 5/5/5 6/6/6 8/8/8
f 9/9/9 11/11/11 10/10/10
f 9/9/9 10/10/10 12/12/12
f 13/13/13 15/15/15 14/14/14
f 13/13/13 14/14/14 16/16/16
f 17/17/17 19/19/19 18/18/18
f 17/17/17 18/18/18 20/20/20
f 21/21/21 23/23/23 22/22/22
f 21/21/21 22/22/22 24/24/24
f 25/25/25 27/27/27 26/26/26
f 25/25/25 26/26/26 28/28/28
f 29/29/29 31/31/31 30/30/30
f 29/29/29 30/30/30 32/32/32
f 33/33/33 35/35/35 34/34/34
f 33/33/33 34/34/34 36/36/36
f 37/37/37 39/39/39 38/38/38
f 37/37/37 38/38/38 40/40/40
f 41/41/41 43/43/43 42/42/42
f 41/41/41 42/42/42 44/44/44
f 45/45/45 47/47/47 46/46/46
f 45/45/45 46/46/46 48/48/48
f 49/49/49 51/51/51 50/50/50
f 49/49/49 50/50/50 52/52/52
f 53/53/53 55/55/55 54/54/54
f 53/53/53 54/54/54 56/56/56
f 57/57/57 59/59/59 58/58/58
f 57/57/57 58/58/58 60/60/60
f 61/61/61 63/63/63 62/62/62
f 61/61/61 62/62/62 64/64/64
f 65/65/65 67/67/67 66/66/66
f 65/65/65 66/66/66 68/68/68
f 69/69/69 71/71/71 70/70/70
f 69/69/69 70/70/70 72/72/72
f 73/73/73 75/75/75 74/74/74
f 74/74/74 75/75/75 76/76/76
f 77/77/77 79/79/79 78/78/78
f 78/78/78 79/79/79 80/80/80
f 81/81/81 83/83/83 82/82/82
f 82/82/82 83/83/83 84/84/84
f 85/85/85 87/87/87 86/86/86
f 88/88/88 87/87/87 85/85/85
f 89/89/89 91/91/91 90/90/90
f 92/92/92 91/91/91 89/89/89
f 93/93/93 95/95/95 94/94/94
f 96/96/96 95/95/95 93/93/93
f 97/97/97 99/99/99 98/98/98
f 98/98/98 99/99/99 100/100/100
f 101/101/101 103/103/103 102/102/102
f 101/101/101 105/105/105 104/104/104
f 102/102/102 105/105/105 101/101/101
f 104/104/104 105/105/105 106/106/106
f 107/107/107 109/109/109 108/108/108
f 107/107/107 108/108/108 110/110/110
f 111/111/111 113/113/113 112/112/112
f 111/111/111 112/112/112 114/114/114
f 115/115/115 117/117/117 116/116/116
f 118/118/118 117/117/117 119/119/119
f 116/116/116 117/117/117 118/118/118
f 120/120/120 122/122/122 121/121/121
f 123/123/123 122/122/122 124/124/124
f 124/124/124 122/122/122 120/120/120
f 125/125/125 127/127/127 126/126/126
f 128/128/128 127/127/127 129/129/129
f 126/126/126 127/127/127 128/128/128
f 130/130/130 132/132/132 131/131/131
f 133/133/133 132/132/132 134/134/134
f 131/131/131 132/132/132 133/133/133
f 135/135/135 137/137/137 136/136/136
f 138/138/138 137/137/137 139/139/139
f 139/139/139 137/137/137 135/135/135
f 140/140/140 142/142/142 141/141/141
f 143/143/143 142/142/142 144/144/144
f 141/141/141 142/142/142 143/143/143
