#Wall-detach_694_25.obj

v 31 6 -17
v 31 3 -18
v 31 3 -17
v 31 6 -18
v 29 6 -17
v 31 6 -18
v 31 6 -17
v 29 6 -18
v 20 1 -17
v 29 6 -18
v 29 6 -17
v 20 1 -18
v 7 3 -18
v 11 1 -17
v 7 3 -17
v 11 1 -18
v 20 1 -18
v 11 1 -17
v 11 1 -18
v 20 1 -17

vn 1 0 0
vn 1 0 0
vn 1 0 0
vn 1 0 0
vn 0 1 0
vn 0 1 0
vn 0 1 0
vn 0 1 0
vn -0.4856429 0.8741572 0
vn -0.4856429 0.8741572 0
vn -0.4856429 0.8741572 0
vn -0.4856429 0.8741572 0
vn 0.4472136 0.8944272 0
vn 0.4472136 0.8944272 0
vn 0.4472136 0.8944272 0
vn 0.4472136 0.8944272 0
vn 0 1 0
vn 0 1 0
vn 0 1 0
vn 0 1 0

vt 0 3
vt 1 0
vt 0 0
vt 1 3
vt 2 1
vt 0 0
vt 0 1
vt 2 0
vt 10.29563 1
vt 0 0
vt 0 1
vt 10.29563 0
vt 4.472136 0
vt 0 1
vt 4.472136 1
vt 0 0
vt 0 0
vt 9 1
vt 9 0
vt 0 1

g Wall-detach_694_25
usemtl Wall-detach_694_25
usemap Wall-detach_694_25
f 1/1/1 3/3/3 2/2/2
f 1/1/1 2/2/2 4/4/4
f 5/5/5 7/7/7 6/6/6
f 5/5/5 6/6/6 8/8/8
f 9/9/9 11/11/11 10/10/10
f 9/9/9 10/10/10 12/12/12
f 13/13/13 15/15/15 14/14/14
f 13/13/13 14/14/14 16/16/16
f 17/17/17 19/19/19 18/18/18
f 17/17/17 18/18/18 20/20/20
