#Wall-detach_955_39.obj

v -10 -6 7
v -11 -6 7
v -10 4 7
v -11 4 7
v -10 4 7
v -11 4 7
v -10 4 11
v -11 4 11
v -11 4 7
v -11 8 7
v -11 4 11
v -11 8 11
v -11 -6 11
v -10 -6 11
v -11 4 11
v -10 4 11
v -11 2 18
v -11 -6 18
v -11 4 11
v -11 -6 11
v -11 4 18
v -11 8 18
v -11 8 11
v -11 8 7
v -11 4 7
v -11 8 5
v -11 -6 7
v -11 -6 5

vn 0 0 1
vn 0 0 1
vn 0 0 1
vn 0 0 1
vn 0 -1 0
vn 0 -1 0
vn 0 -1 0
vn 0 -1 0
vn -1 0 0
vn -1 0 0
vn -1 0 0
vn -1 0 0
vn 0 0 -1
vn 0 0 -1
vn 0 0 -1
vn 0 0 -1
vn -1 0 0
vn -1 0 0
vn -1 0 0
vn -1 0 0
vn -1 0 0
vn -1 0 0
vn -1 0 0
vn -1 0 0
vn -1 0 0
vn -1 0 0
vn -1 0 0
vn -1 0 0

vt 1 0
vt 0 0
vt 1 10
vt 0 10
vt 1 0
vt 0 0
vt 1 4
vt 0 4
vt 0 0
vt 0 4
vt 4 0
vt 4 4
vt 1 0
vt 0 0
vt 1 10
vt 0 10
vt 7 8
vt 7 0
vt 0 10
vt 0 0
vt 7 10
vt 7 14
vt 0 14
vt 2.002417 13.99965
vt 2.001036 9.999655
vt 0.002416909 14.00035
vt 1.997583 -0.0003447533
vt -0.002416849 0.0003457069

g Wall-detach_955_39
usemtl Wall-detach_955_39
usemap Wall-detach_955_39
f 1/1/1 3/3/3 2/2/2
f 2/2/2 3/3/3 4/4/4
f 5/5/5 7/7/7 6/6/6
f 6/6/6 7/7/7 8/8/8
f 9/9/9 11/11/11 10/10/10
f 10/10/10 11/11/11 12/12/12
f 13/13/13 15/15/15 14/14/14
f 14/14/14 15/15/15 16/16/16
f 17/17/17 19/19/19 18/18/18
f 18/18/18 19/19/19 20/20/20
f 21/21/21 19/19/19 17/17/17
f 21/21/21 22/22/22 19/19/19
f 19/19/19 22/22/22 23/23/23
f 24/24/24 26/26/26 25/25/25
f 27/27/27 26/26/26 28/28/28
f 25/25/25 26/26/26 27/27/27
