#Wall-detach_1166_67.obj

v 14 0 51
v 40 -7 51
v 40 0 51
v 14 -7 51
v 14 0 47
v 14 -7 51
v 14 0 51
v 14 -7 47
v 14 -7 47
v 14 0 47
v 16 -7 47
v 16 0 47
v 40 0 47
v 40 -7 47
v 32 -7 47
v 32 0 47

vn 0 0 -1
vn 0 0 -1
vn 0 0 -1
vn 0 0 -1
vn 1 0 0
vn 1 0 0
vn 1 0 0
vn 1 0 0
vn 0 0 1
vn 0 0 1
vn 0 0 1
vn 0 0 1
vn 0 0 1
vn 0 0 1
vn 0 0 1
vn 0 0 1

vt 26 7
vt 0 0
vt 0 7
vt 26 0
vt 4 7
vt 0 0
vt 0 7
vt 4 0
vt 0 0
vt 0 7
vt 2 0
vt 2 7
vt 9 7
vt 9 0
vt 1 0
vt 1 7

g Wall-detach_1166_67
usemtl Wall-detach_1166_67
usemap Wall-detach_1166_67
f 1/1/1 3/3/3 2/2/2
f 1/1/1 2/2/2 4/4/4
f 5/5/5 7/7/7 6/6/6
f 5/5/5 6/6/6 8/8/8
f 9/9/9 11/11/11 10/10/10
f 10/10/10 11/11/11 12/12/12
f 13/13/13 15/15/15 14/14/14
f 16/16/16 15/15/15 13/13/13
