#Wall-detach_806_58.obj

v 11 4 -16
v 8 2 -16
v 11 2 -16
v 8 4 -16
v 11 4 -16
v 11 2 -16
v 14 4 -16
v 14 -2 -16
v 11 -2 -16
v 14 -2 -22
v 14 4 -16
v 14 -2 -16
v 14 4 -22
v 6 3 -18
v 6 4 -21
v 6 3 -21
v 6 4 -18
v 6 4 -22
v 6 3 -21
v 6 4 -21
v 6 -2 -22
v 6 -2 -21
v 14 4 -22
v 14 -2 -22
v 6 -2 -22
v 6 4 -22
v 6 4 -18
v 6 3 -18
v 6 4 -16
v 6 -2 -16
v 6 -2 -18
v 8 -2 -16
v 8 4 -16
v 6 -2 -16
v 6 4 -16

vn 0 0 -1
vn 0 0 -1
vn 0 0 -1
vn 0 0 -1
vn 0 0 -1
vn 0 0 -1
vn 0 0 -1
vn 0 0 -1
vn 0 0 -1
vn -1 0 0
vn -1 0 0
vn -1 0 0
vn -1 0 0
vn 1 0 0
vn 1 0 0
vn 1 0 0
vn 1 0 0
vn 1 0 0
vn 1 0 0
vn 1 0 0
vn 1 0 0
vn 1 0 0
vn 0 0 1
vn 0 0 1
vn 0 0 1
vn 0 0 1
vn 1 0 0
vn 1 0 0
vn 1 0 0
vn 1 0 0
vn 1 0 0
vn 0 0 -1
vn 0 0 -1
vn 0 0 -1
vn 0 0 -1

vt 0 2
vt 3 0
vt 0 0
vt 3 2
vt 3 6
vt 3 4
vt 0 6
vt 0 0
vt 3 0
vt 0 0
vt 6 6
vt 6 0
vt 0 6
vt 0 0
vt 3 1
vt 3 0
vt 0 1
vt 1 6
vt 0 5
vt 0 6
vt 1 0
vt 0 0
vt 8 6
vt 8 0
vt 0 0
vt 0 6
vt 2 6
vt 2 5
vt 0 6
vt 0 0
vt 2 0
vt 0 0
vt 0 6
vt 2 0
vt 2 6

g Wall-detach_806_58
usemtl Wall-detach_806_58
usemap Wall-detach_806_58
f 1/1/1 3/3/3 2/2/2
f 1/1/1 2/2/2 4/4/4
f 5/5/5 7/7/7 6/6/6
f 7/7/7 8/8/8 6/6/6
f 6/6/6 8/8/8 9/9/9
f 10/10/10 12/12/12 11/11/11
f 10/10/10 11/11/11 13/13/13
f 14/14/14 16/16/16 15/15/15
f 14/14/14 15/15/15 17/17/17
f 18/18/18 20/20/20 19/19/19
f 19/19/19 21/21/21 18/18/18
f 22/22/22 21/21/21 19/19/19
f 23/23/23 25/25/25 24/24/24
f 26/26/26 25/25/25 23/23/23
f 27/27/27 29/29/29 28/28/28
f 29/29/29 30/30/30 28/28/28
f 28/28/28 30/30/30 31/31/31
f 32/32/32 34/34/34 33/33/33
f 33/33/33 34/34/34 35/35/35
