#Wall_580_25.obj

v 24 -2 33
v 24 2 33
v 20 2 33
v 20 -2 33
v 20 -2 33
v 20 2 33
v 20 2 32
v 20 -2 32
v 20 -2 32
v 20 2 32
v 19 2 32
v 19 -2 32
v 19 -2 32
v 19 2 32
v 19 2 33
v 19 -2 33
v 19 -2 33
v 19 2 33
v 15 2 33
v 15 -2 33
v 14 2 33
v 15 0 33
v 14 0 33
v 14 -2 33
v 10 2 33
v 10 -2 33
v 15 -2 28
v 15 0 28
v 14 0 28
v 14 -2 28
v 10 -2 33
v 10 2 33
v 10 2 32
v 10 -2 32
v 9 -2 32
v 9 2 32
v 9 2 33
v 9 -2 33
v 9 -2 33
v 9 2 33
v 5 2 33
v 5 -2 33
v 15 0 33
v 15 -2 28
v 15 -2 33
v 15 0 28
v 14 0 33
v 15 0 28
v 15 0 33
v 14 0 28
v 14 -2 33
v 14 0 28
v 14 0 33
v 14 -2 28
v 9 -2 32
v 10 2 32
v 9 2 32
v 10 -2 32

vn 0 0 -1
vn 0 0 -1
vn 0 0 -1
vn 0 0 -1
vn 1 0 0
vn 1 0 0
vn 1 0 0
vn 1 0 0
vn 0 0 -1
vn 0 0 -1
vn 0 0 -1
vn 0 0 -1
vn -1 0 0
vn -1 0 0
vn -1 0 0
vn -1 0 0
vn 0 0 -1
vn 0 0 -1
vn 0 0 -1
vn 0 0 -1
vn 0 0 -1
vn 0 0 -1
vn 0 0 -1
vn 0 0 -1
vn 0 0 -1
vn 0 0 -1
vn 0 0 -1
vn 0 0 -1
vn 0 0 -1
vn 0 0 -1
vn 1 0 0
vn 1 0 0
vn 1 0 0
vn 1 0 0
vn -1 0 0
vn -1 0 0
vn -1 0 0
vn -1 0 0
vn 0 0 -1
vn 0 0 -1
vn 0 0 -1
vn 0 0 -1
vn 1 0 0
vn 1 0 0
vn 1 0 0
vn 1 0 0
vn 0 1 0
vn 0 1 0
vn 0 1 0
vn 0 1 0
vn -1 0 0
vn -1 0 0
vn -1 0 0
vn -1 0 0
vn 0 0 -1
vn 0 0 -1
vn 0 0 -1
vn 0 0 -1

vt -26 1
vt -26 5
vt -22 5
vt -22 1
vt 0 1
vt 0 5
vt 1 5
vt 1 1
vt -22 1
vt -22 5
vt -21 5
vt -21 1
vt -1 1
vt -1 5
vt 0 5
vt 0 1
vt -21 1
vt -21 5
vt -17 5
vt -17 1
vt -16 5
vt -17 3
vt -16 3
vt -16 1
vt -12 5
vt -12 1
vt -17 2.5
vt -17 4.5
vt -16 4.5
vt -16 2.5
vt 0 1
vt 0 5
vt 1 5
vt 1 1
vt -1 1
vt -1 5
vt 0 5
vt 0 1
vt -11 1
vt -11 5
vt -7 5
vt -7 1
vt 0 3
vt 5 1
vt 0 1
vt 5 3
vt -19 -3
vt -14 -2
vt -19 -2
vt -14 -3
vt 0 1
vt -5 3
vt 0 3
vt -5 1
vt 1 0
vt 0 4
vt 1 4
vt 0 0

g Wall_580_25
usemtl Wall_580_25
usemap Wall_580_25
f 1/1/1 3/3/3 2/2/2
f 4/4/4 3/3/3 1/1/1
f 5/5/5 7/7/7 6/6/6
f 8/8/8 7/7/7 5/5/5
f 9/9/9 11/11/11 10/10/10
f 12/12/12 11/11/11 9/9/9
f 13/13/13 15/15/15 14/14/14
f 16/16/16 15/15/15 13/13/13
f 17/17/17 19/19/19 18/18/18
f 20/20/20 19/19/19 17/17/17
f 21/21/21 19/19/19 22/22/22
f 23/23/23 21/21/21 22/22/22
f 24/24/24 25/25/25 21/21/21
f 26/26/26 25/25/25 24/24/24
f 27/27/27 29/29/29 28/28/28
f 30/30/30 29/29/29 27/27/27
f 31/31/31 33/33/33 32/32/32
f 34/34/34 33/33/33 31/31/31
f 35/35/35 37/37/37 36/36/36
f 38/38/38 37/37/37 35/35/35
f 39/39/39 41/41/41 40/40/40
f 42/42/42 41/41/41 39/39/39
f 43/43/43 45/45/45 44/44/44
f 46/46/46 43/43/43 44/44/44
f 47/47/47 49/49/49 48/48/48
f 50/50/50 47/47/47 48/48/48
f 51/51/51 53/53/53 52/52/52
f 54/54/54 51/51/51 52/52/52
f 55/55/55 57/57/57 56/56/56
f 55/55/55 56/56/56 58/58/58
