#Wall_552_10.obj

v 0 0 0
v 0 0 33
v 0 8 0
v 0 8 33
v 46 8 0
v 0 0 0
v 0 8 0
v 46 0 0
v 46 8 33
v 46 0 0
v 46 8 0
v 46 0 33
v 0 8 33
v 46 0 33
v 46 8 33
v 0 0 33
v 21 0 19
v 20 0 19
v 21 3 19
v 20 3 19
v 20 0 19
v 20 0 14
v 20 3 19
v 20 3 14
v 20 0 14
v 21 0 14
v 20 3 14
v 21 3 14
v 21 0 14
v 21 0 19
v 21 3 14
v 21 3 19
v 21 3 19
v 20 3 19
v 21 3 14
v 20 3 14
v 21 0 14
v 20 0 14
v 21 0 19
v 20 0 19
v 18 0 9
v 18 0 3
v 18 3 9
v 18 3 3
v 19 0 3
v 18 3 3
v 18 0 3
v 19 3 3
v 19 0 5
v 19 3 3
v 19 0 3
v 19 3 5
v 21 0 5
v 19 3 5
v 19 0 5
v 21 3 5
v 21 0 6
v 21 3 5
v 21 0 5
v 21 3 6
v 19 0 6
v 21 3 6
v 21 0 6
v 19 3 6
v 19 0 9
v 19 3 6
v 19 0 6
v 19 3 9
v 18 0 9
v 19 3 9
v 19 0 9
v 18 3 9
v 18 3 9
v 19 3 6
v 19 3 9
v 18 3 3
v 19 3 3
v 21 3 6
v 19 3 5
v 21 3 5
v 19 3 6
v 28 0 3
v 28 0 9
v 28 3 3
v 28 3 9
v 27 0 9
v 28 3 9
v 28 0 9
v 27 3 9
v 27 0 6
v 27 3 9
v 27 0 9
v 27 3 6
v 25 0 6
v 27 3 6
v 27 0 6
v 25 3 6
v 25 0 5
v 25 3 6
v 25 0 6
v 25 3 5
v 27 0 5
v 25 3 5
v 25 0 5
v 27 3 5
v 27 0 3
v 27 3 5
v 27 0 5
v 27 3 3
v 28 0 3
v 27 3 3
v 27 0 3
v 28 3 3
v 28 3 3
v 27 3 5
v 27 3 3
v 28 3 9
v 27 3 9
v 25 3 5
v 27 3 6
v 25 3 6
v 27 3 5
v 18 0 30
v 18 0 24
v 18 3 30
v 18 3 24
v 19 0 24
v 18 3 24
v 18 0 24
v 19 3 24
v 19 0 27
v 19 3 24
v 19 0 24
v 19 3 27
v 21 0 27
v 19 3 27
v 19 0 27
v 21 3 27
v 21 0 28
v 21 3 27
v 21 0 27
v 21 3 28
v 19 0 28
v 21 3 28
v 21 0 28
v 19 3 28
v 19 0 30
v 19 3 28
v 19 0 28
v 19 3 30
v 18 0 30
v 19 3 30
v 19 0 30
v 18 3 30
v 18 3 30
v 19 3 28
v 19 3 30
v 18 3 24
v 19 3 24
v 21 3 28
v 19 3 27
v 21 3 27
v 19 3 28
v 28 0 24
v 28 0 30
v 28 3 24
v 28 3 30
v 27 0 30
v 28 3 30
v 28 0 30
v 27 3 30
v 27 0 28
v 27 3 30
v 27 0 30
v 27 3 28
v 25 0 28
v 27 3 28
v 27 0 28
v 25 3 28
v 25 0 27
v 25 3 28
v 25 0 28
v 25 3 27
v 27 0 27
v 25 3 27
v 25 0 27
v 27 3 27
v 27 0 24
v 27 3 27
v 27 0 27
v 27 3 24
v 28 0 24
v 27 3 24
v 27 0 24
v 28 3 24
v 28 3 24
v 27 3 27
v 27 3 24
v 28 3 30
v 27 3 30
v 25 3 27
v 27 3 28
v 25 3 28
v 27 3 27
v 26 0 19
v 25 0 19
v 26 3 19
v 25 3 19
v 25 0 19
v 25 0 14
v 25 3 19
v 25 3 14
v 25 0 14
v 26 0 14
v 25 3 14
v 26 3 14
v 26 0 14
v 26 0 19
v 26 3 14
v 26 3 19
v 26 3 19
v 25 3 19
v 26 3 14
v 25 3 14
v 26 0 14
v 25 0 14
v 26 0 19
v 25 0 19

vn 1 0 0
vn 1 0 0
vn 1 0 0
vn 1 0 0
vn 0 0 1
vn 0 0 1
vn 0 0 1
vn 0 0 1
vn -1 0 0
vn -1 0 0
vn -1 0 0
vn -1 0 0
vn 0 0 -1
vn 0 0 -1
vn 0 0 -1
vn 0 0 -1
vn 0 0 1
vn 0 0 1
vn 0 0 1
vn 0 0 1
vn -1 0 0
vn -1 0 0
vn -1 0 0
vn -1 0 0
vn 0 0 -1
vn 0 0 -1
vn 0 0 -1
vn 0 0 -1
vn 1 0 0
vn 1 0 0
vn 1 0 0
vn 1 0 0
vn 0 1 0
vn 0 1 0
vn 0 1 0
vn 0 1 0
vn 0 -1 0
vn 0 -1 0
vn 0 -1 0
vn 0 -1 0
vn -1 0 0
vn -1 0 0
vn -1 0 0
vn -1 0 0
vn 0 0 -1
vn 0 0 -1
vn 0 0 -1
vn 0 0 -1
vn 1 0 0
vn 1 0 0
vn 1 0 0
vn 1 0 0
vn 0 0 -1
vn 0 0 -1
vn 0 0 -1
vn 0 0 -1
vn 1 0 0
vn 1 0 0
vn 1 0 0
vn 1 0 0
vn 0 0 1
vn 0 0 1
vn 0 0 1
vn 0 0 1
vn 1 0 0
vn 1 0 0
vn 1 0 0
vn 1 0 0
vn 0 0 1
vn 0 0 1
vn 0 0 1
vn 0 0 1
vn 0 1 0
vn 0 1 0
vn 0 1 0
vn 0 1 0
vn 0 1 0
vn 0 1 0
vn 0 1 0
vn 0 1 0
vn 0 1 0
vn 1 0 0
vn 1 0 0
vn 1 0 0
vn 1 0 0
vn 0 0 1
vn 0 0 1
vn 0 0 1
vn 0 0 1
vn -1 0 0
vn -1 0 0
vn -1 0 0
vn -1 0 0
vn 0 0 1
vn 0 0 1
vn 0 0 1
vn 0 0 1
vn -1 0 0
vn -1 0 0
vn -1 0 0
vn -1 0 0
vn 0 0 -1
vn 0 0 -1
vn 0 0 -1
vn 0 0 -1
vn -1 0 0
vn -1 0 0
vn -1 0 0
vn -1 0 0
vn 0 0 -1
vn 0 0 -1
vn 0 0 -1
vn 0 0 -1
vn 0 1 0
vn 0 1 0
vn 0 1 0
vn 0 1 0
vn 0 1 0
vn 0 1 0
vn 0 1 0
vn 0 1 0
vn 0 1 0
vn -1 0 0
vn -1 0 0
vn -1 0 0
vn -1 0 0
vn 0 0 -1
vn 0 0 -1
vn 0 0 -1
vn 0 0 -1
vn 1 0 0
vn 1 0 0
vn 1 0 0
vn 1 0 0
vn 0 0 -1
vn 0 0 -1
vn 0 0 -1
vn 0 0 -1
vn 1 0 0
vn 1 0 0
vn 1 0 0
vn 1 0 0
vn 0 0 1
vn 0 0 1
vn 0 0 1
vn 0 0 1
vn 1 0 0
vn 1 0 0
vn 1 0 0
vn 1 0 0
vn 0 0 1
vn 0 0 1
vn 0 0 1
vn 0 0 1
vn 0 1 0
vn 0 1 0
vn 0 1 0
vn 0 1 0
vn 0 1 0
vn 0 1 0
vn 0 1 0
vn 0 1 0
vn 0 1 0
vn 1 0 0
vn 1 0 0
vn 1 0 0
vn 1 0 0
vn 0 0 1
vn 0 0 1
vn 0 0 1
vn 0 0 1
vn -1 0 0
vn -1 0 0
vn -1 0 0
vn -1 0 0
vn 0 0 1
vn 0 0 1
vn 0 0 1
vn 0 0 1
vn -1 0 0
vn -1 0 0
vn -1 0 0
vn -1 0 0
vn 0 0 -1
vn 0 0 -1
vn 0 0 -1
vn 0 0 -1
vn -1 0 0
vn -1 0 0
vn -1 0 0
vn -1 0 0
vn 0 0 -1
vn 0 0 -1
vn 0 0 -1
vn 0 0 -1
vn 0 1 0
vn 0 1 0
vn 0 1 0
vn 0 1 0
vn 0 1 0
vn 0 1 0
vn 0 1 0
vn 0 1 0
vn 0 1 0
vn 0 0 1
vn 0 0 1
vn 0 0 1
vn 0 0 1
vn -1 0 0
vn -1 0 0
vn -1 0 0
vn -1 0 0
vn 0 0 -1
vn 0 0 -1
vn 0 0 -1
vn 0 0 -1
vn 1 0 0
vn 1 0 0
vn 1 0 0
vn 1 0 0
vn 0 1 0
vn 0 1 0
vn 0 1 0
vn 0 1 0
vn 0 -1 0
vn 0 -1 0
vn 0 -1 0
vn 0 -1 0

vt 33 0
vt 0 0
vt 33 8
vt 0 8
vt 46 8
vt 0 0
vt 0 8
vt 46 0
vt 33 8
vt 0 0
vt 0 8
vt 33 0
vt 46 8
vt 0 0
vt 0 8
vt 46 0
vt 1 0
vt 0 0
vt 1 3
vt 0 3
vt 5 0
vt 0 0
vt 5 3
vt 0 3
vt 1 0
vt 0 0
vt 1 3
vt 0 3
vt 5 0
vt 0 0
vt 5 3
vt 0 3
vt 0 5
vt 1 5
vt 0 0
vt 1 0
vt 1 0
vt 0 0
vt 1 5
vt 0 5
vt 6 0
vt 0 0
vt 6 3
vt 0 3
vt 0 0
vt 1 3
vt 1 0
vt 0 3
vt 0 0
vt 2 3
vt 2 0
vt 0 3
vt 0 0
vt 2 3
vt 2 0
vt 0 3
vt 0 0
vt 1 3
vt 1 0
vt 0 3
vt 0 0
vt 2 3
vt 2 0
vt 0 3
vt 0 0
vt 3 3
vt 3 0
vt 0 3
vt 0 0
vt 1 3
vt 1 0
vt 0 3
vt 3 6
vt 2 3
vt 2 6
vt 3 0
vt 2 0
vt 0 3
vt 2 2
vt 0 2
vt 2 3
vt 6 0
vt 0 0
vt 6 3
vt 0 3
vt 0 0
vt 1 3
vt 1 0
vt 0 3
vt 0 0
vt 3 3
vt 3 0
vt 0 3
vt 0 0
vt 2 3
vt 2 0
vt 0 3
vt 0 0
vt 1 3
vt 1 0
vt 0 3
vt 0 0
vt 2 3
vt 2 0
vt 0 3
vt 0 0
vt 2 3
vt 2 0
vt 0 3
vt 0 0
vt 1 3
vt 1 0
vt 0 3
vt 0 0
vt 1 2
vt 1 0
vt 0 6
vt 1 6
vt 3 2
vt 1 3
vt 3 3
vt 1 2
vt 6 0
vt 0 0
vt 6 3
vt 0 3
vt 0 0
vt 1 3
vt 1 0
vt 0 3
vt 0 0
vt 3 3
vt 3 0
vt 0 3
vt 0 0
vt 2 3
vt 2 0
vt 0 3
vt 0 0
vt 1 3
vt 1 0
vt 0 3
vt 0 0
vt 2 3
vt 2 0
vt 0 3
vt 0 0
vt 2 3
vt 2 0
vt 0 3
vt 0 0
vt 1 3
vt 1 0
vt 0 3
vt 3 6
vt 2 4
vt 2 6
vt 3 0
vt 2 0
vt 0 4
vt 2 3
vt 0 3
vt 2 4
vt 6 0
vt 0 0
vt 6 3
vt 0 3
vt 0 0
vt 1 3
vt 1 0
vt 0 3
vt 0 0
vt 2 3
vt 2 0
vt 0 3
vt 0 0
vt 2 3
vt 2 0
vt 0 3
vt 0 0
vt 1 3
vt 1 0
vt 0 3
vt 0 0
vt 2 3
vt 2 0
vt 0 3
vt 0 0
vt 3 3
vt 3 0
vt 0 3
vt 0 0
vt 1 3
vt 1 0
vt 0 3
vt 0 0
vt 1 3
vt 1 0
vt 0 6
vt 1 6
vt 3 3
vt 1 4
vt 3 4
vt 1 3
vt 1 0
vt 0 0
vt 1 3
vt 0 3
vt 5 0
vt 0 0
vt 5 3
vt 0 3
vt 1 0
vt 0 0
vt 1 3
vt 0 3
vt 5 0
vt 0 0
vt 5 3
vt 0 3
vt 0 5
vt 1 5
vt 0 0
vt 1 0
vt 1 0
vt 0 0
vt 1 5
vt 0 5

g Wall_552_10
usemtl Wall_552_10
usemap Wall_552_10
f 1/1/1 3/3/3 2/2/2
f 2/2/2 3/3/3 4/4/4
f 5/5/5 7/7/7 6/6/6
f 5/5/5 6/6/6 8/8/8
f 9/9/9 11/11/11 10/10/10
f 9/9/9 10/10/10 12/12/12
f 13/13/13 15/15/15 14/14/14
f 13/13/13 14/14/14 16/16/16
f 17/17/17 19/19/19 18/18/18
f 18/18/18 19/19/19 20/20/20
f 21/21/21 23/23/23 22/22/22
f 22/22/22 23/23/23 24/24/24
f 25/25/25 27/27/27 26/26/26
f 26/26/26 27/27/27 28/28/28
f 29/29/29 31/31/31 30/30/30
f 30/30/30 31/31/31 32/32/32
f 33/33/33 35/35/35 34/34/34
f 34/34/34 35/35/35 36/36/36
f 37/37/37 39/39/39 38/38/38
f 38/38/38 39/39/39 40/40/40
f 41/41/41 43/43/43 42/42/42
f 42/42/42 43/43/43 44/44/44
f 45/45/45 47/47/47 46/46/46
f 45/45/45 46/46/46 48/48/48
f 49/49/49 51/51/51 50/50/50
f 49/49/49 50/50/50 52/52/52
f 53/53/53 55/55/55 54/54/54
f 53/53/53 54/54/54 56/56/56
f 57/57/57 59/59/59 58/58/58
f 57/57/57 58/58/58 60/60/60
f 61/61/61 63/63/63 62/62/62
f 61/61/61 62/62/62 64/64/64
f 65/65/65 67/67/67 66/66/66
f 65/65/65 66/66/66 68/68/68
f 69/69/69 71/71/71 70/70/70
f 69/69/69 70/70/70 72/72/72
f 73/73/73 75/75/75 74/74/74
f 73/73/73 74/74/74 76/76/76
f 74/74/74 77/77/77 76/76/76
f 78/78/78 80/80/80 79/79/79
f 78/78/78 79/79/79 81/81/81
f 82/82/82 84/84/84 83/83/83
f 83/83/83 84/84/84 85/85/85
f 86/86/86 88/88/88 87/87/87
f 86/86/86 87/87/87 89/89/89
f 90/90/90 92/92/92 91/91/91
f 90/90/90 91/91/91 93/93/93
f 94/94/94 96/96/96 95/95/95
f 94/94/94 95/95/95 97/97/97
f 98/98/98 100/100/100 99/99/99
f 98/98/98 99/99/99 101/101/101
f 102/102/102 104/104/104 103/103/103
f 102/102/102 103/103/103 105/105/105
f 106/106/106 108/108/108 107/107/107
f 106/106/106 107/107/107 109/109/109
f 110/110/110 112/112/112 111/111/111
f 110/110/110 111/111/111 113/113/113
f 114/114/114 116/116/116 115/115/115
f 114/114/114 115/115/115 117/117/117
f 115/115/115 118/118/118 117/117/117
f 119/119/119 121/121/121 120/120/120
f 119/119/119 120/120/120 122/122/122
f 123/123/123 125/125/125 124/124/124
f 124/124/124 125/125/125 126/126/126
f 127/127/127 129/129/129 128/128/128
f 127/127/127 128/128/128 130/130/130
f 131/131/131 133/133/133 132/132/132
f 131/131/131 132/132/132 134/134/134
f 135/135/135 137/137/137 136/136/136
f 135/135/135 136/136/136 138/138/138
f 139/139/139 141/141/141 140/140/140
f 139/139/139 140/140/140 142/142/142
f 143/143/143 145/145/145 144/144/144
f 143/143/143 144/144/144 146/146/146
f 147/147/147 149/149/149 148/148/148
f 147/147/147 148/148/148 150/150/150
f 151/151/151 153/153/153 152/152/152
f 151/151/151 152/152/152 154/154/154
f 155/155/155 157/157/157 156/156/156
f 155/155/155 156/156/156 158/158/158
f 156/156/156 159/159/159 158/158/158
f 160/160/160 162/162/162 161/161/161
f 160/160/160 161/161/161 163/163/163
f 164/164/164 166/166/166 165/165/165
f 165/165/165 166/166/166 167/167/167
f 168/168/168 170/170/170 169/169/169
f 168/168/168 169/169/169 171/171/171
f 172/172/172 174/174/174 173/173/173
f 172/172/172 173/173/173 175/175/175
f 176/176/176 178/178/178 177/177/177
f 176/176/176 177/177/177 179/179/179
f 180/180/180 182/182/182 181/181/181
f 180/180/180 181/181/181 183/183/183
f 184/184/184 186/186/186 185/185/185
f 184/184/184 185/185/185 187/187/187
f 188/188/188 190/190/190 189/189/189
f 188/188/188 189/189/189 191/191/191
f 192/192/192 194/194/194 193/193/193
f 192/192/192 193/193/193 195/195/195
f 196/196/196 198/198/198 197/197/197
f 196/196/196 197/197/197 199/199/199
f 197/197/197 200/200/200 199/199/199
f 201/201/201 203/203/203 202/202/202
f 201/201/201 202/202/202 204/204/204
f 205/205/205 207/207/207 206/206/206
f 206/206/206 207/207/207 208/208/208
f 209/209/209 211/211/211 210/210/210
f 210/210/210 211/211/211 212/212/212
f 213/213/213 215/215/215 214/214/214
f 214/214/214 215/215/215 216/216/216
f 217/217/217 219/219/219 218/218/218
f 218/218/218 219/219/219 220/220/220
f 221/221/221 223/223/223 222/222/222
f 222/222/222 223/223/223 224/224/224
f 225/225/225 227/227/227 226/226/226
f 226/226/226 227/227/227 228/228/228
