#Wall-detach_956_43.obj

v -56 4 -27
v -56 8 -27
v -60 4 -27
v -60 8 -27
v -56 8 -39
v -56 4 -39
v -60 8 -39
v -60 4 -39
v -61 8 -39
v -60 8 -39
v -61 0 -39
v -60 4 -39
v -60 0 -39
v -56 8 -39
v -55 8 -39
v -56 4 -39
v -55 0 -39
v -56 0 -39
v -60 8 -27
v -61 8 -27
v -60 4 -27
v -61 0 -27
v -60 0 -27
v -61 8 -27
v -61 8 -39
v -61 0 -27
v -61 0 -39
v -55 8 -27
v -56 8 -27
v -55 0 -27
v -56 4 -27
v -56 0 -27
v -55 0 -39
v -55 8 -39
v -55 0 -27
v -55 8 -27

vn 0 0 -1
vn 0 0 -1
vn 0 0 -1
vn 0 0 -1
vn 0 0 1
vn 0 0 1
vn 0 0 1
vn 0 0 1
vn 0 0 1
vn 0 0 1
vn 0 0 1
vn 0 0 1
vn 0 0 1
vn 0 0 1
vn 0 0 1
vn 0 0 1
vn 0 0 1
vn 0 0 1
vn 0 0 -1
vn 0 0 -1
vn 0 0 -1
vn 0 0 -1
vn 0 0 -1
vn 1 0 0
vn 1 0 0
vn 1 0 0
vn 1 0 0
vn 0 0 -1
vn 0 0 -1
vn 0 0 -1
vn 0 0 -1
vn 0 0 -1
vn -1 0 0
vn -1 0 0
vn -1 0 0
vn -1 0 0

vt 0 0
vt 0 4
vt 4 0
vt 4 4
vt 4 4
vt 4 0
vt 0 4
vt 0 0
vt 6.854534E-07 8
vt 1.000001 8
vt -7.152557E-07 0
vt 1 4
vt 0.9999993 0
vt 6.854534E-07 8
vt 1.000001 8
vt 0 4
vt 0.9999993 0
vt -7.152557E-07 0
vt 6.854534E-07 8
vt 1.000001 8
vt 0 4
vt 0.9999993 0
vt -7.152557E-07 0
vt -0.001379967 7.99793
vt 11.99862 8.002069
vt 0.001380444 -0.00206995
vt 12.00138 0.002070665
vt 6.854534E-07 8
vt 1.000001 8
vt -7.152557E-07 0
vt 1 4
vt 0.9999993 0
vt 0.001380444 -0.00206995
vt -0.001379967 7.99793
vt 12.00138 0.002070665
vt 11.99862 8.002069

g Wall-detach_956_43
usemtl Wall-detach_956_43
usemap Wall-detach_956_43
f 1/1/1 3/3/3 2/2/2
f 2/2/2 3/3/3 4/4/4
f 5/5/5 7/7/7 6/6/6
f 6/6/6 7/7/7 8/8/8
f 9/9/9 11/11/11 10/10/10
f 10/10/10 11/11/11 12/12/12
f 12/12/12 11/11/11 13/13/13
f 14/14/14 16/16/16 15/15/15
f 15/15/15 16/16/16 17/17/17
f 17/17/17 16/16/16 18/18/18
f 19/19/19 21/21/21 20/20/20
f 20/20/20 21/21/21 22/22/22
f 22/22/22 21/21/21 23/23/23
f 24/24/24 26/26/26 25/25/25
f 25/25/25 26/26/26 27/27/27
f 28/28/28 30/30/30 29/29/29
f 29/29/29 30/30/30 31/31/31
f 31/31/31 30/30/30 32/32/32
f 33/33/33 35/35/35 34/34/34
f 34/34/34 35/35/35 36/36/36
