#Wall-detach_669_29.obj

v -51 8 -56
v -61 -6 -56
v -61 8 -56
v -51 -6 -56
v -51 8 -70
v -51 -6 -56
v -51 8 -56
v -51 -6 -70
v -42 8 -70
v -51 -6 -70
v -51 8 -70
v -42 -6 -70
v -42 8 -71
v -42 -6 -70
v -42 8 -70
v -42 -6 -71
v -27 8 -71
v -42 -6 -71
v -42 8 -71
v -27 -6 -71

vn 0 0 1
vn 0 0 1
vn 0 0 1
vn 0 0 1
vn 1 0 0
vn 1 0 0
vn 1 0 0
vn 1 0 0
vn 0 0 1
vn 0 0 1
vn 0 0 1
vn 0 0 1
vn 1 0 0
vn 1 0 0
vn 1 0 0
vn 1 0 0
vn 0 0 1
vn 0 0 1
vn 0 0 1
vn 0 0 1

vt 10 14
vt 0 0
vt 0 14
vt 10 0
vt 14.00242 13.99758
vt -0.002416611 0.002417088
vt 0.002417088 14.00242
vt 13.99758 -0.002416611
vt 9.000002 14
vt -1.430511E-06 9.536743E-07
vt 1.430511E-06 14
vt 8.999998 -9.536743E-07
vt 1.000001 14
vt -1.251698E-06 0
vt 1.221895E-06 14
vt 0.9999988 0
vt 15.00242 13.99741
vt -0.002416611 0.002589703
vt 0.002417088 14.00259
vt 14.99758 -0.002589226

g Wall-detach_669_29
usemtl Wall-detach_669_29
usemap Wall-detach_669_29
f 1/1/1 3/3/3 2/2/2
f 1/1/1 2/2/2 4/4/4
f 5/5/5 7/7/7 6/6/6
f 5/5/5 6/6/6 8/8/8
f 9/9/9 11/11/11 10/10/10
f 9/9/9 10/10/10 12/12/12
f 13/13/13 15/15/15 14/14/14
f 13/13/13 14/14/14 16/16/16
f 17/17/17 19/19/19 18/18/18
f 17/17/17 18/18/18 20/20/20
