#Wall_794_1.obj

v -31 0 -74
v -31 0 -4
v -35 0 -74
v -35 0 0
v -4 0 -4
v -35 0 0
v -31 0 -4
v 0 0 0
v -4 0 -57
v 0 0 0
v -4 0 -4
v 0 0 -57

vn 0 1 0
vn 0 1 0
vn 0 1 0
vn 0 1 0
vn 0 1 0
vn 0 1 0
vn 0 1 0
vn 0 1 0
vn 0 0.9999999 0
vn 0 0.9999999 0
vn 0 1 0
vn 0 1 0

vt 0 0
vt 0 70
vt 4 0
vt 4 74
vt 4 0
vt 35 4
vt 31 0
vt 0 4
vt 4 0
vt 0 57
vt 4 53
vt 0 0

g Wall_794_1
usemtl Wall_794_1
usemap Wall_794_1
f 1/1/1 3/3/3 2/2/2
f 2/2/2 3/3/3 4/4/4
f 5/5/5 7/7/7 6/6/6
f 5/5/5 6/6/6 8/8/8
f 9/9/9 11/11/11 10/10/10
f 9/9/9 10/10/10 12/12/12
