#Wall-detach_732_24.obj

v 2 4 -2
v 2 0 3
v 2 4 3
v 2 0 -2
v 123 4 -2
v 2 0 -2
v 2 4 -2
v 123 0 -2
v 123 4 3
v 123 0 -2
v 123 4 -2
v 123 0 3

vn 1 0 0
vn 1 0 0
vn 1 0 0
vn 1 0 0
vn 0 0 0.9999999
vn 0 0 0.9999999
vn 0 0 0.9999999
vn 0 0 0.9999999
vn -1 0 0
vn -1 0 0
vn -1 0 0
vn -1 0 0

vt 5 4
vt 0 0
vt 0 4
vt 5 0
vt 121 4
vt 0 0
vt 0 4
vt 121 0
vt 5 4
vt 0 0
vt 0 4
vt 5 0

g Wall-detach_732_24
usemtl Wall-detach_732_24
usemap Wall-detach_732_24
f 1/1/1 3/3/3 2/2/2
f 1/1/1 2/2/2 4/4/4
f 5/5/5 7/7/7 6/6/6
f 5/5/5 6/6/6 8/8/8
f 9/9/9 11/11/11 10/10/10
f 9/9/9 10/10/10 12/12/12
