#Wall-detach_681_18.obj

v 50 5 16
v 51 6 18
v 50 6 18
v 51 5 16
v 50 5 12
v 51 5 16
v 50 5 16
v 51 5 12
v 50 6 10
v 51 5 12
v 50 5 12
v 51 6 10
v 50 6 9
v 51 6 10
v 50 6 10
v 51 6 9

vn 0 0.8944272 -0.4472136
vn 0 0.8944272 -0.4472136
vn 0 0.8944272 -0.4472136
vn 0 0.8944272 -0.4472136
vn 0 1 0
vn 0 1 0
vn 0 1 0
vn 0 1 0
vn 0 0.8944272 0.4472136
vn 0 0.8944272 0.4472136
vn 0 0.8944272 0.4472136
vn 0 0.8944272 0.4472136
vn 0 1 0
vn 0 1 0
vn 0 1 0
vn 0 1 0

vt 1 1.907349E-06
vt 0 2.236069
vt 1 2.236069
vt 0 1.907349E-06
vt 1 0
vt 0 4
vt 1 4
vt 0 0
vt 1 0
vt 0 2.236068
vt 1 2.236068
vt 0 0
vt 1 0
vt 0 1
vt 1 1
vt 0 0

g Wall-detach_681_18
usemtl Wall-detach_681_18
usemap Wall-detach_681_18
f 1/1/1 3/3/3 2/2/2
f 1/1/1 2/2/2 4/4/4
f 5/5/5 7/7/7 6/6/6
f 5/5/5 6/6/6 8/8/8
f 9/9/9 11/11/11 10/10/10
f 9/9/9 10/10/10 12/12/12
f 13/13/13 15/15/15 14/14/14
f 13/13/13 14/14/14 16/16/16
