#Wall-detach_1194_48.obj

v 55 -7 1
v 56 -2 1
v 56 -7 1
v 55 -2 1
v 56 -7 -7
v 56 -2 -7
v 57 -2 -7
v 57 -7 -7
v 57 -2 -8
v 57 -3 -8
v 57 -2 -7
v 57 -7 -8
v 57 -7 -7
v 56 -7 -7
v 56 -7 -4
v 56 -3 -4
v 56 -2 -7
v 56 -2 -4
v 56 -7 0
v 56 -7 1
v 56 -3 0
v 56 -2 1
v 56 -2 0
v 56 -2 -4
v 56 -3 0
v 56 -2 0
v 56 -3 -4
v 65 -2 -7
v 65 -7 -7
v 65 -3 -8
v 65 -2 -8
v 65 -7 -8
v 66 -2 -7
v 65 -7 -7
v 65 -2 -7
v 66 -7 -7
v 47 -3 -4
v 51 -3 -4
v 51 -3 -5
v 47 -3 -5

vn 0 0 1
vn 0 0 1
vn 0 0 1
vn 0 0 1
vn 0 0 1
vn 0 0 1
vn 0 0 1
vn 0 0 1
vn 1 0 0
vn 1 0 0
vn 1 0 0
vn 1 0 0
vn 1 0 0
vn 1 0 0
vn 1 0 0
vn 1 0 0
vn 1 0 0
vn 1 0 0
vn 1 0 0
vn 1 0 0
vn 1 0 0
vn 1 0 0
vn 1 0 0
vn 1 0 0
vn 1 0 0
vn 1 0 0
vn 1 0 0
vn -1 0 0
vn -1 0 0
vn -1 0 0
vn -1 0 0
vn -1 0 0
vn 0 0 1
vn 0 0 1
vn 0 0 1
vn 0 0 1
vn 0 -1 0
vn 0 -1 0
vn 0 -1 0
vn 0 -1 0

vt 0 0
vt 1 5
vt 1 0
vt 0 5
vt 0 0
vt 0 5
vt 1 5
vt 1 0
vt 1 5
vt 1 4
vt 0 5
vt 1 0
vt 0 0
vt 3 0
vt 0 0
vt 0 4
vt 3 5
vt 0 5
vt 1 0
vt 0 0
vt 1 4
vt 0 5
vt 1 5
vt 4 1
vt 0 0
vt 0 1
vt 4 0
vt 1 5
vt 1 0
vt 0 4
vt 0 5
vt 0 0
vt 1 5
vt 0 0
vt 0 5
vt 1 0
vt 0 1
vt 4 1
vt 4 0
vt 0 0

g Wall-detach_1194_48
usemtl Wall-detach_1194_48
usemap Wall-detach_1194_48
f 1/1/1 3/3/3 2/2/2
f 1/1/1 2/2/2 4/4/4
f 5/5/5 7/7/7 6/6/6
f 8/8/8 7/7/7 5/5/5
f 9/9/9 11/11/11 10/10/10
f 12/12/12 11/11/11 13/13/13
f 10/10/10 11/11/11 12/12/12
f 14/14/14 16/16/16 15/15/15
f 17/17/17 18/18/18 14/14/14
f 14/14/14 18/18/18 16/16/16
f 19/19/19 21/21/21 20/20/20
f 20/20/20 21/21/21 22/22/22
f 21/21/21 23/23/23 22/22/22
f 24/24/24 26/26/26 25/25/25
f 24/24/24 25/25/25 27/27/27
f 28/28/28 30/30/30 29/29/29
f 31/31/31 30/30/30 28/28/28
f 29/29/29 30/30/30 32/32/32
f 33/33/33 35/35/35 34/34/34
f 33/33/33 34/34/34 36/36/36
f 37/37/37 39/39/39 38/38/38
f 40/40/40 39/39/39 37/37/37
