#Wall-detach_732_25.obj

v 2 0 6
v 2 4 3
v 2 0 3
v 2 4 6
v 2 0 7
v 2 4 6
v 2 0 6
v 2 4 7
v 2 -6 3
v 2 0 6
v 2 0 3
v 2 -6 6

vn 1 0 0
vn 1 0 0
vn 1 0 0
vn 1 0 0
vn 1 0 0
vn 1 0 0
vn 1 0 0
vn 1 0 0
vn 1 0 0
vn 1 0 0
vn 1 0 0
vn 1 0 0

vt 0 0
vt 3 4
vt 3 0
vt 0 4
vt 0 0
vt 1 4
vt 1 0
vt 0 4
vt 3 0
vt 0 6
vt 3 6
vt 0 0

g Wall-detach_732_25
usemtl Wall-detach_732_25
usemap Wall-detach_732_25
f 1/1/1 3/3/3 2/2/2
f 1/1/1 2/2/2 4/4/4
f 5/5/5 7/7/7 6/6/6
f 5/5/5 6/6/6 8/8/8
f 9/9/9 11/11/11 10/10/10
f 9/9/9 10/10/10 12/12/12
