#Wall-detach_885_62.obj

v -18 -6 -11
v -26 -6 -11
v -18 0 -11
v -26 0 -11
v -26 -6 -10
v -26 -1 -11
v -26 -6 -11
v -26 -1 -10
v -27 -6 -10
v -26 -1 -10
v -26 -6 -10
v -27 -1 -10
v -18 0 -13
v -18 -6 -11
v -18 0 -11
v -18 -6 -13
v -26 -6 -6
v -13 0 -6
v -26 0 -6
v -13 -6 -6
v -26 -1 -7
v -26 -6 -6
v -26 -1 -6
v -26 -6 -7
v -27 -1 -7
v -26 -6 -7
v -26 -1 -7
v -27 -6 -7
v -26 0 -6
v -26 -1 -7
v -26 -1 -6
v -26 0 -7
v -26 0 -10
v -26 -1 -11
v -26 -1 -10
v -26 0 -11
v -26 -1 -7
v -26 0 -10
v -26 -1 -10
v -26 0 -7
v -13 -6 -11
v -13 0 -6
v -13 -6 -6
v -13 0 -11
v -15 -6 -11
v -13 0 -11
v -13 -6 -11
v -15 0 -11
v -15 -6 -13
v -15 0 -11
v -15 -6 -11
v -15 0 -13
v -15 0 -11
v -18 0 -13
v -18 0 -11
v -15 0 -13
v -26 0 -10
v -13 0 -6
v -13 0 -11
v -26 0 -7
v -26 0 -11
v -26 0 -6

vn 0 0 1
vn 0 0 1
vn 0 0 1
vn 0 0 1
vn 1 0 0
vn 1 0 0
vn 1 0 0
vn 1 0 0
vn 0 0 1
vn 0 0 1
vn 0 0 1
vn 0 0 1
vn 1 0 0
vn 1 0 0
vn 1 0 0
vn 1 0 0
vn 0 0 -1
vn 0 0 -1
vn 0 0 -1
vn 0 0 -1
vn 1 0 0
vn 1 0 0
vn 1 0 0
vn 1 0 0
vn 0 0 -1
vn 0 0 -1
vn 0 0 -1
vn 0 0 -1
vn 1 0 0
vn 1 0 0
vn 1 0 0
vn 1 0 0
vn 1 0 0
vn 1 0 0
vn 1 0 0
vn 1 0 0
vn 1 0 0
vn 1 0 0
vn 1 0 0
vn 1 0 0
vn -1 0 0
vn -1 0 0
vn -1 0 0
vn -1 0 0
vn 0 0 1
vn 0 0 1
vn 0 0 1
vn 0 0 1
vn -1 0 0
vn -1 0 0
vn -1 0 0
vn -1 0 0
vn 0 -1 0
vn 0 -1 0
vn 0 -1 0
vn 0 -1 0
vn 0 -1 0
vn 0 -1 0
vn 0 -1 0
vn 0 -1 0
vn 0 -1 0
vn 0 -1 0

vt 8 0
vt 0 0
vt 8 6
vt 0 6
vt -4.172325E-07 0
vt 1 5
vt 0.9999995 0
vt 4.470348E-07 5
vt -4.172325E-07 0
vt 1 5
vt 0.9999995 0
vt 4.470348E-07 5
vt 2.001036 5.999655
vt -0.00103569 0.0003454685
vt 0.001035869 6.000345
vt 1.998964 -0.0003449917
vt 12.99896 -0.002243996
vt 0.001036167 6.002244
vt 13.00104 5.997756
vt -0.001035213 0.002244473
vt 1 5
vt -4.172325E-07 0
vt 4.470348E-07 5
vt 0.9999995 0
vt 1 5
vt -4.172325E-07 0
vt 4.470348E-07 5
vt 0.9999995 0
vt 0.0001726747 1.000173
vt 0.9998273 -0.0001726151
vt -0.0001726151 0.0001726747
vt 1.000173 0.9998273
vt 0.0001726747 1.000173
vt 0.9998273 -0.0001726151
vt -0.0001726151 0.0001726747
vt 1.000173 0.9998273
vt 0.0001726151 -0.0005175471
vt 2.999827 1.000518
vt 3.000173 0.0005176067
vt -0.0001724958 0.9994824
vt 0 0
vt 5 6
vt 5 0
vt 0 6
vt -0.00103569 0.0003454685
vt 2.001036 5.999655
vt 1.998964 -0.0003449917
vt 0.001035869 6.000345
vt -0.00103569 0.0003454685
vt 2.001036 5.999655
vt 1.998964 -0.0003449917
vt 0.001035869 6.000345
vt 3 2
vt 0 0
vt 0 2
vt 3 0
vt -0.0007314682 1.003174
vt 13.00122 4.996826
vt 12.99878 -0.00317359
vt 0.0007333755 4.003174
vt -0.001219749 0.003174067
vt 0.001221657 5.003174

g Wall-detach_885_62
usemtl Wall-detach_885_62
usemap Wall-detach_885_62
f 1/1/1 3/3/3 2/2/2
f 2/2/2 3/3/3 4/4/4
f 5/5/5 7/7/7 6/6/6
f 5/5/5 6/6/6 8/8/8
f 9/9/9 11/11/11 10/10/10
f 9/9/9 10/10/10 12/12/12
f 13/13/13 15/15/15 14/14/14
f 13/13/13 14/14/14 16/16/16
f 17/17/17 19/19/19 18/18/18
f 17/17/17 18/18/18 20/20/20
f 21/21/21 23/23/23 22/22/22
f 21/21/21 22/22/22 24/24/24
f 25/25/25 27/27/27 26/26/26
f 25/25/25 26/26/26 28/28/28
f 29/29/29 31/31/31 30/30/30
f 29/29/29 30/30/30 32/32/32
f 33/33/33 35/35/35 34/34/34
f 33/33/33 34/34/34 36/36/36
f 37/37/37 39/39/39 38/38/38
f 37/37/37 38/38/38 40/40/40
f 41/41/41 43/43/43 42/42/42
f 41/41/41 42/42/42 44/44/44
f 45/45/45 47/47/47 46/46/46
f 45/45/45 46/46/46 48/48/48
f 49/49/49 51/51/51 50/50/50
f 49/49/49 50/50/50 52/52/52
f 53/53/53 55/55/55 54/54/54
f 53/53/53 54/54/54 56/56/56
f 57/57/57 59/59/59 58/58/58
f 57/57/57 58/58/58 60/60/60
f 57/57/57 61/61/61 59/59/59
f 62/62/62 60/60/60 58/58/58
