#Wall-detach_665_30.obj

v 8 8 9
v -1 8 10
v 0 8 9
v 8 8 10
v 8 4 9
v 8 8 10
v 8 8 9
v 8 4 10
v 14 4 9
v 8 4 10
v 8 4 9
v 14 4 10
v 18 6 9
v 14 4 10
v 14 4 9
v 18 6 10
v 28 6 9
v 18 6 10
v 18 6 9
v 28 6 10
v 28 4 9
v 28 6 10
v 28 6 9
v 28 4 10

vn 0 1 0
vn 0 1 0
vn 0 1 0
vn 0 1 0
vn 1 0 0
vn 1 0 0
vn 1 0 0
vn 1 0 0
vn 0 1 0
vn 0 1 0
vn 0 1 0
vn 0 1 0
vn -0.4472136 0.8944272 0
vn -0.4472136 0.8944272 0
vn -0.4472136 0.8944272 0
vn -0.4472136 0.8944272 0
vn 0 1 0
vn 0 1 0
vn 0 1 0
vn 0 1 0
vn 1 0 0
vn 1 0 0
vn 1 0 0
vn 1 0 0

vt 0 0
vt 9 1
vt 8 0
vt 0 1
vt 1 0
vt 0 4
vt 1 4
vt 0 0
vt 0 0
vt 6 1
vt 6 0
vt 0 1
vt 0 0
vt 4.472136 1
vt 4.472136 0
vt 0 1
vt 0 0
vt 10 1
vt 10 0
vt 0 1
vt 1 0
vt 0 2
vt 1 2
vt 0 0

g Wall-detach_665_30
usemtl Wall-detach_665_30
usemap Wall-detach_665_30
f 1/1/1 3/3/3 2/2/2
f 1/1/1 2/2/2 4/4/4
f 5/5/5 7/7/7 6/6/6
f 5/5/5 6/6/6 8/8/8
f 9/9/9 11/11/11 10/10/10
f 9/9/9 10/10/10 12/12/12
f 13/13/13 15/15/15 14/14/14
f 13/13/13 14/14/14 16/16/16
f 17/17/17 19/19/19 18/18/18
f 17/17/17 18/18/18 20/20/20
f 21/21/21 23/23/23 22/22/22
f 21/21/21 22/22/22 24/24/24
