#Wall-detach_658_61.obj

v 66 6 -5
v 66 -7 1
v 66 6 1
v 66 7 -7
v 66 7 -11
v 66 -7 -19
v 66 8 -13
v 66 -7 -19
v 66 7 -11
v 66 8 -15
v 66 -7 -19
v 66 8 -13
v 66 8 -19
v 66 -7 -19
v 66 8 -15

vn 1 0 0
vn 1 0 0
vn 1 0 0
vn 1 0 0
vn 1 0 0
vn 1 0 0
vn 1 0 0
vn 1 0 0
vn 1 0 0
vn 1 0 0
vn 1 0 0
vn 1 0 0
vn 1 0 0
vn 1 0 0
vn 1 0 0

vt 6 13
vt 0 0
vt 0 13
vt 8 14
vt 12 14
vt 20 0
vt 2 15
vt 8 0
vt 0 14
vt 2 15
vt 6 0
vt 0 15
vt 4 15
vt 4 0
vt 0 15

g Wall-detach_658_61
usemtl Wall-detach_658_61
usemap Wall-detach_658_61
f 1/1/1 3/3/3 2/2/2
f 4/4/4 1/1/1 2/2/2
f 5/5/5 4/4/4 2/2/2
f 5/5/5 2/2/2 6/6/6
f 7/7/7 9/9/9 8/8/8
f 10/10/10 12/12/12 11/11/11
f 13/13/13 15/15/15 14/14/14
