#Wall-detach_667_65.obj

v -1 4 1
v 0 4 -6
v 0 4 1
v -1 4 -6
v -1 4 -6
v 0 3 -8
v 0 4 -6
v -1 3 -8
v -1 3 -19
v 0 3 -8
v -1 3 -8
v 0 3 -17

vn 0 1 0
vn 0 1 0
vn 0 1 0
vn 0 1 0
vn 0 0.8944272 -0.4472136
vn 0 0.8944272 -0.4472136
vn 0 0.8944272 -0.4472136
vn 0 0.8944272 -0.4472136
vn 0 1 0
vn 0 1 0
vn 0 1 0
vn 0 1 0

vt 1 7
vt 0 0
vt 0 7
vt 1 0
vt 1 2.236068
vt 0 0
vt 0 2.236068
vt 1 0
vt 1 0
vt 0 11
vt 1 11
vt 0 2

g Wall-detach_667_65
usemtl Wall-detach_667_65
usemap Wall-detach_667_65
f 1/1/1 3/3/3 2/2/2
f 1/1/1 2/2/2 4/4/4
f 5/5/5 7/7/7 6/6/6
f 5/5/5 6/6/6 8/8/8
f 9/9/9 11/11/11 10/10/10
f 9/9/9 10/10/10 12/12/12
