#Wall-detach_688_27.obj

v 53 -6 -17
v 58 6 -17
v 58 -6 -17
v 53 3 -17
v 51 -6 -17
v 53 3 -17
v 53 -6 -17
v 51 3 -17
v 46 -6 -17
v 51 3 -17
v 51 -6 -17
v 46 0 -17
v 38 -6 -17
v 46 0 -17
v 46 -6 -17
v 38 0 -17
v 33 -6 -17
v 38 0 -17
v 38 -6 -17
v 33 3 -17
v 33 3 -17
v 33 -6 -17
v 31 3 -17
v 31 -6 -17

vn 0 0 1
vn 0 0 1
vn 0 0 1
vn 0 0 1
vn 0 0 1
vn 0 0 1
vn 0 0 1
vn 0 0 1
vn 0 0 1
vn 0 0 1
vn 0 0 1
vn 0 0 1
vn 0 0 1
vn 0 0 1
vn 0 0 1
vn 0 0 1
vn 0 0 1
vn 0 0 1
vn 0 0 1
vn 0 0 1
vn 0 0 1
vn 0 0 1
vn 0 0 1
vn 0 0 1

vt 0 0
vt 5 12
vt 5 0
vt 0 9
vt 0 0
vt 2 9
vt 2 0
vt 0 9
vt 0 0
vt 5 9
vt 5 0
vt 0 6
vt 0 0
vt 8 6
vt 8 0
vt 0 6
vt 0 0
vt 5 6
vt 5 0
vt 0 9
vt 2 9
vt 2 0
vt 0 9
vt 0 0

g Wall-detach_688_27
usemtl Wall-detach_688_27
usemap Wall-detach_688_27
f 1/1/1 3/3/3 2/2/2
f 1/1/1 2/2/2 4/4/4
f 5/5/5 7/7/7 6/6/6
f 5/5/5 6/6/6 8/8/8
f 9/9/9 11/11/11 10/10/10
f 9/9/9 10/10/10 12/12/12
f 13/13/13 15/15/15 14/14/14
f 13/13/13 14/14/14 16/16/16
f 17/17/17 19/19/19 18/18/18
f 17/17/17 18/18/18 20/20/20
f 21/21/21 23/23/23 22/22/22
f 22/22/22 23/23/23 24/24/24
