#Wall-detach_676_35.obj

v -68 -6 12
v -68 3 22
v -68 3 12
v -68 -6 22
v -69 -6 22
v -69 3 11
v -69 3 22
v -69 -6 11
v -50 3 12
v -68 -6 12
v -68 3 12
v -50 -6 12
v -51 -6 11
v -69 3 11
v -69 -6 11
v -51 3 11
v -51 -1 5
v -51 3 11
v -51 -1 11
v -51 3 5
v -50 3 5
v -50 1 12
v -50 3 12
v -50 1 5
v -51 3 11
v -50 3 5
v -50 3 12
v -51 3 5
v -68 3 12
v -69 3 22
v -69 3 11
v -68 3 22
v -68 3 12
v -51 3 11
v -50 3 12
v -69 3 11

vn 1 0 0
vn 1 0 0
vn 1 0 0
vn 1 0 0
vn -1 0 0
vn -1 0 0
vn -1 0 0
vn -1 0 0
vn 0 0 1
vn 0 0 1
vn 0 0 1
vn 0 0 1
vn 0 0 -1
vn 0 0 -1
vn 0 0 -1
vn 0 0 -1
vn -1 0 0
vn -1 0 0
vn -1 0 0
vn -1 0 0
vn 1 0 0
vn 1 0 0
vn 1 0 0
vn 1 0 0
vn 0 1 0
vn 0 1 0
vn 0 1 0
vn 0 1 0
vn 0 1 0
vn 0 1 0
vn 0 1 0
vn 0 1 0
vn 0 1 0
vn 0 1 0
vn 0 1 0
vn 0 1 0

vt 9.999999 -9.536743E-07
vt 9.536743E-07 9.000001
vt 10 8.999999
vt -9.536743E-07 9.536743E-07
vt 11 -9.536743E-07
vt 9.536743E-07 9.000001
vt 11 8.999999
vt -9.536743E-07 9.536743E-07
vt 18 9
vt 0 0
vt 0 9
vt 18 0
vt 0 0
vt 18 9
vt 18 0
vt 0 9
vt 0 0
vt 6 4
vt 6 0
vt 0 4
vt 7 2
vt 0 0
vt 0 2
vt 7 0
vt 1.001221 5.999756
vt -0.001708925 0.0002446175
vt 0.001709044 7.000244
vt 0.998291 -0.0002436638
vt 0 1
vt 1 11
vt 1 0
vt 0 11
vt 18 0.9999985
vt 1 1.490116E-06
vt 0 1.000002
vt 19 -1.66893E-06

g Wall-detach_676_35
usemtl Wall-detach_676_35
usemap Wall-detach_676_35
f 1/1/1 3/3/3 2/2/2
f 1/1/1 2/2/2 4/4/4
f 5/5/5 7/7/7 6/6/6
f 5/5/5 6/6/6 8/8/8
f 9/9/9 11/11/11 10/10/10
f 9/9/9 10/10/10 12/12/12
f 13/13/13 15/15/15 14/14/14
f 13/13/13 14/14/14 16/16/16
f 17/17/17 19/19/19 18/18/18
f 17/17/17 18/18/18 20/20/20
f 21/21/21 23/23/23 22/22/22
f 21/21/21 22/22/22 24/24/24
f 25/25/25 27/27/27 26/26/26
f 25/25/25 26/26/26 28/28/28
f 29/29/29 31/31/31 30/30/30
f 29/29/29 30/30/30 32/32/32
f 33/33/33 35/35/35 34/34/34
f 33/33/33 34/34/34 36/36/36
