#Wall-detach_673_28.obj

v -28 5 -63
v -31 5 -63
v -28 5 -64
v -31 5 -64
v -31 4 -63
v -31 5 -64
v -31 5 -63
v -31 4 -64
v -35 4 -63
v -31 4 -64
v -31 4 -63
v -35 4 -64
v -35 3 -63
v -35 4 -64
v -35 4 -63
v -35 3 -64
v -39 3 -63
v -35 3 -64
v -35 3 -63
v -39 3 -64
v -39 2 -63
v -39 3 -64
v -39 3 -63
v -39 2 -64
v -43 2 -63
v -39 2 -64
v -39 2 -63
v -43 2 -64
v -43 1 -63
v -43 2 -64
v -43 2 -63
v -43 1 -64
v -46 1 -63
v -43 1 -64
v -43 1 -63
v -46 1 -64
v -46 -6 -63
v -46 1 -64
v -46 1 -63
v -46 -6 -64
v -46 1 -64
v -46 -6 -64
v -43 1 -64
v -28 -6 -64
v -43 2 -64
v -39 2 -64
v -39 3 -64
v -35 3 -64
v -35 4 -64
v -31 4 -64
v -28 5 -64
v -31 5 -64
v -31 4 -63
v -31 5 -63
v -28 5 -63
v -28 -6 -63
v -35 3 -63
v -35 4 -63
v -39 2 -63
v -39 3 -63
v -43 1 -63
v -43 2 -63
v -46 -6 -63
v -46 1 -63

vn 0 1 0
vn 0 1 0
vn 0 1 0
vn 0 1 0
vn -1 0 0
vn -1 0 0
vn -1 0 0
vn -1 0 0
vn 0 1 0
vn 0 1 0
vn 0 1 0
vn 0 1 0
vn -1 0 0
vn -1 0 0
vn -1 0 0
vn -1 0 0
vn 0 1 0
vn 0 1 0
vn 0 1 0
vn 0 1 0
vn -1 0 0
vn -1 0 0
vn -1 0 0
vn -1 0 0
vn 0 1 0
vn 0 1 0
vn 0 1 0
vn 0 1 0
vn -1 0 0
vn -1 0 0
vn -1 0 0
vn -1 0 0
vn 0 1 0
vn 0 1 0
vn 0 1 0
vn 0 1 0
vn -1 0 0
vn -1 0 0
vn -1 0 0
vn -1 0 0
vn 0 0 -1
vn 0 0 -1
vn 0 0 -0.9999999
vn 0 0 -1
vn 0 0 -1
vn 0 0 -0.9999999
vn 0 0 -1
vn 0 0 -0.9999999
vn 0 0 -1
vn 0 0 -0.9999999
vn 0 0 -1
vn 0 0 -1
vn 0 0 0.9999999
vn 0 0 1
vn 0 0 1
vn 0 0 1
vn 0 0 0.9999999
vn 0 0 1
vn 0 0 0.9999999
vn 0 0 1
vn 0 0 0.9999999
vn 0 0 1
vn 0 0 1
vn 0 0 1

vt 0 1
vt 3 1
vt 0 0
vt 3 0
vt 1 0
vt 0 1
vt 1 1
vt 0 0
vt 4 1
vt 0 0
vt 0 1
vt 4 0
vt 1 0
vt 0 1
vt 1 1
vt 0 0
vt 4 1
vt 0 0
vt 0 1
vt 4 0
vt 1 0
vt 0 1
vt 1 1
vt 0 0
vt 4 1
vt 0 0
vt 0 1
vt 4 0
vt 1 0
vt 0 1
vt 1 1
vt 0 0
vt 3 1
vt 0 0
vt 0 1
vt 3 0
vt 1 0
vt 0 7
vt 1 7
vt 0 0
vt 18 7
vt 18 0
vt 15 7
vt 0 0
vt 15 8
vt 11 8
vt 11 9
vt 7 9
vt 7 10
vt 3 10
vt 0 11
vt 3 11
vt 15 10
vt 15 11
vt 18 11
vt 18 0
vt 11 9
vt 11 10
vt 7 8
vt 7 9
vt 3 7
vt 3 8
vt 0 0
vt 0 7

g Wall-detach_673_28
usemtl Wall-detach_673_28
usemap Wall-detach_673_28
f 1/1/1 3/3/3 2/2/2
f 2/2/2 3/3/3 4/4/4
f 5/5/5 7/7/7 6/6/6
f 5/5/5 6/6/6 8/8/8
f 9/9/9 11/11/11 10/10/10
f 9/9/9 10/10/10 12/12/12
f 13/13/13 15/15/15 14/14/14
f 13/13/13 14/14/14 16/16/16
f 17/17/17 19/19/19 18/18/18
f 17/17/17 18/18/18 20/20/20
f 21/21/21 23/23/23 22/22/22
f 21/21/21 22/22/22 24/24/24
f 25/25/25 27/27/27 26/26/26
f 25/25/25 26/26/26 28/28/28
f 29/29/29 31/31/31 30/30/30
f 29/29/29 30/30/30 32/32/32
f 33/33/33 35/35/35 34/34/34
f 33/33/33 34/34/34 36/36/36
f 37/37/37 39/39/39 38/38/38
f 37/37/37 38/38/38 40/40/40
f 41/41/41 43/43/43 42/42/42
f 43/43/43 44/44/44 42/42/42
f 45/45/45 46/46/46 43/43/43
f 46/46/46 44/44/44 43/43/43
f 47/47/47 48/48/48 46/46/46
f 48/48/48 44/44/44 46/46/46
f 49/49/49 50/50/50 48/48/48
f 48/48/48 50/50/50 44/44/44
f 44/44/44 50/50/50 51/51/51
f 51/51/51 50/50/50 52/52/52
f 53/53/53 55/55/55 54/54/54
f 53/53/53 56/56/56 55/55/55
f 53/53/53 57/57/57 56/56/56
f 53/53/53 58/58/58 57/57/57
f 56/56/56 57/57/57 59/59/59
f 57/57/57 60/60/60 59/59/59
f 56/56/56 59/59/59 61/61/61
f 59/59/59 62/62/62 61/61/61
f 56/56/56 61/61/61 63/63/63
f 61/61/61 64/64/64 63/63/63
