#Wall_692_2.obj

v -1 4 1
v -1 3 0
v -1 4 0
v -1 3 1
v -4 0 1
v -1 2 1
v -1 0 1
v -4 2 1
v -4 0 0
v -4 2 1
v -4 0 1
v -4 2 0
v -1 0 0
v -4 2 0
v -4 0 0
v -1 2 0
v -1 2 1
v -4 2 0
v -1 2 0
v -4 2 1

vn -1 0 0
vn -1 0 0
vn -1 0 0
vn -1 0 0
vn 0 0 1
vn 0 0 1
vn 0 0 1
vn 0 0 1
vn -1 0 0
vn -1 0 0
vn -1 0 0
vn -1 0 0
vn 0 0 -1
vn 0 0 -1
vn 0 0 -1
vn 0 0 -1
vn 0 1 0
vn 0 1 0
vn 0 1 0
vn 0 1 0

vt 1 1
vt 0 0
vt 0 1
vt 1 0
vt 0 0
vt 3 2
vt 3 0
vt 0 2
vt 0 0
vt 1 2
vt 1 0
vt 0 2
vt 0 0
vt 3 2
vt 3 0
vt 0 2
vt 0 1
vt 3 0
vt 0 0
vt 3 1

g Wall_692_2
usemtl Wall_692_2
usemap Wall_692_2
f 1/1/1 3/3/3 2/2/2
f 1/1/1 2/2/2 4/4/4
f 5/5/5 7/7/7 6/6/6
f 5/5/5 6/6/6 8/8/8
f 9/9/9 11/11/11 10/10/10
f 9/9/9 10/10/10 12/12/12
f 13/13/13 15/15/15 14/14/14
f 13/13/13 14/14/14 16/16/16
f 17/17/17 19/19/19 18/18/18
f 17/17/17 18/18/18 20/20/20
