#Wall-detach_1208_82.obj

v -1 1 -41
v -3 -2 -41
v -3 1 -41
v -1 -2 -41
v -1 1 -42
v -1 -2 -41
v -1 1 -41
v -1 -2 -42
v -2 1 -42
v -1 -2 -42
v -1 1 -42
v -2 -2 -42
v -2 1 -44
v -2 -2 -42
v -2 1 -42
v -2 -2 -44
v 23 1 -42
v 23 -2 -44
v 23 1 -44
v 23 -2 -42
v 22 1 -42
v 23 -2 -42
v 23 1 -42
v 22 -2 -42
v 22 1 -41
v 22 -2 -42
v 22 1 -42
v 22 -2 -41
v 28 1 -41
v 22 -2 -41
v 22 1 -41
v 28 -2 -41
v 28 1 -33
v 28 -2 -41
v 28 1 -41
v 28 -2 -33
v 15 1 -33
v 28 -2 -33
v 28 1 -33
v 15 -2 -33
v 15 1 -23
v 15 -2 -33
v 15 1 -33
v 15 -2 -23
v -3 1 -41
v -3 -2 -41
v -3 -2 -30
v -3 1 -30
v -5 -2 -30
v -5 1 -30
v -3 -2 -30
v -3 1 -30
v 10 -2 -38
v 10 -2 -23
v 10 1 -38
v 10 1 -23
v 18 1 -38
v 10 -2 -38
v 10 1 -38
v 18 -2 -38
v 18 1 -41
v 18 -2 -38
v 18 1 -38
v 18 -2 -41
v 19 1 -41
v 18 -2 -41
v 18 1 -41
v 19 -2 -41
v 19 1 -42
v 19 -2 -41
v 19 1 -41
v 19 -2 -42
v 18 1 -42
v 19 -2 -42
v 19 1 -42
v 18 -2 -42
v 18 1 -44
v 18 -2 -42
v 18 1 -42
v 18 -2 -44
v 3 1 -42
v 3 -2 -44
v 3 1 -44
v 3 -2 -42
v 2 1 -42
v 3 -2 -42
v 3 1 -42
v 2 -2 -42
v 2 1 -41
v 2 -2 -42
v 2 1 -42
v 2 -2 -41
v 5 1 -41
v 2 -2 -41
v 2 1 -41
v 5 -2 -41
v 5 1 -23
v 5 -2 -41
v 5 1 -41
v 5 -2 -23

vn 0 0 1
vn 0 0 1
vn 0 0 1
vn 0 0 1
vn 1 0 0
vn 1 0 0
vn 1 0 0
vn 1 0 0
vn 0 0 -1
vn 0 0 -1
vn 0 0 -1
vn 0 0 -1
vn 1 0 0
vn 1 0 0
vn 1 0 0
vn 1 0 0
vn -1 0 0
vn -1 0 0
vn -1 0 0
vn -1 0 0
vn 0 0 -1
vn 0 0 -1
vn 0 0 -1
vn 0 0 -1
vn -1 0 0
vn -1 0 0
vn -1 0 0
vn -1 0 0
vn 0 0 1
vn 0 0 1
vn 0 0 1
vn 0 0 1
vn -1 0 0
vn -1 0 0
vn -1 0 0
vn -1 0 0
vn 0 0 -1
vn 0 0 -1
vn 0 0 -1
vn 0 0 -1
vn -1 0 0
vn -1 0 0
vn -1 0 0
vn -1 0 0
vn 1 0 0
vn 1 0 0
vn 1 0 0
vn 1 0 0
vn 0 0 1
vn 0 0 1
vn 0 0 1
vn 0 0 1
vn 1 0 0
vn 1 0 0
vn 1 0 0
vn 1 0 0
vn 0 0 1
vn 0 0 1
vn 0 0 1
vn 0 0 1
vn 1 0 0
vn 1 0 0
vn 1 0 0
vn 1 0 0
vn 0 0 1
vn 0 0 1
vn 0 0 1
vn 0 0 1
vn 1 0 0
vn 1 0 0
vn 1 0 0
vn 1 0 0
vn 0 0 -1
vn 0 0 -1
vn 0 0 -1
vn 0 0 -1
vn 1 0 0
vn 1 0 0
vn 1 0 0
vn 1 0 0
vn -1 0 0
vn -1 0 0
vn -1 0 0
vn -1 0 0
vn 0 0 -1
vn 0 0 -1
vn 0 0 -1
vn 0 0 -1
vn -1 0 0
vn -1 0 0
vn -1 0 0
vn -1 0 0
vn 0 0 1
vn 0 0 1
vn 0 0 1
vn 0 0 1
vn -1 0 0
vn -1 0 0
vn -1 0 0
vn -1 0 0

vt 2 3
vt 0 0
vt 0 3
vt 2 0
vt 1 3
vt 0 0
vt 0 3
vt 1 0
vt 1 3
vt 0 0
vt 0 3
vt 1 0
vt 2 3
vt 0 0
vt 0 3
vt 2 0
vt 2 3
vt 0 0
vt 0 3
vt 2 0
vt 1 3
vt 0 0
vt 0 3
vt 1 0
vt 1 3
vt 0 0
vt 0 3
vt 1 0
vt 6 3
vt 0 0
vt 0 3
vt 6 0
vt 8 3
vt 0 0
vt 0 3
vt 8 0
vt 13 3
vt 0 0
vt 0 3
vt 13 0
vt 10 3
vt 0 0
vt 0 3
vt 10 0
vt 11 3
vt 11 0
vt 0 0
vt 0 3
vt 0 0
vt 0 3
vt 2 0
vt 2 3
vt 15 0
vt 0 0
vt 15 3
vt 0 3
vt 8 3
vt 0 0
vt 0 3
vt 8 0
vt 3 3
vt 0 0
vt 0 3
vt 3 0
vt 1 3
vt 0 0
vt 0 3
vt 1 0
vt 1 3
vt 0 0
vt 0 3
vt 1 0
vt 1 3
vt 0 0
vt 0 3
vt 1 0
vt 2 3
vt 0 0
vt 0 3
vt 2 0
vt 2 3
vt 0 0
vt 0 3
vt 2 0
vt 1 3
vt 0 0
vt 0 3
vt 1 0
vt 1 3
vt 0 0
vt 0 3
vt 1 0
vt 3 3
vt 0 0
vt 0 3
vt 3 0
vt 18 3
vt 0 0
vt 0 3
vt 18 0

g Wall-detach_1208_82
usemtl Wall-detach_1208_82
usemap Wall-detach_1208_82
f 1/1/1 3/3/3 2/2/2
f 1/1/1 2/2/2 4/4/4
f 5/5/5 7/7/7 6/6/6
f 5/5/5 6/6/6 8/8/8
f 9/9/9 11/11/11 10/10/10
f 9/9/9 10/10/10 12/12/12
f 13/13/13 15/15/15 14/14/14
f 13/13/13 14/14/14 16/16/16
f 17/17/17 19/19/19 18/18/18
f 17/17/17 18/18/18 20/20/20
f 21/21/21 23/23/23 22/22/22
f 21/21/21 22/22/22 24/24/24
f 25/25/25 27/27/27 26/26/26
f 25/25/25 26/26/26 28/28/28
f 29/29/29 31/31/31 30/30/30
f 29/29/29 30/30/30 32/32/32
f 33/33/33 35/35/35 34/34/34
f 33/33/33 34/34/34 36/36/36
f 37/37/37 39/39/39 38/38/38
f 37/37/37 38/38/38 40/40/40
f 41/41/41 43/43/43 42/42/42
f 41/41/41 42/42/42 44/44/44
f 45/45/45 47/47/47 46/46/46
f 48/48/48 47/47/47 45/45/45
f 49/49/49 51/51/51 50/50/50
f 50/50/50 51/51/51 52/52/52
f 53/53/53 55/55/55 54/54/54
f 54/54/54 55/55/55 56/56/56
f 57/57/57 59/59/59 58/58/58
f 57/57/57 58/58/58 60/60/60
f 61/61/61 63/63/63 62/62/62
f 61/61/61 62/62/62 64/64/64
f 65/65/65 67/67/67 66/66/66
f 65/65/65 66/66/66 68/68/68
f 69/69/69 71/71/71 70/70/70
f 69/69/69 70/70/70 72/72/72
f 73/73/73 75/75/75 74/74/74
f 73/73/73 74/74/74 76/76/76
f 77/77/77 79/79/79 78/78/78
f 77/77/77 78/78/78 80/80/80
f 81/81/81 83/83/83 82/82/82
f 81/81/81 82/82/82 84/84/84
f 85/85/85 87/87/87 86/86/86
f 85/85/85 86/86/86 88/88/88
f 89/89/89 91/91/91 90/90/90
f 89/89/89 90/90/90 92/92/92
f 93/93/93 95/95/95 94/94/94
f 93/93/93 94/94/94 96/96/96
f 97/97/97 99/99/99 98/98/98
f 97/97/97 98/98/98 100/100/100
