#Wall-detach_942_59.obj

v -68 -6 -37
v -68 8 -40
v -68 -6 -40
v -68 8 -37
v -75 0 -37
v -68 8 -37
v -68 0 -37
v -75 8 -37
v -68 0 -40
v -75 0 -37
v -68 0 -37
v -75 0 -40
v -68 -6 -40
v -75 0 -40
v -68 0 -40
v -75 -6 -40
v -75 -6 -37
v -75 0 -40
v -75 -6 -40
v -75 0 -37
v -68 -6 -26
v -68 1 -37
v -68 -6 -37
v -68 1 -26
v -69 -6 -26
v -68 1 -26
v -68 -6 -26
v -69 1 -26
v -69 -6 -40
v -69 1 -26
v -69 -6 -26
v -69 1 -40
v -69 1 -26
v -68 1 -37
v -68 1 -26
v -69 1 -40

vn 1 0 0
vn 1 0 0
vn 1 0 0
vn 1 0 0
vn 0 0 1
vn 0 0 1
vn 0 0 1
vn 0 0 1
vn 0 -1 0
vn 0 -1 0
vn 0 -1 0
vn 0 -1 0
vn 0 0 1
vn 0 0 1
vn 0 0 1
vn 0 0 1
vn 1 0 0
vn 1 0 0
vn 1 0 0
vn 1 0 0
vn 1 0 0
vn 1 0 0
vn 1 0 0
vn 1 0 0
vn 0 0 1
vn 0 0 1
vn 0 0 1
vn 0 0 1
vn -1 0 0
vn -1 0 0
vn -1 0 0
vn -1 0 0
vn 0 1 0
vn 0 1 0
vn 0 1 0
vn 0 1 0

vt -0.00241673 0.000518322
vt 3.002417 13.99948
vt 2.997583 -0.0005173683
vt 0.002416968 14.00052
vt -7.152557E-07 7.152557E-07
vt 7.000001 7.999999
vt 6.999999 -4.768372E-07
vt 7.152557E-07 8
vt 7 -5.960464E-07
vt 2.384186E-07 3
vt 7 3
vt -2.384186E-07 5.960464E-07
vt 7.001035 0.001207829
vt -0.001034975 5.998792
vt 6.998964 6.001207
vt 0.001035452 -0.00120759
vt 0 0
vt 3 6
vt 3 0
vt 0 6
vt 0 0
vt 11 7
vt 11 0
vt 0 7
vt -0.001208425 0.0001728535
vt 1.001208 6.999827
vt 0.9987916 -0.0001723766
vt 0.001208454 7.000173
vt 0 0
vt 14 7
vt 14 0
vt 0 7
vt 1 14
vt 0 3
vt 0 14
vt 1 0

g Wall-detach_942_59
usemtl Wall-detach_942_59
usemap Wall-detach_942_59
f 1/1/1 3/3/3 2/2/2
f 1/1/1 2/2/2 4/4/4
f 5/5/5 7/7/7 6/6/6
f 5/5/5 6/6/6 8/8/8
f 9/9/9 11/11/11 10/10/10
f 9/9/9 10/10/10 12/12/12
f 13/13/13 15/15/15 14/14/14
f 13/13/13 14/14/14 16/16/16
f 17/17/17 19/19/19 18/18/18
f 17/17/17 18/18/18 20/20/20
f 21/21/21 23/23/23 22/22/22
f 21/21/21 22/22/22 24/24/24
f 25/25/25 27/27/27 26/26/26
f 25/25/25 26/26/26 28/28/28
f 29/29/29 31/31/31 30/30/30
f 29/29/29 30/30/30 32/32/32
f 33/33/33 35/35/35 34/34/34
f 33/33/33 34/34/34 36/36/36
