#Wall-detach_753_59.obj

v 8 5 62
v 4 5 62
v 4 2 62
v 8 -7 62
v 4 -7 62
v 3 5 62
v 4 2 62
v 4 5 62
v 3 2 62
v 2 -7 62
v 3 -7 62
v 3 2 62
v 3 5 62
v 2 5 62
v 2 5 59
v 2 -7 62
v 2 5 62
v 2 -7 59
v 5 5 59
v 2 -7 59
v 2 5 59
v 5 -7 59
v 5 5 55
v 5 -7 59
v 5 5 59
v 5 -7 55
v 5 -7 55
v 5 5 55
v 8 5 55
v 8 -7 55

vn 0 0 -1
vn 0 0 -1
vn 0 0 -1
vn 0 0 -1
vn 0 0 -1
vn 0 0 -1
vn 0 0 -1
vn 0 0 -1
vn 0 0 -1
vn 0 0 -1
vn 0 0 -1
vn 0 0 -1
vn 0 0 -1
vn 0 0 -1
vn 1 0 0
vn 1 0 0
vn 1 0 0
vn 1 0 0
vn 0 0 1
vn 0 0 1
vn 0 0 1
vn 0 0 1
vn 1 0 0
vn 1 0 0
vn 1 0 0
vn 1 0 0
vn 0 0 1
vn 0 0 1
vn 0 0 1
vn 0 0 1

vt 0 12
vt 4 12
vt 4 9
vt 0 0
vt 4 0
vt 1 3
vt 0 0
vt 0 3
vt 1 0
vt 1 0
vt 0 0
vt 0 9
vt 0 12
vt 1 12
vt 3 12
vt 0 0
vt 0 12
vt 3 0
vt 3 12
vt 0 0
vt 0 12
vt 3 0
vt 4 12
vt 0 0
vt 0 12
vt 4 0
vt 0 0
vt 0 12
vt 3 12
vt 3 0

g Wall-detach_753_59
usemtl Wall-detach_753_59
usemap Wall-detach_753_59
f 1/1/1 3/3/3 2/2/2
f 1/1/1 4/4/4 3/3/3
f 3/3/3 4/4/4 5/5/5
f 6/6/6 8/8/8 7/7/7
f 7/7/7 9/9/9 6/6/6
f 10/10/10 12/12/12 11/11/11
f 13/13/13 12/12/12 14/14/14
f 14/14/14 12/12/12 10/10/10
f 15/15/15 17/17/17 16/16/16
f 15/15/15 16/16/16 18/18/18
f 19/19/19 21/21/21 20/20/20
f 19/19/19 20/20/20 22/22/22
f 23/23/23 25/25/25 24/24/24
f 23/23/23 24/24/24 26/26/26
f 27/27/27 29/29/29 28/28/28
f 30/30/30 29/29/29 27/27/27
