#Wall_579_20.obj

v -3 1 -6
v 3 1 -6
v 3 3 -6
v -3 3 -6
v -3 1 0
v -3 1 -6
v -3 3 0
v -3 3 -6
v 3 1 -6
v 3 1 0
v 3 3 0
v 3 3 -6
v 3 1 0
v -3 1 0
v -3 3 0
v 3 3 0

vn 0 0 -1
vn 0 0 -1
vn 0 0 -1
vn 0 0 -1
vn -1 0 0
vn -1 0 0
vn -1 0 0
vn -1 0 0
vn 1 0 0
vn 1 0 0
vn 1 0 0
vn 1 0 0
vn 0 0 1
vn 0 0 1
vn 0 0 1
vn 0 0 1

vt -7 -1
vt -13 -1
vt -13 1
vt -7 1
vt 23 -1
vt 17 -1
vt 23 1
vt 17 1
vt -17 -1
vt -23 -1
vt -23 1
vt -17 1
vt 13 -1
vt 7 -1
vt 7 1
vt 13 1

g Wall_579_20
usemtl Wall_579_20
usemap Wall_579_20
f 1/1/1 3/3/3 2/2/2
f 4/4/4 3/3/3 1/1/1
f 5/5/5 7/7/7 6/6/6
f 6/6/6 7/7/7 8/8/8
f 9/9/9 11/11/11 10/10/10
f 12/12/12 11/11/11 9/9/9
f 13/13/13 15/15/15 14/14/14
f 16/16/16 15/15/15 13/13/13
