#Wall-detach_746_58.obj

v 33 5 12
v 27 0 12
v 33 0 12
v 27 5 12
v 20 5 12
v 27 -7 12
v 27 5 12
v 20 -7 12
v 29 -7 5
v 35 5 5
v 35 -7 5
v 29 5 5
v 29 -7 6
v 29 5 5
v 29 -7 5
v 29 5 6
v 20 -7 6
v 29 5 6
v 29 -7 6
v 20 5 6
v 35 -7 12
v 35 -7 5
v 35 5 12
v 35 5 5
v 33 -7 12
v 35 -7 12
v 35 5 12
v 33 0 12
v 33 5 12

vn 0 0 -1
vn 0 0 -1
vn 0 0 -1
vn 0 0 -1
vn 0 0 -1
vn 0 0 -1
vn 0 0 -1
vn 0 0 -1
vn 0 0 1
vn 0 0 1
vn 0 0 1
vn 0 0 1
vn 1 0 0
vn 1 0 0
vn 1 0 0
vn 1 0 0
vn 0 0 1
vn 0 0 1
vn 0 0 1
vn 0 0 1
vn -1 0 0
vn -1 0 0
vn -1 0 0
vn -1 0 0
vn 0 0 -1
vn 0 0 -1
vn 0 0 -1
vn 0 0 -1
vn 0 0 -1

vt 0 5
vt 6 0
vt 0 0
vt 6 5
vt 7 12
vt 0 0
vt 0 12
vt 7 0
vt 0 0
vt 6 12
vt 6 0
vt 0 12
vt 0 0
vt 1 12
vt 1 0
vt 0 12
vt 0 0
vt 9 12
vt 9 0
vt 0 12
vt 7 0
vt 0 0
vt 7 12
vt 0 12
vt 2 0
vt 0 0
vt 0 12
vt 2 7
vt 2 12

g Wall-detach_746_58
usemtl Wall-detach_746_58
usemap Wall-detach_746_58
f 1/1/1 3/3/3 2/2/2
f 1/1/1 2/2/2 4/4/4
f 5/5/5 7/7/7 6/6/6
f 5/5/5 6/6/6 8/8/8
f 9/9/9 11/11/11 10/10/10
f 9/9/9 10/10/10 12/12/12
f 13/13/13 15/15/15 14/14/14
f 13/13/13 14/14/14 16/16/16
f 17/17/17 19/19/19 18/18/18
f 17/17/17 18/18/18 20/20/20
f 21/21/21 23/23/23 22/22/22
f 22/22/22 23/23/23 24/24/24
f 25/25/25 27/27/27 26/26/26
f 28/28/28 27/27/27 25/25/25
f 29/29/29 27/27/27 28/28/28
