#Wall-detach_922_63.obj

v -27 8 -57
v -15 -6 -57
v -15 8 -57
v -27 -6 -57
v -27 8 -65
v -27 -6 -57
v -27 8 -57
v -27 -6 -65
v -28 8 -65
v -27 -6 -65
v -27 8 -65
v -28 -6 -65
v -15 -6 -34
v -15 8 -34
v -15 -6 -57
v -15 8 -57

vn 0 0 -1
vn 0 0 -1
vn 0 0 -1
vn 0 0 -1
vn 1 0 0
vn 1 0 0
vn 1 0 0
vn 1 0 0
vn 0 0 -1
vn 0 0 -1
vn 0 0 -1
vn 0 0 -1
vn 1 0 0
vn 1 0 0
vn 1 0 0
vn 1 0 0

vt 11.99758 14.00207
vt 0.002415657 -0.00206995
vt -0.00241518 13.99793
vt 12.00241 0.002070904
vt 8.000002 14
vt -1.430511E-06 4.768372E-07
vt 1.192093E-06 14
vt 7.999999 -4.768372E-07
vt 1.000001 14
vt -1.251698E-06 0
vt 1.221895E-06 14
vt 0.9999988 0
vt -9.536743E-07 1.907349E-06
vt 9.536743E-07 14
vt 23 -1.907349E-06
vt 23 14

g Wall-detach_922_63
usemtl Wall-detach_922_63
usemap Wall-detach_922_63
f 1/1/1 3/3/3 2/2/2
f 1/1/1 2/2/2 4/4/4
f 5/5/5 7/7/7 6/6/6
f 5/5/5 6/6/6 8/8/8
f 9/9/9 11/11/11 10/10/10
f 9/9/9 10/10/10 12/12/12
f 13/13/13 15/15/15 14/14/14
f 14/14/14 15/15/15 16/16/16
