#Wall-detach_677_37.obj

v -28 0 -38
v -28 0 -59
v -28 7 -38
v -28 7 -59
v -32 0 -59
v -32 0 -38
v -32 7 -59
v -32 7 -38
v -28 8 -38
v -28 7 -38
v -32 8 -38
v -32 7 -38
v -28 7 -38
v -28 7 -59
v -32 7 -38
v -32 7 -59
v -28 7 -59
v -28 8 -59
v -32 7 -59
v -32 8 -59
v -46 0 -59
v -32 0 -59
v -46 8 -59
v -32 7 -59
v -32 8 -59
v -28 8 -59
v -28 7 -59
v -28 8 -65
v -28 0 -59
v -28 0 -65
v -27 0 -65
v -28 8 -65
v -28 0 -65
v -27 8 -65
v -27 0 -71
v -27 8 -65
v -27 0 -65
v -27 8 -71

vn -1 0 0
vn -1 0 0
vn -1 0 0
vn -1 0 0
vn 1 0 0
vn 1 0 0
vn 1 0 0
vn 1 0 0
vn 0 0 1
vn 0 0 1
vn 0 0 1
vn 0 0 1
vn 0 -1 0
vn 0 -1 0
vn 0 -1 0
vn 0 -1 0
vn 0 0 -1
vn 0 0 -1
vn 0 0 -1
vn 0 0 -1
vn 0 0 -1
vn 0 0 -1
vn 0 0 -1
vn 0 0 -1
vn 0 0 -1
vn -1 0 0
vn -1 0 0
vn -1 0 0
vn -1 0 0
vn -1 0 0
vn 0 0 -1
vn 0 0 -1
vn 0 0 -1
vn 0 0 -1
vn -1 0 0
vn -1 0 0
vn -1 0 0
vn -1 0 0

vt 21 0
vt 0 0
vt 21 7
vt 0 7
vt 21 0
vt 0 0
vt 21 7
vt 0 7
vt 4 1
vt 4 0
vt 0 1
vt 0 0
vt 4 21
vt 4 0
vt 0 21
vt 0 0
vt 0 0
vt 0 1
vt 4 0
vt 4 1
vt 13.99862 -0.002416611
vt -0.001380444 0.002417088
vt 14.00138 7.997583
vt 0.001036167 7.002417
vt 0.001381397 8.002417
vt 9.75 8
vt 9.75 7
vt 3.75 8
vt 9.75 0
vt 3.75 0
vt 0 0
vt 1 8
vt 1 0
vt 0 8
vt 0 0
vt 6 8
vt 6 0
vt 0 8

g Wall-detach_677_37
usemtl Wall-detach_677_37
usemap Wall-detach_677_37
f 1/1/1 3/3/3 2/2/2
f 2/2/2 3/3/3 4/4/4
f 5/5/5 7/7/7 6/6/6
f 6/6/6 7/7/7 8/8/8
f 9/9/9 11/11/11 10/10/10
f 10/10/10 11/11/11 12/12/12
f 13/13/13 15/15/15 14/14/14
f 14/14/14 15/15/15 16/16/16
f 17/17/17 19/19/19 18/18/18
f 18/18/18 19/19/19 20/20/20
f 21/21/21 23/23/23 22/22/22
f 22/22/22 23/23/23 24/24/24
f 24/24/24 23/23/23 25/25/25
f 26/26/26 28/28/28 27/27/27
f 29/29/29 28/28/28 30/30/30
f 27/27/27 28/28/28 29/29/29
f 31/31/31 33/33/33 32/32/32
f 31/31/31 32/32/32 34/34/34
f 35/35/35 37/37/37 36/36/36
f 35/35/35 36/36/36 38/38/38
