#Wall-detach_1282_64.obj

v -5 1 -44
v -2 -2 -44
v -2 1 -44
v -5 -2 -44
v -5 1 -50
v -5 -2 -44
v -5 1 -44
v -5 -2 -50
v 1 1 -50
v -5 -2 -50
v -5 1 -50
v 1 -2 -50
v 1 1 -57
v 1 -2 -50
v 1 1 -50
v 1 -2 -57
v 20 1 -57
v 1 -2 -57
v 1 1 -57
v 20 -2 -57
v 20 1 -50
v 20 -2 -57
v 20 1 -57
v 20 -2 -50
v 26 1 -50
v 20 -2 -50
v 20 1 -50
v 26 -2 -50
v 26 1 -44
v 26 -2 -50
v 26 1 -50
v 26 -2 -44
v 23 1 -44
v 26 -2 -44
v 26 1 -44
v 23 -2 -44
v 16 -2 -51
v 16 -2 -49
v 16 1 -51
v 16 1 -49
v 5 1 -51
v 16 -2 -51
v 16 1 -51
v 5 -2 -51
v 5 1 -49
v 5 -2 -51
v 5 1 -51
v 5 -2 -49
v 16 1 -49
v 5 -2 -49
v 5 1 -49
v 16 -2 -49
v 3 1 -44
v 18 -2 -44
v 18 1 -44
v 3 -2 -44

vn 0 0 -1
vn 0 0 -1
vn 0 0 -1
vn 0 0 -1
vn 1 0 0
vn 1 0 0
vn 1 0 0
vn 1 0 0
vn 0 0 1
vn 0 0 1
vn 0 0 1
vn 0 0 1
vn 1 0 0
vn 1 0 0
vn 1 0 0
vn 1 0 0
vn 0 0 1
vn 0 0 1
vn 0 0 1
vn 0 0 1
vn -1 0 0
vn -1 0 0
vn -1 0 0
vn -1 0 0
vn 0 0 1
vn 0 0 1
vn 0 0 1
vn 0 0 1
vn -1 0 0
vn -1 0 0
vn -1 0 0
vn -1 0 0
vn 0 0 -1
vn 0 0 -1
vn 0 0 -1
vn 0 0 -1
vn 1 0 0
vn 1 0 0
vn 1 0 0
vn 1 0 0
vn 0 0 -1
vn 0 0 -1
vn 0 0 -1
vn 0 0 -1
vn -1 0 0
vn -1 0 0
vn -1 0 0
vn -1 0 0
vn 0 0 1
vn 0 0 1
vn 0 0 1
vn 0 0 1
vn 0 0 -1
vn 0 0 -1
vn 0 0 -1
vn 0 0 -1

vt 3 3
vt 0 0
vt 0 3
vt 3 0
vt 6 3
vt 0 0
vt 0 3
vt 6 0
vt 6 3
vt 0 0
vt 0 3
vt 6 0
vt 7 3
vt 0 0
vt 0 3
vt 7 0
vt 19 3
vt 0 0
vt 0 3
vt 19 0
vt 7 3
vt 0 0
vt 0 3
vt 7 0
vt 6 3
vt 0 0
vt 0 3
vt 6 0
vt 6 3
vt 0 0
vt 0 3
vt 6 0
vt 3 3
vt 0 0
vt 0 3
vt 3 0
vt 2 0
vt 0 0
vt 2 3
vt 0 3
vt 11 3
vt 0 0
vt 0 3
vt 11 0
vt 2 3
vt 0 0
vt 0 3
vt 2 0
vt 11 3
vt 0 0
vt 0 3
vt 11 0
vt 15 3
vt 0 0
vt 0 3
vt 15 0

g Wall-detach_1282_64
usemtl Wall-detach_1282_64
usemap Wall-detach_1282_64
f 1/1/1 3/3/3 2/2/2
f 1/1/1 2/2/2 4/4/4
f 5/5/5 7/7/7 6/6/6
f 5/5/5 6/6/6 8/8/8
f 9/9/9 11/11/11 10/10/10
f 9/9/9 10/10/10 12/12/12
f 13/13/13 15/15/15 14/14/14
f 13/13/13 14/14/14 16/16/16
f 17/17/17 19/19/19 18/18/18
f 17/17/17 18/18/18 20/20/20
f 21/21/21 23/23/23 22/22/22
f 21/21/21 22/22/22 24/24/24
f 25/25/25 27/27/27 26/26/26
f 25/25/25 26/26/26 28/28/28
f 29/29/29 31/31/31 30/30/30
f 29/29/29 30/30/30 32/32/32
f 33/33/33 35/35/35 34/34/34
f 33/33/33 34/34/34 36/36/36
f 37/37/37 39/39/39 38/38/38
f 38/38/38 39/39/39 40/40/40
f 41/41/41 43/43/43 42/42/42
f 41/41/41 42/42/42 44/44/44
f 45/45/45 47/47/47 46/46/46
f 45/45/45 46/46/46 48/48/48
f 49/49/49 51/51/51 50/50/50
f 49/49/49 50/50/50 52/52/52
f 53/53/53 55/55/55 54/54/54
f 53/53/53 54/54/54 56/56/56
