#Wall-detach_761_61.obj

v 22 5 36
v 22 1 33
v 22 1 36
v 22 5 33
v 37 0 30
v 36 0 36
v 37 0 36
v 36 0 30
v 37 -7 30
v 36 0 30
v 37 0 30
v 36 -7 30
v 37 -7 36
v 36 0 36
v 36 -7 36
v 37 0 36
v 36 5 30
v 36 0 36
v 36 0 30
v 36 5 36
v 27 0 16
v 33 5 16
v 33 0 16
v 27 5 16
v 25 -7 24
v 24 5 24
v 24 -7 24
v 25 5 24
v 25 -7 30
v 25 5 24
v 25 -7 24
v 25 5 30
v 27 5 16
v 27 0 16
v 24 5 16
v 24 -7 16
v 27 -7 16
v 24 5 24
v 24 5 16
v 24 -7 16
v 24 -7 24
v 33 -7 12
v 33 0 16
v 33 -7 16
v 33 0 12
v 27 0 12
v 27 -7 16
v 27 0 16
v 27 -7 12
v 33 0 16
v 27 0 12
v 27 0 16
v 33 0 12
v 36 5 16
v 33 0 16
v 33 5 16
v 36 -7 16
v 33 -7 16
v 25 5 30
v 25 -7 30
v 22 5 30
v 22 -7 30
v 36 5 30
v 36 0 30
v 36 5 16
v 36 -7 30
v 36 -7 16
v 22 1 33
v 22 5 33
v 22 5 30
v 22 -7 30
v 22 -7 33
v 36 5 36
v 22 5 36
v 22 1 36
v 36 0 36
v 22 -7 36
v 36 -7 36

vn 1 0 0
vn 1 0 0
vn 1 0 0
vn 1 0 0
vn 0 -1 0
vn 0 -1 0
vn 0 -1 0
vn 0 -1 0
vn 0 0 1
vn 0 0 1
vn 0 0 1
vn 0 0 1
vn 0 0 -1
vn 0 0 -1
vn 0 0 -1
vn 0 0 -1
vn -1 0 0
vn -1 0 0
vn -1 0 0
vn -1 0 0
vn 0 0 1
vn 0 0 1
vn 0 0 1
vn 0 0 1
vn 0 0 -1
vn 0 0 -1
vn 0 0 -1
vn 0 0 -1
vn 1 0 0
vn 1 0 0
vn 1 0 0
vn 1 0 0
vn 0 0 1
vn 0 0 1
vn 0 0 1
vn 0 0 1
vn 0 0 1
vn 1 0 0
vn 1 0 0
vn 1 0 0
vn 1 0 0
vn -1 0 0
vn -1 0 0
vn -1 0 0
vn -1 0 0
vn 1 0 0
vn 1 0 0
vn 1 0 0
vn 1 0 0
vn 0 -1 0
vn 0 -1 0
vn 0 -1 0
vn 0 -1 0
vn 0 0 1
vn 0 0 1
vn 0 0 1
vn 0 0 1
vn 0 0 1
vn 0 0 1
vn 0 0 1
vn 0 0 1
vn 0 0 1
vn -1 0 0
vn -1 0 0
vn -1 0 0
vn -1 0 0
vn -1 0 0
vn 1 0 0
vn 1 0 0
vn 1 0 0
vn 1 0 0
vn 1 0 0
vn 0 0 -1
vn 0 0 -1
vn 0 0 -1
vn 0 0 -1
vn 0 0 -1
vn 0 0 -1

vt 0 4
vt 3 0
vt 0 0
vt 3 4
vt 1 0
vt 0 6
vt 1 6
vt 0 0
vt 1 0
vt 0 7
vt 1 7
vt 0 0
vt 0 0
vt 1 7
vt 1 0
vt 0 7
vt 0 5
vt 6 0
vt 0 0
vt 6 5
vt 0 0
vt 6 5
vt 6 0
vt 0 5
vt 0 0
vt 1 12
vt 1 0
vt 0 12
vt 0 0
vt 6 12
vt 6 0
vt 0 12
vt 3 12
vt 3 7
vt 0 12
vt 0 0
vt 3 0
vt 0 12
vt 8 12
vt 8 0
vt 0 0
vt 0 0
vt 4 7
vt 4 0
vt 0 7
vt 4 7
vt 0 0
vt 0 7
vt 4 0
vt 6 4
vt 0 0
vt 0 4
vt 6 0
vt 3 12
vt 0 7
vt 0 12
vt 3 0
vt 0 0
vt 3 12
vt 3 0
vt 0 12
vt 0 0
vt 14 12
vt 14 7
vt 0 12
vt 14 0
vt 0 0
vt 0 8
vt 0 12
vt 3 12
vt 3 0
vt 0 0
vt 0 12
vt 14 12
vt 14 8
vt 0 7
vt 14 0
vt 0 0

g Wall-detach_761_61
usemtl Wall-detach_761_61
usemap Wall-detach_761_61
f 1/1/1 3/3/3 2/2/2
f 1/1/1 2/2/2 4/4/4
f 5/5/5 7/7/7 6/6/6
f 5/5/5 6/6/6 8/8/8
f 9/9/9 11/11/11 10/10/10
f 9/9/9 10/10/10 12/12/12
f 13/13/13 15/15/15 14/14/14
f 13/13/13 14/14/14 16/16/16
f 17/17/17 19/19/19 18/18/18
f 17/17/17 18/18/18 20/20/20
f 21/21/21 23/23/23 22/22/22
f 21/21/21 22/22/22 24/24/24
f 25/25/25 27/27/27 26/26/26
f 25/25/25 26/26/26 28/28/28
f 29/29/29 31/31/31 30/30/30
f 29/29/29 30/30/30 32/32/32
f 33/33/33 35/35/35 34/34/34
f 35/35/35 36/36/36 34/34/34
f 34/34/34 36/36/36 37/37/37
f 38/38/38 40/40/40 39/39/39
f 41/41/41 40/40/40 38/38/38
f 42/42/42 44/44/44 43/43/43
f 42/42/42 43/43/43 45/45/45
f 46/46/46 48/48/48 47/47/47
f 46/46/46 47/47/47 49/49/49
f 50/50/50 52/52/52 51/51/51
f 50/50/50 51/51/51 53/53/53
f 54/54/54 56/56/56 55/55/55
f 57/57/57 54/54/54 58/58/58
f 58/58/58 54/54/54 55/55/55
f 59/59/59 61/61/61 60/60/60
f 60/60/60 61/61/61 62/62/62
f 63/63/63 65/65/65 64/64/64
f 66/66/66 65/65/65 67/67/67
f 64/64/64 65/65/65 66/66/66
f 68/68/68 70/70/70 69/69/69
f 71/71/71 70/70/70 72/72/72
f 72/72/72 70/70/70 68/68/68
f 73/73/73 75/75/75 74/74/74
f 76/76/76 75/75/75 73/73/73
f 77/77/77 75/75/75 78/78/78
f 78/78/78 75/75/75 76/76/76
