#Wall-detach_748_50.obj

v -7 0 52
v -7 5 52
v -7 0 68
v -7 5 68
v -7 5 68
v 8 5 68
v -7 0 68
v 8 -7 68
v -7 -7 68
v 7 5 71
v -19 5 71
v -19 -7 71
v 7 -7 71
v -19 5 71
v -19 5 58
v -19 0 58
v -19 0 71
v -19 5 52
v -19 2 58
v -19 5 58
v -19 2 52
v -19 5 52
v -19 5 46
v -19 2 52
v -19 -7 46
v -19 -7 52
v -2 5 46
v -19 -7 46
v -19 5 46
v -2 -7 46

vn -1 0 0
vn -1 0 0
vn -1 0 0
vn -1 0 0
vn 0 0 1
vn 0 0 1
vn 0 0 1
vn 0 0 1
vn 0 0 1
vn 0 0 -1
vn 0 0 -1
vn 0 0 -1
vn 0 0 -1
vn 1 0 0
vn 1 0 0
vn 1 0 0
vn 1 0 0
vn 1 0 0
vn 1 0 0
vn 1 0 0
vn 1 0 0
vn 1 0 0
vn 1 0 0
vn 1 0 0
vn 1 0 0
vn 1 0 0
vn 0 0 1
vn 0 0 1
vn 0 0 1
vn 0 0 1

vt 0 0
vt 0 5
vt 16 0
vt 16 5
vt 0 12
vt 15 12
vt 0 7
vt 15 0
vt 0 0
vt 0 12
vt 26 12
vt 26 0
vt 0 0
vt 0 5
vt 13 5
vt 13 0
vt 0 0
vt 6 3
vt 0 0
vt 0 3
vt 6 0
vt 0 12
vt 6 12
vt 0 9
vt 6 0
vt 0 0
vt 17 12
vt 0 0
vt 0 12
vt 17 0

g Wall-detach_748_50
usemtl Wall-detach_748_50
usemap Wall-detach_748_50
f 1/1/1 3/3/3 2/2/2
f 2/2/2 3/3/3 4/4/4
f 5/5/5 7/7/7 6/6/6
f 6/6/6 7/7/7 8/8/8
f 8/8/8 7/7/7 9/9/9
f 10/10/10 12/12/12 11/11/11
f 10/10/10 13/13/13 12/12/12
f 14/14/14 16/16/16 15/15/15
f 14/14/14 17/17/17 16/16/16
f 18/18/18 20/20/20 19/19/19
f 19/19/19 21/21/21 18/18/18
f 22/22/22 24/24/24 23/23/23
f 23/23/23 24/24/24 25/25/25
f 25/25/25 24/24/24 26/26/26
f 27/27/27 29/29/29 28/28/28
f 27/27/27 28/28/28 30/30/30
