#Wall-detach_913_54.obj

v 0 0 21
v -10 8 21
v -10 0 21
v 0 8 21
v 0 0 27
v 0 8 21
v 0 0 21
v 0 8 27
v 5 0 27
v 0 8 27
v 0 0 27
v 5 8 27
v 5 0 12
v 5 8 27
v 5 0 27
v 5 8 12
v 0 5 1
v 3 8 1
v 3 5 1
v 0 8 1
v -10 0 -3
v -3 8 -3
v -3 0 -3
v -10 8 -3
v 0 8 1
v 0 5 1
v -3 8 1
v 0 0 1
v -3 0 1
v -3 0 1
v -3 0 -3
v -3 8 1
v -3 8 -3
v 5 0 1
v 3 0 1
v 5 8 1
v 3 5 1
v 3 8 1
v 5 8 12
v 5 0 12
v 5 8 1
v 5 0 1

vn 0 0 -1
vn 0 0 -1
vn 0 0 -1
vn 0 0 -1
vn 1 0 0
vn 1 0 0
vn 1 0 0
vn 1 0 0
vn 0 0 -1
vn 0 0 -1
vn 0 0 -1
vn 0 0 -1
vn -1 0 0
vn -1 0 0
vn -1 0 0
vn -1 0 0
vn 0 0 1
vn 0 0 1
vn 0 0 1
vn 0 0 1
vn 0 0 1
vn 0 0 1
vn 0 0 1
vn 0 0 1
vn 0 0 1
vn 0 0 1
vn 0 0 1
vn 0 0 1
vn 0 0 1
vn -1 0 0
vn -1 0 0
vn -1 0 0
vn -1 0 0
vn 0 0 1
vn 0 0 1
vn 0 0 1
vn 0 0 1
vn 0 0 1
vn -1 0 0
vn -1 0 0
vn -1 0 0
vn -1 0 0

vt 0 0
vt 10 8
vt 10 0
vt 0 8
vt -7.152557E-07 4.768372E-07
vt 6.000001 8
vt 5.999999 -4.768372E-07
vt 7.152557E-07 8
vt -0.00138092 0.0008633137
vt 5.001381 7.999137
vt 4.998619 -0.0008630753
vt 0.001381159 8.000863
vt 0 0
vt 15 8
vt 15 0
vt 0 8
vt 0 0
vt 3 3
vt 3 0
vt 0 3
vt 0 0
vt 7 8
vt 7 0
vt 0 8
vt 3.001381 7.999482
vt 3.000345 4.999482
vt 0.001381159 8.000518
vt 2.998619 -0.0005178452
vt -0.00138092 0.0005180836
vt 3.999999 -4.768372E-07
vt -7.152557E-07 2.384186E-07
vt 4.000001 8
vt 7.152557E-07 8
vt 1.998619 -0.0003452301
vt -0.00138104 0.0003454685
vt 2.001381 7.999655
vt 0.0003453493 5.000345
vt 0.001381099 8.000345
vt 11 8
vt 11 0
vt 0 8
vt 0 0

g Wall-detach_913_54
usemtl Wall-detach_913_54
usemap Wall-detach_913_54
f 1/1/1 3/3/3 2/2/2
f 1/1/1 2/2/2 4/4/4
f 5/5/5 7/7/7 6/6/6
f 5/5/5 6/6/6 8/8/8
f 9/9/9 11/11/11 10/10/10
f 9/9/9 10/10/10 12/12/12
f 13/13/13 15/15/15 14/14/14
f 13/13/13 14/14/14 16/16/16
f 17/17/17 19/19/19 18/18/18
f 17/17/17 18/18/18 20/20/20
f 21/21/21 23/23/23 22/22/22
f 21/21/21 22/22/22 24/24/24
f 25/25/25 27/27/27 26/26/26
f 28/28/28 27/27/27 29/29/29
f 26/26/26 27/27/27 28/28/28
f 30/30/30 32/32/32 31/31/31
f 31/31/31 32/32/32 33/33/33
f 34/34/34 36/36/36 35/35/35
f 35/35/35 36/36/36 37/37/37
f 37/37/37 36/36/36 38/38/38
f 39/39/39 41/41/41 40/40/40
f 40/40/40 41/41/41 42/42/42
